<?xml version="1.0" encoding="UTF-8" standalone="no"?>
<svg
   width="495.17398pt"
   height="164.3868pt"
   viewBox="0 0 495.17398 164.38679"
   version="1.1"
   id="svg75"
   xmlns="http://www.w3.org/2000/svg"
   xmlns:svg="http://www.w3.org/2000/svg"
   xmlns:ns1="http://www.iki.fi/pav/software/textext/">
  <defs
     id="defs1">
    <clipPath
       id="clip-0">
      <path
         clip-rule="nonzero"
         d="m 504,10 h 23.25 V 34 H 504 Z m 0,0"
         id="path1" />
    </clipPath>
  </defs>
  <path
     fill="none"
     stroke-width="0.668249"
     stroke-linecap="butt"
     stroke-linejoin="miter"
     stroke="#000000"
     stroke-opacity="1"
     stroke-miterlimit="10"
     d="M 202.39277,13.699238 H 490.58035"
     id="path2" />
  <path
     fill-rule="nonzero"
     fill="#000000"
     fill-opacity="1"
     stroke-width="0.668249"
     stroke-linecap="butt"
     stroke-linejoin="miter"
     stroke="#000000"
     stroke-opacity="1"
     stroke-miterlimit="10"
     d="m 198.88496,13.699238 4.67578,-2.339841 -1.16797,2.339841 1.16797,2.335937 z m 0,0"
     id="path3" />
  <path
     fill-rule="nonzero"
     fill="#000000"
     fill-opacity="1"
     d="m 494.09193,13.699219 -4.67969,2.335937 1.16797,-2.335937 -1.16797,-2.339844 z m 0,0"
     id="path4" />
  <g
     clip-path="url(#clip-0)"
     id="g5"
     transform="translate(-24.525257,-8.4218749)">
    <path
       fill="none"
       stroke-width="1"
       stroke-linecap="butt"
       stroke-linejoin="miter"
       stroke="#000000"
       stroke-opacity="1"
       stroke-miterlimit="10"
       d="m 781.88244,120.50205 -7.00291,3.49561 1.74781,-3.49561 -1.74781,-3.50145 z m 0,0"
       transform="matrix(0.668249,0,0,0.668249,-3.874832,-58.404262)"
       id="path5" />
  </g>
  <path
     fill-rule="nonzero"
     fill="#000000"
     fill-opacity="1"
     stroke-width="0.12"
     stroke-linecap="butt"
     stroke-linejoin="miter"
     stroke="#000000"
     stroke-opacity="0.0304"
     stroke-miterlimit="4"
     d="m 351.36146,5.2265702 c 0.0469,-0.2851555 0.23047,-0.6132797 0.54687,-0.9843725 0.31641,-0.3710928 0.71094,-0.5624985 1.17578,-0.5664047 0.23828,0 0.45313,0.058593 0.64844,0.179687 0.19531,0.1210934 0.33984,0.2734367 0.4375,0.4570301 0.28125,-0.4257802 0.62499,-0.6367171 1.02343,-0.6367171 0.25,0 0.46484,0.074218 0.64844,0.2226556 0.18359,0.1484371 0.27734,0.3476553 0.28515,0.5976547 0,0.195312 -0.0508,0.3554679 -0.14453,0.4765612 -0.0937,0.1210935 -0.18359,0.1953121 -0.27344,0.2226557 -0.0859,0.027344 -0.16406,0.039063 -0.23046,0.039063 -0.12891,0 -0.23438,-0.035156 -0.31641,-0.1093748 -0.082,-0.074218 -0.12109,-0.1718745 -0.12109,-0.2968742 0,-0.3085929 0.16797,-0.5234361 0.50781,-0.6367171 -0.0742,-0.089843 -0.21094,-0.1328122 -0.40625,-0.1328122 -0.0898,0 -0.15234,0.00781 -0.19141,0.019531 -0.25781,0.1093747 -0.44921,0.3320304 -0.57031,0.6718732 -0.40625,1.4921836 -0.60546,2.3632751 -0.60546,2.6132745 0,0.1914058 0.0508,0.3242179 0.16015,0.406249 0.10938,0.082031 0.22656,0.1210934 0.35547,0.1210934 0.25,0 0.49609,-0.1093747 0.73828,-0.3320304 0.24609,-0.2265619 0.41015,-0.4999987 0.49609,-0.8242166 0.0234,-0.066406 0.043,-0.1015622 0.0625,-0.1093747 0.0195,-0.00781 0.0742,-0.015625 0.16406,-0.019531 h 0.0391 c 0.10156,0 0.15234,0.027344 0.15234,0.078125 0,0.00781 -0.008,0.046875 -0.0195,0.113281 -0.10938,0.3867178 -0.32031,0.7265606 -0.62891,1.0234349 -0.3125,0.2968742 -0.67187,0.4453113 -1.08593,0.4453113 -0.47266,0 -0.83203,-0.2109369 -1.07422,-0.6367171 -0.27734,0.4179677 -0.59375,0.6289047 -0.95312,0.6289047 h -0.0625 c -0.32812,0 -0.5664,-0.089844 -0.70703,-0.2656244 -0.14453,-0.1757808 -0.21875,-0.359374 -0.22266,-0.5585923 0,-0.2148432 0.0625,-0.3906239 0.19141,-0.5273424 0.12891,-0.1328122 0.28125,-0.1992182 0.45703,-0.1992182 0.28906,0 0.43359,0.1406247 0.43359,0.4257802 0,0.1328121 -0.0391,0.2499993 -0.12109,0.3515616 -0.082,0.1015622 -0.15625,0.1718745 -0.23047,0.2031244 -0.0742,0.035156 -0.12109,0.050781 -0.13281,0.050781 l -0.0312,0.011719 c 0,0.00781 0.0195,0.019531 0.0625,0.039062 0.0391,0.019531 0.0937,0.046875 0.16016,0.070312 0.0664,0.027344 0.13281,0.039062 0.1914,0.03125 0.24609,0 0.45313,-0.1523434 0.62891,-0.4570301 0.0625,-0.1054685 0.14062,-0.3359366 0.23437,-0.6874982 0.0937,-0.3515616 0.1875,-0.7148419 0.28516,-1.0937472 0.0937,-0.3789052 0.14843,-0.6015609 0.16015,-0.6718733 0.0352,-0.179687 0.0508,-0.3124992 0.0508,-0.3945302 0,-0.1874995 -0.0508,-0.3242179 -0.15234,-0.4062489 -0.10156,-0.078125 -0.21484,-0.1210935 -0.34375,-0.1210935 -0.26953,0 -0.52344,0.1093747 -0.76172,0.324218 -0.23437,0.2187494 -0.40234,0.4960924 -0.49609,0.832029 -0.0117,0.0625 -0.0312,0.09375 -0.0508,0.1015623 -0.0195,0.00781 -0.0742,0.011719 -0.16016,0.019531 h -0.14453 c -0.0391,-0.039062 -0.0586,-0.078125 -0.0586,-0.1093747 z m 0,0"
     id="path6" />
  <path
     fill-rule="nonzero"
     fill="#000000"
     fill-opacity="1"
     stroke-width="0.12"
     stroke-linecap="butt"
     stroke-linejoin="miter"
     stroke="#000000"
     stroke-opacity="0.0215"
     stroke-miterlimit="4"
     d="m 357.20912,8.5351564 c 0,-0.519531 0.20703,-0.9882808 0.61718,-1.4023431 0.41016,-0.4179686 0.85547,-0.6249998 1.33204,-0.6249998 0.26953,0 0.48046,0.058594 0.63281,0.1718749 0.15234,0.1132813 0.23047,0.2656249 0.23828,0.4531249 0,0.1367186 -0.0469,0.2539061 -0.13672,0.3515623 -0.0937,0.09375 -0.20703,0.1445312 -0.34375,0.1484374 -0.0937,0 -0.16406,-0.023437 -0.21484,-0.070312 -0.0547,-0.050781 -0.082,-0.1210938 -0.082,-0.2148437 0,-0.097656 0.0273,-0.1796874 0.082,-0.2460936 0.0508,-0.066406 0.10156,-0.1171875 0.15625,-0.1484374 0.0508,-0.035156 0.0859,-0.046875 0.10156,-0.042969 h 0.004 c 0,-0.011719 -0.0117,-0.023437 -0.043,-0.042969 -0.0274,-0.019531 -0.0781,-0.039063 -0.14844,-0.058594 -0.0703,-0.019531 -0.15234,-0.027344 -0.24609,-0.027344 -0.14063,0 -0.27735,0.03125 -0.40625,0.097656 -0.10157,0.042969 -0.20313,0.1171874 -0.3086,0.2226561 -0.21094,0.2109374 -0.36328,0.5078123 -0.45703,0.8906246 -0.0977,0.3828123 -0.14844,0.6601559 -0.15234,0.8320308 0,0.21875 0.0625,0.3828124 0.1875,0.4921873 0.10547,0.1171875 0.24218,0.171875 0.41406,0.171875 h 0.0312 c 0.53516,0 0.97656,-0.203125 1.32422,-0.6093748 0.043,-0.046875 0.0703,-0.070312 0.0859,-0.070312 0.0195,0 0.0508,0.019531 0.0937,0.0625 0.043,0.042969 0.0664,0.078125 0.0703,0.1015625 0.004,0.023437 -0.0156,0.058594 -0.0625,0.1093749 -0.0508,0.046875 -0.11719,0.1132812 -0.21094,0.1992187 -0.0898,0.085937 -0.19531,0.1562499 -0.32031,0.2148437 -0.125,0.058594 -0.27735,0.1171874 -0.46094,0.1796874 -0.17969,0.0625 -0.37109,0.089844 -0.57031,0.078125 -0.35938,0 -0.64844,-0.1132812 -0.86719,-0.3437498 -0.22265,-0.2304687 -0.33203,-0.519531 -0.33984,-0.8749996 z m 0,0"
     id="path7" />
  <path
     fill-rule="nonzero"
     fill="#000000"
     fill-opacity="1"
     stroke-width="0.12"
     stroke-linecap="butt"
     stroke-linejoin="miter"
     stroke="#000000"
     stroke-opacity="0.0215"
     stroke-miterlimit="4"
     d="m 360.90833,9.2539061 c 0,0.1562499 0.0586,0.2343749 0.17969,0.2343749 0.17578,0 0.32812,-0.2499999 0.45312,-0.7499997 0.0274,-0.097656 0.0508,-0.1484374 0.0703,-0.1523437 0.008,-0.00391 0.0351,-0.00781 0.0703,-0.00781 h 0.0312 c 0.043,0 0.0703,0 0.0859,0 0.0117,0 0.0234,0.00391 0.0351,0.015625 0.008,0.00781 0.0156,0.027344 0.0156,0.050781 -0.008,0.027344 -0.0117,0.066406 -0.0234,0.1132813 -0.008,0.046875 -0.0352,0.1406248 -0.0781,0.2734373 -0.043,0.1328125 -0.0898,0.2460937 -0.14453,0.3359374 -0.0508,0.089844 -0.125,0.1796874 -0.22265,0.2656248 -0.0937,0.085937 -0.20313,0.125 -0.32813,0.1210937 -0.17187,0 -0.33203,-0.050781 -0.48047,-0.1562499 -0.14843,-0.1054687 -0.22656,-0.2812499 -0.23046,-0.5312498 0,-0.058594 0.004,-0.097656 0.008,-0.1210937 l 0.46484,-1.8515616 c 0.30078,-1.2148432 0.45313,-1.8437492 0.45313,-1.8828117 0,-0.015625 -0.004,-0.027344 -0.008,-0.035156 -0.004,-0.011719 -0.0156,-0.019531 -0.0273,-0.03125 -0.0156,-0.00781 -0.0273,-0.011719 -0.0352,-0.011719 -0.0117,0 -0.0312,-0.00391 -0.0586,-0.00781 -0.0273,-0.00391 -0.0469,-0.00781 -0.0586,-0.00781 -0.008,0 -0.0312,-0.00391 -0.0625,-0.00781 -0.0352,-0.00391 -0.0586,-0.00391 -0.0742,0 -0.0469,0 -0.0781,0 -0.0899,0 -0.0156,0 -0.0351,0 -0.0586,-0.00781 -0.0234,-0.00391 -0.0391,-0.011719 -0.043,-0.019531 -0.004,-0.011719 -0.008,-0.023438 -0.008,-0.042969 0,-0.011719 0.004,-0.042969 0.0156,-0.1015625 0.0234,-0.089844 0.0508,-0.1406249 0.0781,-0.1484374 0.0273,-0.011719 0.19922,-0.027344 0.51562,-0.042969 0.0703,-0.00781 0.15235,-0.011719 0.24219,-0.015625 0.0937,-0.00391 0.16406,-0.011719 0.21484,-0.023437 0.0547,-0.00781 0.082,-0.011719 0.082,-0.00391 0.0547,0 0.0859,0.015625 0.0859,0.054687 0,0.054687 -0.17578,0.7695309 -0.52343,2.1523428 -0.35157,1.3789057 -0.53125,2.1054678 -0.53907,2.171874 0,0.00781 0,0.027344 0,0.054687 0,0.03125 -0.004,0.054687 -0.008,0.074219 z m 0,0"
     id="path8" />
  <path
     fill-rule="nonzero"
     fill="#000000"
     fill-opacity="1"
     stroke-width="0.12"
     stroke-linecap="butt"
     stroke-linejoin="miter"
     stroke="#000000"
     stroke-opacity="0.0215"
     stroke-miterlimit="4"
     d="m 362.7638,9.425781 c 0,0 0,-0.0625 0,-0.1796874 0,-0.1210937 0.0391,-0.2226562 0.11719,-0.3085937 0.0742,-0.085937 0.17969,-0.1289062 0.30859,-0.1289062 0.13281,0 0.25391,0.058594 0.35547,0.1796875 0.10547,0.1171874 0.16016,0.3281248 0.16797,0.628906 0,0.1679686 -0.0234,0.3320311 -0.0664,0.4882808 -0.043,0.15625 -0.0937,0.292969 -0.14843,0.410156 -0.0586,0.113281 -0.1211,0.210938 -0.1875,0.292969 -0.0664,0.08203 -0.125,0.144531 -0.17188,0.191406 -0.0469,0.05078 -0.0781,0.07031 -0.0937,0.06641 -0.0195,0 -0.0508,-0.02344 -0.0937,-0.06641 -0.043,-0.04297 -0.0625,-0.07422 -0.0625,-0.08984 0,-0.01953 0.0234,-0.05859 0.0781,-0.117187 0.0508,-0.05469 0.11328,-0.128906 0.17968,-0.214844 0.0664,-0.08594 0.12891,-0.203125 0.1836,-0.359375 0.0586,-0.152343 0.0976,-0.3242182 0.11718,-0.5234369 v -0.085937 l -0.008,0.00781 c -0.0117,0.00781 -0.0234,0.011719 -0.0351,0.015625 -0.0156,0.00391 -0.0312,0.011719 -0.043,0.019531 -0.0156,0.011719 -0.0352,0.015625 -0.0664,0.015625 -0.0273,0 -0.0547,0.00391 -0.0859,0.00781 -0.1289,0 -0.23437,-0.039063 -0.3164,-0.1210937 z m 0,0"
     id="path9" />
  <path
     fill-rule="nonzero"
     fill="#000000"
     fill-opacity="1"
     stroke-width="0.12"
     stroke-linecap="butt"
     stroke-linejoin="miter"
     stroke="#000000"
     stroke-opacity="0.0215"
     stroke-miterlimit="4"
     d="m 365.51771,5.3750016 c 0,-0.1132812 0.0469,-0.2148437 0.13672,-0.3007812 0.0898,-0.085937 0.19531,-0.1328124 0.3164,-0.1367187 0.0859,0 0.15625,0.027344 0.21485,0.085937 0.0547,0.058594 0.0859,0.1289062 0.0937,0.2148437 0,0.109375 -0.0508,0.2109374 -0.14453,0.3007811 -0.0977,0.09375 -0.20313,0.1406249 -0.31641,0.1445312 -0.0703,0 -0.13672,-0.023437 -0.19922,-0.070312 -0.0625,-0.050781 -0.0977,-0.1289062 -0.10156,-0.2382811 z m -1.16797,2.2421864 c 0,-0.035156 0.0195,-0.1093749 0.0625,-0.2226561 0.043,-0.109375 0.10156,-0.2304686 0.17187,-0.3632811 0.0742,-0.1328124 0.17969,-0.2578124 0.31641,-0.3671873 0.14063,-0.109375 0.28125,-0.1601562 0.42969,-0.15625 0.1875,0 0.34375,0.054687 0.46875,0.1640624 0.12109,0.109375 0.1875,0.2578124 0.1914,0.4453124 0,0.082031 -0.0312,0.2148436 -0.10156,0.4023436 -0.0664,0.1835936 -0.16015,0.4374997 -0.28515,0.7499996 -0.125,0.3164061 -0.22266,0.5859372 -0.30079,0.8124996 -0.0234,0.1054687 -0.0351,0.1796875 -0.0351,0.2265624 0,0.1210937 0.0391,0.1796875 0.12109,0.1796875 0.043,0 0.0899,-0.00781 0.13672,-0.019531 0.0469,-0.015625 0.10156,-0.046875 0.16406,-0.1015624 0.0625,-0.050781 0.125,-0.1367187 0.19532,-0.2499999 0.0664,-0.1132812 0.125,-0.2578124 0.17578,-0.4218748 0.0156,-0.058594 0.0273,-0.09375 0.0391,-0.1015625 0.008,-0.011719 0.0469,-0.015625 0.12109,-0.015625 0.0937,0 0.14453,0.023437 0.14453,0.074219 0,0.035156 -0.0234,0.109375 -0.0664,0.2187499 -0.043,0.1132812 -0.10156,0.2343749 -0.17969,0.3671874 -0.0742,0.1328124 -0.18359,0.2539061 -0.32031,0.3593748 -0.14063,0.1054687 -0.28906,0.1562499 -0.44531,0.1562499 -0.15235,0 -0.29297,-0.050781 -0.42188,-0.1484374 -0.12891,-0.1015625 -0.19922,-0.2539061 -0.20312,-0.4609373 0,-0.082031 0.0117,-0.1562499 0.0351,-0.2304686 0.0234,-0.070312 0.12891,-0.3437499 0.3086,-0.8164059 0.18359,-0.4804686 0.28906,-0.7695309 0.3164,-0.8671871 0.0274,-0.09375 0.0469,-0.1874999 0.0508,-0.2773436 0,-0.1171875 -0.043,-0.171875 -0.12109,-0.171875 h -0.0156 c -0.14453,0 -0.27343,0.078125 -0.39453,0.2343749 -0.12109,0.1601562 -0.21093,0.3593749 -0.27343,0.6015622 -0.004,0.00781 -0.008,0.011719 -0.0117,0.023437 -0.008,0.00781 -0.008,0.015625 -0.008,0.019531 0,0.00781 -0.004,0.011719 -0.0156,0.015625 -0.008,0.00391 -0.0156,0.00781 -0.0195,0.00781 -0.008,0 -0.0156,0 -0.0312,0 -0.0117,0 -0.0312,0 -0.0547,0 h -0.10156 c -0.0274,-0.027344 -0.043,-0.050781 -0.043,-0.066406 z m 0,0"
     id="path10" />
  <path
     fill="none"
     stroke-width="0.668249"
     stroke-linecap="butt"
     stroke-linejoin="miter"
     stroke="#000000"
     stroke-opacity="1"
     stroke-miterlimit="10"
     d="m 198.13496,54.796905 h 296.7032"
     id="path11" />
  <path
     fill="none"
     stroke-width="0.668249"
     stroke-linecap="butt"
     stroke-linejoin="miter"
     stroke="#000000"
     stroke-opacity="1"
     stroke-miterlimit="10"
     d="M 0.33412539,164.38678 V 82.191446"
     id="path12" />
  <path
     fill="none"
     stroke-width="0.668249"
     stroke-linecap="butt"
     stroke-linejoin="miter"
     stroke="#000000"
     stroke-opacity="1"
     stroke-miterlimit="10"
     d="M 0.33412539,95.89067 H 107.34197"
     id="path13" />
  <path
     fill-rule="nonzero"
     fill="#000000"
     fill-opacity="1"
     stroke-width="0.668249"
     stroke-linecap="butt"
     stroke-linejoin="miter"
     stroke="#000000"
     stroke-opacity="1"
     stroke-miterlimit="10"
     d="m 110.84978,95.89067 -4.67969,2.339841 1.17188,-2.339841 -1.17188,-2.335938 z m 0,0"
     id="path14" />
  <path
     fill-rule="nonzero"
     fill="#000000"
     fill-opacity="1"
     stroke-width="0.120001"
     stroke-linecap="butt"
     stroke-linejoin="miter"
     stroke="#000000"
     stroke-opacity="0.0304"
     stroke-miterlimit="4"
     d="m 47.30287,90.093739 c 0.05078,-0.285157 0.230469,-0.609377 0.550783,-0.980472 0.316407,-0.375001 0.707033,-0.562502 1.171878,-0.570315 0.238282,0 0.453127,0.0625 0.64844,0.183595 0.199219,0.121094 0.343751,0.273438 0.437501,0.457032 0.285157,-0.425782 0.625002,-0.640627 1.023441,-0.640627 0.250001,0 0.464845,0.07422 0.64844,0.222657 0.183594,0.148438 0.277344,0.347658 0.28125,0.597658 0,0.19922 -0.04687,0.35547 -0.140625,0.476565 -0.09375,0.121094 -0.183594,0.195313 -0.273438,0.222657 -0.08594,0.02734 -0.164063,0.04297 -0.234376,0.04297 -0.125,0 -0.23047,-0.03906 -0.312501,-0.113281 -0.08203,-0.07422 -0.121094,-0.171876 -0.121094,-0.29297 0,-0.312501 0.167969,-0.523439 0.507814,-0.636721 -0.07422,-0.08984 -0.210938,-0.132813 -0.406251,-0.132813 -0.08984,0 -0.152345,0.0078 -0.191407,0.01953 -0.257814,0.109375 -0.44922,0.332032 -0.570315,0.667971 -0.402345,1.492192 -0.60547,2.363288 -0.60547,2.613289 0,0.191407 0.05469,0.32422 0.160156,0.406251 0.109376,0.08203 0.226564,0.121095 0.35547,0.121095 0.250001,0 0.496096,-0.109376 0.738284,-0.332033 0.246094,-0.222657 0.410158,-0.496095 0.496095,-0.820315 0.02344,-0.07031 0.04297,-0.105469 0.0625,-0.113281 0.01953,-0.0078 0.07422,-0.01172 0.160157,-0.01953 h 0.04297 c 0.101563,0 0.152344,0.02734 0.152344,0.08203 0,0.0039 -0.0078,0.04297 -0.01953,0.109375 -0.109375,0.38672 -0.320313,0.726565 -0.628908,1.023441 -0.312501,0.296876 -0.671877,0.445314 -1.085941,0.445314 -0.472658,0 -0.828128,-0.210938 -1.074222,-0.636721 -0.277345,0.41797 -0.593752,0.628908 -0.949222,0.628908 h -0.0625 c -0.332033,0 -0.566408,-0.08984 -0.71094,-0.265626 -0.140626,-0.175781 -0.214844,-0.359376 -0.222657,-0.554689 0,-0.218751 0.06641,-0.394532 0.195313,-0.527345 0.128907,-0.136719 0.277345,-0.203126 0.453127,-0.203126 0.292969,0 0.437501,0.140626 0.437501,0.425783 0,0.132813 -0.03906,0.253907 -0.121094,0.351563 -0.08203,0.101563 -0.160157,0.171876 -0.234376,0.203126 -0.07422,0.03516 -0.117188,0.05078 -0.132813,0.05078 l -0.02734,0.01172 c 0,0.0078 0.01953,0.01953 0.05859,0.03906 0.04297,0.01953 0.09375,0.04687 0.164063,0.07031 0.06641,0.02734 0.128907,0.03906 0.191407,0.03125 0.242188,0 0.453127,-0.152345 0.628908,-0.453127 0.05859,-0.109375 0.13672,-0.339845 0.23047,-0.691408 0.09766,-0.351564 0.191407,-0.714846 0.285157,-1.093754 0.09375,-0.378907 0.148438,-0.601564 0.164063,-0.667971 0.03125,-0.183594 0.04687,-0.316407 0.04687,-0.394532 0,-0.191407 -0.04687,-0.32422 -0.148438,-0.406251 -0.101563,-0.08203 -0.218751,-0.121095 -0.347657,-0.121095 -0.269532,0 -0.523439,0.109376 -0.757815,0.32422 -0.238282,0.214845 -0.402345,0.492189 -0.496095,0.832034 -0.01563,0.05859 -0.03125,0.09375 -0.05078,0.09766 -0.01953,0.0078 -0.07422,0.01563 -0.164063,0.02344 H 47.36537 c -0.03906,-0.04297 -0.0625,-0.07813 -0.0625,-0.113281 z m 0,0"
     id="path15" />
  <path
     fill="none"
     stroke-width="0.668249"
     stroke-linecap="butt"
     stroke-linejoin="miter"
     stroke="#000000"
     stroke-opacity="1"
     stroke-miterlimit="10"
     d="M 0.33412539,136.98834 H 342.23266"
     id="path16" />
  <path
     fill-rule="nonzero"
     fill="#000000"
     fill-opacity="1"
     stroke-width="0.668249"
     stroke-linecap="butt"
     stroke-linejoin="miter"
     stroke="#000000"
     stroke-opacity="1"
     stroke-miterlimit="10"
     d="m 345.74047,136.98834 -4.67969,2.33984 1.17188,-2.33984 -1.17188,-2.33594 z m 0,0"
     id="path17" />
  <path
     fill-rule="nonzero"
     fill="#000000"
     fill-opacity="1"
     stroke-width="0.12"
     stroke-linecap="butt"
     stroke-linejoin="miter"
     stroke="#000000"
     stroke-opacity="0.0304"
     stroke-miterlimit="4"
     d="m 150.88881,125.50782 c 0.0469,-0.28125 0.22656,-0.60937 0.54687,-0.98047 0.31641,-0.37109 0.70703,-0.5625 1.17187,-0.57031 0.23829,0 0.45313,0.0625 0.64844,0.1836 0.19922,0.12109 0.34375,0.27343 0.4375,0.45703 0.28516,-0.42578 0.625,-0.64063 1.02343,-0.64063 0.25,0 0.46485,0.0742 0.64844,0.22656 0.18359,0.14844 0.27734,0.34766 0.28516,0.59766 0,0.19531 -0.0508,0.35156 -0.14453,0.47265 -0.0937,0.125 -0.1836,0.19922 -0.27344,0.22657 -0.0859,0.0234 -0.16406,0.0391 -0.23047,0.0391 -0.12891,0 -0.23437,-0.0391 -0.31641,-0.11328 -0.082,-0.0742 -0.12109,-0.17188 -0.12109,-0.29297 0,-0.30859 0.16797,-0.52344 0.50781,-0.63672 -0.0742,-0.0898 -0.21093,-0.13281 -0.40625,-0.13281 -0.0898,0 -0.15234,0.008 -0.1914,0.0195 -0.25781,0.10938 -0.44531,0.33203 -0.57031,0.66797 -0.40235,1.49609 -0.60547,2.36718 -0.60547,2.61718 0,0.1875 0.0547,0.32422 0.16016,0.40234 0.10937,0.082 0.22656,0.1211 0.35546,0.1211 0.25,0 0.4961,-0.10938 0.73828,-0.33203 0.2461,-0.22266 0.41016,-0.4961 0.5,-0.82031 0.0195,-0.0703 0.0391,-0.10547 0.0586,-0.11329 0.0195,-0.004 0.0742,-0.0117 0.16406,-0.0195 h 0.0391 c 0.10156,0 0.15234,0.0273 0.15234,0.082 0,0.008 -0.008,0.043 -0.0195,0.10938 -0.10937,0.38672 -0.32031,0.72656 -0.6289,1.02343 -0.3125,0.29688 -0.67188,0.44532 -1.08594,0.44532 -0.47265,0 -0.82812,-0.21094 -1.07421,-0.63672 -0.27344,0.41797 -0.59375,0.6289 -0.94922,0.6289 h -0.0625 c -0.33203,0 -0.56641,-0.0898 -0.71094,-0.26562 -0.14062,-0.17578 -0.21484,-0.35938 -0.22265,-0.55469 0,-0.21875 0.0664,-0.39453 0.19531,-0.52734 0.12891,-0.13672 0.27734,-0.20312 0.45312,-0.20312 0.29297,0 0.4375,0.14062 0.4375,0.42578 0,0.13671 -0.0391,0.2539 -0.12109,0.35546 -0.082,0.10157 -0.16016,0.16797 -0.23438,0.20313 -0.0742,0.0312 -0.11718,0.0508 -0.13281,0.0508 l -0.0273,0.008 c 0,0.008 0.0195,0.0195 0.0586,0.043 0.043,0.0195 0.0937,0.043 0.16406,0.0703 0.0664,0.0273 0.12891,0.0352 0.19141,0.0273 0.24219,0 0.45312,-0.14844 0.62891,-0.45313 0.0586,-0.10937 0.13671,-0.33984 0.23046,-0.6914 0.0977,-0.35156 0.19141,-0.71484 0.28516,-1.09375 0.0937,-0.37891 0.14844,-0.60156 0.16406,-0.66797 0.0312,-0.18359 0.0508,-0.3125 0.0508,-0.39453 0,-0.1914 -0.0508,-0.32422 -0.15234,-0.40625 -0.10156,-0.082 -0.21875,-0.12109 -0.34766,-0.12109 -0.26953,0 -0.52343,0.10937 -0.75781,0.32422 -0.23828,0.21484 -0.40234,0.49218 -0.49609,0.83203 -0.0156,0.0586 -0.0312,0.0937 -0.0508,0.10156 -0.0195,0.004 -0.0742,0.0117 -0.16406,0.0195 h -0.14063 c -0.0391,-0.043 -0.0586,-0.0781 -0.0586,-0.11328 z m 0,0"
     id="path18" />
  <path
     fill-rule="nonzero"
     fill="#000000"
     fill-opacity="1"
     stroke-width="0.12"
     stroke-linecap="butt"
     stroke-linejoin="miter"
     stroke="#000000"
     stroke-opacity="0.0215"
     stroke-miterlimit="4"
     d="m 157.80677,125.66015 c 0,-0.11718 0.0469,-0.21484 0.13672,-0.30078 0.0899,-0.0859 0.19531,-0.13281 0.31641,-0.13672 0.0859,0 0.15625,0.0273 0.21484,0.0859 0.0547,0.0586 0.0859,0.12891 0.0937,0.21484 0,0.10938 -0.0508,0.21094 -0.14453,0.30079 -0.0977,0.0898 -0.19922,0.13671 -0.31641,0.14453 -0.0703,0 -0.13671,-0.0273 -0.19921,-0.0742 -0.0625,-0.0469 -0.0977,-0.125 -0.10157,-0.23438 z m -1.16797,2.24219 c 0,-0.0391 0.0234,-0.11328 0.0664,-0.22266 0.043,-0.10937 0.0977,-0.23046 0.17188,-0.36718 0.0703,-0.13282 0.17578,-0.25391 0.3164,-0.36328 0.13672,-0.10938 0.28125,-0.16407 0.42969,-0.16016 0.18359,0 0.33984,0.0547 0.46484,0.16797 0.125,0.10937 0.1875,0.25781 0.19141,0.4414 0,0.082 -0.0312,0.21485 -0.0977,0.40235 -0.0703,0.1875 -0.16406,0.4375 -0.28906,0.7539 -0.125,0.31251 -0.22266,0.58204 -0.30078,0.8086 -0.0234,0.10547 -0.0352,0.17969 -0.0352,0.22656 0,0.1211 0.0391,0.17969 0.1211,0.17969 0.043,0 0.0898,-0.008 0.13672,-0.0195 0.0469,-0.0156 0.10156,-0.0469 0.16406,-0.10156 0.0625,-0.0508 0.1289,-0.13672 0.19531,-0.25 0.0664,-0.11329 0.125,-0.25782 0.17969,-0.42188 0.0117,-0.0586 0.0234,-0.0937 0.0352,-0.10156 0.008,-0.008 0.0508,-0.0156 0.1211,-0.0156 0.0937,0 0.14453,0.0234 0.14453,0.0742 0,0.0352 -0.0234,0.10938 -0.0664,0.22266 -0.043,0.10937 -0.10156,0.23047 -0.17968,0.36328 -0.0742,0.13281 -0.1836,0.25391 -0.32032,0.35937 -0.14062,0.10547 -0.28906,0.15625 -0.44531,0.15625 -0.15234,0 -0.29297,-0.0508 -0.42187,-0.14843 -0.12891,-0.10157 -0.19532,-0.25391 -0.20313,-0.46094 0,-0.082 0.0156,-0.15625 0.0391,-0.22656 0.0234,-0.0742 0.125,-0.34375 0.3086,-0.81641 0.17968,-0.48438 0.28515,-0.77344 0.3125,-0.86719 0.0312,-0.0977 0.0469,-0.1914 0.0508,-0.28125 0,-0.11328 -0.0391,-0.17187 -0.1211,-0.17187 h -0.0156 c -0.14063,0 -0.27344,0.0781 -0.39453,0.23828 -0.11719,0.15625 -0.20703,0.35547 -0.26953,0.60156 -0.008,0.004 -0.0117,0.0117 -0.0156,0.0195 -0.004,0.0117 -0.008,0.0156 -0.008,0.0234 0,0.004 -0.004,0.008 -0.0156,0.0117 -0.008,0.008 -0.0156,0.008 -0.0195,0.008 -0.004,0 -0.0156,0 -0.0273,0 -0.0156,0 -0.0352,0 -0.0586,0 h -0.10157 c -0.0273,-0.0273 -0.043,-0.0508 -0.043,-0.0625 z m 0,0"
     id="path19" />
  <path
     fill-rule="nonzero"
     fill="#60a917"
     fill-opacity="1"
     stroke-width="0.668249"
     stroke-linecap="butt"
     stroke-linejoin="miter"
     stroke="#2d7600"
     stroke-opacity="1"
     stroke-miterlimit="4"
     d="m 358.84985,53.457066 c 0,0.812497 -0.0781,1.617183 -0.23828,2.414063 -0.15625,0.796873 -0.39063,1.570311 -0.70313,2.320307 -0.30859,0.750003 -0.69141,1.46094 -1.14062,2.136727 -0.45313,0.67187 -0.96485,1.29687 -1.53907,1.87109 -0.57422,0.57422 -1.19922,1.085938 -1.87109,1.539064 -0.67579,0.449217 -1.39063,0.832031 -2.14063,1.140621 -0.75,0.3125 -1.52344,0.546875 -2.3164,0.703125 -0.79688,0.160159 -1.60157,0.238284 -2.41407,0.238284 -0.8125,0 -1.61328,-0.07813 -2.41016,-0.238284 -0.79687,-0.15625 -1.57031,-0.390625 -2.32031,-0.703125 -0.75,-0.30859 -1.46093,-0.691404 -2.13672,-1.140621 -0.67578,-0.453126 -1.30078,-0.964844 -1.875,-1.539064 -0.57422,-0.57422 -1.08594,-1.19922 -1.53515,-1.87109 -0.45313,-0.675787 -0.83203,-1.386724 -1.14453,-2.136727 -0.3086,-0.749996 -0.54298,-1.523434 -0.70313,-2.320307 -0.15625,-0.79688 -0.23828,-1.601566 -0.23828,-2.414063 0,-0.808595 0.082,-1.613287 0.23828,-2.41016 0.16015,-0.796874 0.39453,-1.570312 0.70313,-2.320315 0.3125,-0.749995 0.6914,-1.460939 1.14453,-2.136719 0.44921,-0.67578 0.96093,-1.30078 1.53515,-1.871091 0.57422,-0.574219 1.19922,-1.089847 1.875,-1.539064 0.67579,-0.449217 1.38672,-0.83203 2.13672,-1.14453 0.75,-0.308597 1.52344,-0.542972 2.32031,-0.703125 0.79688,-0.15625 1.59766,-0.234375 2.41016,-0.234375 0.8125,0 1.61719,0.07813 2.41407,0.234375 0.79296,0.160153 1.5664,0.394528 2.3164,0.703125 0.75,0.3125 1.46484,0.695313 2.14063,1.14453 0.67187,0.449217 1.29687,0.964845 1.87109,1.539064 0.57422,0.570311 1.08594,1.195311 1.53907,1.871091 0.44921,0.67578 0.83203,1.386724 1.14062,2.136719 0.3125,0.750003 0.54688,1.523441 0.70313,2.320315 0.16015,0.796873 0.23828,1.601565 0.23828,2.41016 z m 0,0"
     id="path20" />
  <path
     fill-rule="nonzero"
     fill="#000000"
     fill-opacity="1"
     d="m 197.80286,68.496094 v -2.007813 h 0.66797 v 2.007813 m -0.66797,-4.011719 v -2.003906 h 0.66797 v 2.003906 m -0.66797,-4.007812 V 58.46875 h 0.66797 v 2.007813 m -0.66797,-4.011719 v -2.003907 h 0.66797 v 2.003907 m -0.66797,-4.007813 v -2.003906 h 0.66797 v 2.003906 m -0.66797,-4.011718 v -2.003907 h 0.66797 v 2.003907 M 197.80286,44.4375 v -2.003906 h 0.66797 V 44.4375 m -0.66797,-4.007813 v -2.007812 h 0.66797 v 2.007812 m -0.66797,-4.011718 v -2.003906 h 0.66797 v 2.003906 m -0.66797,-4.007813 v -2.007812 h 0.66797 v 2.007812 m -0.66797,-4.011719 v -2.003906 h 0.66797 v 2.003906 m -0.66797,-4.007812 v -2.003906 h 0.66797 v 2.003906 m -0.66797,-4.011719 V 18.375 h 0.66797 v 2.003906 m -0.66797,-4.007812 v -2.003907 h 0.66797 v 2.003907 m -0.66797,-4.007813 v -2.007812 h 0.66797 v 2.007812 m -0.66797,-4.0117179 v -2.003907 h 0.66797 v 2.003907 m -0.66797,-4.007813 v -2.007813 h 0.66797 v 2.007813 M 197.80286,0.33203111 V 1.0981663e-7 h 0.66797 V 0.33203111"
     id="path21" />
  <path
     fill-rule="nonzero"
     fill="#000000"
     fill-opacity="1"
     d="m 494.50599,68.496094 v -2.007813 h 0.66797 v 2.007813 m -0.66797,-4.011719 v -2.003906 h 0.66797 v 2.003906 m -0.66797,-4.007812 V 58.46875 h 0.66797 v 2.007813 m -0.66797,-4.011719 v -2.003907 h 0.66797 v 2.003907 m -0.66797,-4.007813 v -2.003906 h 0.66797 v 2.003906 m -0.66797,-4.011718 v -2.003907 h 0.66797 v 2.003907 M 494.50599,44.4375 v -2.003906 h 0.66797 V 44.4375 m -0.66797,-4.007813 v -2.007812 h 0.66797 v 2.007812 m -0.66797,-4.011718 v -2.003906 h 0.66797 v 2.003906 m -0.66797,-4.007813 v -2.007812 h 0.66797 v 2.007812 m -0.66797,-4.011719 v -2.003906 h 0.66797 v 2.003906 m -0.66797,-4.007812 v -2.003906 h 0.66797 v 2.003906 m -0.66797,-4.011719 V 18.375 h 0.66797 v 2.003906 m -0.66797,-4.007812 v -2.003907 h 0.66797 v 2.003907 m -0.66797,-4.007813 v -2.007812 h 0.66797 v 2.007812 m -0.66797,-4.0117179 v -2.003907 h 0.66797 v 2.003907 m -0.66797,-4.007813 v -2.007813 h 0.66797 v 2.007813 M 494.50599,0.33203111 V 1.0981663e-7 h 0.66797 V 0.33203111"
     id="path22" />
  <path
     fill-rule="nonzero"
     fill="#000000"
     fill-opacity="1"
     d="m 345.85755,136.98829 v -2.00391 h 0.67188 v 2.00391 m -0.67188,-4.00782 v -2.0039 h 0.67188 v 2.0039 m -0.67188,-4.00781 v -2.00781 h 0.67188 v 2.00781 m -0.67188,-4.01172 v -2.0039 h 0.67188 v 2.0039 m -0.67188,-4.00781 v -2.00781 h 0.67188 v 2.00781 m -0.67188,-4.01172 v -2.0039 h 0.67188 v 2.0039 m -0.67188,-4.00781 v -2.00391 h 0.67188 v 2.00391 m -0.67188,-4.01172 v -2.00391 h 0.67188 v 2.00391 m -0.67188,-4.00781 v -2.00391 h 0.67188 v 2.00391 m -0.67188,-4.00781 v -2.007825 h 0.67188 v 2.007825 m -0.67188,-4.011725 v -2.00391 h 0.67188 v 2.00391 m -0.67188,-4.00782 v -2.007809 h 0.67188 v 2.007809 M 345.85755,88.875 v -2.003906 h 0.67188 V 88.875 m -0.67188,-4.007813 v -2.003906 h 0.67188 v 2.003906 m -0.67188,-4.011718 v -2.003906 h 0.67188 v 2.003906 m -0.67188,-4.007813 V 74.84375 h 0.67188 v 2.003906 m -0.67188,-4.011719 v -2.003906 h 0.67188 v 2.003906 m -0.67188,-4.007812 v -0.332031 h 0.67188 v 0.332031"
     id="path23" />
  <g
     ns1:version="1.10.2"
     ns1:texconverter="typst"
     ns1:pdfconverter="inkscape"
     ns1:text="$ x_(&quot;cl&quot;,i) &quot;: collet length&quot;$\n\n$x_i&quot;: centroid position&quot;$\n\n$x &quot;: span direction&quot;$"
     ns1:preamble="/home/jav/.config/inkscape/extensions/textext/default_packages.tex"
     ns1:scale="1.0"
     ns1:alignment="middle center"
     ns1:stroke-to-path="0"
     id="g4872"
     transform="translate(-394.25528,-424.4612)"
     ns1:jacobian_sqrt="1.0">
    <defs
       id="id-64e8e94b-b513-43a1-8f5d-44767794b919" />
    <g
       transform="translate(394.20056,442.21368)"
       id="g1469">
      <g
         class="typst-text"
         transform="scale(1,-1)"
         id="g5522">
        <g
           id="g3927">
          <path
             d="M 5.797,4.103 C 5.797,4.609 5.302,4.862 4.752,4.862 4.279,4.862 3.905,4.609 3.619,4.103 3.388,4.609 3.003,4.862 2.442,4.862 1.903,4.862 1.4629999,4.609 1.111,4.114 0.814,3.685 0.65999997,3.366 0.65999997,3.157 0.65999997,3.058 0.715,3.003 0.825,3.003 0.924,3.003 0.99,3.058 1.012,3.157 1.221,3.795 1.683,4.5429997 2.42,4.5429997 2.783,4.5429997 2.9589999,4.312 2.9589999,3.861 2.9589999,3.6299999 2.761,2.772 2.376,1.298 2.189,0.561 1.859,0.198 1.386,0.198 c -0.154,0 -0.297,0.033 -0.418,0.088 0.286,0.11 0.429,0.308 0.429,0.594 0,0.286 -0.143,0.429 -0.44,0.429 -0.363,0 -0.638,-0.308 -0.638,-0.671 0,-0.506 0.51699997,-0.759 1.056,-0.759 0.462,0 0.836,0.253 1.133,0.759 0.209,-0.506 0.605,-0.759 1.177,-0.759 0.528,0 0.968,0.253 1.32,0.748 0.297,0.429 0.451,0.748 0.451,0.957 0,0.099 -0.055,0.154 -0.165,0.154 C 5.192,1.738 5.137,1.683 5.104,1.584 4.917,0.957 4.422,0.198 3.707,0.198 c -0.3630001,0 -0.55,0.21999998 -0.55,0.671 0,0.143 0.055,0.4509999 0.176,0.9459999 L 3.707,3.3 c 0.209,0.825 0.55,1.2429997 1.034,1.2429997 0.154,0 0.297,-0.033 0.418,-0.088 -0.297,-0.099 -0.44,-0.297 -0.44,-0.594 0,-0.286 0.154,-0.429 0.451,-0.429 0.352,0 0.627,0.319 0.627,0.6710003 z"
             id="path6752" />
        </g>
      </g>
    </g>
    <g
       transform="translate(400.49256,444.93068)"
       id="g9999">
      <g
         class="typst-text"
         transform="scale(1,-1)"
         id="g9557">
        <g
           id="g2227">
          <path
             d="m 1.9327,3.2031999 c 0.3234,0 0.5698,-0.077 0.7392,-0.2309999 C 2.4871,2.9491 2.3562,2.7797 2.3562,2.6026 c 0,-0.2541 0.1232,-0.3773 0.3773,-0.3773 0.2541,0 0.3773,0.1309 0.3773,0.385 0,0.5467 -0.5929,0.8393 -1.1858,0.8393 C 1.4476,3.4496 1.0549,3.2802 0.7392,2.9259999 0.4235,2.5718 0.2618,2.1483 0.2618,1.6632 c 0,-0.4697 0.1617,-0.8855 0.4774,-1.232 0.3157,-0.3465 0.7007,-0.5159 1.1704,-0.5159 0.385,0 0.6853,0.1078 0.9009,0.3311 0.1771,0.1771 0.2926,0.3542 0.3542,0.539 0.0231,0.0693 0.0308,0.1155 0.0308,0.1463 0,0.0693 -0.0462,0.1001 -0.1309,0.1001 C 3.003,1.0318 2.9645,1.001 2.9414,0.9394 2.7797,0.4235 2.464,0.1617 1.9789,0.1617 1.7556,0.1617 1.54,0.2618 1.3244,0.4697 1.0703,0.7084 0.9471,1.1087999 0.9471,1.6786 c 0,0.77 0.2926,1.5245999 0.9856,1.5245999 z"
             id="path9978" />
        </g>
        <g
           transform="translate(3.4188)"
           id="g4605">
          <path
             d="M 1.1087999,0.0231 1.9635,0 V 0.3003 C 1.6863,0.3003 1.5169,0.308 1.4629999,0.3388 1.4090999,0.3696 1.386,0.462 1.386,0.6083 V 5.3438 L 0.2541,5.2591 V 4.9665 C 0.5236,4.9665 0.693,4.9434 0.7469,4.8972 0.8008,4.851 0.8316,4.7432 0.8316,4.5661 V 0.6083 C 0.8316,0.462 0.8085,0.3696 0.7546,0.3388 0.7007,0.308 0.5313,0.3003 0.2541,0.3003 V 0 Z"
             id="path5409" />
        </g>
      </g>
    </g>
    <g
       transform="translate(406.05196,444.93068)"
       id="g7581">
      <g
         class="typst-text"
         transform="scale(1,-1)"
         id="g5155">
        <g
           id="g5732">
          <path
             d="m 1.3013,0.8855 c -0.2464,0 -0.4389,-0.2002 -0.4389,-0.4543 0,-0.2695 0.1848,-0.4697 0.4466,-0.4697 0.1000999,0 0.1925,0.0308 0.2695,0.0847 C 1.5631,-0.462 1.3783,-0.8932 1.0241,-1.2397 0.9856,-1.2782 0.9625,-1.309 0.9625,-1.3475 c 0,-0.0924 0.0462,-0.1386 0.1309,-0.1386 0.0539,0 0.1309,0.0616 0.2464,0.1848 0.2541,0.2772 0.5005,0.8393 0.5005,1.3398 0,0.4235 -0.154,0.847 -0.539,0.847 z"
             id="path6090" />
        </g>
      </g>
    </g>
    <g
       transform="translate(408.66226,444.93068)"
       id="g6891">
      <g
         class="typst-text"
         transform="scale(1,-1)"
         id="g8489">
        <g
           id="g3119">
          <path
             d="m 2.5025,4.7817 c 0,0.1848 -0.1463,0.3234 -0.3311,0.3234 -0.231,0 -0.4543,-0.2156 -0.4543,-0.4466 0,-0.1848 0.1463,-0.3234 0.3311,-0.3234 0.231,0 0.4543,0.2156 0.4543,0.4466 z M 1.4784,3.4187999 C 1.1165,3.4187999 0.8316,3.234 0.6237,2.8644 0.4466,2.5564 0.3619,2.3408 0.3619,2.2175999 0.3619,2.1329 0.4158,2.0944 0.5159,2.0944 c 0.0847,0 0.1386,0.0462 0.1694,0.1386 0.1771,0.6083 0.4312,0.9086 0.77,0.9086 0.1078,0 0.1617,-0.077 0.1617,-0.2387 C 1.617,2.8028 1.54,2.5564 1.386,2.156 L 0.9086,0.9317 C 0.8624,0.8085 0.8393,0.7007 0.8393,0.6006 c 0,-0.40040001 0.3465,-0.6776 0.7469,-0.6776 0.3619,0 0.6391,0.1848 0.847,0.5621 C 2.6103,0.7931 2.695,1.001 2.695,1.1165 2.695,1.2012 2.6411,1.2474 2.541,1.2474 2.4948,1.2397 2.4409,1.2012 2.387,1.1242 2.3792999,1.1165 2.3716,1.1011 2.3716,1.0934 2.1945,0.5005 1.9404,0.20019999 1.6093,0.20019999 c -0.1078,0 -0.1617,0.077 -0.1617,0.23100001 0,0.1155 0.0385,0.2772 0.1232,0.4774 l 0.6083,1.5785 c 0.0308,0.0847 0.0462,0.1694 0.0462,0.2541 0,0.4004 -0.3465,0.6775999 -0.7469,0.6775999 z"
             id="path5558" />
        </g>
      </g>
    </g>
    <g
       transform="translate(416.04106,442.21368)"
       id="g3296">
      <g
         class="typst-text"
         transform="scale(1,-1)"
         id="g2986">
        <g
           id="g597">
          <path
             d="m 2.112,4.125 c 0,0.33 -0.253,0.616 -0.583,0.616 -0.33,0 -0.583,-0.286 -0.583,-0.616 0,-0.33 0.253,-0.616 0.583,-0.616 0.33,0 0.583,0.286 0.583,0.616 z m 0,-3.509 c 0,0.33 -0.253,0.616 -0.583,0.616 C 1.199,1.232 0.946,0.946 0.946,0.616 0.946,0.286 1.199,0 1.529,0 1.859,0 2.112,0.286 2.112,0.616 Z"
             id="path8281" />
        </g>
        <g
           transform="translate(6.71)"
           id="g2854">
          <path
             d="m 2.761,4.576 c 0.462,0 0.814,-0.11 1.056,-0.33 C 3.553,4.213 3.366,3.971 3.366,3.718 c 0,-0.363 0.176,-0.539 0.539,-0.539 0.363,0 0.539,0.187 0.539,0.55 0,0.7809998 -0.847,1.199 -1.694,1.199 C 2.068,4.928 1.507,4.686 1.056,4.18 0.605,3.674 0.374,3.069 0.374,2.376 c 0,-0.671 0.231,-1.265 0.682,-1.76 0.451,-0.495 1.001,-0.737 1.672,-0.737 0.5499999,0 0.979,0.154 1.287,0.473 0.253,0.253 0.418,0.506 0.506,0.77 0.033,0.099 0.044,0.165 0.044,0.209 0,0.099 -0.066,0.143 -0.187,0.143 C 4.29,1.474 4.235,1.43 4.202,1.342 3.971,0.605 3.52,0.231 2.827,0.231 2.508,0.231 2.2,0.374 1.892,0.671 1.529,1.012 1.353,1.584 1.353,2.398 c 0,1.1 0.418,2.178 1.408,2.178 z"
             id="path6106" />
        </g>
        <g
           transform="translate(11.594)"
           id="g8304">
          <path
             d="m 2.739,-0.121 c 0.682,0 1.254,0.242 1.727,0.726 C 4.939,1.089 5.1809998,1.6719999 5.1809998,2.354 5.1809998,3.047 4.95,3.652 4.488,4.158 4.026,4.664 3.443,4.928 2.75,4.928 2.057,4.928 1.485,4.664 1.012,4.158 0.539,3.652 0.308,3.047 0.308,2.354 0.308,1.6719999 0.539,1.089 1.012,0.605 1.485,0.121 2.068,-0.121 2.739,-0.121 Z M 2.75,0.231 C 2.222,0.231 1.826,0.462 1.551,0.935 1.375,1.243 1.287,1.749 1.287,2.442 1.287,3.113 1.375,3.597 1.54,3.905 1.804,4.378 2.2,4.609 2.739,4.609 3.256,4.609 3.652,4.378 3.927,3.927 4.114,3.619 4.202,3.124 4.202,2.442 4.202,1.166 3.828,0.231 2.75,0.231 Z"
             id="path7560" />
        </g>
        <g
           transform="translate(17.094)"
           id="g1398">
          <path
             d="M 1.584,0.033 2.805,0 V 0.429 C 2.409,0.429 2.167,0.44 2.09,0.484 2.013,0.528 1.98,0.65999997 1.98,0.869 V 7.634 L 0.363,7.513 V 7.095 C 0.748,7.095 0.99,7.062 1.067,6.996 1.144,6.93 1.188,6.776 1.188,6.523 V 0.869 C 1.188,0.65999997 1.155,0.528 1.078,0.484 1.001,0.44 0.759,0.429 0.363,0.429 V 0 Z"
             id="path9661" />
        </g>
        <g
           transform="translate(20.152)"
           id="g3342">
          <path
             d="M 1.584,0.033 2.805,0 V 0.429 C 2.409,0.429 2.167,0.44 2.09,0.484 2.013,0.528 1.98,0.65999997 1.98,0.869 V 7.634 L 0.363,7.513 V 7.095 C 0.748,7.095 0.99,7.062 1.067,6.996 1.144,6.93 1.188,6.776 1.188,6.523 V 0.869 C 1.188,0.65999997 1.155,0.528 1.078,0.484 1.001,0.44 0.759,0.429 0.363,0.429 V 0 Z"
             id="path6561" />
        </g>
        <g
           transform="translate(23.21)"
           id="g3138">
          <path
             d="m 4.565,2.761 c 0,1.265 -0.737,2.167 -1.969,2.167 -0.66,0 -1.21,-0.253 -1.661,-0.77 C 0.517,3.674 0.308,3.091 0.308,2.42 c 0,-0.693 0.231,-1.276 0.693,-1.782 0.4619999,-0.506 1.034,-0.759 1.716,-0.759 0.6269999,0 1.111,0.22 1.441,0.649 0.275,0.363 0.407,0.627 0.407,0.803 0,0.11 -0.066,0.165 -0.187,0.165 C 4.29,1.496 4.235,1.441 4.202,1.3199999 3.96,0.594 3.487,0.231 2.783,0.231 2.288,0.231 1.903,0.462 1.606,0.935 1.397,1.276 1.298,1.793 1.287,2.497 h 2.97 c 0.242,0 0.308,0.022 0.308,0.264 z M 3.586,3.839 C 3.707,3.476 3.762,3.124 3.762,2.805 H 1.298 c 0.033,0.726 0.22,1.221 0.55,1.474 0.275,0.22 0.517,0.33 0.748,0.33 0.495,0 0.825,-0.253 0.99,-0.77 z"
             id="path1049" />
        </g>
        <g
           transform="translate(28.094)"
           id="g3717">
          <path
             d="m 3.652,1.386 v 0.66 H 3.3 V 1.408 C 3.3,0.858 3.102,0.242 2.618,0.242 2.167,0.242 1.947,0.616 1.947,1.364 V 4.345 H 3.476 V 4.763 H 1.947 V 6.765 H 1.595 C 1.584,6.402 1.551,6.083 1.474,5.797 1.287,5.071 0.858,4.697 0.20899999,4.664 V 4.345 H 1.122 V 1.386 c 0,-0.649 0.1979999,-1.067 0.583,-1.276 0.297,-0.154 0.572,-0.231 0.847,-0.231 0.7259999,0 1.1,0.726 1.1,1.507 z"
             id="path5654" />
        </g>
        <g
           transform="translate(36.025)"
           id="g1309">
          <path
             d="M 1.584,0.033 2.805,0 V 0.429 C 2.409,0.429 2.167,0.44 2.09,0.484 2.013,0.528 1.98,0.65999997 1.98,0.869 V 7.634 L 0.363,7.513 V 7.095 C 0.748,7.095 0.99,7.062 1.067,6.996 1.144,6.93 1.188,6.776 1.188,6.523 V 0.869 C 1.188,0.65999997 1.155,0.528 1.078,0.484 1.001,0.44 0.759,0.429 0.363,0.429 V 0 Z"
             id="path6552" />
        </g>
        <g
           transform="translate(39.083)"
           id="g4409">
          <path
             d="m 4.565,2.761 c 0,1.265 -0.737,2.167 -1.969,2.167 -0.66,0 -1.21,-0.253 -1.661,-0.77 C 0.517,3.674 0.308,3.091 0.308,2.42 c 0,-0.693 0.231,-1.276 0.693,-1.782 0.4619999,-0.506 1.034,-0.759 1.716,-0.759 0.6269999,0 1.111,0.22 1.441,0.649 0.275,0.363 0.407,0.627 0.407,0.803 0,0.11 -0.066,0.165 -0.187,0.165 C 4.29,1.496 4.235,1.441 4.202,1.3199999 3.96,0.594 3.487,0.231 2.783,0.231 2.288,0.231 1.903,0.462 1.606,0.935 1.397,1.276 1.298,1.793 1.287,2.497 h 2.97 c 0.242,0 0.308,0.022 0.308,0.264 z M 3.586,3.839 C 3.707,3.476 3.762,3.124 3.762,2.805 H 1.298 c 0.033,0.726 0.22,1.221 0.55,1.474 0.275,0.22 0.517,0.33 0.748,0.33 0.495,0 0.825,-0.253 0.99,-0.77 z"
             id="path4385" />
        </g>
        <g
           transform="translate(43.967)"
           id="g4050">
          <path
             d="M 3.454,4.5429997 C 3.949,4.5429997 4.202,4.158 4.202,3.377 V 0.869 C 4.202,0.65999997 4.169,0.528 4.092,0.484 4.015,0.44 3.773,0.418 3.366,0.418 V 0 L 4.631,0.033 5.8849998,0 V 0.41799998 C 5.533,0.41799998 5.302,0.429 5.192,0.462 5.082,0.495 5.038,0.572 5.038,0.704 v 2.057 c 0,0.5169999 -0.011,0.88 -0.044,1.089 -0.11,0.671 -0.605,1.012 -1.474,1.012 -0.693,0 -1.21,-0.33 -1.551,-0.99 v 0.99 L 0.352,4.741 V 4.323 C 0.748,4.323 0.99,4.29 1.078,4.224 1.166,4.158 1.199,4.015 1.199,3.762 V 0.869 C 1.199,0.65999997 1.155,0.528 1.078,0.484 1.001,0.44 0.759,0.418 0.352,0.418 V 0 L 1.617,0.033 2.871,0 v 0.41799998 c -0.407,0 -0.638,0.022 -0.715,0.066 C 2.079,0.528 2.035,0.65999997 2.035,0.869 v 1.98 c 0,0.891 0.561,1.6939997 1.419,1.6939997 z"
             id="path7584" />
        </g>
        <g
           transform="translate(50.083)"
           id="g4358">
          <path
             d="M 4.741,4.983 C 4.323,4.983 3.938,4.818 3.586,4.488 3.256,4.741 2.882,4.862 2.453,4.862 1.507,4.862 0.649,4.158 0.649,3.234 0.649,2.772 0.814,2.398 1.144,2.112 0.935,1.848 0.825,1.551 0.825,1.21 0.825,0.792 0.968,0.473 1.243,0.264 0.781,0.11 0.308,-0.286 0.308,-0.847 c 0,-0.4729999 0.308,-0.847 0.913,-1.111 0.462,-0.209 0.968,-0.308 1.518,-0.308 0.561,0 1.078,0.099 1.54,0.308 0.605,0.264 0.9019998,0.6380001 0.9019998,1.133 C 5.1809998,-0.242 4.939,0.187 4.455,0.462 3.949,0.737 3.388,0.77 2.574,0.77 2.09,0.77 1.826,0.77 1.771,0.781 1.4629999,0.825 1.243,1.122 1.243,1.4629999 1.243,1.628 1.287,1.782 1.386,1.914 1.694,1.705 2.046,1.595 2.453,1.595 c 0.946,0 1.793,0.704 1.793,1.628 0,0.429 -0.143,0.781 -0.429,1.056 C 4.092,4.532 4.389,4.653 4.708,4.653 4.653,4.598 4.62,4.5099998 4.62,4.4 c 0,-0.242 0.121,-0.363 0.363,-0.363 0.2309997,0 0.352,0.121 0.352,0.374 0,0.341 -0.264,0.572 -0.594,0.572 z M 2.453,4.521 C 3.047,4.521 3.3439999,4.092 3.3439999,3.234 3.3439999,2.365 3.047,1.925 2.453,1.925 c -0.605,0 -0.902,0.429 -0.902,1.298 0,0.869 0.297,1.298 0.902,1.298 z M 1.804,0.044 h 0.638 c 0.572,0 1.034,-0.033 1.386,-0.11 0.473,-0.09899999 0.704,-0.363 0.704,-0.781 0,-0.352 -0.22,-0.627 -0.66,-0.836 -0.341,-0.165 -0.715,-0.242 -1.122,-0.242 -0.396,0 -0.77,0.077 -1.122,0.242 -0.451,0.209 -0.671,0.484 -0.671,0.836 0,0.462 0.396,0.891 0.847,0.891 z"
             id="path5847" />
        </g>
        <g
           transform="translate(55.583)"
           id="g7601">
          <path
             d="m 3.652,1.386 v 0.66 H 3.3 V 1.408 C 3.3,0.858 3.102,0.242 2.618,0.242 2.167,0.242 1.947,0.616 1.947,1.364 V 4.345 H 3.476 V 4.763 H 1.947 V 6.765 H 1.595 C 1.584,6.402 1.551,6.083 1.474,5.797 1.287,5.071 0.858,4.697 0.20899999,4.664 V 4.345 H 1.122 V 1.386 c 0,-0.649 0.1979999,-1.067 0.583,-1.276 0.297,-0.154 0.572,-0.231 0.847,-0.231 0.7259999,0 1.1,0.726 1.1,1.507 z"
             id="path1729" />
        </g>
        <g
           transform="translate(59.862)"
           id="g9801">
          <path
             d="m 3.454,4.565 c 0.495,0 0.748,-0.385 0.748,-1.166 V 0.869 C 4.202,0.65999997 4.169,0.528 4.092,0.484 4.015,0.44 3.773,0.429 3.366,0.429 V 0 L 4.631,0.033 5.8849998,0 V 0.429 C 5.533,0.429 5.302,0.44 5.192,0.473 5.082,0.506 5.038,0.583 5.038,0.704 v 2.079 c 0,0.5279999 -0.011,0.891 -0.044,1.1 C 4.884,4.554 4.389,4.895 3.52,4.895 2.849,4.895 2.343,4.587 2.002,3.971 V 7.634 L 0.352,7.513 V 7.095 C 0.748,7.095 0.99,7.062 1.078,6.996 1.166,6.93 1.199,6.776 1.199,6.523 V 0.869 C 1.199,0.65999997 1.155,0.528 1.078,0.484 1.001,0.44 0.759,0.429 0.352,0.429 V 0 L 1.617,0.033 2.871,0 V 0.429 C 2.464,0.429 2.233,0.44 2.156,0.484 2.079,0.528 2.035,0.65999997 2.035,0.869 v 2.002 c 0,0.891 0.561,1.694 1.419,1.694 z"
             id="path4743" />
        </g>
      </g>
    </g>
    <g
       transform="translate(394.20056,462.92668)"
       id="g4159">
      <g
         class="typst-text"
         transform="scale(1,-1)"
         id="g2500">
        <g
           id="g8017">
          <path
             d="M 5.797,4.103 C 5.797,4.609 5.302,4.862 4.752,4.862 4.279,4.862 3.905,4.609 3.619,4.103 3.388,4.609 3.003,4.862 2.442,4.862 1.903,4.862 1.4629999,4.609 1.111,4.114 0.814,3.685 0.65999997,3.366 0.65999997,3.157 0.65999997,3.058 0.715,3.003 0.825,3.003 0.924,3.003 0.99,3.058 1.012,3.157 1.221,3.795 1.683,4.5429997 2.42,4.5429997 2.783,4.5429997 2.9589999,4.312 2.9589999,3.861 2.9589999,3.6299999 2.761,2.772 2.376,1.298 2.189,0.561 1.859,0.198 1.386,0.198 c -0.154,0 -0.297,0.033 -0.418,0.088 0.286,0.11 0.429,0.308 0.429,0.594 0,0.286 -0.143,0.429 -0.44,0.429 -0.363,0 -0.638,-0.308 -0.638,-0.671 0,-0.506 0.51699997,-0.759 1.056,-0.759 0.462,0 0.836,0.253 1.133,0.759 0.209,-0.506 0.605,-0.759 1.177,-0.759 0.528,0 0.968,0.253 1.32,0.748 0.297,0.429 0.451,0.748 0.451,0.957 0,0.099 -0.055,0.154 -0.165,0.154 C 5.192,1.738 5.137,1.683 5.104,1.584 4.917,0.957 4.422,0.198 3.707,0.198 c -0.3630001,0 -0.55,0.21999998 -0.55,0.671 0,0.143 0.055,0.4509999 0.176,0.9459999 L 3.707,3.3 c 0.209,0.825 0.55,1.2429997 1.034,1.2429997 0.154,0 0.297,-0.033 0.418,-0.088 -0.297,-0.099 -0.44,-0.297 -0.44,-0.594 0,-0.286 0.154,-0.429 0.451,-0.429 0.352,0 0.627,0.319 0.627,0.6710003 z"
             id="path8252" />
        </g>
      </g>
    </g>
    <g
       transform="translate(400.49256,465.64358)"
       id="g5260">
      <g
         class="typst-text"
         transform="scale(1,-1)"
         id="g402">
        <g
           id="g2750">
          <path
             d="m 2.5025,4.7817 c 0,0.1848 -0.1463,0.3234 -0.3311,0.3234 -0.231,0 -0.4543,-0.2156 -0.4543,-0.4466 0,-0.1848 0.1463,-0.3234 0.3311,-0.3234 0.231,0 0.4543,0.2156 0.4543,0.4466 z M 1.4784,3.4187999 C 1.1165,3.4187999 0.8316,3.234 0.6237,2.8644 0.4466,2.5564 0.3619,2.3408 0.3619,2.2175999 0.3619,2.1329 0.4158,2.0944 0.5159,2.0944 c 0.0847,0 0.1386,0.0462 0.1694,0.1386 0.1771,0.6083 0.4312,0.9086 0.77,0.9086 0.1078,0 0.1617,-0.077 0.1617,-0.2387 C 1.617,2.8028 1.54,2.5564 1.386,2.156 L 0.9086,0.9317 C 0.8624,0.8085 0.8393,0.7007 0.8393,0.6006 c 0,-0.40040001 0.3465,-0.6776 0.7469,-0.6776 0.3619,0 0.6391,0.1848 0.847,0.5621 C 2.6103,0.7931 2.695,1.001 2.695,1.1165 2.695,1.2012 2.6411,1.2474 2.541,1.2474 2.4948,1.2397 2.4409,1.2012 2.387,1.1242 2.3792999,1.1165 2.3716,1.1011 2.3716,1.0934 2.1945,0.5005 1.9404,0.20019999 1.6093,0.20019999 c -0.1078,0 -0.1617,0.077 -0.1617,0.23100001 0,0.1155 0.0385,0.2772 0.1232,0.4774 l 0.6083,1.5785 c 0.0308,0.0847 0.0462,0.1694 0.0462,0.2541 0,0.4004 -0.3465,0.6775999 -0.7469,0.6775999 z"
             id="path3715" />
        </g>
      </g>
    </g>
    <g
       transform="translate(404.21936,462.92668)"
       id="g6463">
      <g
         class="typst-text"
         transform="scale(1,-1)"
         id="g9142">
        <g
           id="g6557">
          <path
             d="m 2.112,4.125 c 0,0.33 -0.253,0.616 -0.583,0.616 -0.33,0 -0.583,-0.286 -0.583,-0.616 0,-0.33 0.253,-0.616 0.583,-0.616 0.33,0 0.583,0.286 0.583,0.616 z m 0,-3.509 c 0,0.33 -0.253,0.616 -0.583,0.616 C 1.199,1.232 0.946,0.946 0.946,0.616 0.946,0.286 1.199,0 1.529,0 1.859,0 2.112,0.286 2.112,0.616 Z"
             id="path8714" />
        </g>
        <g
           transform="translate(6.71)"
           id="g3619">
          <path
             d="m 2.761,4.576 c 0.462,0 0.814,-0.11 1.056,-0.33 C 3.553,4.213 3.366,3.971 3.366,3.718 c 0,-0.363 0.176,-0.539 0.539,-0.539 0.363,0 0.539,0.187 0.539,0.55 0,0.7809998 -0.847,1.199 -1.694,1.199 C 2.068,4.928 1.507,4.686 1.056,4.18 0.605,3.674 0.374,3.069 0.374,2.376 c 0,-0.671 0.231,-1.265 0.682,-1.76 0.451,-0.495 1.001,-0.737 1.672,-0.737 0.5499999,0 0.979,0.154 1.287,0.473 0.253,0.253 0.418,0.506 0.506,0.77 0.033,0.099 0.044,0.165 0.044,0.209 0,0.099 -0.066,0.143 -0.187,0.143 C 4.29,1.474 4.235,1.43 4.202,1.342 3.971,0.605 3.52,0.231 2.827,0.231 2.508,0.231 2.2,0.374 1.892,0.671 1.529,1.012 1.353,1.584 1.353,2.398 c 0,1.1 0.418,2.178 1.408,2.178 z"
             id="path4559" />
        </g>
        <g
           transform="translate(11.594)"
           id="g3874">
          <path
             d="m 4.565,2.761 c 0,1.265 -0.737,2.167 -1.969,2.167 -0.66,0 -1.21,-0.253 -1.661,-0.77 C 0.517,3.674 0.308,3.091 0.308,2.42 c 0,-0.693 0.231,-1.276 0.693,-1.782 0.4619999,-0.506 1.034,-0.759 1.716,-0.759 0.6269999,0 1.111,0.22 1.441,0.649 0.275,0.363 0.407,0.627 0.407,0.803 0,0.11 -0.066,0.165 -0.187,0.165 C 4.29,1.496 4.235,1.441 4.202,1.3199999 3.96,0.594 3.487,0.231 2.783,0.231 2.288,0.231 1.903,0.462 1.606,0.935 1.397,1.276 1.298,1.793 1.287,2.497 h 2.97 c 0.242,0 0.308,0.022 0.308,0.264 z M 3.586,3.839 C 3.707,3.476 3.762,3.124 3.762,2.805 H 1.298 c 0.033,0.726 0.22,1.221 0.55,1.474 0.275,0.22 0.517,0.33 0.748,0.33 0.495,0 0.825,-0.253 0.99,-0.77 z"
             id="path6164" />
        </g>
        <g
           transform="translate(16.478)"
           id="g2795">
          <path
             d="M 3.454,4.5429997 C 3.949,4.5429997 4.202,4.158 4.202,3.377 V 0.869 C 4.202,0.65999997 4.169,0.528 4.092,0.484 4.015,0.44 3.773,0.418 3.366,0.418 V 0 L 4.631,0.033 5.8849998,0 V 0.41799998 C 5.533,0.41799998 5.302,0.429 5.192,0.462 5.082,0.495 5.038,0.572 5.038,0.704 v 2.057 c 0,0.5169999 -0.011,0.88 -0.044,1.089 -0.11,0.671 -0.605,1.012 -1.474,1.012 -0.693,0 -1.21,-0.33 -1.551,-0.99 v 0.99 L 0.352,4.741 V 4.323 C 0.748,4.323 0.99,4.29 1.078,4.224 1.166,4.158 1.199,4.015 1.199,3.762 V 0.869 C 1.199,0.65999997 1.155,0.528 1.078,0.484 1.001,0.44 0.759,0.418 0.352,0.418 V 0 L 1.617,0.033 2.871,0 v 0.41799998 c -0.407,0 -0.638,0.022 -0.715,0.066 C 2.079,0.528 2.035,0.65999997 2.035,0.869 v 1.98 c 0,0.891 0.561,1.6939997 1.419,1.6939997 z"
             id="path1165" />
        </g>
        <g
           transform="translate(22.594)"
           id="g3724">
          <path
             d="m 3.652,1.386 v 0.66 H 3.3 V 1.408 C 3.3,0.858 3.102,0.242 2.618,0.242 2.167,0.242 1.947,0.616 1.947,1.364 V 4.345 H 3.476 V 4.763 H 1.947 V 6.765 H 1.595 C 1.584,6.402 1.551,6.083 1.474,5.797 1.287,5.071 0.858,4.697 0.20899999,4.664 V 4.345 H 1.122 V 1.386 c 0,-0.649 0.1979999,-1.067 0.583,-1.276 0.297,-0.154 0.572,-0.231 0.847,-0.231 0.7259999,0 1.1,0.726 1.1,1.507 z"
             id="path1121" />
        </g>
        <g
           transform="translate(26.873)"
           id="g5331">
          <path
             d="m 4.004,4.158 c 0,0.429 -0.407,0.704 -0.836,0.704 -0.5610001,0 -0.99,-0.33 -1.276,-1.001 V 4.862 L 0.308,4.741 V 4.323 C 0.693,4.323 0.924,4.29 1.012,4.224 1.1,4.158 1.144,4.015 1.144,3.762 V 0.869 C 1.144,0.65999997 1.111,0.528 1.034,0.484 0.957,0.44 0.715,0.418 0.308,0.418 V 0 L 1.573,0.033 C 2.035,0.044 2.508,0.033 2.981,0 V 0.41799998 H 2.717 c -0.363,0 -0.594,0.033 -0.671,0.088 -0.077,0.055 -0.11,0.187 -0.11,0.385 V 2.552 c 0,0.473 0.088,0.902 0.253,1.265 C 2.409,4.29 2.728,4.532 3.157,4.5429997 3.047,4.433 2.992,4.301 2.992,4.147 c 0,-0.341 0.165,-0.506 0.506,-0.506 0.297,0 0.506,0.231 0.506,0.517 z"
             id="path7761" />
        </g>
        <g
           transform="translate(31.185)"
           id="g8638">
          <path
             d="m 2.739,-0.121 c 0.682,0 1.254,0.242 1.727,0.726 C 4.939,1.089 5.1809998,1.6719999 5.1809998,2.354 5.1809998,3.047 4.95,3.652 4.488,4.158 4.026,4.664 3.443,4.928 2.75,4.928 2.057,4.928 1.485,4.664 1.012,4.158 0.539,3.652 0.308,3.047 0.308,2.354 0.308,1.6719999 0.539,1.089 1.012,0.605 1.485,0.121 2.068,-0.121 2.739,-0.121 Z M 2.75,0.231 C 2.222,0.231 1.826,0.462 1.551,0.935 1.375,1.243 1.287,1.749 1.287,2.442 1.287,3.113 1.375,3.597 1.54,3.905 1.804,4.378 2.2,4.609 2.739,4.609 3.256,4.609 3.652,4.378 3.927,3.927 4.114,3.619 4.202,3.124 4.202,2.442 4.202,1.166 3.828,0.231 2.75,0.231 Z"
             id="path5289" />
        </g>
        <g
           transform="translate(36.685)"
           id="g6903">
          <path
             d="m 2.134,6.611 c 0,0.33 -0.275,0.6159998 -0.605,0.6159998 -0.33,0 -0.616,-0.2859998 -0.616,-0.6159998 0,-0.33 0.275,-0.627 0.605,-0.627 0.341,0 0.616,0.286 0.616,0.627 z M 2.717,0 V 0.429 C 2.354,0.429 2.134,0.451 2.068,0.495 2.002,0.539 1.98,0.65999997 1.98,0.858 V 4.895 L 0.407,4.763 V 4.345 C 0.77,4.345 1.001,4.312 1.078,4.257 1.155,4.202 1.188,4.048 1.188,3.795 V 0.869 C 1.188,0.65999997 1.155,0.528 1.078,0.484 1.001,0.44 0.759,0.429 0.363,0.429 V 0 l 1.21,0.033 z"
             id="path2724" />
        </g>
        <g
           transform="translate(39.743)"
           id="g9353">
          <path
             d="M 4.114,-0.121 5.797,0 v 0.41799998 c -0.396,0 -0.627,0.022 -0.715,0.088 C 4.994,0.572 4.95,0.737 4.95,0.99 V 7.634 L 3.3109999,7.513 V 7.095 C 3.696,7.095 3.938,7.062 4.026,6.996 4.114,6.93 4.147,6.776 4.147,6.523 V 4.29 C 3.795,4.697 3.355,4.895 2.827,4.895 2.145,4.895 1.562,4.653 1.089,4.158 0.616,3.6629999 0.374,3.069 0.374,2.376 c 0,-0.671 0.22,-1.254 0.671,-1.749 0.451,-0.495 1.001,-0.748 1.672,-0.748 0.5609999,0 1.034,0.209 1.397,0.638 z M 2.871,4.565 c 0.4729999,0 0.858,-0.209 1.133,-0.627 0.077,-0.121 0.11,-0.242 0.11,-0.385 V 1.331 C 4.114,1.188 4.081,1.067 4.004,0.946 3.696,0.451 3.2779999,0.20899999 2.761,0.20899999 2.31,0.20899999 1.947,0.429 1.661,0.88 1.4629999,1.21 1.364,1.705 1.364,2.365 c 0,1.199 0.407,2.2 1.507,2.2 z"
             id="path9434" />
        </g>
        <g
           transform="translate(49.511)"
           id="g1730">
          <path
             d="M 3.2779999,-0.143 C 3.96,-0.143 4.5429997,0.099 5.016,0.594 5.489,1.089 5.731,1.6719999 5.731,2.365 5.731,3.036 5.511,3.608 5.082,4.092 4.631,4.609 4.081,4.862 3.421,4.862 2.86,4.862 2.376,4.642 1.958,4.213 V 4.862 L 0.308,4.741 V 4.323 C 0.715,4.323 0.957,4.301 1.034,4.246 1.111,4.191 1.155,4.048 1.155,3.817 V -1.265 C 1.155,-1.474 1.111,-1.606 1.034,-1.65 0.957,-1.694 0.715,-1.705 0.308,-1.705 v -0.429 l 1.254,0.033 1.265,-0.033 v 0.429 c -0.407,0 -0.638,0.011 -0.715,0.055 -0.077,0.044 -0.1210001,0.176 -0.1210001,0.385 V 0.484 C 2.233,0.143 2.706,-0.143 3.2779999,-0.143 Z m 0.066,4.642 C 3.795,4.499 4.147,4.246 4.422,3.74 4.631,3.3109999 4.741,2.86 4.741,2.365 4.741,1.848 4.62,1.375 4.378,0.946 4.092,0.429 3.707,0.176 3.234,0.176 2.772,0.176 2.409,0.396 2.134,0.825 2.035,0.968 1.9909999,1.111 1.9909999,1.254 V 3.6629999 C 2.31,4.224 2.761,4.499 3.3439999,4.499 Z"
             id="path6311" />
        </g>
        <g
           transform="translate(55.627)"
           id="g8339">
          <path
             d="m 2.739,-0.121 c 0.682,0 1.254,0.242 1.727,0.726 C 4.939,1.089 5.1809998,1.6719999 5.1809998,2.354 5.1809998,3.047 4.95,3.652 4.488,4.158 4.026,4.664 3.443,4.928 2.75,4.928 2.057,4.928 1.485,4.664 1.012,4.158 0.539,3.652 0.308,3.047 0.308,2.354 0.308,1.6719999 0.539,1.089 1.012,0.605 1.485,0.121 2.068,-0.121 2.739,-0.121 Z M 2.75,0.231 C 2.222,0.231 1.826,0.462 1.551,0.935 1.375,1.243 1.287,1.749 1.287,2.442 1.287,3.113 1.375,3.597 1.54,3.905 1.804,4.378 2.2,4.609 2.739,4.609 3.256,4.609 3.652,4.378 3.927,3.927 4.114,3.619 4.202,3.124 4.202,2.442 4.202,1.166 3.828,0.231 2.75,0.231 Z"
             id="path1737" />
        </g>
        <g
           transform="translate(61.127)"
           id="g6024">
          <path
             d="M 3.96,1.43 C 3.96,2.266 3.388,2.794 2.2549999,3.014 1.738,3.113 1.408,3.234 1.232,3.355 1.056,3.476 0.968,3.652 0.968,3.861 c 0,0.517 0.385,0.77 1.155,0.77 0.748,0 1.1549999,-0.418 1.21,-1.265 0.011,-0.088 0.066,-0.132 0.176,-0.132 0.1209999,0 0.187,0.099 0.187,0.297 V 4.62 C 3.696,4.829 3.641,4.928 3.531,4.928 3.41,4.928 3.245,4.73 3.135,4.642 2.86,4.829 2.519,4.928 2.123,4.928 1.144,4.928 0.363,4.488 0.363,3.553 0.363,3.179 0.517,2.86 0.83599997,2.6069999 1.221,2.288 1.584,2.222 2.277,2.101 2.992,1.958 3.355,1.6389999 3.355,1.144 3.355,0.517 2.97,0.198 2.189,0.198 1.43,0.198 0.946,0.704 0.737,1.705 0.704,1.848 0.649,1.925 0.55,1.925 0.429,1.925 0.363,1.8149999 0.363,1.606 V 0.187 c 0,-0.209 0.055,-0.308 0.165,-0.308 0.033,0 0.088,0.033 0.176,0.11 0.198,0.17599999 0.11,0.143 0.308,0.34099998 C 1.331,0.033 1.727,-0.121 2.189,-0.121 c 1.045,0 1.771,0.53899998 1.771,1.551 z"
             id="path391" />
        </g>
        <g
           transform="translate(65.461)"
           id="g9565">
          <path
             d="m 2.134,6.611 c 0,0.33 -0.275,0.6159998 -0.605,0.6159998 -0.33,0 -0.616,-0.2859998 -0.616,-0.6159998 0,-0.33 0.275,-0.627 0.605,-0.627 0.341,0 0.616,0.286 0.616,0.627 z M 2.717,0 V 0.429 C 2.354,0.429 2.134,0.451 2.068,0.495 2.002,0.539 1.98,0.65999997 1.98,0.858 V 4.895 L 0.407,4.763 V 4.345 C 0.77,4.345 1.001,4.312 1.078,4.257 1.155,4.202 1.188,4.048 1.188,3.795 V 0.869 C 1.188,0.65999997 1.155,0.528 1.078,0.484 1.001,0.44 0.759,0.429 0.363,0.429 V 0 l 1.21,0.033 z"
             id="path8143" />
        </g>
        <g
           transform="translate(68.519)"
           id="g1428">
          <path
             d="m 3.652,1.386 v 0.66 H 3.3 V 1.408 C 3.3,0.858 3.102,0.242 2.618,0.242 2.167,0.242 1.947,0.616 1.947,1.364 V 4.345 H 3.476 V 4.763 H 1.947 V 6.765 H 1.595 C 1.584,6.402 1.551,6.083 1.474,5.797 1.287,5.071 0.858,4.697 0.20899999,4.664 V 4.345 H 1.122 V 1.386 c 0,-0.649 0.1979999,-1.067 0.583,-1.276 0.297,-0.154 0.572,-0.231 0.847,-0.231 0.7259999,0 1.1,0.726 1.1,1.507 z"
             id="path8362" />
        </g>
        <g
           transform="translate(72.798)"
           id="g4353">
          <path
             d="m 2.134,6.611 c 0,0.33 -0.275,0.6159998 -0.605,0.6159998 -0.33,0 -0.616,-0.2859998 -0.616,-0.6159998 0,-0.33 0.275,-0.627 0.605,-0.627 0.341,0 0.616,0.286 0.616,0.627 z M 2.717,0 V 0.429 C 2.354,0.429 2.134,0.451 2.068,0.495 2.002,0.539 1.98,0.65999997 1.98,0.858 V 4.895 L 0.407,4.763 V 4.345 C 0.77,4.345 1.001,4.312 1.078,4.257 1.155,4.202 1.188,4.048 1.188,3.795 V 0.869 C 1.188,0.65999997 1.155,0.528 1.078,0.484 1.001,0.44 0.759,0.429 0.363,0.429 V 0 l 1.21,0.033 z"
             id="path2227" />
        </g>
        <g
           transform="translate(75.856)"
           id="g1026">
          <path
             d="m 2.739,-0.121 c 0.682,0 1.254,0.242 1.727,0.726 C 4.939,1.089 5.1809998,1.6719999 5.1809998,2.354 5.1809998,3.047 4.95,3.652 4.488,4.158 4.026,4.664 3.443,4.928 2.75,4.928 2.057,4.928 1.485,4.664 1.012,4.158 0.539,3.652 0.308,3.047 0.308,2.354 0.308,1.6719999 0.539,1.089 1.012,0.605 1.485,0.121 2.068,-0.121 2.739,-0.121 Z M 2.75,0.231 C 2.222,0.231 1.826,0.462 1.551,0.935 1.375,1.243 1.287,1.749 1.287,2.442 1.287,3.113 1.375,3.597 1.54,3.905 1.804,4.378 2.2,4.609 2.739,4.609 3.256,4.609 3.652,4.378 3.927,3.927 4.114,3.619 4.202,3.124 4.202,2.442 4.202,1.166 3.828,0.231 2.75,0.231 Z"
             id="path2096" />
        </g>
        <g
           transform="translate(81.356)"
           id="g9508">
          <path
             d="M 3.454,4.5429997 C 3.949,4.5429997 4.202,4.158 4.202,3.377 V 0.869 C 4.202,0.65999997 4.169,0.528 4.092,0.484 4.015,0.44 3.773,0.418 3.366,0.418 V 0 L 4.631,0.033 5.8849998,0 V 0.41799998 C 5.533,0.41799998 5.302,0.429 5.192,0.462 5.082,0.495 5.038,0.572 5.038,0.704 v 2.057 c 0,0.5169999 -0.011,0.88 -0.044,1.089 -0.11,0.671 -0.605,1.012 -1.474,1.012 -0.693,0 -1.21,-0.33 -1.551,-0.99 v 0.99 L 0.352,4.741 V 4.323 C 0.748,4.323 0.99,4.29 1.078,4.224 1.166,4.158 1.199,4.015 1.199,3.762 V 0.869 C 1.199,0.65999997 1.155,0.528 1.078,0.484 1.001,0.44 0.759,0.418 0.352,0.418 V 0 L 1.617,0.033 2.871,0 v 0.41799998 c -0.407,0 -0.638,0.022 -0.715,0.066 C 2.079,0.528 2.035,0.65999997 2.035,0.869 v 1.98 c 0,0.891 0.561,1.6939997 1.419,1.6939997 z"
             id="path8720" />
        </g>
      </g>
    </g>
    <g
       transform="translate(394.20056,483.63958)"
       id="g7045">
      <g
         class="typst-text"
         transform="scale(1,-1)"
         id="g347">
        <g
           id="g6804">
          <path
             d="M 5.797,4.103 C 5.797,4.609 5.302,4.862 4.752,4.862 4.279,4.862 3.905,4.609 3.619,4.103 3.388,4.609 3.003,4.862 2.442,4.862 1.903,4.862 1.4629999,4.609 1.111,4.114 0.814,3.685 0.65999997,3.366 0.65999997,3.157 0.65999997,3.058 0.715,3.003 0.825,3.003 0.924,3.003 0.99,3.058 1.012,3.157 1.221,3.795 1.683,4.5429997 2.42,4.5429997 2.783,4.5429997 2.9589999,4.312 2.9589999,3.861 2.9589999,3.6299999 2.761,2.772 2.376,1.298 2.189,0.561 1.859,0.198 1.386,0.198 c -0.154,0 -0.297,0.033 -0.418,0.088 0.286,0.11 0.429,0.308 0.429,0.594 0,0.286 -0.143,0.429 -0.44,0.429 -0.363,0 -0.638,-0.308 -0.638,-0.671 0,-0.506 0.51699997,-0.759 1.056,-0.759 0.462,0 0.836,0.253 1.133,0.759 0.209,-0.506 0.605,-0.759 1.177,-0.759 0.528,0 0.968,0.253 1.32,0.748 0.297,0.429 0.451,0.748 0.451,0.957 0,0.099 -0.055,0.154 -0.165,0.154 C 5.192,1.738 5.137,1.683 5.104,1.584 4.917,0.957 4.422,0.198 3.707,0.198 c -0.3630001,0 -0.55,0.21999998 -0.55,0.671 0,0.143 0.055,0.4509999 0.176,0.9459999 L 3.707,3.3 c 0.209,0.825 0.55,1.2429997 1.034,1.2429997 0.154,0 0.297,-0.033 0.418,-0.088 -0.297,-0.099 -0.44,-0.297 -0.44,-0.594 0,-0.286 0.154,-0.429 0.451,-0.429 0.352,0 0.627,0.319 0.627,0.6710003 z"
             id="path2978" />
        </g>
      </g>
    </g>
    <g
       transform="translate(404.14456,483.63958)"
       id="g2579">
      <g
         class="typst-text"
         transform="scale(1,-1)"
         id="g8047">
        <g
           id="g4333">
          <path
             d="m 2.112,4.125 c 0,0.33 -0.253,0.616 -0.583,0.616 -0.33,0 -0.583,-0.286 -0.583,-0.616 0,-0.33 0.253,-0.616 0.583,-0.616 0.33,0 0.583,0.286 0.583,0.616 z m 0,-3.509 c 0,0.33 -0.253,0.616 -0.583,0.616 C 1.199,1.232 0.946,0.946 0.946,0.616 0.946,0.286 1.199,0 1.529,0 1.859,0 2.112,0.286 2.112,0.616 Z"
             id="path322" />
        </g>
        <g
           transform="translate(6.71)"
           id="g1681">
          <path
             d="M 3.96,1.43 C 3.96,2.266 3.388,2.794 2.2549999,3.014 1.738,3.113 1.408,3.234 1.232,3.355 1.056,3.476 0.968,3.652 0.968,3.861 c 0,0.517 0.385,0.77 1.155,0.77 0.748,0 1.1549999,-0.418 1.21,-1.265 0.011,-0.088 0.066,-0.132 0.176,-0.132 0.1209999,0 0.187,0.099 0.187,0.297 V 4.62 C 3.696,4.829 3.641,4.928 3.531,4.928 3.41,4.928 3.245,4.73 3.135,4.642 2.86,4.829 2.519,4.928 2.123,4.928 1.144,4.928 0.363,4.488 0.363,3.553 0.363,3.179 0.517,2.86 0.83599997,2.6069999 1.221,2.288 1.584,2.222 2.277,2.101 2.992,1.958 3.355,1.6389999 3.355,1.144 3.355,0.517 2.97,0.198 2.189,0.198 1.43,0.198 0.946,0.704 0.737,1.705 0.704,1.848 0.649,1.925 0.55,1.925 0.429,1.925 0.363,1.8149999 0.363,1.606 V 0.187 c 0,-0.209 0.055,-0.308 0.165,-0.308 0.033,0 0.088,0.033 0.176,0.11 0.198,0.17599999 0.11,0.143 0.308,0.34099998 C 1.331,0.033 1.727,-0.121 2.189,-0.121 c 1.045,0 1.771,0.53899998 1.771,1.551 z"
             id="path4907" />
        </g>
        <g
           transform="translate(11.044)"
           id="g4150">
          <path
             d="M 3.2779999,-0.143 C 3.96,-0.143 4.5429997,0.099 5.016,0.594 5.489,1.089 5.731,1.6719999 5.731,2.365 5.731,3.036 5.511,3.608 5.082,4.092 4.631,4.609 4.081,4.862 3.421,4.862 2.86,4.862 2.376,4.642 1.958,4.213 V 4.862 L 0.308,4.741 V 4.323 C 0.715,4.323 0.957,4.301 1.034,4.246 1.111,4.191 1.155,4.048 1.155,3.817 V -1.265 C 1.155,-1.474 1.111,-1.606 1.034,-1.65 0.957,-1.694 0.715,-1.705 0.308,-1.705 v -0.429 l 1.254,0.033 1.265,-0.033 v 0.429 c -0.407,0 -0.638,0.011 -0.715,0.055 -0.077,0.044 -0.1210001,0.176 -0.1210001,0.385 V 0.484 C 2.233,0.143 2.706,-0.143 3.2779999,-0.143 Z m 0.066,4.642 C 3.795,4.499 4.147,4.246 4.422,3.74 4.631,3.3109999 4.741,2.86 4.741,2.365 4.741,1.848 4.62,1.375 4.378,0.946 4.092,0.429 3.707,0.176 3.234,0.176 2.772,0.176 2.409,0.396 2.134,0.825 2.035,0.968 1.9909999,1.111 1.9909999,1.254 V 3.6629999 C 2.31,4.224 2.761,4.499 3.3439999,4.499 Z"
             id="path4585" />
        </g>
        <g
           transform="translate(17.16)"
           id="g1738">
          <path
             d="M 5.313,1.001 V 1.65 H 4.961 V 1.001 C 4.961,0.572 4.84,0.352 4.609,0.352 4.389,0.352 4.257,0.627 4.257,0.847 V 3.014 C 4.257,3.399 4.213,3.685 4.136,3.883 3.872,4.532 3.113,4.928 2.343,4.928 1.496,4.928 0.65999997,4.455 0.65999997,3.6629999 0.65999997,3.3 0.847,3.113 1.21,3.113 c 0.363,0 0.539,0.176 0.539,0.539 0,0.319 -0.165,0.506 -0.506,0.539 0.242,0.275 0.605,0.418 1.078,0.418 0.682,0 1.1,-0.6270001 1.1,-1.342 V 2.904 C 2.563,2.849 1.914,2.717 1.4629999,2.508 0.726,2.167 0.352,1.694 0.352,1.067 c 0,-0.286 0.11,-0.528 0.319,-0.715 0.352,-0.319 0.836,-0.473 1.452,-0.473 0.649,0 1.111,0.275 1.397,0.836 0.077,-0.418 0.385,-0.781 0.858,-0.781 0.583,0 0.935,0.462 0.935,1.067 z M 2.2,0.198 c -0.506,0 -0.924,0.374 -0.924,0.88 0,1.023 1.067,1.463 2.145,1.518 V 1.551 C 3.421,0.814 2.937,0.198 2.2,0.198 Z"
             id="path6320" />
        </g>
        <g
           transform="translate(22.66)"
           id="g5658">
          <path
             d="M 3.454,4.5429997 C 3.949,4.5429997 4.202,4.158 4.202,3.377 V 0.869 C 4.202,0.65999997 4.169,0.528 4.092,0.484 4.015,0.44 3.773,0.418 3.366,0.418 V 0 L 4.631,0.033 5.8849998,0 V 0.41799998 C 5.533,0.41799998 5.302,0.429 5.192,0.462 5.082,0.495 5.038,0.572 5.038,0.704 v 2.057 c 0,0.5169999 -0.011,0.88 -0.044,1.089 -0.11,0.671 -0.605,1.012 -1.474,1.012 -0.693,0 -1.21,-0.33 -1.551,-0.99 v 0.99 L 0.352,4.741 V 4.323 C 0.748,4.323 0.99,4.29 1.078,4.224 1.166,4.158 1.199,4.015 1.199,3.762 V 0.869 C 1.199,0.65999997 1.155,0.528 1.078,0.484 1.001,0.44 0.759,0.418 0.352,0.418 V 0 L 1.617,0.033 2.871,0 v 0.41799998 c -0.407,0 -0.638,0.022 -0.715,0.066 C 2.079,0.528 2.035,0.65999997 2.035,0.869 v 1.98 c 0,0.891 0.561,1.6939997 1.419,1.6939997 z"
             id="path7153" />
        </g>
        <g
           transform="translate(32.428)"
           id="g1621">
          <path
             d="M 4.114,-0.121 5.797,0 v 0.41799998 c -0.396,0 -0.627,0.022 -0.715,0.088 C 4.994,0.572 4.95,0.737 4.95,0.99 V 7.634 L 3.3109999,7.513 V 7.095 C 3.696,7.095 3.938,7.062 4.026,6.996 4.114,6.93 4.147,6.776 4.147,6.523 V 4.29 C 3.795,4.697 3.355,4.895 2.827,4.895 2.145,4.895 1.562,4.653 1.089,4.158 0.616,3.6629999 0.374,3.069 0.374,2.376 c 0,-0.671 0.22,-1.254 0.671,-1.749 0.451,-0.495 1.001,-0.748 1.672,-0.748 0.5609999,0 1.034,0.209 1.397,0.638 z M 2.871,4.565 c 0.4729999,0 0.858,-0.209 1.133,-0.627 0.077,-0.121 0.11,-0.242 0.11,-0.385 V 1.331 C 4.114,1.188 4.081,1.067 4.004,0.946 3.696,0.451 3.2779999,0.20899999 2.761,0.20899999 2.31,0.20899999 1.947,0.429 1.661,0.88 1.4629999,1.21 1.364,1.705 1.364,2.365 c 0,1.199 0.407,2.2 1.507,2.2 z"
             id="path1963" />
        </g>
        <g
           transform="translate(38.544)"
           id="g3575">
          <path
             d="m 2.134,6.611 c 0,0.33 -0.275,0.6159998 -0.605,0.6159998 -0.33,0 -0.616,-0.2859998 -0.616,-0.6159998 0,-0.33 0.275,-0.627 0.605,-0.627 0.341,0 0.616,0.286 0.616,0.627 z M 2.717,0 V 0.429 C 2.354,0.429 2.134,0.451 2.068,0.495 2.002,0.539 1.98,0.65999997 1.98,0.858 V 4.895 L 0.407,4.763 V 4.345 C 0.77,4.345 1.001,4.312 1.078,4.257 1.155,4.202 1.188,4.048 1.188,3.795 V 0.869 C 1.188,0.65999997 1.155,0.528 1.078,0.484 1.001,0.44 0.759,0.429 0.363,0.429 V 0 l 1.21,0.033 z"
             id="path6246" />
        </g>
        <g
           transform="translate(41.602)"
           id="g5279">
          <path
             d="m 4.004,4.158 c 0,0.429 -0.407,0.704 -0.836,0.704 -0.5610001,0 -0.99,-0.33 -1.276,-1.001 V 4.862 L 0.308,4.741 V 4.323 C 0.693,4.323 0.924,4.29 1.012,4.224 1.1,4.158 1.144,4.015 1.144,3.762 V 0.869 C 1.144,0.65999997 1.111,0.528 1.034,0.484 0.957,0.44 0.715,0.418 0.308,0.418 V 0 L 1.573,0.033 C 2.035,0.044 2.508,0.033 2.981,0 V 0.41799998 H 2.717 c -0.363,0 -0.594,0.033 -0.671,0.088 -0.077,0.055 -0.11,0.187 -0.11,0.385 V 2.552 c 0,0.473 0.088,0.902 0.253,1.265 C 2.409,4.29 2.728,4.532 3.157,4.5429997 3.047,4.433 2.992,4.301 2.992,4.147 c 0,-0.341 0.165,-0.506 0.506,-0.506 0.297,0 0.506,0.231 0.506,0.517 z"
             id="path4213" />
        </g>
        <g
           transform="translate(45.914)"
           id="g3615">
          <path
             d="m 4.565,2.761 c 0,1.265 -0.737,2.167 -1.969,2.167 -0.66,0 -1.21,-0.253 -1.661,-0.77 C 0.517,3.674 0.308,3.091 0.308,2.42 c 0,-0.693 0.231,-1.276 0.693,-1.782 0.4619999,-0.506 1.034,-0.759 1.716,-0.759 0.6269999,0 1.111,0.22 1.441,0.649 0.275,0.363 0.407,0.627 0.407,0.803 0,0.11 -0.066,0.165 -0.187,0.165 C 4.29,1.496 4.235,1.441 4.202,1.3199999 3.96,0.594 3.487,0.231 2.783,0.231 2.288,0.231 1.903,0.462 1.606,0.935 1.397,1.276 1.298,1.793 1.287,2.497 h 2.97 c 0.242,0 0.308,0.022 0.308,0.264 z M 3.586,3.839 C 3.707,3.476 3.762,3.124 3.762,2.805 H 1.298 c 0.033,0.726 0.22,1.221 0.55,1.474 0.275,0.22 0.517,0.33 0.748,0.33 0.495,0 0.825,-0.253 0.99,-0.77 z"
             id="path4950" />
        </g>
        <g
           transform="translate(50.798)"
           id="g3083">
          <path
             d="m 2.761,4.576 c 0.462,0 0.814,-0.11 1.056,-0.33 C 3.553,4.213 3.366,3.971 3.366,3.718 c 0,-0.363 0.176,-0.539 0.539,-0.539 0.363,0 0.539,0.187 0.539,0.55 0,0.7809998 -0.847,1.199 -1.694,1.199 C 2.068,4.928 1.507,4.686 1.056,4.18 0.605,3.674 0.374,3.069 0.374,2.376 c 0,-0.671 0.231,-1.265 0.682,-1.76 0.451,-0.495 1.001,-0.737 1.672,-0.737 0.5499999,0 0.979,0.154 1.287,0.473 0.253,0.253 0.418,0.506 0.506,0.77 0.033,0.099 0.044,0.165 0.044,0.209 0,0.099 -0.066,0.143 -0.187,0.143 C 4.29,1.474 4.235,1.43 4.202,1.342 3.971,0.605 3.52,0.231 2.827,0.231 2.508,0.231 2.2,0.374 1.892,0.671 1.529,1.012 1.353,1.584 1.353,2.398 c 0,1.1 0.418,2.178 1.408,2.178 z"
             id="path985" />
        </g>
        <g
           transform="translate(55.682)"
           id="g8563">
          <path
             d="m 3.652,1.386 v 0.66 H 3.3 V 1.408 C 3.3,0.858 3.102,0.242 2.618,0.242 2.167,0.242 1.947,0.616 1.947,1.364 V 4.345 H 3.476 V 4.763 H 1.947 V 6.765 H 1.595 C 1.584,6.402 1.551,6.083 1.474,5.797 1.287,5.071 0.858,4.697 0.20899999,4.664 V 4.345 H 1.122 V 1.386 c 0,-0.649 0.1979999,-1.067 0.583,-1.276 0.297,-0.154 0.572,-0.231 0.847,-0.231 0.7259999,0 1.1,0.726 1.1,1.507 z"
             id="path1557" />
        </g>
        <g
           transform="translate(59.961)"
           id="g9343">
          <path
             d="m 2.134,6.611 c 0,0.33 -0.275,0.6159998 -0.605,0.6159998 -0.33,0 -0.616,-0.2859998 -0.616,-0.6159998 0,-0.33 0.275,-0.627 0.605,-0.627 0.341,0 0.616,0.286 0.616,0.627 z M 2.717,0 V 0.429 C 2.354,0.429 2.134,0.451 2.068,0.495 2.002,0.539 1.98,0.65999997 1.98,0.858 V 4.895 L 0.407,4.763 V 4.345 C 0.77,4.345 1.001,4.312 1.078,4.257 1.155,4.202 1.188,4.048 1.188,3.795 V 0.869 C 1.188,0.65999997 1.155,0.528 1.078,0.484 1.001,0.44 0.759,0.429 0.363,0.429 V 0 l 1.21,0.033 z"
             id="path8079" />
        </g>
        <g
           transform="translate(63.019)"
           id="g6945">
          <path
             d="m 2.739,-0.121 c 0.682,0 1.254,0.242 1.727,0.726 C 4.939,1.089 5.1809998,1.6719999 5.1809998,2.354 5.1809998,3.047 4.95,3.652 4.488,4.158 4.026,4.664 3.443,4.928 2.75,4.928 2.057,4.928 1.485,4.664 1.012,4.158 0.539,3.652 0.308,3.047 0.308,2.354 0.308,1.6719999 0.539,1.089 1.012,0.605 1.485,0.121 2.068,-0.121 2.739,-0.121 Z M 2.75,0.231 C 2.222,0.231 1.826,0.462 1.551,0.935 1.375,1.243 1.287,1.749 1.287,2.442 1.287,3.113 1.375,3.597 1.54,3.905 1.804,4.378 2.2,4.609 2.739,4.609 3.256,4.609 3.652,4.378 3.927,3.927 4.114,3.619 4.202,3.124 4.202,2.442 4.202,1.166 3.828,0.231 2.75,0.231 Z"
             id="path4073" />
        </g>
        <g
           transform="translate(68.519)"
           id="g1432">
          <path
             d="M 3.454,4.5429997 C 3.949,4.5429997 4.202,4.158 4.202,3.377 V 0.869 C 4.202,0.65999997 4.169,0.528 4.092,0.484 4.015,0.44 3.773,0.418 3.366,0.418 V 0 L 4.631,0.033 5.8849998,0 V 0.41799998 C 5.533,0.41799998 5.302,0.429 5.192,0.462 5.082,0.495 5.038,0.572 5.038,0.704 v 2.057 c 0,0.5169999 -0.011,0.88 -0.044,1.089 -0.11,0.671 -0.605,1.012 -1.474,1.012 -0.693,0 -1.21,-0.33 -1.551,-0.99 v 0.99 L 0.352,4.741 V 4.323 C 0.748,4.323 0.99,4.29 1.078,4.224 1.166,4.158 1.199,4.015 1.199,3.762 V 0.869 C 1.199,0.65999997 1.155,0.528 1.078,0.484 1.001,0.44 0.759,0.418 0.352,0.418 V 0 L 1.617,0.033 2.871,0 v 0.41799998 c -0.407,0 -0.638,0.022 -0.715,0.066 C 2.079,0.528 2.035,0.65999997 2.035,0.869 v 1.98 c 0,0.891 0.561,1.6939997 1.419,1.6939997 z"
             id="path3580" />
        </g>
      </g>
    </g>
    <g
       ns1:version="1.10.2"
       ns1:texconverter="typst"
       ns1:pdfconverter="inkscape"
       ns1:text="$ x_(&quot;cl&quot;,i)&quot;: collet length&quot;$\n\n$x_i&quot;: centroid position&quot;$\n\n$x&quot;: span direction&quot;$\n\n$x$\n\n$x_i$\n\n$x_(&quot;cl&quot;,i)$"
       ns1:preamble="/home/jav/.config/inkscape/extensions/textext/default_packages.tex"
       ns1:scale="1.0"
       ns1:alignment="middle center"
       ns1:stroke-to-path="0"
       id="g3809"
       transform="translate(26.327018,109.89098)"
       ns1:jacobian_sqrt="1.0">
      <defs
         id="id-42d53404-4d6b-47ae-9954-4e51b046dd61" />
      <g
         id="g9681"
         transform="translate(388.05674,208.44604)" />
    </g>
  </g>
</svg>
