<svg class="main-svg" xmlns="http://www.w3.org/2000/svg" xmlns:xlink="http://www.w3.org/1999/xlink" width="700" height="750" style="" viewBox="0 0 700 750"><rect x="0" y="0" width="700" height="750" style="fill: rgb(0, 0, 0); fill-opacity: 0;"/><defs id="defs-53b57a"><g class="clips"><clipPath id="clip53b57axyplot" class="plotclip"><rect width="647" height="206.40000000000003"/></clipPath><clipPath id="clip53b57ax2y2plot" class="plotclip"><rect width="647" height="206.39999999999995"/></clipPath><clipPath id="clip53b57ax3y3plot" class="plotclip"><rect width="647" height="206.4"/></clipPath><clipPath class="axesclip" id="clip53b57ax"><rect x="53" y="0" width="647" height="750"/></clipPath><clipPath class="axesclip" id="clip53b57ay"><rect x="0" y="20" width="700" height="206.40000000000003"/></clipPath><clipPath class="axesclip" id="clip53b57axy"><rect x="53" y="20" width="647" height="206.40000000000003"/></clipPath><clipPath class="axesclip" id="clip53b57ay2"><rect x="0" y="260.80000000000007" width="700" height="206.39999999999995"/></clipPath><clipPath class="axesclip" id="clip53b57axy2"><rect x="53" y="260.80000000000007" width="647" height="206.39999999999995"/></clipPath><clipPath class="axesclip" id="clip53b57ay3"><rect x="0" y="501.59999999999997" width="700" height="206.4"/></clipPath><clipPath class="axesclip" id="clip53b57axy3"><rect x="53" y="501.59999999999997" width="647" height="206.4"/></clipPath><clipPath class="axesclip" id="clip53b57ax2"><rect x="53" y="0" width="647" height="750"/></clipPath><clipPath class="axesclip" id="clip53b57ax2y"><rect x="53" y="20" width="647" height="206.40000000000003"/></clipPath><clipPath class="axesclip" id="clip53b57ax2y2"><rect x="53" y="260.80000000000007" width="647" height="206.39999999999995"/></clipPath><clipPath class="axesclip" id="clip53b57ax2y3"><rect x="53" y="501.59999999999997" width="647" height="206.4"/></clipPath><clipPath class="axesclip" id="clip53b57ax3"><rect x="53" y="0" width="647" height="750"/></clipPath><clipPath class="axesclip" id="clip53b57ax3y"><rect x="53" y="20" width="647" height="206.40000000000003"/></clipPath><clipPath class="axesclip" id="clip53b57ax3y2"><rect x="53" y="260.80000000000007" width="647" height="206.39999999999995"/></clipPath><clipPath class="axesclip" id="clip53b57ax3y3"><rect x="53" y="501.59999999999997" width="647" height="206.4"/></clipPath></g><g class="gradients"/><g class="patterns"/></defs><g class="bglayer"><rect class="bg" x="53" y="20" width="647" height="206.40000000000003" style="fill: rgb(229, 236, 246); fill-opacity: 1; stroke-width: 0;"/><rect class="bg" x="53" y="260.80000000000007" width="647" height="206.39999999999995" style="fill: rgb(229, 236, 246); fill-opacity: 1; stroke-width: 0;"/><rect class="bg" x="53" y="501.59999999999997" width="647" height="206.4" style="fill: rgb(229, 236, 246); fill-opacity: 1; stroke-width: 0;"/></g><g class="layer-below"><g class="imagelayer"/><g class="shapelayer"/></g><g class="cartesianlayer"><g class="subplot xy"><g class="layer-subplot"><g class="shapelayer"/><g class="imagelayer"/></g><g class="minor-gridlayer"><g class="x"/><g class="y"/></g><g class="gridlayer"><g class="x"><path class="xgrid crisp" transform="translate(139.26999999999998,0)" d="M0,20v206.40000000000003" style="stroke: rgb(255, 255, 255); stroke-opacity: 1; stroke-width: 1px;"/><path class="xgrid crisp" transform="translate(225.53,0)" d="M0,20v206.40000000000003" style="stroke: rgb(255, 255, 255); stroke-opacity: 1; stroke-width: 1px;"/><path class="xgrid crisp" transform="translate(311.8,0)" d="M0,20v206.40000000000003" style="stroke: rgb(255, 255, 255); stroke-opacity: 1; stroke-width: 1px;"/><path class="xgrid crisp" transform="translate(398.07,0)" d="M0,20v206.40000000000003" style="stroke: rgb(255, 255, 255); stroke-opacity: 1; stroke-width: 1px;"/><path class="xgrid crisp" transform="translate(484.33,0)" d="M0,20v206.40000000000003" style="stroke: rgb(255, 255, 255); stroke-opacity: 1; stroke-width: 1px;"/><path class="xgrid crisp" transform="translate(570.6,0)" d="M0,20v206.40000000000003" style="stroke: rgb(255, 255, 255); stroke-opacity: 1; stroke-width: 1px;"/><path class="xgrid crisp" transform="translate(656.87,0)" d="M0,20v206.40000000000003" style="stroke: rgb(255, 255, 255); stroke-opacity: 1; stroke-width: 1px;"/></g><g class="y"><path class="ygrid crisp" transform="translate(0,174.8)" d="M53,0h647" style="stroke: rgb(255, 255, 255); stroke-opacity: 1; stroke-width: 1px;"/><path class="ygrid crisp" transform="translate(0,71.6)" d="M53,0h647" style="stroke: rgb(255, 255, 255); stroke-opacity: 1; stroke-width: 1px;"/></g></g><g class="zerolinelayer"><path class="xzl zl crisp" transform="translate(53,0)" d="M0,20v206.40000000000003" style="stroke: rgb(255, 255, 255); stroke-opacity: 1; stroke-width: 2px;"/><path class="yzl zl crisp" transform="translate(0,123.2)" d="M53,0h647" style="stroke: rgb(255, 255, 255); stroke-opacity: 1; stroke-width: 2px;"/></g><path class="xlines-below"/><path class="ylines-below"/><g class="overlines-below"/><g class="xaxislayer-below"/><g class="yaxislayer-below"/><g class="overaxes-below"/><g class="plot" transform="translate(53,20)" clip-path="url(#clip53b57axyplot)"><g class="scatterlayer mlayer"><g class="trace scatter trace2535f8" style="stroke-miterlimit: 2;"><g class="fills"><g><path class="js-fill" d="M647,103.2L0,103.2L0,103.2L647,103.2L647,103.2" style="fill: rgb(255, 0, 0); fill-opacity: 0.5; stroke-width: 0;"/></g></g><g class="errorbars"/><g class="lines"><path class="js-line" d="M0,103.2L647,103.2L647,103.2" style="vector-effect: none; fill: none; stroke: rgb(255, 0, 0); stroke-opacity: 1; stroke-width: 1px; opacity: 1;"/></g><g class="points"/><g class="text"/></g></g></g><g class="overplot"/><path class="xlines-above crisp" d="M0,0" style="fill: none;"/><path class="ylines-above crisp" d="M0,0" style="fill: none;"/><g class="overlines-above"/><g class="xaxislayer-above"/><g class="yaxislayer-above"><g class="ytick"><text text-anchor="end" x="52" y="4.199999999999999" transform="translate(0,226.4)" style="font-family: 'Open Sans', verdana, arial, sans-serif; font-size: 12px; fill: rgb(42, 63, 95); fill-opacity: 1; white-space: pre; opacity: 1;">−1</text></g><g class="ytick"><text text-anchor="end" x="52" y="4.199999999999999" style="font-family: 'Open Sans', verdana, arial, sans-serif; font-size: 12px; fill: rgb(42, 63, 95); fill-opacity: 1; white-space: pre; opacity: 1;" transform="translate(0,174.8)">−0.5</text></g><g class="ytick"><text text-anchor="end" x="52" y="4.199999999999999" style="font-family: 'Open Sans', verdana, arial, sans-serif; font-size: 12px; fill: rgb(42, 63, 95); fill-opacity: 1; white-space: pre; opacity: 1;" transform="translate(0,123.2)">0</text></g><g class="ytick"><text text-anchor="end" x="52" y="4.199999999999999" style="font-family: 'Open Sans', verdana, arial, sans-serif; font-size: 12px; fill: rgb(42, 63, 95); fill-opacity: 1; white-space: pre; opacity: 1;" transform="translate(0,71.6)">0.5</text></g><g class="ytick"><text text-anchor="end" x="52" y="4.199999999999999" style="font-family: 'Open Sans', verdana, arial, sans-serif; font-size: 12px; fill: rgb(42, 63, 95); fill-opacity: 1; white-space: pre; opacity: 1;" transform="translate(0,20)">1</text></g></g><g class="overaxes-above"/></g><g class="subplot x2y2"><g class="layer-subplot"><g class="shapelayer"/><g class="imagelayer"/></g><g class="minor-gridlayer"><g class="x2"/><g class="y2"/></g><g class="gridlayer"><g class="x2"><path class="x2grid crisp" transform="translate(139.26999999999998,0)" d="M0,260.80000000000007v206.39999999999995" style="stroke: rgb(255, 255, 255); stroke-opacity: 1; stroke-width: 1px;"/><path class="x2grid crisp" transform="translate(225.53,0)" d="M0,260.80000000000007v206.39999999999995" style="stroke: rgb(255, 255, 255); stroke-opacity: 1; stroke-width: 1px;"/><path class="x2grid crisp" transform="translate(311.8,0)" d="M0,260.80000000000007v206.39999999999995" style="stroke: rgb(255, 255, 255); stroke-opacity: 1; stroke-width: 1px;"/><path class="x2grid crisp" transform="translate(398.07,0)" d="M0,260.80000000000007v206.39999999999995" style="stroke: rgb(255, 255, 255); stroke-opacity: 1; stroke-width: 1px;"/><path class="x2grid crisp" transform="translate(484.33,0)" d="M0,260.80000000000007v206.39999999999995" style="stroke: rgb(255, 255, 255); stroke-opacity: 1; stroke-width: 1px;"/><path class="x2grid crisp" transform="translate(570.6,0)" d="M0,260.80000000000007v206.39999999999995" style="stroke: rgb(255, 255, 255); stroke-opacity: 1; stroke-width: 1px;"/><path class="x2grid crisp" transform="translate(656.87,0)" d="M0,260.80000000000007v206.39999999999995" style="stroke: rgb(255, 255, 255); stroke-opacity: 1; stroke-width: 1px;"/></g><g class="y2"><path class="y2grid crisp" transform="translate(0,430.56000000000006)" d="M53,0h647" style="stroke: rgb(255, 255, 255); stroke-opacity: 1; stroke-width: 1px;"/><path class="y2grid crisp" transform="translate(0,393.4100000000001)" d="M53,0h647" style="stroke: rgb(255, 255, 255); stroke-opacity: 1; stroke-width: 1px;"/><path class="y2grid crisp" transform="translate(0,319.11000000000007)" d="M53,0h647" style="stroke: rgb(255, 255, 255); stroke-opacity: 1; stroke-width: 1px;"/><path class="y2grid crisp" transform="translate(0,281.9600000000001)" d="M53,0h647" style="stroke: rgb(255, 255, 255); stroke-opacity: 1; stroke-width: 1px;"/></g></g><g class="zerolinelayer"><path class="x2zl zl crisp" transform="translate(53,0)" d="M0,260.80000000000007v206.39999999999995" style="stroke: rgb(255, 255, 255); stroke-opacity: 1; stroke-width: 2px;"/><path class="y2zl zl crisp" transform="translate(0,356.26000000000005)" d="M53,0h647" style="stroke: rgb(255, 255, 255); stroke-opacity: 1; stroke-width: 2px;"/></g><path class="xlines-below"/><path class="ylines-below"/><g class="overlines-below"/><g class="xaxislayer-below"/><g class="yaxislayer-below"/><g class="overaxes-below"/><g class="plot" transform="translate(53,260.80000000000007)" clip-path="url(#clip53b57ax2y2plot)"><g class="scatterlayer mlayer"><g class="trace scatter trace7219a9" style="stroke-miterlimit: 2;"><g class="fills"><g><path class="js-fill" d="M647,95.46L0,95.46L0,95.46L0,10.32L3.25,11.72L431.33,196.08L431.33,49.02L458.43,59.96L461.68,61.17L490.94,71.14L494.19,72.15L523.45,80.22L526.7,81.01L555.96,87.19L559.22,87.77L585.23,91.65L588.48,92.04L614.49,94.4L617.74,94.61L647,95.46L647,95.46" style="fill: rgb(0, 255, 255); fill-opacity: 0.5; stroke-width: 0;"/></g></g><g class="errorbars"/><g class="lines"><path class="js-line" d="M0,95.46L0,10.32L3.25,11.72L431.33,196.08L431.33,49.02L458.43,59.96L461.68,61.17L490.94,71.14L494.19,72.15L523.45,80.22L526.7,81.01L555.96,87.19L559.22,87.77L585.23,91.65L588.48,92.04L614.49,94.4L617.74,94.61L647,95.46L647,95.46" style="vector-effect: none; fill: none; stroke: rgb(0, 255, 255); stroke-opacity: 1; stroke-width: 1px; opacity: 1;"/></g><g class="points"/><g class="text"/></g></g></g><g class="overplot"/><path class="xlines-above crisp" d="M0,0" style="fill: none;"/><path class="ylines-above crisp" d="M0,0" style="fill: none;"/><g class="overlines-above"/><g class="xaxislayer-above"/><g class="yaxislayer-above"><g class="y2tick"><text text-anchor="end" x="52" y="4.199999999999999" transform="translate(0,430.56000000000006)" style="font-family: 'Open Sans', verdana, arial, sans-serif; font-size: 12px; fill: rgb(42, 63, 95); fill-opacity: 1; white-space: pre; opacity: 1;">−400</text></g><g class="y2tick"><text text-anchor="end" x="52" y="4.199999999999999" style="font-family: 'Open Sans', verdana, arial, sans-serif; font-size: 12px; fill: rgb(42, 63, 95); fill-opacity: 1; white-space: pre; opacity: 1;" transform="translate(0,393.4100000000001)">−200</text></g><g class="y2tick"><text text-anchor="end" x="52" y="4.199999999999999" style="font-family: 'Open Sans', verdana, arial, sans-serif; font-size: 12px; fill: rgb(42, 63, 95); fill-opacity: 1; white-space: pre; opacity: 1;" transform="translate(0,356.26000000000005)">0</text></g><g class="y2tick"><text text-anchor="end" x="52" y="4.199999999999999" style="font-family: 'Open Sans', verdana, arial, sans-serif; font-size: 12px; fill: rgb(42, 63, 95); fill-opacity: 1; white-space: pre; opacity: 1;" transform="translate(0,319.11000000000007)">200</text></g><g class="y2tick"><text text-anchor="end" x="52" y="4.199999999999999" style="font-family: 'Open Sans', verdana, arial, sans-serif; font-size: 12px; fill: rgb(42, 63, 95); fill-opacity: 1; white-space: pre; opacity: 1;" transform="translate(0,281.9600000000001)">400</text></g></g><g class="overaxes-above"/></g><g class="subplot x3y3"><g class="layer-subplot"><g class="shapelayer"/><g class="imagelayer"/></g><g class="minor-gridlayer"><g class="x3"/><g class="y3"/></g><g class="gridlayer"><g class="x3"><path class="x3grid crisp" transform="translate(139.26999999999998,0)" d="M0,501.59999999999997v206.4" style="stroke: rgb(255, 255, 255); stroke-opacity: 1; stroke-width: 1px;"/><path class="x3grid crisp" transform="translate(225.53,0)" d="M0,501.59999999999997v206.4" style="stroke: rgb(255, 255, 255); stroke-opacity: 1; stroke-width: 1px;"/><path class="x3grid crisp" transform="translate(311.8,0)" d="M0,501.59999999999997v206.4" style="stroke: rgb(255, 255, 255); stroke-opacity: 1; stroke-width: 1px;"/><path class="x3grid crisp" transform="translate(398.07,0)" d="M0,501.59999999999997v206.4" style="stroke: rgb(255, 255, 255); stroke-opacity: 1; stroke-width: 1px;"/><path class="x3grid crisp" transform="translate(484.33,0)" d="M0,501.59999999999997v206.4" style="stroke: rgb(255, 255, 255); stroke-opacity: 1; stroke-width: 1px;"/><path class="x3grid crisp" transform="translate(570.6,0)" d="M0,501.59999999999997v206.4" style="stroke: rgb(255, 255, 255); stroke-opacity: 1; stroke-width: 1px;"/><path class="x3grid crisp" transform="translate(656.87,0)" d="M0,501.59999999999997v206.4" style="stroke: rgb(255, 255, 255); stroke-opacity: 1; stroke-width: 1px;"/></g><g class="y3"><path class="y3grid crisp" transform="translate(0,581.61)" d="M53,0h647" style="stroke: rgb(255, 255, 255); stroke-opacity: 1; stroke-width: 1px;"/><path class="y3grid crisp" transform="translate(0,518.29)" d="M53,0h647" style="stroke: rgb(255, 255, 255); stroke-opacity: 1; stroke-width: 1px;"/></g></g><g class="zerolinelayer"><path class="x3zl zl crisp" transform="translate(53,0)" d="M0,501.59999999999997v206.4" style="stroke: rgb(255, 255, 255); stroke-opacity: 1; stroke-width: 2px;"/><path class="y3zl zl crisp" transform="translate(0,644.92)" d="M53,0h647" style="stroke: rgb(255, 255, 255); stroke-opacity: 1; stroke-width: 2px;"/></g><path class="xlines-below"/><path class="ylines-below"/><g class="overlines-below"/><g class="xaxislayer-below"/><g class="yaxislayer-below"/><g class="overaxes-below"/><g class="plot" transform="translate(53,501.59999999999997)" clip-path="url(#clip53b57ax3y3plot)"><g class="scatterlayer mlayer"><g class="trace scatter traceea6521" style="stroke-miterlimit: 2;"><g class="fills"><g><path class="js-fill" d="M647,143.32L0,143.32L0,143.32L19.51,118.37L22.76,114.46L42.27,92.53L45.52,89.13L61.77,73.19L65.03,70.22L81.28,56.44L84.53,53.9L100.79,42.28L104.04,40.17L120.3,30.7L123.55,29.03L139.8,21.72L143.06,20.48L159.31,15.33L162.56,14.52L178.82,11.53L182.07,11.15L198.33,10.32L201.58,10.37L217.83,11.7L221.09,12.18L237.34,15.67L240.59,16.58L256.85,22.23L260.1,23.57L276.36,31.38L279.61,33.15L295.86,43.11L299.12,45.32L315.37,57.44L318.62,60.08L334.88,74.36L338.13,77.43L357.64,97.37L360.89,100.95L380.4,123.91L383.65,127.99L403.16,153.98L406.41,158.56L425.91,187.56L429.17,192.65L431.33,196.08L431.33,196.08L432.42,195.29L448.67,184.35L451.92,182.36L468.18,173.39L471.43,171.78L487.69,164.59L490.94,163.31L510.45,156.71L513.7,155.78L533.21,151.07L536.46,150.42L559.22,146.88L562.47,146.5L588.48,144.37L591.73,144.21L624.24,143.38L627.49,143.36L647,143.32L647,143.32" style="fill: rgb(144, 238, 144); fill-opacity: 0.5; stroke-width: 0;"/></g></g><g class="errorbars"/><g class="lines"><path class="js-line" d="M0,143.32L19.51,118.37L22.76,114.46L42.27,92.53L45.52,89.13L61.77,73.19L65.03,70.22L81.28,56.44L84.53,53.9L100.79,42.28L104.04,40.17L120.3,30.7L123.55,29.03L139.8,21.72L143.06,20.48L159.31,15.33L162.56,14.52L178.82,11.53L182.07,11.15L198.33,10.32L201.58,10.37L217.83,11.7L221.09,12.18L237.34,15.67L240.59,16.58L256.85,22.23L260.1,23.57L276.36,31.38L279.61,33.15L295.86,43.11L299.12,45.32L315.37,57.44L318.62,60.08L334.88,74.36L338.13,77.43L357.64,97.37L360.89,100.95L380.4,123.91L383.65,127.99L403.16,153.98L406.41,158.56L425.91,187.56L429.17,192.65L431.33,196.08L431.33,196.08L432.42,195.29L448.67,184.35L451.92,182.36L468.18,173.39L471.43,171.78L487.69,164.59L490.94,163.31L510.45,156.71L513.7,155.78L533.21,151.07L536.46,150.42L559.22,146.88L562.47,146.5L588.48,144.37L591.73,144.21L624.24,143.38L627.49,143.36L647,143.32L647,143.32" style="vector-effect: none; fill: none; stroke: rgb(144, 238, 144); stroke-opacity: 1; stroke-width: 1px; opacity: 1;"/></g><g class="points"/><g class="text"/></g></g></g><g class="overplot"/><path class="xlines-above crisp" d="M0,0" style="fill: none;"/><path class="ylines-above crisp" d="M0,0" style="fill: none;"/><g class="overlines-above"/><g class="xaxislayer-above"><g class="x3tick"><text text-anchor="middle" x="0" y="721" transform="translate(53,0)" style="font-family: 'Open Sans', verdana, arial, sans-serif; font-size: 12px; fill: rgb(42, 63, 95); fill-opacity: 1; white-space: pre; opacity: 1;">0</text></g><g class="x3tick"><text text-anchor="middle" x="0" y="721" style="font-family: 'Open Sans', verdana, arial, sans-serif; font-size: 12px; fill: rgb(42, 63, 95); fill-opacity: 1; white-space: pre; opacity: 1;" transform="translate(139.26999999999998,0)">0.2</text></g><g class="x3tick"><text text-anchor="middle" x="0" y="721" style="font-family: 'Open Sans', verdana, arial, sans-serif; font-size: 12px; fill: rgb(42, 63, 95); fill-opacity: 1; white-space: pre; opacity: 1;" transform="translate(225.53,0)">0.4</text></g><g class="x3tick"><text text-anchor="middle" x="0" y="721" style="font-family: 'Open Sans', verdana, arial, sans-serif; font-size: 12px; fill: rgb(42, 63, 95); fill-opacity: 1; white-space: pre; opacity: 1;" transform="translate(311.8,0)">0.6</text></g><g class="x3tick"><text text-anchor="middle" x="0" y="721" style="font-family: 'Open Sans', verdana, arial, sans-serif; font-size: 12px; fill: rgb(42, 63, 95); fill-opacity: 1; white-space: pre; opacity: 1;" transform="translate(398.07,0)">0.8</text></g><g class="x3tick"><text text-anchor="middle" x="0" y="721" style="font-family: 'Open Sans', verdana, arial, sans-serif; font-size: 12px; fill: rgb(42, 63, 95); fill-opacity: 1; white-space: pre; opacity: 1;" transform="translate(484.33,0)">1</text></g><g class="x3tick"><text text-anchor="middle" x="0" y="721" style="font-family: 'Open Sans', verdana, arial, sans-serif; font-size: 12px; fill: rgb(42, 63, 95); fill-opacity: 1; white-space: pre; opacity: 1;" transform="translate(570.6,0)">1.2</text></g><g class="x3tick"><text text-anchor="middle" x="0" y="721" style="font-family: 'Open Sans', verdana, arial, sans-serif; font-size: 12px; fill: rgb(42, 63, 95); fill-opacity: 1; white-space: pre; opacity: 1;" transform="translate(656.87,0)">1.4</text></g></g><g class="yaxislayer-above"><g class="y3tick"><text text-anchor="end" x="52" y="4.199999999999999" transform="translate(0,644.92)" style="font-family: 'Open Sans', verdana, arial, sans-serif; font-size: 12px; fill: rgb(42, 63, 95); fill-opacity: 1; white-space: pre; opacity: 1;">0</text></g><g class="y3tick"><text text-anchor="end" x="52" y="4.199999999999999" style="font-family: 'Open Sans', verdana, arial, sans-serif; font-size: 12px; fill: rgb(42, 63, 95); fill-opacity: 1; white-space: pre; opacity: 1;" transform="translate(0,581.61)">50</text></g><g class="y3tick"><text text-anchor="end" x="52" y="4.199999999999999" style="font-family: 'Open Sans', verdana, arial, sans-serif; font-size: 12px; fill: rgb(42, 63, 95); fill-opacity: 1; white-space: pre; opacity: 1;" transform="translate(0,518.29)">100</text></g></g><g class="overaxes-above"/></g></g><g class="polarlayer"/><g class="smithlayer"/><g class="ternarylayer"/><g class="geolayer"/><g class="funnelarealayer"/><g class="pielayer"/><g class="iciclelayer"/><g class="treemaplayer"/><g class="sunburstlayer"/><g class="glimages"/><defs id="topdefs-53b57a"><g class="clips"/></defs><g class="layer-above"><g class="imagelayer"/><g class="shapelayer"/></g><g class="infolayer"><g class="g-gtitle"/><g class="g-xtitle"/><g class="g-x2title"/><g class="g-x3title" transform="translate(0,-3.2999999999999545)"><text class="x3title" x="376.5" y="749.3" text-anchor="middle" style="font-family: 'Open Sans', verdana, arial, sans-serif; font-size: 14px; fill: rgb(42, 63, 95); opacity: 1; font-weight: normal; white-space: pre;">Beam Length [m]</text></g><g class="g-ytitle" transform="translate(11.09375,0)"><text class="ytitle" transform="rotate(-90,3.918750000000003,123.20000000000002)" x="3.918750000000003" y="123.20000000000002" text-anchor="middle" style="font-family: 'Open Sans', verdana, arial, sans-serif; font-size: 14px; fill: rgb(42, 63, 95); opacity: 1; font-weight: normal; white-space: pre;">Normal Force (N)</text></g><g class="g-y2title" transform="translate(14.7529296875,0)"><text class="y2title" transform="rotate(-90,0.24687500000000284,364.00000000000006)" x="0.24687500000000284" y="364.00000000000006" text-anchor="middle" style="font-family: 'Open Sans', verdana, arial, sans-serif; font-size: 14px; fill: rgb(42, 63, 95); opacity: 1; font-weight: normal; white-space: pre;">Shear Force (N)</text></g><g class="g-y3title" transform="translate(7.896484375,0)"><text class="y3title" transform="rotate(-90,7.106250000000003,604.8)" x="7.106250000000003" y="604.8" text-anchor="middle" style="font-family: 'Open Sans', verdana, arial, sans-serif; font-size: 14px; fill: rgb(42, 63, 95); opacity: 1; font-weight: normal; white-space: pre;">Bending Moment (N.m)</text></g><g class="annotation" data-index="0" style="opacity: 1;"><g class="annotation-text-g" transform="rotate(0,376.5,6.999999999999995)"><g class="cursor-pointer" transform="translate(290,-6)"><rect class="bg" x="0.5" y="0.5" width="172" height="25" style="stroke-width: 1px; stroke: rgb(0, 0, 0); stroke-opacity: 0; fill: rgb(0, 0, 0); fill-opacity: 0;"/><text class="annotation-text" text-anchor="middle" x="86.578125" y="19" style="font-family: 'Open Sans', verdana, arial, sans-serif; font-size: 16px; fill: rgb(42, 63, 95); fill-opacity: 1; white-space: pre;">Normal Force Diagram</text></g></g></g><g class="annotation" data-index="1" style="opacity: 1;"><g class="annotation-text-g" transform="rotate(0,376.5,247.80000000000007)"><g class="cursor-pointer" transform="translate(297,235)"><rect class="bg" x="0.5" y="0.5" width="159" height="25" style="stroke-width: 1px; stroke: rgb(0, 0, 0); stroke-opacity: 0; fill: rgb(0, 0, 0); fill-opacity: 0;"/><text class="annotation-text" text-anchor="middle" x="80.03125" y="19" style="font-family: 'Open Sans', verdana, arial, sans-serif; font-size: 16px; fill: rgb(42, 63, 95); fill-opacity: 1; white-space: pre;">Shear Force Diagram</text></g></g></g><g class="annotation" data-index="2" style="opacity: 1;"><g class="annotation-text-g" transform="rotate(0,376.5,488.59999999999997)"><g class="cursor-pointer" transform="translate(276,476)"><rect class="bg" x="0.5" y="0.5" width="200" height="25" style="stroke-width: 1px; stroke: rgb(0, 0, 0); stroke-opacity: 0; fill: rgb(0, 0, 0); fill-opacity: 0;"/><text class="annotation-text" text-anchor="middle" x="100.53125" y="19" style="font-family: 'Open Sans', verdana, arial, sans-serif; font-size: 16px; fill: rgb(42, 63, 95); fill-opacity: 1; white-space: pre;">Bending Moment Diagram</text></g></g></g></g></svg>