<svg class="main-svg" xmlns="http://www.w3.org/2000/svg" xmlns:xlink="http://www.w3.org/1999/xlink" width="700" height="500" style="" viewBox="0 0 700 500"><rect x="0" y="0" width="700" height="500" style="fill: rgb(0, 0, 0); fill-opacity: 0;"/><defs id="defs-d06d24"><g class="clips"><clipPath id="clipd06d24xyplot" class="plotclip"><rect width="654" height="451"/></clipPath><clipPath class="axesclip" id="clipd06d24x"><rect x="46" y="0" width="654" height="500"/></clipPath><clipPath class="axesclip" id="clipd06d24y"><rect x="0" y="0" width="700" height="451"/></clipPath><clipPath class="axesclip" id="clipd06d24xy"><rect x="46" y="0" width="654" height="451"/></clipPath></g><g class="gradients"/><g class="patterns"/></defs><g class="bglayer"><rect class="bg" x="46" y="0" width="654" height="451" style="fill: rgb(229, 236, 246); fill-opacity: 1; stroke-width: 0;"/></g><g class="layer-below"><g class="imagelayer"/><g class="shapelayer"/></g><g class="cartesianlayer"><g class="subplot xy"><g class="layer-subplot"><g class="shapelayer"/><g class="imagelayer"/></g><g class="minor-gridlayer"><g class="x"/><g class="y"/></g><g class="gridlayer"><g class="x"><path class="xgrid crisp" transform="translate(83.7,0)" d="M0,0v451" style="stroke: rgb(255, 255, 255); stroke-opacity: 1; stroke-width: 1px;"/><path class="xgrid crisp" transform="translate(125.03,0)" d="M0,0v451" style="stroke: rgb(255, 255, 255); stroke-opacity: 1; stroke-width: 1px;"/><path class="xgrid crisp" transform="translate(166.36,0)" d="M0,0v451" style="stroke: rgb(255, 255, 255); stroke-opacity: 1; stroke-width: 1px;"/><path class="xgrid crisp" transform="translate(207.69,0)" d="M0,0v451" style="stroke: rgb(255, 255, 255); stroke-opacity: 1; stroke-width: 1px;"/><path class="xgrid crisp" transform="translate(249.01,0)" d="M0,0v451" style="stroke: rgb(255, 255, 255); stroke-opacity: 1; stroke-width: 1px;"/><path class="xgrid crisp" transform="translate(290.34000000000003,0)" d="M0,0v451" style="stroke: rgb(255, 255, 255); stroke-opacity: 1; stroke-width: 1px;"/><path class="xgrid crisp" transform="translate(331.67,0)" d="M0,0v451" style="stroke: rgb(255, 255, 255); stroke-opacity: 1; stroke-width: 1px;"/><path class="xgrid crisp" transform="translate(373,0)" d="M0,0v451" style="stroke: rgb(255, 255, 255); stroke-opacity: 1; stroke-width: 1px;"/><path class="xgrid crisp" transform="translate(414.33,0)" d="M0,0v451" style="stroke: rgb(255, 255, 255); stroke-opacity: 1; stroke-width: 1px;"/><path class="xgrid crisp" transform="translate(455.66,0)" d="M0,0v451" style="stroke: rgb(255, 255, 255); stroke-opacity: 1; stroke-width: 1px;"/><path class="xgrid crisp" transform="translate(496.99,0)" d="M0,0v451" style="stroke: rgb(255, 255, 255); stroke-opacity: 1; stroke-width: 1px;"/><path class="xgrid crisp" transform="translate(538.31,0)" d="M0,0v451" style="stroke: rgb(255, 255, 255); stroke-opacity: 1; stroke-width: 1px;"/><path class="xgrid crisp" transform="translate(579.64,0)" d="M0,0v451" style="stroke: rgb(255, 255, 255); stroke-opacity: 1; stroke-width: 1px;"/><path class="xgrid crisp" transform="translate(620.97,0)" d="M0,0v451" style="stroke: rgb(255, 255, 255); stroke-opacity: 1; stroke-width: 1px;"/><path class="xgrid crisp" transform="translate(662.3,0)" d="M0,0v451" style="stroke: rgb(255, 255, 255); stroke-opacity: 1; stroke-width: 1px;"/></g><g class="y"><path class="ygrid crisp" transform="translate(0,421.72)" d="M46,0h654" style="stroke: rgb(255, 255, 255); stroke-opacity: 1; stroke-width: 1px;"/><path class="ygrid crisp" transform="translate(0,364.14)" d="M46,0h654" style="stroke: rgb(255, 255, 255); stroke-opacity: 1; stroke-width: 1px;"/><path class="ygrid crisp" transform="translate(0,306.55)" d="M46,0h654" style="stroke: rgb(255, 255, 255); stroke-opacity: 1; stroke-width: 1px;"/><path class="ygrid crisp" transform="translate(0,248.97)" d="M46,0h654" style="stroke: rgb(255, 255, 255); stroke-opacity: 1; stroke-width: 1px;"/><path class="ygrid crisp" transform="translate(0,191.38)" d="M46,0h654" style="stroke: rgb(255, 255, 255); stroke-opacity: 1; stroke-width: 1px;"/><path class="ygrid crisp" transform="translate(0,133.8)" d="M46,0h654" style="stroke: rgb(255, 255, 255); stroke-opacity: 1; stroke-width: 1px;"/><path class="ygrid crisp" transform="translate(0,76.21)" d="M46,0h654" style="stroke: rgb(255, 255, 255); stroke-opacity: 1; stroke-width: 1px;"/><path class="ygrid crisp" transform="translate(0,18.62)" d="M46,0h654" style="stroke: rgb(255, 255, 255); stroke-opacity: 1; stroke-width: 1px;"/></g></g><g class="zerolinelayer"/><path class="xlines-below"/><path class="ylines-below"/><g class="overlines-below"/><g class="xaxislayer-below"/><g class="yaxislayer-below"/><g class="overaxes-below"/><g class="plot" transform="translate(46,0)" clip-path="url(#clipd06d24xyplot)"><g class="scatterlayer mlayer"><g class="trace scatter traceeaca94" style="stroke-miterlimit: 2; opacity: 1;"><g class="fills"/><g class="errorbars"/><g class="lines"><path class="js-line" d="M37.7,423.45L79.03,373.64L120.36,329.87L161.69,290.43L203.01,255.3L244.34,223.34L285.67,194.26L327,167.77L368.33,143.3L409.66,120.55L450.99,99.53L492.31,79.95L533.64,61.24L574.97,43.96L616.3,27.55" style="vector-effect: none; fill: none; stroke: rgb(0, 128, 0); stroke-opacity: 1; stroke-width: 2px; opacity: 1;"/></g><g class="points"><path class="point" transform="translate(37.7,423.45)" d="M4,0A4,4 0 1,1 0,-4A4,4 0 0,1 4,0Z" style="opacity: 1; stroke-width: 0px; fill: rgb(0, 128, 0); fill-opacity: 1;"/><path class="point" transform="translate(79.03,373.64)" d="M4,0A4,4 0 1,1 0,-4A4,4 0 0,1 4,0Z" style="opacity: 1; stroke-width: 0px; fill: rgb(0, 128, 0); fill-opacity: 1;"/><path class="point" transform="translate(120.36,329.87)" d="M4,0A4,4 0 1,1 0,-4A4,4 0 0,1 4,0Z" style="opacity: 1; stroke-width: 0px; fill: rgb(0, 128, 0); fill-opacity: 1;"/><path class="point" transform="translate(161.69,290.43)" d="M4,0A4,4 0 1,1 0,-4A4,4 0 0,1 4,0Z" style="opacity: 1; stroke-width: 0px; fill: rgb(0, 128, 0); fill-opacity: 1;"/><path class="point" transform="translate(203.01,255.3)" d="M4,0A4,4 0 1,1 0,-4A4,4 0 0,1 4,0Z" style="opacity: 1; stroke-width: 0px; fill: rgb(0, 128, 0); fill-opacity: 1;"/><path class="point" transform="translate(244.34,223.34)" d="M4,0A4,4 0 1,1 0,-4A4,4 0 0,1 4,0Z" style="opacity: 1; stroke-width: 0px; fill: rgb(0, 128, 0); fill-opacity: 1;"/><path class="point" transform="translate(285.67,194.26)" d="M4,0A4,4 0 1,1 0,-4A4,4 0 0,1 4,0Z" style="opacity: 1; stroke-width: 0px; fill: rgb(0, 128, 0); fill-opacity: 1;"/><path class="point" transform="translate(327,167.77)" d="M4,0A4,4 0 1,1 0,-4A4,4 0 0,1 4,0Z" style="opacity: 1; stroke-width: 0px; fill: rgb(0, 128, 0); fill-opacity: 1;"/><path class="point" transform="translate(368.33,143.3)" d="M4,0A4,4 0 1,1 0,-4A4,4 0 0,1 4,0Z" style="opacity: 1; stroke-width: 0px; fill: rgb(0, 128, 0); fill-opacity: 1;"/><path class="point" transform="translate(409.66,120.55)" d="M4,0A4,4 0 1,1 0,-4A4,4 0 0,1 4,0Z" style="opacity: 1; stroke-width: 0px; fill: rgb(0, 128, 0); fill-opacity: 1;"/><path class="point" transform="translate(450.99,99.53)" d="M4,0A4,4 0 1,1 0,-4A4,4 0 0,1 4,0Z" style="opacity: 1; stroke-width: 0px; fill: rgb(0, 128, 0); fill-opacity: 1;"/><path class="point" transform="translate(492.31,79.95)" d="M4,0A4,4 0 1,1 0,-4A4,4 0 0,1 4,0Z" style="opacity: 1; stroke-width: 0px; fill: rgb(0, 128, 0); fill-opacity: 1;"/><path class="point" transform="translate(533.64,61.24)" d="M4,0A4,4 0 1,1 0,-4A4,4 0 0,1 4,0Z" style="opacity: 1; stroke-width: 0px; fill: rgb(0, 128, 0); fill-opacity: 1;"/><path class="point" transform="translate(574.97,43.96)" d="M4,0A4,4 0 1,1 0,-4A4,4 0 0,1 4,0Z" style="opacity: 1; stroke-width: 0px; fill: rgb(0, 128, 0); fill-opacity: 1;"/><path class="point" transform="translate(616.3,27.55)" d="M4,0A4,4 0 1,1 0,-4A4,4 0 0,1 4,0Z" style="opacity: 1; stroke-width: 0px; fill: rgb(0, 128, 0); fill-opacity: 1;"/></g><g class="text"><g class="textpoint" transform="translate(0,-9.25)"><text x="37.7" y="423.45" text-anchor="middle" style="font-family: 'New Computer Modern'; font-size: 13px; fill: rgb(42, 63, 95); fill-opacity: 1; white-space: pre;">1.94</text></g><g class="textpoint" transform="translate(0,-9.25)"><text x="79.03" y="373.64" text-anchor="middle" style="font-family: 'New Computer Modern'; font-size: 13px; fill: rgb(42, 63, 95); fill-opacity: 1; white-space: pre;">3.67</text></g><g class="textpoint" transform="translate(0,-9.25)"><text x="120.36" y="329.87" text-anchor="middle" style="font-family: 'New Computer Modern'; font-size: 13px; fill: rgb(42, 63, 95); fill-opacity: 1; white-space: pre;">5.19</text></g><g class="textpoint" transform="translate(0,-9.25)"><text x="161.69" y="290.43" text-anchor="middle" style="font-family: 'New Computer Modern'; font-size: 13px; fill: rgb(42, 63, 95); fill-opacity: 1; white-space: pre;">6.56</text></g><g class="textpoint" transform="translate(0,-9.25)"><text x="203.01" y="255.3" text-anchor="middle" style="font-family: 'New Computer Modern'; font-size: 13px; fill: rgb(42, 63, 95); fill-opacity: 1; white-space: pre;">7.78</text></g><g class="textpoint" transform="translate(0,-9.25)"><text x="244.34" y="223.34" text-anchor="middle" style="font-family: 'New Computer Modern'; font-size: 13px; fill: rgb(42, 63, 95); fill-opacity: 1; white-space: pre;">8.89</text></g><g class="textpoint" transform="translate(0,-9.25)"><text x="285.67" y="194.26" text-anchor="middle" style="font-family: 'New Computer Modern'; font-size: 13px; fill: rgb(42, 63, 95); fill-opacity: 1; white-space: pre;">9.90</text></g><g class="textpoint" transform="translate(0,-9.25)"><text x="327" y="167.77" text-anchor="middle" style="font-family: 'New Computer Modern'; font-size: 13px; fill: rgb(42, 63, 95); fill-opacity: 1; white-space: pre;">10.82</text></g><g class="textpoint" transform="translate(0,-9.25)"><text x="368.33" y="143.3" text-anchor="middle" style="font-family: 'New Computer Modern'; font-size: 13px; fill: rgb(42, 63, 95); fill-opacity: 1; white-space: pre;">11.67</text></g><g class="textpoint" transform="translate(0,-9.25)"><text x="409.66" y="120.55" text-anchor="middle" style="font-family: 'New Computer Modern'; font-size: 13px; fill: rgb(42, 63, 95); fill-opacity: 1; white-space: pre;">12.46</text></g><g class="textpoint" transform="translate(0,-9.25)"><text x="450.99" y="99.53" text-anchor="middle" style="font-family: 'New Computer Modern'; font-size: 13px; fill: rgb(42, 63, 95); fill-opacity: 1; white-space: pre;">13.19</text></g><g class="textpoint" transform="translate(0,-9.25)"><text x="492.31" y="79.95" text-anchor="middle" style="font-family: 'New Computer Modern'; font-size: 13px; fill: rgb(42, 63, 95); fill-opacity: 1; white-space: pre;">13.87</text></g><g class="textpoint" transform="translate(0,-9.25)"><text x="533.64" y="61.24" text-anchor="middle" style="font-family: 'New Computer Modern'; font-size: 13px; fill: rgb(42, 63, 95); fill-opacity: 1; white-space: pre;">14.52</text></g><g class="textpoint" transform="translate(0,-9.25)"><text x="574.97" y="43.96" text-anchor="middle" style="font-family: 'New Computer Modern'; font-size: 13px; fill: rgb(42, 63, 95); fill-opacity: 1; white-space: pre;">15.12</text></g><g class="textpoint" transform="translate(0,-9.25)"><text x="616.3" y="27.55" text-anchor="middle" style="font-family: 'New Computer Modern'; font-size: 13px; fill: rgb(42, 63, 95); fill-opacity: 1; white-space: pre;">15.69</text></g></g></g></g></g><g class="overplot"/><path class="xlines-above crisp" d="M44,452H700" style="fill: none; stroke-width: 2px; stroke: rgb(255, 255, 255); stroke-opacity: 1;"/><path class="ylines-above crisp" d="M45,0V451" style="fill: none; stroke-width: 2px; stroke: rgb(255, 255, 255); stroke-opacity: 1;"/><g class="overlines-above"/><g class="xaxislayer-above"><g class="xtick"><text text-anchor="middle" x="0" y="471" transform="translate(83.7,0)" style="font-family: 'New Computer Modern'; font-size: 15px; fill: rgb(42, 63, 95); fill-opacity: 1; white-space: pre; opacity: 1;">100</text></g><g class="xtick"><text text-anchor="middle" x="0" y="471" style="font-family: 'New Computer Modern'; font-size: 15px; fill: rgb(42, 63, 95); fill-opacity: 1; white-space: pre; opacity: 1;" transform="translate(125.03,0)">200</text></g><g class="xtick"><text text-anchor="middle" x="0" y="471" style="font-family: 'New Computer Modern'; font-size: 15px; fill: rgb(42, 63, 95); fill-opacity: 1; white-space: pre; opacity: 1;" transform="translate(166.36,0)">300</text></g><g class="xtick"><text text-anchor="middle" x="0" y="471" style="font-family: 'New Computer Modern'; font-size: 15px; fill: rgb(42, 63, 95); fill-opacity: 1; white-space: pre; opacity: 1;" transform="translate(207.69,0)">400</text></g><g class="xtick"><text text-anchor="middle" x="0" y="471" style="font-family: 'New Computer Modern'; font-size: 15px; fill: rgb(42, 63, 95); fill-opacity: 1; white-space: pre; opacity: 1;" transform="translate(249.01,0)">500</text></g><g class="xtick"><text text-anchor="middle" x="0" y="471" style="font-family: 'New Computer Modern'; font-size: 15px; fill: rgb(42, 63, 95); fill-opacity: 1; white-space: pre; opacity: 1;" transform="translate(290.34000000000003,0)">600</text></g><g class="xtick"><text text-anchor="middle" x="0" y="471" style="font-family: 'New Computer Modern'; font-size: 15px; fill: rgb(42, 63, 95); fill-opacity: 1; white-space: pre; opacity: 1;" transform="translate(331.67,0)">700</text></g><g class="xtick"><text text-anchor="middle" x="0" y="471" style="font-family: 'New Computer Modern'; font-size: 15px; fill: rgb(42, 63, 95); fill-opacity: 1; white-space: pre; opacity: 1;" transform="translate(373,0)">800</text></g><g class="xtick"><text text-anchor="middle" x="0" y="471" style="font-family: 'New Computer Modern'; font-size: 15px; fill: rgb(42, 63, 95); fill-opacity: 1; white-space: pre; opacity: 1;" transform="translate(414.33,0)">900</text></g><g class="xtick"><text text-anchor="middle" x="0" y="471" style="font-family: 'New Computer Modern'; font-size: 15px; fill: rgb(42, 63, 95); fill-opacity: 1; white-space: pre; opacity: 1;" transform="translate(455.66,0)">1000</text></g><g class="xtick"><text text-anchor="middle" x="0" y="471" style="font-family: 'New Computer Modern'; font-size: 15px; fill: rgb(42, 63, 95); fill-opacity: 1; white-space: pre; opacity: 1;" transform="translate(496.99,0)">1100</text></g><g class="xtick"><text text-anchor="middle" x="0" y="471" style="font-family: 'New Computer Modern'; font-size: 15px; fill: rgb(42, 63, 95); fill-opacity: 1; white-space: pre; opacity: 1;" transform="translate(538.31,0)">1200</text></g><g class="xtick"><text text-anchor="middle" x="0" y="471" style="font-family: 'New Computer Modern'; font-size: 15px; fill: rgb(42, 63, 95); fill-opacity: 1; white-space: pre; opacity: 1;" transform="translate(579.64,0)">1300</text></g><g class="xtick"><text text-anchor="middle" x="0" y="471" style="font-family: 'New Computer Modern'; font-size: 15px; fill: rgb(42, 63, 95); fill-opacity: 1; white-space: pre; opacity: 1;" transform="translate(620.97,0)">1400</text></g><g class="xtick"><text text-anchor="middle" x="0" y="471" style="font-family: 'New Computer Modern'; font-size: 15px; fill: rgb(42, 63, 95); fill-opacity: 1; white-space: pre; opacity: 1;" transform="translate(662.3,0)">1500</text></g></g><g class="yaxislayer-above"><g class="ytick"><text text-anchor="end" x="41" y="5.25" transform="translate(0,421.72)" style="font-family: 'New Computer Modern'; font-size: 15px; fill: rgb(42, 63, 95); fill-opacity: 1; white-space: pre; opacity: 1;">2</text></g><g class="ytick"><text text-anchor="end" x="41" y="5.25" style="font-family: 'New Computer Modern'; font-size: 15px; fill: rgb(42, 63, 95); fill-opacity: 1; white-space: pre; opacity: 1;" transform="translate(0,364.14)">4</text></g><g class="ytick"><text text-anchor="end" x="41" y="5.25" style="font-family: 'New Computer Modern'; font-size: 15px; fill: rgb(42, 63, 95); fill-opacity: 1; white-space: pre; opacity: 1;" transform="translate(0,306.55)">6</text></g><g class="ytick"><text text-anchor="end" x="41" y="5.25" style="font-family: 'New Computer Modern'; font-size: 15px; fill: rgb(42, 63, 95); fill-opacity: 1; white-space: pre; opacity: 1;" transform="translate(0,248.97)">8</text></g><g class="ytick"><text text-anchor="end" x="41" y="5.25" style="font-family: 'New Computer Modern'; font-size: 15px; fill: rgb(42, 63, 95); fill-opacity: 1; white-space: pre; opacity: 1;" transform="translate(0,191.38)">10</text></g><g class="ytick"><text text-anchor="end" x="41" y="5.25" style="font-family: 'New Computer Modern'; font-size: 15px; fill: rgb(42, 63, 95); fill-opacity: 1; white-space: pre; opacity: 1;" transform="translate(0,133.8)">12</text></g><g class="ytick"><text text-anchor="end" x="41" y="5.25" style="font-family: 'New Computer Modern'; font-size: 15px; fill: rgb(42, 63, 95); fill-opacity: 1; white-space: pre; opacity: 1;" transform="translate(0,76.21)">14</text></g><g class="ytick"><text text-anchor="end" x="41" y="5.25" style="font-family: 'New Computer Modern'; font-size: 15px; fill: rgb(42, 63, 95); fill-opacity: 1; white-space: pre; opacity: 1;" transform="translate(0,18.62)">16</text></g></g><g class="overaxes-above"/></g></g><g class="polarlayer"/><g class="smithlayer"/><g class="ternarylayer"/><g class="geolayer"/><g class="funnelarealayer"/><g class="pielayer"/><g class="iciclelayer"/><g class="treemaplayer"/><g class="sunburstlayer"/><g class="glimages"/><defs id="topdefs-d06d24"><g class="clips"/></defs><g class="layer-above"><g class="imagelayer"/><g class="shapelayer"/></g><g class="infolayer"><g class="g-gtitle"/><g class="g-xtitle" transform="translate(0,-1.5)"><text class="xtitle" x="373" y="498.5" text-anchor="middle" style="font-family: 'New Computer Modern'; font-size: 15px; fill: rgb(42, 63, 95); opacity: 1; font-weight: normal; white-space: pre;">Tank Pressure [bar]</text></g><g class="g-ytitle" transform="translate(11.5,0)"><text class="ytitle" transform="rotate(-90,1.5,225.5)" x="1.5" y="225.5" text-anchor="middle" style="font-family: 'New Computer Modern'; font-size: 15px; fill: rgb(42, 63, 95); opacity: 1; font-weight: normal; white-space: pre;">Hydrogen Storage Capacity [kg]</text></g></g></svg>