<svg class="main-svg" xmlns="http://www.w3.org/2000/svg" xmlns:xlink="http://www.w3.org/1999/xlink" width="700" height="500" style="" viewBox="0 0 700 500"><rect x="0" y="0" width="700" height="500" style="fill: rgb(0, 0, 0); fill-opacity: 0;"/><defs id="defs-834883"><g class="clips"><clipPath id="clip834883xyplot" class="plotclip"><rect width="647" height="451"/></clipPath><clipPath class="axesclip" id="clip834883x"><rect x="53" y="0" width="647" height="500"/></clipPath><clipPath class="axesclip" id="clip834883y"><rect x="0" y="0" width="700" height="451"/></clipPath><clipPath class="axesclip" id="clip834883xy"><rect x="53" y="0" width="647" height="451"/></clipPath></g><g class="gradients"/><g class="patterns"/></defs><g class="bglayer"><rect class="bg" x="53" y="0" width="647" height="451" style="fill: rgb(229, 236, 246); fill-opacity: 1; stroke-width: 0;"/></g><g class="layer-below"><g class="imagelayer"/><g class="shapelayer"/></g><g class="cartesianlayer"><g class="subplot xy"><g class="layer-subplot"><g class="shapelayer"/><g class="imagelayer"/></g><g class="minor-gridlayer"><g class="x"/><g class="y"/></g><g class="gridlayer"><g class="x"><path class="xgrid crisp" transform="translate(90.35,0)" d="M0,0v451" style="stroke: rgb(255, 255, 255); stroke-opacity: 1; stroke-width: 1px;"/><path class="xgrid crisp" transform="translate(131.23000000000002,0)" d="M0,0v451" style="stroke: rgb(255, 255, 255); stroke-opacity: 1; stroke-width: 1px;"/><path class="xgrid crisp" transform="translate(172.11,0)" d="M0,0v451" style="stroke: rgb(255, 255, 255); stroke-opacity: 1; stroke-width: 1px;"/><path class="xgrid crisp" transform="translate(212.99,0)" d="M0,0v451" style="stroke: rgb(255, 255, 255); stroke-opacity: 1; stroke-width: 1px;"/><path class="xgrid crisp" transform="translate(253.86,0)" d="M0,0v451" style="stroke: rgb(255, 255, 255); stroke-opacity: 1; stroke-width: 1px;"/><path class="xgrid crisp" transform="translate(294.74,0)" d="M0,0v451" style="stroke: rgb(255, 255, 255); stroke-opacity: 1; stroke-width: 1px;"/><path class="xgrid crisp" transform="translate(335.62,0)" d="M0,0v451" style="stroke: rgb(255, 255, 255); stroke-opacity: 1; stroke-width: 1px;"/><path class="xgrid crisp" transform="translate(376.5,0)" d="M0,0v451" style="stroke: rgb(255, 255, 255); stroke-opacity: 1; stroke-width: 1px;"/><path class="xgrid crisp" transform="translate(417.38,0)" d="M0,0v451" style="stroke: rgb(255, 255, 255); stroke-opacity: 1; stroke-width: 1px;"/><path class="xgrid crisp" transform="translate(458.26,0)" d="M0,0v451" style="stroke: rgb(255, 255, 255); stroke-opacity: 1; stroke-width: 1px;"/><path class="xgrid crisp" transform="translate(499.14,0)" d="M0,0v451" style="stroke: rgb(255, 255, 255); stroke-opacity: 1; stroke-width: 1px;"/><path class="xgrid crisp" transform="translate(540.01,0)" d="M0,0v451" style="stroke: rgb(255, 255, 255); stroke-opacity: 1; stroke-width: 1px;"/><path class="xgrid crisp" transform="translate(580.89,0)" d="M0,0v451" style="stroke: rgb(255, 255, 255); stroke-opacity: 1; stroke-width: 1px;"/><path class="xgrid crisp" transform="translate(621.77,0)" d="M0,0v451" style="stroke: rgb(255, 255, 255); stroke-opacity: 1; stroke-width: 1px;"/><path class="xgrid crisp" transform="translate(662.65,0)" d="M0,0v451" style="stroke: rgb(255, 255, 255); stroke-opacity: 1; stroke-width: 1px;"/></g><g class="y"><path class="ygrid crisp" transform="translate(0,392.9)" d="M53,0h647" style="stroke: rgb(255, 255, 255); stroke-opacity: 1; stroke-width: 1px;"/><path class="ygrid crisp" transform="translate(0,319.69)" d="M53,0h647" style="stroke: rgb(255, 255, 255); stroke-opacity: 1; stroke-width: 1px;"/><path class="ygrid crisp" transform="translate(0,246.48)" d="M53,0h647" style="stroke: rgb(255, 255, 255); stroke-opacity: 1; stroke-width: 1px;"/><path class="ygrid crisp" transform="translate(0,173.26)" d="M53,0h647" style="stroke: rgb(255, 255, 255); stroke-opacity: 1; stroke-width: 1px;"/><path class="ygrid crisp" transform="translate(0,100.05)" d="M53,0h647" style="stroke: rgb(255, 255, 255); stroke-opacity: 1; stroke-width: 1px;"/><path class="ygrid crisp" transform="translate(0,26.83)" d="M53,0h647" style="stroke: rgb(255, 255, 255); stroke-opacity: 1; stroke-width: 1px;"/></g></g><g class="zerolinelayer"/><path class="xlines-below"/><path class="ylines-below"/><g class="overlines-below"/><g class="xaxislayer-below"/><g class="yaxislayer-below"/><g class="overaxes-below"/><g class="plot" transform="translate(53,0)" clip-path="url(#clip834883xyplot)"><g class="scatterlayer mlayer"><g class="trace scatter trace3b0c88" style="stroke-miterlimit: 2; opacity: 1;"><g class="fills"/><g class="errorbars"/><g class="lines"><path class="js-line" d="M37.35,423.45L119.11,370.31L159.99,342.88L200.86,321.92L241.74,293.47L323.5,234.79L364.38,212.17L446.14,150.21L487.01,118.34L527.89,94.04L568.77,61.1L609.65,27.55" style="vector-effect: none; fill: none; stroke: rgb(0, 0, 255); stroke-opacity: 1; stroke-width: 2px; opacity: 1;"/></g><g class="points"><path class="point" transform="translate(37.35,423.45)" d="M4,0A4,4 0 1,1 0,-4A4,4 0 0,1 4,0Z" style="opacity: 1; stroke-width: 0px; fill: rgb(0, 0, 255); fill-opacity: 1;"/><path class="point" transform="translate(78.23,397.17)" d="M4,0A4,4 0 1,1 0,-4A4,4 0 0,1 4,0Z" style="opacity: 1; stroke-width: 0px; fill: rgb(0, 0, 255); fill-opacity: 1;"/><path class="point" transform="translate(119.11,370.31)" d="M4,0A4,4 0 1,1 0,-4A4,4 0 0,1 4,0Z" style="opacity: 1; stroke-width: 0px; fill: rgb(0, 0, 255); fill-opacity: 1;"/><path class="point" transform="translate(159.99,342.88)" d="M4,0A4,4 0 1,1 0,-4A4,4 0 0,1 4,0Z" style="opacity: 1; stroke-width: 0px; fill: rgb(0, 0, 255); fill-opacity: 1;"/><path class="point" transform="translate(200.86,321.92)" d="M4,0A4,4 0 1,1 0,-4A4,4 0 0,1 4,0Z" style="opacity: 1; stroke-width: 0px; fill: rgb(0, 0, 255); fill-opacity: 1;"/><path class="point" transform="translate(241.74,293.47)" d="M4,0A4,4 0 1,1 0,-4A4,4 0 0,1 4,0Z" style="opacity: 1; stroke-width: 0px; fill: rgb(0, 0, 255); fill-opacity: 1;"/><path class="point" transform="translate(282.62,264.43)" d="M4,0A4,4 0 1,1 0,-4A4,4 0 0,1 4,0Z" style="opacity: 1; stroke-width: 0px; fill: rgb(0, 0, 255); fill-opacity: 1;"/><path class="point" transform="translate(323.5,234.79)" d="M4,0A4,4 0 1,1 0,-4A4,4 0 0,1 4,0Z" style="opacity: 1; stroke-width: 0px; fill: rgb(0, 0, 255); fill-opacity: 1;"/><path class="point" transform="translate(364.38,212.17)" d="M4,0A4,4 0 1,1 0,-4A4,4 0 0,1 4,0Z" style="opacity: 1; stroke-width: 0px; fill: rgb(0, 0, 255); fill-opacity: 1;"/><path class="point" transform="translate(405.26,181.49)" d="M4,0A4,4 0 1,1 0,-4A4,4 0 0,1 4,0Z" style="opacity: 1; stroke-width: 0px; fill: rgb(0, 0, 255); fill-opacity: 1;"/><path class="point" transform="translate(446.14,150.21)" d="M4,0A4,4 0 1,1 0,-4A4,4 0 0,1 4,0Z" style="opacity: 1; stroke-width: 0px; fill: rgb(0, 0, 255); fill-opacity: 1;"/><path class="point" transform="translate(487.01,118.34)" d="M4,0A4,4 0 1,1 0,-4A4,4 0 0,1 4,0Z" style="opacity: 1; stroke-width: 0px; fill: rgb(0, 0, 255); fill-opacity: 1;"/><path class="point" transform="translate(527.89,94.04)" d="M4,0A4,4 0 1,1 0,-4A4,4 0 0,1 4,0Z" style="opacity: 1; stroke-width: 0px; fill: rgb(0, 0, 255); fill-opacity: 1;"/><path class="point" transform="translate(568.77,61.1)" d="M4,0A4,4 0 1,1 0,-4A4,4 0 0,1 4,0Z" style="opacity: 1; stroke-width: 0px; fill: rgb(0, 0, 255); fill-opacity: 1;"/><path class="point" transform="translate(609.65,27.55)" d="M4,0A4,4 0 1,1 0,-4A4,4 0 0,1 4,0Z" style="opacity: 1; stroke-width: 0px; fill: rgb(0, 0, 255); fill-opacity: 1;"/></g><g class="text"><g class="textpoint" transform="translate(0,-9.25)"><text x="37.35" y="423.45" text-anchor="middle" style="font-family: 'CMU Serif'; font-size: 13px; fill: rgb(42, 63, 95); fill-opacity: 1; white-space: pre;">29.14</text></g><g class="textpoint" transform="translate(0,-9.25)"><text x="78.23" y="397.17" text-anchor="middle" style="font-family: 'CMU Serif'; font-size: 13px; fill: rgb(42, 63, 95); fill-opacity: 1; white-space: pre;">47.09</text></g><g class="textpoint" transform="translate(0,-9.25)"><text x="119.11" y="370.31" text-anchor="middle" style="font-family: 'CMU Serif'; font-size: 13px; fill: rgb(42, 63, 95); fill-opacity: 1; white-space: pre;">65.43</text></g><g class="textpoint" transform="translate(0,-9.25)"><text x="159.99" y="342.88" text-anchor="middle" style="font-family: 'CMU Serif'; font-size: 13px; fill: rgb(42, 63, 95); fill-opacity: 1; white-space: pre;">84.16</text></g><g class="textpoint" transform="translate(0,-9.25)"><text x="200.86" y="321.92" text-anchor="middle" style="font-family: 'CMU Serif'; font-size: 13px; fill: rgb(42, 63, 95); fill-opacity: 1; white-space: pre;">98.48</text></g><g class="textpoint" transform="translate(0,-9.25)"><text x="241.74" y="293.47" text-anchor="middle" style="font-family: 'CMU Serif'; font-size: 13px; fill: rgb(42, 63, 95); fill-opacity: 1; white-space: pre;">117.91</text></g><g class="textpoint" transform="translate(0,-9.25)"><text x="282.62" y="264.43" text-anchor="middle" style="font-family: 'CMU Serif'; font-size: 13px; fill: rgb(42, 63, 95); fill-opacity: 1; white-space: pre;">137.74</text></g><g class="textpoint" transform="translate(0,-9.25)"><text x="323.5" y="234.79" text-anchor="middle" style="font-family: 'CMU Serif'; font-size: 13px; fill: rgb(42, 63, 95); fill-opacity: 1; white-space: pre;">157.98</text></g><g class="textpoint" transform="translate(0,-9.25)"><text x="364.38" y="212.17" text-anchor="middle" style="font-family: 'CMU Serif'; font-size: 13px; fill: rgb(42, 63, 95); fill-opacity: 1; white-space: pre;">173.43</text></g><g class="textpoint" transform="translate(0,-9.25)"><text x="405.26" y="181.49" text-anchor="middle" style="font-family: 'CMU Serif'; font-size: 13px; fill: rgb(42, 63, 95); fill-opacity: 1; white-space: pre;">194.38</text></g><g class="textpoint" transform="translate(0,-9.25)"><text x="446.14" y="150.21" text-anchor="middle" style="font-family: 'CMU Serif'; font-size: 13px; fill: rgb(42, 63, 95); fill-opacity: 1; white-space: pre;">215.74</text></g><g class="textpoint" transform="translate(0,-9.25)"><text x="487.01" y="118.34" text-anchor="middle" style="font-family: 'CMU Serif'; font-size: 13px; fill: rgb(42, 63, 95); fill-opacity: 1; white-space: pre;">237.51</text></g><g class="textpoint" transform="translate(0,-9.25)"><text x="527.89" y="94.04" text-anchor="middle" style="font-family: 'CMU Serif'; font-size: 13px; fill: rgb(42, 63, 95); fill-opacity: 1; white-space: pre;">254.10</text></g><g class="textpoint" transform="translate(0,-9.25)"><text x="568.77" y="61.1" text-anchor="middle" style="font-family: 'CMU Serif'; font-size: 13px; fill: rgb(42, 63, 95); fill-opacity: 1; white-space: pre;">276.60</text></g><g class="textpoint" transform="translate(0,-9.25)"><text x="609.65" y="27.55" text-anchor="middle" style="font-family: 'CMU Serif'; font-size: 13px; fill: rgb(42, 63, 95); fill-opacity: 1; white-space: pre;">299.51</text></g></g></g></g></g><g class="overplot"/><path class="xlines-above crisp" d="M51,452H700" style="fill: none; stroke-width: 2px; stroke: rgb(255, 255, 255); stroke-opacity: 1;"/><path class="ylines-above crisp" d="M52,0V451" style="fill: none; stroke-width: 2px; stroke: rgb(255, 255, 255); stroke-opacity: 1;"/><g class="overlines-above"/><g class="xaxislayer-above"><g class="xtick"><text text-anchor="middle" x="0" y="471" transform="translate(90.35,0)" style="font-family: 'CMU Serif'; font-size: 15px; fill: rgb(42, 63, 95); fill-opacity: 1; white-space: pre; opacity: 1;">100</text></g><g class="xtick"><text text-anchor="middle" x="0" y="471" style="font-family: 'CMU Serif'; font-size: 15px; fill: rgb(42, 63, 95); fill-opacity: 1; white-space: pre; opacity: 1;" transform="translate(131.23000000000002,0)">200</text></g><g class="xtick"><text text-anchor="middle" x="0" y="471" style="font-family: 'CMU Serif'; font-size: 15px; fill: rgb(42, 63, 95); fill-opacity: 1; white-space: pre; opacity: 1;" transform="translate(172.11,0)">300</text></g><g class="xtick"><text text-anchor="middle" x="0" y="471" style="font-family: 'CMU Serif'; font-size: 15px; fill: rgb(42, 63, 95); fill-opacity: 1; white-space: pre; opacity: 1;" transform="translate(212.99,0)">400</text></g><g class="xtick"><text text-anchor="middle" x="0" y="471" style="font-family: 'CMU Serif'; font-size: 15px; fill: rgb(42, 63, 95); fill-opacity: 1; white-space: pre; opacity: 1;" transform="translate(253.86,0)">500</text></g><g class="xtick"><text text-anchor="middle" x="0" y="471" style="font-family: 'CMU Serif'; font-size: 15px; fill: rgb(42, 63, 95); fill-opacity: 1; white-space: pre; opacity: 1;" transform="translate(294.74,0)">600</text></g><g class="xtick"><text text-anchor="middle" x="0" y="471" style="font-family: 'CMU Serif'; font-size: 15px; fill: rgb(42, 63, 95); fill-opacity: 1; white-space: pre; opacity: 1;" transform="translate(335.62,0)">700</text></g><g class="xtick"><text text-anchor="middle" x="0" y="471" style="font-family: 'CMU Serif'; font-size: 15px; fill: rgb(42, 63, 95); fill-opacity: 1; white-space: pre; opacity: 1;" transform="translate(376.5,0)">800</text></g><g class="xtick"><text text-anchor="middle" x="0" y="471" style="font-family: 'CMU Serif'; font-size: 15px; fill: rgb(42, 63, 95); fill-opacity: 1; white-space: pre; opacity: 1;" transform="translate(417.38,0)">900</text></g><g class="xtick"><text text-anchor="middle" x="0" y="471" style="font-family: 'CMU Serif'; font-size: 15px; fill: rgb(42, 63, 95); fill-opacity: 1; white-space: pre; opacity: 1;" transform="translate(458.26,0)">1000</text></g><g class="xtick"><text text-anchor="middle" x="0" y="471" style="font-family: 'CMU Serif'; font-size: 15px; fill: rgb(42, 63, 95); fill-opacity: 1; white-space: pre; opacity: 1;" transform="translate(499.14,0)">1100</text></g><g class="xtick"><text text-anchor="middle" x="0" y="471" style="font-family: 'CMU Serif'; font-size: 15px; fill: rgb(42, 63, 95); fill-opacity: 1; white-space: pre; opacity: 1;" transform="translate(540.01,0)">1200</text></g><g class="xtick"><text text-anchor="middle" x="0" y="471" style="font-family: 'CMU Serif'; font-size: 15px; fill: rgb(42, 63, 95); fill-opacity: 1; white-space: pre; opacity: 1;" transform="translate(580.89,0)">1300</text></g><g class="xtick"><text text-anchor="middle" x="0" y="471" style="font-family: 'CMU Serif'; font-size: 15px; fill: rgb(42, 63, 95); fill-opacity: 1; white-space: pre; opacity: 1;" transform="translate(621.77,0)">1400</text></g><g class="xtick"><text text-anchor="middle" x="0" y="471" style="font-family: 'CMU Serif'; font-size: 15px; fill: rgb(42, 63, 95); fill-opacity: 1; white-space: pre; opacity: 1;" transform="translate(662.65,0)">1500</text></g></g><g class="yaxislayer-above"><g class="ytick"><text text-anchor="end" x="48" y="5.25" transform="translate(0,392.9)" style="font-family: 'CMU Serif'; font-size: 15px; fill: rgb(42, 63, 95); fill-opacity: 1; white-space: pre; opacity: 1;">50</text></g><g class="ytick"><text text-anchor="end" x="48" y="5.25" style="font-family: 'CMU Serif'; font-size: 15px; fill: rgb(42, 63, 95); fill-opacity: 1; white-space: pre; opacity: 1;" transform="translate(0,319.69)">100</text></g><g class="ytick"><text text-anchor="end" x="48" y="5.25" style="font-family: 'CMU Serif'; font-size: 15px; fill: rgb(42, 63, 95); fill-opacity: 1; white-space: pre; opacity: 1;" transform="translate(0,246.48)">150</text></g><g class="ytick"><text text-anchor="end" x="48" y="5.25" style="font-family: 'CMU Serif'; font-size: 15px; fill: rgb(42, 63, 95); fill-opacity: 1; white-space: pre; opacity: 1;" transform="translate(0,173.26)">200</text></g><g class="ytick"><text text-anchor="end" x="48" y="5.25" style="font-family: 'CMU Serif'; font-size: 15px; fill: rgb(42, 63, 95); fill-opacity: 1; white-space: pre; opacity: 1;" transform="translate(0,100.05)">250</text></g><g class="ytick"><text text-anchor="end" x="48" y="5.25" style="font-family: 'CMU Serif'; font-size: 15px; fill: rgb(42, 63, 95); fill-opacity: 1; white-space: pre; opacity: 1;" transform="translate(0,26.83)">300</text></g></g><g class="overaxes-above"/></g></g><g class="polarlayer"/><g class="smithlayer"/><g class="ternarylayer"/><g class="geolayer"/><g class="funnelarealayer"/><g class="pielayer"/><g class="iciclelayer"/><g class="treemaplayer"/><g class="sunburstlayer"/><g class="glimages"/><defs id="topdefs-834883"><g class="clips"/></defs><g class="layer-above"><g class="imagelayer"/><g class="shapelayer"/></g><g class="infolayer"><g class="g-gtitle"/><g class="g-xtitle" transform="translate(0,-2.5)"><text class="xtitle" x="376.5" y="498.5" text-anchor="middle" style="font-family: 'CMU Serif'; font-size: 15px; fill: rgb(42, 63, 95); opacity: 1; font-weight: normal; white-space: pre;">Tank Pressure (bar)</text></g><g class="g-ytitle" transform="translate(12,0)"><text class="ytitle" transform="rotate(-90,1,225.5)" x="1" y="225.5" text-anchor="middle" style="font-family: 'CMU Serif'; font-size: 15px; fill: rgb(42, 63, 95); opacity: 1; font-weight: normal; white-space: pre;">Tank Mass (kg)</text></g></g></svg>