<svg class="main-svg" xmlns="http://www.w3.org/2000/svg" xmlns:xlink="http://www.w3.org/1999/xlink" width="1400" height="1000" style="" viewBox="0 0 700 500"><rect x="0" y="0" width="700" height="500" style="fill: rgb(0, 0, 0); fill-opacity: 0;"/><defs id="defs-92b7e3"><g class="clips"><clipPath id="clip92b7e3xyplot" class="plotclip"><rect width="639" height="451"/></clipPath><clipPath class="axesclip" id="clip92b7e3x"><rect x="61" y="0" width="639" height="500"/></clipPath><clipPath class="axesclip" id="clip92b7e3y"><rect x="0" y="0" width="700" height="451"/></clipPath><clipPath class="axesclip" id="clip92b7e3xy"><rect x="61" y="0" width="639" height="451"/></clipPath></g><g class="gradients"/><g class="patterns"/></defs><g class="bglayer"><rect class="bg" x="61" y="0" width="639" height="451" style="fill: rgb(229, 236, 246); fill-opacity: 1; stroke-width: 0;"/></g><g class="layer-below"><g class="imagelayer"/><g class="shapelayer"/></g><g class="cartesianlayer"><g class="subplot xy"><g class="layer-subplot"><g class="shapelayer"/><g class="imagelayer"/></g><g class="minor-gridlayer"><g class="x"/><g class="y"/></g><g class="gridlayer"><g class="x"><path class="xgrid crisp" transform="translate(97.95,0)" d="M0,0v451" style="stroke: rgb(255, 255, 255); stroke-opacity: 1; stroke-width: 1px;"/><path class="xgrid crisp" transform="translate(138.31,0)" d="M0,0v451" style="stroke: rgb(255, 255, 255); stroke-opacity: 1; stroke-width: 1px;"/><path class="xgrid crisp" transform="translate(178.68,0)" d="M0,0v451" style="stroke: rgb(255, 255, 255); stroke-opacity: 1; stroke-width: 1px;"/><path class="xgrid crisp" transform="translate(219.04,0)" d="M0,0v451" style="stroke: rgb(255, 255, 255); stroke-opacity: 1; stroke-width: 1px;"/><path class="xgrid crisp" transform="translate(259.40999999999997,0)" d="M0,0v451" style="stroke: rgb(255, 255, 255); stroke-opacity: 1; stroke-width: 1px;"/><path class="xgrid crisp" transform="translate(299.77,0)" d="M0,0v451" style="stroke: rgb(255, 255, 255); stroke-opacity: 1; stroke-width: 1px;"/><path class="xgrid crisp" transform="translate(340.14,0)" d="M0,0v451" style="stroke: rgb(255, 255, 255); stroke-opacity: 1; stroke-width: 1px;"/><path class="xgrid crisp" transform="translate(380.5,0)" d="M0,0v451" style="stroke: rgb(255, 255, 255); stroke-opacity: 1; stroke-width: 1px;"/><path class="xgrid crisp" transform="translate(420.86,0)" d="M0,0v451" style="stroke: rgb(255, 255, 255); stroke-opacity: 1; stroke-width: 1px;"/><path class="xgrid crisp" transform="translate(461.23,0)" d="M0,0v451" style="stroke: rgb(255, 255, 255); stroke-opacity: 1; stroke-width: 1px;"/><path class="xgrid crisp" transform="translate(501.59,0)" d="M0,0v451" style="stroke: rgb(255, 255, 255); stroke-opacity: 1; stroke-width: 1px;"/><path class="xgrid crisp" transform="translate(541.96,0)" d="M0,0v451" style="stroke: rgb(255, 255, 255); stroke-opacity: 1; stroke-width: 1px;"/><path class="xgrid crisp" transform="translate(582.32,0)" d="M0,0v451" style="stroke: rgb(255, 255, 255); stroke-opacity: 1; stroke-width: 1px;"/><path class="xgrid crisp" transform="translate(622.69,0)" d="M0,0v451" style="stroke: rgb(255, 255, 255); stroke-opacity: 1; stroke-width: 1px;"/><path class="xgrid crisp" transform="translate(663.05,0)" d="M0,0v451" style="stroke: rgb(255, 255, 255); stroke-opacity: 1; stroke-width: 1px;"/></g><g class="y"><path class="ygrid crisp" transform="translate(0,387.34)" d="M61,0h639" style="stroke: rgb(255, 255, 255); stroke-opacity: 1; stroke-width: 1px;"/><path class="ygrid crisp" transform="translate(0,314.12)" d="M61,0h639" style="stroke: rgb(255, 255, 255); stroke-opacity: 1; stroke-width: 1px;"/><path class="ygrid crisp" transform="translate(0,240.9)" d="M61,0h639" style="stroke: rgb(255, 255, 255); stroke-opacity: 1; stroke-width: 1px;"/><path class="ygrid crisp" transform="translate(0,167.69)" d="M61,0h639" style="stroke: rgb(255, 255, 255); stroke-opacity: 1; stroke-width: 1px;"/><path class="ygrid crisp" transform="translate(0,94.47)" d="M61,0h639" style="stroke: rgb(255, 255, 255); stroke-opacity: 1; stroke-width: 1px;"/><path class="ygrid crisp" transform="translate(0,21.26)" d="M61,0h639" style="stroke: rgb(255, 255, 255); stroke-opacity: 1; stroke-width: 1px;"/></g></g><g class="zerolinelayer"/><g class="layer-between"><g class="shapelayer"/><g class="imagelayer"/></g><path class="xlines-below"/><path class="ylines-below"/><g class="overlines-below"/><g class="xaxislayer-below"/><g class="yaxislayer-below"/><g class="overaxes-below"/><g class="overplot"><g class="xy" transform="translate(61,0)" clip-path="url(#clip92b7e3xyplot)"><g class="scatterlayer mlayer"><g class="trace scatter trace7ff7b9" style="stroke-miterlimit: 2; opacity: 1;"><g class="fills"/><g class="errorbars"/><g class="lines"><path class="js-line" d="M36.95,423.33L77.31,387.49L117.68,342.18L158.04,302.23L198.41,260.97L238.77,210.84L279.14,166.72L319.5,113.22" style="vector-effect: none; fill: none; stroke: rgb(0, 0, 255); stroke-opacity: 1; stroke-width: 2px; opacity: 1;"/></g><g class="points"><path class="point" transform="translate(36.95,423.33)" d="M4,0A4,4 0 1,1 0,-4A4,4 0 0,1 4,0Z" style="opacity: 1; stroke-width: 0px; fill: rgb(0, 0, 255); fill-opacity: 1;"/><path class="point" transform="translate(77.31,387.49)" d="M4,0A4,4 0 1,1 0,-4A4,4 0 0,1 4,0Z" style="opacity: 1; stroke-width: 0px; fill: rgb(0, 0, 255); fill-opacity: 1;"/><path class="point" transform="translate(117.68,342.18)" d="M4,0A4,4 0 1,1 0,-4A4,4 0 0,1 4,0Z" style="opacity: 1; stroke-width: 0px; fill: rgb(0, 0, 255); fill-opacity: 1;"/><path class="point" transform="translate(158.04,302.23)" d="M4,0A4,4 0 1,1 0,-4A4,4 0 0,1 4,0Z" style="opacity: 1; stroke-width: 0px; fill: rgb(0, 0, 255); fill-opacity: 1;"/><path class="point" transform="translate(198.41,260.97)" d="M4,0A4,4 0 1,1 0,-4A4,4 0 0,1 4,0Z" style="opacity: 1; stroke-width: 0px; fill: rgb(0, 0, 255); fill-opacity: 1;"/><path class="point" transform="translate(238.77,210.84)" d="M4,0A4,4 0 1,1 0,-4A4,4 0 0,1 4,0Z" style="opacity: 1; stroke-width: 0px; fill: rgb(0, 0, 255); fill-opacity: 1;"/><path class="point" transform="translate(279.14,166.72)" d="M4,0A4,4 0 1,1 0,-4A4,4 0 0,1 4,0Z" style="opacity: 1; stroke-width: 0px; fill: rgb(0, 0, 255); fill-opacity: 1;"/><path class="point" transform="translate(319.5,113.22)" d="M4,0A4,4 0 1,1 0,-4A4,4 0 0,1 4,0Z" style="opacity: 1; stroke-width: 0px; fill: rgb(0, 0, 255); fill-opacity: 1;"/></g><g class="text"><g class="textpoint" transform="translate(0,-9.25)"><text x="36.95" y="423.33" text-anchor="middle" style="font-family: 'CMU Serif'; font-size: 13px; fill: rgb(42, 63, 95); fill-opacity: 1; white-space: pre;">508.44</text></g><g class="textpoint" transform="translate(0,-9.25)"><text x="77.31" y="387.49" text-anchor="middle" style="font-family: 'CMU Serif'; font-size: 13px; fill: rgb(42, 63, 95); fill-opacity: 1; white-space: pre;">997.85</text></g><g class="textpoint" transform="translate(0,-9.25)"><text x="117.68" y="342.18" text-anchor="middle" style="font-family: 'CMU Serif'; font-size: 13px; fill: rgb(42, 63, 95); fill-opacity: 1; white-space: pre;">1616.72</text></g><g class="textpoint" transform="translate(0,-9.25)"><text x="158.04" y="302.23" text-anchor="middle" style="font-family: 'CMU Serif'; font-size: 13px; fill: rgb(42, 63, 95); fill-opacity: 1; white-space: pre;">2162.42</text></g><g class="textpoint" transform="translate(0,-9.25)"><text x="198.41" y="260.97" text-anchor="middle" style="font-family: 'CMU Serif'; font-size: 13px; fill: rgb(42, 63, 95); fill-opacity: 1; white-space: pre;">2725.88</text></g><g class="textpoint" transform="translate(0,-9.25)"><text x="238.77" y="210.84" text-anchor="middle" style="font-family: 'CMU Serif'; font-size: 13px; fill: rgb(42, 63, 95); fill-opacity: 1; white-space: pre;">3410.67</text></g><g class="textpoint" transform="translate(0,-9.25)"><text x="279.14" y="166.72" text-anchor="middle" style="font-family: 'CMU Serif'; font-size: 13px; fill: rgb(42, 63, 95); fill-opacity: 1; white-space: pre;">4013.16</text></g><g class="textpoint" transform="translate(0,-9.25)"><text x="319.5" y="113.22" text-anchor="middle" style="font-family: 'CMU Serif'; font-size: 13px; fill: rgb(42, 63, 95); fill-opacity: 1; white-space: pre;">4743.98</text></g></g></g><g class="trace scatter trace5ee991" style="stroke-miterlimit: 2; opacity: 1;"><g class="fills"/><g class="errorbars"/><g class="lines"><path class="js-line" d="M36.95,423.45L117.68,370.32L158.04,342.88L198.41,321.93L238.77,293.47L319.5,234.79L359.86,212.17L440.59,150.22L480.96,118.34L521.32,94.04L561.69,61.1L602.05,27.55" style="vector-effect: none; fill: none; stroke: rgb(255, 0, 0); stroke-opacity: 1; stroke-width: 2px; opacity: 1;"/></g><g class="points"><path class="point" transform="translate(36.95,423.45)" d="M4,0A4,4 0 1,1 0,-4A4,4 0 0,1 4,0Z" style="opacity: 1; stroke-width: 0px; fill: rgb(255, 0, 0); fill-opacity: 1;"/><path class="point" transform="translate(77.31,397.17)" d="M4,0A4,4 0 1,1 0,-4A4,4 0 0,1 4,0Z" style="opacity: 1; stroke-width: 0px; fill: rgb(255, 0, 0); fill-opacity: 1;"/><path class="point" transform="translate(117.68,370.32)" d="M4,0A4,4 0 1,1 0,-4A4,4 0 0,1 4,0Z" style="opacity: 1; stroke-width: 0px; fill: rgb(255, 0, 0); fill-opacity: 1;"/><path class="point" transform="translate(158.04,342.88)" d="M4,0A4,4 0 1,1 0,-4A4,4 0 0,1 4,0Z" style="opacity: 1; stroke-width: 0px; fill: rgb(255, 0, 0); fill-opacity: 1;"/><path class="point" transform="translate(198.41,321.93)" d="M4,0A4,4 0 1,1 0,-4A4,4 0 0,1 4,0Z" style="opacity: 1; stroke-width: 0px; fill: rgb(255, 0, 0); fill-opacity: 1;"/><path class="point" transform="translate(238.77,293.47)" d="M4,0A4,4 0 1,1 0,-4A4,4 0 0,1 4,0Z" style="opacity: 1; stroke-width: 0px; fill: rgb(255, 0, 0); fill-opacity: 1;"/><path class="point" transform="translate(279.14,264.42)" d="M4,0A4,4 0 1,1 0,-4A4,4 0 0,1 4,0Z" style="opacity: 1; stroke-width: 0px; fill: rgb(255, 0, 0); fill-opacity: 1;"/><path class="point" transform="translate(319.5,234.79)" d="M4,0A4,4 0 1,1 0,-4A4,4 0 0,1 4,0Z" style="opacity: 1; stroke-width: 0px; fill: rgb(255, 0, 0); fill-opacity: 1;"/><path class="point" transform="translate(359.86,212.17)" d="M4,0A4,4 0 1,1 0,-4A4,4 0 0,1 4,0Z" style="opacity: 1; stroke-width: 0px; fill: rgb(255, 0, 0); fill-opacity: 1;"/><path class="point" transform="translate(400.23,181.5)" d="M4,0A4,4 0 1,1 0,-4A4,4 0 0,1 4,0Z" style="opacity: 1; stroke-width: 0px; fill: rgb(255, 0, 0); fill-opacity: 1;"/><path class="point" transform="translate(440.59,150.22)" d="M4,0A4,4 0 1,1 0,-4A4,4 0 0,1 4,0Z" style="opacity: 1; stroke-width: 0px; fill: rgb(255, 0, 0); fill-opacity: 1;"/><path class="point" transform="translate(480.96,118.34)" d="M4,0A4,4 0 1,1 0,-4A4,4 0 0,1 4,0Z" style="opacity: 1; stroke-width: 0px; fill: rgb(255, 0, 0); fill-opacity: 1;"/><path class="point" transform="translate(521.32,94.04)" d="M4,0A4,4 0 1,1 0,-4A4,4 0 0,1 4,0Z" style="opacity: 1; stroke-width: 0px; fill: rgb(255, 0, 0); fill-opacity: 1;"/><path class="point" transform="translate(561.69,61.1)" d="M4,0A4,4 0 1,1 0,-4A4,4 0 0,1 4,0Z" style="opacity: 1; stroke-width: 0px; fill: rgb(255, 0, 0); fill-opacity: 1;"/><path class="point" transform="translate(602.05,27.55)" d="M4,0A4,4 0 1,1 0,-4A4,4 0 0,1 4,0Z" style="opacity: 1; stroke-width: 0px; fill: rgb(255, 0, 0); fill-opacity: 1;"/></g><g class="text"><g class="textpoint" transform="translate(0,-9.25)"><text x="36.95" y="423.45" text-anchor="middle" style="font-family: 'CMU Serif'; font-size: 13px; fill: rgb(42, 63, 95); fill-opacity: 1; white-space: pre;">506.74</text></g><g class="textpoint" transform="translate(0,-9.25)"><text x="77.31" y="397.17" text-anchor="middle" style="font-family: 'CMU Serif'; font-size: 13px; fill: rgb(42, 63, 95); fill-opacity: 1; white-space: pre;">865.63</text></g><g class="textpoint" transform="translate(0,-9.25)"><text x="117.68" y="370.32" text-anchor="middle" style="font-family: 'CMU Serif'; font-size: 13px; fill: rgb(42, 63, 95); fill-opacity: 1; white-space: pre;">1232.41</text></g><g class="textpoint" transform="translate(0,-9.25)"><text x="158.04" y="342.88" text-anchor="middle" style="font-family: 'CMU Serif'; font-size: 13px; fill: rgb(42, 63, 95); fill-opacity: 1; white-space: pre;">1607.12</text></g><g class="textpoint" transform="translate(0,-9.25)"><text x="198.41" y="321.93" text-anchor="middle" style="font-family: 'CMU Serif'; font-size: 13px; fill: rgb(42, 63, 95); fill-opacity: 1; white-space: pre;">1893.37</text></g><g class="textpoint" transform="translate(0,-9.25)"><text x="238.77" y="293.47" text-anchor="middle" style="font-family: 'CMU Serif'; font-size: 13px; fill: rgb(42, 63, 95); fill-opacity: 1; white-space: pre;">2282.04</text></g><g class="textpoint" transform="translate(0,-9.25)"><text x="279.14" y="264.42" text-anchor="middle" style="font-family: 'CMU Serif'; font-size: 13px; fill: rgb(42, 63, 95); fill-opacity: 1; white-space: pre;">2678.74</text></g><g class="textpoint" transform="translate(0,-9.25)"><text x="319.5" y="234.79" text-anchor="middle" style="font-family: 'CMU Serif'; font-size: 13px; fill: rgb(42, 63, 95); fill-opacity: 1; white-space: pre;">3083.51</text></g><g class="textpoint" transform="translate(0,-9.25)"><text x="359.86" y="212.17" text-anchor="middle" style="font-family: 'CMU Serif'; font-size: 13px; fill: rgb(42, 63, 95); fill-opacity: 1; white-space: pre;">3392.41</text></g><g class="textpoint" transform="translate(0,-9.25)"><text x="400.23" y="181.5" text-anchor="middle" style="font-family: 'CMU Serif'; font-size: 13px; fill: rgb(42, 63, 95); fill-opacity: 1; white-space: pre;">3811.40</text></g><g class="textpoint" transform="translate(0,-9.25)"><text x="440.59" y="150.22" text-anchor="middle" style="font-family: 'CMU Serif'; font-size: 13px; fill: rgb(42, 63, 95); fill-opacity: 1; white-space: pre;">4238.58</text></g><g class="textpoint" transform="translate(0,-9.25)"><text x="480.96" y="118.34" text-anchor="middle" style="font-family: 'CMU Serif'; font-size: 13px; fill: rgb(42, 63, 95); fill-opacity: 1; white-space: pre;">4673.97</text></g><g class="textpoint" transform="translate(0,-9.25)"><text x="521.32" y="94.04" text-anchor="middle" style="font-family: 'CMU Serif'; font-size: 13px; fill: rgb(42, 63, 95); fill-opacity: 1; white-space: pre;">5005.94</text></g><g class="textpoint" transform="translate(0,-9.25)"><text x="561.69" y="61.1" text-anchor="middle" style="font-family: 'CMU Serif'; font-size: 13px; fill: rgb(42, 63, 95); fill-opacity: 1; white-space: pre;">5455.82</text></g><g class="textpoint" transform="translate(0,-9.25)"><text x="602.05" y="27.55" text-anchor="middle" style="font-family: 'CMU Serif'; font-size: 13px; fill: rgb(42, 63, 95); fill-opacity: 1; white-space: pre;">5914.03</text></g></g></g></g></g></g><path class="xlines-above crisp" d="M59,452H700" style="fill: none; stroke-width: 2px; stroke: rgb(255, 255, 255); stroke-opacity: 1;"/><path class="ylines-above crisp" d="M60,0V451" style="fill: none; stroke-width: 2px; stroke: rgb(255, 255, 255); stroke-opacity: 1;"/><g class="overlines-above"/><g class="xaxislayer-above"><g class="xtick"><text text-anchor="middle" x="0" y="471" transform="translate(97.95,0)" style="font-family: 'CMU Serif'; font-size: 15px; fill: rgb(42, 63, 95); fill-opacity: 1; white-space: pre; opacity: 1;">100</text></g><g class="xtick"><text text-anchor="middle" x="0" y="471" style="font-family: 'CMU Serif'; font-size: 15px; fill: rgb(42, 63, 95); fill-opacity: 1; white-space: pre; opacity: 1;" transform="translate(138.31,0)">200</text></g><g class="xtick"><text text-anchor="middle" x="0" y="471" style="font-family: 'CMU Serif'; font-size: 15px; fill: rgb(42, 63, 95); fill-opacity: 1; white-space: pre; opacity: 1;" transform="translate(178.68,0)">300</text></g><g class="xtick"><text text-anchor="middle" x="0" y="471" style="font-family: 'CMU Serif'; font-size: 15px; fill: rgb(42, 63, 95); fill-opacity: 1; white-space: pre; opacity: 1;" transform="translate(219.04,0)">400</text></g><g class="xtick"><text text-anchor="middle" x="0" y="471" style="font-family: 'CMU Serif'; font-size: 15px; fill: rgb(42, 63, 95); fill-opacity: 1; white-space: pre; opacity: 1;" transform="translate(259.40999999999997,0)">500</text></g><g class="xtick"><text text-anchor="middle" x="0" y="471" style="font-family: 'CMU Serif'; font-size: 15px; fill: rgb(42, 63, 95); fill-opacity: 1; white-space: pre; opacity: 1;" transform="translate(299.77,0)">600</text></g><g class="xtick"><text text-anchor="middle" x="0" y="471" style="font-family: 'CMU Serif'; font-size: 15px; fill: rgb(42, 63, 95); fill-opacity: 1; white-space: pre; opacity: 1;" transform="translate(340.14,0)">700</text></g><g class="xtick"><text text-anchor="middle" x="0" y="471" style="font-family: 'CMU Serif'; font-size: 15px; fill: rgb(42, 63, 95); fill-opacity: 1; white-space: pre; opacity: 1;" transform="translate(380.5,0)">800</text></g><g class="xtick"><text text-anchor="middle" x="0" y="471" style="font-family: 'CMU Serif'; font-size: 15px; fill: rgb(42, 63, 95); fill-opacity: 1; white-space: pre; opacity: 1;" transform="translate(420.86,0)">900</text></g><g class="xtick"><text text-anchor="middle" x="0" y="471" style="font-family: 'CMU Serif'; font-size: 15px; fill: rgb(42, 63, 95); fill-opacity: 1; white-space: pre; opacity: 1;" transform="translate(461.23,0)">1000</text></g><g class="xtick"><text text-anchor="middle" x="0" y="471" style="font-family: 'CMU Serif'; font-size: 15px; fill: rgb(42, 63, 95); fill-opacity: 1; white-space: pre; opacity: 1;" transform="translate(501.59,0)">1100</text></g><g class="xtick"><text text-anchor="middle" x="0" y="471" style="font-family: 'CMU Serif'; font-size: 15px; fill: rgb(42, 63, 95); fill-opacity: 1; white-space: pre; opacity: 1;" transform="translate(541.96,0)">1200</text></g><g class="xtick"><text text-anchor="middle" x="0" y="471" style="font-family: 'CMU Serif'; font-size: 15px; fill: rgb(42, 63, 95); fill-opacity: 1; white-space: pre; opacity: 1;" transform="translate(582.32,0)">1300</text></g><g class="xtick"><text text-anchor="middle" x="0" y="471" style="font-family: 'CMU Serif'; font-size: 15px; fill: rgb(42, 63, 95); fill-opacity: 1; white-space: pre; opacity: 1;" transform="translate(622.69,0)">1400</text></g><g class="xtick"><text text-anchor="middle" x="0" y="471" style="font-family: 'CMU Serif'; font-size: 15px; fill: rgb(42, 63, 95); fill-opacity: 1; white-space: pre; opacity: 1;" transform="translate(663.05,0)">1500</text></g></g><g class="yaxislayer-above"><g class="ytick"><text text-anchor="end" x="56" y="5.25" transform="translate(0,387.34)" style="font-family: 'CMU Serif'; font-size: 15px; fill: rgb(42, 63, 95); fill-opacity: 1; white-space: pre; opacity: 1;">1000</text></g><g class="ytick"><text text-anchor="end" x="56" y="5.25" style="font-family: 'CMU Serif'; font-size: 15px; fill: rgb(42, 63, 95); fill-opacity: 1; white-space: pre; opacity: 1;" transform="translate(0,314.12)">2000</text></g><g class="ytick"><text text-anchor="end" x="56" y="5.25" style="font-family: 'CMU Serif'; font-size: 15px; fill: rgb(42, 63, 95); fill-opacity: 1; white-space: pre; opacity: 1;" transform="translate(0,240.9)">3000</text></g><g class="ytick"><text text-anchor="end" x="56" y="5.25" style="font-family: 'CMU Serif'; font-size: 15px; fill: rgb(42, 63, 95); fill-opacity: 1; white-space: pre; opacity: 1;" transform="translate(0,167.69)">4000</text></g><g class="ytick"><text text-anchor="end" x="56" y="5.25" style="font-family: 'CMU Serif'; font-size: 15px; fill: rgb(42, 63, 95); fill-opacity: 1; white-space: pre; opacity: 1;" transform="translate(0,94.47)">5000</text></g><g class="ytick"><text text-anchor="end" x="56" y="5.25" style="font-family: 'CMU Serif'; font-size: 15px; fill: rgb(42, 63, 95); fill-opacity: 1; white-space: pre; opacity: 1;" transform="translate(0,21.26)">6000</text></g></g><g class="overaxes-above"/></g></g><g class="polarlayer"/><g class="smithlayer"/><g class="ternarylayer"/><g class="geolayer"/><g class="funnelarealayer"/><g class="pielayer"/><g class="iciclelayer"/><g class="treemaplayer"/><g class="sunburstlayer"/><g class="glimages"/><defs id="topdefs-92b7e3"><g class="clips"/><clipPath id="legend92b7e3"><rect width="185" height="70" x="0" y="0"/></clipPath></defs><g class="layer-above"><g class="imagelayer"/><g class="shapelayer"/></g><g class="infolayer"><g class="legend" pointer-events="all" transform="translate(67.39,4.510000000000004)"><rect class="bg" shape-rendering="crispEdges" style="stroke: rgb(68, 68, 68); stroke-opacity: 1; fill: rgb(255, 255, 255); fill-opacity: 0.5; stroke-width: 0px;" width="185" height="70" x="0" y="0"/><g class="scrollbox" transform="" clip-path="url(#legend92b7e3)"><text class="legendtitletext" text-anchor="start" x="2" y="19.5" style="font-family: 'CMU Serif'; font-size: 15px; fill: rgb(42, 63, 95); fill-opacity: 1; white-space: pre;">Tank Type</text><g class="groups"><g class="traces" transform="translate(0,34.45)" style="opacity: 1;"><text class="legendtext" text-anchor="start" x="40" y="5.07" style="font-family: 'CMU Serif'; font-size: 13px; fill: rgb(42, 63, 95); fill-opacity: 1; white-space: pre;">Type 3 Tank Material Cost</text><g class="layers" style="opacity: 1;"><g class="legendfill"/><g class="legendlines"><path class="js-line" d="M5,0h30" style="fill: none; stroke: rgb(0, 0, 255); stroke-opacity: 1; stroke-width: 2px;"/></g><g class="legendsymbols"><g class="legendpoints"><path class="scatterpts" transform="translate(20,0)" d="M4,0A4,4 0 1,1 0,-4A4,4 0 0,1 4,0Z" style="opacity: 1; stroke-width: 0px; fill: rgb(0, 0, 255); fill-opacity: 1;"/></g></g></g><rect class="legendtoggle" x="0" y="-9.950000000000001" width="179.375" height="19.900000000000002" style="fill: rgb(0, 0, 0); fill-opacity: 0;"/></g><g class="traces" transform="translate(0,54.35000000000001)" style="opacity: 1;"><text class="legendtext" text-anchor="start" x="40" y="5.07" style="font-family: 'CMU Serif'; font-size: 13px; fill: rgb(42, 63, 95); fill-opacity: 1; white-space: pre;">Type 4 Tank Material Cost</text><g class="layers" style="opacity: 1;"><g class="legendfill"/><g class="legendlines"><path class="js-line" d="M5,0h30" style="fill: none; stroke: rgb(255, 0, 0); stroke-opacity: 1; stroke-width: 2px;"/></g><g class="legendsymbols"><g class="legendpoints"><path class="scatterpts" transform="translate(20,0)" d="M4,0A4,4 0 1,1 0,-4A4,4 0 0,1 4,0Z" style="opacity: 1; stroke-width: 0px; fill: rgb(255, 0, 0); fill-opacity: 1;"/></g></g></g><rect class="legendtoggle" x="0" y="-9.950000000000001" width="179.375" height="19.900000000000002" style="fill: rgb(0, 0, 0); fill-opacity: 0;"/></g></g></g><rect class="scrollbar" rx="20" ry="3" width="0" height="0" style="fill: rgb(128, 139, 164); fill-opacity: 1;" x="0" y="0"/></g><g class="g-gtitle"/><g class="g-xtitle" transform="translate(0,-2.5)"><text class="xtitle" x="380.5" y="498.5" text-anchor="middle" style="opacity: 1; font-family: 'CMU Serif'; font-size: 15px; fill: rgb(42, 63, 95); fill-opacity: 1; white-space: pre;">Tank Pressure (bar)</text></g><g class="g-ytitle" transform="translate(6.25,0)"><text class="ytitle" transform="rotate(-90,6.75,225.5)" x="6.75" y="225.5" text-anchor="middle" style="opacity: 1; font-family: 'CMU Serif'; font-size: 15px; fill: rgb(42, 63, 95); fill-opacity: 1; white-space: pre;">Tank Material Cost ($)</text></g></g></svg>