<svg class="main-svg" xmlns="http://www.w3.org/2000/svg" xmlns:xlink="http://www.w3.org/1999/xlink" width="900" height="1480" style="" viewBox="0 0 900 1480"><rect x="0" y="0" width="900" height="1480" style="fill: rgb(0, 0, 0); fill-opacity: 0;"/><defs id="defs-a9b26e"><g class="clips"><clipPath id="clipa9b26exyplot" class="plotclip"><rect width="840" height="321.45750000000004"/></clipPath><clipPath id="clipa9b26ex2y2plot" class="plotclip"><rect width="840" height="321.45750000000004"/></clipPath><clipPath id="clipa9b26ex3y3plot" class="plotclip"><rect width="840" height="321.4575"/></clipPath><clipPath id="clipa9b26ex4y4plot" class="plotclip"><rect width="840" height="321.45750000000004"/></clipPath><clipPath class="axesclip" id="clipa9b26ex"><rect x="60" y="0" width="840" height="1480"/></clipPath><clipPath class="axesclip" id="clipa9b26ey"><rect x="0" y="20" width="900" height="321.45750000000004"/></clipPath><clipPath class="axesclip" id="clipa9b26exy"><rect x="60" y="20" width="840" height="321.45750000000004"/></clipPath><clipPath class="axesclip" id="clipa9b26ey2"><rect x="0" y="383.8474999999999" width="900" height="321.45750000000004"/></clipPath><clipPath class="axesclip" id="clipa9b26exy2"><rect x="60" y="383.8474999999999" width="840" height="321.45750000000004"/></clipPath><clipPath class="axesclip" id="clipa9b26ey3"><rect x="0" y="747.695" width="900" height="321.4575"/></clipPath><clipPath class="axesclip" id="clipa9b26exy3"><rect x="60" y="747.695" width="840" height="321.4575"/></clipPath><clipPath class="axesclip" id="clipa9b26ey4"><rect x="0" y="1111.5425" width="900" height="321.45750000000004"/></clipPath><clipPath class="axesclip" id="clipa9b26exy4"><rect x="60" y="1111.5425" width="840" height="321.45750000000004"/></clipPath><clipPath class="axesclip" id="clipa9b26ex2"><rect x="60" y="0" width="840" height="1480"/></clipPath><clipPath class="axesclip" id="clipa9b26ex2y"><rect x="60" y="20" width="840" height="321.45750000000004"/></clipPath><clipPath class="axesclip" id="clipa9b26ex2y2"><rect x="60" y="383.8474999999999" width="840" height="321.45750000000004"/></clipPath><clipPath class="axesclip" id="clipa9b26ex2y3"><rect x="60" y="747.695" width="840" height="321.4575"/></clipPath><clipPath class="axesclip" id="clipa9b26ex2y4"><rect x="60" y="1111.5425" width="840" height="321.45750000000004"/></clipPath><clipPath class="axesclip" id="clipa9b26ex3"><rect x="60" y="0" width="840" height="1480"/></clipPath><clipPath class="axesclip" id="clipa9b26ex3y"><rect x="60" y="20" width="840" height="321.45750000000004"/></clipPath><clipPath class="axesclip" id="clipa9b26ex3y2"><rect x="60" y="383.8474999999999" width="840" height="321.45750000000004"/></clipPath><clipPath class="axesclip" id="clipa9b26ex3y3"><rect x="60" y="747.695" width="840" height="321.4575"/></clipPath><clipPath class="axesclip" id="clipa9b26ex3y4"><rect x="60" y="1111.5425" width="840" height="321.45750000000004"/></clipPath><clipPath class="axesclip" id="clipa9b26ex4"><rect x="60" y="0" width="840" height="1480"/></clipPath><clipPath class="axesclip" id="clipa9b26ex4y"><rect x="60" y="20" width="840" height="321.45750000000004"/></clipPath><clipPath class="axesclip" id="clipa9b26ex4y2"><rect x="60" y="383.8474999999999" width="840" height="321.45750000000004"/></clipPath><clipPath class="axesclip" id="clipa9b26ex4y3"><rect x="60" y="747.695" width="840" height="321.4575"/></clipPath><clipPath class="axesclip" id="clipa9b26ex4y4"><rect x="60" y="1111.5425" width="840" height="321.45750000000004"/></clipPath></g><g class="gradients"/><g class="patterns"/></defs><g class="bglayer"><rect class="bg" x="60" y="20" width="840" height="321.45750000000004" style="fill: rgb(229, 236, 246); fill-opacity: 1; stroke-width: 0;"/><rect class="bg" x="60" y="383.8474999999999" width="840" height="321.45750000000004" style="fill: rgb(229, 236, 246); fill-opacity: 1; stroke-width: 0;"/><rect class="bg" x="60" y="747.695" width="840" height="321.4575" style="fill: rgb(229, 236, 246); fill-opacity: 1; stroke-width: 0;"/><rect class="bg" x="60" y="1111.5425" width="840" height="321.45750000000004" style="fill: rgb(229, 236, 246); fill-opacity: 1; stroke-width: 0;"/></g><g class="layer-below"><g class="imagelayer"/><g class="shapelayer"/></g><g class="cartesianlayer"><g class="subplot xy"><g class="layer-subplot"><g class="shapelayer"/><g class="imagelayer"/></g><g class="minor-gridlayer"><g class="x"/><g class="y"/></g><g class="gridlayer"><g class="x"><path class="xgrid crisp" transform="translate(256.95,0)" d="M0,20v321.45750000000004" style="stroke: rgb(255, 255, 255); stroke-opacity: 1; stroke-width: 1px;"/><path class="xgrid crisp" transform="translate(405.65,0)" d="M0,20v321.45750000000004" style="stroke: rgb(255, 255, 255); stroke-opacity: 1; stroke-width: 1px;"/><path class="xgrid crisp" transform="translate(554.35,0)" d="M0,20v321.45750000000004" style="stroke: rgb(255, 255, 255); stroke-opacity: 1; stroke-width: 1px;"/><path class="xgrid crisp" transform="translate(703.05,0)" d="M0,20v321.45750000000004" style="stroke: rgb(255, 255, 255); stroke-opacity: 1; stroke-width: 1px;"/><path class="xgrid crisp" transform="translate(851.75,0)" d="M0,20v321.45750000000004" style="stroke: rgb(255, 255, 255); stroke-opacity: 1; stroke-width: 1px;"/></g><g class="y"/></g><g class="zerolinelayer"><path class="xzl zl crisp" transform="translate(108.25,0)" d="M0,20v321.45750000000004" style="stroke: rgb(255, 255, 255); stroke-opacity: 1; stroke-width: 2px;"/></g><path class="xlines-below"/><path class="ylines-below"/><g class="overlines-below"/><g class="xaxislayer-below"/><g class="yaxislayer-below"/><g class="overaxes-below"/><g class="plot" transform="translate(60,20)" clip-path="url(#clipa9b26exyplot)"><g class="scatterlayer mlayer"><g class="trace scatter trace9e9b21" style="stroke-miterlimit: 2; opacity: 1;"><g class="fills"/><g class="errorbars"/><g class="lines"><path class="js-line" d="M48.25,160.73L791.75,160.73" style="vector-effect: none; fill: none; stroke: rgb(128, 0, 128); stroke-opacity: 1; stroke-width: 2px; opacity: 1;"/></g><g class="points"/><g class="text"/></g><g class="trace scatter trace1386db" style="stroke-miterlimit: 2; opacity: 0;"><g class="fills"/><g class="errorbars"/><g class="lines"/><g class="points"><path class="point" transform="translate(48.25,160.73)" d="M-5.77,2.5H5.77L0,-5Z" style="opacity: 1; stroke-width: 0px; fill: rgb(0, 0, 255); fill-opacity: 1;"/></g><g class="text"/></g><g class="trace scatter trace857646" style="stroke-miterlimit: 2;"><g class="fills"><g><path class="js-fill" d="M791.75,160.73L48.25,160.73L48.25,160.73L791.75,80.36" style="fill: rgb(147, 112, 219); fill-opacity: 0.5; stroke-width: 0;"/></g></g><g class="errorbars"/><g class="lines"><path class="js-line" d="M48.25,160.73L791.75,80.36" style="vector-effect: none; fill: none; stroke: rgb(147, 112, 219); stroke-opacity: 1; stroke-width: 1px; opacity: 1;"/></g><g class="points"/><g class="text"/></g><g class="trace scatter trace5adde9" style="stroke-miterlimit: 2; opacity: 0;"><g class="fills"/><g class="errorbars"/><g class="lines"/><g class="points"><path class="point" transform="translate(48.25,160.73)" d="M-5.77,2.5H5.77L0,-5Z" style="opacity: 1; stroke-width: 0px; fill: rgb(147, 112, 219); fill-opacity: 1;"/></g><g class="text"/></g><g class="trace scatter trace56974e" style="stroke-miterlimit: 2; opacity: 0;"><g class="fills"/><g class="errorbars"/><g class="lines"/><g class="points"><path class="point" transform="translate(791.75,160.73)" d="M-5.77,2.5H5.77L0,-5Z" style="opacity: 1; stroke-width: 0px; fill: rgb(147, 112, 219); fill-opacity: 1;"/></g><g class="text"/></g></g></g><g class="overplot"/><path class="xlines-above crisp" d="M0,0" style="fill: none;"/><path class="ylines-above crisp" d="M0,0" style="fill: none;"/><g class="overlines-above"/><g class="xaxislayer-above"/><g class="yaxislayer-above"/><g class="overaxes-above"/></g><g class="subplot x2y2"><g class="layer-subplot"><g class="shapelayer"/><g class="imagelayer"/></g><g class="minor-gridlayer"><g class="x2"/><g class="y2"/></g><g class="gridlayer"><g class="x2"><path class="x2grid crisp" transform="translate(256.95,0)" d="M0,383.8474999999999v321.45750000000004" style="stroke: rgb(255, 255, 255); stroke-opacity: 1; stroke-width: 1px;"/><path class="x2grid crisp" transform="translate(405.65,0)" d="M0,383.8474999999999v321.45750000000004" style="stroke: rgb(255, 255, 255); stroke-opacity: 1; stroke-width: 1px;"/><path class="x2grid crisp" transform="translate(554.35,0)" d="M0,383.8474999999999v321.45750000000004" style="stroke: rgb(255, 255, 255); stroke-opacity: 1; stroke-width: 1px;"/><path class="x2grid crisp" transform="translate(703.05,0)" d="M0,383.8474999999999v321.45750000000004" style="stroke: rgb(255, 255, 255); stroke-opacity: 1; stroke-width: 1px;"/><path class="x2grid crisp" transform="translate(851.75,0)" d="M0,383.8474999999999v321.45750000000004" style="stroke: rgb(255, 255, 255); stroke-opacity: 1; stroke-width: 1px;"/></g><g class="y2"/></g><g class="zerolinelayer"><path class="x2zl zl crisp" transform="translate(108.25,0)" d="M0,383.8474999999999v321.45750000000004" style="stroke: rgb(255, 255, 255); stroke-opacity: 1; stroke-width: 2px;"/></g><path class="xlines-below"/><path class="ylines-below"/><g class="overlines-below"/><g class="xaxislayer-below"/><g class="yaxislayer-below"/><g class="overaxes-below"/><g class="plot" transform="translate(60,383.8474999999999)" clip-path="url(#clipa9b26ex2y2plot)"><g class="scatterlayer mlayer"><g class="trace scatter trace8040c9" style="stroke-miterlimit: 2; opacity: 1;"><g class="fills"/><g class="errorbars"/><g class="lines"><path class="js-line" d="M48.25,160.73L791.75,160.73" style="vector-effect: none; fill: none; stroke: rgb(128, 0, 128); stroke-opacity: 1; stroke-width: 2px; opacity: 1;"/></g><g class="points"/><g class="text"/></g><g class="trace scatter trace7b4c95" style="stroke-miterlimit: 2; opacity: 0;"><g class="fills"/><g class="errorbars"/><g class="lines"/><g class="points"><path class="point" transform="translate(48.25,160.73)" d="M-5.77,2.5H5.77L0,-5Z" style="opacity: 1; stroke-width: 0px; fill: rgb(255, 0, 0); fill-opacity: 1;"/></g><g class="text"/></g></g></g><g class="overplot"/><path class="xlines-above crisp" d="M0,0" style="fill: none;"/><path class="ylines-above crisp" d="M0,0" style="fill: none;"/><g class="overlines-above"/><g class="xaxislayer-above"/><g class="yaxislayer-above"/><g class="overaxes-above"/></g><g class="subplot x3y3"><g class="layer-subplot"><g class="shapelayer"/><g class="imagelayer"/></g><g class="minor-gridlayer"><g class="x3"/><g class="y3"/></g><g class="gridlayer"><g class="x3"><path class="x3grid crisp" transform="translate(256.95,0)" d="M0,747.695v321.4575" style="stroke: rgb(255, 255, 255); stroke-opacity: 1; stroke-width: 1px;"/><path class="x3grid crisp" transform="translate(405.65,0)" d="M0,747.695v321.4575" style="stroke: rgb(255, 255, 255); stroke-opacity: 1; stroke-width: 1px;"/><path class="x3grid crisp" transform="translate(554.35,0)" d="M0,747.695v321.4575" style="stroke: rgb(255, 255, 255); stroke-opacity: 1; stroke-width: 1px;"/><path class="x3grid crisp" transform="translate(703.05,0)" d="M0,747.695v321.4575" style="stroke: rgb(255, 255, 255); stroke-opacity: 1; stroke-width: 1px;"/><path class="x3grid crisp" transform="translate(851.75,0)" d="M0,747.695v321.4575" style="stroke: rgb(255, 255, 255); stroke-opacity: 1; stroke-width: 1px;"/></g><g class="y3"><path class="y3grid crisp" transform="translate(0,1008.075)" d="M60,0h840" style="stroke: rgb(255, 255, 255); stroke-opacity: 1; stroke-width: 1px;"/><path class="y3grid crisp" transform="translate(0,946.9950000000001)" d="M60,0h840" style="stroke: rgb(255, 255, 255); stroke-opacity: 1; stroke-width: 1px;"/><path class="y3grid crisp" transform="translate(0,885.9250000000001)" d="M60,0h840" style="stroke: rgb(255, 255, 255); stroke-opacity: 1; stroke-width: 1px;"/><path class="y3grid crisp" transform="translate(0,824.845)" d="M60,0h840" style="stroke: rgb(255, 255, 255); stroke-opacity: 1; stroke-width: 1px;"/><path class="y3grid crisp" transform="translate(0,763.7650000000001)" d="M60,0h840" style="stroke: rgb(255, 255, 255); stroke-opacity: 1; stroke-width: 1px;"/></g></g><g class="zerolinelayer"><path class="x3zl zl crisp" transform="translate(108.25,0)" d="M0,747.695v321.4575" style="stroke: rgb(255, 255, 255); stroke-opacity: 1; stroke-width: 2px;"/><path class="y3zl zl crisp" transform="translate(0,1069.155)" d="M60,0h840" style="stroke: rgb(255, 255, 255); stroke-opacity: 1; stroke-width: 2px;"/></g><path class="xlines-below"/><path class="ylines-below"/><g class="overlines-below"/><g class="xaxislayer-below"/><g class="yaxislayer-below"/><g class="overaxes-below"/><g class="plot" transform="translate(60,747.695)" clip-path="url(#clipa9b26ex3y3plot)"><g class="scatterlayer mlayer"><g class="trace scatter tracebbd843" style="stroke-miterlimit: 2;"><g class="fills"><g><path class="js-fill" d="M791.75,321.46L48.25,321.46L48.25,321.46L48.25,16.07L51.99,16.08L89.35,17.01L93.08,17.18L130.45,19.81L134.18,20.15L171.54,24.47L175.28,24.99L212.64,31L216.38,31.69L253.74,39.4L257.48,40.26L294.84,49.66L298.57,50.69L335.94,61.79L339.67,62.99L377.03,75.79L380.77,77.16L418.13,91.65L421.87,93.19L459.23,109.38L462.97,111.09L504.06,130.85L507.8,132.74L548.9,154.54L552.63,156.62L590,178.21L593.73,180.45L634.83,206.15L638.57,208.58L679.66,236.32L683.4,238.94L724.5,268.71L728.23,271.51L769.33,303.32L773.07,306.3L791.75,321.46L791.75,321.46" style="fill: rgb(0, 255, 255); fill-opacity: 0.5; stroke-width: 0;"/></g></g><g class="errorbars"/><g class="lines"><path class="js-line" d="M48.25,321.46L48.25,16.07L51.99,16.08L89.35,17.01L93.08,17.18L130.45,19.81L134.18,20.15L171.54,24.47L175.28,24.99L212.64,31L216.38,31.69L253.74,39.4L257.48,40.26L294.84,49.66L298.57,50.69L335.94,61.79L339.67,62.99L377.03,75.79L380.77,77.16L418.13,91.65L421.87,93.19L459.23,109.38L462.97,111.09L504.06,130.85L507.8,132.74L548.9,154.54L552.63,156.62L590,178.21L593.73,180.45L634.83,206.15L638.57,208.58L679.66,236.32L683.4,238.94L724.5,268.71L728.23,271.51L769.33,303.32L773.07,306.3L791.75,321.46L791.75,321.46" style="vector-effect: none; fill: none; stroke: rgb(0, 255, 255); stroke-opacity: 1; stroke-width: 1px; opacity: 1;"/></g><g class="points"/><g class="text"/></g></g></g><g class="overplot"/><path class="xlines-above crisp" d="M0,0" style="fill: none;"/><path class="ylines-above crisp" d="M0,0" style="fill: none;"/><g class="overlines-above"/><g class="xaxislayer-above"/><g class="yaxislayer-above"><g class="y3tick"><text text-anchor="end" x="59" y="5.25" transform="translate(0,1069.155)" style="font-family: 'New Computer Modern'; font-size: 15px; fill: rgb(42, 63, 95); fill-opacity: 1; white-space: pre; opacity: 1;">0</text></g><g class="y3tick"><text text-anchor="end" x="59" y="5.25" style="font-family: 'New Computer Modern'; font-size: 15px; fill: rgb(42, 63, 95); fill-opacity: 1; white-space: pre; opacity: 1;" transform="translate(0,1008.075)">100</text></g><g class="y3tick"><text text-anchor="end" x="59" y="5.25" style="font-family: 'New Computer Modern'; font-size: 15px; fill: rgb(42, 63, 95); fill-opacity: 1; white-space: pre; opacity: 1;" transform="translate(0,946.9950000000001)">200</text></g><g class="y3tick"><text text-anchor="end" x="59" y="5.25" style="font-family: 'New Computer Modern'; font-size: 15px; fill: rgb(42, 63, 95); fill-opacity: 1; white-space: pre; opacity: 1;" transform="translate(0,885.9250000000001)">300</text></g><g class="y3tick"><text text-anchor="end" x="59" y="5.25" style="font-family: 'New Computer Modern'; font-size: 15px; fill: rgb(42, 63, 95); fill-opacity: 1; white-space: pre; opacity: 1;" transform="translate(0,824.845)">400</text></g><g class="y3tick"><text text-anchor="end" x="59" y="5.25" style="font-family: 'New Computer Modern'; font-size: 15px; fill: rgb(42, 63, 95); fill-opacity: 1; white-space: pre; opacity: 1;" transform="translate(0,763.7650000000001)">500</text></g></g><g class="overaxes-above"/></g><g class="subplot x4y4"><g class="layer-subplot"><g class="shapelayer"/><g class="imagelayer"/></g><g class="minor-gridlayer"><g class="x4"/><g class="y4"/></g><g class="gridlayer"><g class="x4"><path class="x4grid crisp" transform="translate(256.95,0)" d="M0,1111.5425v321.45750000000004" style="stroke: rgb(255, 255, 255); stroke-opacity: 1; stroke-width: 1px;"/><path class="x4grid crisp" transform="translate(405.65,0)" d="M0,1111.5425v321.45750000000004" style="stroke: rgb(255, 255, 255); stroke-opacity: 1; stroke-width: 1px;"/><path class="x4grid crisp" transform="translate(554.35,0)" d="M0,1111.5425v321.45750000000004" style="stroke: rgb(255, 255, 255); stroke-opacity: 1; stroke-width: 1px;"/><path class="x4grid crisp" transform="translate(703.05,0)" d="M0,1111.5425v321.45750000000004" style="stroke: rgb(255, 255, 255); stroke-opacity: 1; stroke-width: 1px;"/><path class="x4grid crisp" transform="translate(851.75,0)" d="M0,1111.5425v321.45750000000004" style="stroke: rgb(255, 255, 255); stroke-opacity: 1; stroke-width: 1px;"/></g><g class="y4"><path class="y4grid crisp" transform="translate(0,1431.3925)" d="M60,0h840" style="stroke: rgb(255, 255, 255); stroke-opacity: 1; stroke-width: 1px;"/><path class="y4grid crisp" transform="translate(0,1387.9925)" d="M60,0h840" style="stroke: rgb(255, 255, 255); stroke-opacity: 1; stroke-width: 1px;"/><path class="y4grid crisp" transform="translate(0,1344.6025)" d="M60,0h840" style="stroke: rgb(255, 255, 255); stroke-opacity: 1; stroke-width: 1px;"/><path class="y4grid crisp" transform="translate(0,1301.2025)" d="M60,0h840" style="stroke: rgb(255, 255, 255); stroke-opacity: 1; stroke-width: 1px;"/><path class="y4grid crisp" transform="translate(0,1257.8025)" d="M60,0h840" style="stroke: rgb(255, 255, 255); stroke-opacity: 1; stroke-width: 1px;"/><path class="y4grid crisp" transform="translate(0,1214.4125)" d="M60,0h840" style="stroke: rgb(255, 255, 255); stroke-opacity: 1; stroke-width: 1px;"/><path class="y4grid crisp" transform="translate(0,1171.0125)" d="M60,0h840" style="stroke: rgb(255, 255, 255); stroke-opacity: 1; stroke-width: 1px;"/></g></g><g class="zerolinelayer"><path class="x4zl zl crisp" transform="translate(108.25,0)" d="M0,1111.5425v321.45750000000004" style="stroke: rgb(255, 255, 255); stroke-opacity: 1; stroke-width: 2px;"/><path class="y4zl zl crisp" transform="translate(0,1127.6125)" d="M60,0h840" style="stroke: rgb(255, 255, 255); stroke-opacity: 1; stroke-width: 2px;"/></g><path class="xlines-below"/><path class="ylines-below"/><g class="overlines-below"/><g class="xaxislayer-below"/><g class="yaxislayer-below"/><g class="overaxes-below"/><g class="plot" transform="translate(60,1111.5425)" clip-path="url(#clipa9b26ex4y4plot)"><g class="scatterlayer mlayer"><g class="trace scatter tracea5b57d" style="stroke-miterlimit: 2;"><g class="fills"><g><path class="js-fill" d="M791.75,16.07L48.25,16.07L48.25,16.07L48.25,305.38L51.99,303.2L175.28,231.96L179.02,229.85L242.53,194.57L246.27,192.54L302.31,162.87L306.05,160.94L362.09,133.08L365.83,131.29L418.13,107.3L421.87,105.67L462.97,88.43L466.7,86.93L511.54,69.97L515.27,68.64L556.37,54.98L560.11,53.82L597.47,43.12L601.2,42.14L634.83,34.04L638.57,33.23L672.19,26.69L675.93,26.06L709.55,21.18L713.29,20.74L746.92,17.62L750.65,17.37L784.28,16.12L788.01,16.08L791.75,16.07L791.75,16.07" style="fill: rgb(144, 238, 144); fill-opacity: 0.5; stroke-width: 0;"/></g></g><g class="errorbars"/><g class="lines"><path class="js-line" d="M48.25,16.07L48.25,305.38L51.99,303.2L175.28,231.96L179.02,229.85L242.53,194.57L246.27,192.54L302.31,162.87L306.05,160.94L362.09,133.08L365.83,131.29L418.13,107.3L421.87,105.67L462.97,88.43L466.7,86.93L511.54,69.97L515.27,68.64L556.37,54.98L560.11,53.82L597.47,43.12L601.2,42.14L634.83,34.04L638.57,33.23L672.19,26.69L675.93,26.06L709.55,21.18L713.29,20.74L746.92,17.62L750.65,17.37L784.28,16.12L788.01,16.08L791.75,16.07L791.75,16.07" style="vector-effect: none; fill: none; stroke: rgb(144, 238, 144); stroke-opacity: 1; stroke-width: 1px; opacity: 1;"/></g><g class="points"/><g class="text"/></g></g></g><g class="overplot"/><path class="xlines-above crisp" d="M0,0" style="fill: none;"/><path class="ylines-above crisp" d="M0,0" style="fill: none;"/><g class="overlines-above"/><g class="xaxislayer-above"><g class="x4tick"><text text-anchor="middle" x="0" y="1449" transform="translate(108.25,0)" style="font-family: 'New Computer Modern'; font-size: 15px; fill: rgb(42, 63, 95); fill-opacity: 1; white-space: pre; opacity: 1;">0</text></g><g class="x4tick"><text text-anchor="middle" x="0" y="1449" style="font-family: 'New Computer Modern'; font-size: 15px; fill: rgb(42, 63, 95); fill-opacity: 1; white-space: pre; opacity: 1;" transform="translate(256.95,0)">0.2</text></g><g class="x4tick"><text text-anchor="middle" x="0" y="1449" style="font-family: 'New Computer Modern'; font-size: 15px; fill: rgb(42, 63, 95); fill-opacity: 1; white-space: pre; opacity: 1;" transform="translate(405.65,0)">0.4</text></g><g class="x4tick"><text text-anchor="middle" x="0" y="1449" style="font-family: 'New Computer Modern'; font-size: 15px; fill: rgb(42, 63, 95); fill-opacity: 1; white-space: pre; opacity: 1;" transform="translate(554.35,0)">0.6</text></g><g class="x4tick"><text text-anchor="middle" x="0" y="1449" style="font-family: 'New Computer Modern'; font-size: 15px; fill: rgb(42, 63, 95); fill-opacity: 1; white-space: pre; opacity: 1;" transform="translate(703.05,0)">0.8</text></g><g class="x4tick"><text text-anchor="middle" x="0" y="1449" style="font-family: 'New Computer Modern'; font-size: 15px; fill: rgb(42, 63, 95); fill-opacity: 1; white-space: pre; opacity: 1;" transform="translate(851.75,0)">1</text></g></g><g class="yaxislayer-above"><g class="y4tick"><text text-anchor="end" x="59" y="5.25" transform="translate(0,1431.3925)" style="font-family: 'New Computer Modern'; font-size: 15px; fill: rgb(42, 63, 95); fill-opacity: 1; white-space: pre; opacity: 1;">−350</text></g><g class="y4tick"><text text-anchor="end" x="59" y="5.25" style="font-family: 'New Computer Modern'; font-size: 15px; fill: rgb(42, 63, 95); fill-opacity: 1; white-space: pre; opacity: 1;" transform="translate(0,1387.9925)">−300</text></g><g class="y4tick"><text text-anchor="end" x="59" y="5.25" style="font-family: 'New Computer Modern'; font-size: 15px; fill: rgb(42, 63, 95); fill-opacity: 1; white-space: pre; opacity: 1;" transform="translate(0,1344.6025)">−250</text></g><g class="y4tick"><text text-anchor="end" x="59" y="5.25" style="font-family: 'New Computer Modern'; font-size: 15px; fill: rgb(42, 63, 95); fill-opacity: 1; white-space: pre; opacity: 1;" transform="translate(0,1301.2025)">−200</text></g><g class="y4tick"><text text-anchor="end" x="59" y="5.25" style="font-family: 'New Computer Modern'; font-size: 15px; fill: rgb(42, 63, 95); fill-opacity: 1; white-space: pre; opacity: 1;" transform="translate(0,1257.8025)">−150</text></g><g class="y4tick"><text text-anchor="end" x="59" y="5.25" style="font-family: 'New Computer Modern'; font-size: 15px; fill: rgb(42, 63, 95); fill-opacity: 1; white-space: pre; opacity: 1;" transform="translate(0,1214.4125)">−100</text></g><g class="y4tick"><text text-anchor="end" x="59" y="5.25" style="font-family: 'New Computer Modern'; font-size: 15px; fill: rgb(42, 63, 95); fill-opacity: 1; white-space: pre; opacity: 1;" transform="translate(0,1171.0125)">−50</text></g><g class="y4tick"><text text-anchor="end" x="59" y="5.25" style="font-family: 'New Computer Modern'; font-size: 15px; fill: rgb(42, 63, 95); fill-opacity: 1; white-space: pre; opacity: 1;" transform="translate(0,1127.6125)">0</text></g></g><g class="overaxes-above"/></g></g><g class="polarlayer"/><g class="smithlayer"/><g class="ternarylayer"/><g class="geolayer"/><g class="funnelarealayer"/><g class="pielayer"/><g class="iciclelayer"/><g class="treemaplayer"/><g class="sunburstlayer"/><g class="glimages"/><defs id="topdefs-a9b26e"><g class="clips"/></defs><g class="layer-above"><g class="imagelayer"/><g class="shapelayer"><g class="shape-group" data-index="0" clip-path="url(#clipa9b26exy)"><path data-index="0" fill-rule="evenodd" d="M106.25,185.73H106.25V175.73H106.25Z" style="opacity: 1; stroke: rgb(0, 0, 255); stroke-opacity: 1; fill: rgb(0, 0, 255); fill-opacity: 1; stroke-width: 4px;"/></g><g class="shape-group" data-index="1" clip-path="url(#clipa9b26exy)"><path data-index="1" fill-rule="evenodd" d="M851.75,180.73L848.75,177.73" style="opacity: 1; stroke: rgb(147, 112, 219); stroke-opacity: 1; fill: rgb(0, 0, 0); fill-opacity: 0; stroke-width: 2px;"/></g><g class="shape-group" data-index="2" clip-path="url(#clipa9b26exy)"><path data-index="2" fill-rule="evenodd" d="M851.75,180.73L854.75,177.73" style="opacity: 1; stroke: rgb(147, 112, 219); stroke-opacity: 1; fill: rgb(0, 0, 0); fill-opacity: 0; stroke-width: 2px;"/></g><g class="shape-group" data-index="3" clip-path="url(#clipa9b26exy)"><path data-index="3" fill-rule="evenodd" d="M851.75,180.73L851.75,150.73" style="opacity: 1; stroke: rgb(147, 112, 219); stroke-opacity: 1; fill: rgb(0, 0, 0); fill-opacity: 0; stroke-width: 2px;"/></g><g class="shape-group" data-index="4" clip-path="url(#clipa9b26ex2y2)"><path data-index="4" fill-rule="evenodd" d="M108.25,544.5774999999999L111.25,547.5774999999999" style="opacity: 1; stroke: rgb(255, 0, 0); stroke-opacity: 1; fill: rgb(0, 0, 0); fill-opacity: 0; stroke-width: 2px;"/></g><g class="shape-group" data-index="5" clip-path="url(#clipa9b26ex2y2)"><path data-index="5" fill-rule="evenodd" d="M108.25,544.5774999999999L105.25,547.5774999999999" style="opacity: 1; stroke: rgb(255, 0, 0); stroke-opacity: 1; fill: rgb(0, 0, 0); fill-opacity: 0; stroke-width: 2px;"/></g><g class="shape-group" data-index="6" clip-path="url(#clipa9b26ex2y2)"><path data-index="6" fill-rule="evenodd" d="M108.25,544.5774999999999L108.25,584.5774999999999" style="opacity: 1; stroke: rgb(255, 0, 0); stroke-opacity: 1; fill: rgb(0, 0, 0); fill-opacity: 0; stroke-width: 2px;"/></g></g></g><g class="infolayer"><g class="g-gtitle"/><g class="g-xtitle"/><g class="g-x2title"/><g class="g-x3title"/><g class="g-x4title" transform="translate(0,-3.099999999999909)"><text class="x4title" x="480" y="1479.1" text-anchor="middle" style="font-family: 'New Computer Modern'; font-size: 18px; fill: rgb(42, 63, 95); opacity: 1; font-weight: normal; white-space: pre;">Beam length [m]</text></g><g class="g-y3title" transform="translate(6.6015625,0)"><text class="y3title" transform="rotate(-90,9.399999999999999,908.42375)" x="9.399999999999999" y="908.42375" text-anchor="middle" style="font-family: 'New Computer Modern'; font-size: 18px; fill: rgb(42, 63, 95); opacity: 1; font-weight: normal; white-space: pre;">Shear force [N]</text></g><g class="g-y4title" transform="translate(15.07421875,0)"><text class="y4title" transform="rotate(-90,0.9312499999999986,1272.27125)" x="0.9312499999999986" y="1272.27125" text-anchor="middle" style="font-family: 'New Computer Modern'; font-size: 18px; fill: rgb(42, 63, 95); opacity: 1; font-weight: normal; white-space: pre;">Bending moment [N⋅m]</text></g><g class="annotation" data-index="0" style="opacity: 1;"><g class="annotation-text-g" transform="rotate(0,480,9.999999999999996)"><g class="cursor-pointer" transform="translate(427,0)"><rect class="bg" x="0.5" y="0.5" width="105" height="19" style="stroke-width: 1px; stroke: rgb(0, 0, 0); stroke-opacity: 0; fill: rgb(0, 0, 0); fill-opacity: 0;"/><text class="annotation-text" text-anchor="middle" x="52.609375" y="15" style="font-family: 'New Computer Modern'; font-size: 15px; fill: rgb(42, 63, 95); fill-opacity: 1; white-space: pre;">Beam Schematic</text></g></g></g><g class="annotation" data-index="1" style="opacity: 1;"><g class="annotation-text-g" transform="rotate(0,480,373.8474999999999)"><g class="cursor-pointer" transform="translate(430,364)"><rect class="bg" x="0.5" y="0.5" width="100" height="19" style="stroke-width: 1px; stroke: rgb(0, 0, 0); stroke-opacity: 0; fill: rgb(0, 0, 0); fill-opacity: 0;"/><text class="annotation-text" text-anchor="middle" x="50.53125" y="15" style="font-family: 'New Computer Modern'; font-size: 15px; fill: rgb(42, 63, 95); fill-opacity: 1; white-space: pre;">Reaction Forces</text></g></g></g><g class="annotation" data-index="2" style="opacity: 1;"><g class="annotation-text-g" transform="rotate(0,480,737.695)"><g class="cursor-pointer" transform="translate(414,728)"><rect class="bg" x="0.5" y="0.5" width="132" height="19" style="stroke-width: 1px; stroke: rgb(0, 0, 0); stroke-opacity: 0; fill: rgb(0, 0, 0); fill-opacity: 0;"/><text class="annotation-text" text-anchor="middle" x="66.15625" y="15" style="font-family: 'New Computer Modern'; font-size: 15px; fill: rgb(42, 63, 95); fill-opacity: 1; white-space: pre;">Shear Force Diagram</text></g></g></g><g class="annotation" data-index="3" style="opacity: 1;"><g class="annotation-text-g" transform="rotate(0,480,1101.5425)"><g class="cursor-pointer" transform="translate(397,1092)"><rect class="bg" x="0.5" y="0.5" width="165" height="19" style="stroke-width: 1px; stroke: rgb(0, 0, 0); stroke-opacity: 0; fill: rgb(0, 0, 0); fill-opacity: 0;"/><text class="annotation-text" text-anchor="middle" x="82.828125" y="15" style="font-family: 'New Computer Modern'; font-size: 15px; fill: rgb(42, 63, 95); fill-opacity: 1; white-space: pre;">Bending Moment Diagram</text></g></g></g><g class="annotation" data-index="4" style="opacity: 1;"><g class="annotation-text-g" transform="rotate(0,851.75,141.73)"><g class="cursor-pointer" transform="translate(804,132)"><rect class="bg" x="0.5" y="0.5" width="95" height="19" style="stroke-width: 1px; stroke: rgb(0, 0, 0); stroke-opacity: 0; fill: rgb(0, 0, 0); fill-opacity: 0;"/><text class="annotation-text" text-anchor="middle" x="47.84375" y="15" style="font-family: 'New Computer Modern'; font-size: 15px; fill: rgb(147, 112, 219); fill-opacity: 1; white-space: pre;">-1000.000 N/m</text></g></g></g><g class="annotation" data-index="5" style="opacity: 1;"><g class="annotation-text-g" transform="rotate(0,108.25,596.5774999999999)"><g class="cursor-pointer" transform="translate(74,587)"><rect class="bg" x="0.5" y="0.5" width="67" height="19" style="stroke-width: 1px; stroke: rgb(0, 0, 0); stroke-opacity: 0; fill: rgb(0, 0, 0); fill-opacity: 0;"/><text class="annotation-text" text-anchor="middle" x="33.671875" y="15" style="font-family: 'New Computer Modern'; font-size: 15px; fill: rgb(255, 0, 0); fill-opacity: 1; white-space: pre;">500.000 N</text></g></g></g><g class="annotation" data-index="6" style="opacity: 1;"><g class="annotation-text-g" transform="rotate(0,108.25,544.5774999999999)"><g class="cursor-pointer" transform="translate(103,535)"><rect class="bg" x="0.5" y="0.5" width="9" height="19" style="stroke-width: 1px; stroke: rgb(0, 0, 0); stroke-opacity: 0; fill: rgb(0, 0, 0); fill-opacity: 0;"/><text class="annotation-text" text-anchor="middle" x="4.75" y="15" style="font-family: 'New Computer Modern'; font-size: 15px; fill: rgb(255, 0, 255); fill-opacity: 1; white-space: pre;">⭯</text></g></g></g><g class="annotation" data-index="7" style="opacity: 1;"><g class="annotation-text-g" transform="rotate(0,108.25,564.5774999999999)"><g class="cursor-pointer" transform="translate(67,555)"><rect class="bg" x="0.5" y="0.5" width="82" height="19" style="stroke-width: 1px; stroke: rgb(0, 0, 0); stroke-opacity: 0; fill: rgb(0, 0, 0); fill-opacity: 0;"/><text class="annotation-text" text-anchor="middle" x="41.375" y="15" style="font-family: 'New Computer Modern'; font-size: 15px; fill: rgb(255, 0, 255); fill-opacity: 1; white-space: pre;">333.333 N.m</text></g></g></g></g></svg>