<svg class="main-svg" xmlns="http://www.w3.org/2000/svg" xmlns:xlink="http://www.w3.org/1999/xlink" width="900" height="1480" style="" viewBox="0 0 900 1480"><rect x="0" y="0" width="900" height="1480" style="fill: rgb(0, 0, 0); fill-opacity: 0;"/><defs id="defs-106bf8"><g class="clips"><clipPath id="clip106bf8xyplot" class="plotclip"><rect width="840" height="321.45750000000004"/></clipPath><clipPath id="clip106bf8x2y2plot" class="plotclip"><rect width="840" height="321.45750000000004"/></clipPath><clipPath id="clip106bf8x3y3plot" class="plotclip"><rect width="840" height="321.4575"/></clipPath><clipPath id="clip106bf8x4y4plot" class="plotclip"><rect width="840" height="321.45750000000004"/></clipPath><clipPath class="axesclip" id="clip106bf8x"><rect x="60" y="0" width="840" height="1480"/></clipPath><clipPath class="axesclip" id="clip106bf8y"><rect x="0" y="20" width="900" height="321.45750000000004"/></clipPath><clipPath class="axesclip" id="clip106bf8xy"><rect x="60" y="20" width="840" height="321.45750000000004"/></clipPath><clipPath class="axesclip" id="clip106bf8y2"><rect x="0" y="383.8474999999999" width="900" height="321.45750000000004"/></clipPath><clipPath class="axesclip" id="clip106bf8xy2"><rect x="60" y="383.8474999999999" width="840" height="321.45750000000004"/></clipPath><clipPath class="axesclip" id="clip106bf8y3"><rect x="0" y="747.695" width="900" height="321.4575"/></clipPath><clipPath class="axesclip" id="clip106bf8xy3"><rect x="60" y="747.695" width="840" height="321.4575"/></clipPath><clipPath class="axesclip" id="clip106bf8y4"><rect x="0" y="1111.5425" width="900" height="321.45750000000004"/></clipPath><clipPath class="axesclip" id="clip106bf8xy4"><rect x="60" y="1111.5425" width="840" height="321.45750000000004"/></clipPath><clipPath class="axesclip" id="clip106bf8x2"><rect x="60" y="0" width="840" height="1480"/></clipPath><clipPath class="axesclip" id="clip106bf8x2y"><rect x="60" y="20" width="840" height="321.45750000000004"/></clipPath><clipPath class="axesclip" id="clip106bf8x2y2"><rect x="60" y="383.8474999999999" width="840" height="321.45750000000004"/></clipPath><clipPath class="axesclip" id="clip106bf8x2y3"><rect x="60" y="747.695" width="840" height="321.4575"/></clipPath><clipPath class="axesclip" id="clip106bf8x2y4"><rect x="60" y="1111.5425" width="840" height="321.45750000000004"/></clipPath><clipPath class="axesclip" id="clip106bf8x3"><rect x="60" y="0" width="840" height="1480"/></clipPath><clipPath class="axesclip" id="clip106bf8x3y"><rect x="60" y="20" width="840" height="321.45750000000004"/></clipPath><clipPath class="axesclip" id="clip106bf8x3y2"><rect x="60" y="383.8474999999999" width="840" height="321.45750000000004"/></clipPath><clipPath class="axesclip" id="clip106bf8x3y3"><rect x="60" y="747.695" width="840" height="321.4575"/></clipPath><clipPath class="axesclip" id="clip106bf8x3y4"><rect x="60" y="1111.5425" width="840" height="321.45750000000004"/></clipPath><clipPath class="axesclip" id="clip106bf8x4"><rect x="60" y="0" width="840" height="1480"/></clipPath><clipPath class="axesclip" id="clip106bf8x4y"><rect x="60" y="20" width="840" height="321.45750000000004"/></clipPath><clipPath class="axesclip" id="clip106bf8x4y2"><rect x="60" y="383.8474999999999" width="840" height="321.45750000000004"/></clipPath><clipPath class="axesclip" id="clip106bf8x4y3"><rect x="60" y="747.695" width="840" height="321.4575"/></clipPath><clipPath class="axesclip" id="clip106bf8x4y4"><rect x="60" y="1111.5425" width="840" height="321.45750000000004"/></clipPath></g><g class="gradients"/><g class="patterns"/></defs><g class="bglayer"><rect class="bg" x="60" y="20" width="840" height="321.45750000000004" style="fill: rgb(229, 236, 246); fill-opacity: 1; stroke-width: 0;"/><rect class="bg" x="60" y="383.8474999999999" width="840" height="321.45750000000004" style="fill: rgb(229, 236, 246); fill-opacity: 1; stroke-width: 0;"/><rect class="bg" x="60" y="747.695" width="840" height="321.4575" style="fill: rgb(229, 236, 246); fill-opacity: 1; stroke-width: 0;"/><rect class="bg" x="60" y="1111.5425" width="840" height="321.45750000000004" style="fill: rgb(229, 236, 246); fill-opacity: 1; stroke-width: 0;"/></g><g class="layer-below"><g class="imagelayer"/><g class="shapelayer"/></g><g class="cartesianlayer"><g class="subplot xy"><g class="layer-subplot"><g class="shapelayer"/><g class="imagelayer"/></g><g class="minor-gridlayer"><g class="x"/><g class="y"/></g><g class="gridlayer"><g class="x"><path class="xgrid crisp" transform="translate(256.95,0)" d="M0,20v321.45750000000004" style="stroke: rgb(255, 255, 255); stroke-opacity: 1; stroke-width: 1px;"/><path class="xgrid crisp" transform="translate(405.65,0)" d="M0,20v321.45750000000004" style="stroke: rgb(255, 255, 255); stroke-opacity: 1; stroke-width: 1px;"/><path class="xgrid crisp" transform="translate(554.35,0)" d="M0,20v321.45750000000004" style="stroke: rgb(255, 255, 255); stroke-opacity: 1; stroke-width: 1px;"/><path class="xgrid crisp" transform="translate(703.05,0)" d="M0,20v321.45750000000004" style="stroke: rgb(255, 255, 255); stroke-opacity: 1; stroke-width: 1px;"/><path class="xgrid crisp" transform="translate(851.75,0)" d="M0,20v321.45750000000004" style="stroke: rgb(255, 255, 255); stroke-opacity: 1; stroke-width: 1px;"/></g><g class="y"/></g><g class="zerolinelayer"><path class="xzl zl crisp" transform="translate(108.25,0)" d="M0,20v321.45750000000004" style="stroke: rgb(255, 255, 255); stroke-opacity: 1; stroke-width: 2px;"/></g><path class="xlines-below"/><path class="ylines-below"/><g class="overlines-below"/><g class="xaxislayer-below"/><g class="yaxislayer-below"/><g class="overaxes-below"/><g class="plot" transform="translate(60,20)" clip-path="url(#clip106bf8xyplot)"><g class="scatterlayer mlayer"><g class="trace scatter trace84f363" style="stroke-miterlimit: 2; opacity: 1;"><g class="fills"/><g class="errorbars"/><g class="lines"><path class="js-line" d="M48.25,160.73L791.75,160.73" style="vector-effect: none; fill: none; stroke: rgb(128, 0, 128); stroke-opacity: 1; stroke-width: 2px; opacity: 1;"/></g><g class="points"/><g class="text"/></g><g class="trace scatter trace1a7194" style="stroke-miterlimit: 2; opacity: 0;"><g class="fills"/><g class="errorbars"/><g class="lines"/><g class="points"><path class="point" transform="translate(48.25,160.73)" d="M-5.77,2.5H5.77L0,-5Z" style="opacity: 1; stroke-width: 0px; fill: rgb(0, 0, 255); fill-opacity: 1;"/></g><g class="text"/></g><g class="trace scatter trace76f5a9" style="stroke-miterlimit: 2; opacity: 0;"><g class="fills"/><g class="errorbars"/><g class="lines"/><g class="points"><path class="point" transform="translate(791.75,160.73)" d="M-5.77,2.5H5.77L0,-5Z" style="opacity: 1; stroke-width: 0px; fill: rgb(0, 0, 255); fill-opacity: 1;"/></g><g class="text"/></g><g class="trace scatter tracea370ec" style="stroke-miterlimit: 2;"><g class="fills"><g><path class="js-fill" d="M791.75,160.73L48.25,160.73L48.25,107.15L791.75,107.15" style="fill: rgb(147, 112, 219); fill-opacity: 0.5; stroke-width: 0;"/></g></g><g class="errorbars"/><g class="lines"><path class="js-line" d="M48.25,107.15L791.75,107.15" style="vector-effect: none; fill: none; stroke: rgb(147, 112, 219); stroke-opacity: 1; stroke-width: 1px; opacity: 1;"/></g><g class="points"/><g class="text"/></g><g class="trace scatter traceef87f7" style="stroke-miterlimit: 2; opacity: 0;"><g class="fills"/><g class="errorbars"/><g class="lines"/><g class="points"><path class="point" transform="translate(48.25,160.73)" d="M-5.77,2.5H5.77L0,-5Z" style="opacity: 1; stroke-width: 0px; fill: rgb(147, 112, 219); fill-opacity: 1;"/></g><g class="text"/></g><g class="trace scatter tracebaf246" style="stroke-miterlimit: 2; opacity: 0;"><g class="fills"/><g class="errorbars"/><g class="lines"/><g class="points"><path class="point" transform="translate(791.75,160.73)" d="M-5.77,2.5H5.77L0,-5Z" style="opacity: 1; stroke-width: 0px; fill: rgb(147, 112, 219); fill-opacity: 1;"/></g><g class="text"/></g></g></g><g class="overplot"/><path class="xlines-above crisp" d="M0,0" style="fill: none;"/><path class="ylines-above crisp" d="M0,0" style="fill: none;"/><g class="overlines-above"/><g class="xaxislayer-above"/><g class="yaxislayer-above"/><g class="overaxes-above"/></g><g class="subplot x2y2"><g class="layer-subplot"><g class="shapelayer"/><g class="imagelayer"/></g><g class="minor-gridlayer"><g class="x2"/><g class="y2"/></g><g class="gridlayer"><g class="x2"><path class="x2grid crisp" transform="translate(256.95,0)" d="M0,383.8474999999999v321.45750000000004" style="stroke: rgb(255, 255, 255); stroke-opacity: 1; stroke-width: 1px;"/><path class="x2grid crisp" transform="translate(405.65,0)" d="M0,383.8474999999999v321.45750000000004" style="stroke: rgb(255, 255, 255); stroke-opacity: 1; stroke-width: 1px;"/><path class="x2grid crisp" transform="translate(554.35,0)" d="M0,383.8474999999999v321.45750000000004" style="stroke: rgb(255, 255, 255); stroke-opacity: 1; stroke-width: 1px;"/><path class="x2grid crisp" transform="translate(703.05,0)" d="M0,383.8474999999999v321.45750000000004" style="stroke: rgb(255, 255, 255); stroke-opacity: 1; stroke-width: 1px;"/><path class="x2grid crisp" transform="translate(851.75,0)" d="M0,383.8474999999999v321.45750000000004" style="stroke: rgb(255, 255, 255); stroke-opacity: 1; stroke-width: 1px;"/></g><g class="y2"/></g><g class="zerolinelayer"><path class="x2zl zl crisp" transform="translate(108.25,0)" d="M0,383.8474999999999v321.45750000000004" style="stroke: rgb(255, 255, 255); stroke-opacity: 1; stroke-width: 2px;"/></g><path class="xlines-below"/><path class="ylines-below"/><g class="overlines-below"/><g class="xaxislayer-below"/><g class="yaxislayer-below"/><g class="overaxes-below"/><g class="plot" transform="translate(60,383.8474999999999)" clip-path="url(#clip106bf8x2y2plot)"><g class="scatterlayer mlayer"><g class="trace scatter trace8f9d5b" style="stroke-miterlimit: 2; opacity: 1;"><g class="fills"/><g class="errorbars"/><g class="lines"><path class="js-line" d="M48.25,160.73L791.75,160.73" style="vector-effect: none; fill: none; stroke: rgb(128, 0, 128); stroke-opacity: 1; stroke-width: 2px; opacity: 1;"/></g><g class="points"/><g class="text"/></g><g class="trace scatter trace8decd4" style="stroke-miterlimit: 2; opacity: 0;"><g class="fills"/><g class="errorbars"/><g class="lines"/><g class="points"><path class="point" transform="translate(48.25,160.73)" d="M-5.77,2.5H5.77L0,-5Z" style="opacity: 1; stroke-width: 0px; fill: rgb(255, 0, 0); fill-opacity: 1;"/></g><g class="text"/></g><g class="trace scatter trace517810" style="stroke-miterlimit: 2; opacity: 0;"><g class="fills"/><g class="errorbars"/><g class="lines"/><g class="points"><path class="point" transform="translate(791.75,160.73)" d="M-5.77,2.5H5.77L0,-5Z" style="opacity: 1; stroke-width: 0px; fill: rgb(255, 0, 0); fill-opacity: 1;"/></g><g class="text"/></g></g></g><g class="overplot"/><path class="xlines-above crisp" d="M0,0" style="fill: none;"/><path class="ylines-above crisp" d="M0,0" style="fill: none;"/><g class="overlines-above"/><g class="xaxislayer-above"/><g class="yaxislayer-above"/><g class="overaxes-above"/></g><g class="subplot x3y3"><g class="layer-subplot"><g class="shapelayer"/><g class="imagelayer"/></g><g class="minor-gridlayer"><g class="x3"/><g class="y3"/></g><g class="gridlayer"><g class="x3"><path class="x3grid crisp" transform="translate(256.95,0)" d="M0,747.695v321.4575" style="stroke: rgb(255, 255, 255); stroke-opacity: 1; stroke-width: 1px;"/><path class="x3grid crisp" transform="translate(405.65,0)" d="M0,747.695v321.4575" style="stroke: rgb(255, 255, 255); stroke-opacity: 1; stroke-width: 1px;"/><path class="x3grid crisp" transform="translate(554.35,0)" d="M0,747.695v321.4575" style="stroke: rgb(255, 255, 255); stroke-opacity: 1; stroke-width: 1px;"/><path class="x3grid crisp" transform="translate(703.05,0)" d="M0,747.695v321.4575" style="stroke: rgb(255, 255, 255); stroke-opacity: 1; stroke-width: 1px;"/><path class="x3grid crisp" transform="translate(851.75,0)" d="M0,747.695v321.4575" style="stroke: rgb(255, 255, 255); stroke-opacity: 1; stroke-width: 1px;"/></g><g class="y3"><path class="y3grid crisp" transform="translate(0,1024.145)" d="M60,0h840" style="stroke: rgb(255, 255, 255); stroke-opacity: 1; stroke-width: 1px;"/><path class="y3grid crisp" transform="translate(0,966.2850000000001)" d="M60,0h840" style="stroke: rgb(255, 255, 255); stroke-opacity: 1; stroke-width: 1px;"/><path class="y3grid crisp" transform="translate(0,850.565)" d="M60,0h840" style="stroke: rgb(255, 255, 255); stroke-opacity: 1; stroke-width: 1px;"/><path class="y3grid crisp" transform="translate(0,792.695)" d="M60,0h840" style="stroke: rgb(255, 255, 255); stroke-opacity: 1; stroke-width: 1px;"/></g></g><g class="zerolinelayer"><path class="x3zl zl crisp" transform="translate(108.25,0)" d="M0,747.695v321.4575" style="stroke: rgb(255, 255, 255); stroke-opacity: 1; stroke-width: 2px;"/><path class="y3zl zl crisp" transform="translate(0,908.4250000000001)" d="M60,0h840" style="stroke: rgb(255, 255, 255); stroke-opacity: 1; stroke-width: 2px;"/></g><path class="xlines-below"/><path class="ylines-below"/><g class="overlines-below"/><g class="xaxislayer-below"/><g class="yaxislayer-below"/><g class="overaxes-below"/><g class="plot" transform="translate(60,747.695)" clip-path="url(#clip106bf8x3y3plot)"><g class="scatterlayer mlayer"><g class="trace scatter traceb4cb59" style="stroke-miterlimit: 2;"><g class="fills"><g><path class="js-fill" d="M791.75,160.73L48.25,160.73L48.25,160.73L48.25,16.07L51.99,17.53L791.75,305.38L791.75,305.38" style="fill: rgb(0, 255, 255); fill-opacity: 0.5; stroke-width: 0;"/></g></g><g class="errorbars"/><g class="lines"><path class="js-line" d="M48.25,160.73L48.25,16.07L51.99,17.53L791.75,305.38L791.75,305.38" style="vector-effect: none; fill: none; stroke: rgb(0, 255, 255); stroke-opacity: 1; stroke-width: 1px; opacity: 1;"/></g><g class="points"/><g class="text"/></g></g></g><g class="overplot"/><path class="xlines-above crisp" d="M0,0" style="fill: none;"/><path class="ylines-above crisp" d="M0,0" style="fill: none;"/><g class="overlines-above"/><g class="xaxislayer-above"/><g class="yaxislayer-above"><g class="y3tick"><text text-anchor="end" x="59" y="5.25" transform="translate(0,1024.145)" style="font-family: 'New Computer Modern'; font-size: 15px; fill: rgb(42, 63, 95); fill-opacity: 1; white-space: pre; opacity: 1;">−400</text></g><g class="y3tick"><text text-anchor="end" x="59" y="5.25" style="font-family: 'New Computer Modern'; font-size: 15px; fill: rgb(42, 63, 95); fill-opacity: 1; white-space: pre; opacity: 1;" transform="translate(0,966.2850000000001)">−200</text></g><g class="y3tick"><text text-anchor="end" x="59" y="5.25" style="font-family: 'New Computer Modern'; font-size: 15px; fill: rgb(42, 63, 95); fill-opacity: 1; white-space: pre; opacity: 1;" transform="translate(0,908.4250000000001)">0</text></g><g class="y3tick"><text text-anchor="end" x="59" y="5.25" style="font-family: 'New Computer Modern'; font-size: 15px; fill: rgb(42, 63, 95); fill-opacity: 1; white-space: pre; opacity: 1;" transform="translate(0,850.565)">200</text></g><g class="y3tick"><text text-anchor="end" x="59" y="5.25" style="font-family: 'New Computer Modern'; font-size: 15px; fill: rgb(42, 63, 95); fill-opacity: 1; white-space: pre; opacity: 1;" transform="translate(0,792.695)">400</text></g></g><g class="overaxes-above"/></g><g class="subplot x4y4"><g class="layer-subplot"><g class="shapelayer"/><g class="imagelayer"/></g><g class="minor-gridlayer"><g class="x4"/><g class="y4"/></g><g class="gridlayer"><g class="x4"><path class="x4grid crisp" transform="translate(256.95,0)" d="M0,1111.5425v321.45750000000004" style="stroke: rgb(255, 255, 255); stroke-opacity: 1; stroke-width: 1px;"/><path class="x4grid crisp" transform="translate(405.65,0)" d="M0,1111.5425v321.45750000000004" style="stroke: rgb(255, 255, 255); stroke-opacity: 1; stroke-width: 1px;"/><path class="x4grid crisp" transform="translate(554.35,0)" d="M0,1111.5425v321.45750000000004" style="stroke: rgb(255, 255, 255); stroke-opacity: 1; stroke-width: 1px;"/><path class="x4grid crisp" transform="translate(703.05,0)" d="M0,1111.5425v321.45750000000004" style="stroke: rgb(255, 255, 255); stroke-opacity: 1; stroke-width: 1px;"/><path class="x4grid crisp" transform="translate(851.75,0)" d="M0,1111.5425v321.45750000000004" style="stroke: rgb(255, 255, 255); stroke-opacity: 1; stroke-width: 1px;"/></g><g class="y4"><path class="y4grid crisp" transform="translate(0,1409.2125)" d="M60,0h840" style="stroke: rgb(255, 255, 255); stroke-opacity: 1; stroke-width: 1px;"/><path class="y4grid crisp" transform="translate(0,1362.9225000000001)" d="M60,0h840" style="stroke: rgb(255, 255, 255); stroke-opacity: 1; stroke-width: 1px;"/><path class="y4grid crisp" transform="translate(0,1316.6325)" d="M60,0h840" style="stroke: rgb(255, 255, 255); stroke-opacity: 1; stroke-width: 1px;"/><path class="y4grid crisp" transform="translate(0,1270.3425)" d="M60,0h840" style="stroke: rgb(255, 255, 255); stroke-opacity: 1; stroke-width: 1px;"/><path class="y4grid crisp" transform="translate(0,1177.7525)" d="M60,0h840" style="stroke: rgb(255, 255, 255); stroke-opacity: 1; stroke-width: 1px;"/><path class="y4grid crisp" transform="translate(0,1131.4625)" d="M60,0h840" style="stroke: rgb(255, 255, 255); stroke-opacity: 1; stroke-width: 1px;"/></g></g><g class="zerolinelayer"><path class="x4zl zl crisp" transform="translate(108.25,0)" d="M0,1111.5425v321.45750000000004" style="stroke: rgb(255, 255, 255); stroke-opacity: 1; stroke-width: 2px;"/><path class="y4zl zl crisp" transform="translate(0,1224.0525)" d="M60,0h840" style="stroke: rgb(255, 255, 255); stroke-opacity: 1; stroke-width: 2px;"/></g><path class="xlines-below"/><path class="ylines-below"/><g class="overlines-below"/><g class="xaxislayer-below"/><g class="yaxislayer-below"/><g class="overaxes-below"/><g class="plot" transform="translate(60,1111.5425)" clip-path="url(#clip106bf8x4y4plot)"><g class="scatterlayer mlayer"><g class="trace scatter tracec118de" style="stroke-miterlimit: 2;"><g class="fills"><g><path class="js-fill" d="M791.75,112.51L48.25,112.51L48.25,112.51L48.25,305.38L51.99,299.6L78.14,260.73L81.88,255.41L108.03,219.82L111.77,214.97L134.18,187.09L137.92,182.65L160.34,157.22L164.07,153.19L186.49,130.22L190.22,126.6L212.64,106.08L216.38,102.87L238.8,84.81L242.53,82L264.95,66.4L268.68,64L291.1,50.85L294.84,48.86L313.52,39.8L317.26,38.17L335.94,30.86L339.67,29.57L358.35,24.02L362.09,23.09L380.77,19.29L384.51,18.7L403.19,16.66L406.92,16.42L425.6,16.13L429.34,16.25L448.02,17.71L451.76,18.18L470.44,21.39L474.17,22.21L492.86,27.18L496.59,28.35L515.27,35.07L519.01,36.59L537.69,45.06L541.43,46.93L560.11,57.16L563.84,59.38L582.52,71.36L586.26,73.94L608.68,90.59L612.41,93.57L634.83,112.69L638.57,116.08L660.98,137.64L664.72,141.44L687.14,165.46L690.87,169.67L713.29,196.15L717.03,200.76L743.18,234.72L746.92,239.81L773.07,277.04L776.81,282.59L791.75,305.38L791.75,305.38" style="fill: rgb(144, 238, 144); fill-opacity: 0.5; stroke-width: 0;"/></g></g><g class="errorbars"/><g class="lines"><path class="js-line" d="M48.25,112.51L48.25,305.38L51.99,299.6L78.14,260.73L81.88,255.41L108.03,219.82L111.77,214.97L134.18,187.09L137.92,182.65L160.34,157.22L164.07,153.19L186.49,130.22L190.22,126.6L212.64,106.08L216.38,102.87L238.8,84.81L242.53,82L264.95,66.4L268.68,64L291.1,50.85L294.84,48.86L313.52,39.8L317.26,38.17L335.94,30.86L339.67,29.57L358.35,24.02L362.09,23.09L380.77,19.29L384.51,18.7L403.19,16.66L406.92,16.42L425.6,16.13L429.34,16.25L448.02,17.71L451.76,18.18L470.44,21.39L474.17,22.21L492.86,27.18L496.59,28.35L515.27,35.07L519.01,36.59L537.69,45.06L541.43,46.93L560.11,57.16L563.84,59.38L582.52,71.36L586.26,73.94L608.68,90.59L612.41,93.57L634.83,112.69L638.57,116.08L660.98,137.64L664.72,141.44L687.14,165.46L690.87,169.67L713.29,196.15L717.03,200.76L743.18,234.72L746.92,239.81L773.07,277.04L776.81,282.59L791.75,305.38L791.75,305.38" style="vector-effect: none; fill: none; stroke: rgb(144, 238, 144); stroke-opacity: 1; stroke-width: 1px; opacity: 1;"/></g><g class="points"/><g class="text"/></g></g></g><g class="overplot"/><path class="xlines-above crisp" d="M0,0" style="fill: none;"/><path class="ylines-above crisp" d="M0,0" style="fill: none;"/><g class="overlines-above"/><g class="xaxislayer-above"><g class="x4tick"><text text-anchor="middle" x="0" y="1449" transform="translate(108.25,0)" style="font-family: 'New Computer Modern'; font-size: 15px; fill: rgb(42, 63, 95); fill-opacity: 1; white-space: pre; opacity: 1;">0</text></g><g class="x4tick"><text text-anchor="middle" x="0" y="1449" style="font-family: 'New Computer Modern'; font-size: 15px; fill: rgb(42, 63, 95); fill-opacity: 1; white-space: pre; opacity: 1;" transform="translate(256.95,0)">0.2</text></g><g class="x4tick"><text text-anchor="middle" x="0" y="1449" style="font-family: 'New Computer Modern'; font-size: 15px; fill: rgb(42, 63, 95); fill-opacity: 1; white-space: pre; opacity: 1;" transform="translate(405.65,0)">0.4</text></g><g class="x4tick"><text text-anchor="middle" x="0" y="1449" style="font-family: 'New Computer Modern'; font-size: 15px; fill: rgb(42, 63, 95); fill-opacity: 1; white-space: pre; opacity: 1;" transform="translate(554.35,0)">0.6</text></g><g class="x4tick"><text text-anchor="middle" x="0" y="1449" style="font-family: 'New Computer Modern'; font-size: 15px; fill: rgb(42, 63, 95); fill-opacity: 1; white-space: pre; opacity: 1;" transform="translate(703.05,0)">0.8</text></g><g class="x4tick"><text text-anchor="middle" x="0" y="1449" style="font-family: 'New Computer Modern'; font-size: 15px; fill: rgb(42, 63, 95); fill-opacity: 1; white-space: pre; opacity: 1;" transform="translate(851.75,0)">1</text></g></g><g class="yaxislayer-above"><g class="y4tick"><text text-anchor="end" x="59" y="5.25" transform="translate(0,1409.2125)" style="font-family: 'New Computer Modern'; font-size: 15px; fill: rgb(42, 63, 95); fill-opacity: 1; white-space: pre; opacity: 1;">−80</text></g><g class="y4tick"><text text-anchor="end" x="59" y="5.25" style="font-family: 'New Computer Modern'; font-size: 15px; fill: rgb(42, 63, 95); fill-opacity: 1; white-space: pre; opacity: 1;" transform="translate(0,1362.9225000000001)">−60</text></g><g class="y4tick"><text text-anchor="end" x="59" y="5.25" style="font-family: 'New Computer Modern'; font-size: 15px; fill: rgb(42, 63, 95); fill-opacity: 1; white-space: pre; opacity: 1;" transform="translate(0,1316.6325)">−40</text></g><g class="y4tick"><text text-anchor="end" x="59" y="5.25" style="font-family: 'New Computer Modern'; font-size: 15px; fill: rgb(42, 63, 95); fill-opacity: 1; white-space: pre; opacity: 1;" transform="translate(0,1270.3425)">−20</text></g><g class="y4tick"><text text-anchor="end" x="59" y="5.25" style="font-family: 'New Computer Modern'; font-size: 15px; fill: rgb(42, 63, 95); fill-opacity: 1; white-space: pre; opacity: 1;" transform="translate(0,1224.0525)">0</text></g><g class="y4tick"><text text-anchor="end" x="59" y="5.25" style="font-family: 'New Computer Modern'; font-size: 15px; fill: rgb(42, 63, 95); fill-opacity: 1; white-space: pre; opacity: 1;" transform="translate(0,1177.7525)">20</text></g><g class="y4tick"><text text-anchor="end" x="59" y="5.25" style="font-family: 'New Computer Modern'; font-size: 15px; fill: rgb(42, 63, 95); fill-opacity: 1; white-space: pre; opacity: 1;" transform="translate(0,1131.4625)">40</text></g></g><g class="overaxes-above"/></g></g><g class="polarlayer"/><g class="smithlayer"/><g class="ternarylayer"/><g class="geolayer"/><g class="funnelarealayer"/><g class="pielayer"/><g class="iciclelayer"/><g class="treemaplayer"/><g class="sunburstlayer"/><g class="glimages"/><defs id="topdefs-106bf8"><g class="clips"/></defs><g class="layer-above"><g class="imagelayer"/><g class="shapelayer"><g class="shape-group" data-index="0" clip-path="url(#clip106bf8xy)"><path data-index="0" fill-rule="evenodd" d="M106.25,185.73H106.25V175.73H106.25Z" style="opacity: 1; stroke: rgb(0, 0, 255); stroke-opacity: 1; fill: rgb(0, 0, 255); fill-opacity: 1; stroke-width: 4px;"/></g><g class="shape-group" data-index="1" clip-path="url(#clip106bf8xy)"><path data-index="1" fill-rule="evenodd" d="M849.75,185.73H849.75V175.73H849.75Z" style="opacity: 1; stroke: rgb(0, 0, 255); stroke-opacity: 1; fill: rgb(0, 0, 255); fill-opacity: 1; stroke-width: 4px;"/></g><g class="shape-group" data-index="2" clip-path="url(#clip106bf8xy)"><path data-index="2" fill-rule="evenodd" d="M108.25,180.73L105.25,177.73" style="opacity: 1; stroke: rgb(147, 112, 219); stroke-opacity: 1; fill: rgb(0, 0, 0); fill-opacity: 0; stroke-width: 2px;"/></g><g class="shape-group" data-index="3" clip-path="url(#clip106bf8xy)"><path data-index="3" fill-rule="evenodd" d="M108.25,180.73L111.25,177.73" style="opacity: 1; stroke: rgb(147, 112, 219); stroke-opacity: 1; fill: rgb(0, 0, 0); fill-opacity: 0; stroke-width: 2px;"/></g><g class="shape-group" data-index="4" clip-path="url(#clip106bf8xy)"><path data-index="4" fill-rule="evenodd" d="M108.25,180.73L108.25,150.73" style="opacity: 1; stroke: rgb(147, 112, 219); stroke-opacity: 1; fill: rgb(0, 0, 0); fill-opacity: 0; stroke-width: 2px;"/></g><g class="shape-group" data-index="5" clip-path="url(#clip106bf8xy)"><path data-index="5" fill-rule="evenodd" d="M851.75,180.73L848.75,177.73" style="opacity: 1; stroke: rgb(147, 112, 219); stroke-opacity: 1; fill: rgb(0, 0, 0); fill-opacity: 0; stroke-width: 2px;"/></g><g class="shape-group" data-index="6" clip-path="url(#clip106bf8xy)"><path data-index="6" fill-rule="evenodd" d="M851.75,180.73L854.75,177.73" style="opacity: 1; stroke: rgb(147, 112, 219); stroke-opacity: 1; fill: rgb(0, 0, 0); fill-opacity: 0; stroke-width: 2px;"/></g><g class="shape-group" data-index="7" clip-path="url(#clip106bf8xy)"><path data-index="7" fill-rule="evenodd" d="M851.75,180.73L851.75,150.73" style="opacity: 1; stroke: rgb(147, 112, 219); stroke-opacity: 1; fill: rgb(0, 0, 0); fill-opacity: 0; stroke-width: 2px;"/></g><g class="shape-group" data-index="8" clip-path="url(#clip106bf8x2y2)"><path data-index="8" fill-rule="evenodd" d="M108.25,544.5774999999999L111.25,547.5774999999999" style="opacity: 1; stroke: rgb(255, 0, 0); stroke-opacity: 1; fill: rgb(0, 0, 0); fill-opacity: 0; stroke-width: 2px;"/></g><g class="shape-group" data-index="9" clip-path="url(#clip106bf8x2y2)"><path data-index="9" fill-rule="evenodd" d="M108.25,544.5774999999999L105.25,547.5774999999999" style="opacity: 1; stroke: rgb(255, 0, 0); stroke-opacity: 1; fill: rgb(0, 0, 0); fill-opacity: 0; stroke-width: 2px;"/></g><g class="shape-group" data-index="10" clip-path="url(#clip106bf8x2y2)"><path data-index="10" fill-rule="evenodd" d="M108.25,544.5774999999999L108.25,584.5774999999999" style="opacity: 1; stroke: rgb(255, 0, 0); stroke-opacity: 1; fill: rgb(0, 0, 0); fill-opacity: 0; stroke-width: 2px;"/></g><g class="shape-group" data-index="11" clip-path="url(#clip106bf8x2y2)"><path data-index="11" fill-rule="evenodd" d="M851.75,544.5774999999999L854.75,547.5774999999999" style="opacity: 1; stroke: rgb(255, 0, 0); stroke-opacity: 1; fill: rgb(0, 0, 0); fill-opacity: 0; stroke-width: 2px;"/></g><g class="shape-group" data-index="12" clip-path="url(#clip106bf8x2y2)"><path data-index="12" fill-rule="evenodd" d="M851.75,544.5774999999999L848.75,547.5774999999999" style="opacity: 1; stroke: rgb(255, 0, 0); stroke-opacity: 1; fill: rgb(0, 0, 0); fill-opacity: 0; stroke-width: 2px;"/></g><g class="shape-group" data-index="13" clip-path="url(#clip106bf8x2y2)"><path data-index="13" fill-rule="evenodd" d="M851.75,544.5774999999999L851.75,584.5774999999999" style="opacity: 1; stroke: rgb(255, 0, 0); stroke-opacity: 1; fill: rgb(0, 0, 0); fill-opacity: 0; stroke-width: 2px;"/></g></g></g><g class="infolayer"><g class="g-gtitle"/><g class="g-xtitle"/><g class="g-x2title"/><g class="g-x3title"/><g class="g-x4title" transform="translate(0,-3.099999999999909)"><text class="x4title" x="480" y="1479.1" text-anchor="middle" style="font-family: 'New Computer Modern'; font-size: 18px; fill: rgb(42, 63, 95); opacity: 1; font-weight: normal; white-space: pre;">Beam length [m]</text></g><g class="g-y3title" transform="translate(15.0703125,0)"><text class="y3title" transform="rotate(-90,0.9312499999999986,908.42375)" x="0.9312499999999986" y="908.42375" text-anchor="middle" style="font-family: 'New Computer Modern'; font-size: 18px; fill: rgb(42, 63, 95); opacity: 1; font-weight: normal; white-space: pre;">Shear force [N]</text></g><g class="g-y4title" transform="translate(7.57421875,0)"><text class="y4title" transform="rotate(-90,8.431249999999999,1272.27125)" x="8.431249999999999" y="1272.27125" text-anchor="middle" style="font-family: 'New Computer Modern'; font-size: 18px; fill: rgb(42, 63, 95); opacity: 1; font-weight: normal; white-space: pre;">Bending moment [N⋅m]</text></g><g class="annotation" data-index="0" style="opacity: 1;"><g class="annotation-text-g" transform="rotate(0,480,9.999999999999996)"><g class="cursor-pointer" transform="translate(427,0)"><rect class="bg" x="0.5" y="0.5" width="105" height="19" style="stroke-width: 1px; stroke: rgb(0, 0, 0); stroke-opacity: 0; fill: rgb(0, 0, 0); fill-opacity: 0;"/><text class="annotation-text" text-anchor="middle" x="52.609375" y="15" style="font-family: 'New Computer Modern'; font-size: 15px; fill: rgb(42, 63, 95); fill-opacity: 1; white-space: pre;">Beam Schematic</text></g></g></g><g class="annotation" data-index="1" style="opacity: 1;"><g class="annotation-text-g" transform="rotate(0,480,373.8474999999999)"><g class="cursor-pointer" transform="translate(430,364)"><rect class="bg" x="0.5" y="0.5" width="100" height="19" style="stroke-width: 1px; stroke: rgb(0, 0, 0); stroke-opacity: 0; fill: rgb(0, 0, 0); fill-opacity: 0;"/><text class="annotation-text" text-anchor="middle" x="50.53125" y="15" style="font-family: 'New Computer Modern'; font-size: 15px; fill: rgb(42, 63, 95); fill-opacity: 1; white-space: pre;">Reaction Forces</text></g></g></g><g class="annotation" data-index="2" style="opacity: 1;"><g class="annotation-text-g" transform="rotate(0,480,737.695)"><g class="cursor-pointer" transform="translate(414,728)"><rect class="bg" x="0.5" y="0.5" width="132" height="19" style="stroke-width: 1px; stroke: rgb(0, 0, 0); stroke-opacity: 0; fill: rgb(0, 0, 0); fill-opacity: 0;"/><text class="annotation-text" text-anchor="middle" x="66.15625" y="15" style="font-family: 'New Computer Modern'; font-size: 15px; fill: rgb(42, 63, 95); fill-opacity: 1; white-space: pre;">Shear Force Diagram</text></g></g></g><g class="annotation" data-index="3" style="opacity: 1;"><g class="annotation-text-g" transform="rotate(0,480,1101.5425)"><g class="cursor-pointer" transform="translate(397,1092)"><rect class="bg" x="0.5" y="0.5" width="165" height="19" style="stroke-width: 1px; stroke: rgb(0, 0, 0); stroke-opacity: 0; fill: rgb(0, 0, 0); fill-opacity: 0;"/><text class="annotation-text" text-anchor="middle" x="82.828125" y="15" style="font-family: 'New Computer Modern'; font-size: 15px; fill: rgb(42, 63, 95); fill-opacity: 1; white-space: pre;">Bending Moment Diagram</text></g></g></g><g class="annotation" data-index="4" style="opacity: 1;"><g class="annotation-text-g" transform="rotate(0,108.25,141.73)"><g class="cursor-pointer" transform="translate(60,132)"><rect class="bg" x="0.5" y="0.5" width="95" height="19" style="stroke-width: 1px; stroke: rgb(0, 0, 0); stroke-opacity: 0; fill: rgb(0, 0, 0); fill-opacity: 0;"/><text class="annotation-text" text-anchor="middle" x="47.84375" y="15" style="font-family: 'New Computer Modern'; font-size: 15px; fill: rgb(147, 112, 219); fill-opacity: 1; white-space: pre;">-1000.000 N/m</text></g></g></g><g class="annotation" data-index="5" style="opacity: 1;"><g class="annotation-text-g" transform="rotate(0,851.75,141.73)"><g class="cursor-pointer" transform="translate(804,132)"><rect class="bg" x="0.5" y="0.5" width="95" height="19" style="stroke-width: 1px; stroke: rgb(0, 0, 0); stroke-opacity: 0; fill: rgb(0, 0, 0); fill-opacity: 0;"/><text class="annotation-text" text-anchor="middle" x="47.84375" y="15" style="font-family: 'New Computer Modern'; font-size: 15px; fill: rgb(147, 112, 219); fill-opacity: 1; white-space: pre;">-1000.000 N/m</text></g></g></g><g class="annotation" data-index="6" style="opacity: 1;"><g class="annotation-text-g" transform="rotate(0,108.25,596.5774999999999)"><g class="cursor-pointer" transform="translate(74,587)"><rect class="bg" x="0.5" y="0.5" width="67" height="19" style="stroke-width: 1px; stroke: rgb(0, 0, 0); stroke-opacity: 0; fill: rgb(0, 0, 0); fill-opacity: 0;"/><text class="annotation-text" text-anchor="middle" x="33.671875" y="15" style="font-family: 'New Computer Modern'; font-size: 15px; fill: rgb(255, 0, 0); fill-opacity: 1; white-space: pre;">500.000 N</text></g></g></g><g class="annotation" data-index="7" style="opacity: 1;"><g class="annotation-text-g" transform="rotate(0,108.25,544.5774999999999)"><g class="cursor-pointer" transform="translate(103,535)"><rect class="bg" x="0.5" y="0.5" width="9" height="19" style="stroke-width: 1px; stroke: rgb(0, 0, 0); stroke-opacity: 0; fill: rgb(0, 0, 0); fill-opacity: 0;"/><text class="annotation-text" text-anchor="middle" x="4.75" y="15" style="font-family: 'New Computer Modern'; font-size: 15px; fill: rgb(255, 0, 255); fill-opacity: 1; white-space: pre;">⭯</text></g></g></g><g class="annotation" data-index="8" style="opacity: 1;"><g class="annotation-text-g" transform="rotate(0,108.25,564.5774999999999)"><g class="cursor-pointer" transform="translate(70,555)"><rect class="bg" x="0.5" y="0.5" width="75" height="19" style="stroke-width: 1px; stroke: rgb(0, 0, 0); stroke-opacity: 0; fill: rgb(0, 0, 0); fill-opacity: 0;"/><text class="annotation-text" text-anchor="middle" x="37.625" y="15" style="font-family: 'New Computer Modern'; font-size: 15px; fill: rgb(255, 0, 255); fill-opacity: 1; white-space: pre;">83.333 N.m</text></g></g></g><g class="annotation" data-index="9" style="opacity: 1;"><g class="annotation-text-g" transform="rotate(0,851.75,596.5774999999999)"><g class="cursor-pointer" transform="translate(818,587)"><rect class="bg" x="0.5" y="0.5" width="67" height="19" style="stroke-width: 1px; stroke: rgb(0, 0, 0); stroke-opacity: 0; fill: rgb(0, 0, 0); fill-opacity: 0;"/><text class="annotation-text" text-anchor="middle" x="33.671875" y="15" style="font-family: 'New Computer Modern'; font-size: 15px; fill: rgb(255, 0, 0); fill-opacity: 1; white-space: pre;">500.000 N</text></g></g></g><g class="annotation" data-index="10" style="opacity: 1;"><g class="annotation-text-g" transform="rotate(0,851.75,544.5774999999999)"><g class="cursor-pointer" transform="translate(847,535)"><rect class="bg" x="0.5" y="0.5" width="9" height="19" style="stroke-width: 1px; stroke: rgb(0, 0, 0); stroke-opacity: 0; fill: rgb(0, 0, 0); fill-opacity: 0;"/><text class="annotation-text" text-anchor="middle" x="4.75" y="15" style="font-family: 'New Computer Modern'; font-size: 15px; fill: rgb(255, 0, 255); fill-opacity: 1; white-space: pre;">⭮</text></g></g></g><g class="annotation" data-index="11" style="opacity: 1;"><g class="annotation-text-g" transform="rotate(0,851.75,564.5774999999999)"><g class="cursor-pointer" transform="translate(811,555)"><rect class="bg" x="0.5" y="0.5" width="80" height="19" style="stroke-width: 1px; stroke: rgb(0, 0, 0); stroke-opacity: 0; fill: rgb(0, 0, 0); fill-opacity: 0;"/><text class="annotation-text" text-anchor="middle" x="40.125" y="15" style="font-family: 'New Computer Modern'; font-size: 15px; fill: rgb(255, 0, 255); fill-opacity: 1; white-space: pre;">-83.333 N.m</text></g></g></g></g></svg>