<svg class="main-svg" xmlns="http://www.w3.org/2000/svg" xmlns:xlink="http://www.w3.org/1999/xlink" width="700" height="750" style="" viewBox="0 0 700 750"><rect x="0" y="0" width="700" height="750" style="fill: rgb(0, 0, 0); fill-opacity: 0;"/><defs id="defs-e4f9e4"><g class="clips"><clipPath id="clipe4f9e4xyplot" class="plotclip"><rect width="636" height="204.90000000000003"/></clipPath><clipPath id="clipe4f9e4x2y2plot" class="plotclip"><rect width="636" height="204.89999999999995"/></clipPath><clipPath id="clipe4f9e4x3y3plot" class="plotclip"><rect width="636" height="204.9"/></clipPath><clipPath class="axesclip" id="clipe4f9e4x"><rect x="60" y="0" width="636" height="750"/></clipPath><clipPath class="axesclip" id="clipe4f9e4y"><rect x="0" y="20" width="700" height="204.90000000000003"/></clipPath><clipPath class="axesclip" id="clipe4f9e4xy"><rect x="60" y="20" width="636" height="204.90000000000003"/></clipPath><clipPath class="axesclip" id="clipe4f9e4y2"><rect x="0" y="259.05000000000007" width="700" height="204.89999999999995"/></clipPath><clipPath class="axesclip" id="clipe4f9e4xy2"><rect x="60" y="259.05000000000007" width="636" height="204.89999999999995"/></clipPath><clipPath class="axesclip" id="clipe4f9e4y3"><rect x="0" y="498.09999999999997" width="700" height="204.9"/></clipPath><clipPath class="axesclip" id="clipe4f9e4xy3"><rect x="60" y="498.09999999999997" width="636" height="204.9"/></clipPath><clipPath class="axesclip" id="clipe4f9e4x2"><rect x="60" y="0" width="636" height="750"/></clipPath><clipPath class="axesclip" id="clipe4f9e4x2y"><rect x="60" y="20" width="636" height="204.90000000000003"/></clipPath><clipPath class="axesclip" id="clipe4f9e4x2y2"><rect x="60" y="259.05000000000007" width="636" height="204.89999999999995"/></clipPath><clipPath class="axesclip" id="clipe4f9e4x2y3"><rect x="60" y="498.09999999999997" width="636" height="204.9"/></clipPath><clipPath class="axesclip" id="clipe4f9e4x3"><rect x="60" y="0" width="636" height="750"/></clipPath><clipPath class="axesclip" id="clipe4f9e4x3y"><rect x="60" y="20" width="636" height="204.90000000000003"/></clipPath><clipPath class="axesclip" id="clipe4f9e4x3y2"><rect x="60" y="259.05000000000007" width="636" height="204.89999999999995"/></clipPath><clipPath class="axesclip" id="clipe4f9e4x3y3"><rect x="60" y="498.09999999999997" width="636" height="204.9"/></clipPath></g><g class="gradients"/><g class="patterns"/></defs><g class="bglayer"><rect class="bg" x="60" y="20" width="636" height="204.90000000000003" style="fill: rgb(229, 236, 246); fill-opacity: 1; stroke-width: 0;"/><rect class="bg" x="60" y="259.05000000000007" width="636" height="204.89999999999995" style="fill: rgb(229, 236, 246); fill-opacity: 1; stroke-width: 0;"/><rect class="bg" x="60" y="498.09999999999997" width="636" height="204.9" style="fill: rgb(229, 236, 246); fill-opacity: 1; stroke-width: 0;"/></g><g class="layer-below"><g class="imagelayer"/><g class="shapelayer"/></g><g class="cartesianlayer"><g class="subplot xy"><g class="layer-subplot"><g class="shapelayer"/><g class="imagelayer"/></g><g class="minor-gridlayer"><g class="x"/><g class="y"/></g><g class="gridlayer"><g class="x"><path class="xgrid crisp" transform="translate(187.2,0)" d="M0,20v204.90000000000003" style="stroke: rgb(255, 255, 255); stroke-opacity: 1; stroke-width: 1px;"/><path class="xgrid crisp" transform="translate(314.4,0)" d="M0,20v204.90000000000003" style="stroke: rgb(255, 255, 255); stroke-opacity: 1; stroke-width: 1px;"/><path class="xgrid crisp" transform="translate(441.6,0)" d="M0,20v204.90000000000003" style="stroke: rgb(255, 255, 255); stroke-opacity: 1; stroke-width: 1px;"/><path class="xgrid crisp" transform="translate(568.8,0)" d="M0,20v204.90000000000003" style="stroke: rgb(255, 255, 255); stroke-opacity: 1; stroke-width: 1px;"/></g><g class="y"><path class="ygrid crisp" transform="translate(0,173.68)" d="M60,0h636" style="stroke: rgb(255, 255, 255); stroke-opacity: 1; stroke-width: 1px;"/><path class="ygrid crisp" transform="translate(0,71.22999999999999)" d="M60,0h636" style="stroke: rgb(255, 255, 255); stroke-opacity: 1; stroke-width: 1px;"/></g></g><g class="zerolinelayer"><path class="xzl zl crisp" transform="translate(60,0)" d="M0,20v204.90000000000003" style="stroke: rgb(255, 255, 255); stroke-opacity: 1; stroke-width: 2px;"/><path class="yzl zl crisp" transform="translate(0,122.45)" d="M60,0h636" style="stroke: rgb(255, 255, 255); stroke-opacity: 1; stroke-width: 2px;"/></g><path class="xlines-below"/><path class="ylines-below"/><g class="overlines-below"/><g class="xaxislayer-below"/><g class="yaxislayer-below"/><g class="overaxes-below"/><g class="plot" transform="translate(60,20)" clip-path="url(#clipe4f9e4xyplot)"><g class="scatterlayer mlayer"><g class="trace scatter tracec214a1" style="stroke-miterlimit: 2;"><g class="fills"><g><path class="js-fill" d="M636,102.45L0,102.45L0,102.45L636,102.45L636,102.45" style="fill: rgb(255, 0, 0); fill-opacity: 0.5; stroke-width: 0;"/></g></g><g class="errorbars"/><g class="lines"><path class="js-line" d="M0,102.45L636,102.45L636,102.45" style="vector-effect: none; fill: none; stroke: rgb(255, 0, 0); stroke-opacity: 1; stroke-width: 1px; opacity: 1;"/></g><g class="points"/><g class="text"/></g></g></g><g class="overplot"/><path class="xlines-above crisp" d="M0,0" style="fill: none;"/><path class="ylines-above crisp" d="M0,0" style="fill: none;"/><g class="overlines-above"/><g class="xaxislayer-above"/><g class="yaxislayer-above"><g class="ytick"><text text-anchor="end" x="59" y="5.25" transform="translate(0,224.9)" style="font-family: 'New Computer Modern'; font-size: 15px; fill: rgb(42, 63, 95); fill-opacity: 1; white-space: pre; opacity: 1;">−1</text></g><g class="ytick"><text text-anchor="end" x="59" y="5.25" style="font-family: 'New Computer Modern'; font-size: 15px; fill: rgb(42, 63, 95); fill-opacity: 1; white-space: pre; opacity: 1;" transform="translate(0,173.68)">−0.5</text></g><g class="ytick"><text text-anchor="end" x="59" y="5.25" style="font-family: 'New Computer Modern'; font-size: 15px; fill: rgb(42, 63, 95); fill-opacity: 1; white-space: pre; opacity: 1;" transform="translate(0,122.45)">0</text></g><g class="ytick"><text text-anchor="end" x="59" y="5.25" style="font-family: 'New Computer Modern'; font-size: 15px; fill: rgb(42, 63, 95); fill-opacity: 1; white-space: pre; opacity: 1;" transform="translate(0,71.22999999999999)">0.5</text></g><g class="ytick"><text text-anchor="end" x="59" y="5.25" style="font-family: 'New Computer Modern'; font-size: 15px; fill: rgb(42, 63, 95); fill-opacity: 1; white-space: pre; opacity: 1;" transform="translate(0,20)">1</text></g></g><g class="overaxes-above"/></g><g class="subplot x2y2"><g class="layer-subplot"><g class="shapelayer"/><g class="imagelayer"/></g><g class="minor-gridlayer"><g class="x2"/><g class="y2"/></g><g class="gridlayer"><g class="x2"><path class="x2grid crisp" transform="translate(187.2,0)" d="M0,259.05000000000007v204.89999999999995" style="stroke: rgb(255, 255, 255); stroke-opacity: 1; stroke-width: 1px;"/><path class="x2grid crisp" transform="translate(314.4,0)" d="M0,259.05000000000007v204.89999999999995" style="stroke: rgb(255, 255, 255); stroke-opacity: 1; stroke-width: 1px;"/><path class="x2grid crisp" transform="translate(441.6,0)" d="M0,259.05000000000007v204.89999999999995" style="stroke: rgb(255, 255, 255); stroke-opacity: 1; stroke-width: 1px;"/><path class="x2grid crisp" transform="translate(568.8,0)" d="M0,259.05000000000007v204.89999999999995" style="stroke: rgb(255, 255, 255); stroke-opacity: 1; stroke-width: 1px;"/></g><g class="y2"><path class="y2grid crisp" transform="translate(0,435.2600000000001)" d="M60,0h636" style="stroke: rgb(255, 255, 255); stroke-opacity: 1; stroke-width: 1px;"/><path class="y2grid crisp" transform="translate(0,398.3800000000001)" d="M60,0h636" style="stroke: rgb(255, 255, 255); stroke-opacity: 1; stroke-width: 1px;"/><path class="y2grid crisp" transform="translate(0,324.62000000000006)" d="M60,0h636" style="stroke: rgb(255, 255, 255); stroke-opacity: 1; stroke-width: 1px;"/><path class="y2grid crisp" transform="translate(0,287.74000000000007)" d="M60,0h636" style="stroke: rgb(255, 255, 255); stroke-opacity: 1; stroke-width: 1px;"/></g></g><g class="zerolinelayer"><path class="x2zl zl crisp" transform="translate(60,0)" d="M0,259.05000000000007v204.89999999999995" style="stroke: rgb(255, 255, 255); stroke-opacity: 1; stroke-width: 2px;"/><path class="y2zl zl crisp" transform="translate(0,361.50000000000006)" d="M60,0h636" style="stroke: rgb(255, 255, 255); stroke-opacity: 1; stroke-width: 2px;"/></g><path class="xlines-below"/><path class="ylines-below"/><g class="overlines-below"/><g class="xaxislayer-below"/><g class="yaxislayer-below"/><g class="overaxes-below"/><g class="plot" transform="translate(60,259.05000000000007)" clip-path="url(#clipe4f9e4x2y2plot)"><g class="scatterlayer mlayer"><g class="trace scatter trace776aa2" style="stroke-miterlimit: 2;"><g class="fills"><g><path class="js-fill" d="M636,102.45L0,102.45L0,102.45L0,10.25L3.2,11.17L498.57,154.81L501.77,155.73L636,194.65L636,194.65" style="fill: rgb(0, 255, 255); fill-opacity: 0.5; stroke-width: 0;"/></g></g><g class="errorbars"/><g class="lines"><path class="js-line" d="M0,102.45L0,10.25L3.2,11.17L498.57,154.81L501.77,155.73L636,194.65L636,194.65" style="vector-effect: none; fill: none; stroke: rgb(0, 255, 255); stroke-opacity: 1; stroke-width: 1px; opacity: 1;"/></g><g class="points"/><g class="text"/></g></g></g><g class="overplot"/><path class="xlines-above crisp" d="M0,0" style="fill: none;"/><path class="ylines-above crisp" d="M0,0" style="fill: none;"/><g class="overlines-above"/><g class="xaxislayer-above"/><g class="yaxislayer-above"><g class="y2tick"><text text-anchor="end" x="59" y="5.25" transform="translate(0,435.2600000000001)" style="font-family: 'New Computer Modern'; font-size: 15px; fill: rgb(42, 63, 95); fill-opacity: 1; white-space: pre; opacity: 1;">−400</text></g><g class="y2tick"><text text-anchor="end" x="59" y="5.25" style="font-family: 'New Computer Modern'; font-size: 15px; fill: rgb(42, 63, 95); fill-opacity: 1; white-space: pre; opacity: 1;" transform="translate(0,398.3800000000001)">−200</text></g><g class="y2tick"><text text-anchor="end" x="59" y="5.25" style="font-family: 'New Computer Modern'; font-size: 15px; fill: rgb(42, 63, 95); fill-opacity: 1; white-space: pre; opacity: 1;" transform="translate(0,361.50000000000006)">0</text></g><g class="y2tick"><text text-anchor="end" x="59" y="5.25" style="font-family: 'New Computer Modern'; font-size: 15px; fill: rgb(42, 63, 95); fill-opacity: 1; white-space: pre; opacity: 1;" transform="translate(0,324.62000000000006)">200</text></g><g class="y2tick"><text text-anchor="end" x="59" y="5.25" style="font-family: 'New Computer Modern'; font-size: 15px; fill: rgb(42, 63, 95); fill-opacity: 1; white-space: pre; opacity: 1;" transform="translate(0,287.74000000000007)">400</text></g></g><g class="overaxes-above"/></g><g class="subplot x3y3"><g class="layer-subplot"><g class="shapelayer"/><g class="imagelayer"/></g><g class="minor-gridlayer"><g class="x3"/><g class="y3"/></g><g class="gridlayer"><g class="x3"><path class="x3grid crisp" transform="translate(187.2,0)" d="M0,498.09999999999997v204.9" style="stroke: rgb(255, 255, 255); stroke-opacity: 1; stroke-width: 1px;"/><path class="x3grid crisp" transform="translate(314.4,0)" d="M0,498.09999999999997v204.9" style="stroke: rgb(255, 255, 255); stroke-opacity: 1; stroke-width: 1px;"/><path class="x3grid crisp" transform="translate(441.6,0)" d="M0,498.09999999999997v204.9" style="stroke: rgb(255, 255, 255); stroke-opacity: 1; stroke-width: 1px;"/><path class="x3grid crisp" transform="translate(568.8,0)" d="M0,498.09999999999997v204.9" style="stroke: rgb(255, 255, 255); stroke-opacity: 1; stroke-width: 1px;"/></g><g class="y3"><path class="y3grid crisp" transform="translate(0,643.5799999999999)" d="M60,0h636" style="stroke: rgb(255, 255, 255); stroke-opacity: 1; stroke-width: 1px;"/></g></g><g class="zerolinelayer"><path class="x3zl zl crisp" transform="translate(60,0)" d="M0,498.09999999999997v204.9" style="stroke: rgb(255, 255, 255); stroke-opacity: 1; stroke-width: 2px;"/><path class="y3zl zl crisp" transform="translate(0,569.81)" d="M60,0h636" style="stroke: rgb(255, 255, 255); stroke-opacity: 1; stroke-width: 2px;"/></g><path class="xlines-below"/><path class="ylines-below"/><g class="overlines-below"/><g class="xaxislayer-below"/><g class="yaxislayer-below"/><g class="overaxes-below"/><g class="plot" transform="translate(60,498.09999999999997)" clip-path="url(#clipe4f9e4x3y3plot)"><g class="scatterlayer mlayer"><g class="trace scatter tracea6a5e8" style="stroke-miterlimit: 2;"><g class="fills"><g><path class="js-fill" d="M636,71.71L0,71.71L0,71.71L0,194.65L3.2,190.97L28.76,162.8L31.96,159.45L57.53,133.97L60.72,130.95L86.29,108.15L89.49,105.47L111.86,87.73L115.06,85.35L137.43,69.7L140.62,67.62L162.99,54.06L166.19,52.27L188.56,40.79L191.76,39.3L214.13,29.92L217.33,28.72L239.7,21.42L242.89,20.53L262.07,15.94L265.27,15.31L287.64,11.92L290.83,11.59L310.01,10.36L313.21,10.28L335.58,10.8L338.77,11.03L357.95,13.15L361.15,13.64L380.32,17.32L383.52,18.07L402.69,23.32L405.89,24.33L425.07,31.14L428.26,32.41L450.63,42.32L453.83,43.89L476.2,55.88L479.4,57.74L501.77,71.83L504.96,73.99L527.34,90.16L530.53,92.61L552.9,110.87L556.1,113.63L578.47,133.97L581.67,137.02L607.24,162.8L610.43,166.19L636,194.66" style="fill: rgb(144, 238, 144); fill-opacity: 0.5; stroke-width: 0;"/></g></g><g class="errorbars"/><g class="lines"><path class="js-line" d="M0,71.71L0,194.65L3.2,190.97L28.76,162.8L31.96,159.45L57.53,133.97L60.72,130.95L86.29,108.15L89.49,105.47L111.86,87.73L115.06,85.35L137.43,69.7L140.62,67.62L162.99,54.06L166.19,52.27L188.56,40.79L191.76,39.3L214.13,29.92L217.33,28.72L239.7,21.42L242.89,20.53L262.07,15.94L265.27,15.31L287.64,11.92L290.83,11.59L310.01,10.36L313.21,10.28L335.58,10.8L338.77,11.03L357.95,13.15L361.15,13.64L380.32,17.32L383.52,18.07L402.69,23.32L405.89,24.33L425.07,31.14L428.26,32.41L450.63,42.32L453.83,43.89L476.2,55.88L479.4,57.74L501.77,71.83L504.96,73.99L527.34,90.16L530.53,92.61L552.9,110.87L556.1,113.63L578.47,133.97L581.67,137.02L607.24,162.8L610.43,166.19L636,194.66" style="vector-effect: none; fill: none; stroke: rgb(144, 238, 144); stroke-opacity: 1; stroke-width: 1px; opacity: 1;"/></g><g class="points"/><g class="text"/></g></g></g><g class="overplot"/><path class="xlines-above crisp" d="M0,0" style="fill: none;"/><path class="ylines-above crisp" d="M0,0" style="fill: none;"/><g class="overlines-above"/><g class="xaxislayer-above"><g class="x3tick"><text text-anchor="middle" x="0" y="719" transform="translate(60,0)" style="font-family: 'New Computer Modern'; font-size: 15px; fill: rgb(42, 63, 95); fill-opacity: 1; white-space: pre; opacity: 1;">0</text></g><g class="x3tick"><text text-anchor="middle" x="0" y="719" style="font-family: 'New Computer Modern'; font-size: 15px; fill: rgb(42, 63, 95); fill-opacity: 1; white-space: pre; opacity: 1;" transform="translate(187.2,0)">0.2</text></g><g class="x3tick"><text text-anchor="middle" x="0" y="719" style="font-family: 'New Computer Modern'; font-size: 15px; fill: rgb(42, 63, 95); fill-opacity: 1; white-space: pre; opacity: 1;" transform="translate(314.4,0)">0.4</text></g><g class="x3tick"><text text-anchor="middle" x="0" y="719" style="font-family: 'New Computer Modern'; font-size: 15px; fill: rgb(42, 63, 95); fill-opacity: 1; white-space: pre; opacity: 1;" transform="translate(441.6,0)">0.6</text></g><g class="x3tick"><text text-anchor="middle" x="0" y="719" style="font-family: 'New Computer Modern'; font-size: 15px; fill: rgb(42, 63, 95); fill-opacity: 1; white-space: pre; opacity: 1;" transform="translate(568.8,0)">0.8</text></g><g class="x3tick"><text text-anchor="middle" x="0" y="719" style="font-family: 'New Computer Modern'; font-size: 15px; fill: rgb(42, 63, 95); fill-opacity: 1; white-space: pre; opacity: 1;" transform="translate(696,0)">1</text></g></g><g class="yaxislayer-above"><g class="y3tick"><text text-anchor="end" x="59" y="5.25" transform="translate(0,643.5799999999999)" style="font-family: 'New Computer Modern'; font-size: 15px; fill: rgb(42, 63, 95); fill-opacity: 1; white-space: pre; opacity: 1;">−50</text></g><g class="y3tick"><text text-anchor="end" x="59" y="5.25" style="font-family: 'New Computer Modern'; font-size: 15px; fill: rgb(42, 63, 95); fill-opacity: 1; white-space: pre; opacity: 1;" transform="translate(0,569.81)">0</text></g></g><g class="overaxes-above"/></g></g><g class="polarlayer"/><g class="smithlayer"/><g class="ternarylayer"/><g class="geolayer"/><g class="funnelarealayer"/><g class="pielayer"/><g class="iciclelayer"/><g class="treemaplayer"/><g class="sunburstlayer"/><g class="glimages"/><defs id="topdefs-e4f9e4"><g class="clips"/></defs><g class="layer-above"><g class="imagelayer"/><g class="shapelayer"/></g><g class="infolayer"><g class="g-gtitle"/><g class="g-xtitle"/><g class="g-x2title"/><g class="g-x3title" transform="translate(0,-3.1000000000000227)"><text class="x3title" x="378" y="749.1" text-anchor="middle" style="font-family: 'New Computer Modern'; font-size: 18px; fill: rgb(42, 63, 95); opacity: 1; font-weight: normal; white-space: pre;">Beam length [m]</text></g><g class="g-ytitle" transform="translate(11.3310546875,0)"><text class="ytitle" transform="rotate(-90,4.681249999999999,122.45000000000002)" x="4.681249999999999" y="122.45000000000002" text-anchor="middle" style="font-family: 'New Computer Modern'; font-size: 18px; fill: rgb(42, 63, 95); opacity: 1; font-weight: normal; white-space: pre;">Normal force [N]</text></g><g class="g-y2title" transform="translate(15.068359375,0)"><text class="y2title" transform="rotate(-90,0.9312499999999986,361.50000000000006)" x="0.9312499999999986" y="361.50000000000006" text-anchor="middle" style="font-family: 'New Computer Modern'; font-size: 18px; fill: rgb(42, 63, 95); opacity: 1; font-weight: normal; white-space: pre;">Shear force [N]</text></g><g class="g-y3title" transform="translate(7.572265625,0)"><text class="y3title" transform="rotate(-90,8.431249999999999,600.55)" x="8.431249999999999" y="600.55" text-anchor="middle" style="font-family: 'New Computer Modern'; font-size: 18px; fill: rgb(42, 63, 95); opacity: 1; font-weight: normal; white-space: pre;">Bending moment [N⋅m]</text></g><g class="annotation" data-index="0" style="opacity: 1;"><g class="annotation-text-g" transform="rotate(0,378,9.999999999999996)"><g class="cursor-pointer" transform="translate(306,0)"><rect class="bg" x="0.5" y="0.5" width="143" height="19" style="stroke-width: 1px; stroke: rgb(0, 0, 0); stroke-opacity: 0; fill: rgb(0, 0, 0); fill-opacity: 0;"/><text class="annotation-text" text-anchor="middle" x="71.984375" y="15" style="font-family: 'New Computer Modern'; font-size: 15px; fill: rgb(42, 63, 95); fill-opacity: 1; white-space: pre;">Normal Force Diagram</text></g></g></g><g class="annotation" data-index="1" style="opacity: 1;"><g class="annotation-text-g" transform="rotate(0,378,249.05000000000007)"><g class="cursor-pointer" transform="translate(312,239)"><rect class="bg" x="0.5" y="0.5" width="132" height="19" style="stroke-width: 1px; stroke: rgb(0, 0, 0); stroke-opacity: 0; fill: rgb(0, 0, 0); fill-opacity: 0;"/><text class="annotation-text" text-anchor="middle" x="66.15625" y="15" style="font-family: 'New Computer Modern'; font-size: 15px; fill: rgb(42, 63, 95); fill-opacity: 1; white-space: pre;">Shear Force Diagram</text></g></g></g><g class="annotation" data-index="2" style="opacity: 1;"><g class="annotation-text-g" transform="rotate(0,378,488.09999999999997)"><g class="cursor-pointer" transform="translate(295,478)"><rect class="bg" x="0.5" y="0.5" width="165" height="19" style="stroke-width: 1px; stroke: rgb(0, 0, 0); stroke-opacity: 0; fill: rgb(0, 0, 0); fill-opacity: 0;"/><text class="annotation-text" text-anchor="middle" x="82.828125" y="15" style="font-family: 'New Computer Modern'; font-size: 15px; fill: rgb(42, 63, 95); fill-opacity: 1; white-space: pre;">Bending Moment Diagram</text></g></g></g></g></svg>