<svg class="main-svg" xmlns="http://www.w3.org/2000/svg" xmlns:xlink="http://www.w3.org/1999/xlink" width="700" height="750" style="" viewBox="0 0 700 750"><rect x="0" y="0" width="700" height="750" style="fill: rgb(0, 0, 0); fill-opacity: 0;"/><defs id="defs-ec90ef"><g class="clips"><clipPath id="clipec90efxyplot" class="plotclip"><rect width="629" height="204.90000000000003"/></clipPath><clipPath id="clipec90efx2y2plot" class="plotclip"><rect width="629" height="204.89999999999995"/></clipPath><clipPath id="clipec90efx3y3plot" class="plotclip"><rect width="629" height="204.9"/></clipPath><clipPath class="axesclip" id="clipec90efx"><rect x="67" y="0" width="629" height="750"/></clipPath><clipPath class="axesclip" id="clipec90efy"><rect x="0" y="20" width="700" height="204.90000000000003"/></clipPath><clipPath class="axesclip" id="clipec90efxy"><rect x="67" y="20" width="629" height="204.90000000000003"/></clipPath><clipPath class="axesclip" id="clipec90efy2"><rect x="0" y="259.05000000000007" width="700" height="204.89999999999995"/></clipPath><clipPath class="axesclip" id="clipec90efxy2"><rect x="67" y="259.05000000000007" width="629" height="204.89999999999995"/></clipPath><clipPath class="axesclip" id="clipec90efy3"><rect x="0" y="498.09999999999997" width="700" height="204.9"/></clipPath><clipPath class="axesclip" id="clipec90efxy3"><rect x="67" y="498.09999999999997" width="629" height="204.9"/></clipPath><clipPath class="axesclip" id="clipec90efx2"><rect x="67" y="0" width="629" height="750"/></clipPath><clipPath class="axesclip" id="clipec90efx2y"><rect x="67" y="20" width="629" height="204.90000000000003"/></clipPath><clipPath class="axesclip" id="clipec90efx2y2"><rect x="67" y="259.05000000000007" width="629" height="204.89999999999995"/></clipPath><clipPath class="axesclip" id="clipec90efx2y3"><rect x="67" y="498.09999999999997" width="629" height="204.9"/></clipPath><clipPath class="axesclip" id="clipec90efx3"><rect x="67" y="0" width="629" height="750"/></clipPath><clipPath class="axesclip" id="clipec90efx3y"><rect x="67" y="20" width="629" height="204.90000000000003"/></clipPath><clipPath class="axesclip" id="clipec90efx3y2"><rect x="67" y="259.05000000000007" width="629" height="204.89999999999995"/></clipPath><clipPath class="axesclip" id="clipec90efx3y3"><rect x="67" y="498.09999999999997" width="629" height="204.9"/></clipPath></g><g class="gradients"/><g class="patterns"/></defs><g class="bglayer"><rect class="bg" x="67" y="20" width="629" height="204.90000000000003" style="fill: rgb(229, 236, 246); fill-opacity: 1; stroke-width: 0;"/><rect class="bg" x="67" y="259.05000000000007" width="629" height="204.89999999999995" style="fill: rgb(229, 236, 246); fill-opacity: 1; stroke-width: 0;"/><rect class="bg" x="67" y="498.09999999999997" width="629" height="204.9" style="fill: rgb(229, 236, 246); fill-opacity: 1; stroke-width: 0;"/></g><g class="layer-below"><g class="imagelayer"/><g class="shapelayer"/></g><g class="cartesianlayer"><g class="subplot xy"><g class="layer-subplot"><g class="shapelayer"/><g class="imagelayer"/></g><g class="minor-gridlayer"><g class="x"/><g class="y"/></g><g class="gridlayer"><g class="x"><path class="xgrid crisp" transform="translate(171.82999999999998,0)" d="M0,20v204.90000000000003" style="stroke: rgb(255, 255, 255); stroke-opacity: 1; stroke-width: 1px;"/><path class="xgrid crisp" transform="translate(276.66999999999996,0)" d="M0,20v204.90000000000003" style="stroke: rgb(255, 255, 255); stroke-opacity: 1; stroke-width: 1px;"/><path class="xgrid crisp" transform="translate(381.5,0)" d="M0,20v204.90000000000003" style="stroke: rgb(255, 255, 255); stroke-opacity: 1; stroke-width: 1px;"/><path class="xgrid crisp" transform="translate(486.33,0)" d="M0,20v204.90000000000003" style="stroke: rgb(255, 255, 255); stroke-opacity: 1; stroke-width: 1px;"/><path class="xgrid crisp" transform="translate(591.17,0)" d="M0,20v204.90000000000003" style="stroke: rgb(255, 255, 255); stroke-opacity: 1; stroke-width: 1px;"/></g><g class="y"><path class="ygrid crisp" transform="translate(0,173.68)" d="M67,0h629" style="stroke: rgb(255, 255, 255); stroke-opacity: 1; stroke-width: 1px;"/><path class="ygrid crisp" transform="translate(0,71.22999999999999)" d="M67,0h629" style="stroke: rgb(255, 255, 255); stroke-opacity: 1; stroke-width: 1px;"/></g></g><g class="zerolinelayer"><path class="xzl zl crisp" transform="translate(67,0)" d="M0,20v204.90000000000003" style="stroke: rgb(255, 255, 255); stroke-opacity: 1; stroke-width: 2px;"/><path class="yzl zl crisp" transform="translate(0,122.45)" d="M67,0h629" style="stroke: rgb(255, 255, 255); stroke-opacity: 1; stroke-width: 2px;"/></g><path class="xlines-below"/><path class="ylines-below"/><g class="overlines-below"/><g class="xaxislayer-below"/><g class="yaxislayer-below"/><g class="overaxes-below"/><g class="plot" transform="translate(67,20)" clip-path="url(#clipec90efxyplot)"><g class="scatterlayer mlayer"><g class="trace scatter trace78057b" style="stroke-miterlimit: 2;"><g class="fills"><g><path class="js-fill" d="M629,102.45L0,102.45L0,102.45L629,102.45L629,102.45" style="fill: rgb(255, 0, 0); fill-opacity: 0.5; stroke-width: 0;"/></g></g><g class="errorbars"/><g class="lines"><path class="js-line" d="M0,102.45L629,102.45L629,102.45" style="vector-effect: none; fill: none; stroke: rgb(255, 0, 0); stroke-opacity: 1; stroke-width: 1px; opacity: 1;"/></g><g class="points"/><g class="text"/></g></g></g><g class="overplot"/><path class="xlines-above crisp" d="M0,0" style="fill: none;"/><path class="ylines-above crisp" d="M0,0" style="fill: none;"/><g class="overlines-above"/><g class="xaxislayer-above"/><g class="yaxislayer-above"><g class="ytick"><text text-anchor="end" x="66" y="5.25" transform="translate(0,224.9)" style="font-family: 'New Computer Modern'; font-size: 15px; fill: rgb(42, 63, 95); fill-opacity: 1; white-space: pre; opacity: 1;">−1</text></g><g class="ytick"><text text-anchor="end" x="66" y="5.25" style="font-family: 'New Computer Modern'; font-size: 15px; fill: rgb(42, 63, 95); fill-opacity: 1; white-space: pre; opacity: 1;" transform="translate(0,173.68)">−0.5</text></g><g class="ytick"><text text-anchor="end" x="66" y="5.25" style="font-family: 'New Computer Modern'; font-size: 15px; fill: rgb(42, 63, 95); fill-opacity: 1; white-space: pre; opacity: 1;" transform="translate(0,122.45)">0</text></g><g class="ytick"><text text-anchor="end" x="66" y="5.25" style="font-family: 'New Computer Modern'; font-size: 15px; fill: rgb(42, 63, 95); fill-opacity: 1; white-space: pre; opacity: 1;" transform="translate(0,71.22999999999999)">0.5</text></g><g class="ytick"><text text-anchor="end" x="66" y="5.25" style="font-family: 'New Computer Modern'; font-size: 15px; fill: rgb(42, 63, 95); fill-opacity: 1; white-space: pre; opacity: 1;" transform="translate(0,20)">1</text></g></g><g class="overaxes-above"/></g><g class="subplot x2y2"><g class="layer-subplot"><g class="shapelayer"/><g class="imagelayer"/></g><g class="minor-gridlayer"><g class="x2"/><g class="y2"/></g><g class="gridlayer"><g class="x2"><path class="x2grid crisp" transform="translate(171.82999999999998,0)" d="M0,259.05000000000007v204.89999999999995" style="stroke: rgb(255, 255, 255); stroke-opacity: 1; stroke-width: 1px;"/><path class="x2grid crisp" transform="translate(276.66999999999996,0)" d="M0,259.05000000000007v204.89999999999995" style="stroke: rgb(255, 255, 255); stroke-opacity: 1; stroke-width: 1px;"/><path class="x2grid crisp" transform="translate(381.5,0)" d="M0,259.05000000000007v204.89999999999995" style="stroke: rgb(255, 255, 255); stroke-opacity: 1; stroke-width: 1px;"/><path class="x2grid crisp" transform="translate(486.33,0)" d="M0,259.05000000000007v204.89999999999995" style="stroke: rgb(255, 255, 255); stroke-opacity: 1; stroke-width: 1px;"/><path class="x2grid crisp" transform="translate(591.17,0)" d="M0,259.05000000000007v204.89999999999995" style="stroke: rgb(255, 255, 255); stroke-opacity: 1; stroke-width: 1px;"/></g><g class="y2"><path class="y2grid crisp" transform="translate(0,446.0200000000001)" d="M67,0h629" style="stroke: rgb(255, 255, 255); stroke-opacity: 1; stroke-width: 1px;"/><path class="y2grid crisp" transform="translate(0,323.08000000000004)" d="M67,0h629" style="stroke: rgb(255, 255, 255); stroke-opacity: 1; stroke-width: 1px;"/><path class="y2grid crisp" transform="translate(0,261.61000000000007)" d="M67,0h629" style="stroke: rgb(255, 255, 255); stroke-opacity: 1; stroke-width: 1px;"/></g></g><g class="zerolinelayer"><path class="x2zl zl crisp" transform="translate(67,0)" d="M0,259.05000000000007v204.89999999999995" style="stroke: rgb(255, 255, 255); stroke-opacity: 1; stroke-width: 2px;"/><path class="y2zl zl crisp" transform="translate(0,384.55000000000007)" d="M67,0h629" style="stroke: rgb(255, 255, 255); stroke-opacity: 1; stroke-width: 2px;"/></g><path class="xlines-below"/><path class="ylines-below"/><g class="overlines-below"/><g class="xaxislayer-below"/><g class="yaxislayer-below"/><g class="overaxes-below"/><g class="plot" transform="translate(67,259.05000000000007)" clip-path="url(#clipec90efx2y2plot)"><g class="scatterlayer mlayer"><g class="trace scatter trace813cdd" style="stroke-miterlimit: 2;"><g class="fills"><g><path class="js-fill" d="M629,125.5L0,125.5L0,125.5L0,10.25L3.16,11.17L629,194.65L629,194.65" style="fill: rgb(0, 255, 255); fill-opacity: 0.5; stroke-width: 0;"/></g></g><g class="errorbars"/><g class="lines"><path class="js-line" d="M0,125.5L0,10.25L3.16,11.17L629,194.65L629,194.65" style="vector-effect: none; fill: none; stroke: rgb(0, 255, 255); stroke-opacity: 1; stroke-width: 1px; opacity: 1;"/></g><g class="points"/><g class="text"/></g></g></g><g class="overplot"/><path class="xlines-above crisp" d="M0,0" style="fill: none;"/><path class="ylines-above crisp" d="M0,0" style="fill: none;"/><g class="overlines-above"/><g class="xaxislayer-above"/><g class="yaxislayer-above"><g class="y2tick"><text text-anchor="end" x="66" y="5.25" transform="translate(0,446.0200000000001)" style="font-family: 'New Computer Modern'; font-size: 15px; fill: rgb(42, 63, 95); fill-opacity: 1; white-space: pre; opacity: 1;">−1000</text></g><g class="y2tick"><text text-anchor="end" x="66" y="5.25" style="font-family: 'New Computer Modern'; font-size: 15px; fill: rgb(42, 63, 95); fill-opacity: 1; white-space: pre; opacity: 1;" transform="translate(0,384.55000000000007)">0</text></g><g class="y2tick"><text text-anchor="end" x="66" y="5.25" style="font-family: 'New Computer Modern'; font-size: 15px; fill: rgb(42, 63, 95); fill-opacity: 1; white-space: pre; opacity: 1;" transform="translate(0,323.08000000000004)">1000</text></g><g class="y2tick"><text text-anchor="end" x="66" y="5.25" style="font-family: 'New Computer Modern'; font-size: 15px; fill: rgb(42, 63, 95); fill-opacity: 1; white-space: pre; opacity: 1;" transform="translate(0,261.61000000000007)">2000</text></g></g><g class="overaxes-above"/></g><g class="subplot x3y3"><g class="layer-subplot"><g class="shapelayer"/><g class="imagelayer"/></g><g class="minor-gridlayer"><g class="x3"/><g class="y3"/></g><g class="gridlayer"><g class="x3"><path class="x3grid crisp" transform="translate(171.82999999999998,0)" d="M0,498.09999999999997v204.9" style="stroke: rgb(255, 255, 255); stroke-opacity: 1; stroke-width: 1px;"/><path class="x3grid crisp" transform="translate(276.66999999999996,0)" d="M0,498.09999999999997v204.9" style="stroke: rgb(255, 255, 255); stroke-opacity: 1; stroke-width: 1px;"/><path class="x3grid crisp" transform="translate(381.5,0)" d="M0,498.09999999999997v204.9" style="stroke: rgb(255, 255, 255); stroke-opacity: 1; stroke-width: 1px;"/><path class="x3grid crisp" transform="translate(486.33,0)" d="M0,498.09999999999997v204.9" style="stroke: rgb(255, 255, 255); stroke-opacity: 1; stroke-width: 1px;"/><path class="x3grid crisp" transform="translate(591.17,0)" d="M0,498.09999999999997v204.9" style="stroke: rgb(255, 255, 255); stroke-opacity: 1; stroke-width: 1px;"/></g><g class="y3"><path class="y3grid crisp" transform="translate(0,679.64)" d="M67,0h629" style="stroke: rgb(255, 255, 255); stroke-opacity: 1; stroke-width: 1px;"/><path class="y3grid crisp" transform="translate(0,627.1899999999999)" d="M67,0h629" style="stroke: rgb(255, 255, 255); stroke-opacity: 1; stroke-width: 1px;"/><path class="y3grid crisp" transform="translate(0,522.28)" d="M67,0h629" style="stroke: rgb(255, 255, 255); stroke-opacity: 1; stroke-width: 1px;"/></g></g><g class="zerolinelayer"><path class="x3zl zl crisp" transform="translate(67,0)" d="M0,498.09999999999997v204.9" style="stroke: rgb(255, 255, 255); stroke-opacity: 1; stroke-width: 2px;"/><path class="y3zl zl crisp" transform="translate(0,574.73)" d="M67,0h629" style="stroke: rgb(255, 255, 255); stroke-opacity: 1; stroke-width: 2px;"/></g><path class="xlines-below"/><path class="ylines-below"/><g class="overlines-below"/><g class="xaxislayer-below"/><g class="yaxislayer-below"/><g class="overaxes-below"/><g class="plot" transform="translate(67,498.09999999999997)" clip-path="url(#clipec90efx3y3plot)"><g class="scatterlayer mlayer"><g class="trace scatter trace87bc2c" style="stroke-miterlimit: 2;"><g class="fills"><g><path class="js-fill" d="M629,76.63L0,76.63L0,76.63L0,194.65L3.16,191.7L31.61,166.19L34.77,163.48L63.22,140.12L66.38,137.64L94.82,116.42L97.98,114.18L126.43,95.11L129.59,93.11L158.04,76.19L161.2,74.43L186.49,61.19L189.65,59.65L214.93,48.13L218.1,46.8L243.38,37L246.54,35.88L271.83,27.8L274.99,26.9L300.28,20.53L303.44,19.84L328.72,15.19L331.88,14.72L357.17,11.79L360.33,11.53L385.62,10.31L388.78,10.27L414.07,10.77L417.23,10.94L442.51,13.15L445.67,13.54L470.96,17.47L474.12,18.07L499.41,23.72L502.57,24.54L527.85,31.9L531.02,32.93L556.3,42.02L559.46,43.26L584.75,54.06L587.91,55.52L613.2,68.03L616.36,69.71L629,76.63L629,76.63" style="fill: rgb(144, 238, 144); fill-opacity: 0.5; stroke-width: 0;"/></g></g><g class="errorbars"/><g class="lines"><path class="js-line" d="M0,76.63L0,194.65L3.16,191.7L31.61,166.19L34.77,163.48L63.22,140.12L66.38,137.64L94.82,116.42L97.98,114.18L126.43,95.11L129.59,93.11L158.04,76.19L161.2,74.43L186.49,61.19L189.65,59.65L214.93,48.13L218.1,46.8L243.38,37L246.54,35.88L271.83,27.8L274.99,26.9L300.28,20.53L303.44,19.84L328.72,15.19L331.88,14.72L357.17,11.79L360.33,11.53L385.62,10.31L388.78,10.27L414.07,10.77L417.23,10.94L442.51,13.15L445.67,13.54L470.96,17.47L474.12,18.07L499.41,23.72L502.57,24.54L527.85,31.9L531.02,32.93L556.3,42.02L559.46,43.26L584.75,54.06L587.91,55.52L613.2,68.03L616.36,69.71L629,76.63L629,76.63" style="vector-effect: none; fill: none; stroke: rgb(144, 238, 144); stroke-opacity: 1; stroke-width: 1px; opacity: 1;"/></g><g class="points"/><g class="text"/></g></g></g><g class="overplot"/><path class="xlines-above crisp" d="M0,0" style="fill: none;"/><path class="ylines-above crisp" d="M0,0" style="fill: none;"/><g class="overlines-above"/><g class="xaxislayer-above"><g class="x3tick"><text text-anchor="middle" x="0" y="719" transform="translate(67,0)" style="font-family: 'New Computer Modern'; font-size: 15px; fill: rgb(42, 63, 95); fill-opacity: 1; white-space: pre; opacity: 1;">0</text></g><g class="x3tick"><text text-anchor="middle" x="0" y="719" style="font-family: 'New Computer Modern'; font-size: 15px; fill: rgb(42, 63, 95); fill-opacity: 1; white-space: pre; opacity: 1;" transform="translate(171.82999999999998,0)">0.5</text></g><g class="x3tick"><text text-anchor="middle" x="0" y="719" style="font-family: 'New Computer Modern'; font-size: 15px; fill: rgb(42, 63, 95); fill-opacity: 1; white-space: pre; opacity: 1;" transform="translate(276.66999999999996,0)">1</text></g><g class="x3tick"><text text-anchor="middle" x="0" y="719" style="font-family: 'New Computer Modern'; font-size: 15px; fill: rgb(42, 63, 95); fill-opacity: 1; white-space: pre; opacity: 1;" transform="translate(381.5,0)">1.5</text></g><g class="x3tick"><text text-anchor="middle" x="0" y="719" style="font-family: 'New Computer Modern'; font-size: 15px; fill: rgb(42, 63, 95); fill-opacity: 1; white-space: pre; opacity: 1;" transform="translate(486.33,0)">2</text></g><g class="x3tick"><text text-anchor="middle" x="0" y="719" style="font-family: 'New Computer Modern'; font-size: 15px; fill: rgb(42, 63, 95); fill-opacity: 1; white-space: pre; opacity: 1;" transform="translate(591.17,0)">2.5</text></g><g class="x3tick"><text text-anchor="middle" x="0" y="719" style="font-family: 'New Computer Modern'; font-size: 15px; fill: rgb(42, 63, 95); fill-opacity: 1; white-space: pre; opacity: 1;" transform="translate(696,0)">3</text></g></g><g class="yaxislayer-above"><g class="y3tick"><text text-anchor="end" x="66" y="5.25" transform="translate(0,679.64)" style="font-family: 'New Computer Modern'; font-size: 15px; fill: rgb(42, 63, 95); fill-opacity: 1; white-space: pre; opacity: 1;">−1000</text></g><g class="y3tick"><text text-anchor="end" x="66" y="5.25" style="font-family: 'New Computer Modern'; font-size: 15px; fill: rgb(42, 63, 95); fill-opacity: 1; white-space: pre; opacity: 1;" transform="translate(0,627.1899999999999)">−500</text></g><g class="y3tick"><text text-anchor="end" x="66" y="5.25" style="font-family: 'New Computer Modern'; font-size: 15px; fill: rgb(42, 63, 95); fill-opacity: 1; white-space: pre; opacity: 1;" transform="translate(0,574.73)">0</text></g><g class="y3tick"><text text-anchor="end" x="66" y="5.25" style="font-family: 'New Computer Modern'; font-size: 15px; fill: rgb(42, 63, 95); fill-opacity: 1; white-space: pre; opacity: 1;" transform="translate(0,522.28)">500</text></g></g><g class="overaxes-above"/></g></g><g class="polarlayer"/><g class="smithlayer"/><g class="ternarylayer"/><g class="geolayer"/><g class="funnelarealayer"/><g class="pielayer"/><g class="iciclelayer"/><g class="treemaplayer"/><g class="sunburstlayer"/><g class="glimages"/><defs id="topdefs-ec90ef"><g class="clips"/></defs><g class="layer-above"><g class="imagelayer"/><g class="shapelayer"/></g><g class="infolayer"><g class="g-gtitle"/><g class="g-xtitle"/><g class="g-x2title"/><g class="g-x3title" transform="translate(0,-3.1000000000000227)"><text class="x3title" x="381.5" y="749.1" text-anchor="middle" style="font-family: 'New Computer Modern'; font-size: 18px; fill: rgb(42, 63, 95); opacity: 1; font-weight: normal; white-space: pre;">Beam length [m]</text></g><g class="g-ytitle" transform="translate(4.3310546875,0)"><text class="ytitle" transform="rotate(-90,11.681249999999999,122.45000000000002)" x="11.681249999999999" y="122.45000000000002" text-anchor="middle" style="font-family: 'New Computer Modern'; font-size: 18px; fill: rgb(42, 63, 95); opacity: 1; font-weight: normal; white-space: pre;">Normal force [N]</text></g><g class="g-y2title" transform="translate(15.568359375,0)"><text class="y2title" transform="rotate(-90,0.4312500000000057,361.50000000000006)" x="0.4312500000000057" y="361.50000000000006" text-anchor="middle" style="font-family: 'New Computer Modern'; font-size: 18px; fill: rgb(42, 63, 95); opacity: 1; font-weight: normal; white-space: pre;">Shear force [N]</text></g><g class="g-y3title" transform="translate(15.572265625,0)"><text class="y3title" transform="rotate(-90,0.4312500000000057,600.55)" x="0.4312500000000057" y="600.55" text-anchor="middle" style="font-family: 'New Computer Modern'; font-size: 18px; fill: rgb(42, 63, 95); opacity: 1; font-weight: normal; white-space: pre;">Bending moment [N⋅m]</text></g><g class="annotation" data-index="0" style="opacity: 1;"><g class="annotation-text-g" transform="rotate(0,381.5,9.999999999999996)"><g class="cursor-pointer" transform="translate(310,0)"><rect class="bg" x="0.5" y="0.5" width="143" height="19" style="stroke-width: 1px; stroke: rgb(0, 0, 0); stroke-opacity: 0; fill: rgb(0, 0, 0); fill-opacity: 0;"/><text class="annotation-text" text-anchor="middle" x="71.984375" y="15" style="font-family: 'New Computer Modern'; font-size: 15px; fill: rgb(42, 63, 95); fill-opacity: 1; white-space: pre;">Normal Force Diagram</text></g></g></g><g class="annotation" data-index="1" style="opacity: 1;"><g class="annotation-text-g" transform="rotate(0,381.5,249.05000000000007)"><g class="cursor-pointer" transform="translate(315,239)"><rect class="bg" x="0.5" y="0.5" width="132" height="19" style="stroke-width: 1px; stroke: rgb(0, 0, 0); stroke-opacity: 0; fill: rgb(0, 0, 0); fill-opacity: 0;"/><text class="annotation-text" text-anchor="middle" x="66.15625" y="15" style="font-family: 'New Computer Modern'; font-size: 15px; fill: rgb(42, 63, 95); fill-opacity: 1; white-space: pre;">Shear Force Diagram</text></g></g></g><g class="annotation" data-index="2" style="opacity: 1;"><g class="annotation-text-g" transform="rotate(0,381.5,488.09999999999997)"><g class="cursor-pointer" transform="translate(299,478)"><rect class="bg" x="0.5" y="0.5" width="165" height="19" style="stroke-width: 1px; stroke: rgb(0, 0, 0); stroke-opacity: 0; fill: rgb(0, 0, 0); fill-opacity: 0;"/><text class="annotation-text" text-anchor="middle" x="82.828125" y="15" style="font-family: 'New Computer Modern'; font-size: 15px; fill: rgb(42, 63, 95); fill-opacity: 1; white-space: pre;">Bending Moment Diagram</text></g></g></g></g></svg>