<svg class="main-svg" xmlns="http://www.w3.org/2000/svg" xmlns:xlink="http://www.w3.org/1999/xlink" width="900" height="1480" style="" viewBox="0 0 900 1480"><rect x="0" y="0" width="900" height="1480" style="fill: rgb(0, 0, 0); fill-opacity: 0;"/><defs id="defs-d490a0"><g class="clips"><clipPath id="clipd490a0xyplot" class="plotclip"><rect width="833" height="321.45750000000004"/></clipPath><clipPath id="clipd490a0x2y2plot" class="plotclip"><rect width="833" height="321.45750000000004"/></clipPath><clipPath id="clipd490a0x3y3plot" class="plotclip"><rect width="833" height="321.4575"/></clipPath><clipPath id="clipd490a0x4y4plot" class="plotclip"><rect width="833" height="321.45750000000004"/></clipPath><clipPath class="axesclip" id="clipd490a0x"><rect x="67" y="0" width="833" height="1480"/></clipPath><clipPath class="axesclip" id="clipd490a0y"><rect x="0" y="20" width="900" height="321.45750000000004"/></clipPath><clipPath class="axesclip" id="clipd490a0xy"><rect x="67" y="20" width="833" height="321.45750000000004"/></clipPath><clipPath class="axesclip" id="clipd490a0y2"><rect x="0" y="383.8474999999999" width="900" height="321.45750000000004"/></clipPath><clipPath class="axesclip" id="clipd490a0xy2"><rect x="67" y="383.8474999999999" width="833" height="321.45750000000004"/></clipPath><clipPath class="axesclip" id="clipd490a0y3"><rect x="0" y="747.695" width="900" height="321.4575"/></clipPath><clipPath class="axesclip" id="clipd490a0xy3"><rect x="67" y="747.695" width="833" height="321.4575"/></clipPath><clipPath class="axesclip" id="clipd490a0y4"><rect x="0" y="1111.5425" width="900" height="321.45750000000004"/></clipPath><clipPath class="axesclip" id="clipd490a0xy4"><rect x="67" y="1111.5425" width="833" height="321.45750000000004"/></clipPath><clipPath class="axesclip" id="clipd490a0x2"><rect x="67" y="0" width="833" height="1480"/></clipPath><clipPath class="axesclip" id="clipd490a0x2y"><rect x="67" y="20" width="833" height="321.45750000000004"/></clipPath><clipPath class="axesclip" id="clipd490a0x2y2"><rect x="67" y="383.8474999999999" width="833" height="321.45750000000004"/></clipPath><clipPath class="axesclip" id="clipd490a0x2y3"><rect x="67" y="747.695" width="833" height="321.4575"/></clipPath><clipPath class="axesclip" id="clipd490a0x2y4"><rect x="67" y="1111.5425" width="833" height="321.45750000000004"/></clipPath><clipPath class="axesclip" id="clipd490a0x3"><rect x="67" y="0" width="833" height="1480"/></clipPath><clipPath class="axesclip" id="clipd490a0x3y"><rect x="67" y="20" width="833" height="321.45750000000004"/></clipPath><clipPath class="axesclip" id="clipd490a0x3y2"><rect x="67" y="383.8474999999999" width="833" height="321.45750000000004"/></clipPath><clipPath class="axesclip" id="clipd490a0x3y3"><rect x="67" y="747.695" width="833" height="321.4575"/></clipPath><clipPath class="axesclip" id="clipd490a0x3y4"><rect x="67" y="1111.5425" width="833" height="321.45750000000004"/></clipPath><clipPath class="axesclip" id="clipd490a0x4"><rect x="67" y="0" width="833" height="1480"/></clipPath><clipPath class="axesclip" id="clipd490a0x4y"><rect x="67" y="20" width="833" height="321.45750000000004"/></clipPath><clipPath class="axesclip" id="clipd490a0x4y2"><rect x="67" y="383.8474999999999" width="833" height="321.45750000000004"/></clipPath><clipPath class="axesclip" id="clipd490a0x4y3"><rect x="67" y="747.695" width="833" height="321.4575"/></clipPath><clipPath class="axesclip" id="clipd490a0x4y4"><rect x="67" y="1111.5425" width="833" height="321.45750000000004"/></clipPath></g><g class="gradients"/><g class="patterns"/></defs><g class="bglayer"><rect class="bg" x="67" y="20" width="833" height="321.45750000000004" style="fill: rgb(229, 236, 246); fill-opacity: 1; stroke-width: 0;"/><rect class="bg" x="67" y="383.8474999999999" width="833" height="321.45750000000004" style="fill: rgb(229, 236, 246); fill-opacity: 1; stroke-width: 0;"/><rect class="bg" x="67" y="747.695" width="833" height="321.4575" style="fill: rgb(229, 236, 246); fill-opacity: 1; stroke-width: 0;"/><rect class="bg" x="67" y="1111.5425" width="833" height="321.45750000000004" style="fill: rgb(229, 236, 246); fill-opacity: 1; stroke-width: 0;"/></g><g class="layer-below"><g class="imagelayer"/><g class="shapelayer"/></g><g class="cartesianlayer"><g class="subplot xy"><g class="layer-subplot"><g class="shapelayer"/><g class="imagelayer"/></g><g class="minor-gridlayer"><g class="x"/><g class="y"/></g><g class="gridlayer"><g class="x"><path class="xgrid crisp" transform="translate(237.83,0)" d="M0,20v321.45750000000004" style="stroke: rgb(255, 255, 255); stroke-opacity: 1; stroke-width: 1px;"/><path class="xgrid crisp" transform="translate(360.67,0)" d="M0,20v321.45750000000004" style="stroke: rgb(255, 255, 255); stroke-opacity: 1; stroke-width: 1px;"/><path class="xgrid crisp" transform="translate(483.5,0)" d="M0,20v321.45750000000004" style="stroke: rgb(255, 255, 255); stroke-opacity: 1; stroke-width: 1px;"/><path class="xgrid crisp" transform="translate(606.33,0)" d="M0,20v321.45750000000004" style="stroke: rgb(255, 255, 255); stroke-opacity: 1; stroke-width: 1px;"/><path class="xgrid crisp" transform="translate(729.17,0)" d="M0,20v321.45750000000004" style="stroke: rgb(255, 255, 255); stroke-opacity: 1; stroke-width: 1px;"/><path class="xgrid crisp" transform="translate(852,0)" d="M0,20v321.45750000000004" style="stroke: rgb(255, 255, 255); stroke-opacity: 1; stroke-width: 1px;"/></g><g class="y"/></g><g class="zerolinelayer"><path class="xzl zl crisp" transform="translate(115,0)" d="M0,20v321.45750000000004" style="stroke: rgb(255, 255, 255); stroke-opacity: 1; stroke-width: 2px;"/></g><path class="xlines-below"/><path class="ylines-below"/><g class="overlines-below"/><g class="xaxislayer-below"/><g class="yaxislayer-below"/><g class="overaxes-below"/><g class="plot" transform="translate(67,20)" clip-path="url(#clipd490a0xyplot)"><g class="scatterlayer mlayer"><g class="trace scatter trace74614e" style="stroke-miterlimit: 2; opacity: 1;"><g class="fills"/><g class="errorbars"/><g class="lines"><path class="js-line" d="M48,160.73L785,160.73" style="vector-effect: none; fill: none; stroke: rgb(128, 0, 128); stroke-opacity: 1; stroke-width: 2px; opacity: 1;"/></g><g class="points"/><g class="text"/></g><g class="trace scatter trace5cc2f9" style="stroke-miterlimit: 2; opacity: 0;"><g class="fills"/><g class="errorbars"/><g class="lines"/><g class="points"><path class="point" transform="translate(48,160.73)" d="M-5.77,2.5H5.77L0,-5Z" style="opacity: 1; stroke-width: 0px; fill: rgb(0, 0, 255); fill-opacity: 1;"/></g><g class="text"/></g><g class="trace scatter trace2e6ef5" style="stroke-miterlimit: 2; opacity: 0;"><g class="fills"/><g class="errorbars"/><g class="lines"/><g class="points"><path class="point" transform="translate(785,160.73)" d="M-5.77,2.5H5.77L0,-5Z" style="opacity: 1; stroke-width: 0px; fill: rgb(0, 0, 255); fill-opacity: 1;"/></g><g class="text"/></g><g class="trace scatter trace81988a" style="stroke-miterlimit: 2; opacity: 1;"><g class="fills"><g><path class="js-fill" d="M785,160.73Z" style="fill: rgb(0, 0, 255); fill-opacity: 0.5; stroke-width: 0;"/></g></g><g class="errorbars"/><g class="lines"/><g class="points"><path class="point" transform="translate(785,160.73)" d="M0,0L-5,10H5Z" style="opacity: 1; stroke-width: 0px; fill: rgb(0, 0, 255); fill-opacity: 1;"/></g><g class="text"/></g><g class="trace scatter trace3e3414" style="stroke-miterlimit: 2;"><g class="fills"><g><path class="js-fill" d="M785,160.73L48,160.73L48,80.36L785,80.36" style="fill: rgb(147, 112, 219); fill-opacity: 0.5; stroke-width: 0;"/></g></g><g class="errorbars"/><g class="lines"><path class="js-line" d="M48,80.36L785,80.36" style="vector-effect: none; fill: none; stroke: rgb(147, 112, 219); stroke-opacity: 1; stroke-width: 1px; opacity: 1;"/></g><g class="points"/><g class="text"/></g><g class="trace scatter trace9326a4" style="stroke-miterlimit: 2; opacity: 0;"><g class="fills"/><g class="errorbars"/><g class="lines"/><g class="points"><path class="point" transform="translate(48,160.73)" d="M-5.77,2.5H5.77L0,-5Z" style="opacity: 1; stroke-width: 0px; fill: rgb(147, 112, 219); fill-opacity: 1;"/></g><g class="text"/></g><g class="trace scatter trace2de66f" style="stroke-miterlimit: 2; opacity: 0;"><g class="fills"/><g class="errorbars"/><g class="lines"/><g class="points"><path class="point" transform="translate(785,160.73)" d="M-5.77,2.5H5.77L0,-5Z" style="opacity: 1; stroke-width: 0px; fill: rgb(147, 112, 219); fill-opacity: 1;"/></g><g class="text"/></g></g></g><g class="overplot"/><path class="xlines-above crisp" d="M0,0" style="fill: none;"/><path class="ylines-above crisp" d="M0,0" style="fill: none;"/><g class="overlines-above"/><g class="xaxislayer-above"/><g class="yaxislayer-above"/><g class="overaxes-above"/></g><g class="subplot x2y2"><g class="layer-subplot"><g class="shapelayer"/><g class="imagelayer"/></g><g class="minor-gridlayer"><g class="x2"/><g class="y2"/></g><g class="gridlayer"><g class="x2"><path class="x2grid crisp" transform="translate(237.83,0)" d="M0,383.8474999999999v321.45750000000004" style="stroke: rgb(255, 255, 255); stroke-opacity: 1; stroke-width: 1px;"/><path class="x2grid crisp" transform="translate(360.67,0)" d="M0,383.8474999999999v321.45750000000004" style="stroke: rgb(255, 255, 255); stroke-opacity: 1; stroke-width: 1px;"/><path class="x2grid crisp" transform="translate(483.5,0)" d="M0,383.8474999999999v321.45750000000004" style="stroke: rgb(255, 255, 255); stroke-opacity: 1; stroke-width: 1px;"/><path class="x2grid crisp" transform="translate(606.33,0)" d="M0,383.8474999999999v321.45750000000004" style="stroke: rgb(255, 255, 255); stroke-opacity: 1; stroke-width: 1px;"/><path class="x2grid crisp" transform="translate(729.17,0)" d="M0,383.8474999999999v321.45750000000004" style="stroke: rgb(255, 255, 255); stroke-opacity: 1; stroke-width: 1px;"/><path class="x2grid crisp" transform="translate(852,0)" d="M0,383.8474999999999v321.45750000000004" style="stroke: rgb(255, 255, 255); stroke-opacity: 1; stroke-width: 1px;"/></g><g class="y2"/></g><g class="zerolinelayer"><path class="x2zl zl crisp" transform="translate(115,0)" d="M0,383.8474999999999v321.45750000000004" style="stroke: rgb(255, 255, 255); stroke-opacity: 1; stroke-width: 2px;"/></g><path class="xlines-below"/><path class="ylines-below"/><g class="overlines-below"/><g class="xaxislayer-below"/><g class="yaxislayer-below"/><g class="overaxes-below"/><g class="plot" transform="translate(67,383.8474999999999)" clip-path="url(#clipd490a0x2y2plot)"><g class="scatterlayer mlayer"><g class="trace scatter trace6783b9" style="stroke-miterlimit: 2; opacity: 1;"><g class="fills"/><g class="errorbars"/><g class="lines"><path class="js-line" d="M48,160.73L785,160.73" style="vector-effect: none; fill: none; stroke: rgb(128, 0, 128); stroke-opacity: 1; stroke-width: 2px; opacity: 1;"/></g><g class="points"/><g class="text"/></g><g class="trace scatter tracea42c21" style="stroke-miterlimit: 2; opacity: 0;"><g class="fills"/><g class="errorbars"/><g class="lines"/><g class="points"><path class="point" transform="translate(48,160.73)" d="M-5.77,2.5H5.77L0,-5Z" style="opacity: 1; stroke-width: 0px; fill: rgb(255, 0, 0); fill-opacity: 1;"/></g><g class="text"/></g><g class="trace scatter trace299faa" style="stroke-miterlimit: 2; opacity: 0;"><g class="fills"/><g class="errorbars"/><g class="lines"/><g class="points"><path class="point" transform="translate(785,160.73)" d="M-5.77,2.5H5.77L0,-5Z" style="opacity: 1; stroke-width: 0px; fill: rgb(255, 0, 0); fill-opacity: 1;"/></g><g class="text"/></g></g></g><g class="overplot"/><path class="xlines-above crisp" d="M0,0" style="fill: none;"/><path class="ylines-above crisp" d="M0,0" style="fill: none;"/><g class="overlines-above"/><g class="xaxislayer-above"/><g class="yaxislayer-above"/><g class="overaxes-above"/></g><g class="subplot x3y3"><g class="layer-subplot"><g class="shapelayer"/><g class="imagelayer"/></g><g class="minor-gridlayer"><g class="x3"/><g class="y3"/></g><g class="gridlayer"><g class="x3"><path class="x3grid crisp" transform="translate(237.83,0)" d="M0,747.695v321.4575" style="stroke: rgb(255, 255, 255); stroke-opacity: 1; stroke-width: 1px;"/><path class="x3grid crisp" transform="translate(360.67,0)" d="M0,747.695v321.4575" style="stroke: rgb(255, 255, 255); stroke-opacity: 1; stroke-width: 1px;"/><path class="x3grid crisp" transform="translate(483.5,0)" d="M0,747.695v321.4575" style="stroke: rgb(255, 255, 255); stroke-opacity: 1; stroke-width: 1px;"/><path class="x3grid crisp" transform="translate(606.33,0)" d="M0,747.695v321.4575" style="stroke: rgb(255, 255, 255); stroke-opacity: 1; stroke-width: 1px;"/><path class="x3grid crisp" transform="translate(729.17,0)" d="M0,747.695v321.4575" style="stroke: rgb(255, 255, 255); stroke-opacity: 1; stroke-width: 1px;"/><path class="x3grid crisp" transform="translate(852,0)" d="M0,747.695v321.4575" style="stroke: rgb(255, 255, 255); stroke-opacity: 1; stroke-width: 1px;"/></g><g class="y3"><path class="y3grid crisp" transform="translate(0,1041.025)" d="M67,0h833" style="stroke: rgb(255, 255, 255); stroke-opacity: 1; stroke-width: 1px;"/><path class="y3grid crisp" transform="translate(0,992.8050000000001)" d="M67,0h833" style="stroke: rgb(255, 255, 255); stroke-opacity: 1; stroke-width: 1px;"/><path class="y3grid crisp" transform="translate(0,896.365)" d="M67,0h833" style="stroke: rgb(255, 255, 255); stroke-opacity: 1; stroke-width: 1px;"/><path class="y3grid crisp" transform="translate(0,848.1550000000001)" d="M67,0h833" style="stroke: rgb(255, 255, 255); stroke-opacity: 1; stroke-width: 1px;"/><path class="y3grid crisp" transform="translate(0,799.9350000000001)" d="M67,0h833" style="stroke: rgb(255, 255, 255); stroke-opacity: 1; stroke-width: 1px;"/><path class="y3grid crisp" transform="translate(0,751.715)" d="M67,0h833" style="stroke: rgb(255, 255, 255); stroke-opacity: 1; stroke-width: 1px;"/></g></g><g class="zerolinelayer"><path class="x3zl zl crisp" transform="translate(115,0)" d="M0,747.695v321.4575" style="stroke: rgb(255, 255, 255); stroke-opacity: 1; stroke-width: 2px;"/><path class="y3zl zl crisp" transform="translate(0,944.585)" d="M67,0h833" style="stroke: rgb(255, 255, 255); stroke-opacity: 1; stroke-width: 2px;"/></g><path class="xlines-below"/><path class="ylines-below"/><g class="overlines-below"/><g class="xaxislayer-below"/><g class="yaxislayer-below"/><g class="overaxes-below"/><g class="plot" transform="translate(67,747.695)" clip-path="url(#clipd490a0x3y3plot)"><g class="scatterlayer mlayer"><g class="trace scatter trace7d0a5b" style="stroke-miterlimit: 2;"><g class="fills"><g><path class="js-fill" d="M785,196.89L48,196.89L48,196.89L48,16.07L51.7,17.53L522.05,202.16L525.75,203.62L785,305.38L785,305.38" style="fill: rgb(0, 255, 255); fill-opacity: 0.5; stroke-width: 0;"/></g></g><g class="errorbars"/><g class="lines"><path class="js-line" d="M48,196.89L48,16.07L51.7,17.53L522.05,202.16L525.75,203.62L785,305.38L785,305.38" style="vector-effect: none; fill: none; stroke: rgb(0, 255, 255); stroke-opacity: 1; stroke-width: 1px; opacity: 1;"/></g><g class="points"/><g class="text"/></g></g></g><g class="overplot"/><path class="xlines-above crisp" d="M0,0" style="fill: none;"/><path class="ylines-above crisp" d="M0,0" style="fill: none;"/><g class="overlines-above"/><g class="xaxislayer-above"/><g class="yaxislayer-above"><g class="y3tick"><text text-anchor="end" x="66" y="5.25" transform="translate(0,1041.025)" style="font-family: 'New Computer Modern'; font-size: 15px; fill: rgb(42, 63, 95); fill-opacity: 1; white-space: pre; opacity: 1;">−1000</text></g><g class="y3tick"><text text-anchor="end" x="66" y="5.25" style="font-family: 'New Computer Modern'; font-size: 15px; fill: rgb(42, 63, 95); fill-opacity: 1; white-space: pre; opacity: 1;" transform="translate(0,992.8050000000001)">−500</text></g><g class="y3tick"><text text-anchor="end" x="66" y="5.25" style="font-family: 'New Computer Modern'; font-size: 15px; fill: rgb(42, 63, 95); fill-opacity: 1; white-space: pre; opacity: 1;" transform="translate(0,944.585)">0</text></g><g class="y3tick"><text text-anchor="end" x="66" y="5.25" style="font-family: 'New Computer Modern'; font-size: 15px; fill: rgb(42, 63, 95); fill-opacity: 1; white-space: pre; opacity: 1;" transform="translate(0,896.365)">500</text></g><g class="y3tick"><text text-anchor="end" x="66" y="5.25" style="font-family: 'New Computer Modern'; font-size: 15px; fill: rgb(42, 63, 95); fill-opacity: 1; white-space: pre; opacity: 1;" transform="translate(0,848.1550000000001)">1000</text></g><g class="y3tick"><text text-anchor="end" x="66" y="5.25" style="font-family: 'New Computer Modern'; font-size: 15px; fill: rgb(42, 63, 95); fill-opacity: 1; white-space: pre; opacity: 1;" transform="translate(0,799.9350000000001)">1500</text></g><g class="y3tick"><text text-anchor="end" x="66" y="5.25" style="font-family: 'New Computer Modern'; font-size: 15px; fill: rgb(42, 63, 95); fill-opacity: 1; white-space: pre; opacity: 1;" transform="translate(0,751.715)">2000</text></g></g><g class="overaxes-above"/></g><g class="subplot x4y4"><g class="layer-subplot"><g class="shapelayer"/><g class="imagelayer"/></g><g class="minor-gridlayer"><g class="x4"/><g class="y4"/></g><g class="gridlayer"><g class="x4"><path class="x4grid crisp" transform="translate(237.83,0)" d="M0,1111.5425v321.45750000000004" style="stroke: rgb(255, 255, 255); stroke-opacity: 1; stroke-width: 1px;"/><path class="x4grid crisp" transform="translate(360.67,0)" d="M0,1111.5425v321.45750000000004" style="stroke: rgb(255, 255, 255); stroke-opacity: 1; stroke-width: 1px;"/><path class="x4grid crisp" transform="translate(483.5,0)" d="M0,1111.5425v321.45750000000004" style="stroke: rgb(255, 255, 255); stroke-opacity: 1; stroke-width: 1px;"/><path class="x4grid crisp" transform="translate(606.33,0)" d="M0,1111.5425v321.45750000000004" style="stroke: rgb(255, 255, 255); stroke-opacity: 1; stroke-width: 1px;"/><path class="x4grid crisp" transform="translate(729.17,0)" d="M0,1111.5425v321.45750000000004" style="stroke: rgb(255, 255, 255); stroke-opacity: 1; stroke-width: 1px;"/><path class="x4grid crisp" transform="translate(852,0)" d="M0,1111.5425v321.45750000000004" style="stroke: rgb(255, 255, 255); stroke-opacity: 1; stroke-width: 1px;"/></g><g class="y4"><path class="y4grid crisp" transform="translate(0,1396.3525)" d="M67,0h833" style="stroke: rgb(255, 255, 255); stroke-opacity: 1; stroke-width: 1px;"/><path class="y4grid crisp" transform="translate(0,1314.0625)" d="M67,0h833" style="stroke: rgb(255, 255, 255); stroke-opacity: 1; stroke-width: 1px;"/><path class="y4grid crisp" transform="translate(0,1149.4725)" d="M67,0h833" style="stroke: rgb(255, 255, 255); stroke-opacity: 1; stroke-width: 1px;"/></g></g><g class="zerolinelayer"><path class="x4zl zl crisp" transform="translate(115,0)" d="M0,1111.5425v321.45750000000004" style="stroke: rgb(255, 255, 255); stroke-opacity: 1; stroke-width: 2px;"/><path class="y4zl zl crisp" transform="translate(0,1231.7625)" d="M67,0h833" style="stroke: rgb(255, 255, 255); stroke-opacity: 1; stroke-width: 2px;"/></g><path class="xlines-below"/><path class="ylines-below"/><g class="overlines-below"/><g class="xaxislayer-below"/><g class="yaxislayer-below"/><g class="overaxes-below"/><g class="plot" transform="translate(67,1111.5425)" clip-path="url(#clipd490a0x4y4plot)"><g class="scatterlayer mlayer"><g class="trace scatter tracefa8d18" style="stroke-miterlimit: 2;"><g class="fills"><g><path class="js-fill" d="M785,120.22L48,120.22L48,120.22L48,305.38L51.7,300.75L81.33,265.03L85.04,260.73L114.66,227.7L118.37,223.74L147.99,193.41L151.7,189.78L181.33,162.14L185.03,158.85L210.95,136.89L214.66,133.9L240.58,114.04L244.29,111.35L270.21,93.58L273.91,91.19L299.84,75.51L303.54,73.42L329.47,59.84L333.17,58.05L355.39,48.09L359.1,46.56L385.02,36.9L388.72,35.67L414.65,28.11L418.35,27.18L444.28,21.72L447.98,21.09L470.2,18.08L473.9,17.71L496.13,16.28L499.83,16.18L522.05,16.32L525.75,16.47L547.97,18.18L551.68,18.6L573.9,21.88L577.6,22.56L599.82,27.41L603.53,28.35L629.45,35.98L633.16,37.22L655.38,45.44L659.08,46.94L685.01,58.49L688.71,60.29L714.63,73.94L718.34,76.04L744.26,91.78L747.96,94.18L773.89,112.02L777.59,114.72L785,120.22L785,120.22" style="fill: rgb(144, 238, 144); fill-opacity: 0.5; stroke-width: 0;"/></g></g><g class="errorbars"/><g class="lines"><path class="js-line" d="M48,120.22L48,305.38L51.7,300.75L81.33,265.03L85.04,260.73L114.66,227.7L118.37,223.74L147.99,193.41L151.7,189.78L181.33,162.14L185.03,158.85L210.95,136.89L214.66,133.9L240.58,114.04L244.29,111.35L270.21,93.58L273.91,91.19L299.84,75.51L303.54,73.42L329.47,59.84L333.17,58.05L355.39,48.09L359.1,46.56L385.02,36.9L388.72,35.67L414.65,28.11L418.35,27.18L444.28,21.72L447.98,21.09L470.2,18.08L473.9,17.71L496.13,16.28L499.83,16.18L522.05,16.32L525.75,16.47L547.97,18.18L551.68,18.6L573.9,21.88L577.6,22.56L599.82,27.41L603.53,28.35L629.45,35.98L633.16,37.22L655.38,45.44L659.08,46.94L685.01,58.49L688.71,60.29L714.63,73.94L718.34,76.04L744.26,91.78L747.96,94.18L773.89,112.02L777.59,114.72L785,120.22L785,120.22" style="vector-effect: none; fill: none; stroke: rgb(144, 238, 144); stroke-opacity: 1; stroke-width: 1px; opacity: 1;"/></g><g class="points"/><g class="text"/></g></g></g><g class="overplot"/><path class="xlines-above crisp" d="M0,0" style="fill: none;"/><path class="ylines-above crisp" d="M0,0" style="fill: none;"/><g class="overlines-above"/><g class="xaxislayer-above"><g class="x4tick"><text text-anchor="middle" x="0" y="1449" transform="translate(115,0)" style="font-family: 'New Computer Modern'; font-size: 15px; fill: rgb(42, 63, 95); fill-opacity: 1; white-space: pre; opacity: 1;">0</text></g><g class="x4tick"><text text-anchor="middle" x="0" y="1449" style="font-family: 'New Computer Modern'; font-size: 15px; fill: rgb(42, 63, 95); fill-opacity: 1; white-space: pre; opacity: 1;" transform="translate(237.83,0)">0.5</text></g><g class="x4tick"><text text-anchor="middle" x="0" y="1449" style="font-family: 'New Computer Modern'; font-size: 15px; fill: rgb(42, 63, 95); fill-opacity: 1; white-space: pre; opacity: 1;" transform="translate(360.67,0)">1</text></g><g class="x4tick"><text text-anchor="middle" x="0" y="1449" style="font-family: 'New Computer Modern'; font-size: 15px; fill: rgb(42, 63, 95); fill-opacity: 1; white-space: pre; opacity: 1;" transform="translate(483.5,0)">1.5</text></g><g class="x4tick"><text text-anchor="middle" x="0" y="1449" style="font-family: 'New Computer Modern'; font-size: 15px; fill: rgb(42, 63, 95); fill-opacity: 1; white-space: pre; opacity: 1;" transform="translate(606.33,0)">2</text></g><g class="x4tick"><text text-anchor="middle" x="0" y="1449" style="font-family: 'New Computer Modern'; font-size: 15px; fill: rgb(42, 63, 95); fill-opacity: 1; white-space: pre; opacity: 1;" transform="translate(729.17,0)">2.5</text></g><g class="x4tick"><text text-anchor="middle" x="0" y="1449" style="font-family: 'New Computer Modern'; font-size: 15px; fill: rgb(42, 63, 95); fill-opacity: 1; white-space: pre; opacity: 1;" transform="translate(852,0)">3</text></g></g><g class="yaxislayer-above"><g class="y4tick"><text text-anchor="end" x="66" y="5.25" transform="translate(0,1396.3525)" style="font-family: 'New Computer Modern'; font-size: 15px; fill: rgb(42, 63, 95); fill-opacity: 1; white-space: pre; opacity: 1;">−1000</text></g><g class="y4tick"><text text-anchor="end" x="66" y="5.25" style="font-family: 'New Computer Modern'; font-size: 15px; fill: rgb(42, 63, 95); fill-opacity: 1; white-space: pre; opacity: 1;" transform="translate(0,1314.0625)">−500</text></g><g class="y4tick"><text text-anchor="end" x="66" y="5.25" style="font-family: 'New Computer Modern'; font-size: 15px; fill: rgb(42, 63, 95); fill-opacity: 1; white-space: pre; opacity: 1;" transform="translate(0,1231.7625)">0</text></g><g class="y4tick"><text text-anchor="end" x="66" y="5.25" style="font-family: 'New Computer Modern'; font-size: 15px; fill: rgb(42, 63, 95); fill-opacity: 1; white-space: pre; opacity: 1;" transform="translate(0,1149.4725)">500</text></g></g><g class="overaxes-above"/></g></g><g class="polarlayer"/><g class="smithlayer"/><g class="ternarylayer"/><g class="geolayer"/><g class="funnelarealayer"/><g class="pielayer"/><g class="iciclelayer"/><g class="treemaplayer"/><g class="sunburstlayer"/><g class="glimages"/><defs id="topdefs-d490a0"><g class="clips"/></defs><g class="layer-above"><g class="imagelayer"/><g class="shapelayer"><g class="shape-group" data-index="0" clip-path="url(#clipd490a0xy)"><path data-index="0" fill-rule="evenodd" d="M113,185.73H113V175.73H113Z" style="opacity: 1; stroke: rgb(0, 0, 255); stroke-opacity: 1; fill: rgb(0, 0, 255); fill-opacity: 1; stroke-width: 4px;"/></g><g class="shape-group" data-index="1" clip-path="url(#clipd490a0xy)"><path data-index="1" fill-rule="evenodd" d="M853,193.73A1,1 0 1,1 852,192.73A1,1 0 0,1 853,193.73Z" style="opacity: 1; stroke: rgb(0, 0, 255); stroke-opacity: 1; fill: rgb(0, 0, 255); fill-opacity: 1; stroke-width: 2px;"/></g><g class="shape-group" data-index="2" clip-path="url(#clipd490a0xy)"><path data-index="2" fill-rule="evenodd" d="M849,193.73A1,1 0 1,1 848,192.73A1,1 0 0,1 849,193.73Z" style="opacity: 1; stroke: rgb(0, 0, 255); stroke-opacity: 1; fill: rgb(0, 0, 255); fill-opacity: 1; stroke-width: 2px;"/></g><g class="shape-group" data-index="3" clip-path="url(#clipd490a0xy)"><path data-index="3" fill-rule="evenodd" d="M857,193.73A1,1 0 1,1 856,192.73A1,1 0 0,1 857,193.73Z" style="opacity: 1; stroke: rgb(0, 0, 255); stroke-opacity: 1; fill: rgb(0, 0, 255); fill-opacity: 1; stroke-width: 2px;"/></g><g class="shape-group" data-index="4" clip-path="url(#clipd490a0xy)"><path data-index="4" fill-rule="evenodd" d="M115,180.73L112,177.73" style="opacity: 1; stroke: rgb(147, 112, 219); stroke-opacity: 1; fill: rgb(0, 0, 0); fill-opacity: 0; stroke-width: 2px;"/></g><g class="shape-group" data-index="5" clip-path="url(#clipd490a0xy)"><path data-index="5" fill-rule="evenodd" d="M115,180.73L118,177.73" style="opacity: 1; stroke: rgb(147, 112, 219); stroke-opacity: 1; fill: rgb(0, 0, 0); fill-opacity: 0; stroke-width: 2px;"/></g><g class="shape-group" data-index="6" clip-path="url(#clipd490a0xy)"><path data-index="6" fill-rule="evenodd" d="M115,180.73L115,150.73" style="opacity: 1; stroke: rgb(147, 112, 219); stroke-opacity: 1; fill: rgb(0, 0, 0); fill-opacity: 0; stroke-width: 2px;"/></g><g class="shape-group" data-index="7" clip-path="url(#clipd490a0xy)"><path data-index="7" fill-rule="evenodd" d="M852,180.73L849,177.73" style="opacity: 1; stroke: rgb(147, 112, 219); stroke-opacity: 1; fill: rgb(0, 0, 0); fill-opacity: 0; stroke-width: 2px;"/></g><g class="shape-group" data-index="8" clip-path="url(#clipd490a0xy)"><path data-index="8" fill-rule="evenodd" d="M852,180.73L855,177.73" style="opacity: 1; stroke: rgb(147, 112, 219); stroke-opacity: 1; fill: rgb(0, 0, 0); fill-opacity: 0; stroke-width: 2px;"/></g><g class="shape-group" data-index="9" clip-path="url(#clipd490a0xy)"><path data-index="9" fill-rule="evenodd" d="M852,180.73L852,150.73" style="opacity: 1; stroke: rgb(147, 112, 219); stroke-opacity: 1; fill: rgb(0, 0, 0); fill-opacity: 0; stroke-width: 2px;"/></g><g class="shape-group" data-index="10" clip-path="url(#clipd490a0x2y2)"><path data-index="10" fill-rule="evenodd" d="M115,544.5774999999999L118,547.5774999999999" style="opacity: 1; stroke: rgb(255, 0, 0); stroke-opacity: 1; fill: rgb(0, 0, 0); fill-opacity: 0; stroke-width: 2px;"/></g><g class="shape-group" data-index="11" clip-path="url(#clipd490a0x2y2)"><path data-index="11" fill-rule="evenodd" d="M115,544.5774999999999L112,547.5774999999999" style="opacity: 1; stroke: rgb(255, 0, 0); stroke-opacity: 1; fill: rgb(0, 0, 0); fill-opacity: 0; stroke-width: 2px;"/></g><g class="shape-group" data-index="12" clip-path="url(#clipd490a0x2y2)"><path data-index="12" fill-rule="evenodd" d="M115,544.5774999999999L115,584.5774999999999" style="opacity: 1; stroke: rgb(255, 0, 0); stroke-opacity: 1; fill: rgb(0, 0, 0); fill-opacity: 0; stroke-width: 2px;"/></g><g class="shape-group" data-index="13" clip-path="url(#clipd490a0x2y2)"><path data-index="13" fill-rule="evenodd" d="M852,544.5774999999999L855,547.5774999999999" style="opacity: 1; stroke: rgb(255, 0, 0); stroke-opacity: 1; fill: rgb(0, 0, 0); fill-opacity: 0; stroke-width: 2px;"/></g><g class="shape-group" data-index="14" clip-path="url(#clipd490a0x2y2)"><path data-index="14" fill-rule="evenodd" d="M852,544.5774999999999L849,547.5774999999999" style="opacity: 1; stroke: rgb(255, 0, 0); stroke-opacity: 1; fill: rgb(0, 0, 0); fill-opacity: 0; stroke-width: 2px;"/></g><g class="shape-group" data-index="15" clip-path="url(#clipd490a0x2y2)"><path data-index="15" fill-rule="evenodd" d="M852,544.5774999999999L852,584.5774999999999" style="opacity: 1; stroke: rgb(255, 0, 0); stroke-opacity: 1; fill: rgb(0, 0, 0); fill-opacity: 0; stroke-width: 2px;"/></g></g></g><g class="infolayer"><g class="g-gtitle"/><g class="g-xtitle"/><g class="g-x2title"/><g class="g-x3title"/><g class="g-x4title" transform="translate(0,-3.099999999999909)"><text class="x4title" x="483.5" y="1479.1" text-anchor="middle" style="font-family: 'New Computer Modern'; font-size: 18px; fill: rgb(42, 63, 95); opacity: 1; font-weight: normal; white-space: pre;">Beam length [m]</text></g><g class="g-y3title" transform="translate(15.5703125,0)"><text class="y3title" transform="rotate(-90,0.4312500000000057,908.42375)" x="0.4312500000000057" y="908.42375" text-anchor="middle" style="font-family: 'New Computer Modern'; font-size: 18px; fill: rgb(42, 63, 95); opacity: 1; font-weight: normal; white-space: pre;">Shear force [N]</text></g><g class="g-y4title" transform="translate(15.57421875,0)"><text class="y4title" transform="rotate(-90,0.4312500000000057,1272.27125)" x="0.4312500000000057" y="1272.27125" text-anchor="middle" style="font-family: 'New Computer Modern'; font-size: 18px; fill: rgb(42, 63, 95); opacity: 1; font-weight: normal; white-space: pre;">Bending moment [N⋅m]</text></g><g class="annotation" data-index="0" style="opacity: 1;"><g class="annotation-text-g" transform="rotate(0,483.5,9.999999999999996)"><g class="cursor-pointer" transform="translate(431,0)"><rect class="bg" x="0.5" y="0.5" width="105" height="19" style="stroke-width: 1px; stroke: rgb(0, 0, 0); stroke-opacity: 0; fill: rgb(0, 0, 0); fill-opacity: 0;"/><text class="annotation-text" text-anchor="middle" x="52.609375" y="15" style="font-family: 'New Computer Modern'; font-size: 15px; fill: rgb(42, 63, 95); fill-opacity: 1; white-space: pre;">Beam Schematic</text></g></g></g><g class="annotation" data-index="1" style="opacity: 1;"><g class="annotation-text-g" transform="rotate(0,483.5,373.8474999999999)"><g class="cursor-pointer" transform="translate(433,364)"><rect class="bg" x="0.5" y="0.5" width="100" height="19" style="stroke-width: 1px; stroke: rgb(0, 0, 0); stroke-opacity: 0; fill: rgb(0, 0, 0); fill-opacity: 0;"/><text class="annotation-text" text-anchor="middle" x="50.53125" y="15" style="font-family: 'New Computer Modern'; font-size: 15px; fill: rgb(42, 63, 95); fill-opacity: 1; white-space: pre;">Reaction Forces</text></g></g></g><g class="annotation" data-index="2" style="opacity: 1;"><g class="annotation-text-g" transform="rotate(0,483.5,737.695)"><g class="cursor-pointer" transform="translate(417,728)"><rect class="bg" x="0.5" y="0.5" width="132" height="19" style="stroke-width: 1px; stroke: rgb(0, 0, 0); stroke-opacity: 0; fill: rgb(0, 0, 0); fill-opacity: 0;"/><text class="annotation-text" text-anchor="middle" x="66.15625" y="15" style="font-family: 'New Computer Modern'; font-size: 15px; fill: rgb(42, 63, 95); fill-opacity: 1; white-space: pre;">Shear Force Diagram</text></g></g></g><g class="annotation" data-index="3" style="opacity: 1;"><g class="annotation-text-g" transform="rotate(0,483.5,1101.5425)"><g class="cursor-pointer" transform="translate(401,1092)"><rect class="bg" x="0.5" y="0.5" width="165" height="19" style="stroke-width: 1px; stroke: rgb(0, 0, 0); stroke-opacity: 0; fill: rgb(0, 0, 0); fill-opacity: 0;"/><text class="annotation-text" text-anchor="middle" x="82.828125" y="15" style="font-family: 'New Computer Modern'; font-size: 15px; fill: rgb(42, 63, 95); fill-opacity: 1; white-space: pre;">Bending Moment Diagram</text></g></g></g><g class="annotation" data-index="4" style="opacity: 1;"><g class="annotation-text-g" transform="rotate(0,115,141.73)"><g class="cursor-pointer" transform="translate(67,132)"><rect class="bg" x="0.5" y="0.5" width="95" height="19" style="stroke-width: 1px; stroke: rgb(0, 0, 0); stroke-opacity: 0; fill: rgb(0, 0, 0); fill-opacity: 0;"/><text class="annotation-text" text-anchor="middle" x="47.84375" y="15" style="font-family: 'New Computer Modern'; font-size: 15px; fill: rgb(147, 112, 219); fill-opacity: 1; white-space: pre;">-1000.000 N/m</text></g></g></g><g class="annotation" data-index="5" style="opacity: 1;"><g class="annotation-text-g" transform="rotate(0,852,141.73)"><g class="cursor-pointer" transform="translate(804,132)"><rect class="bg" x="0.5" y="0.5" width="95" height="19" style="stroke-width: 1px; stroke: rgb(0, 0, 0); stroke-opacity: 0; fill: rgb(0, 0, 0); fill-opacity: 0;"/><text class="annotation-text" text-anchor="middle" x="47.84375" y="15" style="font-family: 'New Computer Modern'; font-size: 15px; fill: rgb(147, 112, 219); fill-opacity: 1; white-space: pre;">-1000.000 N/m</text></g></g></g><g class="annotation" data-index="6" style="opacity: 1;"><g class="annotation-text-g" transform="rotate(0,115,596.5774999999999)"><g class="cursor-pointer" transform="translate(78,587)"><rect class="bg" x="0.5" y="0.5" width="74" height="19" style="stroke-width: 1px; stroke: rgb(0, 0, 0); stroke-opacity: 0; fill: rgb(0, 0, 0); fill-opacity: 0;"/><text class="annotation-text" text-anchor="middle" x="37.421875" y="15" style="font-family: 'New Computer Modern'; font-size: 15px; fill: rgb(255, 0, 0); fill-opacity: 1; white-space: pre;">1875.000 N</text></g></g></g><g class="annotation" data-index="7" style="opacity: 1;"><g class="annotation-text-g" transform="rotate(0,115,544.5774999999999)"><g class="cursor-pointer" transform="translate(110,535)"><rect class="bg" x="0.5" y="0.5" width="9" height="19" style="stroke-width: 1px; stroke: rgb(0, 0, 0); stroke-opacity: 0; fill: rgb(0, 0, 0); fill-opacity: 0;"/><text class="annotation-text" text-anchor="middle" x="4.75" y="15" style="font-family: 'New Computer Modern'; font-size: 15px; fill: rgb(255, 0, 255); fill-opacity: 1; white-space: pre;">⭯</text></g></g></g><g class="annotation" data-index="8" style="opacity: 1;"><g class="annotation-text-g" transform="rotate(0,115,564.5774999999999)"><g class="cursor-pointer" transform="translate(70,555)"><rect class="bg" x="0.5" y="0.5" width="89" height="19" style="stroke-width: 1px; stroke: rgb(0, 0, 0); stroke-opacity: 0; fill: rgb(0, 0, 0); fill-opacity: 0;"/><text class="annotation-text" text-anchor="middle" x="44.859375" y="15" style="font-family: 'New Computer Modern'; font-size: 15px; fill: rgb(255, 0, 255); fill-opacity: 1; white-space: pre;">1125.000 N.m</text></g></g></g><g class="annotation" data-index="9" style="opacity: 1;"><g class="annotation-text-g" transform="rotate(0,852,596.5774999999999)"><g class="cursor-pointer" transform="translate(815,587)"><rect class="bg" x="0.5" y="0.5" width="73" height="19" style="stroke-width: 1px; stroke: rgb(0, 0, 0); stroke-opacity: 0; fill: rgb(0, 0, 0); fill-opacity: 0;"/><text class="annotation-text" text-anchor="middle" x="37.140625" y="15" style="font-family: 'New Computer Modern'; font-size: 15px; fill: rgb(255, 0, 0); fill-opacity: 1; white-space: pre;">1125.000 N</text></g></g></g></g></svg>