<svg class="main-svg" xmlns="http://www.w3.org/2000/svg" xmlns:xlink="http://www.w3.org/1999/xlink" width="900" height="1480" style="" viewBox="0 0 900 1480"><rect x="0" y="0" width="900" height="1480" style="fill: rgb(0, 0, 0); fill-opacity: 0;"/><defs id="defs-2d97e5"><g class="clips"><clipPath id="clip2d97e5xyplot" class="plotclip"><rect width="840" height="321.45750000000004"/></clipPath><clipPath id="clip2d97e5x2y2plot" class="plotclip"><rect width="840" height="321.45750000000004"/></clipPath><clipPath id="clip2d97e5x3y3plot" class="plotclip"><rect width="840" height="321.4575"/></clipPath><clipPath id="clip2d97e5x4y4plot" class="plotclip"><rect width="840" height="321.45750000000004"/></clipPath><clipPath class="axesclip" id="clip2d97e5x"><rect x="60" y="0" width="840" height="1480"/></clipPath><clipPath class="axesclip" id="clip2d97e5y"><rect x="0" y="20" width="900" height="321.45750000000004"/></clipPath><clipPath class="axesclip" id="clip2d97e5xy"><rect x="60" y="20" width="840" height="321.45750000000004"/></clipPath><clipPath class="axesclip" id="clip2d97e5y2"><rect x="0" y="383.8474999999999" width="900" height="321.45750000000004"/></clipPath><clipPath class="axesclip" id="clip2d97e5xy2"><rect x="60" y="383.8474999999999" width="840" height="321.45750000000004"/></clipPath><clipPath class="axesclip" id="clip2d97e5y3"><rect x="0" y="747.695" width="900" height="321.4575"/></clipPath><clipPath class="axesclip" id="clip2d97e5xy3"><rect x="60" y="747.695" width="840" height="321.4575"/></clipPath><clipPath class="axesclip" id="clip2d97e5y4"><rect x="0" y="1111.5425" width="900" height="321.45750000000004"/></clipPath><clipPath class="axesclip" id="clip2d97e5xy4"><rect x="60" y="1111.5425" width="840" height="321.45750000000004"/></clipPath><clipPath class="axesclip" id="clip2d97e5x2"><rect x="60" y="0" width="840" height="1480"/></clipPath><clipPath class="axesclip" id="clip2d97e5x2y"><rect x="60" y="20" width="840" height="321.45750000000004"/></clipPath><clipPath class="axesclip" id="clip2d97e5x2y2"><rect x="60" y="383.8474999999999" width="840" height="321.45750000000004"/></clipPath><clipPath class="axesclip" id="clip2d97e5x2y3"><rect x="60" y="747.695" width="840" height="321.4575"/></clipPath><clipPath class="axesclip" id="clip2d97e5x2y4"><rect x="60" y="1111.5425" width="840" height="321.45750000000004"/></clipPath><clipPath class="axesclip" id="clip2d97e5x3"><rect x="60" y="0" width="840" height="1480"/></clipPath><clipPath class="axesclip" id="clip2d97e5x3y"><rect x="60" y="20" width="840" height="321.45750000000004"/></clipPath><clipPath class="axesclip" id="clip2d97e5x3y2"><rect x="60" y="383.8474999999999" width="840" height="321.45750000000004"/></clipPath><clipPath class="axesclip" id="clip2d97e5x3y3"><rect x="60" y="747.695" width="840" height="321.4575"/></clipPath><clipPath class="axesclip" id="clip2d97e5x3y4"><rect x="60" y="1111.5425" width="840" height="321.45750000000004"/></clipPath><clipPath class="axesclip" id="clip2d97e5x4"><rect x="60" y="0" width="840" height="1480"/></clipPath><clipPath class="axesclip" id="clip2d97e5x4y"><rect x="60" y="20" width="840" height="321.45750000000004"/></clipPath><clipPath class="axesclip" id="clip2d97e5x4y2"><rect x="60" y="383.8474999999999" width="840" height="321.45750000000004"/></clipPath><clipPath class="axesclip" id="clip2d97e5x4y3"><rect x="60" y="747.695" width="840" height="321.4575"/></clipPath><clipPath class="axesclip" id="clip2d97e5x4y4"><rect x="60" y="1111.5425" width="840" height="321.45750000000004"/></clipPath></g><g class="gradients"/><g class="patterns"/></defs><g class="bglayer"><rect class="bg" x="60" y="20" width="840" height="321.45750000000004" style="fill: rgb(229, 236, 246); fill-opacity: 1; stroke-width: 0;"/><rect class="bg" x="60" y="383.8474999999999" width="840" height="321.45750000000004" style="fill: rgb(229, 236, 246); fill-opacity: 1; stroke-width: 0;"/><rect class="bg" x="60" y="747.695" width="840" height="321.4575" style="fill: rgb(229, 236, 246); fill-opacity: 1; stroke-width: 0;"/><rect class="bg" x="60" y="1111.5425" width="840" height="321.45750000000004" style="fill: rgb(229, 236, 246); fill-opacity: 1; stroke-width: 0;"/></g><g class="layer-below"><g class="imagelayer"/><g class="shapelayer"/></g><g class="cartesianlayer"><g class="subplot xy"><g class="layer-subplot"><g class="shapelayer"/><g class="imagelayer"/></g><g class="minor-gridlayer"><g class="x"/><g class="y"/></g><g class="gridlayer"><g class="x"><path class="xgrid crisp" transform="translate(256.95,0)" d="M0,20v321.45750000000004" style="stroke: rgb(255, 255, 255); stroke-opacity: 1; stroke-width: 1px;"/><path class="xgrid crisp" transform="translate(405.65,0)" d="M0,20v321.45750000000004" style="stroke: rgb(255, 255, 255); stroke-opacity: 1; stroke-width: 1px;"/><path class="xgrid crisp" transform="translate(554.35,0)" d="M0,20v321.45750000000004" style="stroke: rgb(255, 255, 255); stroke-opacity: 1; stroke-width: 1px;"/><path class="xgrid crisp" transform="translate(703.05,0)" d="M0,20v321.45750000000004" style="stroke: rgb(255, 255, 255); stroke-opacity: 1; stroke-width: 1px;"/><path class="xgrid crisp" transform="translate(851.75,0)" d="M0,20v321.45750000000004" style="stroke: rgb(255, 255, 255); stroke-opacity: 1; stroke-width: 1px;"/></g><g class="y"/></g><g class="zerolinelayer"><path class="xzl zl crisp" transform="translate(108.25,0)" d="M0,20v321.45750000000004" style="stroke: rgb(255, 255, 255); stroke-opacity: 1; stroke-width: 2px;"/></g><path class="xlines-below"/><path class="ylines-below"/><g class="overlines-below"/><g class="xaxislayer-below"/><g class="yaxislayer-below"/><g class="overaxes-below"/><g class="plot" transform="translate(60,20)" clip-path="url(#clip2d97e5xyplot)"><g class="scatterlayer mlayer"><g class="trace scatter trace45db5e" style="stroke-miterlimit: 2; opacity: 1;"><g class="fills"/><g class="errorbars"/><g class="lines"><path class="js-line" d="M48.25,160.73L791.75,160.73" style="vector-effect: none; fill: none; stroke: rgb(128, 0, 128); stroke-opacity: 1; stroke-width: 2px; opacity: 1;"/></g><g class="points"/><g class="text"/></g><g class="trace scatter trace4a6aee" style="stroke-miterlimit: 2; opacity: 0;"><g class="fills"/><g class="errorbars"/><g class="lines"/><g class="points"><path class="point" transform="translate(48.25,160.73)" d="M-5.77,2.5H5.77L0,-5Z" style="opacity: 1; stroke-width: 0px; fill: rgb(0, 0, 255); fill-opacity: 1;"/></g><g class="text"/></g><g class="trace scatter trace98e11a" style="stroke-miterlimit: 2; opacity: 1;"><g class="fills"><g><path class="js-fill" d="M48.25,160.73Z" style="fill: rgb(0, 0, 255); fill-opacity: 0.5; stroke-width: 0;"/></g></g><g class="errorbars"/><g class="lines"/><g class="points"><path class="point" transform="translate(48.25,160.73)" d="M0,0L-5,10H5Z" style="opacity: 1; stroke-width: 0px; fill: rgb(0, 0, 255); fill-opacity: 1;"/></g><g class="text"/></g><g class="trace scatter tracea40127" style="stroke-miterlimit: 2; opacity: 0;"><g class="fills"/><g class="errorbars"/><g class="lines"/><g class="points"><path class="point" transform="translate(791.75,160.73)" d="M-5.77,2.5H5.77L0,-5Z" style="opacity: 1; stroke-width: 0px; fill: rgb(0, 0, 255); fill-opacity: 1;"/></g><g class="text"/></g><g class="trace scatter traceaf18f1" style="stroke-miterlimit: 2; opacity: 1;"><g class="fills"><g><path class="js-fill" d="M791.75,160.73Z" style="fill: rgb(0, 0, 255); fill-opacity: 0.5; stroke-width: 0;"/></g></g><g class="errorbars"/><g class="lines"/><g class="points"><path class="point" transform="translate(791.75,160.73)" d="M0,0L-5,10H5Z" style="opacity: 1; stroke-width: 0px; fill: rgb(0, 0, 255); fill-opacity: 1;"/></g><g class="text"/></g><g class="trace scatter trace4cb082" style="stroke-miterlimit: 2;"><g class="fills"><g><path class="js-fill" d="M791.75,160.73L48.25,160.73L48.25,160.73L791.75,80.36" style="fill: rgb(147, 112, 219); fill-opacity: 0.5; stroke-width: 0;"/></g></g><g class="errorbars"/><g class="lines"><path class="js-line" d="M48.25,160.73L791.75,80.36" style="vector-effect: none; fill: none; stroke: rgb(147, 112, 219); stroke-opacity: 1; stroke-width: 1px; opacity: 1;"/></g><g class="points"/><g class="text"/></g><g class="trace scatter traceb0dcee" style="stroke-miterlimit: 2; opacity: 0;"><g class="fills"/><g class="errorbars"/><g class="lines"/><g class="points"><path class="point" transform="translate(48.25,160.73)" d="M-5.77,2.5H5.77L0,-5Z" style="opacity: 1; stroke-width: 0px; fill: rgb(147, 112, 219); fill-opacity: 1;"/></g><g class="text"/></g><g class="trace scatter trace8bd487" style="stroke-miterlimit: 2; opacity: 0;"><g class="fills"/><g class="errorbars"/><g class="lines"/><g class="points"><path class="point" transform="translate(791.75,160.73)" d="M-5.77,2.5H5.77L0,-5Z" style="opacity: 1; stroke-width: 0px; fill: rgb(147, 112, 219); fill-opacity: 1;"/></g><g class="text"/></g></g></g><g class="overplot"/><path class="xlines-above crisp" d="M0,0" style="fill: none;"/><path class="ylines-above crisp" d="M0,0" style="fill: none;"/><g class="overlines-above"/><g class="xaxislayer-above"/><g class="yaxislayer-above"/><g class="overaxes-above"/></g><g class="subplot x2y2"><g class="layer-subplot"><g class="shapelayer"/><g class="imagelayer"/></g><g class="minor-gridlayer"><g class="x2"/><g class="y2"/></g><g class="gridlayer"><g class="x2"><path class="x2grid crisp" transform="translate(256.95,0)" d="M0,383.8474999999999v321.45750000000004" style="stroke: rgb(255, 255, 255); stroke-opacity: 1; stroke-width: 1px;"/><path class="x2grid crisp" transform="translate(405.65,0)" d="M0,383.8474999999999v321.45750000000004" style="stroke: rgb(255, 255, 255); stroke-opacity: 1; stroke-width: 1px;"/><path class="x2grid crisp" transform="translate(554.35,0)" d="M0,383.8474999999999v321.45750000000004" style="stroke: rgb(255, 255, 255); stroke-opacity: 1; stroke-width: 1px;"/><path class="x2grid crisp" transform="translate(703.05,0)" d="M0,383.8474999999999v321.45750000000004" style="stroke: rgb(255, 255, 255); stroke-opacity: 1; stroke-width: 1px;"/><path class="x2grid crisp" transform="translate(851.75,0)" d="M0,383.8474999999999v321.45750000000004" style="stroke: rgb(255, 255, 255); stroke-opacity: 1; stroke-width: 1px;"/></g><g class="y2"/></g><g class="zerolinelayer"><path class="x2zl zl crisp" transform="translate(108.25,0)" d="M0,383.8474999999999v321.45750000000004" style="stroke: rgb(255, 255, 255); stroke-opacity: 1; stroke-width: 2px;"/></g><path class="xlines-below"/><path class="ylines-below"/><g class="overlines-below"/><g class="xaxislayer-below"/><g class="yaxislayer-below"/><g class="overaxes-below"/><g class="plot" transform="translate(60,383.8474999999999)" clip-path="url(#clip2d97e5x2y2plot)"><g class="scatterlayer mlayer"><g class="trace scatter tracec5c7e3" style="stroke-miterlimit: 2; opacity: 1;"><g class="fills"/><g class="errorbars"/><g class="lines"><path class="js-line" d="M48.25,160.73L791.75,160.73" style="vector-effect: none; fill: none; stroke: rgb(128, 0, 128); stroke-opacity: 1; stroke-width: 2px; opacity: 1;"/></g><g class="points"/><g class="text"/></g><g class="trace scatter trace686103" style="stroke-miterlimit: 2; opacity: 0;"><g class="fills"/><g class="errorbars"/><g class="lines"/><g class="points"><path class="point" transform="translate(48.25,160.73)" d="M-5.77,2.5H5.77L0,-5Z" style="opacity: 1; stroke-width: 0px; fill: rgb(255, 0, 0); fill-opacity: 1;"/></g><g class="text"/></g><g class="trace scatter trace80d683" style="stroke-miterlimit: 2; opacity: 0;"><g class="fills"/><g class="errorbars"/><g class="lines"/><g class="points"><path class="point" transform="translate(791.75,160.73)" d="M-5.77,2.5H5.77L0,-5Z" style="opacity: 1; stroke-width: 0px; fill: rgb(255, 0, 0); fill-opacity: 1;"/></g><g class="text"/></g></g></g><g class="overplot"/><path class="xlines-above crisp" d="M0,0" style="fill: none;"/><path class="ylines-above crisp" d="M0,0" style="fill: none;"/><g class="overlines-above"/><g class="xaxislayer-above"/><g class="yaxislayer-above"/><g class="overaxes-above"/></g><g class="subplot x3y3"><g class="layer-subplot"><g class="shapelayer"/><g class="imagelayer"/></g><g class="minor-gridlayer"><g class="x3"/><g class="y3"/></g><g class="gridlayer"><g class="x3"><path class="x3grid crisp" transform="translate(256.95,0)" d="M0,747.695v321.4575" style="stroke: rgb(255, 255, 255); stroke-opacity: 1; stroke-width: 1px;"/><path class="x3grid crisp" transform="translate(405.65,0)" d="M0,747.695v321.4575" style="stroke: rgb(255, 255, 255); stroke-opacity: 1; stroke-width: 1px;"/><path class="x3grid crisp" transform="translate(554.35,0)" d="M0,747.695v321.4575" style="stroke: rgb(255, 255, 255); stroke-opacity: 1; stroke-width: 1px;"/><path class="x3grid crisp" transform="translate(703.05,0)" d="M0,747.695v321.4575" style="stroke: rgb(255, 255, 255); stroke-opacity: 1; stroke-width: 1px;"/><path class="x3grid crisp" transform="translate(851.75,0)" d="M0,747.695v321.4575" style="stroke: rgb(255, 255, 255); stroke-opacity: 1; stroke-width: 1px;"/></g><g class="y3"><path class="y3grid crisp" transform="translate(0,1033.795)" d="M60,0h840" style="stroke: rgb(255, 255, 255); stroke-opacity: 1; stroke-width: 1px;"/><path class="y3grid crisp" transform="translate(0,975.9250000000001)" d="M60,0h840" style="stroke: rgb(255, 255, 255); stroke-opacity: 1; stroke-width: 1px;"/><path class="y3grid crisp" transform="translate(0,918.065)" d="M60,0h840" style="stroke: rgb(255, 255, 255); stroke-opacity: 1; stroke-width: 1px;"/><path class="y3grid crisp" transform="translate(0,802.345)" d="M60,0h840" style="stroke: rgb(255, 255, 255); stroke-opacity: 1; stroke-width: 1px;"/></g></g><g class="zerolinelayer"><path class="x3zl zl crisp" transform="translate(108.25,0)" d="M0,747.695v321.4575" style="stroke: rgb(255, 255, 255); stroke-opacity: 1; stroke-width: 2px;"/><path class="y3zl zl crisp" transform="translate(0,860.205)" d="M60,0h840" style="stroke: rgb(255, 255, 255); stroke-opacity: 1; stroke-width: 2px;"/></g><path class="xlines-below"/><path class="ylines-below"/><g class="overlines-below"/><g class="xaxislayer-below"/><g class="yaxislayer-below"/><g class="overaxes-below"/><g class="plot" transform="translate(60,747.695)" clip-path="url(#clip2d97e5x3y3plot)"><g class="scatterlayer mlayer"><g class="trace scatter trace82d633" style="stroke-miterlimit: 2;"><g class="fills"><g><path class="js-fill" d="M791.75,112.51L48.25,112.51L48.25,112.51L48.25,16.07L51.99,16.08L89.35,16.96L93.08,17.12L134.18,19.94L137.92,20.28L175.28,24.52L179.02,25.02L216.38,30.87L220.11,31.53L257.48,38.98L261.21,39.81L298.57,48.87L302.31,49.85L343.41,61.67L347.14,62.83L388.24,76.57L391.98,77.91L433.08,93.58L436.81,95.09L477.91,112.69L481.65,114.38L522.74,133.91L526.48,135.77L567.58,157.23L571.32,159.26L616.15,184.86L619.89,187.09L660.98,212.57L664.72,214.97L705.82,242.37L709.55,244.95L750.65,274.28L754.39,277.04L791.75,305.38L791.75,305.38" style="fill: rgb(0, 255, 255); fill-opacity: 0.5; stroke-width: 0;"/></g></g><g class="errorbars"/><g class="lines"><path class="js-line" d="M48.25,112.51L48.25,16.07L51.99,16.08L89.35,16.96L93.08,17.12L134.18,19.94L137.92,20.28L175.28,24.52L179.02,25.02L216.38,30.87L220.11,31.53L257.48,38.98L261.21,39.81L298.57,48.87L302.31,49.85L343.41,61.67L347.14,62.83L388.24,76.57L391.98,77.91L433.08,93.58L436.81,95.09L477.91,112.69L481.65,114.38L522.74,133.91L526.48,135.77L567.58,157.23L571.32,159.26L616.15,184.86L619.89,187.09L660.98,212.57L664.72,214.97L705.82,242.37L709.55,244.95L750.65,274.28L754.39,277.04L791.75,305.38L791.75,305.38" style="vector-effect: none; fill: none; stroke: rgb(0, 255, 255); stroke-opacity: 1; stroke-width: 1px; opacity: 1;"/></g><g class="points"/><g class="text"/></g></g></g><g class="overplot"/><path class="xlines-above crisp" d="M0,0" style="fill: none;"/><path class="ylines-above crisp" d="M0,0" style="fill: none;"/><g class="overlines-above"/><g class="xaxislayer-above"/><g class="yaxislayer-above"><g class="y3tick"><text text-anchor="end" x="59" y="5.25" transform="translate(0,1033.795)" style="font-family: 'New Computer Modern'; font-size: 15px; fill: rgb(42, 63, 95); fill-opacity: 1; white-space: pre; opacity: 1;">−300</text></g><g class="y3tick"><text text-anchor="end" x="59" y="5.25" style="font-family: 'New Computer Modern'; font-size: 15px; fill: rgb(42, 63, 95); fill-opacity: 1; white-space: pre; opacity: 1;" transform="translate(0,975.9250000000001)">−200</text></g><g class="y3tick"><text text-anchor="end" x="59" y="5.25" style="font-family: 'New Computer Modern'; font-size: 15px; fill: rgb(42, 63, 95); fill-opacity: 1; white-space: pre; opacity: 1;" transform="translate(0,918.065)">−100</text></g><g class="y3tick"><text text-anchor="end" x="59" y="5.25" style="font-family: 'New Computer Modern'; font-size: 15px; fill: rgb(42, 63, 95); fill-opacity: 1; white-space: pre; opacity: 1;" transform="translate(0,860.205)">0</text></g><g class="y3tick"><text text-anchor="end" x="59" y="5.25" style="font-family: 'New Computer Modern'; font-size: 15px; fill: rgb(42, 63, 95); fill-opacity: 1; white-space: pre; opacity: 1;" transform="translate(0,802.345)">100</text></g></g><g class="overaxes-above"/></g><g class="subplot x4y4"><g class="layer-subplot"><g class="shapelayer"/><g class="imagelayer"/></g><g class="minor-gridlayer"><g class="x4"/><g class="y4"/></g><g class="gridlayer"><g class="x4"><path class="x4grid crisp" transform="translate(256.95,0)" d="M0,1111.5425v321.45750000000004" style="stroke: rgb(255, 255, 255); stroke-opacity: 1; stroke-width: 1px;"/><path class="x4grid crisp" transform="translate(405.65,0)" d="M0,1111.5425v321.45750000000004" style="stroke: rgb(255, 255, 255); stroke-opacity: 1; stroke-width: 1px;"/><path class="x4grid crisp" transform="translate(554.35,0)" d="M0,1111.5425v321.45750000000004" style="stroke: rgb(255, 255, 255); stroke-opacity: 1; stroke-width: 1px;"/><path class="x4grid crisp" transform="translate(703.05,0)" d="M0,1111.5425v321.45750000000004" style="stroke: rgb(255, 255, 255); stroke-opacity: 1; stroke-width: 1px;"/><path class="x4grid crisp" transform="translate(851.75,0)" d="M0,1111.5425v321.45750000000004" style="stroke: rgb(255, 255, 255); stroke-opacity: 1; stroke-width: 1px;"/></g><g class="y4"><path class="y4grid crisp" transform="translate(0,1385.3925)" d="M60,0h840" style="stroke: rgb(255, 255, 255); stroke-opacity: 1; stroke-width: 1px;"/><path class="y4grid crisp" transform="translate(0,1337.7925)" d="M60,0h840" style="stroke: rgb(255, 255, 255); stroke-opacity: 1; stroke-width: 1px;"/><path class="y4grid crisp" transform="translate(0,1290.1825)" d="M60,0h840" style="stroke: rgb(255, 255, 255); stroke-opacity: 1; stroke-width: 1px;"/><path class="y4grid crisp" transform="translate(0,1242.5825)" d="M60,0h840" style="stroke: rgb(255, 255, 255); stroke-opacity: 1; stroke-width: 1px;"/><path class="y4grid crisp" transform="translate(0,1194.9725)" d="M60,0h840" style="stroke: rgb(255, 255, 255); stroke-opacity: 1; stroke-width: 1px;"/><path class="y4grid crisp" transform="translate(0,1147.3725)" d="M60,0h840" style="stroke: rgb(255, 255, 255); stroke-opacity: 1; stroke-width: 1px;"/></g></g><g class="zerolinelayer"><path class="x4zl zl crisp" transform="translate(108.25,0)" d="M0,1111.5425v321.45750000000004" style="stroke: rgb(255, 255, 255); stroke-opacity: 1; stroke-width: 2px;"/><path class="y4zl zl crisp" transform="translate(0,1433.0025)" d="M60,0h840" style="stroke: rgb(255, 255, 255); stroke-opacity: 1; stroke-width: 2px;"/></g><path class="xlines-below"/><path class="ylines-below"/><g class="overlines-below"/><g class="xaxislayer-below"/><g class="yaxislayer-below"/><g class="overaxes-below"/><g class="plot" transform="translate(60,1111.5425)" clip-path="url(#clip2d97e5x4y4plot)"><g class="scatterlayer mlayer"><g class="trace scatter trace594b1b" style="stroke-miterlimit: 2;"><g class="fills"><g><path class="js-fill" d="M791.75,321.46L48.25,321.46L48.25,321.46L130.45,234.82L134.18,230.98L179.02,186.23L182.75,182.62L220.11,147.86L223.85,144.52L253.74,118.92L257.48,115.87L283.63,95.45L287.37,92.68L313.52,74.41L317.26,71.97L339.67,58.25L343.41,56.12L365.83,44.39L369.56,42.61L391.98,33.05L395.71,31.65L414.4,25.49L418.13,24.43L436.81,20.06L440.55,19.37L459.23,16.89L462.97,16.59L481.65,16.12L485.38,16.23L504.06,17.86L507.8,18.41L526.48,22.26L530.22,23.26L548.9,29.44L552.63,30.92L567.58,37.65L571.32,39.54L590,50.28L593.73,52.68L612.41,66.05L616.15,69L634.83,85.12L638.57,88.62L657.25,107.59L660.98,111.68L679.66,133.61L683.4,138.3L702.08,163.31L705.82,168.63L724.5,196.81L728.23,202.78L746.92,234.25L750.65,240.88L769.33,275.76L773.07,283.08L791.75,321.46L791.75,321.46" style="fill: rgb(144, 238, 144); fill-opacity: 0.5; stroke-width: 0;"/></g></g><g class="errorbars"/><g class="lines"><path class="js-line" d="M48.25,321.46L130.45,234.82L134.18,230.98L179.02,186.23L182.75,182.62L220.11,147.86L223.85,144.52L253.74,118.92L257.48,115.87L283.63,95.45L287.37,92.68L313.52,74.41L317.26,71.97L339.67,58.25L343.41,56.12L365.83,44.39L369.56,42.61L391.98,33.05L395.71,31.65L414.4,25.49L418.13,24.43L436.81,20.06L440.55,19.37L459.23,16.89L462.97,16.59L481.65,16.12L485.38,16.23L504.06,17.86L507.8,18.41L526.48,22.26L530.22,23.26L548.9,29.44L552.63,30.92L567.58,37.65L571.32,39.54L590,50.28L593.73,52.68L612.41,66.05L616.15,69L634.83,85.12L638.57,88.62L657.25,107.59L660.98,111.68L679.66,133.61L683.4,138.3L702.08,163.31L705.82,168.63L724.5,196.81L728.23,202.78L746.92,234.25L750.65,240.88L769.33,275.76L773.07,283.08L791.75,321.46L791.75,321.46" style="vector-effect: none; fill: none; stroke: rgb(144, 238, 144); stroke-opacity: 1; stroke-width: 1px; opacity: 1;"/></g><g class="points"/><g class="text"/></g></g></g><g class="overplot"/><path class="xlines-above crisp" d="M0,0" style="fill: none;"/><path class="ylines-above crisp" d="M0,0" style="fill: none;"/><g class="overlines-above"/><g class="xaxislayer-above"><g class="x4tick"><text text-anchor="middle" x="0" y="1449" transform="translate(108.25,0)" style="font-family: 'New Computer Modern'; font-size: 15px; fill: rgb(42, 63, 95); fill-opacity: 1; white-space: pre; opacity: 1;">0</text></g><g class="x4tick"><text text-anchor="middle" x="0" y="1449" style="font-family: 'New Computer Modern'; font-size: 15px; fill: rgb(42, 63, 95); fill-opacity: 1; white-space: pre; opacity: 1;" transform="translate(256.95,0)">0.2</text></g><g class="x4tick"><text text-anchor="middle" x="0" y="1449" style="font-family: 'New Computer Modern'; font-size: 15px; fill: rgb(42, 63, 95); fill-opacity: 1; white-space: pre; opacity: 1;" transform="translate(405.65,0)">0.4</text></g><g class="x4tick"><text text-anchor="middle" x="0" y="1449" style="font-family: 'New Computer Modern'; font-size: 15px; fill: rgb(42, 63, 95); fill-opacity: 1; white-space: pre; opacity: 1;" transform="translate(554.35,0)">0.6</text></g><g class="x4tick"><text text-anchor="middle" x="0" y="1449" style="font-family: 'New Computer Modern'; font-size: 15px; fill: rgb(42, 63, 95); fill-opacity: 1; white-space: pre; opacity: 1;" transform="translate(703.05,0)">0.8</text></g><g class="x4tick"><text text-anchor="middle" x="0" y="1449" style="font-family: 'New Computer Modern'; font-size: 15px; fill: rgb(42, 63, 95); fill-opacity: 1; white-space: pre; opacity: 1;" transform="translate(851.75,0)">1</text></g></g><g class="yaxislayer-above"><g class="y4tick"><text text-anchor="end" x="59" y="5.25" transform="translate(0,1433.0025)" style="font-family: 'New Computer Modern'; font-size: 15px; fill: rgb(42, 63, 95); fill-opacity: 1; white-space: pre; opacity: 1;">0</text></g><g class="y4tick"><text text-anchor="end" x="59" y="5.25" style="font-family: 'New Computer Modern'; font-size: 15px; fill: rgb(42, 63, 95); fill-opacity: 1; white-space: pre; opacity: 1;" transform="translate(0,1385.3925)">10</text></g><g class="y4tick"><text text-anchor="end" x="59" y="5.25" style="font-family: 'New Computer Modern'; font-size: 15px; fill: rgb(42, 63, 95); fill-opacity: 1; white-space: pre; opacity: 1;" transform="translate(0,1337.7925)">20</text></g><g class="y4tick"><text text-anchor="end" x="59" y="5.25" style="font-family: 'New Computer Modern'; font-size: 15px; fill: rgb(42, 63, 95); fill-opacity: 1; white-space: pre; opacity: 1;" transform="translate(0,1290.1825)">30</text></g><g class="y4tick"><text text-anchor="end" x="59" y="5.25" style="font-family: 'New Computer Modern'; font-size: 15px; fill: rgb(42, 63, 95); fill-opacity: 1; white-space: pre; opacity: 1;" transform="translate(0,1242.5825)">40</text></g><g class="y4tick"><text text-anchor="end" x="59" y="5.25" style="font-family: 'New Computer Modern'; font-size: 15px; fill: rgb(42, 63, 95); fill-opacity: 1; white-space: pre; opacity: 1;" transform="translate(0,1194.9725)">50</text></g><g class="y4tick"><text text-anchor="end" x="59" y="5.25" style="font-family: 'New Computer Modern'; font-size: 15px; fill: rgb(42, 63, 95); fill-opacity: 1; white-space: pre; opacity: 1;" transform="translate(0,1147.3725)">60</text></g></g><g class="overaxes-above"/></g></g><g class="polarlayer"/><g class="smithlayer"/><g class="ternarylayer"/><g class="geolayer"/><g class="funnelarealayer"/><g class="pielayer"/><g class="iciclelayer"/><g class="treemaplayer"/><g class="sunburstlayer"/><g class="glimages"/><defs id="topdefs-2d97e5"><g class="clips"/></defs><g class="layer-above"><g class="imagelayer"/><g class="shapelayer"><g class="shape-group" data-index="0" clip-path="url(#clip2d97e5xy)"><path data-index="0" fill-rule="evenodd" d="M852.75,193.73A1,1 0 1,1 851.75,192.73A1,1 0 0,1 852.75,193.73Z" style="opacity: 1; stroke: rgb(0, 0, 255); stroke-opacity: 1; fill: rgb(0, 0, 255); fill-opacity: 1; stroke-width: 2px;"/></g><g class="shape-group" data-index="1" clip-path="url(#clip2d97e5xy)"><path data-index="1" fill-rule="evenodd" d="M848.75,193.73A1,1 0 1,1 847.75,192.73A1,1 0 0,1 848.75,193.73Z" style="opacity: 1; stroke: rgb(0, 0, 255); stroke-opacity: 1; fill: rgb(0, 0, 255); fill-opacity: 1; stroke-width: 2px;"/></g><g class="shape-group" data-index="2" clip-path="url(#clip2d97e5xy)"><path data-index="2" fill-rule="evenodd" d="M856.75,193.73A1,1 0 1,1 855.75,192.73A1,1 0 0,1 856.75,193.73Z" style="opacity: 1; stroke: rgb(0, 0, 255); stroke-opacity: 1; fill: rgb(0, 0, 255); fill-opacity: 1; stroke-width: 2px;"/></g><g class="shape-group" data-index="3" clip-path="url(#clip2d97e5xy)"><path data-index="3" fill-rule="evenodd" d="M851.75,180.73L848.75,177.73" style="opacity: 1; stroke: rgb(147, 112, 219); stroke-opacity: 1; fill: rgb(0, 0, 0); fill-opacity: 0; stroke-width: 2px;"/></g><g class="shape-group" data-index="4" clip-path="url(#clip2d97e5xy)"><path data-index="4" fill-rule="evenodd" d="M851.75,180.73L854.75,177.73" style="opacity: 1; stroke: rgb(147, 112, 219); stroke-opacity: 1; fill: rgb(0, 0, 0); fill-opacity: 0; stroke-width: 2px;"/></g><g class="shape-group" data-index="5" clip-path="url(#clip2d97e5xy)"><path data-index="5" fill-rule="evenodd" d="M851.75,180.73L851.75,150.73" style="opacity: 1; stroke: rgb(147, 112, 219); stroke-opacity: 1; fill: rgb(0, 0, 0); fill-opacity: 0; stroke-width: 2px;"/></g><g class="shape-group" data-index="6" clip-path="url(#clip2d97e5x2y2)"><path data-index="6" fill-rule="evenodd" d="M108.25,544.5774999999999L111.25,547.5774999999999" style="opacity: 1; stroke: rgb(255, 0, 0); stroke-opacity: 1; fill: rgb(0, 0, 0); fill-opacity: 0; stroke-width: 2px;"/></g><g class="shape-group" data-index="7" clip-path="url(#clip2d97e5x2y2)"><path data-index="7" fill-rule="evenodd" d="M108.25,544.5774999999999L105.25,547.5774999999999" style="opacity: 1; stroke: rgb(255, 0, 0); stroke-opacity: 1; fill: rgb(0, 0, 0); fill-opacity: 0; stroke-width: 2px;"/></g><g class="shape-group" data-index="8" clip-path="url(#clip2d97e5x2y2)"><path data-index="8" fill-rule="evenodd" d="M108.25,544.5774999999999L108.25,584.5774999999999" style="opacity: 1; stroke: rgb(255, 0, 0); stroke-opacity: 1; fill: rgb(0, 0, 0); fill-opacity: 0; stroke-width: 2px;"/></g><g class="shape-group" data-index="9" clip-path="url(#clip2d97e5x2y2)"><path data-index="9" fill-rule="evenodd" d="M851.75,544.5774999999999L854.75,547.5774999999999" style="opacity: 1; stroke: rgb(255, 0, 0); stroke-opacity: 1; fill: rgb(0, 0, 0); fill-opacity: 0; stroke-width: 2px;"/></g><g class="shape-group" data-index="10" clip-path="url(#clip2d97e5x2y2)"><path data-index="10" fill-rule="evenodd" d="M851.75,544.5774999999999L848.75,547.5774999999999" style="opacity: 1; stroke: rgb(255, 0, 0); stroke-opacity: 1; fill: rgb(0, 0, 0); fill-opacity: 0; stroke-width: 2px;"/></g><g class="shape-group" data-index="11" clip-path="url(#clip2d97e5x2y2)"><path data-index="11" fill-rule="evenodd" d="M851.75,544.5774999999999L851.75,584.5774999999999" style="opacity: 1; stroke: rgb(255, 0, 0); stroke-opacity: 1; fill: rgb(0, 0, 0); fill-opacity: 0; stroke-width: 2px;"/></g></g></g><g class="infolayer"><g class="g-gtitle"/><g class="g-xtitle"/><g class="g-x2title"/><g class="g-x3title"/><g class="g-x4title" transform="translate(0,-3.099999999999909)"><text class="x4title" x="480" y="1479.1" text-anchor="middle" style="font-family: 'New Computer Modern'; font-size: 18px; fill: rgb(42, 63, 95); opacity: 1; font-weight: normal; white-space: pre;">Beam length [m]</text></g><g class="g-y3title" transform="translate(15.0703125,0)"><text class="y3title" transform="rotate(-90,0.9312499999999986,908.42375)" x="0.9312499999999986" y="908.42375" text-anchor="middle" style="font-family: 'New Computer Modern'; font-size: 18px; fill: rgb(42, 63, 95); opacity: 1; font-weight: normal; white-space: pre;">Shear force [N]</text></g><g class="g-y4title"><text class="y4title" transform="rotate(-90,16.9,1272.27125)" x="16.9" y="1272.27125" text-anchor="middle" style="font-family: 'New Computer Modern'; font-size: 18px; fill: rgb(42, 63, 95); opacity: 1; font-weight: normal; white-space: pre;">Bending moment [N⋅m]</text></g><g class="annotation" data-index="0" style="opacity: 1;"><g class="annotation-text-g" transform="rotate(0,480,9.999999999999996)"><g class="cursor-pointer" transform="translate(427,0)"><rect class="bg" x="0.5" y="0.5" width="105" height="19" style="stroke-width: 1px; stroke: rgb(0, 0, 0); stroke-opacity: 0; fill: rgb(0, 0, 0); fill-opacity: 0;"/><text class="annotation-text" text-anchor="middle" x="52.609375" y="15" style="font-family: 'New Computer Modern'; font-size: 15px; fill: rgb(42, 63, 95); fill-opacity: 1; white-space: pre;">Beam Schematic</text></g></g></g><g class="annotation" data-index="1" style="opacity: 1;"><g class="annotation-text-g" transform="rotate(0,480,373.8474999999999)"><g class="cursor-pointer" transform="translate(430,364)"><rect class="bg" x="0.5" y="0.5" width="100" height="19" style="stroke-width: 1px; stroke: rgb(0, 0, 0); stroke-opacity: 0; fill: rgb(0, 0, 0); fill-opacity: 0;"/><text class="annotation-text" text-anchor="middle" x="50.53125" y="15" style="font-family: 'New Computer Modern'; font-size: 15px; fill: rgb(42, 63, 95); fill-opacity: 1; white-space: pre;">Reaction Forces</text></g></g></g><g class="annotation" data-index="2" style="opacity: 1;"><g class="annotation-text-g" transform="rotate(0,480,737.695)"><g class="cursor-pointer" transform="translate(414,728)"><rect class="bg" x="0.5" y="0.5" width="132" height="19" style="stroke-width: 1px; stroke: rgb(0, 0, 0); stroke-opacity: 0; fill: rgb(0, 0, 0); fill-opacity: 0;"/><text class="annotation-text" text-anchor="middle" x="66.15625" y="15" style="font-family: 'New Computer Modern'; font-size: 15px; fill: rgb(42, 63, 95); fill-opacity: 1; white-space: pre;">Shear Force Diagram</text></g></g></g><g class="annotation" data-index="3" style="opacity: 1;"><g class="annotation-text-g" transform="rotate(0,480,1101.5425)"><g class="cursor-pointer" transform="translate(397,1092)"><rect class="bg" x="0.5" y="0.5" width="165" height="19" style="stroke-width: 1px; stroke: rgb(0, 0, 0); stroke-opacity: 0; fill: rgb(0, 0, 0); fill-opacity: 0;"/><text class="annotation-text" text-anchor="middle" x="82.828125" y="15" style="font-family: 'New Computer Modern'; font-size: 15px; fill: rgb(42, 63, 95); fill-opacity: 1; white-space: pre;">Bending Moment Diagram</text></g></g></g><g class="annotation" data-index="4" style="opacity: 1;"><g class="annotation-text-g" transform="rotate(0,851.75,141.73)"><g class="cursor-pointer" transform="translate(804,132)"><rect class="bg" x="0.5" y="0.5" width="95" height="19" style="stroke-width: 1px; stroke: rgb(0, 0, 0); stroke-opacity: 0; fill: rgb(0, 0, 0); fill-opacity: 0;"/><text class="annotation-text" text-anchor="middle" x="47.84375" y="15" style="font-family: 'New Computer Modern'; font-size: 15px; fill: rgb(147, 112, 219); fill-opacity: 1; white-space: pre;">-1000.000 N/m</text></g></g></g><g class="annotation" data-index="5" style="opacity: 1;"><g class="annotation-text-g" transform="rotate(0,108.25,596.5774999999999)"><g class="cursor-pointer" transform="translate(74,587)"><rect class="bg" x="0.5" y="0.5" width="67" height="19" style="stroke-width: 1px; stroke: rgb(0, 0, 0); stroke-opacity: 0; fill: rgb(0, 0, 0); fill-opacity: 0;"/><text class="annotation-text" text-anchor="middle" x="33.671875" y="15" style="font-family: 'New Computer Modern'; font-size: 15px; fill: rgb(255, 0, 0); fill-opacity: 1; white-space: pre;">166.667 N</text></g></g></g><g class="annotation" data-index="6" style="opacity: 1;"><g class="annotation-text-g" transform="rotate(0,851.75,596.5774999999999)"><g class="cursor-pointer" transform="translate(818,587)"><rect class="bg" x="0.5" y="0.5" width="67" height="19" style="stroke-width: 1px; stroke: rgb(0, 0, 0); stroke-opacity: 0; fill: rgb(0, 0, 0); fill-opacity: 0;"/><text class="annotation-text" text-anchor="middle" x="33.671875" y="15" style="font-family: 'New Computer Modern'; font-size: 15px; fill: rgb(255, 0, 0); fill-opacity: 1; white-space: pre;">333.333 N</text></g></g></g></g></svg>