<svg class="main-svg" xmlns="http://www.w3.org/2000/svg" xmlns:xlink="http://www.w3.org/1999/xlink" width="700" height="750" style="" viewBox="0 0 700 750"><rect x="0" y="0" width="700" height="750" style="fill: rgb(0, 0, 0); fill-opacity: 0;"/><defs id="defs-87ff71"><g class="clips"><clipPath id="clip87ff71xyplot" class="plotclip"><rect width="625" height="204.90000000000003"/></clipPath><clipPath id="clip87ff71x2y2plot" class="plotclip"><rect width="625" height="204.89999999999995"/></clipPath><clipPath id="clip87ff71x3y3plot" class="plotclip"><rect width="625" height="204.9"/></clipPath><clipPath class="axesclip" id="clip87ff71x"><rect x="67" y="0" width="625" height="750"/></clipPath><clipPath class="axesclip" id="clip87ff71y"><rect x="0" y="20" width="700" height="204.90000000000003"/></clipPath><clipPath class="axesclip" id="clip87ff71xy"><rect x="67" y="20" width="625" height="204.90000000000003"/></clipPath><clipPath class="axesclip" id="clip87ff71y2"><rect x="0" y="259.05000000000007" width="700" height="204.89999999999995"/></clipPath><clipPath class="axesclip" id="clip87ff71xy2"><rect x="67" y="259.05000000000007" width="625" height="204.89999999999995"/></clipPath><clipPath class="axesclip" id="clip87ff71y3"><rect x="0" y="498.09999999999997" width="700" height="204.9"/></clipPath><clipPath class="axesclip" id="clip87ff71xy3"><rect x="67" y="498.09999999999997" width="625" height="204.9"/></clipPath><clipPath class="axesclip" id="clip87ff71x2"><rect x="67" y="0" width="625" height="750"/></clipPath><clipPath class="axesclip" id="clip87ff71x2y"><rect x="67" y="20" width="625" height="204.90000000000003"/></clipPath><clipPath class="axesclip" id="clip87ff71x2y2"><rect x="67" y="259.05000000000007" width="625" height="204.89999999999995"/></clipPath><clipPath class="axesclip" id="clip87ff71x2y3"><rect x="67" y="498.09999999999997" width="625" height="204.9"/></clipPath><clipPath class="axesclip" id="clip87ff71x3"><rect x="67" y="0" width="625" height="750"/></clipPath><clipPath class="axesclip" id="clip87ff71x3y"><rect x="67" y="20" width="625" height="204.90000000000003"/></clipPath><clipPath class="axesclip" id="clip87ff71x3y2"><rect x="67" y="259.05000000000007" width="625" height="204.89999999999995"/></clipPath><clipPath class="axesclip" id="clip87ff71x3y3"><rect x="67" y="498.09999999999997" width="625" height="204.9"/></clipPath></g><g class="gradients"/><g class="patterns"/></defs><g class="bglayer"><rect class="bg" x="67" y="20" width="625" height="204.90000000000003" style="fill: rgb(229, 236, 246); fill-opacity: 1; stroke-width: 0;"/><rect class="bg" x="67" y="259.05000000000007" width="625" height="204.89999999999995" style="fill: rgb(229, 236, 246); fill-opacity: 1; stroke-width: 0;"/><rect class="bg" x="67" y="498.09999999999997" width="625" height="204.9" style="fill: rgb(229, 236, 246); fill-opacity: 1; stroke-width: 0;"/></g><g class="layer-below"><g class="imagelayer"/><g class="shapelayer"/></g><g class="cartesianlayer"><g class="subplot xy"><g class="layer-subplot"><g class="shapelayer"/><g class="imagelayer"/></g><g class="minor-gridlayer"><g class="x"/><g class="y"/></g><g class="gridlayer"><g class="x"><path class="xgrid crisp" transform="translate(192,0)" d="M0,20v204.90000000000003" style="stroke: rgb(255, 255, 255); stroke-opacity: 1; stroke-width: 1px;"/><path class="xgrid crisp" transform="translate(317,0)" d="M0,20v204.90000000000003" style="stroke: rgb(255, 255, 255); stroke-opacity: 1; stroke-width: 1px;"/><path class="xgrid crisp" transform="translate(442,0)" d="M0,20v204.90000000000003" style="stroke: rgb(255, 255, 255); stroke-opacity: 1; stroke-width: 1px;"/><path class="xgrid crisp" transform="translate(567,0)" d="M0,20v204.90000000000003" style="stroke: rgb(255, 255, 255); stroke-opacity: 1; stroke-width: 1px;"/></g><g class="y"><path class="ygrid crisp" transform="translate(0,173.68)" d="M67,0h625" style="stroke: rgb(255, 255, 255); stroke-opacity: 1; stroke-width: 1px;"/><path class="ygrid crisp" transform="translate(0,71.22999999999999)" d="M67,0h625" style="stroke: rgb(255, 255, 255); stroke-opacity: 1; stroke-width: 1px;"/></g></g><g class="zerolinelayer"><path class="xzl zl crisp" transform="translate(67,0)" d="M0,20v204.90000000000003" style="stroke: rgb(255, 255, 255); stroke-opacity: 1; stroke-width: 2px;"/><path class="yzl zl crisp" transform="translate(0,122.45)" d="M67,0h625" style="stroke: rgb(255, 255, 255); stroke-opacity: 1; stroke-width: 2px;"/></g><path class="xlines-below"/><path class="ylines-below"/><g class="overlines-below"/><g class="xaxislayer-below"/><g class="yaxislayer-below"/><g class="overaxes-below"/><g class="plot" transform="translate(67,20)" clip-path="url(#clip87ff71xyplot)"><g class="scatterlayer mlayer"><g class="trace scatter tracee728bf" style="stroke-miterlimit: 2;"><g class="fills"><g><path class="js-fill" d="M625,102.45L0,102.45L0,102.45L625,102.45L625,102.45" style="fill: rgb(255, 0, 0); fill-opacity: 0.5; stroke-width: 0;"/></g></g><g class="errorbars"/><g class="lines"><path class="js-line" d="M0,102.45L625,102.45L625,102.45" style="vector-effect: none; fill: none; stroke: rgb(255, 0, 0); stroke-opacity: 1; stroke-width: 1px; opacity: 1;"/></g><g class="points"/><g class="text"/></g></g></g><g class="overplot"/><path class="xlines-above crisp" d="M0,0" style="fill: none;"/><path class="ylines-above crisp" d="M0,0" style="fill: none;"/><g class="overlines-above"/><g class="xaxislayer-above"/><g class="yaxislayer-above"><g class="ytick"><text text-anchor="end" x="66" y="5.25" transform="translate(0,224.9)" style="font-family: 'New Computer Modern'; font-size: 15px; fill: rgb(42, 63, 95); fill-opacity: 1; white-space: pre; opacity: 1;">−1</text></g><g class="ytick"><text text-anchor="end" x="66" y="5.25" style="font-family: 'New Computer Modern'; font-size: 15px; fill: rgb(42, 63, 95); fill-opacity: 1; white-space: pre; opacity: 1;" transform="translate(0,173.68)">−0.5</text></g><g class="ytick"><text text-anchor="end" x="66" y="5.25" style="font-family: 'New Computer Modern'; font-size: 15px; fill: rgb(42, 63, 95); fill-opacity: 1; white-space: pre; opacity: 1;" transform="translate(0,122.45)">0</text></g><g class="ytick"><text text-anchor="end" x="66" y="5.25" style="font-family: 'New Computer Modern'; font-size: 15px; fill: rgb(42, 63, 95); fill-opacity: 1; white-space: pre; opacity: 1;" transform="translate(0,71.22999999999999)">0.5</text></g><g class="ytick"><text text-anchor="end" x="66" y="5.25" style="font-family: 'New Computer Modern'; font-size: 15px; fill: rgb(42, 63, 95); fill-opacity: 1; white-space: pre; opacity: 1;" transform="translate(0,20)">1</text></g></g><g class="overaxes-above"/></g><g class="subplot x2y2"><g class="layer-subplot"><g class="shapelayer"/><g class="imagelayer"/></g><g class="minor-gridlayer"><g class="x2"/><g class="y2"/></g><g class="gridlayer"><g class="x2"><path class="x2grid crisp" transform="translate(192,0)" d="M0,259.05000000000007v204.89999999999995" style="stroke: rgb(255, 255, 255); stroke-opacity: 1; stroke-width: 1px;"/><path class="x2grid crisp" transform="translate(317,0)" d="M0,259.05000000000007v204.89999999999995" style="stroke: rgb(255, 255, 255); stroke-opacity: 1; stroke-width: 1px;"/><path class="x2grid crisp" transform="translate(442,0)" d="M0,259.05000000000007v204.89999999999995" style="stroke: rgb(255, 255, 255); stroke-opacity: 1; stroke-width: 1px;"/><path class="x2grid crisp" transform="translate(567,0)" d="M0,259.05000000000007v204.89999999999995" style="stroke: rgb(255, 255, 255); stroke-opacity: 1; stroke-width: 1px;"/></g><g class="y2"><path class="y2grid crisp" transform="translate(0,418.36000000000007)" d="M67,0h625" style="stroke: rgb(255, 255, 255); stroke-opacity: 1; stroke-width: 1px;"/><path class="y2grid crisp" transform="translate(0,295.4200000000001)" d="M67,0h625" style="stroke: rgb(255, 255, 255); stroke-opacity: 1; stroke-width: 1px;"/></g></g><g class="zerolinelayer"><path class="x2zl zl crisp" transform="translate(67,0)" d="M0,259.05000000000007v204.89999999999995" style="stroke: rgb(255, 255, 255); stroke-opacity: 1; stroke-width: 2px;"/><path class="y2zl zl crisp" transform="translate(0,356.8900000000001)" d="M67,0h625" style="stroke: rgb(255, 255, 255); stroke-opacity: 1; stroke-width: 2px;"/></g><path class="xlines-below"/><path class="ylines-below"/><g class="overlines-below"/><g class="xaxislayer-below"/><g class="yaxislayer-below"/><g class="overaxes-below"/><g class="plot" transform="translate(67,259.05000000000007)" clip-path="url(#clip87ff71x2y2plot)"><g class="scatterlayer mlayer"><g class="trace scatter tracefe469b" style="stroke-miterlimit: 2;"><g class="fills"><g><path class="js-fill" d="M625,97.84L0,97.84L0,97.84L0,10.25L3.14,10.25L125,10.25L125,40.98L188.44,41.44L191.58,42.99L375,133.18L375,133.18L376.88,133.18L500,133.18L500,194.65L625,194.65L625,194.65" style="fill: rgb(0, 255, 255); fill-opacity: 0.5; stroke-width: 0;"/></g></g><g class="errorbars"/><g class="lines"><path class="js-line" d="M0,97.84L0,10.25L3.14,10.25L125,10.25L125,40.98L188.44,41.44L191.58,42.99L375,133.18L375,133.18L376.88,133.18L500,133.18L500,194.65L625,194.65L625,194.65" style="vector-effect: none; fill: none; stroke: rgb(0, 255, 255); stroke-opacity: 1; stroke-width: 1px; opacity: 1;"/></g><g class="points"/><g class="text"/></g></g></g><g class="overplot"/><path class="xlines-above crisp" d="M0,0" style="fill: none;"/><path class="ylines-above crisp" d="M0,0" style="fill: none;"/><g class="overlines-above"/><g class="xaxislayer-above"/><g class="yaxislayer-above"><g class="y2tick"><text text-anchor="end" x="66" y="5.25" transform="translate(0,418.36000000000007)" style="font-family: 'New Computer Modern'; font-size: 15px; fill: rgb(42, 63, 95); fill-opacity: 1; white-space: pre; opacity: 1;">−2000</text></g><g class="y2tick"><text text-anchor="end" x="66" y="5.25" style="font-family: 'New Computer Modern'; font-size: 15px; fill: rgb(42, 63, 95); fill-opacity: 1; white-space: pre; opacity: 1;" transform="translate(0,356.8900000000001)">0</text></g><g class="y2tick"><text text-anchor="end" x="66" y="5.25" style="font-family: 'New Computer Modern'; font-size: 15px; fill: rgb(42, 63, 95); fill-opacity: 1; white-space: pre; opacity: 1;" transform="translate(0,295.4200000000001)">2000</text></g></g><g class="overaxes-above"/></g><g class="subplot x3y3"><g class="layer-subplot"><g class="shapelayer"/><g class="imagelayer"/></g><g class="minor-gridlayer"><g class="x3"/><g class="y3"/></g><g class="gridlayer"><g class="x3"><path class="x3grid crisp" transform="translate(192,0)" d="M0,498.09999999999997v204.9" style="stroke: rgb(255, 255, 255); stroke-opacity: 1; stroke-width: 1px;"/><path class="x3grid crisp" transform="translate(317,0)" d="M0,498.09999999999997v204.9" style="stroke: rgb(255, 255, 255); stroke-opacity: 1; stroke-width: 1px;"/><path class="x3grid crisp" transform="translate(442,0)" d="M0,498.09999999999997v204.9" style="stroke: rgb(255, 255, 255); stroke-opacity: 1; stroke-width: 1px;"/><path class="x3grid crisp" transform="translate(567,0)" d="M0,498.09999999999997v204.9" style="stroke: rgb(255, 255, 255); stroke-opacity: 1; stroke-width: 1px;"/></g><g class="y3"><path class="y3grid crisp" transform="translate(0,660.96)" d="M67,0h625" style="stroke: rgb(255, 255, 255); stroke-opacity: 1; stroke-width: 1px;"/><path class="y3grid crisp" transform="translate(0,618.92)" d="M67,0h625" style="stroke: rgb(255, 255, 255); stroke-opacity: 1; stroke-width: 1px;"/><path class="y3grid crisp" transform="translate(0,576.89)" d="M67,0h625" style="stroke: rgb(255, 255, 255); stroke-opacity: 1; stroke-width: 1px;"/><path class="y3grid crisp" transform="translate(0,534.8499999999999)" d="M67,0h625" style="stroke: rgb(255, 255, 255); stroke-opacity: 1; stroke-width: 1px;"/></g></g><g class="zerolinelayer"><path class="x3zl zl crisp" transform="translate(67,0)" d="M0,498.09999999999997v204.9" style="stroke: rgb(255, 255, 255); stroke-opacity: 1; stroke-width: 2px;"/><path class="y3zl zl crisp" transform="translate(0,703)" d="M67,0h625" style="stroke: rgb(255, 255, 255); stroke-opacity: 1; stroke-width: 2px;"/></g><path class="xlines-below"/><path class="ylines-below"/><g class="overlines-below"/><g class="xaxislayer-below"/><g class="yaxislayer-below"/><g class="overaxes-below"/><g class="plot" transform="translate(67,498.09999999999997)" clip-path="url(#clip87ff71x3y3plot)"><g class="scatterlayer mlayer"><g class="trace scatter traced115a3" style="stroke-miterlimit: 2;"><g class="fills"><g><path class="js-fill" d="M625,204.9L0,204.9L0,204.9L125.63,84.7L128.77,82.75L201.01,38.3L204.15,36.6L222.99,27.52L226.13,26.19L241.83,20.35L244.97,19.34L260.68,15.09L263.82,14.4L279.52,11.74L282.66,11.37L298.37,10.3L301.51,10.25L317.21,10.77L320.35,11.04L336.06,13.16L339.2,13.74L354.9,17.45L358.04,18.35L376.88,24.87L380.03,26.08L500,72.48L500,72.48L502.51,75.14L625,204.9L625,204.9" style="fill: rgb(144, 238, 144); fill-opacity: 0.5; stroke-width: 0;"/></g></g><g class="errorbars"/><g class="lines"><path class="js-line" d="M0,204.9L125.63,84.7L128.77,82.75L201.01,38.3L204.15,36.6L222.99,27.52L226.13,26.19L241.83,20.35L244.97,19.34L260.68,15.09L263.82,14.4L279.52,11.74L282.66,11.37L298.37,10.3L301.51,10.25L317.21,10.77L320.35,11.04L336.06,13.16L339.2,13.74L354.9,17.45L358.04,18.35L376.88,24.87L380.03,26.08L500,72.48L500,72.48L502.51,75.14L625,204.9L625,204.9" style="vector-effect: none; fill: none; stroke: rgb(144, 238, 144); stroke-opacity: 1; stroke-width: 1px; opacity: 1;"/></g><g class="points"/><g class="text"/></g></g></g><g class="overplot"/><path class="xlines-above crisp" d="M0,0" style="fill: none;"/><path class="ylines-above crisp" d="M0,0" style="fill: none;"/><g class="overlines-above"/><g class="xaxislayer-above"><g class="x3tick"><text text-anchor="middle" x="0" y="719" transform="translate(67,0)" style="font-family: 'New Computer Modern'; font-size: 15px; fill: rgb(42, 63, 95); fill-opacity: 1; white-space: pre; opacity: 1;">0</text></g><g class="x3tick"><text text-anchor="middle" x="0" y="719" style="font-family: 'New Computer Modern'; font-size: 15px; fill: rgb(42, 63, 95); fill-opacity: 1; white-space: pre; opacity: 1;" transform="translate(192,0)">2</text></g><g class="x3tick"><text text-anchor="middle" x="0" y="719" style="font-family: 'New Computer Modern'; font-size: 15px; fill: rgb(42, 63, 95); fill-opacity: 1; white-space: pre; opacity: 1;" transform="translate(317,0)">4</text></g><g class="x3tick"><text text-anchor="middle" x="0" y="719" style="font-family: 'New Computer Modern'; font-size: 15px; fill: rgb(42, 63, 95); fill-opacity: 1; white-space: pre; opacity: 1;" transform="translate(442,0)">6</text></g><g class="x3tick"><text text-anchor="middle" x="0" y="719" style="font-family: 'New Computer Modern'; font-size: 15px; fill: rgb(42, 63, 95); fill-opacity: 1; white-space: pre; opacity: 1;" transform="translate(567,0)">8</text></g><g class="x3tick"><text text-anchor="middle" x="0" y="719" style="font-family: 'New Computer Modern'; font-size: 15px; fill: rgb(42, 63, 95); fill-opacity: 1; white-space: pre; opacity: 1;" transform="translate(692,0)">10</text></g></g><g class="yaxislayer-above"><g class="y3tick"><text text-anchor="end" x="66" y="5.25" transform="translate(0,703)" style="font-family: 'New Computer Modern'; font-size: 15px; fill: rgb(42, 63, 95); fill-opacity: 1; white-space: pre; opacity: 1;">0</text></g><g class="y3tick"><text text-anchor="end" x="66" y="5.25" style="font-family: 'New Computer Modern'; font-size: 15px; fill: rgb(42, 63, 95); fill-opacity: 1; white-space: pre; opacity: 1;" transform="translate(0,660.96)">2000</text></g><g class="y3tick"><text text-anchor="end" x="66" y="5.25" style="font-family: 'New Computer Modern'; font-size: 15px; fill: rgb(42, 63, 95); fill-opacity: 1; white-space: pre; opacity: 1;" transform="translate(0,618.92)">4000</text></g><g class="y3tick"><text text-anchor="end" x="66" y="5.25" style="font-family: 'New Computer Modern'; font-size: 15px; fill: rgb(42, 63, 95); fill-opacity: 1; white-space: pre; opacity: 1;" transform="translate(0,576.89)">6000</text></g><g class="y3tick"><text text-anchor="end" x="66" y="5.25" style="font-family: 'New Computer Modern'; font-size: 15px; fill: rgb(42, 63, 95); fill-opacity: 1; white-space: pre; opacity: 1;" transform="translate(0,534.8499999999999)">8000</text></g></g><g class="overaxes-above"/></g></g><g class="polarlayer"/><g class="smithlayer"/><g class="ternarylayer"/><g class="geolayer"/><g class="funnelarealayer"/><g class="pielayer"/><g class="iciclelayer"/><g class="treemaplayer"/><g class="sunburstlayer"/><g class="glimages"/><defs id="topdefs-87ff71"><g class="clips"/></defs><g class="layer-above"><g class="imagelayer"/><g class="shapelayer"/></g><g class="infolayer"><g class="g-gtitle"/><g class="g-xtitle"/><g class="g-x2title"/><g class="g-x3title" transform="translate(0,-3.1000000000000227)"><text class="x3title" x="379.5" y="749.1" text-anchor="middle" style="font-family: 'New Computer Modern'; font-size: 18px; fill: rgb(42, 63, 95); opacity: 1; font-weight: normal; white-space: pre;">Beam length [m]</text></g><g class="g-ytitle" transform="translate(4.3310546875,0)"><text class="ytitle" transform="rotate(-90,11.681249999999999,122.45000000000002)" x="11.681249999999999" y="122.45000000000002" text-anchor="middle" style="font-family: 'New Computer Modern'; font-size: 18px; fill: rgb(42, 63, 95); opacity: 1; font-weight: normal; white-space: pre;">Normal force [N]</text></g><g class="g-y2title" transform="translate(15.568359375,0)"><text class="y2title" transform="rotate(-90,0.4312500000000057,361.50000000000006)" x="0.4312500000000057" y="361.50000000000006" text-anchor="middle" style="font-family: 'New Computer Modern'; font-size: 18px; fill: rgb(42, 63, 95); opacity: 1; font-weight: normal; white-space: pre;">Shear force [N]</text></g><g class="g-y3title" transform="translate(7.103515625,0)"><text class="y3title" transform="rotate(-90,8.899999999999999,600.55)" x="8.899999999999999" y="600.55" text-anchor="middle" style="font-family: 'New Computer Modern'; font-size: 18px; fill: rgb(42, 63, 95); opacity: 1; font-weight: normal; white-space: pre;">Bending moment [N⋅m]</text></g><g class="annotation" data-index="0" style="opacity: 1;"><g class="annotation-text-g" transform="rotate(0,379.5,9.999999999999996)"><g class="cursor-pointer" transform="translate(308,0)"><rect class="bg" x="0.5" y="0.5" width="143" height="19" style="stroke-width: 1px; stroke: rgb(0, 0, 0); stroke-opacity: 0; fill: rgb(0, 0, 0); fill-opacity: 0;"/><text class="annotation-text" text-anchor="middle" x="71.984375" y="15" style="font-family: 'New Computer Modern'; font-size: 15px; fill: rgb(42, 63, 95); fill-opacity: 1; white-space: pre;">Normal Force Diagram</text></g></g></g><g class="annotation" data-index="1" style="opacity: 1;"><g class="annotation-text-g" transform="rotate(0,379.5,249.05000000000007)"><g class="cursor-pointer" transform="translate(313,239)"><rect class="bg" x="0.5" y="0.5" width="132" height="19" style="stroke-width: 1px; stroke: rgb(0, 0, 0); stroke-opacity: 0; fill: rgb(0, 0, 0); fill-opacity: 0;"/><text class="annotation-text" text-anchor="middle" x="66.15625" y="15" style="font-family: 'New Computer Modern'; font-size: 15px; fill: rgb(42, 63, 95); fill-opacity: 1; white-space: pre;">Shear Force Diagram</text></g></g></g><g class="annotation" data-index="2" style="opacity: 1;"><g class="annotation-text-g" transform="rotate(0,379.5,488.09999999999997)"><g class="cursor-pointer" transform="translate(297,478)"><rect class="bg" x="0.5" y="0.5" width="165" height="19" style="stroke-width: 1px; stroke: rgb(0, 0, 0); stroke-opacity: 0; fill: rgb(0, 0, 0); fill-opacity: 0;"/><text class="annotation-text" text-anchor="middle" x="82.828125" y="15" style="font-family: 'New Computer Modern'; font-size: 15px; fill: rgb(42, 63, 95); fill-opacity: 1; white-space: pre;">Bending Moment Diagram</text></g></g></g></g></svg>