<svg class="main-svg" xmlns="http://www.w3.org/2000/svg" xmlns:xlink="http://www.w3.org/1999/xlink" width="700" height="750" style="" viewBox="0 0 700 750"><rect x="0" y="0" width="700" height="750" style="fill: rgb(0, 0, 0); fill-opacity: 0;"/><defs id="defs-44c33f"><g class="clips"><clipPath id="clip44c33fxyplot" class="plotclip"><rect width="629" height="204.90000000000003"/></clipPath><clipPath id="clip44c33fx2y2plot" class="plotclip"><rect width="629" height="204.89999999999995"/></clipPath><clipPath id="clip44c33fx3y3plot" class="plotclip"><rect width="629" height="204.9"/></clipPath><clipPath class="axesclip" id="clip44c33fx"><rect x="67" y="0" width="629" height="750"/></clipPath><clipPath class="axesclip" id="clip44c33fy"><rect x="0" y="20" width="700" height="204.90000000000003"/></clipPath><clipPath class="axesclip" id="clip44c33fxy"><rect x="67" y="20" width="629" height="204.90000000000003"/></clipPath><clipPath class="axesclip" id="clip44c33fy2"><rect x="0" y="259.05000000000007" width="700" height="204.89999999999995"/></clipPath><clipPath class="axesclip" id="clip44c33fxy2"><rect x="67" y="259.05000000000007" width="629" height="204.89999999999995"/></clipPath><clipPath class="axesclip" id="clip44c33fy3"><rect x="0" y="498.09999999999997" width="700" height="204.9"/></clipPath><clipPath class="axesclip" id="clip44c33fxy3"><rect x="67" y="498.09999999999997" width="629" height="204.9"/></clipPath><clipPath class="axesclip" id="clip44c33fx2"><rect x="67" y="0" width="629" height="750"/></clipPath><clipPath class="axesclip" id="clip44c33fx2y"><rect x="67" y="20" width="629" height="204.90000000000003"/></clipPath><clipPath class="axesclip" id="clip44c33fx2y2"><rect x="67" y="259.05000000000007" width="629" height="204.89999999999995"/></clipPath><clipPath class="axesclip" id="clip44c33fx2y3"><rect x="67" y="498.09999999999997" width="629" height="204.9"/></clipPath><clipPath class="axesclip" id="clip44c33fx3"><rect x="67" y="0" width="629" height="750"/></clipPath><clipPath class="axesclip" id="clip44c33fx3y"><rect x="67" y="20" width="629" height="204.90000000000003"/></clipPath><clipPath class="axesclip" id="clip44c33fx3y2"><rect x="67" y="259.05000000000007" width="629" height="204.89999999999995"/></clipPath><clipPath class="axesclip" id="clip44c33fx3y3"><rect x="67" y="498.09999999999997" width="629" height="204.9"/></clipPath></g><g class="gradients"/><g class="patterns"/></defs><g class="bglayer"><rect class="bg" x="67" y="20" width="629" height="204.90000000000003" style="fill: rgb(229, 236, 246); fill-opacity: 1; stroke-width: 0;"/><rect class="bg" x="67" y="259.05000000000007" width="629" height="204.89999999999995" style="fill: rgb(229, 236, 246); fill-opacity: 1; stroke-width: 0;"/><rect class="bg" x="67" y="498.09999999999997" width="629" height="204.9" style="fill: rgb(229, 236, 246); fill-opacity: 1; stroke-width: 0;"/></g><g class="layer-below"><g class="imagelayer"/><g class="shapelayer"/></g><g class="cartesianlayer"><g class="subplot xy"><g class="layer-subplot"><g class="shapelayer"/><g class="imagelayer"/></g><g class="minor-gridlayer"><g class="x"/><g class="y"/></g><g class="gridlayer"><g class="x"><path class="xgrid crisp" transform="translate(192.8,0)" d="M0,20v204.90000000000003" style="stroke: rgb(255, 255, 255); stroke-opacity: 1; stroke-width: 1px;"/><path class="xgrid crisp" transform="translate(318.6,0)" d="M0,20v204.90000000000003" style="stroke: rgb(255, 255, 255); stroke-opacity: 1; stroke-width: 1px;"/><path class="xgrid crisp" transform="translate(444.4,0)" d="M0,20v204.90000000000003" style="stroke: rgb(255, 255, 255); stroke-opacity: 1; stroke-width: 1px;"/><path class="xgrid crisp" transform="translate(570.2,0)" d="M0,20v204.90000000000003" style="stroke: rgb(255, 255, 255); stroke-opacity: 1; stroke-width: 1px;"/></g><g class="y"><path class="ygrid crisp" transform="translate(0,173.68)" d="M67,0h629" style="stroke: rgb(255, 255, 255); stroke-opacity: 1; stroke-width: 1px;"/><path class="ygrid crisp" transform="translate(0,71.22999999999999)" d="M67,0h629" style="stroke: rgb(255, 255, 255); stroke-opacity: 1; stroke-width: 1px;"/></g></g><g class="zerolinelayer"><path class="xzl zl crisp" transform="translate(67,0)" d="M0,20v204.90000000000003" style="stroke: rgb(255, 255, 255); stroke-opacity: 1; stroke-width: 2px;"/><path class="yzl zl crisp" transform="translate(0,122.45)" d="M67,0h629" style="stroke: rgb(255, 255, 255); stroke-opacity: 1; stroke-width: 2px;"/></g><path class="xlines-below"/><path class="ylines-below"/><g class="overlines-below"/><g class="xaxislayer-below"/><g class="yaxislayer-below"/><g class="overaxes-below"/><g class="plot" transform="translate(67,20)" clip-path="url(#clip44c33fxyplot)"><g class="scatterlayer mlayer"><g class="trace scatter trace1c247c" style="stroke-miterlimit: 2;"><g class="fills"><g><path class="js-fill" d="M629,102.45L0,102.45L0,102.45L629,102.45L629,102.45" style="fill: rgb(255, 0, 0); fill-opacity: 0.5; stroke-width: 0;"/></g></g><g class="errorbars"/><g class="lines"><path class="js-line" d="M0,102.45L629,102.45L629,102.45" style="vector-effect: none; fill: none; stroke: rgb(255, 0, 0); stroke-opacity: 1; stroke-width: 1px; opacity: 1;"/></g><g class="points"/><g class="text"/></g></g></g><g class="overplot"/><path class="xlines-above crisp" d="M0,0" style="fill: none;"/><path class="ylines-above crisp" d="M0,0" style="fill: none;"/><g class="overlines-above"/><g class="xaxislayer-above"/><g class="yaxislayer-above"><g class="ytick"><text text-anchor="end" x="66" y="5.25" transform="translate(0,224.9)" style="font-family: 'New Computer Modern'; font-size: 15px; fill: rgb(42, 63, 95); fill-opacity: 1; white-space: pre; opacity: 1;">−1</text></g><g class="ytick"><text text-anchor="end" x="66" y="5.25" style="font-family: 'New Computer Modern'; font-size: 15px; fill: rgb(42, 63, 95); fill-opacity: 1; white-space: pre; opacity: 1;" transform="translate(0,173.68)">−0.5</text></g><g class="ytick"><text text-anchor="end" x="66" y="5.25" style="font-family: 'New Computer Modern'; font-size: 15px; fill: rgb(42, 63, 95); fill-opacity: 1; white-space: pre; opacity: 1;" transform="translate(0,122.45)">0</text></g><g class="ytick"><text text-anchor="end" x="66" y="5.25" style="font-family: 'New Computer Modern'; font-size: 15px; fill: rgb(42, 63, 95); fill-opacity: 1; white-space: pre; opacity: 1;" transform="translate(0,71.22999999999999)">0.5</text></g><g class="ytick"><text text-anchor="end" x="66" y="5.25" style="font-family: 'New Computer Modern'; font-size: 15px; fill: rgb(42, 63, 95); fill-opacity: 1; white-space: pre; opacity: 1;" transform="translate(0,20)">1</text></g></g><g class="overaxes-above"/></g><g class="subplot x2y2"><g class="layer-subplot"><g class="shapelayer"/><g class="imagelayer"/></g><g class="minor-gridlayer"><g class="x2"/><g class="y2"/></g><g class="gridlayer"><g class="x2"><path class="x2grid crisp" transform="translate(192.8,0)" d="M0,259.05000000000007v204.89999999999995" style="stroke: rgb(255, 255, 255); stroke-opacity: 1; stroke-width: 1px;"/><path class="x2grid crisp" transform="translate(318.6,0)" d="M0,259.05000000000007v204.89999999999995" style="stroke: rgb(255, 255, 255); stroke-opacity: 1; stroke-width: 1px;"/><path class="x2grid crisp" transform="translate(444.4,0)" d="M0,259.05000000000007v204.89999999999995" style="stroke: rgb(255, 255, 255); stroke-opacity: 1; stroke-width: 1px;"/><path class="x2grid crisp" transform="translate(570.2,0)" d="M0,259.05000000000007v204.89999999999995" style="stroke: rgb(255, 255, 255); stroke-opacity: 1; stroke-width: 1px;"/></g><g class="y2"><path class="y2grid crisp" transform="translate(0,405.9000000000001)" d="M67,0h629" style="stroke: rgb(255, 255, 255); stroke-opacity: 1; stroke-width: 1px;"/><path class="y2grid crisp" transform="translate(0,282.95000000000005)" d="M67,0h629" style="stroke: rgb(255, 255, 255); stroke-opacity: 1; stroke-width: 1px;"/></g></g><g class="zerolinelayer"><path class="x2zl zl crisp" transform="translate(67,0)" d="M0,259.05000000000007v204.89999999999995" style="stroke: rgb(255, 255, 255); stroke-opacity: 1; stroke-width: 2px;"/><path class="y2zl zl crisp" transform="translate(0,344.4200000000001)" d="M67,0h629" style="stroke: rgb(255, 255, 255); stroke-opacity: 1; stroke-width: 2px;"/></g><path class="xlines-below"/><path class="ylines-below"/><g class="overlines-below"/><g class="xaxislayer-below"/><g class="yaxislayer-below"/><g class="overaxes-below"/><g class="plot" transform="translate(67,259.05000000000007)" clip-path="url(#clip44c33fx2y2plot)"><g class="scatterlayer mlayer"><g class="trace scatter tracee5734b" style="stroke-miterlimit: 2;"><g class="fills"><g><path class="js-fill" d="M629,85.37L0,85.37L0,85.37L0,10.24L3.16,11.79L126.43,71.71L129.59,71.71L188.7,71.71L188.7,133.19L252.86,133.8L256.03,135.35L377.4,194.65L377.4,54.64L521.53,55.29L524.69,55.54L543.66,57.82L546.82,58.34L565.78,62.25L568.94,63.03L587.91,68.58L591.07,69.64L610.04,76.81L613.2,78.14L629,85.37L629,85.37" style="fill: rgb(0, 255, 255); fill-opacity: 0.5; stroke-width: 0;"/></g></g><g class="errorbars"/><g class="lines"><path class="js-line" d="M0,85.37L0,10.24L3.16,11.79L126.43,71.71L129.59,71.71L188.7,71.71L188.7,133.19L252.86,133.8L256.03,135.35L377.4,194.65L377.4,54.64L521.53,55.29L524.69,55.54L543.66,57.82L546.82,58.34L565.78,62.25L568.94,63.03L587.91,68.58L591.07,69.64L610.04,76.81L613.2,78.14L629,85.37L629,85.37" style="vector-effect: none; fill: none; stroke: rgb(0, 255, 255); stroke-opacity: 1; stroke-width: 1px; opacity: 1;"/></g><g class="points"/><g class="text"/></g></g></g><g class="overplot"/><path class="xlines-above crisp" d="M0,0" style="fill: none;"/><path class="ylines-above crisp" d="M0,0" style="fill: none;"/><g class="overlines-above"/><g class="xaxislayer-above"/><g class="yaxislayer-above"><g class="y2tick"><text text-anchor="end" x="66" y="5.25" transform="translate(0,405.9000000000001)" style="font-family: 'New Computer Modern'; font-size: 15px; fill: rgb(42, 63, 95); fill-opacity: 1; white-space: pre; opacity: 1;">−1000</text></g><g class="y2tick"><text text-anchor="end" x="66" y="5.25" style="font-family: 'New Computer Modern'; font-size: 15px; fill: rgb(42, 63, 95); fill-opacity: 1; white-space: pre; opacity: 1;" transform="translate(0,344.4200000000001)">0</text></g><g class="y2tick"><text text-anchor="end" x="66" y="5.25" style="font-family: 'New Computer Modern'; font-size: 15px; fill: rgb(42, 63, 95); fill-opacity: 1; white-space: pre; opacity: 1;" transform="translate(0,282.95000000000005)">1000</text></g></g><g class="overaxes-above"/></g><g class="subplot x3y3"><g class="layer-subplot"><g class="shapelayer"/><g class="imagelayer"/></g><g class="minor-gridlayer"><g class="x3"/><g class="y3"/></g><g class="gridlayer"><g class="x3"><path class="x3grid crisp" transform="translate(192.8,0)" d="M0,498.09999999999997v204.9" style="stroke: rgb(255, 255, 255); stroke-opacity: 1; stroke-width: 1px;"/><path class="x3grid crisp" transform="translate(318.6,0)" d="M0,498.09999999999997v204.9" style="stroke: rgb(255, 255, 255); stroke-opacity: 1; stroke-width: 1px;"/><path class="x3grid crisp" transform="translate(444.4,0)" d="M0,498.09999999999997v204.9" style="stroke: rgb(255, 255, 255); stroke-opacity: 1; stroke-width: 1px;"/><path class="x3grid crisp" transform="translate(570.2,0)" d="M0,498.09999999999997v204.9" style="stroke: rgb(255, 255, 255); stroke-opacity: 1; stroke-width: 1px;"/></g><g class="y3"><path class="y3grid crisp" transform="translate(0,655.87)" d="M67,0h629" style="stroke: rgb(255, 255, 255); stroke-opacity: 1; stroke-width: 1px;"/><path class="y3grid crisp" transform="translate(0,545.23)" d="M67,0h629" style="stroke: rgb(255, 255, 255); stroke-opacity: 1; stroke-width: 1px;"/></g></g><g class="zerolinelayer"><path class="x3zl zl crisp" transform="translate(67,0)" d="M0,498.09999999999997v204.9" style="stroke: rgb(255, 255, 255); stroke-opacity: 1; stroke-width: 2px;"/><path class="y3zl zl crisp" transform="translate(0,600.55)" d="M67,0h629" style="stroke: rgb(255, 255, 255); stroke-opacity: 1; stroke-width: 2px;"/></g><path class="xlines-below"/><path class="ylines-below"/><g class="overlines-below"/><g class="xaxislayer-below"/><g class="yaxislayer-below"/><g class="overaxes-below"/><g class="plot" transform="translate(67,498.09999999999997)" clip-path="url(#clip44c33fx3y3plot)"><g class="scatterlayer mlayer"><g class="trace scatter trace83568b" style="stroke-miterlimit: 2;"><g class="fills"><g><path class="js-fill" d="M629,102.45L0,102.45L0,102.45L18.96,83.32L22.13,80.38L37.93,66.71L41.09,64.18L56.89,52.6L60.06,50.5L75.86,41.02L79.02,39.33L94.82,31.95L97.98,30.68L113.79,25.39L116.95,24.54L135.91,20.56L139.08,19.94L188.7,10.25L188.7,10.25L189.65,10.89L265.51,63.46L268.67,65.97L284.47,79.54L287.63,82.46L306.6,101.47L309.76,104.88L328.72,126.83L331.88,130.73L350.85,155.6L354.01,159.99L372.97,187.8L376.14,192.68L377.4,194.65L379.3,193.82L546.82,120.92L549.98,119.71L572.11,112.06L575.27,111.11L594.23,106.29L597.39,105.65L613.2,103.29L616.36,102.99L629,102.45L629,102.45" style="fill: rgb(144, 238, 144); fill-opacity: 0.5; stroke-width: 0;"/></g></g><g class="errorbars"/><g class="lines"><path class="js-line" d="M0,102.45L18.96,83.32L22.13,80.38L37.93,66.71L41.09,64.18L56.89,52.6L60.06,50.5L75.86,41.02L79.02,39.33L94.82,31.95L97.98,30.68L113.79,25.39L116.95,24.54L135.91,20.56L139.08,19.94L188.7,10.25L188.7,10.25L189.65,10.89L265.51,63.46L268.67,65.97L284.47,79.54L287.63,82.46L306.6,101.47L309.76,104.88L328.72,126.83L331.88,130.73L350.85,155.6L354.01,159.99L372.97,187.8L376.14,192.68L377.4,194.65L379.3,193.82L546.82,120.92L549.98,119.71L572.11,112.06L575.27,111.11L594.23,106.29L597.39,105.65L613.2,103.29L616.36,102.99L629,102.45L629,102.45" style="vector-effect: none; fill: none; stroke: rgb(144, 238, 144); stroke-opacity: 1; stroke-width: 1px; opacity: 1;"/></g><g class="points"/><g class="text"/></g></g></g><g class="overplot"/><path class="xlines-above crisp" d="M0,0" style="fill: none;"/><path class="ylines-above crisp" d="M0,0" style="fill: none;"/><g class="overlines-above"/><g class="xaxislayer-above"><g class="x3tick"><text text-anchor="middle" x="0" y="719" transform="translate(67,0)" style="font-family: 'New Computer Modern'; font-size: 15px; fill: rgb(42, 63, 95); fill-opacity: 1; white-space: pre; opacity: 1;">0</text></g><g class="x3tick"><text text-anchor="middle" x="0" y="719" style="font-family: 'New Computer Modern'; font-size: 15px; fill: rgb(42, 63, 95); fill-opacity: 1; white-space: pre; opacity: 1;" transform="translate(192.8,0)">1</text></g><g class="x3tick"><text text-anchor="middle" x="0" y="719" style="font-family: 'New Computer Modern'; font-size: 15px; fill: rgb(42, 63, 95); fill-opacity: 1; white-space: pre; opacity: 1;" transform="translate(318.6,0)">2</text></g><g class="x3tick"><text text-anchor="middle" x="0" y="719" style="font-family: 'New Computer Modern'; font-size: 15px; fill: rgb(42, 63, 95); fill-opacity: 1; white-space: pre; opacity: 1;" transform="translate(444.4,0)">3</text></g><g class="x3tick"><text text-anchor="middle" x="0" y="719" style="font-family: 'New Computer Modern'; font-size: 15px; fill: rgb(42, 63, 95); fill-opacity: 1; white-space: pre; opacity: 1;" transform="translate(570.2,0)">4</text></g><g class="x3tick"><text text-anchor="middle" x="0" y="719" style="font-family: 'New Computer Modern'; font-size: 15px; fill: rgb(42, 63, 95); fill-opacity: 1; white-space: pre; opacity: 1;" transform="translate(696,0)">5</text></g></g><g class="yaxislayer-above"><g class="y3tick"><text text-anchor="end" x="66" y="5.25" transform="translate(0,655.87)" style="font-family: 'New Computer Modern'; font-size: 15px; fill: rgb(42, 63, 95); fill-opacity: 1; white-space: pre; opacity: 1;">−500</text></g><g class="y3tick"><text text-anchor="end" x="66" y="5.25" style="font-family: 'New Computer Modern'; font-size: 15px; fill: rgb(42, 63, 95); fill-opacity: 1; white-space: pre; opacity: 1;" transform="translate(0,600.55)">0</text></g><g class="y3tick"><text text-anchor="end" x="66" y="5.25" style="font-family: 'New Computer Modern'; font-size: 15px; fill: rgb(42, 63, 95); fill-opacity: 1; white-space: pre; opacity: 1;" transform="translate(0,545.23)">500</text></g></g><g class="overaxes-above"/></g></g><g class="polarlayer"/><g class="smithlayer"/><g class="ternarylayer"/><g class="geolayer"/><g class="funnelarealayer"/><g class="pielayer"/><g class="iciclelayer"/><g class="treemaplayer"/><g class="sunburstlayer"/><g class="glimages"/><defs id="topdefs-44c33f"><g class="clips"/></defs><g class="layer-above"><g class="imagelayer"/><g class="shapelayer"/></g><g class="infolayer"><g class="g-gtitle"/><g class="g-xtitle"/><g class="g-x2title"/><g class="g-x3title" transform="translate(0,-3.1000000000000227)"><text class="x3title" x="381.5" y="749.1" text-anchor="middle" style="font-family: 'New Computer Modern'; font-size: 18px; fill: rgb(42, 63, 95); opacity: 1; font-weight: normal; white-space: pre;">Beam length [m]</text></g><g class="g-ytitle" transform="translate(4.3310546875,0)"><text class="ytitle" transform="rotate(-90,11.681249999999999,122.45000000000002)" x="11.681249999999999" y="122.45000000000002" text-anchor="middle" style="font-family: 'New Computer Modern'; font-size: 18px; fill: rgb(42, 63, 95); opacity: 1; font-weight: normal; white-space: pre;">Normal force [N]</text></g><g class="g-y2title" transform="translate(15.568359375,0)"><text class="y2title" transform="rotate(-90,0.4312500000000057,361.50000000000006)" x="0.4312500000000057" y="361.50000000000006" text-anchor="middle" style="font-family: 'New Computer Modern'; font-size: 18px; fill: rgb(42, 63, 95); opacity: 1; font-weight: normal; white-space: pre;">Shear force [N]</text></g><g class="g-y3title" transform="translate(8.072265625,0)"><text class="y3title" transform="rotate(-90,7.931249999999999,600.55)" x="7.931249999999999" y="600.55" text-anchor="middle" style="font-family: 'New Computer Modern'; font-size: 18px; fill: rgb(42, 63, 95); opacity: 1; font-weight: normal; white-space: pre;">Bending moment [N⋅m]</text></g><g class="annotation" data-index="0" style="opacity: 1;"><g class="annotation-text-g" transform="rotate(0,381.5,9.999999999999996)"><g class="cursor-pointer" transform="translate(310,0)"><rect class="bg" x="0.5" y="0.5" width="143" height="19" style="stroke-width: 1px; stroke: rgb(0, 0, 0); stroke-opacity: 0; fill: rgb(0, 0, 0); fill-opacity: 0;"/><text class="annotation-text" text-anchor="middle" x="71.984375" y="15" style="font-family: 'New Computer Modern'; font-size: 15px; fill: rgb(42, 63, 95); fill-opacity: 1; white-space: pre;">Normal Force Diagram</text></g></g></g><g class="annotation" data-index="1" style="opacity: 1;"><g class="annotation-text-g" transform="rotate(0,381.5,249.05000000000007)"><g class="cursor-pointer" transform="translate(315,239)"><rect class="bg" x="0.5" y="0.5" width="132" height="19" style="stroke-width: 1px; stroke: rgb(0, 0, 0); stroke-opacity: 0; fill: rgb(0, 0, 0); fill-opacity: 0;"/><text class="annotation-text" text-anchor="middle" x="66.15625" y="15" style="font-family: 'New Computer Modern'; font-size: 15px; fill: rgb(42, 63, 95); fill-opacity: 1; white-space: pre;">Shear Force Diagram</text></g></g></g><g class="annotation" data-index="2" style="opacity: 1;"><g class="annotation-text-g" transform="rotate(0,381.5,488.09999999999997)"><g class="cursor-pointer" transform="translate(299,478)"><rect class="bg" x="0.5" y="0.5" width="165" height="19" style="stroke-width: 1px; stroke: rgb(0, 0, 0); stroke-opacity: 0; fill: rgb(0, 0, 0); fill-opacity: 0;"/><text class="annotation-text" text-anchor="middle" x="82.828125" y="15" style="font-family: 'New Computer Modern'; font-size: 15px; fill: rgb(42, 63, 95); fill-opacity: 1; white-space: pre;">Bending Moment Diagram</text></g></g></g></g></svg>