<svg class="main-svg" xmlns="http://www.w3.org/2000/svg" xmlns:xlink="http://www.w3.org/1999/xlink" width="900" height="1480" style="" viewBox="0 0 900 1480"><rect x="0" y="0" width="900" height="1480" style="fill: rgb(0, 0, 0); fill-opacity: 0;"/><defs id="defs-08ac27"><g class="clips"><clipPath id="clip08ac27xyplot" class="plotclip"><rect width="833" height="321.45750000000004"/></clipPath><clipPath id="clip08ac27x2y2plot" class="plotclip"><rect width="833" height="321.45750000000004"/></clipPath><clipPath id="clip08ac27x3y3plot" class="plotclip"><rect width="833" height="321.4575"/></clipPath><clipPath id="clip08ac27x4y4plot" class="plotclip"><rect width="833" height="321.45750000000004"/></clipPath><clipPath class="axesclip" id="clip08ac27x"><rect x="67" y="0" width="833" height="1480"/></clipPath><clipPath class="axesclip" id="clip08ac27y"><rect x="0" y="20" width="900" height="321.45750000000004"/></clipPath><clipPath class="axesclip" id="clip08ac27xy"><rect x="67" y="20" width="833" height="321.45750000000004"/></clipPath><clipPath class="axesclip" id="clip08ac27y2"><rect x="0" y="383.8474999999999" width="900" height="321.45750000000004"/></clipPath><clipPath class="axesclip" id="clip08ac27xy2"><rect x="67" y="383.8474999999999" width="833" height="321.45750000000004"/></clipPath><clipPath class="axesclip" id="clip08ac27y3"><rect x="0" y="747.695" width="900" height="321.4575"/></clipPath><clipPath class="axesclip" id="clip08ac27xy3"><rect x="67" y="747.695" width="833" height="321.4575"/></clipPath><clipPath class="axesclip" id="clip08ac27y4"><rect x="0" y="1111.5425" width="900" height="321.45750000000004"/></clipPath><clipPath class="axesclip" id="clip08ac27xy4"><rect x="67" y="1111.5425" width="833" height="321.45750000000004"/></clipPath><clipPath class="axesclip" id="clip08ac27x2"><rect x="67" y="0" width="833" height="1480"/></clipPath><clipPath class="axesclip" id="clip08ac27x2y"><rect x="67" y="20" width="833" height="321.45750000000004"/></clipPath><clipPath class="axesclip" id="clip08ac27x2y2"><rect x="67" y="383.8474999999999" width="833" height="321.45750000000004"/></clipPath><clipPath class="axesclip" id="clip08ac27x2y3"><rect x="67" y="747.695" width="833" height="321.4575"/></clipPath><clipPath class="axesclip" id="clip08ac27x2y4"><rect x="67" y="1111.5425" width="833" height="321.45750000000004"/></clipPath><clipPath class="axesclip" id="clip08ac27x3"><rect x="67" y="0" width="833" height="1480"/></clipPath><clipPath class="axesclip" id="clip08ac27x3y"><rect x="67" y="20" width="833" height="321.45750000000004"/></clipPath><clipPath class="axesclip" id="clip08ac27x3y2"><rect x="67" y="383.8474999999999" width="833" height="321.45750000000004"/></clipPath><clipPath class="axesclip" id="clip08ac27x3y3"><rect x="67" y="747.695" width="833" height="321.4575"/></clipPath><clipPath class="axesclip" id="clip08ac27x3y4"><rect x="67" y="1111.5425" width="833" height="321.45750000000004"/></clipPath><clipPath class="axesclip" id="clip08ac27x4"><rect x="67" y="0" width="833" height="1480"/></clipPath><clipPath class="axesclip" id="clip08ac27x4y"><rect x="67" y="20" width="833" height="321.45750000000004"/></clipPath><clipPath class="axesclip" id="clip08ac27x4y2"><rect x="67" y="383.8474999999999" width="833" height="321.45750000000004"/></clipPath><clipPath class="axesclip" id="clip08ac27x4y3"><rect x="67" y="747.695" width="833" height="321.4575"/></clipPath><clipPath class="axesclip" id="clip08ac27x4y4"><rect x="67" y="1111.5425" width="833" height="321.45750000000004"/></clipPath></g><g class="gradients"/><g class="patterns"/></defs><g class="bglayer"><rect class="bg" x="67" y="20" width="833" height="321.45750000000004" style="fill: rgb(229, 236, 246); fill-opacity: 1; stroke-width: 0;"/><rect class="bg" x="67" y="383.8474999999999" width="833" height="321.45750000000004" style="fill: rgb(229, 236, 246); fill-opacity: 1; stroke-width: 0;"/><rect class="bg" x="67" y="747.695" width="833" height="321.4575" style="fill: rgb(229, 236, 246); fill-opacity: 1; stroke-width: 0;"/><rect class="bg" x="67" y="1111.5425" width="833" height="321.45750000000004" style="fill: rgb(229, 236, 246); fill-opacity: 1; stroke-width: 0;"/></g><g class="layer-below"><g class="imagelayer"/><g class="shapelayer"/></g><g class="cartesianlayer"><g class="subplot xy"><g class="layer-subplot"><g class="shapelayer"/><g class="imagelayer"/></g><g class="minor-gridlayer"><g class="x"/><g class="y"/></g><g class="gridlayer"><g class="x"><path class="xgrid crisp" transform="translate(262.4,0)" d="M0,20v321.45750000000004" style="stroke: rgb(255, 255, 255); stroke-opacity: 1; stroke-width: 1px;"/><path class="xgrid crisp" transform="translate(409.8,0)" d="M0,20v321.45750000000004" style="stroke: rgb(255, 255, 255); stroke-opacity: 1; stroke-width: 1px;"/><path class="xgrid crisp" transform="translate(557.2,0)" d="M0,20v321.45750000000004" style="stroke: rgb(255, 255, 255); stroke-opacity: 1; stroke-width: 1px;"/><path class="xgrid crisp" transform="translate(704.6,0)" d="M0,20v321.45750000000004" style="stroke: rgb(255, 255, 255); stroke-opacity: 1; stroke-width: 1px;"/><path class="xgrid crisp" transform="translate(852,0)" d="M0,20v321.45750000000004" style="stroke: rgb(255, 255, 255); stroke-opacity: 1; stroke-width: 1px;"/></g><g class="y"/></g><g class="zerolinelayer"><path class="xzl zl crisp" transform="translate(115,0)" d="M0,20v321.45750000000004" style="stroke: rgb(255, 255, 255); stroke-opacity: 1; stroke-width: 2px;"/></g><path class="xlines-below"/><path class="ylines-below"/><g class="overlines-below"/><g class="xaxislayer-below"/><g class="yaxislayer-below"/><g class="overaxes-below"/><g class="plot" transform="translate(67,20)" clip-path="url(#clip08ac27xyplot)"><g class="scatterlayer mlayer"><g class="trace scatter trace666dbc" style="stroke-miterlimit: 2; opacity: 1;"><g class="fills"/><g class="errorbars"/><g class="lines"><path class="js-line" d="M48,160.73L785,160.73" style="vector-effect: none; fill: none; stroke: rgb(128, 0, 128); stroke-opacity: 1; stroke-width: 2px; opacity: 1;"/></g><g class="points"/><g class="text"/></g><g class="trace scatter trace9985b2" style="stroke-miterlimit: 2; opacity: 0;"><g class="fills"/><g class="errorbars"/><g class="lines"/><g class="points"><path class="point" transform="translate(48,160.73)" d="M-5.77,2.5H5.77L0,-5Z" style="opacity: 1; stroke-width: 0px; fill: rgb(0, 0, 255); fill-opacity: 1;"/></g><g class="text"/></g><g class="trace scatter tracec9cd9c" style="stroke-miterlimit: 2; opacity: 1;"><g class="fills"><g><path class="js-fill" d="M48,160.73Z" style="fill: rgb(0, 0, 255); fill-opacity: 0.5; stroke-width: 0;"/></g></g><g class="errorbars"/><g class="lines"/><g class="points"><path class="point" transform="translate(48,160.73)" d="M0,0L-5,10H5Z" style="opacity: 1; stroke-width: 0px; fill: rgb(0, 0, 255); fill-opacity: 1;"/></g><g class="text"/></g><g class="trace scatter tracea52f47" style="stroke-miterlimit: 2; opacity: 0;"><g class="fills"/><g class="errorbars"/><g class="lines"/><g class="points"><path class="point" transform="translate(490.2,160.73)" d="M-5.77,2.5H5.77L0,-5Z" style="opacity: 1; stroke-width: 0px; fill: rgb(0, 0, 255); fill-opacity: 1;"/></g><g class="text"/></g><g class="trace scatter trace3c53c5" style="stroke-miterlimit: 2; opacity: 1;"><g class="fills"><g><path class="js-fill" d="M490.2,160.73Z" style="fill: rgb(0, 0, 255); fill-opacity: 0.5; stroke-width: 0;"/></g></g><g class="errorbars"/><g class="lines"/><g class="points"><path class="point" transform="translate(490.2,160.73)" d="M0,0L-5,10H5Z" style="opacity: 1; stroke-width: 0px; fill: rgb(0, 0, 255); fill-opacity: 1;"/></g><g class="text"/></g><g class="trace scatter trace8a3e72" style="stroke-miterlimit: 2; opacity: 0;"><g class="fills"/><g class="errorbars"/><g class="lines"/><g class="points"><path class="point" transform="translate(269.1,160.73)" d="M-5.77,2.5H5.77L0,-5Z" style="opacity: 1; stroke-width: 0px; fill: rgb(255, 0, 0); fill-opacity: 1;"/></g><g class="text"/></g><g class="trace scatter traceab2d0e" style="stroke-miterlimit: 2;"><g class="fills"><g><path class="js-fill" d="M195.4,160.73L48,160.73L48,80.36L195.4,80.36" style="fill: rgb(147, 112, 219); fill-opacity: 0.5; stroke-width: 0;"/></g></g><g class="errorbars"/><g class="lines"><path class="js-line" d="M48,80.36L195.4,80.36" style="vector-effect: none; fill: none; stroke: rgb(147, 112, 219); stroke-opacity: 1; stroke-width: 1px; opacity: 1;"/></g><g class="points"/><g class="text"/></g><g class="trace scatter tracea8427d" style="stroke-miterlimit: 2; opacity: 0;"><g class="fills"/><g class="errorbars"/><g class="lines"/><g class="points"><path class="point" transform="translate(48,160.73)" d="M-5.77,2.5H5.77L0,-5Z" style="opacity: 1; stroke-width: 0px; fill: rgb(147, 112, 219); fill-opacity: 1;"/></g><g class="text"/></g><g class="trace scatter trace20eb9b" style="stroke-miterlimit: 2; opacity: 0;"><g class="fills"/><g class="errorbars"/><g class="lines"/><g class="points"><path class="point" transform="translate(195.4,160.73)" d="M-5.77,2.5H5.77L0,-5Z" style="opacity: 1; stroke-width: 0px; fill: rgb(147, 112, 219); fill-opacity: 1;"/></g><g class="text"/></g><g class="trace scatter trace6f4b20" style="stroke-miterlimit: 2;"><g class="fills"><g><path class="js-fill" d="M490.2,160.73L342.8,160.73L342.8,80.36L490.2,80.36" style="fill: rgb(147, 112, 219); fill-opacity: 0.5; stroke-width: 0;"/></g></g><g class="errorbars"/><g class="lines"><path class="js-line" d="M342.8,80.36L490.2,80.36" style="vector-effect: none; fill: none; stroke: rgb(147, 112, 219); stroke-opacity: 1; stroke-width: 1px; opacity: 1;"/></g><g class="points"/><g class="text"/></g><g class="trace scatter trace46fd35" style="stroke-miterlimit: 2; opacity: 0;"><g class="fills"/><g class="errorbars"/><g class="lines"/><g class="points"><path class="point" transform="translate(342.8,160.73)" d="M-5.77,2.5H5.77L0,-5Z" style="opacity: 1; stroke-width: 0px; fill: rgb(147, 112, 219); fill-opacity: 1;"/></g><g class="text"/></g><g class="trace scatter trace2a0b2b" style="stroke-miterlimit: 2; opacity: 0;"><g class="fills"/><g class="errorbars"/><g class="lines"/><g class="points"><path class="point" transform="translate(490.2,160.73)" d="M-5.77,2.5H5.77L0,-5Z" style="opacity: 1; stroke-width: 0px; fill: rgb(147, 112, 219); fill-opacity: 1;"/></g><g class="text"/></g><g class="trace scatter tracef9561a" style="stroke-miterlimit: 2;"><g class="fills"><g><path class="js-fill" d="M785,160.73L637.6,160.73L637.6,160.73L785,80.36" style="fill: rgb(147, 112, 219); fill-opacity: 0.5; stroke-width: 0;"/></g></g><g class="errorbars"/><g class="lines"><path class="js-line" d="M637.6,160.73L785,80.36" style="vector-effect: none; fill: none; stroke: rgb(147, 112, 219); stroke-opacity: 1; stroke-width: 1px; opacity: 1;"/></g><g class="points"/><g class="text"/></g><g class="trace scatter trace319bb4" style="stroke-miterlimit: 2; opacity: 0;"><g class="fills"/><g class="errorbars"/><g class="lines"/><g class="points"><path class="point" transform="translate(637.6,160.73)" d="M-5.77,2.5H5.77L0,-5Z" style="opacity: 1; stroke-width: 0px; fill: rgb(147, 112, 219); fill-opacity: 1;"/></g><g class="text"/></g><g class="trace scatter tracedb241c" style="stroke-miterlimit: 2; opacity: 0;"><g class="fills"/><g class="errorbars"/><g class="lines"/><g class="points"><path class="point" transform="translate(785,160.73)" d="M-5.77,2.5H5.77L0,-5Z" style="opacity: 1; stroke-width: 0px; fill: rgb(147, 112, 219); fill-opacity: 1;"/></g><g class="text"/></g></g></g><g class="overplot"/><path class="xlines-above crisp" d="M0,0" style="fill: none;"/><path class="ylines-above crisp" d="M0,0" style="fill: none;"/><g class="overlines-above"/><g class="xaxislayer-above"/><g class="yaxislayer-above"/><g class="overaxes-above"/></g><g class="subplot x2y2"><g class="layer-subplot"><g class="shapelayer"/><g class="imagelayer"/></g><g class="minor-gridlayer"><g class="x2"/><g class="y2"/></g><g class="gridlayer"><g class="x2"><path class="x2grid crisp" transform="translate(262.4,0)" d="M0,383.8474999999999v321.45750000000004" style="stroke: rgb(255, 255, 255); stroke-opacity: 1; stroke-width: 1px;"/><path class="x2grid crisp" transform="translate(409.8,0)" d="M0,383.8474999999999v321.45750000000004" style="stroke: rgb(255, 255, 255); stroke-opacity: 1; stroke-width: 1px;"/><path class="x2grid crisp" transform="translate(557.2,0)" d="M0,383.8474999999999v321.45750000000004" style="stroke: rgb(255, 255, 255); stroke-opacity: 1; stroke-width: 1px;"/><path class="x2grid crisp" transform="translate(704.6,0)" d="M0,383.8474999999999v321.45750000000004" style="stroke: rgb(255, 255, 255); stroke-opacity: 1; stroke-width: 1px;"/><path class="x2grid crisp" transform="translate(852,0)" d="M0,383.8474999999999v321.45750000000004" style="stroke: rgb(255, 255, 255); stroke-opacity: 1; stroke-width: 1px;"/></g><g class="y2"/></g><g class="zerolinelayer"><path class="x2zl zl crisp" transform="translate(115,0)" d="M0,383.8474999999999v321.45750000000004" style="stroke: rgb(255, 255, 255); stroke-opacity: 1; stroke-width: 2px;"/></g><path class="xlines-below"/><path class="ylines-below"/><g class="overlines-below"/><g class="xaxislayer-below"/><g class="yaxislayer-below"/><g class="overaxes-below"/><g class="plot" transform="translate(67,383.8474999999999)" clip-path="url(#clip08ac27x2y2plot)"><g class="scatterlayer mlayer"><g class="trace scatter trace49622f" style="stroke-miterlimit: 2; opacity: 1;"><g class="fills"/><g class="errorbars"/><g class="lines"><path class="js-line" d="M48,160.73L785,160.73" style="vector-effect: none; fill: none; stroke: rgb(128, 0, 128); stroke-opacity: 1; stroke-width: 2px; opacity: 1;"/></g><g class="points"/><g class="text"/></g><g class="trace scatter traceb8b5bc" style="stroke-miterlimit: 2; opacity: 0;"><g class="fills"/><g class="errorbars"/><g class="lines"/><g class="points"><path class="point" transform="translate(48,160.73)" d="M-5.77,2.5H5.77L0,-5Z" style="opacity: 1; stroke-width: 0px; fill: rgb(255, 0, 0); fill-opacity: 1;"/></g><g class="text"/></g><g class="trace scatter trace674690" style="stroke-miterlimit: 2; opacity: 0;"><g class="fills"/><g class="errorbars"/><g class="lines"/><g class="points"><path class="point" transform="translate(490.2,160.73)" d="M-5.77,2.5H5.77L0,-5Z" style="opacity: 1; stroke-width: 0px; fill: rgb(255, 0, 0); fill-opacity: 1;"/></g><g class="text"/></g></g></g><g class="overplot"/><path class="xlines-above crisp" d="M0,0" style="fill: none;"/><path class="ylines-above crisp" d="M0,0" style="fill: none;"/><g class="overlines-above"/><g class="xaxislayer-above"/><g class="yaxislayer-above"/><g class="overaxes-above"/></g><g class="subplot x3y3"><g class="layer-subplot"><g class="shapelayer"/><g class="imagelayer"/></g><g class="minor-gridlayer"><g class="x3"/><g class="y3"/></g><g class="gridlayer"><g class="x3"><path class="x3grid crisp" transform="translate(262.4,0)" d="M0,747.695v321.4575" style="stroke: rgb(255, 255, 255); stroke-opacity: 1; stroke-width: 1px;"/><path class="x3grid crisp" transform="translate(409.8,0)" d="M0,747.695v321.4575" style="stroke: rgb(255, 255, 255); stroke-opacity: 1; stroke-width: 1px;"/><path class="x3grid crisp" transform="translate(557.2,0)" d="M0,747.695v321.4575" style="stroke: rgb(255, 255, 255); stroke-opacity: 1; stroke-width: 1px;"/><path class="x3grid crisp" transform="translate(704.6,0)" d="M0,747.695v321.4575" style="stroke: rgb(255, 255, 255); stroke-opacity: 1; stroke-width: 1px;"/><path class="x3grid crisp" transform="translate(852,0)" d="M0,747.695v321.4575" style="stroke: rgb(255, 255, 255); stroke-opacity: 1; stroke-width: 1px;"/></g><g class="y3"><path class="y3grid crisp" transform="translate(0,1026.295)" d="M67,0h833" style="stroke: rgb(255, 255, 255); stroke-opacity: 1; stroke-width: 1px;"/><path class="y3grid crisp" transform="translate(0,978.075)" d="M67,0h833" style="stroke: rgb(255, 255, 255); stroke-opacity: 1; stroke-width: 1px;"/><path class="y3grid crisp" transform="translate(0,929.855)" d="M67,0h833" style="stroke: rgb(255, 255, 255); stroke-opacity: 1; stroke-width: 1px;"/><path class="y3grid crisp" transform="translate(0,833.4150000000001)" d="M67,0h833" style="stroke: rgb(255, 255, 255); stroke-opacity: 1; stroke-width: 1px;"/><path class="y3grid crisp" transform="translate(0,785.195)" d="M67,0h833" style="stroke: rgb(255, 255, 255); stroke-opacity: 1; stroke-width: 1px;"/></g></g><g class="zerolinelayer"><path class="x3zl zl crisp" transform="translate(115,0)" d="M0,747.695v321.4575" style="stroke: rgb(255, 255, 255); stroke-opacity: 1; stroke-width: 2px;"/><path class="y3zl zl crisp" transform="translate(0,881.635)" d="M67,0h833" style="stroke: rgb(255, 255, 255); stroke-opacity: 1; stroke-width: 2px;"/></g><path class="xlines-below"/><path class="ylines-below"/><g class="overlines-below"/><g class="xaxislayer-below"/><g class="yaxislayer-below"/><g class="overaxes-below"/><g class="plot" transform="translate(67,747.695)" clip-path="url(#clip08ac27x3y3plot)"><g class="scatterlayer mlayer"><g class="trace scatter tracedff48a" style="stroke-miterlimit: 2;"><g class="fills"><g><path class="js-fill" d="M785,133.94L48,133.94L48,133.94L48,16.07L51.7,18.5L196.14,112.51L199.84,112.51L269.1,112.51L269.1,208.95L342.8,208.95L342.8,208.95L344.28,209.92L490.2,305.38L490.2,85.72L655.38,86.42L659.08,86.75L677.6,89.27L681.3,89.96L699.82,94.31L703.52,95.37L722.04,101.55L725.74,102.96L744.26,110.97L747.96,112.75L766.48,122.59L770.19,124.74L785,133.94L785,133.94" style="fill: rgb(0, 255, 255); fill-opacity: 0.5; stroke-width: 0;"/></g></g><g class="errorbars"/><g class="lines"><path class="js-line" d="M48,133.94L48,16.07L51.7,18.5L196.14,112.51L199.84,112.51L269.1,112.51L269.1,208.95L342.8,208.95L342.8,208.95L344.28,209.92L490.2,305.38L490.2,85.72L655.38,86.42L659.08,86.75L677.6,89.27L681.3,89.96L699.82,94.31L703.52,95.37L722.04,101.55L725.74,102.96L744.26,110.97L747.96,112.75L766.48,122.59L770.19,124.74L785,133.94L785,133.94" style="vector-effect: none; fill: none; stroke: rgb(0, 255, 255); stroke-opacity: 1; stroke-width: 1px; opacity: 1;"/></g><g class="points"/><g class="text"/></g></g></g><g class="overplot"/><path class="xlines-above crisp" d="M0,0" style="fill: none;"/><path class="ylines-above crisp" d="M0,0" style="fill: none;"/><g class="overlines-above"/><g class="xaxislayer-above"/><g class="yaxislayer-above"><g class="y3tick"><text text-anchor="end" x="66" y="5.25" transform="translate(0,1026.295)" style="font-family: 'New Computer Modern'; font-size: 15px; fill: rgb(42, 63, 95); fill-opacity: 1; white-space: pre; opacity: 1;">−1500</text></g><g class="y3tick"><text text-anchor="end" x="66" y="5.25" style="font-family: 'New Computer Modern'; font-size: 15px; fill: rgb(42, 63, 95); fill-opacity: 1; white-space: pre; opacity: 1;" transform="translate(0,978.075)">−1000</text></g><g class="y3tick"><text text-anchor="end" x="66" y="5.25" style="font-family: 'New Computer Modern'; font-size: 15px; fill: rgb(42, 63, 95); fill-opacity: 1; white-space: pre; opacity: 1;" transform="translate(0,929.855)">−500</text></g><g class="y3tick"><text text-anchor="end" x="66" y="5.25" style="font-family: 'New Computer Modern'; font-size: 15px; fill: rgb(42, 63, 95); fill-opacity: 1; white-space: pre; opacity: 1;" transform="translate(0,881.635)">0</text></g><g class="y3tick"><text text-anchor="end" x="66" y="5.25" style="font-family: 'New Computer Modern'; font-size: 15px; fill: rgb(42, 63, 95); fill-opacity: 1; white-space: pre; opacity: 1;" transform="translate(0,833.4150000000001)">500</text></g><g class="y3tick"><text text-anchor="end" x="66" y="5.25" style="font-family: 'New Computer Modern'; font-size: 15px; fill: rgb(42, 63, 95); fill-opacity: 1; white-space: pre; opacity: 1;" transform="translate(0,785.195)">1000</text></g></g><g class="overaxes-above"/></g><g class="subplot x4y4"><g class="layer-subplot"><g class="shapelayer"/><g class="imagelayer"/></g><g class="minor-gridlayer"><g class="x4"/><g class="y4"/></g><g class="gridlayer"><g class="x4"><path class="x4grid crisp" transform="translate(262.4,0)" d="M0,1111.5425v321.45750000000004" style="stroke: rgb(255, 255, 255); stroke-opacity: 1; stroke-width: 1px;"/><path class="x4grid crisp" transform="translate(409.8,0)" d="M0,1111.5425v321.45750000000004" style="stroke: rgb(255, 255, 255); stroke-opacity: 1; stroke-width: 1px;"/><path class="x4grid crisp" transform="translate(557.2,0)" d="M0,1111.5425v321.45750000000004" style="stroke: rgb(255, 255, 255); stroke-opacity: 1; stroke-width: 1px;"/><path class="x4grid crisp" transform="translate(704.6,0)" d="M0,1111.5425v321.45750000000004" style="stroke: rgb(255, 255, 255); stroke-opacity: 1; stroke-width: 1px;"/><path class="x4grid crisp" transform="translate(852,0)" d="M0,1111.5425v321.45750000000004" style="stroke: rgb(255, 255, 255); stroke-opacity: 1; stroke-width: 1px;"/></g><g class="y4"><path class="y4grid crisp" transform="translate(0,1359.0625)" d="M67,0h833" style="stroke: rgb(255, 255, 255); stroke-opacity: 1; stroke-width: 1px;"/><path class="y4grid crisp" transform="translate(0,1185.4825)" d="M67,0h833" style="stroke: rgb(255, 255, 255); stroke-opacity: 1; stroke-width: 1px;"/></g></g><g class="zerolinelayer"><path class="x4zl zl crisp" transform="translate(115,0)" d="M0,1111.5425v321.45750000000004" style="stroke: rgb(255, 255, 255); stroke-opacity: 1; stroke-width: 2px;"/><path class="y4zl zl crisp" transform="translate(0,1272.2725)" d="M67,0h833" style="stroke: rgb(255, 255, 255); stroke-opacity: 1; stroke-width: 2px;"/></g><path class="xlines-below"/><path class="ylines-below"/><g class="overlines-below"/><g class="xaxislayer-below"/><g class="yaxislayer-below"/><g class="overaxes-below"/><g class="plot" transform="translate(67,1111.5425)" clip-path="url(#clip08ac27x4y4plot)"><g class="scatterlayer mlayer"><g class="trace scatter traceeeb3e4" style="stroke-miterlimit: 2;"><g class="fills"><g><path class="js-fill" d="M785,160.73L48,160.73L48,160.73L66.52,135.45L70.22,130.72L88.74,108.72L92.44,104.65L110.96,85.94L114.66,82.53L129.48,69.97L133.18,67.11L147.99,56.74L151.7,54.43L166.51,46.25L170.22,44.48L185.03,38.5L188.73,37.28L210.95,31.29L214.66,30.32L269.1,16.07L269.1,16.07L270.21,17.09L355.39,95.75L359.1,99.57L373.91,115.94L377.61,120.31L396.13,143.79L399.83,148.81L418.35,175.58L422.06,181.27L440.57,211.32L444.28,217.66L462.79,251.01L466.5,258L488.72,302.29L490.2,305.38L685.01,191.64L688.71,189.7L710.93,178.97L714.63,177.36L733.15,170.21L736.85,168.98L755.37,164L759.08,163.26L773.89,161.21L777.59,160.94L785,160.73L785,160.73" style="fill: rgb(144, 238, 144); fill-opacity: 0.5; stroke-width: 0;"/></g></g><g class="errorbars"/><g class="lines"><path class="js-line" d="M48,160.73L66.52,135.45L70.22,130.72L88.74,108.72L92.44,104.65L110.96,85.94L114.66,82.53L129.48,69.97L133.18,67.11L147.99,56.74L151.7,54.43L166.51,46.25L170.22,44.48L185.03,38.5L188.73,37.28L210.95,31.29L214.66,30.32L269.1,16.07L269.1,16.07L270.21,17.09L355.39,95.75L359.1,99.57L373.91,115.94L377.61,120.31L396.13,143.79L399.83,148.81L418.35,175.58L422.06,181.27L440.57,211.32L444.28,217.66L462.79,251.01L466.5,258L488.72,302.29L490.2,305.38L685.01,191.64L688.71,189.7L710.93,178.97L714.63,177.36L733.15,170.21L736.85,168.98L755.37,164L759.08,163.26L773.89,161.21L777.59,160.94L785,160.73L785,160.73" style="vector-effect: none; fill: none; stroke: rgb(144, 238, 144); stroke-opacity: 1; stroke-width: 1px; opacity: 1;"/></g><g class="points"/><g class="text"/></g></g></g><g class="overplot"/><path class="xlines-above crisp" d="M0,0" style="fill: none;"/><path class="ylines-above crisp" d="M0,0" style="fill: none;"/><g class="overlines-above"/><g class="xaxislayer-above"><g class="x4tick"><text text-anchor="middle" x="0" y="1449" transform="translate(115,0)" style="font-family: 'New Computer Modern'; font-size: 15px; fill: rgb(42, 63, 95); fill-opacity: 1; white-space: pre; opacity: 1;">0</text></g><g class="x4tick"><text text-anchor="middle" x="0" y="1449" style="font-family: 'New Computer Modern'; font-size: 15px; fill: rgb(42, 63, 95); fill-opacity: 1; white-space: pre; opacity: 1;" transform="translate(262.4,0)">1</text></g><g class="x4tick"><text text-anchor="middle" x="0" y="1449" style="font-family: 'New Computer Modern'; font-size: 15px; fill: rgb(42, 63, 95); fill-opacity: 1; white-space: pre; opacity: 1;" transform="translate(409.8,0)">2</text></g><g class="x4tick"><text text-anchor="middle" x="0" y="1449" style="font-family: 'New Computer Modern'; font-size: 15px; fill: rgb(42, 63, 95); fill-opacity: 1; white-space: pre; opacity: 1;" transform="translate(557.2,0)">3</text></g><g class="x4tick"><text text-anchor="middle" x="0" y="1449" style="font-family: 'New Computer Modern'; font-size: 15px; fill: rgb(42, 63, 95); fill-opacity: 1; white-space: pre; opacity: 1;" transform="translate(704.6,0)">4</text></g><g class="x4tick"><text text-anchor="middle" x="0" y="1449" style="font-family: 'New Computer Modern'; font-size: 15px; fill: rgb(42, 63, 95); fill-opacity: 1; white-space: pre; opacity: 1;" transform="translate(852,0)">5</text></g></g><g class="yaxislayer-above"><g class="y4tick"><text text-anchor="end" x="66" y="5.25" transform="translate(0,1359.0625)" style="font-family: 'New Computer Modern'; font-size: 15px; fill: rgb(42, 63, 95); fill-opacity: 1; white-space: pre; opacity: 1;">−500</text></g><g class="y4tick"><text text-anchor="end" x="66" y="5.25" style="font-family: 'New Computer Modern'; font-size: 15px; fill: rgb(42, 63, 95); fill-opacity: 1; white-space: pre; opacity: 1;" transform="translate(0,1272.2725)">0</text></g><g class="y4tick"><text text-anchor="end" x="66" y="5.25" style="font-family: 'New Computer Modern'; font-size: 15px; fill: rgb(42, 63, 95); fill-opacity: 1; white-space: pre; opacity: 1;" transform="translate(0,1185.4825)">500</text></g></g><g class="overaxes-above"/></g></g><g class="polarlayer"/><g class="smithlayer"/><g class="ternarylayer"/><g class="geolayer"/><g class="funnelarealayer"/><g class="pielayer"/><g class="iciclelayer"/><g class="treemaplayer"/><g class="sunburstlayer"/><g class="glimages"/><defs id="topdefs-08ac27"><g class="clips"/></defs><g class="layer-above"><g class="imagelayer"/><g class="shapelayer"><g class="shape-group" data-index="0" clip-path="url(#clip08ac27xy)"><path data-index="0" fill-rule="evenodd" d="M558.2,193.73A1,1 0 1,1 557.2,192.73A1,1 0 0,1 558.2,193.73Z" style="opacity: 1; stroke: rgb(0, 0, 255); stroke-opacity: 1; fill: rgb(0, 0, 255); fill-opacity: 1; stroke-width: 2px;"/></g><g class="shape-group" data-index="1" clip-path="url(#clip08ac27xy)"><path data-index="1" fill-rule="evenodd" d="M554.2,193.73A1,1 0 1,1 553.2,192.73A1,1 0 0,1 554.2,193.73Z" style="opacity: 1; stroke: rgb(0, 0, 255); stroke-opacity: 1; fill: rgb(0, 0, 255); fill-opacity: 1; stroke-width: 2px;"/></g><g class="shape-group" data-index="2" clip-path="url(#clip08ac27xy)"><path data-index="2" fill-rule="evenodd" d="M562.2,193.73A1,1 0 1,1 561.2,192.73A1,1 0 0,1 562.2,193.73Z" style="opacity: 1; stroke: rgb(0, 0, 255); stroke-opacity: 1; fill: rgb(0, 0, 255); fill-opacity: 1; stroke-width: 2px;"/></g><g class="shape-group" data-index="3" clip-path="url(#clip08ac27xy)"><path data-index="3" fill-rule="evenodd" d="M336.1,180.73L333.1,177.73" style="opacity: 1; stroke: rgb(255, 0, 0); stroke-opacity: 1; fill: rgb(0, 0, 0); fill-opacity: 0; stroke-width: 2px;"/></g><g class="shape-group" data-index="4" clip-path="url(#clip08ac27xy)"><path data-index="4" fill-rule="evenodd" d="M336.1,180.73L339.1,177.73" style="opacity: 1; stroke: rgb(255, 0, 0); stroke-opacity: 1; fill: rgb(0, 0, 0); fill-opacity: 0; stroke-width: 2px;"/></g><g class="shape-group" data-index="5" clip-path="url(#clip08ac27xy)"><path data-index="5" fill-rule="evenodd" d="M336.1,180.73L336.1,140.73" style="opacity: 1; stroke: rgb(255, 0, 0); stroke-opacity: 1; fill: rgb(0, 0, 0); fill-opacity: 0; stroke-width: 2px;"/></g><g class="shape-group" data-index="6" clip-path="url(#clip08ac27xy)"><path data-index="6" fill-rule="evenodd" d="M115,180.73L112,177.73" style="opacity: 1; stroke: rgb(147, 112, 219); stroke-opacity: 1; fill: rgb(0, 0, 0); fill-opacity: 0; stroke-width: 2px;"/></g><g class="shape-group" data-index="7" clip-path="url(#clip08ac27xy)"><path data-index="7" fill-rule="evenodd" d="M115,180.73L118,177.73" style="opacity: 1; stroke: rgb(147, 112, 219); stroke-opacity: 1; fill: rgb(0, 0, 0); fill-opacity: 0; stroke-width: 2px;"/></g><g class="shape-group" data-index="8" clip-path="url(#clip08ac27xy)"><path data-index="8" fill-rule="evenodd" d="M115,180.73L115,150.73" style="opacity: 1; stroke: rgb(147, 112, 219); stroke-opacity: 1; fill: rgb(0, 0, 0); fill-opacity: 0; stroke-width: 2px;"/></g><g class="shape-group" data-index="9" clip-path="url(#clip08ac27xy)"><path data-index="9" fill-rule="evenodd" d="M262.4,180.73L259.4,177.73" style="opacity: 1; stroke: rgb(147, 112, 219); stroke-opacity: 1; fill: rgb(0, 0, 0); fill-opacity: 0; stroke-width: 2px;"/></g><g class="shape-group" data-index="10" clip-path="url(#clip08ac27xy)"><path data-index="10" fill-rule="evenodd" d="M262.4,180.73L265.4,177.73" style="opacity: 1; stroke: rgb(147, 112, 219); stroke-opacity: 1; fill: rgb(0, 0, 0); fill-opacity: 0; stroke-width: 2px;"/></g><g class="shape-group" data-index="11" clip-path="url(#clip08ac27xy)"><path data-index="11" fill-rule="evenodd" d="M262.4,180.73L262.4,150.73" style="opacity: 1; stroke: rgb(147, 112, 219); stroke-opacity: 1; fill: rgb(0, 0, 0); fill-opacity: 0; stroke-width: 2px;"/></g><g class="shape-group" data-index="12" clip-path="url(#clip08ac27xy)"><path data-index="12" fill-rule="evenodd" d="M409.8,180.73L406.8,177.73" style="opacity: 1; stroke: rgb(147, 112, 219); stroke-opacity: 1; fill: rgb(0, 0, 0); fill-opacity: 0; stroke-width: 2px;"/></g><g class="shape-group" data-index="13" clip-path="url(#clip08ac27xy)"><path data-index="13" fill-rule="evenodd" d="M409.8,180.73L412.8,177.73" style="opacity: 1; stroke: rgb(147, 112, 219); stroke-opacity: 1; fill: rgb(0, 0, 0); fill-opacity: 0; stroke-width: 2px;"/></g><g class="shape-group" data-index="14" clip-path="url(#clip08ac27xy)"><path data-index="14" fill-rule="evenodd" d="M409.8,180.73L409.8,150.73" style="opacity: 1; stroke: rgb(147, 112, 219); stroke-opacity: 1; fill: rgb(0, 0, 0); fill-opacity: 0; stroke-width: 2px;"/></g><g class="shape-group" data-index="15" clip-path="url(#clip08ac27xy)"><path data-index="15" fill-rule="evenodd" d="M557.2,180.73L554.2,177.73" style="opacity: 1; stroke: rgb(147, 112, 219); stroke-opacity: 1; fill: rgb(0, 0, 0); fill-opacity: 0; stroke-width: 2px;"/></g><g class="shape-group" data-index="16" clip-path="url(#clip08ac27xy)"><path data-index="16" fill-rule="evenodd" d="M557.2,180.73L560.2,177.73" style="opacity: 1; stroke: rgb(147, 112, 219); stroke-opacity: 1; fill: rgb(0, 0, 0); fill-opacity: 0; stroke-width: 2px;"/></g><g class="shape-group" data-index="17" clip-path="url(#clip08ac27xy)"><path data-index="17" fill-rule="evenodd" d="M557.2,180.73L557.2,150.73" style="opacity: 1; stroke: rgb(147, 112, 219); stroke-opacity: 1; fill: rgb(0, 0, 0); fill-opacity: 0; stroke-width: 2px;"/></g><g class="shape-group" data-index="18" clip-path="url(#clip08ac27xy)"><path data-index="18" fill-rule="evenodd" d="M852,180.73L849,177.73" style="opacity: 1; stroke: rgb(147, 112, 219); stroke-opacity: 1; fill: rgb(0, 0, 0); fill-opacity: 0; stroke-width: 2px;"/></g><g class="shape-group" data-index="19" clip-path="url(#clip08ac27xy)"><path data-index="19" fill-rule="evenodd" d="M852,180.73L855,177.73" style="opacity: 1; stroke: rgb(147, 112, 219); stroke-opacity: 1; fill: rgb(0, 0, 0); fill-opacity: 0; stroke-width: 2px;"/></g><g class="shape-group" data-index="20" clip-path="url(#clip08ac27xy)"><path data-index="20" fill-rule="evenodd" d="M852,180.73L852,150.73" style="opacity: 1; stroke: rgb(147, 112, 219); stroke-opacity: 1; fill: rgb(0, 0, 0); fill-opacity: 0; stroke-width: 2px;"/></g><g class="shape-group" data-index="21" clip-path="url(#clip08ac27x2y2)"><path data-index="21" fill-rule="evenodd" d="M115,544.5774999999999L118,547.5774999999999" style="opacity: 1; stroke: rgb(255, 0, 0); stroke-opacity: 1; fill: rgb(0, 0, 0); fill-opacity: 0; stroke-width: 2px;"/></g><g class="shape-group" data-index="22" clip-path="url(#clip08ac27x2y2)"><path data-index="22" fill-rule="evenodd" d="M115,544.5774999999999L112,547.5774999999999" style="opacity: 1; stroke: rgb(255, 0, 0); stroke-opacity: 1; fill: rgb(0, 0, 0); fill-opacity: 0; stroke-width: 2px;"/></g><g class="shape-group" data-index="23" clip-path="url(#clip08ac27x2y2)"><path data-index="23" fill-rule="evenodd" d="M115,544.5774999999999L115,584.5774999999999" style="opacity: 1; stroke: rgb(255, 0, 0); stroke-opacity: 1; fill: rgb(0, 0, 0); fill-opacity: 0; stroke-width: 2px;"/></g><g class="shape-group" data-index="24" clip-path="url(#clip08ac27x2y2)"><path data-index="24" fill-rule="evenodd" d="M557.2,544.5774999999999L560.2,547.5774999999999" style="opacity: 1; stroke: rgb(255, 0, 0); stroke-opacity: 1; fill: rgb(0, 0, 0); fill-opacity: 0; stroke-width: 2px;"/></g><g class="shape-group" data-index="25" clip-path="url(#clip08ac27x2y2)"><path data-index="25" fill-rule="evenodd" d="M557.2,544.5774999999999L554.2,547.5774999999999" style="opacity: 1; stroke: rgb(255, 0, 0); stroke-opacity: 1; fill: rgb(0, 0, 0); fill-opacity: 0; stroke-width: 2px;"/></g><g class="shape-group" data-index="26" clip-path="url(#clip08ac27x2y2)"><path data-index="26" fill-rule="evenodd" d="M557.2,544.5774999999999L557.2,584.5774999999999" style="opacity: 1; stroke: rgb(255, 0, 0); stroke-opacity: 1; fill: rgb(0, 0, 0); fill-opacity: 0; stroke-width: 2px;"/></g></g></g><g class="infolayer"><g class="g-gtitle"/><g class="g-xtitle"/><g class="g-x2title"/><g class="g-x3title"/><g class="g-x4title" transform="translate(0,-3.099999999999909)"><text class="x4title" x="483.5" y="1479.1" text-anchor="middle" style="font-family: 'New Computer Modern'; font-size: 18px; fill: rgb(42, 63, 95); opacity: 1; font-weight: normal; white-space: pre;">Beam length [m]</text></g><g class="g-y3title" transform="translate(15.5703125,0)"><text class="y3title" transform="rotate(-90,0.4312500000000057,908.42375)" x="0.4312500000000057" y="908.42375" text-anchor="middle" style="font-family: 'New Computer Modern'; font-size: 18px; fill: rgb(42, 63, 95); opacity: 1; font-weight: normal; white-space: pre;">Shear force [N]</text></g><g class="g-y4title" transform="translate(8.07421875,0)"><text class="y4title" transform="rotate(-90,7.931249999999999,1272.27125)" x="7.931249999999999" y="1272.27125" text-anchor="middle" style="font-family: 'New Computer Modern'; font-size: 18px; fill: rgb(42, 63, 95); opacity: 1; font-weight: normal; white-space: pre;">Bending moment [N⋅m]</text></g><g class="annotation" data-index="0" style="opacity: 1;"><g class="annotation-text-g" transform="rotate(0,483.5,9.999999999999996)"><g class="cursor-pointer" transform="translate(431,0)"><rect class="bg" x="0.5" y="0.5" width="105" height="19" style="stroke-width: 1px; stroke: rgb(0, 0, 0); stroke-opacity: 0; fill: rgb(0, 0, 0); fill-opacity: 0;"/><text class="annotation-text" text-anchor="middle" x="52.609375" y="15" style="font-family: 'New Computer Modern'; font-size: 15px; fill: rgb(42, 63, 95); fill-opacity: 1; white-space: pre;">Beam Schematic</text></g></g></g><g class="annotation" data-index="1" style="opacity: 1;"><g class="annotation-text-g" transform="rotate(0,483.5,373.8474999999999)"><g class="cursor-pointer" transform="translate(433,364)"><rect class="bg" x="0.5" y="0.5" width="100" height="19" style="stroke-width: 1px; stroke: rgb(0, 0, 0); stroke-opacity: 0; fill: rgb(0, 0, 0); fill-opacity: 0;"/><text class="annotation-text" text-anchor="middle" x="50.53125" y="15" style="font-family: 'New Computer Modern'; font-size: 15px; fill: rgb(42, 63, 95); fill-opacity: 1; white-space: pre;">Reaction Forces</text></g></g></g><g class="annotation" data-index="2" style="opacity: 1;"><g class="annotation-text-g" transform="rotate(0,483.5,737.695)"><g class="cursor-pointer" transform="translate(417,728)"><rect class="bg" x="0.5" y="0.5" width="132" height="19" style="stroke-width: 1px; stroke: rgb(0, 0, 0); stroke-opacity: 0; fill: rgb(0, 0, 0); fill-opacity: 0;"/><text class="annotation-text" text-anchor="middle" x="66.15625" y="15" style="font-family: 'New Computer Modern'; font-size: 15px; fill: rgb(42, 63, 95); fill-opacity: 1; white-space: pre;">Shear Force Diagram</text></g></g></g><g class="annotation" data-index="3" style="opacity: 1;"><g class="annotation-text-g" transform="rotate(0,483.5,1101.5425)"><g class="cursor-pointer" transform="translate(401,1092)"><rect class="bg" x="0.5" y="0.5" width="165" height="19" style="stroke-width: 1px; stroke: rgb(0, 0, 0); stroke-opacity: 0; fill: rgb(0, 0, 0); fill-opacity: 0;"/><text class="annotation-text" text-anchor="middle" x="82.828125" y="15" style="font-family: 'New Computer Modern'; font-size: 15px; fill: rgb(42, 63, 95); fill-opacity: 1; white-space: pre;">Bending Moment Diagram</text></g></g></g><g class="annotation" data-index="4" style="opacity: 1;"><g class="annotation-text-g" transform="rotate(0,336.1,128.73)"><g class="cursor-pointer" transform="translate(296,119)"><rect class="bg" x="0.5" y="0.5" width="79" height="19" style="stroke-width: 1px; stroke: rgb(0, 0, 0); stroke-opacity: 0; fill: rgb(0, 0, 0); fill-opacity: 0;"/><text class="annotation-text" text-anchor="middle" x="39.921875" y="15" style="font-family: 'New Computer Modern'; font-size: 15px; fill: rgb(255, 0, 0); fill-opacity: 1; white-space: pre;">-1000.000 N</text></g></g></g><g class="annotation" data-index="5" style="opacity: 1;"><g class="annotation-text-g" transform="rotate(0,115,141.73)"><g class="cursor-pointer" transform="translate(67,132)"><rect class="bg" x="0.5" y="0.5" width="95" height="19" style="stroke-width: 1px; stroke: rgb(0, 0, 0); stroke-opacity: 0; fill: rgb(0, 0, 0); fill-opacity: 0;"/><text class="annotation-text" text-anchor="middle" x="47.84375" y="15" style="font-family: 'New Computer Modern'; font-size: 15px; fill: rgb(147, 112, 219); fill-opacity: 1; white-space: pre;">-1000.000 N/m</text></g></g></g><g class="annotation" data-index="6" style="opacity: 1;"><g class="annotation-text-g" transform="rotate(0,262.4,141.73)"><g class="cursor-pointer" transform="translate(214,132)"><rect class="bg" x="0.5" y="0.5" width="95" height="19" style="stroke-width: 1px; stroke: rgb(0, 0, 0); stroke-opacity: 0; fill: rgb(0, 0, 0); fill-opacity: 0;"/><text class="annotation-text" text-anchor="middle" x="47.84375" y="15" style="font-family: 'New Computer Modern'; font-size: 15px; fill: rgb(147, 112, 219); fill-opacity: 1; white-space: pre;">-1000.000 N/m</text></g></g></g><g class="annotation" data-index="7" style="opacity: 1;"><g class="annotation-text-g" transform="rotate(0,409.8,141.73)"><g class="cursor-pointer" transform="translate(362,132)"><rect class="bg" x="0.5" y="0.5" width="95" height="19" style="stroke-width: 1px; stroke: rgb(0, 0, 0); stroke-opacity: 0; fill: rgb(0, 0, 0); fill-opacity: 0;"/><text class="annotation-text" text-anchor="middle" x="47.84375" y="15" style="font-family: 'New Computer Modern'; font-size: 15px; fill: rgb(147, 112, 219); fill-opacity: 1; white-space: pre;">-1000.000 N/m</text></g></g></g><g class="annotation" data-index="8" style="opacity: 1;"><g class="annotation-text-g" transform="rotate(0,557.2,141.73)"><g class="cursor-pointer" transform="translate(509,132)"><rect class="bg" x="0.5" y="0.5" width="95" height="19" style="stroke-width: 1px; stroke: rgb(0, 0, 0); stroke-opacity: 0; fill: rgb(0, 0, 0); fill-opacity: 0;"/><text class="annotation-text" text-anchor="middle" x="47.84375" y="15" style="font-family: 'New Computer Modern'; font-size: 15px; fill: rgb(147, 112, 219); fill-opacity: 1; white-space: pre;">-1000.000 N/m</text></g></g></g><g class="annotation" data-index="9" style="opacity: 1;"><g class="annotation-text-g" transform="rotate(0,852,141.73)"><g class="cursor-pointer" transform="translate(804,132)"><rect class="bg" x="0.5" y="0.5" width="95" height="19" style="stroke-width: 1px; stroke: rgb(0, 0, 0); stroke-opacity: 0; fill: rgb(0, 0, 0); fill-opacity: 0;"/><text class="annotation-text" text-anchor="middle" x="47.84375" y="15" style="font-family: 'New Computer Modern'; font-size: 15px; fill: rgb(147, 112, 219); fill-opacity: 1; white-space: pre;">-1000.000 N/m</text></g></g></g><g class="annotation" data-index="10" style="opacity: 1;"><g class="annotation-text-g" transform="rotate(0,115,596.5774999999999)"><g class="cursor-pointer" transform="translate(78,587)"><rect class="bg" x="0.5" y="0.5" width="74" height="19" style="stroke-width: 1px; stroke: rgb(0, 0, 0); stroke-opacity: 0; fill: rgb(0, 0, 0); fill-opacity: 0;"/><text class="annotation-text" text-anchor="middle" x="37.421875" y="15" style="font-family: 'New Computer Modern'; font-size: 15px; fill: rgb(255, 0, 0); fill-opacity: 1; white-space: pre;">1222.222 N</text></g></g></g><g class="annotation" data-index="11" style="opacity: 1;"><g class="annotation-text-g" transform="rotate(0,557.2,596.5774999999999)"><g class="cursor-pointer" transform="translate(520,587)"><rect class="bg" x="0.5" y="0.5" width="74" height="19" style="stroke-width: 1px; stroke: rgb(0, 0, 0); stroke-opacity: 0; fill: rgb(0, 0, 0); fill-opacity: 0;"/><text class="annotation-text" text-anchor="middle" x="37.421875" y="15" style="font-family: 'New Computer Modern'; font-size: 15px; fill: rgb(255, 0, 0); fill-opacity: 1; white-space: pre;">2277.778 N</text></g></g></g></g></svg>