<svg class="main-svg" xmlns="http://www.w3.org/2000/svg" xmlns:xlink="http://www.w3.org/1999/xlink" width="900" height="500" style="" viewBox="0 0 900 500"><rect x="0" y="0" width="900" height="500" style="fill: rgb(0, 0, 0); fill-opacity: 0;"/><defs id="defs-51bf64"><g class="clips"><clipPath id="clip51bf64xyplot" class="plotclip"><rect width="675" height="431"/></clipPath><clipPath class="axesclip" id="clip51bf64x"><rect x="58" y="0" width="675" height="500"/></clipPath><clipPath class="axesclip" id="clip51bf64y"><rect x="0" y="20" width="900" height="431"/></clipPath><clipPath class="axesclip" id="clip51bf64xy"><rect x="58" y="20" width="675" height="431"/></clipPath></g><g class="gradients"/><g class="patterns"/></defs><g class="bglayer"><rect class="bg" x="58" y="20" width="675" height="431" style="fill: rgb(229, 236, 246); fill-opacity: 1; stroke-width: 0;"/></g><g class="layer-below"><g class="imagelayer"/><g class="shapelayer"/></g><g class="cartesianlayer"><g class="subplot xy"><g class="layer-subplot"><g class="shapelayer"/><g class="imagelayer"/></g><g class="minor-gridlayer"><g class="x"/><g class="y"/></g><g class="gridlayer"><g class="x"><path class="xgrid crisp" transform="translate(84.95,0)" d="M0,20v431" style="stroke: rgb(255, 255, 255); stroke-opacity: 1; stroke-width: 1px;"/><path class="xgrid crisp" transform="translate(188.47,0)" d="M0,20v431" style="stroke: rgb(255, 255, 255); stroke-opacity: 1; stroke-width: 1px;"/><path class="xgrid crisp" transform="translate(291.98,0)" d="M0,20v431" style="stroke: rgb(255, 255, 255); stroke-opacity: 1; stroke-width: 1px;"/><path class="xgrid crisp" transform="translate(499.02,0)" d="M0,20v431" style="stroke: rgb(255, 255, 255); stroke-opacity: 1; stroke-width: 1px;"/><path class="xgrid crisp" transform="translate(602.53,0)" d="M0,20v431" style="stroke: rgb(255, 255, 255); stroke-opacity: 1; stroke-width: 1px;"/><path class="xgrid crisp" transform="translate(706.05,0)" d="M0,20v431" style="stroke: rgb(255, 255, 255); stroke-opacity: 1; stroke-width: 1px;"/></g><g class="y"><path class="ygrid crisp" transform="translate(0,418.31)" d="M58,0h675" style="stroke: rgb(255, 255, 255); stroke-opacity: 1; stroke-width: 1px;"/><path class="ygrid crisp" transform="translate(0,372.61)" d="M58,0h675" style="stroke: rgb(255, 255, 255); stroke-opacity: 1; stroke-width: 1px;"/><path class="ygrid crisp" transform="translate(0,326.91)" d="M58,0h675" style="stroke: rgb(255, 255, 255); stroke-opacity: 1; stroke-width: 1px;"/><path class="ygrid crisp" transform="translate(0,281.2)" d="M58,0h675" style="stroke: rgb(255, 255, 255); stroke-opacity: 1; stroke-width: 1px;"/><path class="ygrid crisp" transform="translate(0,189.8)" d="M58,0h675" style="stroke: rgb(255, 255, 255); stroke-opacity: 1; stroke-width: 1px;"/><path class="ygrid crisp" transform="translate(0,144.09)" d="M58,0h675" style="stroke: rgb(255, 255, 255); stroke-opacity: 1; stroke-width: 1px;"/><path class="ygrid crisp" transform="translate(0,98.39)" d="M58,0h675" style="stroke: rgb(255, 255, 255); stroke-opacity: 1; stroke-width: 1px;"/><path class="ygrid crisp" transform="translate(0,52.69)" d="M58,0h675" style="stroke: rgb(255, 255, 255); stroke-opacity: 1; stroke-width: 1px;"/></g></g><g class="zerolinelayer"><path class="xzl zl crisp" transform="translate(395.5,0)" d="M0,20v431" style="stroke: rgb(255, 255, 255); stroke-opacity: 1; stroke-width: 2px;"/><path class="yzl zl crisp" transform="translate(0,235.5)" d="M58,0h675" style="stroke: rgb(255, 255, 255); stroke-opacity: 1; stroke-width: 2px;"/></g><g class="layer-between"><g class="shapelayer"/><g class="imagelayer"/></g><path class="xlines-below"/><path class="ylines-below"/><g class="overlines-below"/><g class="xaxislayer-below"/><g class="yaxislayer-below"/><g class="overaxes-below"/><g class="overplot"><g class="xy" transform="translate(58,20)" clip-path="url(#clip51bf64xyplot)"><g class="scatterlayer mlayer"><g class="trace scatter trace1ebe37" style="stroke-miterlimit: 2; opacity: 1;"><g class="fills"/><g class="errorbars"/><g class="lines"><path class="js-line" d="M26.95,179.43L31.92,171.42L32.55,170.64L36.28,167.09L36.9,166.69L40.63,165.48L41.25,165.48L44.36,166.31L44.98,166.64L48.71,169.73L49.33,170.42L53.68,176.5L54.31,177.53L60.52,189.53L61.15,190.86L77.31,224.95L77.93,225.99L82.91,232.81L83.53,233.46L87.26,236.25L87.88,236.53L90.99,237.07L91.61,237L94.72,235.8L95.34,235.38L99.07,231.7L99.69,230.89L104.04,223.8L104.67,222.6L110.26,209.95L110.88,208.37L121.45,179.14L122.07,177.4L131.4,154.06L132.02,152.79L137,144.4L137.62,143.6L141.35,140.14L141.97,139.8L145.08,139.11L145.7,139.19L148.81,140.66L149.43,141.17L152.54,144.83L153.16,145.78L157.51,154.38L158.13,155.88L163.11,170.06L163.73,172.09L170.57,197.41L171.19,199.93L195.44,299.52L196.06,301.57L202.28,319.47L202.9,320.98L207.87,331.18L208.49,332.22L213.47,338.73L214.09,339.33L218.44,342.33L219.06,342.6L223.41,343.59L224.04,343.62L229.63,343.02L230.25,342.89L242.07,340.92L242.69,340.95L247.66,342.06L248.28,342.32L252.64,345L253.26,345.51L258.23,350.71L258.85,351.5L265.07,360.83L265.69,361.88L284.34,394.24L284.96,395.02L289.32,399.21L289.94,399.6L293.05,400.68L293.67,400.7L296.78,399.78L297.4,399.38L300.51,396.21L301.13,395.33L304.86,388.36L305.48,386.9L309.83,374.31L310.46,372.18L315.43,352.09L316.05,349.22L322.27,316.52L322.89,312.89L331.59,256.83L332.22,252.55L352.73,114.48L353.35,110.91L360.81,73.4L361.44,70.77L367.03,50.78L367.65,48.98L372.01,38.78L372.63,37.66L376.36,32.66L376.98,32.1L380.09,30.46L380.71,30.34L383.82,30.78L384.44,31.06L388.17,33.89L388.79,34.54L393.77,41.21L394.39,42.19L402.47,56.65L403.09,57.81L413.04,75.15L413.66,76.07L419.26,83.14L419.88,83.77L424.85,87.72L425.47,88.07L430.45,89.83L431.07,89.93L436.66,89.85L437.29,89.75L452.21,87.46L452.83,87.54L457.18,88.98L457.8,89.32L462.16,92.92L462.78,93.61L467.13,99.82L467.75,100.92L472.72,111.53L473.35,113.09L478.94,129.43L479.56,131.48L487.02,159.28L487.65,161.81L511.27,258.91L511.89,260.94L517.49,276.62L518.11,278.05L522.46,286.17L523.08,287.04L526.81,290.78L527.44,291.15L530.54,291.89L531.17,291.83L534.27,290.44L534.9,289.96L538.63,285.74L539.25,284.83L543.6,276.94L544.22,275.62L551.06,258.73L551.68,257.04L568.47,212.28L569.09,210.94L574.69,200.97L575.31,200.11L579.66,195.62L580.28,195.2L583.39,194L584.01,193.93L587.12,194.47L587.74,194.75L591.47,197.54L592.09,198.19L596.45,204.01L597.07,205.01L603.29,216.8L603.91,218.12L621.32,254.5L621.94,255.5L626.91,261.91L627.53,262.51L631.26,264.97L631.88,265.19L634.99,265.46L635.62,265.34L638.72,263.91L639.35,263.46L643.08,259.58L643.7,258.75L648.05,251.57" style="vector-effect: none; fill: none; stroke: rgb(99, 110, 250); stroke-opacity: 1; stroke-width: 2px; opacity: 1;"/></g><g class="points"/><g class="text"/></g><g class="trace scatter trace204720" style="stroke-miterlimit: 2; opacity: 1;"><g class="fills"/><g class="errorbars"/><g class="lines"/><g class="points"><path class="point" transform="translate(41.25,165.48)" d="M6,0A6,6 0 1,1 0,-6A6,6 0 0,1 6,0Z" style="opacity: 1; stroke-width: 0px; fill: rgb(239, 85, 59); fill-opacity: 1;"/><path class="point" transform="translate(144.46,139.11)" d="M6,0A6,6 0 1,1 0,-6A6,6 0 0,1 6,0Z" style="opacity: 1; stroke-width: 0px; fill: rgb(239, 85, 59); fill-opacity: 1;"/><path class="point" transform="translate(241.44,340.91)" d="M6,0A6,6 0 1,1 0,-6A6,6 0 0,1 6,0Z" style="opacity: 1; stroke-width: 0px; fill: rgb(239, 85, 59); fill-opacity: 1;"/><path class="point" transform="translate(450.34,87.37)" d="M6,0A6,6 0 1,1 0,-6A6,6 0 0,1 6,0Z" style="opacity: 1; stroke-width: 0px; fill: rgb(239, 85, 59); fill-opacity: 1;"/><path class="point" transform="translate(584.63,193.93)" d="M6,0A6,6 0 1,1 0,-6A6,6 0 0,1 6,0Z" style="opacity: 1; stroke-width: 0px; fill: rgb(239, 85, 59); fill-opacity: 1;"/></g><g class="text"><g class="textpoint" transform="translate(8.5,-12.25)"><text x="41.25" y="165.48" text-anchor="start" style="font-family: 'New Computer Modern'; font-size: 15px; fill: rgb(42, 63, 95); fill-opacity: 1; white-space: pre;">Local Max.</text></g><g class="textpoint" transform="translate(8.5,-12.25)"><text x="144.46" y="139.11" text-anchor="start" style="font-family: 'New Computer Modern'; font-size: 15px; fill: rgb(42, 63, 95); fill-opacity: 1; white-space: pre;">Local Max.</text></g><g class="textpoint" transform="translate(8.5,-12.25)"><text x="241.44" y="340.91" text-anchor="start" style="font-family: 'New Computer Modern'; font-size: 15px; fill: rgb(42, 63, 95); fill-opacity: 1; white-space: pre;">Local Max.</text></g><g class="textpoint" transform="translate(8.5,-12.25)"><text x="450.34" y="87.37" text-anchor="start" style="font-family: 'New Computer Modern'; font-size: 15px; fill: rgb(42, 63, 95); fill-opacity: 1; white-space: pre;">Local Max.</text></g><g class="textpoint" transform="translate(8.5,-12.25)"><text x="584.63" y="193.93" text-anchor="start" style="font-family: 'New Computer Modern'; font-size: 15px; fill: rgb(42, 63, 95); fill-opacity: 1; white-space: pre;">Local Max.</text></g></g></g><g class="trace scatter trace1bc172" style="stroke-miterlimit: 2; opacity: 1;"><g class="fills"/><g class="errorbars"/><g class="lines"/><g class="points"><path class="point" transform="translate(90.37,237.07)" d="M6,0A6,6 0 1,1 0,-6A6,6 0 0,1 6,0Z" style="opacity: 1; stroke-width: 0px; fill: rgb(0, 204, 150); fill-opacity: 1;"/><path class="point" transform="translate(224.66,343.63)" d="M6,0A6,6 0 1,1 0,-6A6,6 0 0,1 6,0Z" style="opacity: 1; stroke-width: 0px; fill: rgb(0, 204, 150); fill-opacity: 1;"/><path class="point" transform="translate(433.56,90.09)" d="M6,0A6,6 0 1,1 0,-6A6,6 0 0,1 6,0Z" style="opacity: 1; stroke-width: 0px; fill: rgb(0, 204, 150); fill-opacity: 1;"/><path class="point" transform="translate(530.54,291.89)" d="M6,0A6,6 0 1,1 0,-6A6,6 0 0,1 6,0Z" style="opacity: 1; stroke-width: 0px; fill: rgb(0, 204, 150); fill-opacity: 1;"/><path class="point" transform="translate(633.75,265.52)" d="M6,0A6,6 0 1,1 0,-6A6,6 0 0,1 6,0Z" style="opacity: 1; stroke-width: 0px; fill: rgb(0, 204, 150); fill-opacity: 1;"/></g><g class="text"><g class="textpoint" transform="translate(-8.5,19.75)"><text x="90.37" y="237.07" text-anchor="end" style="font-family: 'New Computer Modern'; font-size: 15px; fill: rgb(42, 63, 95); fill-opacity: 1; white-space: pre;">Local Min.</text></g><g class="textpoint" transform="translate(-8.5,19.75)"><text x="224.66" y="343.63" text-anchor="end" style="font-family: 'New Computer Modern'; font-size: 15px; fill: rgb(42, 63, 95); fill-opacity: 1; white-space: pre;">Local Min.</text></g><g class="textpoint" transform="translate(-8.5,19.75)"><text x="433.56" y="90.09" text-anchor="end" style="font-family: 'New Computer Modern'; font-size: 15px; fill: rgb(42, 63, 95); fill-opacity: 1; white-space: pre;">Local Min.</text></g><g class="textpoint" transform="translate(-8.5,19.75)"><text x="530.54" y="291.89" text-anchor="end" style="font-family: 'New Computer Modern'; font-size: 15px; fill: rgb(42, 63, 95); fill-opacity: 1; white-space: pre;">Local Min.</text></g><g class="textpoint" transform="translate(-8.5,19.75)"><text x="633.75" y="265.52" text-anchor="end" style="font-family: 'New Computer Modern'; font-size: 15px; fill: rgb(42, 63, 95); fill-opacity: 1; white-space: pre;">Local Min.</text></g></g></g><g class="trace scatter traceb1fd6d" style="stroke-miterlimit: 2; opacity: 1;"><g class="fills"/><g class="errorbars"/><g class="lines"/><g class="points"><path class="point" transform="translate(381.33,30.3)" d="M9.1,0L0,9.1L-9.1,0L0,-9.1Z" style="opacity: 1; stroke-width: 0px; fill: rgb(171, 99, 250); fill-opacity: 1;"/></g><g class="text"><g class="textpoint" transform="translate(9.75,-13.5)"><text x="381.33" y="30.3" text-anchor="start" style="font-family: 'New Computer Modern'; font-size: 15px; fill: rgb(42, 63, 95); fill-opacity: 1; white-space: pre;">Global Max.</text></g></g></g><g class="trace scatter trace883b4d" style="stroke-miterlimit: 2; opacity: 1;"><g class="fills"/><g class="errorbars"/><g class="lines"/><g class="points"><path class="point" transform="translate(293.67,400.7)" d="M9.1,0L0,9.1L-9.1,0L0,-9.1Z" style="opacity: 1; stroke-width: 0px; fill: rgb(255, 161, 90); fill-opacity: 1;"/></g><g class="text"><g class="textpoint" transform="translate(-9.75,21)"><text x="293.67" y="400.7" text-anchor="end" style="font-family: 'New Computer Modern'; font-size: 15px; fill: rgb(42, 63, 95); fill-opacity: 1; white-space: pre;">Global Min.</text></g></g></g></g></g></g><path class="xlines-above crisp" d="M56,452H733" style="fill: none; stroke-width: 2px; stroke: rgb(255, 255, 255); stroke-opacity: 1;"/><path class="ylines-above crisp" d="M57,20V451" style="fill: none; stroke-width: 2px; stroke: rgb(255, 255, 255); stroke-opacity: 1;"/><g class="overlines-above"/><g class="xaxislayer-above"><g class="xtick"><text text-anchor="middle" x="0" y="471" transform="translate(84.95,0)" style="font-family: 'New Computer Modern'; font-size: 15px; fill: rgb(42, 63, 95); fill-opacity: 1; white-space: pre; opacity: 1;">−6</text></g><g class="xtick"><text text-anchor="middle" x="0" y="471" style="font-family: 'New Computer Modern'; font-size: 15px; fill: rgb(42, 63, 95); fill-opacity: 1; white-space: pre; opacity: 1;" transform="translate(188.47,0)">−4</text></g><g class="xtick"><text text-anchor="middle" x="0" y="471" style="font-family: 'New Computer Modern'; font-size: 15px; fill: rgb(42, 63, 95); fill-opacity: 1; white-space: pre; opacity: 1;" transform="translate(291.98,0)">−2</text></g><g class="xtick"><text text-anchor="middle" x="0" y="471" style="font-family: 'New Computer Modern'; font-size: 15px; fill: rgb(42, 63, 95); fill-opacity: 1; white-space: pre; opacity: 1;" transform="translate(395.5,0)">0</text></g><g class="xtick"><text text-anchor="middle" x="0" y="471" style="font-family: 'New Computer Modern'; font-size: 15px; fill: rgb(42, 63, 95); fill-opacity: 1; white-space: pre; opacity: 1;" transform="translate(499.02,0)">2</text></g><g class="xtick"><text text-anchor="middle" x="0" y="471" style="font-family: 'New Computer Modern'; font-size: 15px; fill: rgb(42, 63, 95); fill-opacity: 1; white-space: pre; opacity: 1;" transform="translate(602.53,0)">4</text></g><g class="xtick"><text text-anchor="middle" x="0" y="471" style="font-family: 'New Computer Modern'; font-size: 15px; fill: rgb(42, 63, 95); fill-opacity: 1; white-space: pre; opacity: 1;" transform="translate(706.05,0)">6</text></g></g><g class="yaxislayer-above"><g class="ytick"><text text-anchor="end" x="53" y="5.25" transform="translate(0,418.31)" style="font-family: 'New Computer Modern'; font-size: 15px; fill: rgb(42, 63, 95); fill-opacity: 1; white-space: pre; opacity: 1;">−0.8</text></g><g class="ytick"><text text-anchor="end" x="53" y="5.25" style="font-family: 'New Computer Modern'; font-size: 15px; fill: rgb(42, 63, 95); fill-opacity: 1; white-space: pre; opacity: 1;" transform="translate(0,372.61)">−0.6</text></g><g class="ytick"><text text-anchor="end" x="53" y="5.25" style="font-family: 'New Computer Modern'; font-size: 15px; fill: rgb(42, 63, 95); fill-opacity: 1; white-space: pre; opacity: 1;" transform="translate(0,326.91)">−0.4</text></g><g class="ytick"><text text-anchor="end" x="53" y="5.25" style="font-family: 'New Computer Modern'; font-size: 15px; fill: rgb(42, 63, 95); fill-opacity: 1; white-space: pre; opacity: 1;" transform="translate(0,281.2)">−0.2</text></g><g class="ytick"><text text-anchor="end" x="53" y="5.25" style="font-family: 'New Computer Modern'; font-size: 15px; fill: rgb(42, 63, 95); fill-opacity: 1; white-space: pre; opacity: 1;" transform="translate(0,235.5)">0</text></g><g class="ytick"><text text-anchor="end" x="53" y="5.25" style="font-family: 'New Computer Modern'; font-size: 15px; fill: rgb(42, 63, 95); fill-opacity: 1; white-space: pre; opacity: 1;" transform="translate(0,189.8)">0.2</text></g><g class="ytick"><text text-anchor="end" x="53" y="5.25" style="font-family: 'New Computer Modern'; font-size: 15px; fill: rgb(42, 63, 95); fill-opacity: 1; white-space: pre; opacity: 1;" transform="translate(0,144.09)">0.4</text></g><g class="ytick"><text text-anchor="end" x="53" y="5.25" style="font-family: 'New Computer Modern'; font-size: 15px; fill: rgb(42, 63, 95); fill-opacity: 1; white-space: pre; opacity: 1;" transform="translate(0,98.39)">0.6</text></g><g class="ytick"><text text-anchor="end" x="53" y="5.25" style="font-family: 'New Computer Modern'; font-size: 15px; fill: rgb(42, 63, 95); fill-opacity: 1; white-space: pre; opacity: 1;" transform="translate(0,52.69)">0.8</text></g></g><g class="overaxes-above"/></g></g><g class="polarlayer"/><g class="smithlayer"/><g class="ternarylayer"/><g class="geolayer"/><g class="funnelarealayer"/><g class="pielayer"/><g class="iciclelayer"/><g class="treemaplayer"/><g class="sunburstlayer"/><g class="glimages"/><defs id="topdefs-51bf64"><g class="clips"/><clipPath id="legend51bf64"><rect width="153" height="123" x="0" y="0"/></clipPath></defs><g class="layer-above"><g class="imagelayer"/><g class="shapelayer"/></g><g class="infolayer"><g class="legend" pointer-events="all" transform="translate(746.5,20)"><rect class="bg" shape-rendering="crispEdges" style="stroke: rgb(68, 68, 68); stroke-opacity: 1; fill: rgb(0, 0, 0); fill-opacity: 0; stroke-width: 0px;" width="153" height="123" x="0" y="0"/><g class="scrollbox" transform="" clip-path="url(#legend51bf64)"><g class="groups"><g class="traces" transform="translate(0,16.25)" style="opacity: 1;"><text class="legendtext" text-anchor="start" x="40" y="5.85" style="font-family: 'New Computer Modern'; font-size: 15px; fill: rgb(42, 63, 95); fill-opacity: 1; white-space: pre;">f(x)</text><g class="layers" style="opacity: 1;"><g class="legendfill"/><g class="legendlines"><path class="js-line" d="M5,0h30" style="fill: none; stroke: rgb(99, 110, 250); stroke-opacity: 1; stroke-width: 2px;"/></g><g class="legendsymbols"><g class="legendpoints"/></g></g><rect class="legendtoggle" x="0" y="-11.25" width="147.40625" height="22.5" style="fill: rgb(0, 0, 0); fill-opacity: 0;"/></g><g class="traces" transform="translate(0,38.75)" style="opacity: 1;"><text class="legendtext" text-anchor="start" x="40" y="5.85" style="font-family: 'New Computer Modern'; font-size: 15px; fill: rgb(42, 63, 95); fill-opacity: 1; white-space: pre;">Local Maximum</text><g class="layers" style="opacity: 1;"><g class="legendfill"/><g class="legendlines"/><g class="legendsymbols"><g class="legendpoints"><path class="scatterpts" transform="translate(20,0)" d="M6,0A6,6 0 1,1 0,-6A6,6 0 0,1 6,0Z" style="opacity: 1; stroke-width: 0px; fill: rgb(239, 85, 59); fill-opacity: 1;"/></g></g></g><rect class="legendtoggle" x="0" y="-11.25" width="147.40625" height="22.5" style="fill: rgb(0, 0, 0); fill-opacity: 0;"/></g><g class="traces" transform="translate(0,61.25)" style="opacity: 1;"><text class="legendtext" text-anchor="start" x="40" y="5.85" style="font-family: 'New Computer Modern'; font-size: 15px; fill: rgb(42, 63, 95); fill-opacity: 1; white-space: pre;">Local Minimum</text><g class="layers" style="opacity: 1;"><g class="legendfill"/><g class="legendlines"/><g class="legendsymbols"><g class="legendpoints"><path class="scatterpts" transform="translate(20,0)" d="M6,0A6,6 0 1,1 0,-6A6,6 0 0,1 6,0Z" style="opacity: 1; stroke-width: 0px; fill: rgb(0, 204, 150); fill-opacity: 1;"/></g></g></g><rect class="legendtoggle" x="0" y="-11.25" width="147.40625" height="22.5" style="fill: rgb(0, 0, 0); fill-opacity: 0;"/></g><g class="traces" transform="translate(0,83.75)" style="opacity: 1;"><text class="legendtext" text-anchor="start" x="40" y="5.85" style="font-family: 'New Computer Modern'; font-size: 15px; fill: rgb(42, 63, 95); fill-opacity: 1; white-space: pre;">Global Maximum</text><g class="layers" style="opacity: 1;"><g class="legendfill"/><g class="legendlines"/><g class="legendsymbols"><g class="legendpoints"><path class="scatterpts" transform="translate(20,0)" d="M9.1,0L0,9.1L-9.1,0L0,-9.1Z" style="opacity: 1; stroke-width: 0px; fill: rgb(171, 99, 250); fill-opacity: 1;"/></g></g></g><rect class="legendtoggle" x="0" y="-11.25" width="147.40625" height="22.5" style="fill: rgb(0, 0, 0); fill-opacity: 0;"/></g><g class="traces" transform="translate(0,106.25)" style="opacity: 1;"><text class="legendtext" text-anchor="start" x="40" y="5.85" style="font-family: 'New Computer Modern'; font-size: 15px; fill: rgb(42, 63, 95); fill-opacity: 1; white-space: pre;">Global Minimum</text><g class="layers" style="opacity: 1;"><g class="legendfill"/><g class="legendlines"/><g class="legendsymbols"><g class="legendpoints"><path class="scatterpts" transform="translate(20,0)" d="M9.1,0L0,9.1L-9.1,0L0,-9.1Z" style="opacity: 1; stroke-width: 0px; fill: rgb(255, 161, 90); fill-opacity: 1;"/></g></g></g><rect class="legendtoggle" x="0" y="-11.25" width="147.40625" height="22.5" style="fill: rgb(0, 0, 0); fill-opacity: 0;"/></g></g></g><rect class="scrollbar" rx="20" ry="3" width="0" height="0" style="fill: rgb(128, 139, 164); fill-opacity: 1;" x="0" y="0"/></g><g class="g-gtitle"/><g class="g-xtitle" transform="translate(0,-1.5)"><text class="xtitle" x="395.5" y="498.5" text-anchor="middle" style="opacity: 1; font-family: 'New Computer Modern'; font-size: 15px; fill: rgb(42, 63, 95); fill-opacity: 1; white-space: pre;">x</text></g><g class="g-ytitle" transform="translate(6.46875,0)"><text class="ytitle" transform="rotate(-90,6.53125,235.5)" x="6.53125" y="235.5" text-anchor="middle" style="opacity: 1; font-family: 'New Computer Modern'; font-size: 15px; fill: rgb(42, 63, 95); fill-opacity: 1; white-space: pre;">f(x)</text></g></g></svg>