<svg class="main-svg" xmlns="http://www.w3.org/2000/svg" xmlns:xlink="http://www.w3.org/1999/xlink" width="900" height="900" style="" viewBox="0 0 900 900"><rect x="0" y="0" width="900" height="900" style="fill: rgb(0, 0, 0); fill-opacity: 0;"/><defs id="defs-0f4cf2"><g class="clips"><clipPath id="clip0f4cf2xyplot" class="plotclip"><rect width="649" height="235.3399999999999"/></clipPath><clipPath id="clip0f4cf2x2y2plot" class="plotclip"><rect width="649" height="235.33999999999997"/></clipPath><clipPath id="clip0f4cf2x3y3plot" class="plotclip"><rect width="649" height="235.34000000000003"/></clipPath><clipPath class="axesclip" id="clip0f4cf2x"><rect x="32" y="0" width="649" height="900"/></clipPath><clipPath class="axesclip" id="clip0f4cf2y"><rect x="0" y="20" width="900" height="235.3399999999999"/></clipPath><clipPath class="axesclip" id="clip0f4cf2xy"><rect x="32" y="20" width="649" height="235.3399999999999"/></clipPath><clipPath class="axesclip" id="clip0f4cf2y2"><rect x="0" y="332.83" width="900" height="235.33999999999997"/></clipPath><clipPath class="axesclip" id="clip0f4cf2xy2"><rect x="32" y="332.83" width="649" height="235.33999999999997"/></clipPath><clipPath class="axesclip" id="clip0f4cf2y3"><rect x="0" y="645.66" width="900" height="235.34000000000003"/></clipPath><clipPath class="axesclip" id="clip0f4cf2xy3"><rect x="32" y="645.66" width="649" height="235.34000000000003"/></clipPath><clipPath class="axesclip" id="clip0f4cf2x2"><rect x="32" y="0" width="649" height="900"/></clipPath><clipPath class="axesclip" id="clip0f4cf2x2y"><rect x="32" y="20" width="649" height="235.3399999999999"/></clipPath><clipPath class="axesclip" id="clip0f4cf2x2y2"><rect x="32" y="332.83" width="649" height="235.33999999999997"/></clipPath><clipPath class="axesclip" id="clip0f4cf2x2y3"><rect x="32" y="645.66" width="649" height="235.34000000000003"/></clipPath><clipPath class="axesclip" id="clip0f4cf2x3"><rect x="32" y="0" width="649" height="900"/></clipPath><clipPath class="axesclip" id="clip0f4cf2x3y"><rect x="32" y="20" width="649" height="235.3399999999999"/></clipPath><clipPath class="axesclip" id="clip0f4cf2x3y2"><rect x="32" y="332.83" width="649" height="235.33999999999997"/></clipPath><clipPath class="axesclip" id="clip0f4cf2x3y3"><rect x="32" y="645.66" width="649" height="235.34000000000003"/></clipPath></g><g class="gradients"/><g class="patterns"/></defs><g class="bglayer"><rect class="bg" x="32" y="20" width="649" height="235.3399999999999" style="fill: rgb(229, 236, 246); fill-opacity: 1; stroke-width: 0;"/><rect class="bg" x="32" y="332.83" width="649" height="235.33999999999997" style="fill: rgb(229, 236, 246); fill-opacity: 1; stroke-width: 0;"/><rect class="bg" x="32" y="645.66" width="649" height="235.34000000000003" style="fill: rgb(229, 236, 246); fill-opacity: 1; stroke-width: 0;"/></g><g class="layer-below"><g class="imagelayer"/><g class="shapelayer"/></g><g class="cartesianlayer"><g class="subplot xy"><g class="layer-subplot"><g class="shapelayer"/><g class="imagelayer"/></g><g class="minor-gridlayer"><g class="x"/><g class="y"/></g><g class="gridlayer"><g class="x"><path class="xgrid crisp" transform="translate(113.13,0)" d="M0,20v235.3399999999999" style="stroke: rgb(255, 255, 255); stroke-opacity: 1; stroke-width: 1px;"/><path class="xgrid crisp" transform="translate(194.25,0)" d="M0,20v235.3399999999999" style="stroke: rgb(255, 255, 255); stroke-opacity: 1; stroke-width: 1px;"/><path class="xgrid crisp" transform="translate(275.38,0)" d="M0,20v235.3399999999999" style="stroke: rgb(255, 255, 255); stroke-opacity: 1; stroke-width: 1px;"/><path class="xgrid crisp" transform="translate(356.5,0)" d="M0,20v235.3399999999999" style="stroke: rgb(255, 255, 255); stroke-opacity: 1; stroke-width: 1px;"/><path class="xgrid crisp" transform="translate(437.63,0)" d="M0,20v235.3399999999999" style="stroke: rgb(255, 255, 255); stroke-opacity: 1; stroke-width: 1px;"/><path class="xgrid crisp" transform="translate(518.75,0)" d="M0,20v235.3399999999999" style="stroke: rgb(255, 255, 255); stroke-opacity: 1; stroke-width: 1px;"/><path class="xgrid crisp" transform="translate(599.88,0)" d="M0,20v235.3399999999999" style="stroke: rgb(255, 255, 255); stroke-opacity: 1; stroke-width: 1px;"/></g><g class="y"><path class="ygrid crisp" transform="translate(0,216.12)" d="M32,0h649" style="stroke: rgb(255, 255, 255); stroke-opacity: 1; stroke-width: 1px;"/><path class="ygrid crisp" transform="translate(0,176.89)" d="M32,0h649" style="stroke: rgb(255, 255, 255); stroke-opacity: 1; stroke-width: 1px;"/><path class="ygrid crisp" transform="translate(0,98.45)" d="M32,0h649" style="stroke: rgb(255, 255, 255); stroke-opacity: 1; stroke-width: 1px;"/><path class="ygrid crisp" transform="translate(0,59.22)" d="M32,0h649" style="stroke: rgb(255, 255, 255); stroke-opacity: 1; stroke-width: 1px;"/></g></g><g class="zerolinelayer"><path class="yzl zl crisp" transform="translate(0,137.67000000000002)" d="M32,0h649" style="stroke: rgb(255, 255, 255); stroke-opacity: 1; stroke-width: 2px;"/></g><g class="layer-between"><g class="shapelayer"/><g class="imagelayer"/></g><path class="xlines-below"/><path class="ylines-below"/><g class="overlines-below"/><g class="xaxislayer-below"/><g class="yaxislayer-below"/><g class="overaxes-below"/><g class="overplot"><g class="xy" transform="translate(32,20)" clip-path="url(#clip0f4cf2xyplot)"><g class="scatterlayer mlayer"><g class="trace scatter trace6c6fbb" style="stroke-miterlimit: 2; opacity: 1;"><g class="fills"/><g class="errorbars"/><g class="lines"><path class="js-line" d="M0,117.67L23.39,83.35L24.04,82.46L37.03,66.12L37.68,65.38L48.07,54.75L48.72,54.16L57.82,47.08L58.47,46.65L66.91,42.17L67.56,41.91L75.36,39.71L76.01,39.61L83.16,39.28L83.8,39.33L90.95,40.64L91.6,40.83L99.4,44.08L100.05,44.43L107.84,49.49L108.49,49.98L117.59,57.97L118.24,58.62L127.98,69.35L128.63,70.14L139.67,84.46L140.32,85.36L157.22,110.03L157.86,111.02L187.75,154.85L188.4,155.71L200.74,170.87L201.39,171.59L211.14,181.32L211.79,181.89L220.23,188.37L220.88,188.79L228.68,192.96L229.33,193.23L237.12,195.54L237.77,195.66L244.92,196.08L245.57,196.05L252.71,194.84L253.36,194.65L260.51,191.84L261.16,191.51L268.95,186.69L269.6,186.22L278.7,178.47L279.35,177.84L288.44,168.09L289.09,167.33L300.14,153.32L300.79,152.44L317.03,128.98L317.68,128L350.16,80.28L350.81,79.41L363.15,64.29L363.8,63.57L374.2,53.3L374.85,52.75L383.94,46.04L384.59,45.64L392.39,41.79L393.04,41.54L400.83,39.56L401.48,39.48L407.98,39.3L408.63,39.36L415.78,40.73L416.43,40.93L423.57,43.91L424.22,44.25L432.67,49.73L433.32,50.23L442.41,58.3L443.06,58.95L452.81,69.74L453.46,70.53L465.15,85.81L465.8,86.71L483.34,112.49L483.99,113.48L511.92,154.41L512.57,155.28L524.92,170.51L525.57,171.23L535.31,181.03L535.96,181.61L544.41,188.16L545.06,188.58L552.85,192.82L553.5,193.1L561.3,195.48L561.95,195.6L569.09,196.09L569.74,196.07L577.54,194.75L578.19,194.56L585.33,191.68L585.98,191.34L593.78,186.45L594.43,185.97L602.87,178.78L603.52,178.16L613.27,167.72L613.92,166.95L625.61,151.99L626.26,151.1L641.85,128.49L642.5,127.51L649,117.67" style="vector-effect: none; fill: none; stroke: rgb(31, 119, 180); stroke-opacity: 1; stroke-width: 2px; opacity: 1;"/></g><g class="points"/><g class="text"/></g><g class="trace scatter tracebdbbbc" style="stroke-miterlimit: 2; opacity: 1;"><g class="fills"/><g class="errorbars"/><g class="lines"/><g class="points"><path class="point" transform="translate(81.13,39.22)" d="M5,0A5,5 0 1,1 0,-5A5,5 0 0,1 5,0Z" style="opacity: 1; stroke-width: 0px; fill: rgb(44, 160, 44); fill-opacity: 1;"/><path class="point" transform="translate(405.63,39.22)" d="M5,0A5,5 0 1,1 0,-5A5,5 0 0,1 5,0Z" style="opacity: 1; stroke-width: 0px; fill: rgb(44, 160, 44); fill-opacity: 1;"/></g><g class="text"><g class="textpoint" transform="translate(0,-11)"><text x="81.13" y="39.22" text-anchor="middle" style="font-family: 'New Computer Modern'; font-size: 15px; fill: rgb(42, 63, 95); fill-opacity: 1; white-space: pre;">Global Maximum (y=1)</text></g><g class="textpoint" transform="translate(0,-11)"><text x="405.63" y="39.22" text-anchor="middle" style="font-family: 'New Computer Modern'; font-size: 15px; fill: rgb(42, 63, 95); fill-opacity: 1; white-space: pre;">Global Maximum (y=1)</text></g></g></g><g class="trace scatter trace115bda" style="stroke-miterlimit: 2; opacity: 1;"><g class="fills"/><g class="errorbars"/><g class="lines"/><g class="points"><path class="point" transform="translate(243.38,196.12)" d="M5,0A5,5 0 1,1 0,-5A5,5 0 0,1 5,0Z" style="opacity: 1; stroke-width: 0px; fill: rgb(214, 39, 40); fill-opacity: 1;"/><path class="point" transform="translate(567.88,196.12)" d="M5,0A5,5 0 1,1 0,-5A5,5 0 0,1 5,0Z" style="opacity: 1; stroke-width: 0px; fill: rgb(214, 39, 40); fill-opacity: 1;"/></g><g class="text"><g class="textpoint" transform="translate(0,18.5)"><text x="243.38" y="196.12" text-anchor="middle" style="font-family: 'New Computer Modern'; font-size: 15px; fill: rgb(42, 63, 95); fill-opacity: 1; white-space: pre;">Global Minimum (y=-1)</text></g><g class="textpoint" transform="translate(0,18.5)"><text x="567.88" y="196.12" text-anchor="middle" style="font-family: 'New Computer Modern'; font-size: 15px; fill: rgb(42, 63, 95); fill-opacity: 1; white-space: pre;">Global Minimum (y=-1)</text></g></g></g></g></g></g><path class="xlines-above crisp" d="M30,256.3399999999999H681" style="fill: none; stroke-width: 2px; stroke: rgb(255, 255, 255); stroke-opacity: 1;"/><path class="ylines-above crisp" d="M31,20V255.3399999999999" style="fill: none; stroke-width: 2px; stroke: rgb(255, 255, 255); stroke-opacity: 1;"/><g class="overlines-above"/><g class="xaxislayer-above"><g class="xtick"><text text-anchor="middle" x="0" y="275.3399999999999" transform="translate(32,0)" style="font-family: 'New Computer Modern'; font-size: 15px; fill: rgb(42, 63, 95); fill-opacity: 1; white-space: pre; opacity: 1;">0</text></g><g class="xtick"><text text-anchor="middle" x="0" y="275.3399999999999" style="font-family: 'New Computer Modern'; font-size: 15px; fill: rgb(42, 63, 95); fill-opacity: 1; white-space: pre; opacity: 1;" transform="translate(113.13,0)">π/2</text></g><g class="xtick"><text text-anchor="middle" x="0" y="275.3399999999999" style="font-family: 'New Computer Modern'; font-size: 15px; fill: rgb(42, 63, 95); fill-opacity: 1; white-space: pre; opacity: 1;" transform="translate(194.25,0)">π</text></g><g class="xtick"><text text-anchor="middle" x="0" y="275.3399999999999" style="font-family: 'New Computer Modern'; font-size: 15px; fill: rgb(42, 63, 95); fill-opacity: 1; white-space: pre; opacity: 1;" transform="translate(275.38,0)">3π/2</text></g><g class="xtick"><text text-anchor="middle" x="0" y="275.3399999999999" style="font-family: 'New Computer Modern'; font-size: 15px; fill: rgb(42, 63, 95); fill-opacity: 1; white-space: pre; opacity: 1;" transform="translate(356.5,0)">2π</text></g><g class="xtick"><text text-anchor="middle" x="0" y="275.3399999999999" style="font-family: 'New Computer Modern'; font-size: 15px; fill: rgb(42, 63, 95); fill-opacity: 1; white-space: pre; opacity: 1;" transform="translate(437.63,0)">5π/2</text></g><g class="xtick"><text text-anchor="middle" x="0" y="275.3399999999999" style="font-family: 'New Computer Modern'; font-size: 15px; fill: rgb(42, 63, 95); fill-opacity: 1; white-space: pre; opacity: 1;" transform="translate(518.75,0)">3π</text></g><g class="xtick"><text text-anchor="middle" x="0" y="275.3399999999999" style="font-family: 'New Computer Modern'; font-size: 15px; fill: rgb(42, 63, 95); fill-opacity: 1; white-space: pre; opacity: 1;" transform="translate(599.88,0)">7π/2</text></g><g class="xtick"><text text-anchor="middle" x="0" y="275.3399999999999" style="font-family: 'New Computer Modern'; font-size: 15px; fill: rgb(42, 63, 95); fill-opacity: 1; white-space: pre; opacity: 1;" transform="translate(681,0)">4π</text></g></g><g class="yaxislayer-above"><g class="ytick"><text text-anchor="end" x="27" y="5.25" transform="translate(0,255.34)" style="font-family: 'New Computer Modern'; font-size: 15px; fill: rgb(42, 63, 95); fill-opacity: 1; white-space: pre; opacity: 1;">−1.5</text></g><g class="ytick"><text text-anchor="end" x="27" y="5.25" style="font-family: 'New Computer Modern'; font-size: 15px; fill: rgb(42, 63, 95); fill-opacity: 1; white-space: pre; opacity: 1;" transform="translate(0,216.12)">−1</text></g><g class="ytick"><text text-anchor="end" x="27" y="5.25" style="font-family: 'New Computer Modern'; font-size: 15px; fill: rgb(42, 63, 95); fill-opacity: 1; white-space: pre; opacity: 1;" transform="translate(0,176.89)">−0.5</text></g><g class="ytick"><text text-anchor="end" x="27" y="5.25" style="font-family: 'New Computer Modern'; font-size: 15px; fill: rgb(42, 63, 95); fill-opacity: 1; white-space: pre; opacity: 1;" transform="translate(0,137.67000000000002)">0</text></g><g class="ytick"><text text-anchor="end" x="27" y="5.25" style="font-family: 'New Computer Modern'; font-size: 15px; fill: rgb(42, 63, 95); fill-opacity: 1; white-space: pre; opacity: 1;" transform="translate(0,98.45)">0.5</text></g><g class="ytick"><text text-anchor="end" x="27" y="5.25" style="font-family: 'New Computer Modern'; font-size: 15px; fill: rgb(42, 63, 95); fill-opacity: 1; white-space: pre; opacity: 1;" transform="translate(0,59.22)">1</text></g><g class="ytick"><text text-anchor="end" x="27" y="5.25" style="font-family: 'New Computer Modern'; font-size: 15px; fill: rgb(42, 63, 95); fill-opacity: 1; white-space: pre; opacity: 1;" transform="translate(0,20)">1.5</text></g></g><g class="overaxes-above"/></g><g class="subplot x2y2"><g class="layer-subplot"><g class="shapelayer"/><g class="imagelayer"/></g><g class="minor-gridlayer"><g class="x2"/><g class="y2"/></g><g class="gridlayer"><g class="x2"><path class="x2grid crisp" transform="translate(113.13,0)" d="M0,332.83v235.33999999999997" style="stroke: rgb(255, 255, 255); stroke-opacity: 1; stroke-width: 1px;"/><path class="x2grid crisp" transform="translate(194.25,0)" d="M0,332.83v235.33999999999997" style="stroke: rgb(255, 255, 255); stroke-opacity: 1; stroke-width: 1px;"/><path class="x2grid crisp" transform="translate(275.38,0)" d="M0,332.83v235.33999999999997" style="stroke: rgb(255, 255, 255); stroke-opacity: 1; stroke-width: 1px;"/><path class="x2grid crisp" transform="translate(356.5,0)" d="M0,332.83v235.33999999999997" style="stroke: rgb(255, 255, 255); stroke-opacity: 1; stroke-width: 1px;"/><path class="x2grid crisp" transform="translate(437.63,0)" d="M0,332.83v235.33999999999997" style="stroke: rgb(255, 255, 255); stroke-opacity: 1; stroke-width: 1px;"/><path class="x2grid crisp" transform="translate(518.75,0)" d="M0,332.83v235.33999999999997" style="stroke: rgb(255, 255, 255); stroke-opacity: 1; stroke-width: 1px;"/><path class="x2grid crisp" transform="translate(599.88,0)" d="M0,332.83v235.33999999999997" style="stroke: rgb(255, 255, 255); stroke-opacity: 1; stroke-width: 1px;"/></g><g class="y2"><path class="y2grid crisp" transform="translate(0,528.95)" d="M32,0h649" style="stroke: rgb(255, 255, 255); stroke-opacity: 1; stroke-width: 1px;"/><path class="y2grid crisp" transform="translate(0,489.71999999999997)" d="M32,0h649" style="stroke: rgb(255, 255, 255); stroke-opacity: 1; stroke-width: 1px;"/><path class="y2grid crisp" transform="translate(0,411.28)" d="M32,0h649" style="stroke: rgb(255, 255, 255); stroke-opacity: 1; stroke-width: 1px;"/><path class="y2grid crisp" transform="translate(0,372.04999999999995)" d="M32,0h649" style="stroke: rgb(255, 255, 255); stroke-opacity: 1; stroke-width: 1px;"/></g></g><g class="zerolinelayer"><path class="x2zl zl crisp" transform="translate(32,0)" d="M0,332.83v235.33999999999997" style="stroke: rgb(255, 255, 255); stroke-opacity: 1; stroke-width: 2px;"/><path class="y2zl zl crisp" transform="translate(0,450.5)" d="M32,0h649" style="stroke: rgb(255, 255, 255); stroke-opacity: 1; stroke-width: 2px;"/></g><g class="layer-between"><g class="shapelayer"/><g class="imagelayer"/></g><path class="xlines-below"/><path class="ylines-below"/><g class="overlines-below"/><g class="xaxislayer-below"/><g class="yaxislayer-below"/><g class="overaxes-below"/><g class="overplot"><g class="x2y2" transform="translate(32,332.83)" clip-path="url(#clip0f4cf2x2y2plot)"><g class="scatterlayer mlayer"><g class="trace scatter tracee1df4b" style="stroke-miterlimit: 2; opacity: 1;"><g class="fills"/><g class="errorbars"/><g class="lines"><path class="js-line" d="M0,39.22L7.15,39.97L7.8,40.12L14.94,42.48L15.59,42.77L23.39,47.13L24.04,47.57L32.48,54.23L33.13,54.82L42.88,64.74L43.53,65.47L54.57,79.09L55.22,79.95L70.16,101.14L70.81,102.11L107.84,156.47L108.49,157.32L120.19,171.5L120.83,172.22L131.23,182.39L131.88,182.94L140.97,189.55L141.62,189.94L149.42,193.71L150.07,193.94L157.22,195.74L157.86,195.83L165.01,196L165.66,195.95L173.46,194.28L174.11,194.06L181.9,190.51L182.55,190.13L190.35,184.79L191,184.27L199.44,176.64L200.09,175.98L209.84,165.11L210.49,164.32L223.48,147.15L224.13,146.23L242.97,118.29L243.62,117.3L267.01,83.02L267.66,82.13L280.65,65.84L281.3,65.11L291.69,54.53L292.34,53.95L300.79,47.35L301.44,46.92L309.88,42.34L310.53,42.07L318.33,39.78L318.98,39.67L326.12,39.26L326.77,39.3L333.92,40.52L334.57,40.71L342.37,43.87L343.02,44.21L351.46,49.67L352.11,50.17L361.21,58.22L361.85,58.86L372.25,70.43L372.9,71.22L385.24,87.51L385.89,88.42L405.38,117.3L406.03,118.29L431.37,155.17L432.02,156.04L445.01,171.86L445.66,172.57L456.05,182.66L456.7,183.21L465.15,189.35L465.8,189.75L474.24,193.83L474.89,194.06L482.04,195.79L482.69,195.87L489.19,196.03L489.84,195.98L496.98,194.58L497.63,194.38L504.78,191.39L505.43,191.04L513.22,186.03L513.87,185.55L523.62,176.96L524.27,176.31L534.66,164.71L535.31,163.92L547.65,147.6L548.3,146.69L567.14,118.78L567.79,117.79L593.13,80.82L593.78,79.95L606.12,64.74L606.77,64.02L616.52,54.23L617.17,53.66L625.61,47.13L626.26,46.7L634.71,42.21L635.36,41.94L643.15,39.73L643.8,39.62L649,39.22" style="vector-effect: none; fill: none; stroke: rgb(255, 127, 14); stroke-opacity: 1; stroke-width: 2px; opacity: 1;"/></g><g class="points"/><g class="text"/></g><g class="trace scatter trace08540e" style="stroke-miterlimit: 2; opacity: 1;"><g class="fills"/><g class="errorbars"/><g class="lines"/><g class="points"><path class="point" transform="translate(81.13,117.67)" d="M5,0A5,5 0 1,1 0,-5A5,5 0 0,1 5,0Z" style="opacity: 1; stroke-width: 0px; fill: rgb(148, 103, 189); fill-opacity: 1;"/><path class="point" transform="translate(405.63,117.67)" d="M5,0A5,5 0 1,1 0,-5A5,5 0 0,1 5,0Z" style="opacity: 1; stroke-width: 0px; fill: rgb(148, 103, 189); fill-opacity: 1;"/><path class="point" transform="translate(243.38,117.67)" d="M5,0A5,5 0 1,1 0,-5A5,5 0 0,1 5,0Z" style="opacity: 1; stroke-width: 0px; fill: rgb(148, 103, 189); fill-opacity: 1;"/><path class="point" transform="translate(567.88,117.67)" d="M5,0A5,5 0 1,1 0,-5A5,5 0 0,1 5,0Z" style="opacity: 1; stroke-width: 0px; fill: rgb(148, 103, 189); fill-opacity: 1;"/></g><g class="text"/></g></g></g></g><path class="xlines-above crisp" d="M0,0" style="fill: none;"/><path class="ylines-above crisp" d="M0,0" style="fill: none;"/><g class="overlines-above"/><g class="xaxislayer-above"><g class="x2tick"><text text-anchor="middle" x="0" y="584.17" transform="translate(32,0)" style="font-family: 'New Computer Modern'; font-size: 15px; fill: rgb(42, 63, 95); fill-opacity: 1; white-space: pre; opacity: 1;">0</text></g><g class="x2tick"><text text-anchor="middle" x="0" y="584.17" style="font-family: 'New Computer Modern'; font-size: 15px; fill: rgb(42, 63, 95); fill-opacity: 1; white-space: pre; opacity: 1;" transform="translate(113.13,0)">π/2</text></g><g class="x2tick"><text text-anchor="middle" x="0" y="584.17" style="font-family: 'New Computer Modern'; font-size: 15px; fill: rgb(42, 63, 95); fill-opacity: 1; white-space: pre; opacity: 1;" transform="translate(194.25,0)">π</text></g><g class="x2tick"><text text-anchor="middle" x="0" y="584.17" style="font-family: 'New Computer Modern'; font-size: 15px; fill: rgb(42, 63, 95); fill-opacity: 1; white-space: pre; opacity: 1;" transform="translate(275.38,0)">3π/2</text></g><g class="x2tick"><text text-anchor="middle" x="0" y="584.17" style="font-family: 'New Computer Modern'; font-size: 15px; fill: rgb(42, 63, 95); fill-opacity: 1; white-space: pre; opacity: 1;" transform="translate(356.5,0)">2π</text></g><g class="x2tick"><text text-anchor="middle" x="0" y="584.17" style="font-family: 'New Computer Modern'; font-size: 15px; fill: rgb(42, 63, 95); fill-opacity: 1; white-space: pre; opacity: 1;" transform="translate(437.63,0)">5π/2</text></g><g class="x2tick"><text text-anchor="middle" x="0" y="584.17" style="font-family: 'New Computer Modern'; font-size: 15px; fill: rgb(42, 63, 95); fill-opacity: 1; white-space: pre; opacity: 1;" transform="translate(518.75,0)">3π</text></g><g class="x2tick"><text text-anchor="middle" x="0" y="584.17" style="font-family: 'New Computer Modern'; font-size: 15px; fill: rgb(42, 63, 95); fill-opacity: 1; white-space: pre; opacity: 1;" transform="translate(599.88,0)">7π/2</text></g><g class="x2tick"><text text-anchor="middle" x="0" y="584.17" style="font-family: 'New Computer Modern'; font-size: 15px; fill: rgb(42, 63, 95); fill-opacity: 1; white-space: pre; opacity: 1;" transform="translate(681,0)">4π</text></g></g><g class="yaxislayer-above"><g class="y2tick"><text text-anchor="end" x="31" y="5.25" transform="translate(0,568.17)" style="font-family: 'New Computer Modern'; font-size: 15px; fill: rgb(42, 63, 95); fill-opacity: 1; white-space: pre; opacity: 1;">−1.5</text></g><g class="y2tick"><text text-anchor="end" x="31" y="5.25" style="font-family: 'New Computer Modern'; font-size: 15px; fill: rgb(42, 63, 95); fill-opacity: 1; white-space: pre; opacity: 1;" transform="translate(0,528.95)">−1</text></g><g class="y2tick"><text text-anchor="end" x="31" y="5.25" style="font-family: 'New Computer Modern'; font-size: 15px; fill: rgb(42, 63, 95); fill-opacity: 1; white-space: pre; opacity: 1;" transform="translate(0,489.71999999999997)">−0.5</text></g><g class="y2tick"><text text-anchor="end" x="31" y="5.25" style="font-family: 'New Computer Modern'; font-size: 15px; fill: rgb(42, 63, 95); fill-opacity: 1; white-space: pre; opacity: 1;" transform="translate(0,450.5)">0</text></g><g class="y2tick"><text text-anchor="end" x="31" y="5.25" style="font-family: 'New Computer Modern'; font-size: 15px; fill: rgb(42, 63, 95); fill-opacity: 1; white-space: pre; opacity: 1;" transform="translate(0,411.28)">0.5</text></g><g class="y2tick"><text text-anchor="end" x="31" y="5.25" style="font-family: 'New Computer Modern'; font-size: 15px; fill: rgb(42, 63, 95); fill-opacity: 1; white-space: pre; opacity: 1;" transform="translate(0,372.04999999999995)">1</text></g><g class="y2tick"><text text-anchor="end" x="31" y="5.25" style="font-family: 'New Computer Modern'; font-size: 15px; fill: rgb(42, 63, 95); fill-opacity: 1; white-space: pre; opacity: 1;" transform="translate(0,332.83)">1.5</text></g></g><g class="overaxes-above"/></g><g class="subplot x3y3"><g class="layer-subplot"><g class="shapelayer"/><g class="imagelayer"/></g><g class="minor-gridlayer"><g class="x3"/><g class="y3"/></g><g class="gridlayer"><g class="x3"><path class="x3grid crisp" transform="translate(113.13,0)" d="M0,645.66v235.34000000000003" style="stroke: rgb(255, 255, 255); stroke-opacity: 1; stroke-width: 1px;"/><path class="x3grid crisp" transform="translate(194.25,0)" d="M0,645.66v235.34000000000003" style="stroke: rgb(255, 255, 255); stroke-opacity: 1; stroke-width: 1px;"/><path class="x3grid crisp" transform="translate(275.38,0)" d="M0,645.66v235.34000000000003" style="stroke: rgb(255, 255, 255); stroke-opacity: 1; stroke-width: 1px;"/><path class="x3grid crisp" transform="translate(356.5,0)" d="M0,645.66v235.34000000000003" style="stroke: rgb(255, 255, 255); stroke-opacity: 1; stroke-width: 1px;"/><path class="x3grid crisp" transform="translate(437.63,0)" d="M0,645.66v235.34000000000003" style="stroke: rgb(255, 255, 255); stroke-opacity: 1; stroke-width: 1px;"/><path class="x3grid crisp" transform="translate(518.75,0)" d="M0,645.66v235.34000000000003" style="stroke: rgb(255, 255, 255); stroke-opacity: 1; stroke-width: 1px;"/><path class="x3grid crisp" transform="translate(599.88,0)" d="M0,645.66v235.34000000000003" style="stroke: rgb(255, 255, 255); stroke-opacity: 1; stroke-width: 1px;"/></g><g class="y3"><path class="y3grid crisp" transform="translate(0,841.78)" d="M32,0h649" style="stroke: rgb(255, 255, 255); stroke-opacity: 1; stroke-width: 1px;"/><path class="y3grid crisp" transform="translate(0,802.55)" d="M32,0h649" style="stroke: rgb(255, 255, 255); stroke-opacity: 1; stroke-width: 1px;"/><path class="y3grid crisp" transform="translate(0,724.11)" d="M32,0h649" style="stroke: rgb(255, 255, 255); stroke-opacity: 1; stroke-width: 1px;"/><path class="y3grid crisp" transform="translate(0,684.88)" d="M32,0h649" style="stroke: rgb(255, 255, 255); stroke-opacity: 1; stroke-width: 1px;"/></g></g><g class="zerolinelayer"><path class="x3zl zl crisp" transform="translate(32,0)" d="M0,645.66v235.34000000000003" style="stroke: rgb(255, 255, 255); stroke-opacity: 1; stroke-width: 2px;"/><path class="y3zl zl crisp" transform="translate(0,763.3299999999999)" d="M32,0h649" style="stroke: rgb(255, 255, 255); stroke-opacity: 1; stroke-width: 2px;"/></g><g class="layer-between"><g class="shapelayer"/><g class="imagelayer"/></g><path class="xlines-below"/><path class="ylines-below"/><g class="overlines-below"/><g class="xaxislayer-below"/><g class="yaxislayer-below"/><g class="overaxes-below"/><g class="overplot"><g class="x3y3" transform="translate(32,645.66)" clip-path="url(#clip0f4cf2x3y3plot)"><g class="scatterlayer mlayer"><g class="trace scatter tracef14a58" style="stroke-miterlimit: 2; opacity: 1;"><g class="fills"/><g class="errorbars"/><g class="lines"><path class="js-line" d="M0,117.67L23.39,151.99L24.04,152.88L37.03,169.22L37.68,169.96L48.07,180.59L48.72,181.18L57.82,188.26L58.47,188.69L66.91,193.17L67.56,193.43L75.36,195.63L76.01,195.73L83.16,196.06L83.8,196.01L90.95,194.7L91.6,194.51L99.4,191.26L100.05,190.91L107.84,185.85L108.49,185.36L117.59,177.37L118.24,176.72L127.98,165.99L128.63,165.2L139.67,150.88L140.32,149.98L157.22,125.31L157.86,124.32L187.75,80.49L188.4,79.63L200.74,64.47L201.39,63.75L211.14,54.02L211.79,53.45L220.23,46.97L220.88,46.55L228.68,42.38L229.33,42.11L237.12,39.8L237.77,39.68L244.92,39.26L245.57,39.29L252.71,40.5L253.36,40.69L260.51,43.5L261.16,43.83L268.95,48.65L269.6,49.12L278.7,56.87L279.35,57.5L288.44,67.25L289.09,68.01L300.14,82.02L300.79,82.9L317.03,106.36L317.68,107.34L350.16,155.06L350.81,155.93L363.15,171.05L363.8,171.77L374.2,182.04L374.85,182.59L383.94,189.3L384.59,189.7L392.39,193.55L393.04,193.8L400.83,195.78L401.48,195.86L407.98,196.04L408.63,195.98L415.78,194.61L416.43,194.41L423.57,191.43L424.22,191.09L432.67,185.61L433.32,185.11L442.41,177.04L443.06,176.39L452.81,165.6L453.46,164.81L465.15,149.53L465.8,148.63L483.34,122.85L483.99,121.86L511.92,80.93L512.57,80.06L524.92,64.83L525.57,64.11L535.31,54.31L535.96,53.73L544.41,47.18L545.06,46.76L552.85,42.52L553.5,42.24L561.3,39.86L561.95,39.74L569.09,39.25L569.74,39.27L577.54,40.59L578.19,40.78L585.33,43.66L585.98,44L593.78,48.89L594.43,49.37L602.87,56.56L603.52,57.18L613.27,67.62L613.92,68.39L625.61,83.35L626.26,84.24L641.85,106.85L642.5,107.83L649,117.67" style="vector-effect: none; fill: none; stroke: rgb(44, 160, 44); stroke-opacity: 1; stroke-width: 2px; opacity: 1;"/></g><g class="points"/><g class="text"/></g><g class="trace scatter trace550c73" style="stroke-miterlimit: 2; opacity: 1;"><g class="fills"/><g class="errorbars"/><g class="lines"/><g class="points"><path class="point" transform="translate(81.13,196.12)" d="M5,0A5,5 0 1,1 0,-5A5,5 0 0,1 5,0Z" style="opacity: 1; stroke-width: 0px; fill: rgb(44, 160, 44); fill-opacity: 1;"/><path class="point" transform="translate(405.63,196.12)" d="M5,0A5,5 0 1,1 0,-5A5,5 0 0,1 5,0Z" style="opacity: 1; stroke-width: 0px; fill: rgb(44, 160, 44); fill-opacity: 1;"/></g><g class="text"/></g><g class="trace scatter trace1794f5" style="stroke-miterlimit: 2; opacity: 1;"><g class="fills"/><g class="errorbars"/><g class="lines"/><g class="points"><path class="point" transform="translate(243.38,39.22)" d="M5,0A5,5 0 1,1 0,-5A5,5 0 0,1 5,0Z" style="opacity: 1; stroke-width: 0px; fill: rgb(214, 39, 40); fill-opacity: 1;"/><path class="point" transform="translate(567.88,39.22)" d="M5,0A5,5 0 1,1 0,-5A5,5 0 0,1 5,0Z" style="opacity: 1; stroke-width: 0px; fill: rgb(214, 39, 40); fill-opacity: 1;"/></g><g class="text"/></g></g></g></g><path class="xlines-above crisp" d="M0,0" style="fill: none;"/><path class="ylines-above crisp" d="M0,0" style="fill: none;"/><g class="overlines-above"/><g class="xaxislayer-above"><g class="x3tick"><text text-anchor="middle" x="0" y="897" transform="translate(32,0)" style="font-family: 'New Computer Modern'; font-size: 15px; fill: rgb(42, 63, 95); fill-opacity: 1; white-space: pre; opacity: 1;">0</text></g><g class="x3tick"><text text-anchor="middle" x="0" y="897" style="font-family: 'New Computer Modern'; font-size: 15px; fill: rgb(42, 63, 95); fill-opacity: 1; white-space: pre; opacity: 1;" transform="translate(113.13,0)">π/2</text></g><g class="x3tick"><text text-anchor="middle" x="0" y="897" style="font-family: 'New Computer Modern'; font-size: 15px; fill: rgb(42, 63, 95); fill-opacity: 1; white-space: pre; opacity: 1;" transform="translate(194.25,0)">π</text></g><g class="x3tick"><text text-anchor="middle" x="0" y="897" style="font-family: 'New Computer Modern'; font-size: 15px; fill: rgb(42, 63, 95); fill-opacity: 1; white-space: pre; opacity: 1;" transform="translate(275.38,0)">3π/2</text></g><g class="x3tick"><text text-anchor="middle" x="0" y="897" style="font-family: 'New Computer Modern'; font-size: 15px; fill: rgb(42, 63, 95); fill-opacity: 1; white-space: pre; opacity: 1;" transform="translate(356.5,0)">2π</text></g><g class="x3tick"><text text-anchor="middle" x="0" y="897" style="font-family: 'New Computer Modern'; font-size: 15px; fill: rgb(42, 63, 95); fill-opacity: 1; white-space: pre; opacity: 1;" transform="translate(437.63,0)">5π/2</text></g><g class="x3tick"><text text-anchor="middle" x="0" y="897" style="font-family: 'New Computer Modern'; font-size: 15px; fill: rgb(42, 63, 95); fill-opacity: 1; white-space: pre; opacity: 1;" transform="translate(518.75,0)">3π</text></g><g class="x3tick"><text text-anchor="middle" x="0" y="897" style="font-family: 'New Computer Modern'; font-size: 15px; fill: rgb(42, 63, 95); fill-opacity: 1; white-space: pre; opacity: 1;" transform="translate(599.88,0)">7π/2</text></g><g class="x3tick"><text text-anchor="middle" x="0" y="897" style="font-family: 'New Computer Modern'; font-size: 15px; fill: rgb(42, 63, 95); fill-opacity: 1; white-space: pre; opacity: 1;" transform="translate(681,0)">4π</text></g></g><g class="yaxislayer-above"><g class="y3tick"><text text-anchor="end" x="31" y="5.25" transform="translate(0,881)" style="font-family: 'New Computer Modern'; font-size: 15px; fill: rgb(42, 63, 95); fill-opacity: 1; white-space: pre; opacity: 1;">−1.5</text></g><g class="y3tick"><text text-anchor="end" x="31" y="5.25" style="font-family: 'New Computer Modern'; font-size: 15px; fill: rgb(42, 63, 95); fill-opacity: 1; white-space: pre; opacity: 1;" transform="translate(0,841.78)">−1</text></g><g class="y3tick"><text text-anchor="end" x="31" y="5.25" style="font-family: 'New Computer Modern'; font-size: 15px; fill: rgb(42, 63, 95); fill-opacity: 1; white-space: pre; opacity: 1;" transform="translate(0,802.55)">−0.5</text></g><g class="y3tick"><text text-anchor="end" x="31" y="5.25" style="font-family: 'New Computer Modern'; font-size: 15px; fill: rgb(42, 63, 95); fill-opacity: 1; white-space: pre; opacity: 1;" transform="translate(0,763.3299999999999)">0</text></g><g class="y3tick"><text text-anchor="end" x="31" y="5.25" style="font-family: 'New Computer Modern'; font-size: 15px; fill: rgb(42, 63, 95); fill-opacity: 1; white-space: pre; opacity: 1;" transform="translate(0,724.11)">0.5</text></g><g class="y3tick"><text text-anchor="end" x="31" y="5.25" style="font-family: 'New Computer Modern'; font-size: 15px; fill: rgb(42, 63, 95); fill-opacity: 1; white-space: pre; opacity: 1;" transform="translate(0,684.88)">1</text></g><g class="y3tick"><text text-anchor="end" x="31" y="5.25" style="font-family: 'New Computer Modern'; font-size: 15px; fill: rgb(42, 63, 95); fill-opacity: 1; white-space: pre; opacity: 1;" transform="translate(0,645.66)">1.5</text></g></g><g class="overaxes-above"/></g></g><g class="polarlayer"/><g class="smithlayer"/><g class="ternarylayer"/><g class="geolayer"/><g class="funnelarealayer"/><g class="pielayer"/><g class="iciclelayer"/><g class="treemaplayer"/><g class="sunburstlayer"/><g class="glimages"/><defs id="topdefs-0f4cf2"><g class="clips"/><clipPath id="legend0f4cf2"><rect width="206" height="190" x="0" y="0"/></clipPath></defs><g class="layer-above"><g class="imagelayer"/><g class="shapelayer"/></g><g class="infolayer"><g class="legend" pointer-events="all" transform="translate(693.98,20)"><rect class="bg" shape-rendering="crispEdges" style="stroke: rgb(68, 68, 68); stroke-opacity: 1; fill: rgb(0, 0, 0); fill-opacity: 0; stroke-width: 0px;" width="206" height="190" x="0" y="0"/><g class="scrollbox" transform="" clip-path="url(#legend0f4cf2)"><g class="groups"><g class="traces" transform="translate(0,16.25)" style="opacity: 1;"><text class="legendtext" text-anchor="start" x="40" y="5.85" style="font-family: 'New Computer Modern'; font-size: 15px; fill: rgb(42, 63, 95); fill-opacity: 1; white-space: pre;">sin(x)</text><g class="layers" style="opacity: 1;"><g class="legendfill"/><g class="legendlines"><path class="js-line" d="M5,0h30" style="fill: none; stroke: rgb(31, 119, 180); stroke-opacity: 1; stroke-width: 2px;"/></g><g class="legendsymbols"><g class="legendpoints"/></g></g><rect class="legendtoggle" x="0" y="-11.25" width="200.71875" height="22.5" style="fill: rgb(0, 0, 0); fill-opacity: 0;"/></g><g class="traces" transform="translate(0,38.75)" style="opacity: 1;"><text class="legendtext" text-anchor="start" x="40" y="5.85" style="font-family: 'New Computer Modern'; font-size: 15px; fill: rgb(42, 63, 95); fill-opacity: 1; white-space: pre;">Global &amp; Local Maximum</text><g class="layers" style="opacity: 1;"><g class="legendfill"/><g class="legendlines"/><g class="legendsymbols"><g class="legendpoints"><path class="scatterpts" transform="translate(20,0)" d="M5,0A5,5 0 1,1 0,-5A5,5 0 0,1 5,0Z" style="opacity: 1; stroke-width: 0px; fill: rgb(44, 160, 44); fill-opacity: 1;"/></g></g></g><rect class="legendtoggle" x="0" y="-11.25" width="200.71875" height="22.5" style="fill: rgb(0, 0, 0); fill-opacity: 0;"/></g><g class="traces" transform="translate(0,61.25)" style="opacity: 1;"><text class="legendtext" text-anchor="start" x="40" y="5.85" style="font-family: 'New Computer Modern'; font-size: 15px; fill: rgb(42, 63, 95); fill-opacity: 1; white-space: pre;">Global &amp; Local Minimum</text><g class="layers" style="opacity: 1;"><g class="legendfill"/><g class="legendlines"/><g class="legendsymbols"><g class="legendpoints"><path class="scatterpts" transform="translate(20,0)" d="M5,0A5,5 0 1,1 0,-5A5,5 0 0,1 5,0Z" style="opacity: 1; stroke-width: 0px; fill: rgb(214, 39, 40); fill-opacity: 1;"/></g></g></g><rect class="legendtoggle" x="0" y="-11.25" width="200.71875" height="22.5" style="fill: rgb(0, 0, 0); fill-opacity: 0;"/></g><g class="traces" transform="translate(0,83.75)" style="opacity: 1;"><text class="legendtext" text-anchor="start" x="40" y="5.85" style="font-family: 'New Computer Modern'; font-size: 15px; fill: rgb(42, 63, 95); fill-opacity: 1; white-space: pre;">cos(x)</text><g class="layers" style="opacity: 1;"><g class="legendfill"/><g class="legendlines"><path class="js-line" d="M5,0h30" style="fill: none; stroke: rgb(255, 127, 14); stroke-opacity: 1; stroke-width: 2px;"/></g><g class="legendsymbols"><g class="legendpoints"/></g></g><rect class="legendtoggle" x="0" y="-11.25" width="200.71875" height="22.5" style="fill: rgb(0, 0, 0); fill-opacity: 0;"/></g><g class="traces" transform="translate(0,106.25)" style="opacity: 1;"><text class="legendtext" text-anchor="start" x="40" y="5.85" style="font-family: 'New Computer Modern'; font-size: 15px; fill: rgb(42, 63, 95); fill-opacity: 1; white-space: pre;">f'(x) = 0</text><g class="layers" style="opacity: 1;"><g class="legendfill"/><g class="legendlines"/><g class="legendsymbols"><g class="legendpoints"><path class="scatterpts" transform="translate(20,0)" d="M5,0A5,5 0 1,1 0,-5A5,5 0 0,1 5,0Z" style="opacity: 1; stroke-width: 0px; fill: rgb(148, 103, 189); fill-opacity: 1;"/></g></g></g><rect class="legendtoggle" x="0" y="-11.25" width="200.71875" height="22.5" style="fill: rgb(0, 0, 0); fill-opacity: 0;"/></g><g class="traces" transform="translate(0,128.75)" style="opacity: 1;"><text class="legendtext" text-anchor="start" x="40" y="5.85" style="font-family: 'New Computer Modern'; font-size: 15px; fill: rgb(42, 63, 95); fill-opacity: 1; white-space: pre;">-sin(x)</text><g class="layers" style="opacity: 1;"><g class="legendfill"/><g class="legendlines"><path class="js-line" d="M5,0h30" style="fill: none; stroke: rgb(44, 160, 44); stroke-opacity: 1; stroke-width: 2px;"/></g><g class="legendsymbols"><g class="legendpoints"/></g></g><rect class="legendtoggle" x="0" y="-11.25" width="200.71875" height="22.5" style="fill: rgb(0, 0, 0); fill-opacity: 0;"/></g><g class="traces" transform="translate(0,151.25)" style="opacity: 1;"><text class="legendtext" text-anchor="start" x="40" y="5.85" style="font-family: 'New Computer Modern'; font-size: 15px; fill: rgb(42, 63, 95); fill-opacity: 1; white-space: pre;">f''(x) &#60; 0 at Maximum</text><g class="layers" style="opacity: 1;"><g class="legendfill"/><g class="legendlines"/><g class="legendsymbols"><g class="legendpoints"><path class="scatterpts" transform="translate(20,0)" d="M5,0A5,5 0 1,1 0,-5A5,5 0 0,1 5,0Z" style="opacity: 1; stroke-width: 0px; fill: rgb(44, 160, 44); fill-opacity: 1;"/></g></g></g><rect class="legendtoggle" x="0" y="-11.25" width="200.71875" height="22.5" style="fill: rgb(0, 0, 0); fill-opacity: 0;"/></g><g class="traces" transform="translate(0,173.75)" style="opacity: 1;"><text class="legendtext" text-anchor="start" x="40" y="5.85" style="font-family: 'New Computer Modern'; font-size: 15px; fill: rgb(42, 63, 95); fill-opacity: 1; white-space: pre;">f''(x) > 0 at Minimum</text><g class="layers" style="opacity: 1;"><g class="legendfill"/><g class="legendlines"/><g class="legendsymbols"><g class="legendpoints"><path class="scatterpts" transform="translate(20,0)" d="M5,0A5,5 0 1,1 0,-5A5,5 0 0,1 5,0Z" style="opacity: 1; stroke-width: 0px; fill: rgb(214, 39, 40); fill-opacity: 1;"/></g></g></g><rect class="legendtoggle" x="0" y="-11.25" width="200.71875" height="22.5" style="fill: rgb(0, 0, 0); fill-opacity: 0;"/></g></g></g><rect class="scrollbar" rx="20" ry="3" width="0" height="0" style="fill: rgb(128, 139, 164); fill-opacity: 1;" x="0" y="0"/></g><g class="g-gtitle"/><g class="g-xtitle"/><g class="g-x2title"/><g class="g-x3title"/><g class="g-ytitle"/><g class="g-y2title"/><g class="g-y3title"/><g class="annotation" data-index="0" style="opacity: 1;"><g class="annotation-text-g" transform="rotate(0,356.5,8.999999999999996)"><g class="cursor-pointer" transform="translate(303,-2)"><rect class="bg" x="0.5" y="0.5" width="106" height="21" style="stroke-width: 1px; stroke: rgb(0, 0, 0); stroke-opacity: 0; fill: rgb(0, 0, 0); fill-opacity: 0;"/><text class="annotation-text" text-anchor="middle" x="53.34375" y="16" style="font-family: 'New Computer Modern'; font-size: 16px; fill: rgb(42, 63, 95); fill-opacity: 1; white-space: pre;">Function: sin(x)</text></g></g></g><g class="annotation" data-index="1" style="opacity: 1;"><g class="annotation-text-g" transform="rotate(0,356.5,321.83)"><g class="cursor-pointer" transform="translate(280,311)"><rect class="bg" x="0.5" y="0.5" width="152" height="21" style="stroke-width: 1px; stroke: rgb(0, 0, 0); stroke-opacity: 0; fill: rgb(0, 0, 0); fill-opacity: 0;"/><text class="annotation-text" text-anchor="middle" x="76.65625" y="16" style="font-family: 'New Computer Modern'; font-size: 16px; fill: rgb(42, 63, 95); fill-opacity: 1; white-space: pre;">First Derivative: cos(x)</text></g></g></g><g class="annotation" data-index="2" style="opacity: 1;"><g class="annotation-text-g" transform="rotate(0,356.5,634.66)"><g class="cursor-pointer" transform="translate(270,624)"><rect class="bg" x="0.5" y="0.5" width="173" height="21" style="stroke-width: 1px; stroke: rgb(0, 0, 0); stroke-opacity: 0; fill: rgb(0, 0, 0); fill-opacity: 0;"/><text class="annotation-text" text-anchor="middle" x="86.875" y="16" style="font-family: 'New Computer Modern'; font-size: 16px; fill: rgb(42, 63, 95); fill-opacity: 1; white-space: pre;">Second Derivative: -sin(x)</text></g></g></g></g></svg>