<svg class="main-svg" xmlns="http://www.w3.org/2000/svg" xmlns:xlink="http://www.w3.org/1999/xlink" width="900" height="900" style="" viewBox="0 0 900 900"><rect x="0" y="0" width="900" height="900" style="fill: rgb(0, 0, 0); fill-opacity: 0;"/><defs id="defs-7387ad"><g class="clips"><clipPath id="clip7387adxyplot" class="plotclip"><rect width="649" height="241.08"/></clipPath><clipPath id="clip7387adx2y2plot" class="plotclip"><rect width="649" height="241.07999999999993"/></clipPath><clipPath id="clip7387adx3y3plot" class="plotclip"><rect width="649" height="241.07999999999998"/></clipPath><clipPath class="axesclip" id="clip7387adx"><rect x="32" y="0" width="649" height="900"/></clipPath><clipPath class="axesclip" id="clip7387ady"><rect x="0" y="20" width="900" height="241.08"/></clipPath><clipPath class="axesclip" id="clip7387adxy"><rect x="32" y="20" width="649" height="241.08"/></clipPath><clipPath class="axesclip" id="clip7387ady2"><rect x="0" y="329.9600000000001" width="900" height="241.07999999999993"/></clipPath><clipPath class="axesclip" id="clip7387adxy2"><rect x="32" y="329.9600000000001" width="649" height="241.07999999999993"/></clipPath><clipPath class="axesclip" id="clip7387ady3"><rect x="0" y="639.92" width="900" height="241.07999999999998"/></clipPath><clipPath class="axesclip" id="clip7387adxy3"><rect x="32" y="639.92" width="649" height="241.07999999999998"/></clipPath><clipPath class="axesclip" id="clip7387adx2"><rect x="32" y="0" width="649" height="900"/></clipPath><clipPath class="axesclip" id="clip7387adx2y"><rect x="32" y="20" width="649" height="241.08"/></clipPath><clipPath class="axesclip" id="clip7387adx2y2"><rect x="32" y="329.9600000000001" width="649" height="241.07999999999993"/></clipPath><clipPath class="axesclip" id="clip7387adx2y3"><rect x="32" y="639.92" width="649" height="241.07999999999998"/></clipPath><clipPath class="axesclip" id="clip7387adx3"><rect x="32" y="0" width="649" height="900"/></clipPath><clipPath class="axesclip" id="clip7387adx3y"><rect x="32" y="20" width="649" height="241.08"/></clipPath><clipPath class="axesclip" id="clip7387adx3y2"><rect x="32" y="329.9600000000001" width="649" height="241.07999999999993"/></clipPath><clipPath class="axesclip" id="clip7387adx3y3"><rect x="32" y="639.92" width="649" height="241.07999999999998"/></clipPath></g><g class="gradients"/><g class="patterns"/></defs><g class="bglayer"><rect class="bg" x="32" y="20" width="649" height="241.08" style="fill: rgb(229, 236, 246); fill-opacity: 1; stroke-width: 0;"/><rect class="bg" x="32" y="329.9600000000001" width="649" height="241.07999999999993" style="fill: rgb(229, 236, 246); fill-opacity: 1; stroke-width: 0;"/><rect class="bg" x="32" y="639.92" width="649" height="241.07999999999998" style="fill: rgb(229, 236, 246); fill-opacity: 1; stroke-width: 0;"/></g><g class="layer-below"><g class="imagelayer"/><g class="shapelayer"/></g><g class="cartesianlayer"><g class="subplot xy"><g class="layer-subplot"><g class="shapelayer"/><g class="imagelayer"/></g><g class="minor-gridlayer"><g class="x"/><g class="y"/></g><g class="gridlayer"><g class="x"><path class="xgrid crisp" transform="translate(113.13,0)" d="M0,20v241.08" style="stroke: rgb(255, 255, 255); stroke-opacity: 1; stroke-width: 1px;"/><path class="xgrid crisp" transform="translate(194.25,0)" d="M0,20v241.08" style="stroke: rgb(255, 255, 255); stroke-opacity: 1; stroke-width: 1px;"/><path class="xgrid crisp" transform="translate(275.38,0)" d="M0,20v241.08" style="stroke: rgb(255, 255, 255); stroke-opacity: 1; stroke-width: 1px;"/><path class="xgrid crisp" transform="translate(356.5,0)" d="M0,20v241.08" style="stroke: rgb(255, 255, 255); stroke-opacity: 1; stroke-width: 1px;"/><path class="xgrid crisp" transform="translate(437.63,0)" d="M0,20v241.08" style="stroke: rgb(255, 255, 255); stroke-opacity: 1; stroke-width: 1px;"/><path class="xgrid crisp" transform="translate(518.75,0)" d="M0,20v241.08" style="stroke: rgb(255, 255, 255); stroke-opacity: 1; stroke-width: 1px;"/><path class="xgrid crisp" transform="translate(599.88,0)" d="M0,20v241.08" style="stroke: rgb(255, 255, 255); stroke-opacity: 1; stroke-width: 1px;"/></g><g class="y"><path class="ygrid crisp" transform="translate(0,220.9)" d="M32,0h649" style="stroke: rgb(255, 255, 255); stroke-opacity: 1; stroke-width: 1px;"/><path class="ygrid crisp" transform="translate(0,180.72)" d="M32,0h649" style="stroke: rgb(255, 255, 255); stroke-opacity: 1; stroke-width: 1px;"/><path class="ygrid crisp" transform="translate(0,100.36)" d="M32,0h649" style="stroke: rgb(255, 255, 255); stroke-opacity: 1; stroke-width: 1px;"/><path class="ygrid crisp" transform="translate(0,60.18)" d="M32,0h649" style="stroke: rgb(255, 255, 255); stroke-opacity: 1; stroke-width: 1px;"/></g></g><g class="zerolinelayer"><path class="yzl zl crisp" transform="translate(0,140.54000000000002)" d="M32,0h649" style="stroke: rgb(255, 255, 255); stroke-opacity: 1; stroke-width: 2px;"/></g><g class="layer-between"><g class="shapelayer"/><g class="imagelayer"/></g><path class="xlines-below"/><path class="ylines-below"/><g class="overlines-below"/><g class="xaxislayer-below"/><g class="yaxislayer-below"/><g class="overaxes-below"/><g class="overplot"><g class="xy" transform="translate(32,20)" clip-path="url(#clip7387adxyplot)"><g class="scatterlayer mlayer"><g class="trace scatter tracefddd3c" style="stroke-miterlimit: 2; opacity: 1;"><g class="fills"/><g class="errorbars"/><g class="lines"><path class="js-line" d="M0,120.54L24.04,84.47L24.69,83.57L37.68,66.98L38.33,66.23L48.72,55.48L49.37,54.89L58.47,47.79L59.12,47.37L66.91,43.2L67.56,42.93L75.36,40.68L76.01,40.57L83.16,40.24L83.8,40.29L90.95,41.63L91.6,41.83L98.75,44.81L99.4,45.16L107.19,50.2L107.84,50.69L116.94,58.74L117.59,59.39L127.33,70.25L127.98,71.05L139.67,86.52L140.32,87.44L156.57,111.71L157.22,112.72L185.15,155.02L185.8,155.93L199.44,173.54L200.09,174.29L210.49,185.15L211.14,185.75L220.23,192.97L220.88,193.4L228.68,197.67L229.33,197.95L237.12,200.31L237.77,200.43L244.92,200.86L245.57,200.83L252.71,199.59L253.36,199.4L260.51,196.52L261.16,196.18L268.31,191.72L268.95,191.24L277.4,184.08L278.05,183.46L288.44,172.19L289.09,171.42L301.44,155.24L302.09,154.33L318.33,130.12L318.98,129.12L348.86,84.02L349.51,83.13L361.21,68.12L361.85,67.35L372.25,56.38L372.9,55.78L381.99,48.45L382.64,48.01L390.44,43.63L391.09,43.34L398.88,40.86L399.53,40.74L406.68,40.2L407.33,40.22L414.48,41.36L415.13,41.54L422.27,44.32L422.92,44.64L430.72,49.48L431.37,49.96L439.81,57.15L440.46,57.78L450.21,68.31L450.86,69.08L462.55,84.25L463.2,85.15L478.79,108.21L479.44,109.21L512.57,159.07L513.22,159.95L525.57,175.41L526.22,176.14L535.96,186.04L536.61,186.62L545.71,193.61L546.36,194.02L554.15,198.08L554.8,198.34L561.95,200.37L562.6,200.48L569.74,200.85L570.39,200.8L577.54,199.5L578.19,199.3L585.33,196.35L585.98,196.01L593.78,191L594.43,190.51L602.87,183.14L603.52,182.5L613.27,171.81L613.92,171.02L625.61,155.7L626.26,154.79L643.15,129.62L643.8,128.61L649,120.54" style="vector-effect: none; fill: none; stroke: rgb(31, 119, 180); stroke-opacity: 1; stroke-width: 2px; opacity: 1;"/></g><g class="points"/><g class="text"/></g><g class="trace scatter trace6e4d6a" style="stroke-miterlimit: 2; opacity: 1;"><g class="fills"/><g class="errorbars"/><g class="lines"/><g class="points"><path class="point" transform="translate(81.13,40.18)" d="M5,0A5,5 0 1,1 0,-5A5,5 0 0,1 5,0Z" style="opacity: 1; stroke-width: 0px; fill: rgb(44, 160, 44); fill-opacity: 1;"/><path class="point" transform="translate(405.63,40.18)" d="M5,0A5,5 0 1,1 0,-5A5,5 0 0,1 5,0Z" style="opacity: 1; stroke-width: 0px; fill: rgb(44, 160, 44); fill-opacity: 1;"/></g><g class="text"><g class="textpoint" transform="translate(0,-11)"><text x="81.13" y="40.18" text-anchor="middle" style="font-family: 'New Computer Modern'; font-size: 15px; fill: rgb(42, 63, 95); fill-opacity: 1; white-space: pre;">Global Maximum (y=1)</text></g><g class="textpoint" transform="translate(0,-11)"><text x="405.63" y="40.18" text-anchor="middle" style="font-family: 'New Computer Modern'; font-size: 15px; fill: rgb(42, 63, 95); fill-opacity: 1; white-space: pre;">Global Maximum (y=1)</text></g></g></g><g class="trace scatter trace3fdc36" style="stroke-miterlimit: 2; opacity: 1;"><g class="fills"/><g class="errorbars"/><g class="lines"/><g class="points"><path class="point" transform="translate(243.38,200.9)" d="M5,0A5,5 0 1,1 0,-5A5,5 0 0,1 5,0Z" style="opacity: 1; stroke-width: 0px; fill: rgb(214, 39, 40); fill-opacity: 1;"/><path class="point" transform="translate(567.88,200.9)" d="M5,0A5,5 0 1,1 0,-5A5,5 0 0,1 5,0Z" style="opacity: 1; stroke-width: 0px; fill: rgb(214, 39, 40); fill-opacity: 1;"/></g><g class="text"><g class="textpoint" transform="translate(0,18.5)"><text x="243.38" y="200.9" text-anchor="middle" style="font-family: 'New Computer Modern'; font-size: 15px; fill: rgb(42, 63, 95); fill-opacity: 1; white-space: pre;">Global Minimum (y=-1)</text></g><g class="textpoint" transform="translate(0,18.5)"><text x="567.88" y="200.9" text-anchor="middle" style="font-family: 'New Computer Modern'; font-size: 15px; fill: rgb(42, 63, 95); fill-opacity: 1; white-space: pre;">Global Minimum (y=-1)</text></g></g></g></g></g></g><path class="xlines-above crisp" d="M30,262.08000000000004H681" style="fill: none; stroke-width: 2px; stroke: rgb(255, 255, 255); stroke-opacity: 1;"/><path class="ylines-above crisp" d="M31,20V261.08000000000004" style="fill: none; stroke-width: 2px; stroke: rgb(255, 255, 255); stroke-opacity: 1;"/><g class="overlines-above"/><g class="xaxislayer-above"><g class="xtick"><text text-anchor="middle" x="0" y="281.08000000000004" transform="translate(32,0)" style="font-family: 'New Computer Modern'; font-size: 15px; fill: rgb(42, 63, 95); fill-opacity: 1; white-space: pre; opacity: 1;">0</text></g><g class="xtick"><text text-anchor="middle" x="0" y="281.08000000000004" style="font-family: 'New Computer Modern'; font-size: 15px; fill: rgb(42, 63, 95); fill-opacity: 1; white-space: pre; opacity: 1;" transform="translate(113.13,0)">π/2</text></g><g class="xtick"><text text-anchor="middle" x="0" y="281.08000000000004" style="font-family: 'New Computer Modern'; font-size: 15px; fill: rgb(42, 63, 95); fill-opacity: 1; white-space: pre; opacity: 1;" transform="translate(194.25,0)">π</text></g><g class="xtick"><text text-anchor="middle" x="0" y="281.08000000000004" style="font-family: 'New Computer Modern'; font-size: 15px; fill: rgb(42, 63, 95); fill-opacity: 1; white-space: pre; opacity: 1;" transform="translate(275.38,0)">3π/2</text></g><g class="xtick"><text text-anchor="middle" x="0" y="281.08000000000004" style="font-family: 'New Computer Modern'; font-size: 15px; fill: rgb(42, 63, 95); fill-opacity: 1; white-space: pre; opacity: 1;" transform="translate(356.5,0)">2π</text></g><g class="xtick"><text text-anchor="middle" x="0" y="281.08000000000004" style="font-family: 'New Computer Modern'; font-size: 15px; fill: rgb(42, 63, 95); fill-opacity: 1; white-space: pre; opacity: 1;" transform="translate(437.63,0)">5π/2</text></g><g class="xtick"><text text-anchor="middle" x="0" y="281.08000000000004" style="font-family: 'New Computer Modern'; font-size: 15px; fill: rgb(42, 63, 95); fill-opacity: 1; white-space: pre; opacity: 1;" transform="translate(518.75,0)">3π</text></g><g class="xtick"><text text-anchor="middle" x="0" y="281.08000000000004" style="font-family: 'New Computer Modern'; font-size: 15px; fill: rgb(42, 63, 95); fill-opacity: 1; white-space: pre; opacity: 1;" transform="translate(599.88,0)">7π/2</text></g><g class="xtick"><text text-anchor="middle" x="0" y="281.08000000000004" style="font-family: 'New Computer Modern'; font-size: 15px; fill: rgb(42, 63, 95); fill-opacity: 1; white-space: pre; opacity: 1;" transform="translate(681,0)">4π</text></g></g><g class="yaxislayer-above"><g class="ytick"><text text-anchor="end" x="27" y="5.25" transform="translate(0,261.08000000000004)" style="font-family: 'New Computer Modern'; font-size: 15px; fill: rgb(42, 63, 95); fill-opacity: 1; white-space: pre; opacity: 1;">−1.5</text></g><g class="ytick"><text text-anchor="end" x="27" y="5.25" style="font-family: 'New Computer Modern'; font-size: 15px; fill: rgb(42, 63, 95); fill-opacity: 1; white-space: pre; opacity: 1;" transform="translate(0,220.9)">−1</text></g><g class="ytick"><text text-anchor="end" x="27" y="5.25" style="font-family: 'New Computer Modern'; font-size: 15px; fill: rgb(42, 63, 95); fill-opacity: 1; white-space: pre; opacity: 1;" transform="translate(0,180.72)">−0.5</text></g><g class="ytick"><text text-anchor="end" x="27" y="5.25" style="font-family: 'New Computer Modern'; font-size: 15px; fill: rgb(42, 63, 95); fill-opacity: 1; white-space: pre; opacity: 1;" transform="translate(0,140.54000000000002)">0</text></g><g class="ytick"><text text-anchor="end" x="27" y="5.25" style="font-family: 'New Computer Modern'; font-size: 15px; fill: rgb(42, 63, 95); fill-opacity: 1; white-space: pre; opacity: 1;" transform="translate(0,100.36)">0.5</text></g><g class="ytick"><text text-anchor="end" x="27" y="5.25" style="font-family: 'New Computer Modern'; font-size: 15px; fill: rgb(42, 63, 95); fill-opacity: 1; white-space: pre; opacity: 1;" transform="translate(0,60.18)">1</text></g><g class="ytick"><text text-anchor="end" x="27" y="5.25" style="font-family: 'New Computer Modern'; font-size: 15px; fill: rgb(42, 63, 95); fill-opacity: 1; white-space: pre; opacity: 1;" transform="translate(0,20)">1.5</text></g></g><g class="overaxes-above"/></g><g class="subplot x2y2"><g class="layer-subplot"><g class="shapelayer"/><g class="imagelayer"/></g><g class="minor-gridlayer"><g class="x2"/><g class="y2"/></g><g class="gridlayer"><g class="x2"><path class="x2grid crisp" transform="translate(113.13,0)" d="M0,329.9600000000001v241.07999999999993" style="stroke: rgb(255, 255, 255); stroke-opacity: 1; stroke-width: 1px;"/><path class="x2grid crisp" transform="translate(194.25,0)" d="M0,329.9600000000001v241.07999999999993" style="stroke: rgb(255, 255, 255); stroke-opacity: 1; stroke-width: 1px;"/><path class="x2grid crisp" transform="translate(275.38,0)" d="M0,329.9600000000001v241.07999999999993" style="stroke: rgb(255, 255, 255); stroke-opacity: 1; stroke-width: 1px;"/><path class="x2grid crisp" transform="translate(356.5,0)" d="M0,329.9600000000001v241.07999999999993" style="stroke: rgb(255, 255, 255); stroke-opacity: 1; stroke-width: 1px;"/><path class="x2grid crisp" transform="translate(437.63,0)" d="M0,329.9600000000001v241.07999999999993" style="stroke: rgb(255, 255, 255); stroke-opacity: 1; stroke-width: 1px;"/><path class="x2grid crisp" transform="translate(518.75,0)" d="M0,329.9600000000001v241.07999999999993" style="stroke: rgb(255, 255, 255); stroke-opacity: 1; stroke-width: 1px;"/><path class="x2grid crisp" transform="translate(599.88,0)" d="M0,329.9600000000001v241.07999999999993" style="stroke: rgb(255, 255, 255); stroke-opacity: 1; stroke-width: 1px;"/></g><g class="y2"><path class="y2grid crisp" transform="translate(0,530.8600000000001)" d="M32,0h649" style="stroke: rgb(255, 255, 255); stroke-opacity: 1; stroke-width: 1px;"/><path class="y2grid crisp" transform="translate(0,490.68000000000006)" d="M32,0h649" style="stroke: rgb(255, 255, 255); stroke-opacity: 1; stroke-width: 1px;"/><path class="y2grid crisp" transform="translate(0,410.3200000000001)" d="M32,0h649" style="stroke: rgb(255, 255, 255); stroke-opacity: 1; stroke-width: 1px;"/><path class="y2grid crisp" transform="translate(0,370.1400000000001)" d="M32,0h649" style="stroke: rgb(255, 255, 255); stroke-opacity: 1; stroke-width: 1px;"/></g></g><g class="zerolinelayer"><path class="x2zl zl crisp" transform="translate(32,0)" d="M0,329.9600000000001v241.07999999999993" style="stroke: rgb(255, 255, 255); stroke-opacity: 1; stroke-width: 2px;"/><path class="y2zl zl crisp" transform="translate(0,450.5000000000001)" d="M32,0h649" style="stroke: rgb(255, 255, 255); stroke-opacity: 1; stroke-width: 2px;"/></g><g class="layer-between"><g class="shapelayer"/><g class="imagelayer"/></g><path class="xlines-below"/><path class="ylines-below"/><g class="overlines-below"/><g class="xaxislayer-below"/><g class="yaxislayer-below"/><g class="overaxes-below"/><g class="overplot"><g class="x2y2" transform="translate(32,329.9600000000001)" clip-path="url(#clip7387adx2y2plot)"><g class="scatterlayer mlayer"><g class="trace scatter trace90c98e" style="stroke-miterlimit: 2; opacity: 1;"><g class="fills"/><g class="errorbars"/><g class="lines"><path class="js-line" d="M0,40.18L7.15,40.95L7.8,41.09L14.94,43.52L15.59,43.81L23.39,48.28L24.04,48.73L32.48,55.56L33.13,56.16L42.88,66.32L43.53,67.07L54.57,81.02L55.22,81.9L70.16,103.61L70.81,104.6L108.49,161.16L109.14,162.03L121.48,177.14L122.13,177.85L131.88,187.4L132.53,187.96L141.62,194.58L142.27,194.96L150.07,198.68L150.72,198.91L158.51,200.69L159.16,200.76L166.31,200.65L166.96,200.57L174.11,198.79L174.76,198.56L182.55,194.77L183.2,194.38L191.65,188.23L192.3,187.68L201.39,178.9L202.04,178.21L212.44,165.85L213.09,165.01L227.38,145.04L228.03,144.07L273.5,76.28L274.15,75.44L285.2,62.35L285.85,61.66L294.94,52.99L295.59,52.44L304.04,46.41L304.69,46.02L312.48,42.35L313.13,42.12L320.28,40.45L320.93,40.37L328.07,40.37L328.72,40.45L335.87,42.12L336.52,42.35L344.31,46.02L344.96,46.41L352.76,51.91L353.41,52.44L363.15,61.66L363.8,62.35L374.2,74.6L374.85,75.44L387.84,93.41L388.49,94.37L407.33,123.19L407.98,124.2L430.07,157.17L430.72,158.07L443.06,173.82L443.71,174.57L453.46,184.77L454.11,185.37L461.9,191.78L462.55,192.24L471,197.19L471.65,197.49L479.44,200.1L480.09,200.23L487.24,200.9L487.89,200.88L495.03,199.87L495.68,199.7L502.83,197.04L503.48,196.72L511.27,192.01L511.92,191.54L520.37,184.47L521.02,183.85L530.76,173.44L531.41,172.68L543.76,156.72L544.41,155.81L560,132.75L560.65,131.75L593.78,81.9L594.43,81.02L606.12,66.32L606.77,65.58L616.52,55.56L617.17,54.97L626.26,47.84L626.91,47.42L634.71,43.24L635.36,42.97L642.5,40.81L643.15,40.69L649,40.18" style="vector-effect: none; fill: none; stroke: rgb(255, 127, 14); stroke-opacity: 1; stroke-width: 2px; opacity: 1;"/></g><g class="points"/><g class="text"/></g><g class="trace scatter trace9b8380" style="stroke-miterlimit: 2; opacity: 1;"><g class="fills"/><g class="errorbars"/><g class="lines"/><g class="points"><path class="point" transform="translate(81.13,120.54)" d="M5,0A5,5 0 1,1 0,-5A5,5 0 0,1 5,0Z" style="opacity: 1; stroke-width: 0px; fill: rgb(148, 103, 189); fill-opacity: 1;"/><path class="point" transform="translate(405.63,120.54)" d="M5,0A5,5 0 1,1 0,-5A5,5 0 0,1 5,0Z" style="opacity: 1; stroke-width: 0px; fill: rgb(148, 103, 189); fill-opacity: 1;"/><path class="point" transform="translate(243.38,120.54)" d="M5,0A5,5 0 1,1 0,-5A5,5 0 0,1 5,0Z" style="opacity: 1; stroke-width: 0px; fill: rgb(148, 103, 189); fill-opacity: 1;"/><path class="point" transform="translate(567.88,120.54)" d="M5,0A5,5 0 1,1 0,-5A5,5 0 0,1 5,0Z" style="opacity: 1; stroke-width: 0px; fill: rgb(148, 103, 189); fill-opacity: 1;"/></g><g class="text"/></g></g></g></g><path class="xlines-above crisp" d="M0,0" style="fill: none;"/><path class="ylines-above crisp" d="M0,0" style="fill: none;"/><g class="overlines-above"/><g class="xaxislayer-above"><g class="x2tick"><text text-anchor="middle" x="0" y="587.04" transform="translate(32,0)" style="font-family: 'New Computer Modern'; font-size: 15px; fill: rgb(42, 63, 95); fill-opacity: 1; white-space: pre; opacity: 1;">0</text></g><g class="x2tick"><text text-anchor="middle" x="0" y="587.04" style="font-family: 'New Computer Modern'; font-size: 15px; fill: rgb(42, 63, 95); fill-opacity: 1; white-space: pre; opacity: 1;" transform="translate(113.13,0)">π/2</text></g><g class="x2tick"><text text-anchor="middle" x="0" y="587.04" style="font-family: 'New Computer Modern'; font-size: 15px; fill: rgb(42, 63, 95); fill-opacity: 1; white-space: pre; opacity: 1;" transform="translate(194.25,0)">π</text></g><g class="x2tick"><text text-anchor="middle" x="0" y="587.04" style="font-family: 'New Computer Modern'; font-size: 15px; fill: rgb(42, 63, 95); fill-opacity: 1; white-space: pre; opacity: 1;" transform="translate(275.38,0)">3π/2</text></g><g class="x2tick"><text text-anchor="middle" x="0" y="587.04" style="font-family: 'New Computer Modern'; font-size: 15px; fill: rgb(42, 63, 95); fill-opacity: 1; white-space: pre; opacity: 1;" transform="translate(356.5,0)">2π</text></g><g class="x2tick"><text text-anchor="middle" x="0" y="587.04" style="font-family: 'New Computer Modern'; font-size: 15px; fill: rgb(42, 63, 95); fill-opacity: 1; white-space: pre; opacity: 1;" transform="translate(437.63,0)">5π/2</text></g><g class="x2tick"><text text-anchor="middle" x="0" y="587.04" style="font-family: 'New Computer Modern'; font-size: 15px; fill: rgb(42, 63, 95); fill-opacity: 1; white-space: pre; opacity: 1;" transform="translate(518.75,0)">3π</text></g><g class="x2tick"><text text-anchor="middle" x="0" y="587.04" style="font-family: 'New Computer Modern'; font-size: 15px; fill: rgb(42, 63, 95); fill-opacity: 1; white-space: pre; opacity: 1;" transform="translate(599.88,0)">7π/2</text></g><g class="x2tick"><text text-anchor="middle" x="0" y="587.04" style="font-family: 'New Computer Modern'; font-size: 15px; fill: rgb(42, 63, 95); fill-opacity: 1; white-space: pre; opacity: 1;" transform="translate(681,0)">4π</text></g></g><g class="yaxislayer-above"><g class="y2tick"><text text-anchor="end" x="31" y="5.25" transform="translate(0,571.0400000000001)" style="font-family: 'New Computer Modern'; font-size: 15px; fill: rgb(42, 63, 95); fill-opacity: 1; white-space: pre; opacity: 1;">−1.5</text></g><g class="y2tick"><text text-anchor="end" x="31" y="5.25" style="font-family: 'New Computer Modern'; font-size: 15px; fill: rgb(42, 63, 95); fill-opacity: 1; white-space: pre; opacity: 1;" transform="translate(0,530.8600000000001)">−1</text></g><g class="y2tick"><text text-anchor="end" x="31" y="5.25" style="font-family: 'New Computer Modern'; font-size: 15px; fill: rgb(42, 63, 95); fill-opacity: 1; white-space: pre; opacity: 1;" transform="translate(0,490.68000000000006)">−0.5</text></g><g class="y2tick"><text text-anchor="end" x="31" y="5.25" style="font-family: 'New Computer Modern'; font-size: 15px; fill: rgb(42, 63, 95); fill-opacity: 1; white-space: pre; opacity: 1;" transform="translate(0,450.5000000000001)">0</text></g><g class="y2tick"><text text-anchor="end" x="31" y="5.25" style="font-family: 'New Computer Modern'; font-size: 15px; fill: rgb(42, 63, 95); fill-opacity: 1; white-space: pre; opacity: 1;" transform="translate(0,410.3200000000001)">0.5</text></g><g class="y2tick"><text text-anchor="end" x="31" y="5.25" style="font-family: 'New Computer Modern'; font-size: 15px; fill: rgb(42, 63, 95); fill-opacity: 1; white-space: pre; opacity: 1;" transform="translate(0,370.1400000000001)">1</text></g><g class="y2tick"><text text-anchor="end" x="31" y="5.25" style="font-family: 'New Computer Modern'; font-size: 15px; fill: rgb(42, 63, 95); fill-opacity: 1; white-space: pre; opacity: 1;" transform="translate(0,329.9600000000001)">1.5</text></g></g><g class="overaxes-above"/></g><g class="subplot x3y3"><g class="layer-subplot"><g class="shapelayer"/><g class="imagelayer"/></g><g class="minor-gridlayer"><g class="x3"/><g class="y3"/></g><g class="gridlayer"><g class="x3"><path class="x3grid crisp" transform="translate(113.13,0)" d="M0,639.92v241.07999999999998" style="stroke: rgb(255, 255, 255); stroke-opacity: 1; stroke-width: 1px;"/><path class="x3grid crisp" transform="translate(194.25,0)" d="M0,639.92v241.07999999999998" style="stroke: rgb(255, 255, 255); stroke-opacity: 1; stroke-width: 1px;"/><path class="x3grid crisp" transform="translate(275.38,0)" d="M0,639.92v241.07999999999998" style="stroke: rgb(255, 255, 255); stroke-opacity: 1; stroke-width: 1px;"/><path class="x3grid crisp" transform="translate(356.5,0)" d="M0,639.92v241.07999999999998" style="stroke: rgb(255, 255, 255); stroke-opacity: 1; stroke-width: 1px;"/><path class="x3grid crisp" transform="translate(437.63,0)" d="M0,639.92v241.07999999999998" style="stroke: rgb(255, 255, 255); stroke-opacity: 1; stroke-width: 1px;"/><path class="x3grid crisp" transform="translate(518.75,0)" d="M0,639.92v241.07999999999998" style="stroke: rgb(255, 255, 255); stroke-opacity: 1; stroke-width: 1px;"/><path class="x3grid crisp" transform="translate(599.88,0)" d="M0,639.92v241.07999999999998" style="stroke: rgb(255, 255, 255); stroke-opacity: 1; stroke-width: 1px;"/></g><g class="y3"><path class="y3grid crisp" transform="translate(0,840.8199999999999)" d="M32,0h649" style="stroke: rgb(255, 255, 255); stroke-opacity: 1; stroke-width: 1px;"/><path class="y3grid crisp" transform="translate(0,800.64)" d="M32,0h649" style="stroke: rgb(255, 255, 255); stroke-opacity: 1; stroke-width: 1px;"/><path class="y3grid crisp" transform="translate(0,720.28)" d="M32,0h649" style="stroke: rgb(255, 255, 255); stroke-opacity: 1; stroke-width: 1px;"/><path class="y3grid crisp" transform="translate(0,680.0999999999999)" d="M32,0h649" style="stroke: rgb(255, 255, 255); stroke-opacity: 1; stroke-width: 1px;"/></g></g><g class="zerolinelayer"><path class="x3zl zl crisp" transform="translate(32,0)" d="M0,639.92v241.07999999999998" style="stroke: rgb(255, 255, 255); stroke-opacity: 1; stroke-width: 2px;"/><path class="y3zl zl crisp" transform="translate(0,760.4599999999999)" d="M32,0h649" style="stroke: rgb(255, 255, 255); stroke-opacity: 1; stroke-width: 2px;"/></g><g class="layer-between"><g class="shapelayer"/><g class="imagelayer"/></g><path class="xlines-below"/><path class="ylines-below"/><g class="overlines-below"/><g class="xaxislayer-below"/><g class="yaxislayer-below"/><g class="overaxes-below"/><g class="overplot"><g class="x3y3" transform="translate(32,639.92)" clip-path="url(#clip7387adx3y3plot)"><g class="scatterlayer mlayer"><g class="trace scatter tracee799f2" style="stroke-miterlimit: 2; opacity: 1;"><g class="fills"/><g class="errorbars"/><g class="lines"><path class="js-line" d="M0,120.54L24.04,156.61L24.69,157.51L37.68,174.1L38.33,174.85L48.72,185.6L49.37,186.19L58.47,193.29L59.12,193.71L66.91,197.88L67.56,198.15L75.36,200.4L76.01,200.51L83.16,200.84L83.8,200.79L90.95,199.45L91.6,199.25L98.75,196.27L99.4,195.92L107.19,190.88L107.84,190.39L116.94,182.34L117.59,181.69L127.33,170.83L127.98,170.03L139.67,154.56L140.32,153.64L156.57,129.37L157.22,128.36L185.15,86.06L185.8,85.15L199.44,67.54L200.09,66.79L210.49,55.93L211.14,55.33L220.23,48.11L220.88,47.68L228.68,43.41L229.33,43.13L237.12,40.77L237.77,40.65L244.92,40.22L245.57,40.25L252.71,41.49L253.36,41.68L260.51,44.56L261.16,44.9L268.31,49.36L268.95,49.84L277.4,57L278.05,57.62L288.44,68.89L289.09,69.66L301.44,85.84L302.09,86.75L318.33,110.96L318.98,111.96L348.86,157.06L349.51,157.95L361.21,172.96L361.85,173.73L372.25,184.7L372.9,185.3L381.99,192.63L382.64,193.07L390.44,197.45L391.09,197.74L398.88,200.22L399.53,200.34L406.68,200.88L407.33,200.86L414.48,199.72L415.13,199.54L422.27,196.76L422.92,196.44L430.72,191.6L431.37,191.12L439.81,183.93L440.46,183.3L450.21,172.77L450.86,172L462.55,156.83L463.2,155.93L478.79,132.87L479.44,131.87L512.57,82.01L513.22,81.13L525.57,65.67L526.22,64.94L535.96,55.04L536.61,54.46L545.71,47.47L546.36,47.06L554.15,43L554.8,42.74L561.95,40.71L562.6,40.6L569.74,40.23L570.39,40.28L577.54,41.58L578.19,41.78L585.33,44.73L585.98,45.07L593.78,50.08L594.43,50.57L602.87,57.94L603.52,58.58L613.27,69.27L613.92,70.06L625.61,85.38L626.26,86.29L643.15,111.46L643.8,112.47L649,120.54" style="vector-effect: none; fill: none; stroke: rgb(44, 160, 44); stroke-opacity: 1; stroke-width: 2px; opacity: 1;"/></g><g class="points"/><g class="text"/></g><g class="trace scatter trace948f1a" style="stroke-miterlimit: 2; opacity: 1;"><g class="fills"/><g class="errorbars"/><g class="lines"/><g class="points"><path class="point" transform="translate(81.13,200.9)" d="M5,0A5,5 0 1,1 0,-5A5,5 0 0,1 5,0Z" style="opacity: 1; stroke-width: 0px; fill: rgb(44, 160, 44); fill-opacity: 1;"/><path class="point" transform="translate(405.63,200.9)" d="M5,0A5,5 0 1,1 0,-5A5,5 0 0,1 5,0Z" style="opacity: 1; stroke-width: 0px; fill: rgb(44, 160, 44); fill-opacity: 1;"/></g><g class="text"/></g><g class="trace scatter tracea518db" style="stroke-miterlimit: 2; opacity: 1;"><g class="fills"/><g class="errorbars"/><g class="lines"/><g class="points"><path class="point" transform="translate(243.38,40.18)" d="M5,0A5,5 0 1,1 0,-5A5,5 0 0,1 5,0Z" style="opacity: 1; stroke-width: 0px; fill: rgb(214, 39, 40); fill-opacity: 1;"/><path class="point" transform="translate(567.88,40.18)" d="M5,0A5,5 0 1,1 0,-5A5,5 0 0,1 5,0Z" style="opacity: 1; stroke-width: 0px; fill: rgb(214, 39, 40); fill-opacity: 1;"/></g><g class="text"/></g></g></g></g><path class="xlines-above crisp" d="M0,0" style="fill: none;"/><path class="ylines-above crisp" d="M0,0" style="fill: none;"/><g class="overlines-above"/><g class="xaxislayer-above"><g class="x3tick"><text text-anchor="middle" x="0" y="897" transform="translate(32,0)" style="font-family: 'New Computer Modern'; font-size: 15px; fill: rgb(42, 63, 95); fill-opacity: 1; white-space: pre; opacity: 1;">0</text></g><g class="x3tick"><text text-anchor="middle" x="0" y="897" style="font-family: 'New Computer Modern'; font-size: 15px; fill: rgb(42, 63, 95); fill-opacity: 1; white-space: pre; opacity: 1;" transform="translate(113.13,0)">π/2</text></g><g class="x3tick"><text text-anchor="middle" x="0" y="897" style="font-family: 'New Computer Modern'; font-size: 15px; fill: rgb(42, 63, 95); fill-opacity: 1; white-space: pre; opacity: 1;" transform="translate(194.25,0)">π</text></g><g class="x3tick"><text text-anchor="middle" x="0" y="897" style="font-family: 'New Computer Modern'; font-size: 15px; fill: rgb(42, 63, 95); fill-opacity: 1; white-space: pre; opacity: 1;" transform="translate(275.38,0)">3π/2</text></g><g class="x3tick"><text text-anchor="middle" x="0" y="897" style="font-family: 'New Computer Modern'; font-size: 15px; fill: rgb(42, 63, 95); fill-opacity: 1; white-space: pre; opacity: 1;" transform="translate(356.5,0)">2π</text></g><g class="x3tick"><text text-anchor="middle" x="0" y="897" style="font-family: 'New Computer Modern'; font-size: 15px; fill: rgb(42, 63, 95); fill-opacity: 1; white-space: pre; opacity: 1;" transform="translate(437.63,0)">5π/2</text></g><g class="x3tick"><text text-anchor="middle" x="0" y="897" style="font-family: 'New Computer Modern'; font-size: 15px; fill: rgb(42, 63, 95); fill-opacity: 1; white-space: pre; opacity: 1;" transform="translate(518.75,0)">3π</text></g><g class="x3tick"><text text-anchor="middle" x="0" y="897" style="font-family: 'New Computer Modern'; font-size: 15px; fill: rgb(42, 63, 95); fill-opacity: 1; white-space: pre; opacity: 1;" transform="translate(599.88,0)">7π/2</text></g><g class="x3tick"><text text-anchor="middle" x="0" y="897" style="font-family: 'New Computer Modern'; font-size: 15px; fill: rgb(42, 63, 95); fill-opacity: 1; white-space: pre; opacity: 1;" transform="translate(681,0)">4π</text></g></g><g class="yaxislayer-above"><g class="y3tick"><text text-anchor="end" x="31" y="5.25" transform="translate(0,881)" style="font-family: 'New Computer Modern'; font-size: 15px; fill: rgb(42, 63, 95); fill-opacity: 1; white-space: pre; opacity: 1;">−1.5</text></g><g class="y3tick"><text text-anchor="end" x="31" y="5.25" style="font-family: 'New Computer Modern'; font-size: 15px; fill: rgb(42, 63, 95); fill-opacity: 1; white-space: pre; opacity: 1;" transform="translate(0,840.8199999999999)">−1</text></g><g class="y3tick"><text text-anchor="end" x="31" y="5.25" style="font-family: 'New Computer Modern'; font-size: 15px; fill: rgb(42, 63, 95); fill-opacity: 1; white-space: pre; opacity: 1;" transform="translate(0,800.64)">−0.5</text></g><g class="y3tick"><text text-anchor="end" x="31" y="5.25" style="font-family: 'New Computer Modern'; font-size: 15px; fill: rgb(42, 63, 95); fill-opacity: 1; white-space: pre; opacity: 1;" transform="translate(0,760.4599999999999)">0</text></g><g class="y3tick"><text text-anchor="end" x="31" y="5.25" style="font-family: 'New Computer Modern'; font-size: 15px; fill: rgb(42, 63, 95); fill-opacity: 1; white-space: pre; opacity: 1;" transform="translate(0,720.28)">0.5</text></g><g class="y3tick"><text text-anchor="end" x="31" y="5.25" style="font-family: 'New Computer Modern'; font-size: 15px; fill: rgb(42, 63, 95); fill-opacity: 1; white-space: pre; opacity: 1;" transform="translate(0,680.0999999999999)">1</text></g><g class="y3tick"><text text-anchor="end" x="31" y="5.25" style="font-family: 'New Computer Modern'; font-size: 15px; fill: rgb(42, 63, 95); fill-opacity: 1; white-space: pre; opacity: 1;" transform="translate(0,639.92)">1.5</text></g></g><g class="overaxes-above"/></g></g><g class="polarlayer"/><g class="smithlayer"/><g class="ternarylayer"/><g class="geolayer"/><g class="funnelarealayer"/><g class="pielayer"/><g class="iciclelayer"/><g class="treemaplayer"/><g class="sunburstlayer"/><g class="glimages"/><defs id="topdefs-7387ad"><g class="clips"/><clipPath id="legend7387ad"><rect width="206" height="326" x="0" y="0"/></clipPath></defs><g class="layer-above"><g class="imagelayer"/><g class="shapelayer"/></g><g class="infolayer"><g class="legend" pointer-events="all" transform="translate(693.98,20)"><rect class="bg" shape-rendering="crispEdges" style="stroke: rgb(68, 68, 68); stroke-opacity: 1; fill: rgb(0, 0, 0); fill-opacity: 0; stroke-width: 0px;" width="206" height="326" x="0" y="0"/><g class="scrollbox" transform="" clip-path="url(#legend7387ad)"><g class="groups" transform=""><g class="traces" transform="translate(0,17.55)" style="opacity: 1;"><text class="legendtext" text-anchor="start" x="5" y="6.63" style="font-family: 'New Computer Modern'; font-size: 17px; fill: rgb(42, 63, 95); fill-opacity: 1; white-space: pre;">Original Function</text><g class="layers"><g class="legendfill"/><g class="legendlines"/><g class="legendsymbols"><g class="legendpoints"/></g></g><rect class="legendtoggle" x="0" y="-12.55" width="200.71875" height="25.1" style="fill: rgb(0, 0, 0); fill-opacity: 0;"/></g><g class="traces" transform="translate(0,41.35)" style="opacity: 1;"><text class="legendtext" text-anchor="start" x="40" y="5.85" style="font-family: 'New Computer Modern'; font-size: 15px; fill: rgb(42, 63, 95); fill-opacity: 1; white-space: pre;">sin(x)</text><g class="layers" style="opacity: 1;"><g class="legendfill"/><g class="legendlines"><path class="js-line" d="M5,0h30" style="fill: none; stroke: rgb(31, 119, 180); stroke-opacity: 1; stroke-width: 2px;"/></g><g class="legendsymbols"><g class="legendpoints"/></g></g><rect class="legendtoggle" x="0" y="-11.25" width="200.71875" height="22.5" style="fill: rgb(0, 0, 0); fill-opacity: 0;"/></g><g class="traces" transform="translate(0,63.85)" style="opacity: 1;"><text class="legendtext" text-anchor="start" x="40" y="5.85" style="font-family: 'New Computer Modern'; font-size: 15px; fill: rgb(42, 63, 95); fill-opacity: 1; white-space: pre;">Global &amp; Local Maximum</text><g class="layers" style="opacity: 1;"><g class="legendfill"/><g class="legendlines"/><g class="legendsymbols"><g class="legendpoints"><path class="scatterpts" transform="translate(20,0)" d="M5,0A5,5 0 1,1 0,-5A5,5 0 0,1 5,0Z" style="opacity: 1; stroke-width: 0px; fill: rgb(44, 160, 44); fill-opacity: 1;"/></g></g></g><rect class="legendtoggle" x="0" y="-11.25" width="200.71875" height="22.5" style="fill: rgb(0, 0, 0); fill-opacity: 0;"/></g><g class="traces" transform="translate(0,86.35)" style="opacity: 1;"><text class="legendtext" text-anchor="start" x="40" y="5.85" style="font-family: 'New Computer Modern'; font-size: 15px; fill: rgb(42, 63, 95); fill-opacity: 1; white-space: pre;">Global &amp; Local Minimum</text><g class="layers" style="opacity: 1;"><g class="legendfill"/><g class="legendlines"/><g class="legendsymbols"><g class="legendpoints"><path class="scatterpts" transform="translate(20,0)" d="M5,0A5,5 0 1,1 0,-5A5,5 0 0,1 5,0Z" style="opacity: 1; stroke-width: 0px; fill: rgb(214, 39, 40); fill-opacity: 1;"/></g></g></g><rect class="legendtoggle" x="0" y="-11.25" width="200.71875" height="22.5" style="fill: rgb(0, 0, 0); fill-opacity: 0;"/></g></g><g class="groups" transform="translate(0,30)"><g class="traces" transform="translate(0,110.14999999999999)" style="opacity: 1;"><text class="legendtext" text-anchor="start" x="5" y="6.63" style="font-family: 'New Computer Modern'; font-size: 17px; fill: rgb(42, 63, 95); fill-opacity: 1; white-space: pre;">First Derivative</text><g class="layers"><g class="legendfill"/><g class="legendlines"/><g class="legendsymbols"><g class="legendpoints"/></g></g><rect class="legendtoggle" x="0" y="-12.55" width="200.71875" height="25.1" style="fill: rgb(0, 0, 0); fill-opacity: 0;"/></g><g class="traces" transform="translate(0,133.95)" style="opacity: 1;"><text class="legendtext" text-anchor="start" x="40" y="5.85" style="font-family: 'New Computer Modern'; font-size: 15px; fill: rgb(42, 63, 95); fill-opacity: 1; white-space: pre;">cos(x)</text><g class="layers" style="opacity: 1;"><g class="legendfill"/><g class="legendlines"><path class="js-line" d="M5,0h30" style="fill: none; stroke: rgb(255, 127, 14); stroke-opacity: 1; stroke-width: 2px;"/></g><g class="legendsymbols"><g class="legendpoints"/></g></g><rect class="legendtoggle" x="0" y="-11.25" width="200.71875" height="22.5" style="fill: rgb(0, 0, 0); fill-opacity: 0;"/></g><g class="traces" transform="translate(0,156.45)" style="opacity: 1;"><text class="legendtext" text-anchor="start" x="40" y="5.85" style="font-family: 'New Computer Modern'; font-size: 15px; fill: rgb(42, 63, 95); fill-opacity: 1; white-space: pre;">f'(x) = 0</text><g class="layers" style="opacity: 1;"><g class="legendfill"/><g class="legendlines"/><g class="legendsymbols"><g class="legendpoints"><path class="scatterpts" transform="translate(20,0)" d="M5,0A5,5 0 1,1 0,-5A5,5 0 0,1 5,0Z" style="opacity: 1; stroke-width: 0px; fill: rgb(148, 103, 189); fill-opacity: 1;"/></g></g></g><rect class="legendtoggle" x="0" y="-11.25" width="200.71875" height="22.5" style="fill: rgb(0, 0, 0); fill-opacity: 0;"/></g></g><g class="groups" transform="translate(0,60)"><g class="traces" transform="translate(0,180.25)" style="opacity: 1;"><text class="legendtext" text-anchor="start" x="5" y="6.63" style="font-family: 'New Computer Modern'; font-size: 17px; fill: rgb(42, 63, 95); fill-opacity: 1; white-space: pre;">Second Derivative</text><g class="layers"><g class="legendfill"/><g class="legendlines"/><g class="legendsymbols"><g class="legendpoints"/></g></g><rect class="legendtoggle" x="0" y="-12.55" width="200.71875" height="25.1" style="fill: rgb(0, 0, 0); fill-opacity: 0;"/></g><g class="traces" transform="translate(0,204.04999999999998)" style="opacity: 1;"><text class="legendtext" text-anchor="start" x="40" y="5.85" style="font-family: 'New Computer Modern'; font-size: 15px; fill: rgb(42, 63, 95); fill-opacity: 1; white-space: pre;">-sin(x)</text><g class="layers" style="opacity: 1;"><g class="legendfill"/><g class="legendlines"><path class="js-line" d="M5,0h30" style="fill: none; stroke: rgb(44, 160, 44); stroke-opacity: 1; stroke-width: 2px;"/></g><g class="legendsymbols"><g class="legendpoints"/></g></g><rect class="legendtoggle" x="0" y="-11.25" width="200.71875" height="22.5" style="fill: rgb(0, 0, 0); fill-opacity: 0;"/></g><g class="traces" transform="translate(0,226.54999999999998)" style="opacity: 1;"><text class="legendtext" text-anchor="start" x="40" y="5.85" style="font-family: 'New Computer Modern'; font-size: 15px; fill: rgb(42, 63, 95); fill-opacity: 1; white-space: pre;">f''(x) &#60; 0 at Maximum</text><g class="layers" style="opacity: 1;"><g class="legendfill"/><g class="legendlines"/><g class="legendsymbols"><g class="legendpoints"><path class="scatterpts" transform="translate(20,0)" d="M5,0A5,5 0 1,1 0,-5A5,5 0 0,1 5,0Z" style="opacity: 1; stroke-width: 0px; fill: rgb(44, 160, 44); fill-opacity: 1;"/></g></g></g><rect class="legendtoggle" x="0" y="-11.25" width="200.71875" height="22.5" style="fill: rgb(0, 0, 0); fill-opacity: 0;"/></g><g class="traces" transform="translate(0,249.04999999999998)" style="opacity: 1;"><text class="legendtext" text-anchor="start" x="40" y="5.85" style="font-family: 'New Computer Modern'; font-size: 15px; fill: rgb(42, 63, 95); fill-opacity: 1; white-space: pre;">f''(x) > 0 at Minimum</text><g class="layers" style="opacity: 1;"><g class="legendfill"/><g class="legendlines"/><g class="legendsymbols"><g class="legendpoints"><path class="scatterpts" transform="translate(20,0)" d="M5,0A5,5 0 1,1 0,-5A5,5 0 0,1 5,0Z" style="opacity: 1; stroke-width: 0px; fill: rgb(214, 39, 40); fill-opacity: 1;"/></g></g></g><rect class="legendtoggle" x="0" y="-11.25" width="200.71875" height="22.5" style="fill: rgb(0, 0, 0); fill-opacity: 0;"/></g></g></g><rect class="scrollbar" rx="20" ry="3" width="0" height="0" style="fill: rgb(128, 139, 164); fill-opacity: 1;" x="0" y="0"/></g><g class="g-gtitle"/><g class="g-xtitle"/><g class="g-x2title"/><g class="g-x3title"/><g class="g-ytitle"/><g class="g-y2title"/><g class="g-y3title"/><g class="annotation" data-index="0" style="opacity: 1;"><g class="annotation-text-g" transform="rotate(0,356.5,8.999999999999996)"><g class="cursor-pointer" transform="translate(303,-2)"><rect class="bg" x="0.5" y="0.5" width="106" height="21" style="stroke-width: 1px; stroke: rgb(0, 0, 0); stroke-opacity: 0; fill: rgb(0, 0, 0); fill-opacity: 0;"/><text class="annotation-text" text-anchor="middle" x="53.34375" y="16" style="font-family: 'New Computer Modern'; font-size: 16px; fill: rgb(42, 63, 95); fill-opacity: 1; white-space: pre;">Function: sin(x)</text></g></g></g><g class="annotation" data-index="1" style="opacity: 1;"><g class="annotation-text-g" transform="rotate(0,356.5,318.9600000000001)"><g class="cursor-pointer" transform="translate(280,308)"><rect class="bg" x="0.5" y="0.5" width="152" height="21" style="stroke-width: 1px; stroke: rgb(0, 0, 0); stroke-opacity: 0; fill: rgb(0, 0, 0); fill-opacity: 0;"/><text class="annotation-text" text-anchor="middle" x="76.65625" y="16" style="font-family: 'New Computer Modern'; font-size: 16px; fill: rgb(42, 63, 95); fill-opacity: 1; white-space: pre;">First Derivative: cos(x)</text></g></g></g><g class="annotation" data-index="2" style="opacity: 1;"><g class="annotation-text-g" transform="rotate(0,356.5,628.92)"><g class="cursor-pointer" transform="translate(270,618)"><rect class="bg" x="0.5" y="0.5" width="173" height="21" style="stroke-width: 1px; stroke: rgb(0, 0, 0); stroke-opacity: 0; fill: rgb(0, 0, 0); fill-opacity: 0;"/><text class="annotation-text" text-anchor="middle" x="86.875" y="16" style="font-family: 'New Computer Modern'; font-size: 16px; fill: rgb(42, 63, 95); fill-opacity: 1; white-space: pre;">Second Derivative: -sin(x)</text></g></g></g></g></svg>