<svg class="main-svg" xmlns="http://www.w3.org/2000/svg" xmlns:xlink="http://www.w3.org/1999/xlink" width="900" height="900" style="" viewBox="0 0 900 900"><rect x="0" y="0" width="900" height="900" style="fill: rgb(0, 0, 0); fill-opacity: 0;"/><defs id="defs-006efc"><g class="clips"><clipPath id="clip006efcxyplot" class="plotclip"><rect width="724" height="250.50000000000003"/></clipPath><clipPath id="clip006efcx2y2plot" class="plotclip"><rect width="724" height="250.49999999999994"/></clipPath><clipPath id="clip006efcx3y3plot" class="plotclip"><rect width="724" height="250.5"/></clipPath><clipPath class="axesclip" id="clip006efcx"><rect x="39" y="0" width="724" height="900"/></clipPath><clipPath class="axesclip" id="clip006efcy"><rect x="0" y="20" width="900" height="250.50000000000003"/></clipPath><clipPath class="axesclip" id="clip006efcxy"><rect x="39" y="20" width="724" height="250.50000000000003"/></clipPath><clipPath class="axesclip" id="clip006efcy2"><rect x="0" y="312.25000000000006" width="900" height="250.49999999999994"/></clipPath><clipPath class="axesclip" id="clip006efcxy2"><rect x="39" y="312.25000000000006" width="724" height="250.49999999999994"/></clipPath><clipPath class="axesclip" id="clip006efcy3"><rect x="0" y="604.5" width="900" height="250.5"/></clipPath><clipPath class="axesclip" id="clip006efcxy3"><rect x="39" y="604.5" width="724" height="250.5"/></clipPath><clipPath class="axesclip" id="clip006efcx2"><rect x="39" y="0" width="724" height="900"/></clipPath><clipPath class="axesclip" id="clip006efcx2y"><rect x="39" y="20" width="724" height="250.50000000000003"/></clipPath><clipPath class="axesclip" id="clip006efcx2y2"><rect x="39" y="312.25000000000006" width="724" height="250.49999999999994"/></clipPath><clipPath class="axesclip" id="clip006efcx2y3"><rect x="39" y="604.5" width="724" height="250.5"/></clipPath><clipPath class="axesclip" id="clip006efcx3"><rect x="39" y="0" width="724" height="900"/></clipPath><clipPath class="axesclip" id="clip006efcx3y"><rect x="39" y="20" width="724" height="250.50000000000003"/></clipPath><clipPath class="axesclip" id="clip006efcx3y2"><rect x="39" y="312.25000000000006" width="724" height="250.49999999999994"/></clipPath><clipPath class="axesclip" id="clip006efcx3y3"><rect x="39" y="604.5" width="724" height="250.5"/></clipPath></g><g class="gradients"/><g class="patterns"/></defs><g class="bglayer"><rect class="bg" x="39" y="20" width="724" height="250.50000000000003" style="fill: rgb(229, 236, 246); fill-opacity: 1; stroke-width: 0;"/><rect class="bg" x="39" y="312.25000000000006" width="724" height="250.49999999999994" style="fill: rgb(229, 236, 246); fill-opacity: 1; stroke-width: 0;"/><rect class="bg" x="39" y="604.5" width="724" height="250.5" style="fill: rgb(229, 236, 246); fill-opacity: 1; stroke-width: 0;"/></g><g class="layer-below"><g class="imagelayer"/><g class="shapelayer"/></g><g class="cartesianlayer"><g class="subplot xy"><g class="layer-subplot"><g class="shapelayer"/><g class="imagelayer"/></g><g class="minor-gridlayer"><g class="x"/><g class="y"/></g><g class="gridlayer"><g class="x"><path class="xgrid crisp" transform="translate(159.67000000000002,0)" d="M0,20v250.50000000000003" style="stroke: rgb(255, 255, 255); stroke-opacity: 1; stroke-width: 1px;"/><path class="xgrid crisp" transform="translate(280.33000000000004,0)" d="M0,20v250.50000000000003" style="stroke: rgb(255, 255, 255); stroke-opacity: 1; stroke-width: 1px;"/><path class="xgrid crisp" transform="translate(521.6700000000001,0)" d="M0,20v250.50000000000003" style="stroke: rgb(255, 255, 255); stroke-opacity: 1; stroke-width: 1px;"/><path class="xgrid crisp" transform="translate(642.33,0)" d="M0,20v250.50000000000003" style="stroke: rgb(255, 255, 255); stroke-opacity: 1; stroke-width: 1px;"/></g><g class="y"><path class="ygrid crisp" transform="translate(0,217.73)" d="M39,0h724" style="stroke: rgb(255, 255, 255); stroke-opacity: 1; stroke-width: 1px;"/><path class="ygrid crisp" transform="translate(0,72.77000000000001)" d="M39,0h724" style="stroke: rgb(255, 255, 255); stroke-opacity: 1; stroke-width: 1px;"/></g></g><g class="zerolinelayer"><path class="xzl zl crisp" transform="translate(401,0)" d="M0,20v250.50000000000003" style="stroke: rgb(255, 255, 255); stroke-opacity: 1; stroke-width: 2px;"/><path class="yzl zl crisp" transform="translate(0,145.25)" d="M39,0h724" style="stroke: rgb(255, 255, 255); stroke-opacity: 1; stroke-width: 2px;"/></g><g class="layer-between"><g class="shapelayer"/><g class="imagelayer"/></g><path class="xlines-below"/><path class="ylines-below"/><g class="overlines-below"/><g class="xaxislayer-below"/><g class="yaxislayer-below"/><g class="overaxes-below"/><g class="overplot"><g class="xy" transform="translate(39,20)" clip-path="url(#clip006efcxyplot)"><g class="scatterlayer mlayer"><g class="trace scatter trace0c7cbe" style="stroke-miterlimit: 2; opacity: 1;"><g class="fills"/><g class="errorbars"/><g class="lines"><path class="js-line" d="M0,237.98L11.6,221.04L12.32,220.05L26.81,201.97L27.54,201.14L39.86,188.16L40.58,187.45L54.35,175.22L55.08,174.64L68.85,164.51L69.57,164.03L84.07,155.32L84.79,154.93L101.46,147.02L102.19,146.72L118.13,140.89L118.85,140.66L136.97,135.71L137.7,135.55L155.82,132.01L156.54,131.89L178.28,129.05L179.01,128.97L209.45,126.75L210.17,126.71L256.55,125.49L257.28,125.48L327.58,125.25L328.3,125.25L494.99,124.5L495.71,124.47L530.5,122.79L531.22,122.73L555.14,120.38L555.86,120.28L576.88,116.94L577.61,116.8L596.45,112.41L597.17,112.21L616.02,106.07L616.74,105.8L632.68,98.9L633.41,98.54L647.18,91.05L647.9,90.61L660.95,81.95L661.67,81.43L675.44,70.39L676.17,69.75L689.21,57.23L689.94,56.47L702.98,41.66L703.71,40.77L716.75,23.37L717.48,22.32L724,12.52" style="vector-effect: none; fill: none; stroke: rgb(31, 119, 180); stroke-opacity: 1; stroke-width: 3px; opacity: 1;"/></g><g class="points"/><g class="text"/></g><g class="trace scatter trace1816da" style="stroke-miterlimit: 2; opacity: 1;"><g class="fills"/><g class="errorbars"/><g class="lines"/><g class="points"><path class="point" transform="translate(362,125.25)" d="M6.5,0L0,6.5L-6.5,0L0,-6.5Z" style="opacity: 1; stroke-width: 0px; fill: rgb(171, 99, 250); fill-opacity: 1;"/></g><g class="text"><g class="textpoint" transform="translate(7.25,-11)"><text x="362" y="125.25" text-anchor="start" style="font-family: 'New Computer Modern'; font-size: 15px; fill: rgb(42, 63, 95); fill-opacity: 1; white-space: pre;">Saddle Point (0, 0)</text></g></g></g><g class="trace scatter trace5e4239" style="stroke-miterlimit: 2; opacity: 1;"><g class="fills"/><g class="errorbars"/><g class="lines"><path class="js-line" d="M120.67,125.25L603.33,125.25" style="vector-effect: none; fill: none; stroke: rgb(255, 161, 90); stroke-opacity: 1; stroke-dasharray: 9px, 9px; stroke-width: 2px; opacity: 1;"/></g><g class="points"/><g class="text"/></g></g></g></g><path class="xlines-above crisp" d="M0,0" style="fill: none;"/><path class="ylines-above crisp" d="M0,0" style="fill: none;"/><g class="overlines-above"/><g class="xaxislayer-above"><g class="xtick"><text text-anchor="middle" x="0" y="286.5" transform="translate(39,0)" style="font-family: 'New Computer Modern'; font-size: 15px; fill: rgb(42, 63, 95); fill-opacity: 1; white-space: pre; opacity: 1;">−6</text></g><g class="xtick"><text text-anchor="middle" x="0" y="286.5" style="font-family: 'New Computer Modern'; font-size: 15px; fill: rgb(42, 63, 95); fill-opacity: 1; white-space: pre; opacity: 1;" transform="translate(159.67000000000002,0)">−4</text></g><g class="xtick"><text text-anchor="middle" x="0" y="286.5" style="font-family: 'New Computer Modern'; font-size: 15px; fill: rgb(42, 63, 95); fill-opacity: 1; white-space: pre; opacity: 1;" transform="translate(280.33000000000004,0)">−2</text></g><g class="xtick"><text text-anchor="middle" x="0" y="286.5" style="font-family: 'New Computer Modern'; font-size: 15px; fill: rgb(42, 63, 95); fill-opacity: 1; white-space: pre; opacity: 1;" transform="translate(401,0)">0</text></g><g class="xtick"><text text-anchor="middle" x="0" y="286.5" style="font-family: 'New Computer Modern'; font-size: 15px; fill: rgb(42, 63, 95); fill-opacity: 1; white-space: pre; opacity: 1;" transform="translate(521.6700000000001,0)">2</text></g><g class="xtick"><text text-anchor="middle" x="0" y="286.5" style="font-family: 'New Computer Modern'; font-size: 15px; fill: rgb(42, 63, 95); fill-opacity: 1; white-space: pre; opacity: 1;" transform="translate(642.33,0)">4</text></g><g class="xtick"><text text-anchor="middle" x="0" y="286.5" style="font-family: 'New Computer Modern'; font-size: 15px; fill: rgb(42, 63, 95); fill-opacity: 1; white-space: pre; opacity: 1;" transform="translate(763,0)">6</text></g></g><g class="yaxislayer-above"><g class="ytick"><text text-anchor="end" x="38" y="5.25" transform="translate(0,217.73)" style="font-family: 'New Computer Modern'; font-size: 15px; fill: rgb(42, 63, 95); fill-opacity: 1; white-space: pre; opacity: 1;">−5000</text></g><g class="ytick"><text text-anchor="end" x="38" y="5.25" style="font-family: 'New Computer Modern'; font-size: 15px; fill: rgb(42, 63, 95); fill-opacity: 1; white-space: pre; opacity: 1;" transform="translate(0,145.25)">0</text></g><g class="ytick"><text text-anchor="end" x="38" y="5.25" style="font-family: 'New Computer Modern'; font-size: 15px; fill: rgb(42, 63, 95); fill-opacity: 1; white-space: pre; opacity: 1;" transform="translate(0,72.77000000000001)">5000</text></g></g><g class="overaxes-above"/></g><g class="subplot x2y2"><g class="layer-subplot"><g class="shapelayer"/><g class="imagelayer"/></g><g class="minor-gridlayer"><g class="x2"/><g class="y2"/></g><g class="gridlayer"><g class="x2"><path class="x2grid crisp" transform="translate(159.67000000000002,0)" d="M0,312.25000000000006v250.49999999999994" style="stroke: rgb(255, 255, 255); stroke-opacity: 1; stroke-width: 1px;"/><path class="x2grid crisp" transform="translate(280.33000000000004,0)" d="M0,312.25000000000006v250.49999999999994" style="stroke: rgb(255, 255, 255); stroke-opacity: 1; stroke-width: 1px;"/><path class="x2grid crisp" transform="translate(521.6700000000001,0)" d="M0,312.25000000000006v250.49999999999994" style="stroke: rgb(255, 255, 255); stroke-opacity: 1; stroke-width: 1px;"/><path class="x2grid crisp" transform="translate(642.33,0)" d="M0,312.25000000000006v250.49999999999994" style="stroke: rgb(255, 255, 255); stroke-opacity: 1; stroke-width: 1px;"/></g><g class="y2"><path class="y2grid crisp" transform="translate(0,476.32000000000005)" d="M39,0h724" style="stroke: rgb(255, 255, 255); stroke-opacity: 1; stroke-width: 1px;"/><path class="y2grid crisp" transform="translate(0,408.6700000000001)" d="M39,0h724" style="stroke: rgb(255, 255, 255); stroke-opacity: 1; stroke-width: 1px;"/><path class="y2grid crisp" transform="translate(0,341.01000000000005)" d="M39,0h724" style="stroke: rgb(255, 255, 255); stroke-opacity: 1; stroke-width: 1px;"/></g></g><g class="zerolinelayer"><path class="x2zl zl crisp" transform="translate(401,0)" d="M0,312.25000000000006v250.49999999999994" style="stroke: rgb(255, 255, 255); stroke-opacity: 1; stroke-width: 2px;"/><path class="y2zl zl crisp" transform="translate(0,543.97)" d="M39,0h724" style="stroke: rgb(255, 255, 255); stroke-opacity: 1; stroke-width: 2px;"/></g><g class="layer-between"><g class="shapelayer"/><g class="imagelayer"/></g><path class="xlines-below"/><path class="ylines-below"/><g class="overlines-below"/><g class="xaxislayer-below"/><g class="yaxislayer-below"/><g class="overaxes-below"/><g class="overplot"><g class="x2y2" transform="translate(39,312.25000000000006)" clip-path="url(#clip006efcx2y2plot)"><g class="scatterlayer mlayer"><g class="trace scatter trace951d7c" style="stroke-miterlimit: 2; opacity: 1;"><g class="fills"/><g class="errorbars"/><g class="lines"><path class="js-line" d="M0,12.53L13.05,42.45L13.77,44.02L26.81,70.61L27.54,72L40.58,95.49L41.31,96.72L54.35,117.38L55.08,118.46L68.85,137.46L69.57,138.38L83.34,154.76L84.07,155.56L97.84,169.57L98.56,170.25L113.78,183.27L114.51,183.83L128.28,193.63L129,194.1L144.22,203.01L144.94,203.39L160.16,210.54L160.89,210.84L176.83,216.72L177.56,216.95L195.68,221.96L196.4,222.13L219.59,226.48L220.32,226.58L240.61,228.95L241.33,229.02L273.22,230.93L273.95,230.96L326.85,231.71L327.58,231.71L449.33,230.98L450.05,230.96L484.84,228.82L485.57,228.75L509.48,225.69L510.21,225.57L530.5,221.44L531.22,221.26L548.62,216.24L549.34,216L564.56,210.24L565.29,209.93L582.68,201.45L583.4,201.05L597.17,192.68L597.9,192.2L613.12,180.97L613.84,180.38L628.34,167.5L629.06,166.79L641.38,153.96L642.11,153.15L656.6,135.58L657.33,134.63L671.82,114.12L672.54,113.01L684.86,93.02L685.59,91.77L700.08,64.96L700.81,63.53L715.3,32.84L716.03,31.21L724,12.53" style="vector-effect: none; fill: none; stroke: rgb(255, 127, 14); stroke-opacity: 1; stroke-width: 3px; opacity: 1;"/></g><g class="points"/><g class="text"/></g><g class="trace scatter trace272221" style="stroke-miterlimit: 2; opacity: 1;"><g class="fills"/><g class="errorbars"/><g class="lines"/><g class="points"><path class="point" transform="translate(362,231.72)" d="M5,0A5,5 0 1,1 0,-5A5,5 0 0,1 5,0Z" style="opacity: 1; stroke-width: 0px; fill: rgb(255, 0, 0); fill-opacity: 1;"/></g><g class="text"><g class="textpoint" transform="translate(7.25,-11)"><text x="362" y="231.72" text-anchor="start" style="font-family: 'New Computer Modern'; font-size: 15px; fill: rgb(42, 63, 95); fill-opacity: 1; white-space: pre;">f'(0) = 0</text></g></g></g></g></g></g><path class="xlines-above crisp" d="M0,0" style="fill: none;"/><path class="ylines-above crisp" d="M0,0" style="fill: none;"/><g class="overlines-above"/><g class="xaxislayer-above"><g class="x2tick"><text text-anchor="middle" x="0" y="578.75" transform="translate(39,0)" style="font-family: 'New Computer Modern'; font-size: 15px; fill: rgb(42, 63, 95); fill-opacity: 1; white-space: pre; opacity: 1;">−6</text></g><g class="x2tick"><text text-anchor="middle" x="0" y="578.75" style="font-family: 'New Computer Modern'; font-size: 15px; fill: rgb(42, 63, 95); fill-opacity: 1; white-space: pre; opacity: 1;" transform="translate(159.67000000000002,0)">−4</text></g><g class="x2tick"><text text-anchor="middle" x="0" y="578.75" style="font-family: 'New Computer Modern'; font-size: 15px; fill: rgb(42, 63, 95); fill-opacity: 1; white-space: pre; opacity: 1;" transform="translate(280.33000000000004,0)">−2</text></g><g class="x2tick"><text text-anchor="middle" x="0" y="578.75" style="font-family: 'New Computer Modern'; font-size: 15px; fill: rgb(42, 63, 95); fill-opacity: 1; white-space: pre; opacity: 1;" transform="translate(401,0)">0</text></g><g class="x2tick"><text text-anchor="middle" x="0" y="578.75" style="font-family: 'New Computer Modern'; font-size: 15px; fill: rgb(42, 63, 95); fill-opacity: 1; white-space: pre; opacity: 1;" transform="translate(521.6700000000001,0)">2</text></g><g class="x2tick"><text text-anchor="middle" x="0" y="578.75" style="font-family: 'New Computer Modern'; font-size: 15px; fill: rgb(42, 63, 95); fill-opacity: 1; white-space: pre; opacity: 1;" transform="translate(642.33,0)">4</text></g><g class="x2tick"><text text-anchor="middle" x="0" y="578.75" style="font-family: 'New Computer Modern'; font-size: 15px; fill: rgb(42, 63, 95); fill-opacity: 1; white-space: pre; opacity: 1;" transform="translate(763,0)">6</text></g></g><g class="yaxislayer-above"><g class="y2tick"><text text-anchor="end" x="38" y="5.25" transform="translate(0,543.97)" style="font-family: 'New Computer Modern'; font-size: 15px; fill: rgb(42, 63, 95); fill-opacity: 1; white-space: pre; opacity: 1;">0</text></g><g class="y2tick"><text text-anchor="end" x="38" y="5.25" style="font-family: 'New Computer Modern'; font-size: 15px; fill: rgb(42, 63, 95); fill-opacity: 1; white-space: pre; opacity: 1;" transform="translate(0,476.32000000000005)">2000</text></g><g class="y2tick"><text text-anchor="end" x="38" y="5.25" style="font-family: 'New Computer Modern'; font-size: 15px; fill: rgb(42, 63, 95); fill-opacity: 1; white-space: pre; opacity: 1;" transform="translate(0,408.6700000000001)">4000</text></g><g class="y2tick"><text text-anchor="end" x="38" y="5.25" style="font-family: 'New Computer Modern'; font-size: 15px; fill: rgb(42, 63, 95); fill-opacity: 1; white-space: pre; opacity: 1;" transform="translate(0,341.01000000000005)">6000</text></g></g><g class="overaxes-above"/></g><g class="subplot x3y3"><g class="layer-subplot"><g class="shapelayer"/><g class="imagelayer"/></g><g class="minor-gridlayer"><g class="x3"/><g class="y3"/></g><g class="gridlayer"><g class="x3"><path class="x3grid crisp" transform="translate(159.67000000000002,0)" d="M0,604.5v250.5" style="stroke: rgb(255, 255, 255); stroke-opacity: 1; stroke-width: 1px;"/><path class="x3grid crisp" transform="translate(280.33000000000004,0)" d="M0,604.5v250.5" style="stroke: rgb(255, 255, 255); stroke-opacity: 1; stroke-width: 1px;"/><path class="x3grid crisp" transform="translate(521.6700000000001,0)" d="M0,604.5v250.5" style="stroke: rgb(255, 255, 255); stroke-opacity: 1; stroke-width: 1px;"/><path class="x3grid crisp" transform="translate(642.33,0)" d="M0,604.5v250.5" style="stroke: rgb(255, 255, 255); stroke-opacity: 1; stroke-width: 1px;"/></g><g class="y3"><path class="y3grid crisp" transform="translate(0,834.13)" d="M39,0h724" style="stroke: rgb(255, 255, 255); stroke-opacity: 1; stroke-width: 1px;"/><path class="y3grid crisp" transform="translate(0,781.94)" d="M39,0h724" style="stroke: rgb(255, 255, 255); stroke-opacity: 1; stroke-width: 1px;"/><path class="y3grid crisp" transform="translate(0,677.56)" d="M39,0h724" style="stroke: rgb(255, 255, 255); stroke-opacity: 1; stroke-width: 1px;"/><path class="y3grid crisp" transform="translate(0,625.38)" d="M39,0h724" style="stroke: rgb(255, 255, 255); stroke-opacity: 1; stroke-width: 1px;"/></g></g><g class="zerolinelayer"><path class="x3zl zl crisp" transform="translate(401,0)" d="M0,604.5v250.5" style="stroke: rgb(255, 255, 255); stroke-opacity: 1; stroke-width: 2px;"/><path class="y3zl zl crisp" transform="translate(0,729.75)" d="M39,0h724" style="stroke: rgb(255, 255, 255); stroke-opacity: 1; stroke-width: 2px;"/></g><g class="layer-between"><g class="shapelayer"/><g class="imagelayer"/></g><path class="xlines-below"/><path class="ylines-below"/><g class="overlines-below"/><g class="xaxislayer-below"/><g class="yaxislayer-below"/><g class="overaxes-below"/><g class="overplot"><g class="x3y3" transform="translate(39,604.5)" clip-path="url(#clip006efcx3y3plot)"><g class="scatterlayer mlayer"><g class="trace scatter trace0c4c7e" style="stroke-miterlimit: 2; opacity: 1;"><g class="fills"/><g class="errorbars"/><g class="lines"><path class="js-line" d="M0,237.98L18.12,221.88L18.84,221.27L42.03,203.09L42.76,202.56L63.78,188.28L64.5,187.82L84.79,175.87L85.52,175.47L107.26,164.53L107.98,164.2L127.55,155.87L128.28,155.59L150.74,147.65L151.47,147.42L178.28,139.98L179.01,139.81L204.37,134.56L205.1,134.43L229.01,130.84L229.74,130.75L258.73,127.87L259.45,127.81L298.59,125.86L299.31,125.84L347.14,125.26L347.87,125.26L429.76,124.51L430.49,124.49L472.52,122.04L473.25,121.98L507.31,117.96L508.03,117.85L533.4,113.29L534.12,113.13L555.86,107.94L556.59,107.74L577.61,101.43L578.33,101.19L598.62,93.77L599.35,93.48L621.09,83.92L621.81,83.57L642.11,73.03L642.83,72.62L663.12,60.37L663.85,59.9L684.14,45.81L684.86,45.27L703.71,30.44L704.43,29.83L721.1,15.21L721.83,14.54L724,12.53" style="vector-effect: none; fill: none; stroke: rgb(44, 160, 44); stroke-opacity: 1; stroke-width: 3px; opacity: 1;"/></g><g class="points"/><g class="text"/></g><g class="trace scatter trace318554" style="stroke-miterlimit: 2; opacity: 1;"><g class="fills"/><g class="errorbars"/><g class="lines"/><g class="points"><path class="point" transform="translate(362,125.25)" d="M5,0A5,5 0 1,1 0,-5A5,5 0 0,1 5,0Z" style="opacity: 1; stroke-width: 0px; fill: rgb(255, 0, 0); fill-opacity: 1;"/></g><g class="text"><g class="textpoint" transform="translate(7.25,-11)"><text x="362" y="125.25" text-anchor="start" style="font-family: 'New Computer Modern'; font-size: 15px; fill: rgb(42, 63, 95); fill-opacity: 1; white-space: pre;">f''(0) = 0</text></g></g></g></g></g></g><path class="xlines-above crisp" d="M0,0" style="fill: none;"/><path class="ylines-above crisp" d="M0,0" style="fill: none;"/><g class="overlines-above"/><g class="xaxislayer-above"><g class="x3tick"><text text-anchor="middle" x="0" y="871" transform="translate(39,0)" style="font-family: 'New Computer Modern'; font-size: 15px; fill: rgb(42, 63, 95); fill-opacity: 1; white-space: pre; opacity: 1;">−6</text></g><g class="x3tick"><text text-anchor="middle" x="0" y="871" style="font-family: 'New Computer Modern'; font-size: 15px; fill: rgb(42, 63, 95); fill-opacity: 1; white-space: pre; opacity: 1;" transform="translate(159.67000000000002,0)">−4</text></g><g class="x3tick"><text text-anchor="middle" x="0" y="871" style="font-family: 'New Computer Modern'; font-size: 15px; fill: rgb(42, 63, 95); fill-opacity: 1; white-space: pre; opacity: 1;" transform="translate(280.33000000000004,0)">−2</text></g><g class="x3tick"><text text-anchor="middle" x="0" y="871" style="font-family: 'New Computer Modern'; font-size: 15px; fill: rgb(42, 63, 95); fill-opacity: 1; white-space: pre; opacity: 1;" transform="translate(401,0)">0</text></g><g class="x3tick"><text text-anchor="middle" x="0" y="871" style="font-family: 'New Computer Modern'; font-size: 15px; fill: rgb(42, 63, 95); fill-opacity: 1; white-space: pre; opacity: 1;" transform="translate(521.6700000000001,0)">2</text></g><g class="x3tick"><text text-anchor="middle" x="0" y="871" style="font-family: 'New Computer Modern'; font-size: 15px; fill: rgb(42, 63, 95); fill-opacity: 1; white-space: pre; opacity: 1;" transform="translate(642.33,0)">4</text></g><g class="x3tick"><text text-anchor="middle" x="0" y="871" style="font-family: 'New Computer Modern'; font-size: 15px; fill: rgb(42, 63, 95); fill-opacity: 1; white-space: pre; opacity: 1;" transform="translate(763,0)">6</text></g></g><g class="yaxislayer-above"><g class="y3tick"><text text-anchor="end" x="38" y="5.25" transform="translate(0,834.13)" style="font-family: 'New Computer Modern'; font-size: 15px; fill: rgb(42, 63, 95); fill-opacity: 1; white-space: pre; opacity: 1;">−4000</text></g><g class="y3tick"><text text-anchor="end" x="38" y="5.25" style="font-family: 'New Computer Modern'; font-size: 15px; fill: rgb(42, 63, 95); fill-opacity: 1; white-space: pre; opacity: 1;" transform="translate(0,781.94)">−2000</text></g><g class="y3tick"><text text-anchor="end" x="38" y="5.25" style="font-family: 'New Computer Modern'; font-size: 15px; fill: rgb(42, 63, 95); fill-opacity: 1; white-space: pre; opacity: 1;" transform="translate(0,729.75)">0</text></g><g class="y3tick"><text text-anchor="end" x="38" y="5.25" style="font-family: 'New Computer Modern'; font-size: 15px; fill: rgb(42, 63, 95); fill-opacity: 1; white-space: pre; opacity: 1;" transform="translate(0,677.56)">2000</text></g><g class="y3tick"><text text-anchor="end" x="38" y="5.25" style="font-family: 'New Computer Modern'; font-size: 15px; fill: rgb(42, 63, 95); fill-opacity: 1; white-space: pre; opacity: 1;" transform="translate(0,625.38)">4000</text></g></g><g class="overaxes-above"/></g></g><g class="polarlayer"/><g class="smithlayer"/><g class="ternarylayer"/><g class="geolayer"/><g class="funnelarealayer"/><g class="pielayer"/><g class="iciclelayer"/><g class="treemaplayer"/><g class="sunburstlayer"/><g class="glimages"/><defs id="topdefs-006efc"><g class="clips"/><clipPath id="legend006efc"><rect width="123" height="142" x="0" y="0"/></clipPath></defs><g class="layer-above"><g class="imagelayer"/><g class="shapelayer"/></g><g class="infolayer"><g class="legend" pointer-events="all" transform="translate(777,20)"><rect class="bg" shape-rendering="crispEdges" style="stroke: rgb(68, 68, 68); stroke-opacity: 1; fill: rgb(0, 0, 0); fill-opacity: 0; stroke-width: 0px;" width="123" height="142" x="0" y="0"/><g class="scrollbox" transform="" clip-path="url(#legend006efc)"><g class="groups"><g class="traces" transform="translate(0,16.25)" style="opacity: 1;"><text class="legendtext" text-anchor="start" x="40" y="5.85" style="font-family: 'New Computer Modern'; font-size: 15px; fill: rgb(42, 63, 95); fill-opacity: 1; white-space: pre;">f(x)</text><g class="layers" style="opacity: 1;"><g class="legendfill"/><g class="legendlines"><path class="js-line" d="M5,0h30" style="fill: none; stroke: rgb(31, 119, 180); stroke-opacity: 1; stroke-width: 3px;"/></g><g class="legendsymbols"><g class="legendpoints"/></g></g><rect class="legendtoggle" x="0" y="-11.25" width="117.09375" height="22.5" style="fill: rgb(0, 0, 0); fill-opacity: 0;"/></g><g class="traces" transform="translate(0,38.75)" style="opacity: 1;"><text class="legendtext" text-anchor="start" x="40" y="5.85" style="font-family: 'New Computer Modern'; font-size: 15px; fill: rgb(42, 63, 95); fill-opacity: 1; white-space: pre;">f'(x)</text><g class="layers" style="opacity: 1;"><g class="legendfill"/><g class="legendlines"><path class="js-line" d="M5,0h30" style="fill: none; stroke: rgb(255, 127, 14); stroke-opacity: 1; stroke-width: 3px;"/></g><g class="legendsymbols"><g class="legendpoints"/></g></g><rect class="legendtoggle" x="0" y="-11.25" width="117.09375" height="22.5" style="fill: rgb(0, 0, 0); fill-opacity: 0;"/></g><g class="traces" transform="translate(0,61.25)" style="opacity: 1;"><text class="legendtext" text-anchor="start" x="40" y="5.85" style="font-family: 'New Computer Modern'; font-size: 15px; fill: rgb(42, 63, 95); fill-opacity: 1; white-space: pre;">f''(x)</text><g class="layers" style="opacity: 1;"><g class="legendfill"/><g class="legendlines"><path class="js-line" d="M5,0h30" style="fill: none; stroke: rgb(44, 160, 44); stroke-opacity: 1; stroke-width: 3px;"/></g><g class="legendsymbols"><g class="legendpoints"/></g></g><rect class="legendtoggle" x="0" y="-11.25" width="117.09375" height="22.5" style="fill: rgb(0, 0, 0); fill-opacity: 0;"/></g><g class="traces" transform="translate(0,83.75)" style="opacity: 1;"><text class="legendtext" text-anchor="start" x="40" y="5.85" style="font-family: 'New Computer Modern'; font-size: 15px; fill: rgb(42, 63, 95); fill-opacity: 1; white-space: pre;">Saddle Point</text><g class="layers" style="opacity: 1;"><g class="legendfill"/><g class="legendlines"/><g class="legendsymbols"><g class="legendpoints"><path class="scatterpts" transform="translate(20,0)" d="M6.5,0L0,6.5L-6.5,0L0,-6.5Z" style="opacity: 1; stroke-width: 0px; fill: rgb(171, 99, 250); fill-opacity: 1;"/></g></g></g><rect class="legendtoggle" x="0" y="-11.25" width="117.09375" height="22.5" style="fill: rgb(0, 0, 0); fill-opacity: 0;"/></g><g class="traces" transform="translate(0,116)" style="opacity: 1;"><text class="legendtext" text-anchor="start" x="40" y="-3.9000000000000004" style="font-family: 'New Computer Modern'; font-size: 15px; fill: rgb(42, 63, 95); fill-opacity: 1; white-space: pre;"><tspan class="line" dy="0em" x="40" y="-3.9000000000000004">Tangent at </tspan><tspan class="line" dy="1.3em" x="40" y="-3.9000000000000004">Saddle Point</tspan></text><g class="layers" style="opacity: 1;"><g class="legendfill"/><g class="legendlines"><path class="js-line" d="M5,0h30" style="fill: none; stroke: rgb(255, 161, 90); stroke-opacity: 1; stroke-dasharray: 9px, 9px; stroke-width: 2px;"/></g><g class="legendsymbols"><g class="legendpoints"/></g></g><rect class="legendtoggle" x="0" y="-21" width="117.09375" height="42" style="fill: rgb(0, 0, 0); fill-opacity: 0;"/></g></g></g><rect class="scrollbar" rx="20" ry="3" width="0" height="0" style="fill: rgb(128, 139, 164); fill-opacity: 1;" x="0" y="0"/></g><g class="g-gtitle"/><g class="g-xtitle"/><g class="g-x2title"/><g class="g-x3title" transform="translate(0,-2)"><text class="x3title" x="401" y="899" text-anchor="middle" style="opacity: 1; font-family: 'New Computer Modern'; font-size: 15px; fill: rgb(42, 63, 95); fill-opacity: 1; white-space: pre;">x</text></g><g class="g-ytitle"/><g class="g-y2title"/><g class="g-y3title"/><g class="annotation" data-index="0" style="opacity: 1;"><g class="annotation-text-g" transform="rotate(0,401,9.499999999999996)"><g class="cursor-pointer" transform="translate(333,-1)"><rect class="bg" x="0.5" y="0.5" width="136" height="20" style="stroke-width: 1px; stroke: rgb(0, 0, 0); stroke-opacity: 0; fill: rgb(0, 0, 0); fill-opacity: 0;"/><text class="annotation-text" text-anchor="middle" x="68.65625" y="15" style="font-family: 'New Computer Modern'; font-size: 15px; fill: rgb(42, 63, 95); fill-opacity: 1; white-space: pre;">Original Function f(x)</text></g></g></g><g class="annotation" data-index="1" style="opacity: 1;"><g class="annotation-text-g" transform="rotate(0,401,301.75000000000006)"><g class="cursor-pointer" transform="translate(337,291)"><rect class="bg" x="0.5" y="0.5" width="127" height="20" style="stroke-width: 1px; stroke: rgb(0, 0, 0); stroke-opacity: 0; fill: rgb(0, 0, 0); fill-opacity: 0;"/><text class="annotation-text" text-anchor="middle" x="63.765625" y="15" style="font-family: 'New Computer Modern'; font-size: 15px; fill: rgb(42, 63, 95); fill-opacity: 1; white-space: pre;">First Derivative f'(x)</text></g></g></g><g class="annotation" data-index="2" style="opacity: 1;"><g class="annotation-text-g" transform="rotate(0,401,594)"><g class="cursor-pointer" transform="translate(328,584)"><rect class="bg" x="0.5" y="0.5" width="146" height="20" style="stroke-width: 1px; stroke: rgb(0, 0, 0); stroke-opacity: 0; fill: rgb(0, 0, 0); fill-opacity: 0;"/><text class="annotation-text" text-anchor="middle" x="73.4375" y="15" style="font-family: 'New Computer Modern'; font-size: 15px; fill: rgb(42, 63, 95); fill-opacity: 1; white-space: pre;">Second Derivative f''(x)</text></g></g></g></g></svg>