<svg width="3151" height="1096" xmlns="http://www.w3.org/2000/svg" xmlns:xlink="http://www.w3.org/1999/xlink" overflow="hidden"><defs><clipPath id="clip0"><rect x="202" y="1048" width="3151" height="1096"/></clipPath></defs><g clip-path="url(#clip0)" transform="translate(-202 -1048)"><rect x="588.5" y="1462.17" width="338.329" height="276.329" fill="#009FE3"/><path d="M926.829 1462.17 1012.5 1376.5 1012.5 1652.83 926.829 1738.5Z" fill="#0080B6" fill-rule="evenodd"/><path d="M588.5 1462.17 674.171 1376.5 1012.5 1376.5 926.829 1462.17Z" fill="#32B2E8" fill-rule="evenodd"/><path d="M588.5 1462.17 674.171 1376.5 1012.5 1376.5 1012.5 1652.83 926.829 1738.5 588.5 1738.5ZM588.5 1462.17 926.829 1462.17 1012.5 1376.5M926.829 1462.17 926.829 1738.5" stroke="#000000" stroke-width="4.58333" stroke-miterlimit="8" fill="none" fill-rule="evenodd"/><rect x="929.5" y="1462.17" width="338.329" height="276.329" fill="#009FE3"/><path d="M1267.83 1462.17 1353.5 1376.5 1353.5 1652.83 1267.83 1738.5Z" fill="#0080B6" fill-rule="evenodd"/><path d="M929.5 1462.17 1015.17 1376.5 1353.5 1376.5 1267.83 1462.17Z" fill="#32B2E8" fill-rule="evenodd"/><path d="M929.5 1462.17 1015.17 1376.5 1353.5 1376.5 1353.5 1652.83 1267.83 1738.5 929.5 1738.5ZM929.5 1462.17 1267.83 1462.17 1353.5 1376.5M1267.83 1462.17 1267.83 1738.5" stroke="#000000" stroke-width="4.58333" stroke-miterlimit="8" fill="none" fill-rule="evenodd"/><rect x="1253.5" y="1462.17" width="339.329" height="276.329" fill="#009FE3"/><path d="M1592.83 1462.17 1678.5 1376.5 1678.5 1652.83 1592.83 1738.5Z" fill="#0080B6" fill-rule="evenodd"/><path d="M1253.5 1462.17 1339.17 1376.5 1678.5 1376.5 1592.83 1462.17Z" fill="#32B2E8" fill-rule="evenodd"/><path d="M1253.5 1462.17 1339.17 1376.5 1678.5 1376.5 1678.5 1652.83 1592.83 1738.5 1253.5 1738.5ZM1253.5 1462.17 1592.83 1462.17 1678.5 1376.5M1592.83 1462.17 1592.83 1738.5" stroke="#000000" stroke-width="4.58333" stroke-miterlimit="8" fill="none" fill-rule="evenodd"/><rect x="1594.5" y="1462.17" width="339.329" height="276.329" fill="#009FE3"/><path d="M1933.83 1462.17 2019.5 1376.5 2019.5 1652.83 1933.83 1738.5Z" fill="#0080B6" fill-rule="evenodd"/><path d="M1594.5 1462.17 1680.17 1376.5 2019.5 1376.5 1933.83 1462.17Z" fill="#32B2E8" fill-rule="evenodd"/><path d="M1594.5 1462.17 1680.17 1376.5 2019.5 1376.5 2019.5 1652.83 1933.83 1738.5 1594.5 1738.5ZM1594.5 1462.17 1933.83 1462.17 2019.5 1376.5M1933.83 1462.17 1933.83 1738.5" stroke="#000000" stroke-width="4.58333" stroke-miterlimit="8" fill="none" fill-rule="evenodd"/><rect x="1919.5" y="1462.17" width="338.329" height="276.329" fill="#009FE3"/><path d="M2257.83 1462.17 2343.5 1376.5 2343.5 1652.83 2257.83 1738.5Z" fill="#0080B6" fill-rule="evenodd"/><path d="M1919.5 1462.17 2005.17 1376.5 2343.5 1376.5 2257.83 1462.17Z" fill="#32B2E8" fill-rule="evenodd"/><path d="M1919.5 1462.17 2005.17 1376.5 2343.5 1376.5 2343.5 1652.83 2257.83 1738.5 1919.5 1738.5ZM1919.5 1462.17 2257.83 1462.17 2343.5 1376.5M2257.83 1462.17 2257.83 1738.5" stroke="#000000" stroke-width="4.58333" stroke-miterlimit="8" fill="none" fill-rule="evenodd"/><rect x="2260.5" y="1462.17" width="338.329" height="276.329" fill="#009FE3"/><path d="M2598.83 1462.17 2684.5 1376.5 2684.5 1652.83 2598.83 1738.5Z" fill="#0080B6" fill-rule="evenodd"/><path d="M2260.5 1462.17 2346.17 1376.5 2684.5 1376.5 2598.83 1462.17Z" fill="#32B2E8" fill-rule="evenodd"/><path d="M2260.5 1462.17 2346.17 1376.5 2684.5 1376.5 2684.5 1652.83 2598.83 1738.5 2260.5 1738.5ZM2260.5 1462.17 2598.83 1462.17 2684.5 1376.5M2598.83 1462.17 2598.83 1738.5" stroke="#000000" stroke-width="4.58333" stroke-miterlimit="8" fill="none" fill-rule="evenodd"/><rect x="2585.5" y="1462.17" width="338.329" height="276.329" fill="#009FE3"/><path d="M2923.83 1462.17 3009.5 1376.5 3009.5 1652.83 2923.83 1738.5Z" fill="#0080B6" fill-rule="evenodd"/><path d="M2585.5 1462.17 2671.17 1376.5 3009.5 1376.5 2923.83 1462.17Z" fill="#32B2E8" fill-rule="evenodd"/><path d="M2585.5 1462.17 2671.17 1376.5 3009.5 1376.5 3009.5 1652.83 2923.83 1738.5 2585.5 1738.5ZM2585.5 1462.17 2923.83 1462.17 3009.5 1376.5M2923.83 1462.17 2923.83 1738.5" stroke="#000000" stroke-width="4.58333" stroke-miterlimit="8" fill="none" fill-rule="evenodd"/><rect x="2926.5" y="1462.17" width="338.329" height="276.329" fill="#009FE3"/><path d="M3264.83 1462.17 3350.5 1376.5 3350.5 1652.83 3264.83 1738.5Z" fill="#0080B6" fill-rule="evenodd"/><path d="M2926.5 1462.17 3012.17 1376.5 3350.5 1376.5 3264.83 1462.17Z" fill="#32B2E8" fill-rule="evenodd"/><path d="M2926.5 1462.17 3012.17 1376.5 3350.5 1376.5 3350.5 1652.83 3264.83 1738.5 2926.5 1738.5ZM2926.5 1462.17 3264.83 1462.17 3350.5 1376.5M3264.83 1462.17 3264.83 1738.5" stroke="#000000" stroke-width="4.58333" stroke-miterlimit="8" fill="none" fill-rule="evenodd"/><rect x="588.5" y="1185.93" width="338.566" height="275.566" fill="#009FE3"/><path d="M927.066 1185.93 1012.5 1100.5 1012.5 1376.07 927.066 1461.5Z" fill="#0080B6" fill-rule="evenodd"/><path d="M588.5 1185.93 673.934 1100.5 1012.5 1100.5 927.066 1185.93Z" fill="#32B2E8" fill-rule="evenodd"/><path d="M588.5 1185.93 673.934 1100.5 1012.5 1100.5 1012.5 1376.07 927.066 1461.5 588.5 1461.5ZM588.5 1185.93 927.066 1185.93 1012.5 1100.5M927.066 1185.93 927.066 1461.5" stroke="#000000" stroke-width="4.58333" stroke-miterlimit="8" fill="none" fill-rule="evenodd"/><rect x="929.5" y="1185.93" width="338.566" height="275.566" fill="#009FE3"/><path d="M1268.07 1185.93 1353.5 1100.5 1353.5 1376.07 1268.07 1461.5Z" fill="#0080B6" fill-rule="evenodd"/><path d="M929.5 1185.93 1014.93 1100.5 1353.5 1100.5 1268.07 1185.93Z" fill="#32B2E8" fill-rule="evenodd"/><path d="M929.5 1185.93 1014.93 1100.5 1353.5 1100.5 1353.5 1376.07 1268.07 1461.5 929.5 1461.5ZM929.5 1185.93 1268.07 1185.93 1353.5 1100.5M1268.07 1185.93 1268.07 1461.5" stroke="#000000" stroke-width="4.58333" stroke-miterlimit="8" fill="none" fill-rule="evenodd"/><rect x="1253.5" y="1185.94" width="339.561" height="275.582" fill="#009FE3"/><path d="M1593.06 1185.94 1678.5 1100.5 1678.5 1376.08 1593.06 1461.52Z" fill="#0080B6" fill-rule="evenodd"/><path d="M1253.5 1185.94 1338.94 1100.5 1678.5 1100.5 1593.06 1185.94Z" fill="#32B2E8" fill-rule="evenodd"/><path d="M1253.5 1185.94 1338.94 1100.5 1678.5 1100.5 1678.5 1376.08 1593.06 1461.52 1253.5 1461.52ZM1253.5 1185.94 1593.06 1185.94 1678.5 1100.5M1593.06 1185.94 1593.06 1461.52" stroke="#000000" stroke-width="4.58333" stroke-miterlimit="8" fill="none" fill-rule="evenodd"/><rect x="1594.5" y="1185.94" width="339.561" height="275.582" fill="#009FE3"/><path d="M1934.06 1185.94 2019.5 1100.5 2019.5 1376.08 1934.06 1461.52Z" fill="#0080B6" fill-rule="evenodd"/><path d="M1594.5 1185.94 1679.94 1100.5 2019.5 1100.5 1934.06 1185.94Z" fill="#32B2E8" fill-rule="evenodd"/><path d="M1594.5 1185.94 1679.94 1100.5 2019.5 1100.5 2019.5 1376.08 1934.06 1461.52 1594.5 1461.52ZM1594.5 1185.94 1934.06 1185.94 2019.5 1100.5M1934.06 1185.94 1934.06 1461.52" stroke="#000000" stroke-width="4.58333" stroke-miterlimit="8" fill="none" fill-rule="evenodd"/><rect x="1919.5" y="1185.93" width="338.565" height="275.566" fill="#009FE3"/><path d="M2258.07 1185.93 2343.5 1100.5 2343.5 1376.07 2258.07 1461.5Z" fill="#0080B6" fill-rule="evenodd"/><path d="M1919.5 1185.93 2004.93 1100.5 2343.5 1100.5 2258.07 1185.93Z" fill="#32B2E8" fill-rule="evenodd"/><path d="M1919.5 1185.93 2004.93 1100.5 2343.5 1100.5 2343.5 1376.07 2258.07 1461.5 1919.5 1461.5ZM1919.5 1185.93 2258.07 1185.93 2343.5 1100.5M2258.07 1185.93 2258.07 1461.5" stroke="#000000" stroke-width="4.58333" stroke-miterlimit="8" fill="none" fill-rule="evenodd"/><rect x="2260.5" y="1185.93" width="338.565" height="275.566" fill="#009FE3"/><path d="M2599.07 1185.93 2684.5 1100.5 2684.5 1376.07 2599.07 1461.5Z" fill="#0080B6" fill-rule="evenodd"/><path d="M2260.5 1185.93 2345.93 1100.5 2684.5 1100.5 2599.07 1185.93Z" fill="#32B2E8" fill-rule="evenodd"/><path d="M2260.5 1185.93 2345.93 1100.5 2684.5 1100.5 2684.5 1376.07 2599.07 1461.5 2260.5 1461.5ZM2260.5 1185.93 2599.07 1185.93 2684.5 1100.5M2599.07 1185.93 2599.07 1461.5" stroke="#000000" stroke-width="4.58333" stroke-miterlimit="8" fill="none" fill-rule="evenodd"/><rect x="2585.5" y="1185.93" width="338.566" height="275.566" fill="#009FE3"/><path d="M2924.07 1185.93 3009.5 1100.5 3009.5 1376.07 2924.07 1461.5Z" fill="#0080B6" fill-rule="evenodd"/><path d="M2585.5 1185.93 2670.93 1100.5 3009.5 1100.5 2924.07 1185.93Z" fill="#32B2E8" fill-rule="evenodd"/><path d="M2585.5 1185.93 2670.93 1100.5 3009.5 1100.5 3009.5 1376.07 2924.07 1461.5 2585.5 1461.5ZM2585.5 1185.93 2924.07 1185.93 3009.5 1100.5M2924.07 1185.93 2924.07 1461.5" stroke="#000000" stroke-width="4.58333" stroke-miterlimit="8" fill="none" fill-rule="evenodd"/><rect x="2926.5" y="1185.93" width="338.566" height="275.566" fill="#009FE3"/><path d="M3265.07 1185.93 3350.5 1100.5 3350.5 1376.07 3265.07 1461.5Z" fill="#0080B6" fill-rule="evenodd"/><path d="M2926.5 1185.93 3011.93 1100.5 3350.5 1100.5 3265.07 1185.93Z" fill="#32B2E8" fill-rule="evenodd"/><path d="M2926.5 1185.93 3011.93 1100.5 3350.5 1100.5 3350.5 1376.07 3265.07 1461.5 2926.5 1461.5ZM2926.5 1185.93 3265.07 1185.93 3350.5 1100.5M3265.07 1185.93 3265.07 1461.5" stroke="#000000" stroke-width="4.58333" stroke-miterlimit="8" fill="none" fill-rule="evenodd"/><rect x="501.5" y="1548.93" width="338.566" height="275.566" fill="#0069B4"/><path d="M840.066 1548.93 925.5 1463.5 925.5 1739.07 840.066 1824.5Z" fill="#005491" fill-rule="evenodd"/><path d="M501.5 1548.93 586.934 1463.5 925.5 1463.5 840.066 1548.93Z" fill="#3286C3" fill-rule="evenodd"/><path d="M501.5 1548.93 586.934 1463.5 925.5 1463.5 925.5 1739.07 840.066 1824.5 501.5 1824.5ZM501.5 1548.93 840.066 1548.93 925.5 1463.5M840.066 1548.93 840.066 1824.5" stroke="#000000" stroke-width="4.58333" stroke-miterlimit="8" fill="none" fill-rule="evenodd"/><rect x="842.5" y="1548.93" width="338.565" height="275.566" fill="#0069B4"/><path d="M1181.07 1548.93 1266.5 1463.5 1266.5 1739.07 1181.07 1824.5Z" fill="#005491" fill-rule="evenodd"/><path d="M842.5 1548.93 927.934 1463.5 1266.5 1463.5 1181.07 1548.93Z" fill="#3286C3" fill-rule="evenodd"/><path d="M842.5 1548.93 927.934 1463.5 1266.5 1463.5 1266.5 1739.07 1181.07 1824.5 842.5 1824.5ZM842.5 1548.93 1181.07 1548.93 1266.5 1463.5M1181.07 1548.93 1181.07 1824.5" stroke="#000000" stroke-width="4.58333" stroke-miterlimit="8" fill="none" fill-rule="evenodd"/><rect x="1166.5" y="1548.93" width="338.566" height="275.566" fill="#0069B4"/><path d="M1505.07 1548.93 1590.5 1463.5 1590.5 1739.07 1505.07 1824.5Z" fill="#005491" fill-rule="evenodd"/><path d="M1166.5 1548.93 1251.93 1463.5 1590.5 1463.5 1505.07 1548.93Z" fill="#3286C3" fill-rule="evenodd"/><path d="M1166.5 1548.93 1251.93 1463.5 1590.5 1463.5 1590.5 1739.07 1505.07 1824.5 1166.5 1824.5ZM1166.5 1548.93 1505.07 1548.93 1590.5 1463.5M1505.07 1548.93 1505.07 1824.5" stroke="#000000" stroke-width="4.58333" stroke-miterlimit="8" fill="none" fill-rule="evenodd"/><rect x="1507.5" y="1548.93" width="338.566" height="275.566" fill="#0069B4"/><path d="M1846.07 1548.93 1931.5 1463.5 1931.5 1739.07 1846.07 1824.5Z" fill="#005491" fill-rule="evenodd"/><path d="M1507.5 1548.93 1592.93 1463.5 1931.5 1463.5 1846.07 1548.93Z" fill="#3286C3" fill-rule="evenodd"/><path d="M1507.5 1548.93 1592.93 1463.5 1931.5 1463.5 1931.5 1739.07 1846.07 1824.5 1507.5 1824.5ZM1507.5 1548.93 1846.07 1548.93 1931.5 1463.5M1846.07 1548.93 1846.07 1824.5" stroke="#000000" stroke-width="4.58333" stroke-miterlimit="8" fill="none" fill-rule="evenodd"/><rect x="1832.5" y="1548.93" width="338.565" height="275.566" fill="#0069B4"/><path d="M2171.07 1548.93 2256.5 1463.5 2256.5 1739.07 2171.07 1824.5Z" fill="#005491" fill-rule="evenodd"/><path d="M1832.5 1548.93 1917.93 1463.5 2256.5 1463.5 2171.07 1548.93Z" fill="#3286C3" fill-rule="evenodd"/><path d="M1832.5 1548.93 1917.93 1463.5 2256.5 1463.5 2256.5 1739.07 2171.07 1824.5 1832.5 1824.5ZM1832.5 1548.93 2171.07 1548.93 2256.5 1463.5M2171.07 1548.93 2171.07 1824.5" stroke="#000000" stroke-width="4.58333" stroke-miterlimit="8" fill="none" fill-rule="evenodd"/><rect x="2173.5" y="1548.93" width="338.565" height="275.566" fill="#0069B4"/><path d="M2512.07 1548.93 2597.5 1463.5 2597.5 1739.07 2512.07 1824.5Z" fill="#005491" fill-rule="evenodd"/><path d="M2173.5 1548.93 2258.93 1463.5 2597.5 1463.5 2512.07 1548.93Z" fill="#3286C3" fill-rule="evenodd"/><path d="M2173.5 1548.93 2258.93 1463.5 2597.5 1463.5 2597.5 1739.07 2512.07 1824.5 2173.5 1824.5ZM2173.5 1548.93 2512.07 1548.93 2597.5 1463.5M2512.07 1548.93 2512.07 1824.5" stroke="#000000" stroke-width="4.58333" stroke-miterlimit="8" fill="none" fill-rule="evenodd"/><rect x="2497.5" y="1548.94" width="339.561" height="275.582" fill="#0069B4"/><path d="M2837.06 1548.94 2922.5 1463.5 2922.5 1739.08 2837.06 1824.52Z" fill="#005491" fill-rule="evenodd"/><path d="M2497.5 1548.94 2582.94 1463.5 2922.5 1463.5 2837.06 1548.94Z" fill="#3286C3" fill-rule="evenodd"/><path d="M2497.5 1548.94 2582.94 1463.5 2922.5 1463.5 2922.5 1739.08 2837.06 1824.52 2497.5 1824.52ZM2497.5 1548.94 2837.06 1548.94 2922.5 1463.5M2837.06 1548.94 2837.06 1824.52" stroke="#000000" stroke-width="4.58333" stroke-miterlimit="8" fill="none" fill-rule="evenodd"/><rect x="2838.5" y="1548.93" width="338.566" height="275.566" fill="#0069B4"/><path d="M3177.07 1548.93 3262.5 1463.5 3262.5 1739.07 3177.07 1824.5Z" fill="#005491" fill-rule="evenodd"/><path d="M2838.5 1548.93 2923.93 1463.5 3262.5 1463.5 3177.07 1548.93Z" fill="#3286C3" fill-rule="evenodd"/><path d="M2838.5 1548.93 2923.93 1463.5 3262.5 1463.5 3262.5 1739.07 3177.07 1824.5 2838.5 1824.5ZM2838.5 1548.93 3177.07 1548.93 3262.5 1463.5M3177.07 1548.93 3177.07 1824.5" stroke="#000000" stroke-width="4.58333" stroke-miterlimit="8" fill="none" fill-rule="evenodd"/><rect x="501.5" y="1271.93" width="338.566" height="275.566" fill="#0069B4"/><path d="M840.066 1271.93 925.5 1186.5 925.5 1462.07 840.066 1547.5Z" fill="#005491" fill-rule="evenodd"/><path d="M501.5 1271.93 586.934 1186.5 925.5 1186.5 840.066 1271.93Z" fill="#3286C3" fill-rule="evenodd"/><path d="M501.5 1271.93 586.934 1186.5 925.5 1186.5 925.5 1462.07 840.066 1547.5 501.5 1547.5ZM501.5 1271.93 840.066 1271.93 925.5 1186.5M840.066 1271.93 840.066 1547.5" stroke="#000000" stroke-width="4.58333" stroke-miterlimit="8" fill="none" fill-rule="evenodd"/><rect x="842.5" y="1271.93" width="338.565" height="275.566" fill="#0069B4"/><path d="M1181.07 1271.93 1266.5 1186.5 1266.5 1462.07 1181.07 1547.5Z" fill="#005491" fill-rule="evenodd"/><path d="M842.5 1271.93 927.934 1186.5 1266.5 1186.5 1181.07 1271.93Z" fill="#3286C3" fill-rule="evenodd"/><path d="M842.5 1271.93 927.934 1186.5 1266.5 1186.5 1266.5 1462.07 1181.07 1547.5 842.5 1547.5ZM842.5 1271.93 1181.07 1271.93 1266.5 1186.5M1181.07 1271.93 1181.07 1547.5" stroke="#000000" stroke-width="4.58333" stroke-miterlimit="8" fill="none" fill-rule="evenodd"/><rect x="1166.5" y="1271.93" width="338.566" height="275.566" fill="#0069B4"/><path d="M1505.07 1271.93 1590.5 1186.5 1590.5 1462.07 1505.07 1547.5Z" fill="#005491" fill-rule="evenodd"/><path d="M1166.5 1271.93 1251.93 1186.5 1590.5 1186.5 1505.07 1271.93Z" fill="#3286C3" fill-rule="evenodd"/><path d="M1166.5 1271.93 1251.93 1186.5 1590.5 1186.5 1590.5 1462.07 1505.07 1547.5 1166.5 1547.5ZM1166.5 1271.93 1505.07 1271.93 1590.5 1186.5M1505.07 1271.93 1505.07 1547.5" stroke="#000000" stroke-width="4.58333" stroke-miterlimit="8" fill="none" fill-rule="evenodd"/><rect x="1507.5" y="1271.93" width="338.566" height="275.566" fill="#0069B4"/><path d="M1846.07 1271.93 1931.5 1186.5 1931.5 1462.07 1846.07 1547.5Z" fill="#005491" fill-rule="evenodd"/><path d="M1507.5 1271.93 1592.93 1186.5 1931.5 1186.5 1846.07 1271.93Z" fill="#3286C3" fill-rule="evenodd"/><path d="M1507.5 1271.93 1592.93 1186.5 1931.5 1186.5 1931.5 1462.07 1846.07 1547.5 1507.5 1547.5ZM1507.5 1271.93 1846.07 1271.93 1931.5 1186.5M1846.07 1271.93 1846.07 1547.5" stroke="#000000" stroke-width="4.58333" stroke-miterlimit="8" fill="none" fill-rule="evenodd"/><rect x="1832.5" y="1271.93" width="338.565" height="275.566" fill="#0069B4"/><path d="M2171.07 1271.93 2256.5 1186.5 2256.5 1462.07 2171.07 1547.5Z" fill="#005491" fill-rule="evenodd"/><path d="M1832.5 1271.93 1917.93 1186.5 2256.5 1186.5 2171.07 1271.93Z" fill="#3286C3" fill-rule="evenodd"/><path d="M1832.5 1271.93 1917.93 1186.5 2256.5 1186.5 2256.5 1462.07 2171.07 1547.5 1832.5 1547.5ZM1832.5 1271.93 2171.07 1271.93 2256.5 1186.5M2171.07 1271.93 2171.07 1547.5" stroke="#000000" stroke-width="4.58333" stroke-miterlimit="8" fill="none" fill-rule="evenodd"/><rect x="2173.5" y="1271.93" width="338.565" height="275.566" fill="#0069B4"/><path d="M2512.07 1271.93 2597.5 1186.5 2597.5 1462.07 2512.07 1547.5Z" fill="#005491" fill-rule="evenodd"/><path d="M2173.5 1271.93 2258.93 1186.5 2597.5 1186.5 2512.07 1271.93Z" fill="#3286C3" fill-rule="evenodd"/><path d="M2173.5 1271.93 2258.93 1186.5 2597.5 1186.5 2597.5 1462.07 2512.07 1547.5 2173.5 1547.5ZM2173.5 1271.93 2512.07 1271.93 2597.5 1186.5M2512.07 1271.93 2512.07 1547.5" stroke="#000000" stroke-width="4.58333" stroke-miterlimit="8" fill="none" fill-rule="evenodd"/><rect x="2497.5" y="1271.94" width="339.561" height="275.582" fill="#0069B4"/><path d="M2837.06 1271.94 2922.5 1186.5 2922.5 1462.08 2837.06 1547.52Z" fill="#005491" fill-rule="evenodd"/><path d="M2497.5 1271.94 2582.94 1186.5 2922.5 1186.5 2837.06 1271.94Z" fill="#3286C3" fill-rule="evenodd"/><path d="M2497.5 1271.94 2582.94 1186.5 2922.5 1186.5 2922.5 1462.08 2837.06 1547.52 2497.5 1547.52ZM2497.5 1271.94 2837.06 1271.94 2922.5 1186.5M2837.06 1271.94 2837.06 1547.52" stroke="#000000" stroke-width="4.58333" stroke-miterlimit="8" fill="none" fill-rule="evenodd"/><rect x="2838.5" y="1271.93" width="338.566" height="275.566" fill="#0069B4"/><path d="M3177.07 1271.93 3262.5 1186.5 3262.5 1462.07 3177.07 1547.5Z" fill="#005491" fill-rule="evenodd"/><path d="M2838.5 1271.93 2923.93 1186.5 3262.5 1186.5 3177.07 1271.93Z" fill="#3286C3" fill-rule="evenodd"/><path d="M2838.5 1271.93 2923.93 1186.5 3262.5 1186.5 3262.5 1462.07 3177.07 1547.5 2838.5 1547.5ZM2838.5 1271.93 3177.07 1271.93 3262.5 1186.5M3177.07 1271.93 3177.07 1547.5" stroke="#000000" stroke-width="4.58333" stroke-miterlimit="8" fill="none" fill-rule="evenodd"/><rect x="417.5" y="1633.17" width="339.329" height="276.329" fill="#65B32E"/><path d="M756.829 1633.17 842.5 1547.5 842.5 1823.83 756.829 1909.5Z" fill="#519025" fill-rule="evenodd"/><path d="M417.5 1633.17 503.171 1547.5 842.5 1547.5 756.829 1633.17Z" fill="#83C257" fill-rule="evenodd"/><path d="M417.5 1633.17 503.171 1547.5 842.5 1547.5 842.5 1823.83 756.829 1909.5 417.5 1909.5ZM417.5 1633.17 756.829 1633.17 842.5 1547.5M756.829 1633.17 756.829 1909.5" stroke="#002042" stroke-width="4.58333" stroke-miterlimit="8" fill="none" fill-rule="evenodd"/><rect x="758.5" y="1633.17" width="339.329" height="276.329" fill="#65B32E"/><path d="M1097.83 1633.17 1183.5 1547.5 1183.5 1823.83 1097.83 1909.5Z" fill="#519025" fill-rule="evenodd"/><path d="M758.5 1633.17 844.171 1547.5 1183.5 1547.5 1097.83 1633.17Z" fill="#83C257" fill-rule="evenodd"/><path d="M758.5 1633.17 844.171 1547.5 1183.5 1547.5 1183.5 1823.83 1097.83 1909.5 758.5 1909.5ZM758.5 1633.17 1097.83 1633.17 1183.5 1547.5M1097.83 1633.17 1097.83 1909.5" stroke="#002042" stroke-width="4.58333" stroke-miterlimit="8" fill="none" fill-rule="evenodd"/><rect x="1083.5" y="1633.17" width="338.329" height="276.329" fill="#65B32E"/><path d="M1421.83 1633.17 1507.5 1547.5 1507.5 1823.83 1421.83 1909.5Z" fill="#519025" fill-rule="evenodd"/><path d="M1083.5 1633.17 1169.17 1547.5 1507.5 1547.5 1421.83 1633.17Z" fill="#83C257" fill-rule="evenodd"/><path d="M1083.5 1633.17 1169.17 1547.5 1507.5 1547.5 1507.5 1823.83 1421.83 1909.5 1083.5 1909.5ZM1083.5 1633.17 1421.83 1633.17 1507.5 1547.5M1421.83 1633.17 1421.83 1909.5" stroke="#002042" stroke-width="4.58333" stroke-miterlimit="8" fill="none" fill-rule="evenodd"/><rect x="1424.5" y="1633.17" width="338.329" height="276.329" fill="#65B32E"/><path d="M1762.83 1633.17 1848.5 1547.5 1848.5 1823.83 1762.83 1909.5Z" fill="#519025" fill-rule="evenodd"/><path d="M1424.5 1633.17 1510.17 1547.5 1848.5 1547.5 1762.83 1633.17Z" fill="#83C257" fill-rule="evenodd"/><path d="M1424.5 1633.17 1510.17 1547.5 1848.5 1547.5 1848.5 1823.83 1762.83 1909.5 1424.5 1909.5ZM1424.5 1633.17 1762.83 1633.17 1848.5 1547.5M1762.83 1633.17 1762.83 1909.5" stroke="#002042" stroke-width="4.58333" stroke-miterlimit="8" fill="none" fill-rule="evenodd"/><rect x="1749.5" y="1633.17" width="338.329" height="276.329" fill="#65B32E"/><path d="M2087.83 1633.17 2173.5 1547.5 2173.5 1823.83 2087.83 1909.5Z" fill="#519025" fill-rule="evenodd"/><path d="M1749.5 1633.17 1835.17 1547.5 2173.5 1547.5 2087.83 1633.17Z" fill="#83C257" fill-rule="evenodd"/><path d="M1749.5 1633.17 1835.17 1547.5 2173.5 1547.5 2173.5 1823.83 2087.83 1909.5 1749.5 1909.5ZM1749.5 1633.17 2087.83 1633.17 2173.5 1547.5M2087.83 1633.17 2087.83 1909.5" stroke="#002042" stroke-width="4.58333" stroke-miterlimit="8" fill="none" fill-rule="evenodd"/><rect x="2089.5" y="1633.17" width="339.329" height="276.329" fill="#65B32E"/><path d="M2428.83 1633.17 2514.5 1547.5 2514.5 1823.83 2428.83 1909.5Z" fill="#519025" fill-rule="evenodd"/><path d="M2089.5 1633.17 2175.17 1547.5 2514.5 1547.5 2428.83 1633.17Z" fill="#83C257" fill-rule="evenodd"/><path d="M2089.5 1633.17 2175.17 1547.5 2514.5 1547.5 2514.5 1823.83 2428.83 1909.5 2089.5 1909.5ZM2089.5 1633.17 2428.83 1633.17 2514.5 1547.5M2428.83 1633.17 2428.83 1909.5" stroke="#002042" stroke-width="4.58333" stroke-miterlimit="8" fill="none" fill-rule="evenodd"/><rect x="2414.5" y="1633.17" width="338.329" height="276.329" fill="#65B32E"/><path d="M2752.83 1633.17 2838.5 1547.5 2838.5 1823.83 2752.83 1909.5Z" fill="#519025" fill-rule="evenodd"/><path d="M2414.5 1633.17 2500.17 1547.5 2838.5 1547.5 2752.83 1633.17Z" fill="#83C257" fill-rule="evenodd"/><path d="M2414.5 1633.17 2500.17 1547.5 2838.5 1547.5 2838.5 1823.83 2752.83 1909.5 2414.5 1909.5ZM2414.5 1633.17 2752.83 1633.17 2838.5 1547.5M2752.83 1633.17 2752.83 1909.5" stroke="#002042" stroke-width="4.58333" stroke-miterlimit="8" fill="none" fill-rule="evenodd"/><rect x="2755.5" y="1633.17" width="338.329" height="276.329" fill="#65B32E"/><path d="M3093.83 1633.17 3179.5 1547.5 3179.5 1823.83 3093.83 1909.5Z" fill="#519025" fill-rule="evenodd"/><path d="M2755.5 1633.17 2841.17 1547.5 3179.5 1547.5 3093.83 1633.17Z" fill="#83C257" fill-rule="evenodd"/><path d="M2755.5 1633.17 2841.17 1547.5 3179.5 1547.5 3179.5 1823.83 3093.83 1909.5 2755.5 1909.5ZM2755.5 1633.17 3093.83 1633.17 3179.5 1547.5M3093.83 1633.17 3093.83 1909.5" stroke="#002042" stroke-width="4.58333" stroke-miterlimit="8" fill="none" fill-rule="evenodd"/><rect x="417.5" y="1356.94" width="339.561" height="275.582" fill="#65B32E"/><path d="M757.061 1356.94 842.5 1271.5 842.5 1547.08 757.061 1632.52Z" fill="#519025" fill-rule="evenodd"/><path d="M417.5 1356.94 502.939 1271.5 842.5 1271.5 757.061 1356.94Z" fill="#83C257" fill-rule="evenodd"/><path d="M417.5 1356.94 502.939 1271.5 842.5 1271.5 842.5 1547.08 757.061 1632.52 417.5 1632.52ZM417.5 1356.94 757.061 1356.94 842.5 1271.5M757.061 1356.94 757.061 1632.52" stroke="#002042" stroke-width="4.58333" stroke-miterlimit="8" fill="none" fill-rule="evenodd"/><rect x="758.5" y="1356.94" width="339.561" height="275.582" fill="#65B32E"/><path d="M1098.06 1356.94 1183.5 1271.5 1183.5 1547.08 1098.06 1632.52Z" fill="#519025" fill-rule="evenodd"/><path d="M758.5 1356.94 843.939 1271.5 1183.5 1271.5 1098.06 1356.94Z" fill="#83C257" fill-rule="evenodd"/><path d="M758.5 1356.94 843.939 1271.5 1183.5 1271.5 1183.5 1547.08 1098.06 1632.52 758.5 1632.52ZM758.5 1356.94 1098.06 1356.94 1183.5 1271.5M1098.06 1356.94 1098.06 1632.52" stroke="#002042" stroke-width="4.58333" stroke-miterlimit="8" fill="none" fill-rule="evenodd"/><rect x="1083.5" y="1356.93" width="338.566" height="275.566" fill="#65B32E"/><path d="M1422.07 1356.93 1507.5 1271.5 1507.5 1547.07 1422.07 1632.5Z" fill="#519025" fill-rule="evenodd"/><path d="M1083.5 1356.93 1168.93 1271.5 1507.5 1271.5 1422.07 1356.93Z" fill="#83C257" fill-rule="evenodd"/><path d="M1083.5 1356.93 1168.93 1271.5 1507.5 1271.5 1507.5 1547.07 1422.07 1632.5 1083.5 1632.5ZM1083.5 1356.93 1422.07 1356.93 1507.5 1271.5M1422.07 1356.93 1422.07 1632.5" stroke="#002042" stroke-width="4.58333" stroke-miterlimit="8" fill="none" fill-rule="evenodd"/><rect x="1424.5" y="1356.93" width="338.566" height="275.566" fill="#65B32E"/><path d="M1763.07 1356.93 1848.5 1271.5 1848.5 1547.07 1763.07 1632.5Z" fill="#519025" fill-rule="evenodd"/><path d="M1424.5 1356.93 1509.93 1271.5 1848.5 1271.5 1763.07 1356.93Z" fill="#83C257" fill-rule="evenodd"/><path d="M1424.5 1356.93 1509.93 1271.5 1848.5 1271.5 1848.5 1547.07 1763.07 1632.5 1424.5 1632.5ZM1424.5 1356.93 1763.07 1356.93 1848.5 1271.5M1763.07 1356.93 1763.07 1632.5" stroke="#002042" stroke-width="4.58333" stroke-miterlimit="8" fill="none" fill-rule="evenodd"/><rect x="1749.5" y="1356.93" width="338.566" height="275.566" fill="#65B32E"/><path d="M2088.07 1356.93 2173.5 1271.5 2173.5 1547.07 2088.07 1632.5Z" fill="#519025" fill-rule="evenodd"/><path d="M1749.5 1356.93 1834.93 1271.5 2173.5 1271.5 2088.07 1356.93Z" fill="#83C257" fill-rule="evenodd"/><path d="M1749.5 1356.93 1834.93 1271.5 2173.5 1271.5 2173.5 1547.07 2088.07 1632.5 1749.5 1632.5ZM1749.5 1356.93 2088.07 1356.93 2173.5 1271.5M2088.07 1356.93 2088.07 1632.5" stroke="#002042" stroke-width="4.58333" stroke-miterlimit="8" fill="none" fill-rule="evenodd"/><rect x="2089.5" y="1356.94" width="339.561" height="275.582" fill="#65B32E"/><path d="M2429.06 1356.94 2514.5 1271.5 2514.5 1547.08 2429.06 1632.52Z" fill="#519025" fill-rule="evenodd"/><path d="M2089.5 1356.94 2174.94 1271.5 2514.5 1271.5 2429.06 1356.94Z" fill="#83C257" fill-rule="evenodd"/><path d="M2089.5 1356.94 2174.94 1271.5 2514.5 1271.5 2514.5 1547.08 2429.06 1632.52 2089.5 1632.52ZM2089.5 1356.94 2429.06 1356.94 2514.5 1271.5M2429.06 1356.94 2429.06 1632.52" stroke="#002042" stroke-width="4.58333" stroke-miterlimit="8" fill="none" fill-rule="evenodd"/><rect x="2414.5" y="1356.93" width="338.565" height="275.566" fill="#65B32E"/><path d="M2753.07 1356.93 2838.5 1271.5 2838.5 1547.07 2753.07 1632.5Z" fill="#519025" fill-rule="evenodd"/><path d="M2414.5 1356.93 2499.93 1271.5 2838.5 1271.5 2753.07 1356.93Z" fill="#83C257" fill-rule="evenodd"/><path d="M2414.5 1356.93 2499.93 1271.5 2838.5 1271.5 2838.5 1547.07 2753.07 1632.5 2414.5 1632.5ZM2414.5 1356.93 2753.07 1356.93 2838.5 1271.5M2753.07 1356.93 2753.07 1632.5" stroke="#002042" stroke-width="4.58333" stroke-miterlimit="8" fill="none" fill-rule="evenodd"/><rect x="2755.5" y="1356.93" width="338.565" height="275.566" fill="#65B32E"/><path d="M3094.07 1356.93 3179.5 1271.5 3179.5 1547.07 3094.07 1632.5Z" fill="#519025" fill-rule="evenodd"/><path d="M2755.5 1356.93 2840.93 1271.5 3179.5 1271.5 3094.07 1356.93Z" fill="#83C257" fill-rule="evenodd"/><path d="M2755.5 1356.93 2840.93 1271.5 3179.5 1271.5 3179.5 1547.07 3094.07 1632.5 2755.5 1632.5ZM2755.5 1356.93 3094.07 1356.93 3179.5 1271.5M3094.07 1356.93 3094.07 1632.5" stroke="#002042" stroke-width="4.58333" stroke-miterlimit="8" fill="none" fill-rule="evenodd"/><path d="M1216 2094.12 1597.33 2094.13 1597.33 2107.88 1216 2107.88ZM1590.46 2080.38 1631.71 2101 1590.46 2121.63Z" fill="#00305D"/><text fill="#00305D" font-family="Arial,Arial_MSFontService,sans-serif" font-weight="400" font-size="83" transform="matrix(1 0 0 1 1286.46 2062)">y,<tspan font-size="83" x="87.0834" y="0">span</tspan></text><path d="M6.875-1.03664e-05 6.87531 204.97-6.87469 204.97-6.875 1.03664e-05ZM20.6253 198.095 0.000360892 239.345-20.6247 198.095Z" fill="#00305D" transform="matrix(1 0 0 -1 311 1700.34)"/><text fill="#00305D" font-family="Arial,Arial_MSFontService,sans-serif" font-weight="400" font-size="83" transform="matrix(1 0 0 1 251.877 1606)">z</text><path d="M4.89762-4.82482 132.636 124.84 122.84 134.49-4.89762 4.82482ZM137.606 110.293 151.862 154.153 108.22 139.242Z" fill="#00305D" transform="matrix(1 0 0 -1 431 1252.15)"/><text fill="#00305D" font-family="Arial,Arial_MSFontService,sans-serif" font-weight="400" font-size="83" transform="matrix(1 0 0 1 441.972 1153)">x</text><path d="M509 1628C509 1498.77 544.37 1394 588 1394 631.63 1394 667 1498.77 667 1628 667 1757.23 631.63 1862 588 1862 544.37 1862 509 1757.23 509 1628Z" fill-rule="evenodd"/><path d="M673.518 1184.63C737.667 1125.15 805.948 1094.49 826.027 1116.15 846.106 1137.8 810.381 1203.57 746.232 1263.05 682.083 1322.53 613.802 1353.2 593.723 1331.54 573.643 1309.89 609.369 1244.11 673.518 1184.63Z" fill-rule="evenodd"/><path d="M842 1628C842 1498.77 877.369 1394 921 1394 964.63 1394 1000 1498.77 1000 1628 1000 1757.23 964.63 1862 921 1862 877.369 1862 842 1757.23 842 1628Z" fill-rule="evenodd"/><path d="M997.465 1184.63C1061.61 1125.15 1129.89 1094.49 1149.97 1116.15 1170.05 1137.8 1134.33 1203.57 1070.18 1263.05 1006.03 1322.53 937.749 1353.2 917.669 1331.54 897.59 1309.89 933.316 1244.11 997.465 1184.63Z" fill-rule="evenodd"/></g></svg>