<svg width="2938" height="1045" xmlns="http://www.w3.org/2000/svg" xmlns:xlink="http://www.w3.org/1999/xlink" overflow="hidden"><defs><clipPath id="clip0"><rect x="634" y="1048" width="2938" height="1045"/></clipPath></defs><g clip-path="url(#clip0)" transform="translate(-634 -1048)"><rect x="807.5" y="1412.93" width="338.566" height="275.565" fill="#009FE3"/><path d="M1146.07 1412.93 1231.5 1327.5 1231.5 1603.07 1146.07 1688.5Z" fill="#0080B6" fill-rule="evenodd"/><path d="M807.5 1412.93 892.934 1327.5 1231.5 1327.5 1146.07 1412.93Z" fill="#32B2E8" fill-rule="evenodd"/><path d="M807.5 1412.93 892.934 1327.5 1231.5 1327.5 1231.5 1603.07 1146.07 1688.5 807.5 1688.5ZM807.5 1412.93 1146.07 1412.93 1231.5 1327.5M1146.07 1412.93 1146.07 1688.5" stroke="#000000" stroke-width="4.58333" stroke-miterlimit="8" fill="none" fill-rule="evenodd"/><rect x="1148.5" y="1412.93" width="338.566" height="275.565" fill="#009FE3"/><path d="M1487.07 1412.93 1572.5 1327.5 1572.5 1603.07 1487.07 1688.5Z" fill="#0080B6" fill-rule="evenodd"/><path d="M1148.5 1412.93 1233.93 1327.5 1572.5 1327.5 1487.07 1412.93Z" fill="#32B2E8" fill-rule="evenodd"/><path d="M1148.5 1412.93 1233.93 1327.5 1572.5 1327.5 1572.5 1603.07 1487.07 1688.5 1148.5 1688.5ZM1148.5 1412.93 1487.07 1412.93 1572.5 1327.5M1487.07 1412.93 1487.07 1688.5" stroke="#000000" stroke-width="4.58333" stroke-miterlimit="8" fill="none" fill-rule="evenodd"/><rect x="1473.5" y="1412.93" width="338.566" height="275.565" fill="#009FE3"/><path d="M1812.07 1412.93 1897.5 1327.5 1897.5 1603.07 1812.07 1688.5Z" fill="#0080B6" fill-rule="evenodd"/><path d="M1473.5 1412.93 1558.93 1327.5 1897.5 1327.5 1812.07 1412.93Z" fill="#32B2E8" fill-rule="evenodd"/><path d="M1473.5 1412.93 1558.93 1327.5 1897.5 1327.5 1897.5 1603.07 1812.07 1688.5 1473.5 1688.5ZM1473.5 1412.93 1812.07 1412.93 1897.5 1327.5M1812.07 1412.93 1812.07 1688.5" stroke="#000000" stroke-width="4.58333" stroke-miterlimit="8" fill="none" fill-rule="evenodd"/><rect x="1813.5" y="1412.93" width="339.566" height="275.566" fill="#009FE3"/><path d="M2153.07 1412.93 2238.5 1327.5 2238.5 1603.07 2153.07 1688.5Z" fill="#0080B6" fill-rule="evenodd"/><path d="M1813.5 1412.93 1898.93 1327.5 2238.5 1327.5 2153.07 1412.93Z" fill="#32B2E8" fill-rule="evenodd"/><path d="M1813.5 1412.93 1898.93 1327.5 2238.5 1327.5 2238.5 1603.07 2153.07 1688.5 1813.5 1688.5ZM1813.5 1412.93 2153.07 1412.93 2238.5 1327.5M2153.07 1412.93 2153.07 1688.5" stroke="#000000" stroke-width="4.58333" stroke-miterlimit="8" fill="none" fill-rule="evenodd"/><rect x="2138.5" y="1412.93" width="338.566" height="275.565" fill="#009FE3"/><path d="M2477.07 1412.93 2562.5 1327.5 2562.5 1603.07 2477.07 1688.5Z" fill="#0080B6" fill-rule="evenodd"/><path d="M2138.5 1412.93 2223.93 1327.5 2562.5 1327.5 2477.07 1412.93Z" fill="#32B2E8" fill-rule="evenodd"/><path d="M2138.5 1412.93 2223.93 1327.5 2562.5 1327.5 2562.5 1603.07 2477.07 1688.5 2138.5 1688.5ZM2138.5 1412.93 2477.07 1412.93 2562.5 1327.5M2477.07 1412.93 2477.07 1688.5" stroke="#000000" stroke-width="4.58333" stroke-miterlimit="8" fill="none" fill-rule="evenodd"/><rect x="2479.5" y="1412.93" width="338.566" height="275.565" fill="#009FE3"/><path d="M2818.07 1412.93 2903.5 1327.5 2903.5 1603.07 2818.07 1688.5Z" fill="#0080B6" fill-rule="evenodd"/><path d="M2479.5 1412.93 2564.93 1327.5 2903.5 1327.5 2818.07 1412.93Z" fill="#32B2E8" fill-rule="evenodd"/><path d="M2479.5 1412.93 2564.93 1327.5 2903.5 1327.5 2903.5 1603.07 2818.07 1688.5 2479.5 1688.5ZM2479.5 1412.93 2818.07 1412.93 2903.5 1327.5M2818.07 1412.93 2818.07 1688.5" stroke="#000000" stroke-width="4.58333" stroke-miterlimit="8" fill="none" fill-rule="evenodd"/><rect x="2804.5" y="1412.93" width="338.565" height="275.565" fill="#009FE3"/><path d="M3143.07 1412.93 3228.5 1327.5 3228.5 1603.07 3143.07 1688.5Z" fill="#0080B6" fill-rule="evenodd"/><path d="M2804.5 1412.93 2889.93 1327.5 3228.5 1327.5 3143.07 1412.93Z" fill="#32B2E8" fill-rule="evenodd"/><path d="M2804.5 1412.93 2889.93 1327.5 3228.5 1327.5 3228.5 1603.07 3143.07 1688.5 2804.5 1688.5ZM2804.5 1412.93 3143.07 1412.93 3228.5 1327.5M3143.07 1412.93 3143.07 1688.5" stroke="#000000" stroke-width="4.58333" stroke-miterlimit="8" fill="none" fill-rule="evenodd"/><rect x="3145.5" y="1412.93" width="338.565" height="275.565" fill="#009FE3"/><path d="M3484.07 1412.93 3569.5 1327.5 3569.5 1603.07 3484.07 1688.5Z" fill="#0080B6" fill-rule="evenodd"/><path d="M3145.5 1412.93 3230.93 1327.5 3569.5 1327.5 3484.07 1412.93Z" fill="#32B2E8" fill-rule="evenodd"/><path d="M3145.5 1412.93 3230.93 1327.5 3569.5 1327.5 3569.5 1603.07 3484.07 1688.5 3145.5 1688.5ZM3145.5 1412.93 3484.07 1412.93 3569.5 1327.5M3484.07 1412.93 3484.07 1688.5" stroke="#000000" stroke-width="4.58333" stroke-miterlimit="8" fill="none" fill-rule="evenodd"/><rect x="807.5" y="1136.17" width="338.329" height="276.329" fill="#009FE3"/><path d="M1145.83 1136.17 1231.5 1050.5 1231.5 1326.83 1145.83 1412.5Z" fill="#0080B6" fill-rule="evenodd"/><path d="M807.5 1136.17 893.171 1050.5 1231.5 1050.5 1145.83 1136.17Z" fill="#32B2E8" fill-rule="evenodd"/><path d="M807.5 1136.17 893.171 1050.5 1231.5 1050.5 1231.5 1326.83 1145.83 1412.5 807.5 1412.5ZM807.5 1136.17 1145.83 1136.17 1231.5 1050.5M1145.83 1136.17 1145.83 1412.5" stroke="#000000" stroke-width="4.58333" stroke-miterlimit="8" fill="none" fill-rule="evenodd"/><rect x="1148.5" y="1136.17" width="338.329" height="276.329" fill="#009FE3"/><path d="M1486.83 1136.17 1572.5 1050.5 1572.5 1326.83 1486.83 1412.5Z" fill="#0080B6" fill-rule="evenodd"/><path d="M1148.5 1136.17 1234.17 1050.5 1572.5 1050.5 1486.83 1136.17Z" fill="#32B2E8" fill-rule="evenodd"/><path d="M1148.5 1136.17 1234.17 1050.5 1572.5 1050.5 1572.5 1326.83 1486.83 1412.5 1148.5 1412.5ZM1148.5 1136.17 1486.83 1136.17 1572.5 1050.5M1486.83 1136.17 1486.83 1412.5" stroke="#000000" stroke-width="4.58333" stroke-miterlimit="8" fill="none" fill-rule="evenodd"/><rect x="1473.5" y="1136.17" width="338.329" height="276.329" fill="#009FE3"/><path d="M1811.83 1136.17 1897.5 1050.5 1897.5 1326.83 1811.83 1412.5Z" fill="#0080B6" fill-rule="evenodd"/><path d="M1473.5 1136.17 1559.17 1050.5 1897.5 1050.5 1811.83 1136.17Z" fill="#32B2E8" fill-rule="evenodd"/><path d="M1473.5 1136.17 1559.17 1050.5 1897.5 1050.5 1897.5 1326.83 1811.83 1412.5 1473.5 1412.5ZM1473.5 1136.17 1811.83 1136.17 1897.5 1050.5M1811.83 1136.17 1811.83 1412.5" stroke="#000000" stroke-width="4.58333" stroke-miterlimit="8" fill="none" fill-rule="evenodd"/><rect x="1813.5" y="1136.17" width="339.329" height="276.329" fill="#009FE3"/><path d="M2152.83 1136.17 2238.5 1050.5 2238.5 1326.83 2152.83 1412.5Z" fill="#0080B6" fill-rule="evenodd"/><path d="M1813.5 1136.17 1899.17 1050.5 2238.5 1050.5 2152.83 1136.17Z" fill="#32B2E8" fill-rule="evenodd"/><path d="M1813.5 1136.17 1899.17 1050.5 2238.5 1050.5 2238.5 1326.83 2152.83 1412.5 1813.5 1412.5ZM1813.5 1136.17 2152.83 1136.17 2238.5 1050.5M2152.83 1136.17 2152.83 1412.5" stroke="#000000" stroke-width="4.58333" stroke-miterlimit="8" fill="none" fill-rule="evenodd"/><rect x="2138.5" y="1136.17" width="338.329" height="276.329" fill="#009FE3"/><path d="M2476.83 1136.17 2562.5 1050.5 2562.5 1326.83 2476.83 1412.5Z" fill="#0080B6" fill-rule="evenodd"/><path d="M2138.5 1136.17 2224.17 1050.5 2562.5 1050.5 2476.83 1136.17Z" fill="#32B2E8" fill-rule="evenodd"/><path d="M2138.5 1136.17 2224.17 1050.5 2562.5 1050.5 2562.5 1326.83 2476.83 1412.5 2138.5 1412.5ZM2138.5 1136.17 2476.83 1136.17 2562.5 1050.5M2476.83 1136.17 2476.83 1412.5" stroke="#000000" stroke-width="4.58333" stroke-miterlimit="8" fill="none" fill-rule="evenodd"/><rect x="2479.5" y="1136.17" width="338.329" height="276.329" fill="#009FE3"/><path d="M2817.83 1136.17 2903.5 1050.5 2903.5 1326.83 2817.83 1412.5Z" fill="#0080B6" fill-rule="evenodd"/><path d="M2479.5 1136.17 2565.17 1050.5 2903.5 1050.5 2817.83 1136.17Z" fill="#32B2E8" fill-rule="evenodd"/><path d="M2479.5 1136.17 2565.17 1050.5 2903.5 1050.5 2903.5 1326.83 2817.83 1412.5 2479.5 1412.5ZM2479.5 1136.17 2817.83 1136.17 2903.5 1050.5M2817.83 1136.17 2817.83 1412.5" stroke="#000000" stroke-width="4.58333" stroke-miterlimit="8" fill="none" fill-rule="evenodd"/><rect x="2804.5" y="1136.17" width="338.329" height="276.329" fill="#009FE3"/><path d="M3142.83 1136.17 3228.5 1050.5 3228.5 1326.83 3142.83 1412.5Z" fill="#0080B6" fill-rule="evenodd"/><path d="M2804.5 1136.17 2890.17 1050.5 3228.5 1050.5 3142.83 1136.17Z" fill="#32B2E8" fill-rule="evenodd"/><path d="M2804.5 1136.17 2890.17 1050.5 3228.5 1050.5 3228.5 1326.83 3142.83 1412.5 2804.5 1412.5ZM2804.5 1136.17 3142.83 1136.17 3228.5 1050.5M3142.83 1136.17 3142.83 1412.5" stroke="#000000" stroke-width="4.58333" stroke-miterlimit="8" fill="none" fill-rule="evenodd"/><rect x="3145.5" y="1136.17" width="338.329" height="276.329" fill="#009FE3"/><path d="M3483.83 1136.17 3569.5 1050.5 3569.5 1326.83 3483.83 1412.5Z" fill="#0080B6" fill-rule="evenodd"/><path d="M3145.5 1136.17 3231.17 1050.5 3569.5 1050.5 3483.83 1136.17Z" fill="#32B2E8" fill-rule="evenodd"/><path d="M3145.5 1136.17 3231.17 1050.5 3569.5 1050.5 3569.5 1326.83 3483.83 1412.5 3145.5 1412.5ZM3145.5 1136.17 3483.83 1136.17 3569.5 1050.5M3483.83 1136.17 3483.83 1412.5" stroke="#000000" stroke-width="4.58333" stroke-miterlimit="8" fill="none" fill-rule="evenodd"/><rect x="720.5" y="1498.93" width="338.566" height="275.565" fill="#0069B4"/><path d="M1059.07 1498.93 1144.5 1413.5 1144.5 1689.07 1059.07 1774.5Z" fill="#005491" fill-rule="evenodd"/><path d="M720.5 1498.93 805.934 1413.5 1144.5 1413.5 1059.07 1498.93Z" fill="#3286C3" fill-rule="evenodd"/><path d="M720.5 1498.93 805.934 1413.5 1144.5 1413.5 1144.5 1689.07 1059.07 1774.5 720.5 1774.5ZM720.5 1498.93 1059.07 1498.93 1144.5 1413.5M1059.07 1498.93 1059.07 1774.5" stroke="#000000" stroke-width="4.58333" stroke-miterlimit="8" fill="none" fill-rule="evenodd"/><rect x="1061.5" y="1498.93" width="338.566" height="275.565" fill="#0069B4"/><path d="M1400.07 1498.93 1485.5 1413.5 1485.5 1689.07 1400.07 1774.5Z" fill="#005491" fill-rule="evenodd"/><path d="M1061.5 1498.93 1146.93 1413.5 1485.5 1413.5 1400.07 1498.93Z" fill="#3286C3" fill-rule="evenodd"/><path d="M1061.5 1498.93 1146.93 1413.5 1485.5 1413.5 1485.5 1689.07 1400.07 1774.5 1061.5 1774.5ZM1061.5 1498.93 1400.07 1498.93 1485.5 1413.5M1400.07 1498.93 1400.07 1774.5" stroke="#000000" stroke-width="4.58333" stroke-miterlimit="8" fill="none" fill-rule="evenodd"/><rect x="1385.5" y="1498.93" width="338.566" height="275.565" fill="#0069B4"/><path d="M1724.07 1498.93 1809.5 1413.5 1809.5 1689.07 1724.07 1774.5Z" fill="#005491" fill-rule="evenodd"/><path d="M1385.5 1498.93 1470.93 1413.5 1809.5 1413.5 1724.07 1498.93Z" fill="#3286C3" fill-rule="evenodd"/><path d="M1385.5 1498.93 1470.93 1413.5 1809.5 1413.5 1809.5 1689.07 1724.07 1774.5 1385.5 1774.5ZM1385.5 1498.93 1724.07 1498.93 1809.5 1413.5M1724.07 1498.93 1724.07 1774.5" stroke="#000000" stroke-width="4.58333" stroke-miterlimit="8" fill="none" fill-rule="evenodd"/><rect x="1726.5" y="1498.93" width="338.566" height="275.565" fill="#0069B4"/><path d="M2065.07 1498.93 2150.5 1413.5 2150.5 1689.07 2065.07 1774.5Z" fill="#005491" fill-rule="evenodd"/><path d="M1726.5 1498.93 1811.93 1413.5 2150.5 1413.5 2065.07 1498.93Z" fill="#3286C3" fill-rule="evenodd"/><path d="M1726.5 1498.93 1811.93 1413.5 2150.5 1413.5 2150.5 1689.07 2065.07 1774.5 1726.5 1774.5ZM1726.5 1498.93 2065.07 1498.93 2150.5 1413.5M2065.07 1498.93 2065.07 1774.5" stroke="#000000" stroke-width="4.58333" stroke-miterlimit="8" fill="none" fill-rule="evenodd"/><rect x="2051.5" y="1498.93" width="338.565" height="275.565" fill="#0069B4"/><path d="M2390.07 1498.93 2475.5 1413.5 2475.5 1689.07 2390.07 1774.5Z" fill="#005491" fill-rule="evenodd"/><path d="M2051.5 1498.93 2136.93 1413.5 2475.5 1413.5 2390.07 1498.93Z" fill="#3286C3" fill-rule="evenodd"/><path d="M2051.5 1498.93 2136.93 1413.5 2475.5 1413.5 2475.5 1689.07 2390.07 1774.5 2051.5 1774.5ZM2051.5 1498.93 2390.07 1498.93 2475.5 1413.5M2390.07 1498.93 2390.07 1774.5" stroke="#000000" stroke-width="4.58333" stroke-miterlimit="8" fill="none" fill-rule="evenodd"/><rect x="2392.5" y="1498.93" width="338.565" height="275.565" fill="#0069B4"/><path d="M2731.07 1498.93 2816.5 1413.5 2816.5 1689.07 2731.07 1774.5Z" fill="#005491" fill-rule="evenodd"/><path d="M2392.5 1498.93 2477.93 1413.5 2816.5 1413.5 2731.07 1498.93Z" fill="#3286C3" fill-rule="evenodd"/><path d="M2392.5 1498.93 2477.93 1413.5 2816.5 1413.5 2816.5 1689.07 2731.07 1774.5 2392.5 1774.5ZM2392.5 1498.93 2731.07 1498.93 2816.5 1413.5M2731.07 1498.93 2731.07 1774.5" stroke="#000000" stroke-width="4.58333" stroke-miterlimit="8" fill="none" fill-rule="evenodd"/><rect x="2716.5" y="1498.93" width="339.566" height="275.566" fill="#0069B4"/><path d="M3056.07 1498.93 3141.5 1413.5 3141.5 1689.07 3056.07 1774.5Z" fill="#005491" fill-rule="evenodd"/><path d="M2716.5 1498.93 2801.93 1413.5 3141.5 1413.5 3056.07 1498.93Z" fill="#3286C3" fill-rule="evenodd"/><path d="M2716.5 1498.93 2801.93 1413.5 3141.5 1413.5 3141.5 1689.07 3056.07 1774.5 2716.5 1774.5ZM2716.5 1498.93 3056.07 1498.93 3141.5 1413.5M3056.07 1498.93 3056.07 1774.5" stroke="#000000" stroke-width="4.58333" stroke-miterlimit="8" fill="none" fill-rule="evenodd"/><rect x="3057.5" y="1498.93" width="339.566" height="275.566" fill="#0069B4"/><path d="M3397.07 1498.93 3482.5 1413.5 3482.5 1689.07 3397.07 1774.5Z" fill="#005491" fill-rule="evenodd"/><path d="M3057.5 1498.93 3142.93 1413.5 3482.5 1413.5 3397.07 1498.93Z" fill="#3286C3" fill-rule="evenodd"/><path d="M3057.5 1498.93 3142.93 1413.5 3482.5 1413.5 3482.5 1689.07 3397.07 1774.5 3057.5 1774.5ZM3057.5 1498.93 3397.07 1498.93 3482.5 1413.5M3397.07 1498.93 3397.07 1774.5" stroke="#000000" stroke-width="4.58333" stroke-miterlimit="8" fill="none" fill-rule="evenodd"/><rect x="720.5" y="1222.93" width="338.566" height="275.565" fill="#0069B4"/><path d="M1059.07 1222.93 1144.5 1137.5 1144.5 1413.07 1059.07 1498.5Z" fill="#005491" fill-rule="evenodd"/><path d="M720.5 1222.93 805.934 1137.5 1144.5 1137.5 1059.07 1222.93Z" fill="#3286C3" fill-rule="evenodd"/><path d="M720.5 1222.93 805.934 1137.5 1144.5 1137.5 1144.5 1413.07 1059.07 1498.5 720.5 1498.5ZM720.5 1222.93 1059.07 1222.93 1144.5 1137.5M1059.07 1222.93 1059.07 1498.5" stroke="#000000" stroke-width="4.58333" stroke-miterlimit="8" fill="none" fill-rule="evenodd"/><rect x="1061.5" y="1222.93" width="338.566" height="275.565" fill="#0069B4"/><path d="M1400.07 1222.93 1485.5 1137.5 1485.5 1413.07 1400.07 1498.5Z" fill="#005491" fill-rule="evenodd"/><path d="M1061.5 1222.93 1146.93 1137.5 1485.5 1137.5 1400.07 1222.93Z" fill="#3286C3" fill-rule="evenodd"/><path d="M1061.5 1222.93 1146.93 1137.5 1485.5 1137.5 1485.5 1413.07 1400.07 1498.5 1061.5 1498.5ZM1061.5 1222.93 1400.07 1222.93 1485.5 1137.5M1400.07 1222.93 1400.07 1498.5" stroke="#000000" stroke-width="4.58333" stroke-miterlimit="8" fill="none" fill-rule="evenodd"/><rect x="1385.5" y="1222.93" width="338.566" height="275.565" fill="#0069B4"/><path d="M1724.07 1222.93 1809.5 1137.5 1809.5 1413.07 1724.07 1498.5Z" fill="#005491" fill-rule="evenodd"/><path d="M1385.5 1222.93 1470.93 1137.5 1809.5 1137.5 1724.07 1222.93Z" fill="#3286C3" fill-rule="evenodd"/><path d="M1385.5 1222.93 1470.93 1137.5 1809.5 1137.5 1809.5 1413.07 1724.07 1498.5 1385.5 1498.5ZM1385.5 1222.93 1724.07 1222.93 1809.5 1137.5M1724.07 1222.93 1724.07 1498.5" stroke="#000000" stroke-width="4.58333" stroke-miterlimit="8" fill="none" fill-rule="evenodd"/><rect x="1726.5" y="1222.93" width="338.566" height="275.565" fill="#0069B4"/><path d="M2065.07 1222.93 2150.5 1137.5 2150.5 1413.07 2065.07 1498.5Z" fill="#005491" fill-rule="evenodd"/><path d="M1726.5 1222.93 1811.93 1137.5 2150.5 1137.5 2065.07 1222.93Z" fill="#3286C3" fill-rule="evenodd"/><path d="M1726.5 1222.93 1811.93 1137.5 2150.5 1137.5 2150.5 1413.07 2065.07 1498.5 1726.5 1498.5ZM1726.5 1222.93 2065.07 1222.93 2150.5 1137.5M2065.07 1222.93 2065.07 1498.5" stroke="#000000" stroke-width="4.58333" stroke-miterlimit="8" fill="none" fill-rule="evenodd"/><rect x="2051.5" y="1222.93" width="338.565" height="275.565" fill="#0069B4"/><path d="M2390.07 1222.93 2475.5 1137.5 2475.5 1413.07 2390.07 1498.5Z" fill="#005491" fill-rule="evenodd"/><path d="M2051.5 1222.93 2136.93 1137.5 2475.5 1137.5 2390.07 1222.93Z" fill="#3286C3" fill-rule="evenodd"/><path d="M2051.5 1222.93 2136.93 1137.5 2475.5 1137.5 2475.5 1413.07 2390.07 1498.5 2051.5 1498.5ZM2051.5 1222.93 2390.07 1222.93 2475.5 1137.5M2390.07 1222.93 2390.07 1498.5" stroke="#000000" stroke-width="4.58333" stroke-miterlimit="8" fill="none" fill-rule="evenodd"/><rect x="2392.5" y="1222.93" width="338.565" height="275.565" fill="#0069B4"/><path d="M2731.07 1222.93 2816.5 1137.5 2816.5 1413.07 2731.07 1498.5Z" fill="#005491" fill-rule="evenodd"/><path d="M2392.5 1222.93 2477.93 1137.5 2816.5 1137.5 2731.07 1222.93Z" fill="#3286C3" fill-rule="evenodd"/><path d="M2392.5 1222.93 2477.93 1137.5 2816.5 1137.5 2816.5 1413.07 2731.07 1498.5 2392.5 1498.5ZM2392.5 1222.93 2731.07 1222.93 2816.5 1137.5M2731.07 1222.93 2731.07 1498.5" stroke="#000000" stroke-width="4.58333" stroke-miterlimit="8" fill="none" fill-rule="evenodd"/><rect x="2716.5" y="1222.93" width="339.566" height="275.566" fill="#0069B4"/><path d="M3056.07 1222.93 3141.5 1137.5 3141.5 1413.07 3056.07 1498.5Z" fill="#005491" fill-rule="evenodd"/><path d="M2716.5 1222.93 2801.93 1137.5 3141.5 1137.5 3056.07 1222.93Z" fill="#3286C3" fill-rule="evenodd"/><path d="M2716.5 1222.93 2801.93 1137.5 3141.5 1137.5 3141.5 1413.07 3056.07 1498.5 2716.5 1498.5ZM2716.5 1222.93 3056.07 1222.93 3141.5 1137.5M3056.07 1222.93 3056.07 1498.5" stroke="#000000" stroke-width="4.58333" stroke-miterlimit="8" fill="none" fill-rule="evenodd"/><rect x="3057.5" y="1222.93" width="339.566" height="275.566" fill="#0069B4"/><path d="M3397.07 1222.93 3482.5 1137.5 3482.5 1413.07 3397.07 1498.5Z" fill="#005491" fill-rule="evenodd"/><path d="M3057.5 1222.93 3142.93 1137.5 3482.5 1137.5 3397.07 1222.93Z" fill="#3286C3" fill-rule="evenodd"/><path d="M3057.5 1222.93 3142.93 1137.5 3482.5 1137.5 3482.5 1413.07 3397.07 1498.5 3057.5 1498.5ZM3057.5 1222.93 3397.07 1222.93 3482.5 1137.5M3397.07 1222.93 3397.07 1498.5" stroke="#000000" stroke-width="4.58333" stroke-miterlimit="8" fill="none" fill-rule="evenodd"/><rect x="636.5" y="1583.93" width="339.566" height="275.566" fill="#65B32E"/><path d="M976.066 1583.93 1061.5 1498.5 1061.5 1774.07 976.066 1859.5Z" fill="#519025" fill-rule="evenodd"/><path d="M636.5 1583.93 721.934 1498.5 1061.5 1498.5 976.066 1583.93Z" fill="#83C257" fill-rule="evenodd"/><path d="M636.5 1583.93 721.934 1498.5 1061.5 1498.5 1061.5 1774.07 976.066 1859.5 636.5 1859.5ZM636.5 1583.93 976.066 1583.93 1061.5 1498.5M976.066 1583.93 976.066 1859.5" stroke="#002042" stroke-width="4.58333" stroke-miterlimit="8" fill="none" fill-rule="evenodd"/><rect x="977.5" y="1583.93" width="339.566" height="275.566" fill="#65B32E"/><path d="M1317.07 1583.93 1402.5 1498.5 1402.5 1774.07 1317.07 1859.5Z" fill="#519025" fill-rule="evenodd"/><path d="M977.5 1583.93 1062.93 1498.5 1402.5 1498.5 1317.07 1583.93Z" fill="#83C257" fill-rule="evenodd"/><path d="M977.5 1583.93 1062.93 1498.5 1402.5 1498.5 1402.5 1774.07 1317.07 1859.5 977.5 1859.5ZM977.5 1583.93 1317.07 1583.93 1402.5 1498.5M1317.07 1583.93 1317.07 1859.5" stroke="#002042" stroke-width="4.58333" stroke-miterlimit="8" fill="none" fill-rule="evenodd"/><rect x="1302.5" y="1583.93" width="338.566" height="275.565" fill="#65B32E"/><path d="M1641.07 1583.93 1726.5 1498.5 1726.5 1774.07 1641.07 1859.5Z" fill="#519025" fill-rule="evenodd"/><path d="M1302.5 1583.93 1387.93 1498.5 1726.5 1498.5 1641.07 1583.93Z" fill="#83C257" fill-rule="evenodd"/><path d="M1302.5 1583.93 1387.93 1498.5 1726.5 1498.5 1726.5 1774.07 1641.07 1859.5 1302.5 1859.5ZM1302.5 1583.93 1641.07 1583.93 1726.5 1498.5M1641.07 1583.93 1641.07 1859.5" stroke="#002042" stroke-width="4.58333" stroke-miterlimit="8" fill="none" fill-rule="evenodd"/><rect x="1643.5" y="1583.93" width="338.566" height="275.565" fill="#65B32E"/><path d="M1982.07 1583.93 2067.5 1498.5 2067.5 1774.07 1982.07 1859.5Z" fill="#519025" fill-rule="evenodd"/><path d="M1643.5 1583.93 1728.93 1498.5 2067.5 1498.5 1982.07 1583.93Z" fill="#83C257" fill-rule="evenodd"/><path d="M1643.5 1583.93 1728.93 1498.5 2067.5 1498.5 2067.5 1774.07 1982.07 1859.5 1643.5 1859.5ZM1643.5 1583.93 1982.07 1583.93 2067.5 1498.5M1982.07 1583.93 1982.07 1859.5" stroke="#002042" stroke-width="4.58333" stroke-miterlimit="8" fill="none" fill-rule="evenodd"/><rect x="1968.5" y="1583.93" width="338.566" height="275.565" fill="#65B32E"/><path d="M2307.07 1583.93 2392.5 1498.5 2392.5 1774.07 2307.07 1859.5Z" fill="#519025" fill-rule="evenodd"/><path d="M1968.5 1583.93 2053.93 1498.5 2392.5 1498.5 2307.07 1583.93Z" fill="#83C257" fill-rule="evenodd"/><path d="M1968.5 1583.93 2053.93 1498.5 2392.5 1498.5 2392.5 1774.07 2307.07 1859.5 1968.5 1859.5ZM1968.5 1583.93 2307.07 1583.93 2392.5 1498.5M2307.07 1583.93 2307.07 1859.5" stroke="#002042" stroke-width="4.58333" stroke-miterlimit="8" fill="none" fill-rule="evenodd"/><rect x="2309.5" y="1583.93" width="338.565" height="275.565" fill="#65B32E"/><path d="M2648.07 1583.93 2733.5 1498.5 2733.5 1774.07 2648.07 1859.5Z" fill="#519025" fill-rule="evenodd"/><path d="M2309.5 1583.93 2394.93 1498.5 2733.5 1498.5 2648.07 1583.93Z" fill="#83C257" fill-rule="evenodd"/><path d="M2309.5 1583.93 2394.93 1498.5 2733.5 1498.5 2733.5 1774.07 2648.07 1859.5 2309.5 1859.5ZM2309.5 1583.93 2648.07 1583.93 2733.5 1498.5M2648.07 1583.93 2648.07 1859.5" stroke="#002042" stroke-width="4.58333" stroke-miterlimit="8" fill="none" fill-rule="evenodd"/><rect x="2633.5" y="1583.93" width="338.566" height="275.565" fill="#65B32E"/><path d="M2972.07 1583.93 3057.5 1498.5 3057.5 1774.07 2972.07 1859.5Z" fill="#519025" fill-rule="evenodd"/><path d="M2633.5 1583.93 2718.93 1498.5 3057.5 1498.5 2972.07 1583.93Z" fill="#83C257" fill-rule="evenodd"/><path d="M2633.5 1583.93 2718.93 1498.5 3057.5 1498.5 3057.5 1774.07 2972.07 1859.5 2633.5 1859.5ZM2633.5 1583.93 2972.07 1583.93 3057.5 1498.5M2972.07 1583.93 2972.07 1859.5" stroke="#002042" stroke-width="4.58333" stroke-miterlimit="8" fill="none" fill-rule="evenodd"/><rect x="2974.5" y="1583.93" width="338.566" height="275.565" fill="#65B32E"/><path d="M3313.07 1583.93 3398.5 1498.5 3398.5 1774.07 3313.07 1859.5Z" fill="#519025" fill-rule="evenodd"/><path d="M2974.5 1583.93 3059.93 1498.5 3398.5 1498.5 3313.07 1583.93Z" fill="#83C257" fill-rule="evenodd"/><path d="M2974.5 1583.93 3059.93 1498.5 3398.5 1498.5 3398.5 1774.07 3313.07 1859.5 2974.5 1859.5ZM2974.5 1583.93 3313.07 1583.93 3398.5 1498.5M3313.07 1583.93 3313.07 1859.5" stroke="#002042" stroke-width="4.58333" stroke-miterlimit="8" fill="none" fill-rule="evenodd"/><rect x="636.5" y="1306.93" width="339.566" height="275.566" fill="#65B32E"/><path d="M976.066 1306.93 1061.5 1221.5 1061.5 1497.07 976.066 1582.5Z" fill="#519025" fill-rule="evenodd"/><path d="M636.5 1306.93 721.934 1221.5 1061.5 1221.5 976.066 1306.93Z" fill="#83C257" fill-rule="evenodd"/><path d="M636.5 1306.93 721.934 1221.5 1061.5 1221.5 1061.5 1497.07 976.066 1582.5 636.5 1582.5ZM636.5 1306.93 976.066 1306.93 1061.5 1221.5M976.066 1306.93 976.066 1582.5" stroke="#002042" stroke-width="4.58333" stroke-miterlimit="8" fill="none" fill-rule="evenodd"/><rect x="977.5" y="1306.93" width="339.566" height="275.566" fill="#65B32E"/><path d="M1317.07 1306.93 1402.5 1221.5 1402.5 1497.07 1317.07 1582.5Z" fill="#519025" fill-rule="evenodd"/><path d="M977.5 1306.93 1062.93 1221.5 1402.5 1221.5 1317.07 1306.93Z" fill="#83C257" fill-rule="evenodd"/><path d="M977.5 1306.93 1062.93 1221.5 1402.5 1221.5 1402.5 1497.07 1317.07 1582.5 977.5 1582.5ZM977.5 1306.93 1317.07 1306.93 1402.5 1221.5M1317.07 1306.93 1317.07 1582.5" stroke="#002042" stroke-width="4.58333" stroke-miterlimit="8" fill="none" fill-rule="evenodd"/><rect x="1302.5" y="1306.93" width="338.566" height="275.565" fill="#65B32E"/><path d="M1641.07 1306.93 1726.5 1221.5 1726.5 1497.07 1641.07 1582.5Z" fill="#519025" fill-rule="evenodd"/><path d="M1302.5 1306.93 1387.93 1221.5 1726.5 1221.5 1641.07 1306.93Z" fill="#83C257" fill-rule="evenodd"/><path d="M1302.5 1306.93 1387.93 1221.5 1726.5 1221.5 1726.5 1497.07 1641.07 1582.5 1302.5 1582.5ZM1302.5 1306.93 1641.07 1306.93 1726.5 1221.5M1641.07 1306.93 1641.07 1582.5" stroke="#002042" stroke-width="4.58333" stroke-miterlimit="8" fill="none" fill-rule="evenodd"/><rect x="1643.5" y="1306.93" width="338.566" height="275.565" fill="#65B32E"/><path d="M1982.07 1306.93 2067.5 1221.5 2067.5 1497.07 1982.07 1582.5Z" fill="#519025" fill-rule="evenodd"/><path d="M1643.5 1306.93 1728.93 1221.5 2067.5 1221.5 1982.07 1306.93Z" fill="#83C257" fill-rule="evenodd"/><path d="M1643.5 1306.93 1728.93 1221.5 2067.5 1221.5 2067.5 1497.07 1982.07 1582.5 1643.5 1582.5ZM1643.5 1306.93 1982.07 1306.93 2067.5 1221.5M1982.07 1306.93 1982.07 1582.5" stroke="#002042" stroke-width="4.58333" stroke-miterlimit="8" fill="none" fill-rule="evenodd"/><rect x="1968.5" y="1306.93" width="338.566" height="275.565" fill="#65B32E"/><path d="M2307.07 1306.93 2392.5 1221.5 2392.5 1497.07 2307.07 1582.5Z" fill="#519025" fill-rule="evenodd"/><path d="M1968.5 1306.93 2053.93 1221.5 2392.5 1221.5 2307.07 1306.93Z" fill="#83C257" fill-rule="evenodd"/><path d="M1968.5 1306.93 2053.93 1221.5 2392.5 1221.5 2392.5 1497.07 2307.07 1582.5 1968.5 1582.5ZM1968.5 1306.93 2307.07 1306.93 2392.5 1221.5M2307.07 1306.93 2307.07 1582.5" stroke="#002042" stroke-width="4.58333" stroke-miterlimit="8" fill="none" fill-rule="evenodd"/><rect x="2309.5" y="1306.93" width="338.565" height="275.565" fill="#65B32E"/><path d="M2648.07 1306.93 2733.5 1221.5 2733.5 1497.07 2648.07 1582.5Z" fill="#519025" fill-rule="evenodd"/><path d="M2309.5 1306.93 2394.93 1221.5 2733.5 1221.5 2648.07 1306.93Z" fill="#83C257" fill-rule="evenodd"/><path d="M2309.5 1306.93 2394.93 1221.5 2733.5 1221.5 2733.5 1497.07 2648.07 1582.5 2309.5 1582.5ZM2309.5 1306.93 2648.07 1306.93 2733.5 1221.5M2648.07 1306.93 2648.07 1582.5" stroke="#002042" stroke-width="4.58333" stroke-miterlimit="8" fill="none" fill-rule="evenodd"/><rect x="2633.5" y="1306.93" width="338.566" height="275.565" fill="#65B32E"/><path d="M2972.07 1306.93 3057.5 1221.5 3057.5 1497.07 2972.07 1582.5Z" fill="#519025" fill-rule="evenodd"/><path d="M2633.5 1306.93 2718.93 1221.5 3057.5 1221.5 2972.07 1306.93Z" fill="#83C257" fill-rule="evenodd"/><path d="M2633.5 1306.93 2718.93 1221.5 3057.5 1221.5 3057.5 1497.07 2972.07 1582.5 2633.5 1582.5ZM2633.5 1306.93 2972.07 1306.93 3057.5 1221.5M2972.07 1306.93 2972.07 1582.5" stroke="#002042" stroke-width="4.58333" stroke-miterlimit="8" fill="none" fill-rule="evenodd"/><rect x="2974.5" y="1306.93" width="338.566" height="275.565" fill="#65B32E"/><path d="M3313.07 1306.93 3398.5 1221.5 3398.5 1497.07 3313.07 1582.5Z" fill="#519025" fill-rule="evenodd"/><path d="M2974.5 1306.93 3059.93 1221.5 3398.5 1221.5 3313.07 1306.93Z" fill="#83C257" fill-rule="evenodd"/><path d="M2974.5 1306.93 3059.93 1221.5 3398.5 1221.5 3398.5 1497.07 3313.07 1582.5 2974.5 1582.5ZM2974.5 1306.93 3313.07 1306.93 3398.5 1221.5M3313.07 1306.93 3313.07 1582.5" stroke="#002042" stroke-width="4.58333" stroke-miterlimit="8" fill="none" fill-rule="evenodd"/><path d="M856 1555.26 825.75 1555.26 825.75 1703 765.25 1703 765.25 1555.26 735 1555.26 795.5 1445Z" stroke="#002042" stroke-width="10.3125" stroke-miterlimit="8" fill="none" fill-rule="evenodd"/><path d="M973.614 1201.51 952.156 1180.31 847.761 1286 804.845 1243.6 909.241 1137.92 887.783 1116.72 1007.96 1080.9Z" stroke="#002042" stroke-width="10.3125" stroke-miterlimit="8" fill="none" fill-rule="evenodd"/><path d="M681 2045.84 3370.57 2045.84 3370.57 2056.16 681 2056.16ZM3365.42 2035.53 3396.35 2051 3365.42 2066.47Z" fill="#00305D"/><text fill="#00305D" font-family="Arial,Arial_MSFontService,sans-serif" font-weight="400" font-size="83" transform="matrix(1 0 0 1 1456.07 2024)">spanwise</text></g></svg>