<svg width="1172" height="196" xmlns="http://www.w3.org/2000/svg" xmlns:xlink="http://www.w3.org/1999/xlink" overflow="hidden"><defs><clipPath id="clip0"><rect x="2537" y="970" width="1172" height="196"/></clipPath></defs><g clip-path="url(#clip0)" transform="translate(-2537 -970)"><path d="M2580.5 1017.5 3668.07 1017.5" stroke="#94C356" stroke-width="6.875" stroke-miterlimit="8" fill="none" fill-rule="evenodd"/><path d="M2580.5 1018C2580.5 997.289 2597.29 980.5 2618 980.5 2638.71 980.5 2655.5 997.289 2655.5 1018 2655.5 1038.71 2638.71 1055.5 2618 1055.5 2597.29 1055.5 2580.5 1038.71 2580.5 1018Z" stroke="#002042" stroke-width="4.58333" stroke-miterlimit="8" fill="#00305D" fill-rule="evenodd"/><path d="M3086.5 1010C3086.5 989.289 3103.29 972.5 3124 972.5 3144.71 972.5 3161.5 989.289 3161.5 1010 3161.5 1030.71 3144.71 1047.5 3124 1047.5 3103.29 1047.5 3086.5 1030.71 3086.5 1010Z" stroke="#002042" stroke-width="4.58333" stroke-miterlimit="8" fill="#00305D" fill-rule="evenodd"/><path d="M3592.5 1015C3592.5 994.289 3609.07 977.5 3629.5 977.5 3649.93 977.5 3666.5 994.289 3666.5 1015 3666.5 1035.71 3649.93 1052.5 3629.5 1052.5 3609.07 1052.5 3592.5 1035.71 3592.5 1015Z" stroke="#002042" stroke-width="4.58333" stroke-miterlimit="8" fill="#00305D" fill-rule="evenodd"/><path d="M2592.55 1099.64C2593.39 1099.64 2594.13 1099.74 2594.76 1099.92 2595.4 1100.11 2595.96 1100.4 2596.44 1100.8 2596.93 1101.19 2597.36 1101.69 2597.74 1102.32 2598.12 1102.94 2598.48 1103.78 2598.84 1104.85 2599.19 1105.92 2599.52 1107.24 2599.83 1108.82 2600.14 1110.4 2600.42 1112.04 2600.66 1113.74L2601.06 1113.74C2603.66 1110.1 2605.62 1107.43 2606.96 1105.74 2608.3 1104.05 2609.43 1102.79 2610.35 1101.97 2611.26 1101.15 2612.15 1100.57 2613 1100.23 2613.85 1099.89 2614.98 1099.72 2616.38 1099.72 2617.65 1099.72 2618.69 1099.88 2619.5 1100.21L2617.88 1107.54 2615.05 1107.54C2614.88 1106.41 2614.41 1105.84 2613.63 1105.84 2613.39 1105.84 2613.13 1105.88 2612.86 1105.96 2612.59 1106.04 2612.26 1106.22 2611.87 1106.49 2611.47 1106.76 2610.9 1107.29 2610.14 1108.07 2609.39 1108.85 2608.54 1109.81 2607.59 1110.95 2606.64 1112.08 2605.67 1113.27 2604.67 1114.51L2601.92 1117.96C2602.4 1120.55 2602.86 1122.8 2603.29 1124.69 2603.73 1126.58 2604.11 1128.15 2604.45 1129.41 2604.79 1130.66 2605.08 1131.66 2605.34 1132.39 2605.6 1133.12 2605.87 1133.66 2606.17 1134.03 2606.47 1134.39 2606.77 1134.65 2607.08 1134.8 2607.39 1134.95 2607.75 1135.02 2608.16 1135.02 2608.89 1135.02 2609.6 1134.74 2610.28 1134.17 2610.97 1133.6 2611.97 1132.32 2613.26 1130.32L2615.9 1132.06C2614.01 1134.87 2612.3 1136.85 2610.77 1138 2609.24 1139.15 2607.43 1139.72 2605.32 1139.72 2604.16 1139.72 2603.17 1139.51 2602.36 1139.09 2601.55 1138.68 2600.85 1138.01 2600.25 1137.09 2599.66 1136.17 2599.13 1134.74 2598.67 1132.79 2597.84 1129.33 2597.32 1126.69 2597.13 1124.85L2596.73 1124.85C2593.86 1128.87 2591.74 1131.77 2590.35 1133.52 2588.95 1135.28 2587.81 1136.57 2586.9 1137.41 2586 1138.25 2585.12 1138.84 2584.27 1139.17 2583.42 1139.51 2582.29 1139.68 2580.88 1139.68 2579.61 1139.68 2578.57 1139.52 2577.76 1139.2L2579.38 1131.86 2582.22 1131.86C2582.38 1132.99 2582.85 1133.56 2583.64 1133.56 2584.02 1133.56 2584.42 1133.46 2584.83 1133.26 2585.25 1133.06 2585.85 1132.57 2586.64 1131.8 2587.42 1131.03 2588.5 1129.82 2589.88 1128.17 2591.26 1126.52 2593.26 1124.05 2595.88 1120.76 2595.47 1118.62 2595.05 1116.57 2594.62 1114.6 2594.19 1112.62 2593.74 1110.79 2593.28 1109.08 2592.82 1107.38 2592.45 1106.27 2592.15 1105.74 2591.85 1105.21 2591.53 1104.85 2591.2 1104.65 2590.86 1104.44 2590.43 1104.34 2589.92 1104.34 2589.35 1104.34 2588.84 1104.47 2588.38 1104.73 2587.92 1104.98 2587.42 1105.43 2586.88 1106.06 2586.34 1106.7 2585.62 1107.69 2584.73 1109.04L2582.1 1107.3C2583.8 1104.73 2585.43 1102.82 2587 1101.55 2588.57 1100.28 2590.42 1099.64 2592.55 1099.64Z" fill="#00305D" fill-rule="evenodd"/><text fill="#000000" fill-opacity="0" font-family="Arial,Arial_MSFontService,sans-serif" font-size="40.0815" x="2577.76" y="1134.71">ЁЭСе</text><path d="M2637.52 1120.23C2636.13 1120.23 2634.97 1120.6 2634.04 1121.32 2633.1 1122.05 2632.36 1123.11 2631.82 1124.51 2631.27 1125.91 2630.88 1127.62 2630.66 1129.63 2630.43 1131.65 2630.31 1133.94 2630.31 1136.5 2630.31 1139.46 2630.46 1142.01 2630.74 1144.17 2631.03 1146.32 2631.48 1148.09 2632.09 1149.48 2632.69 1150.87 2633.45 1151.9 2634.36 1152.55 2635.28 1153.21 2636.37 1153.53 2637.64 1153.53 2638.83 1153.53 2639.87 1153.23 2640.77 1152.61 2641.66 1152 2642.4 1151.04 2642.99 1149.74 2643.57 1148.44 2644.01 1146.79 2644.31 1144.79 2644.61 1142.8 2644.76 1140.44 2644.76 1137.72 2644.76 1134.66 2644.59 1132.03 2644.27 1129.83 2643.94 1127.62 2643.48 1125.81 2642.88 1124.39 2642.29 1122.97 2641.54 1121.92 2640.63 1121.25 2639.73 1120.57 2638.69 1120.23 2637.52 1120.23ZM2637.64 1117.35C2640 1117.35 2642.02 1117.79 2643.7 1118.67 2645.38 1119.55 2646.75 1120.82 2647.81 1122.45 2648.87 1124.09 2649.65 1126.09 2650.15 1128.46 2650.65 1130.82 2650.89 1133.49 2650.89 1136.47 2650.89 1143.08 2649.72 1148.08 2647.38 1151.46 2645.04 1154.85 2641.64 1156.54 2637.19 1156.54 2632.79 1156.54 2629.51 1154.94 2627.36 1151.75 2625.22 1148.55 2624.15 1143.71 2624.15 1137.21 2624.15 1133.82 2624.48 1130.88 2625.15 1128.4 2625.81 1125.91 2626.74 1123.85 2627.95 1122.22 2629.15 1120.58 2630.57 1119.36 2632.22 1118.55 2633.87 1117.75 2635.67 1117.35 2637.64 1117.35Z" fill="#00305D" fill-rule="evenodd"/><text fill="#000000" fill-opacity="0" font-family="Arial,Arial_MSFontService,sans-serif" font-size="39.1973" x="2624.15" y="1151.64">0</text><path d="M3119.86 1099.64C3120.69 1099.64 3121.43 1099.74 3122.07 1099.92 3122.7 1100.11 3123.26 1100.4 3123.75 1100.8 3124.23 1101.19 3124.67 1101.69 3125.04 1102.32 3125.42 1102.94 3125.79 1103.78 3126.14 1104.85 3126.49 1105.92 3126.82 1107.24 3127.13 1108.82 3127.44 1110.4 3127.72 1112.04 3127.96 1113.74L3128.37 1113.74C3130.96 1110.1 3132.93 1107.43 3134.26 1105.74 3135.6 1104.05 3136.73 1102.79 3137.65 1101.97 3138.57 1101.15 3139.45 1100.57 3140.3 1100.23 3141.15 1099.89 3142.28 1099.72 3143.69 1099.72 3144.96 1099.72 3146 1099.88 3146.81 1100.21L3145.19 1107.54 3142.35 1107.54C3142.19 1106.41 3141.71 1105.84 3140.93 1105.84 3140.69 1105.84 3140.43 1105.88 3140.16 1105.96 3139.89 1106.04 3139.56 1106.22 3139.17 1106.49 3138.78 1106.76 3138.2 1107.29 3137.45 1108.07 3136.69 1108.85 3135.84 1109.81 3134.89 1110.95 3133.95 1112.08 3132.97 1113.27 3131.97 1114.51L3129.22 1117.96C3129.71 1120.55 3130.16 1122.8 3130.6 1124.69 3131.03 1126.58 3131.41 1128.15 3131.75 1129.41 3132.09 1130.66 3132.39 1131.66 3132.64 1132.39 3132.9 1133.12 3133.18 1133.66 3133.47 1134.03 3133.77 1134.39 3134.08 1134.65 3134.39 1134.8 3134.7 1134.95 3135.05 1135.02 3135.46 1135.02 3136.19 1135.02 3136.9 1134.74 3137.59 1134.17 3138.28 1133.6 3139.27 1132.32 3140.57 1130.32L3143.2 1132.06C3141.31 1134.87 3139.6 1136.85 3138.07 1138 3136.55 1139.15 3134.73 1139.72 3132.62 1139.72 3131.46 1139.72 3130.48 1139.51 3129.66 1139.09 3128.85 1138.68 3128.15 1138.01 3127.56 1137.09 3126.96 1136.17 3126.44 1134.74 3125.98 1132.79 3125.14 1129.33 3124.63 1126.69 3124.44 1124.85L3124.03 1124.85C3121.17 1128.87 3119.04 1131.77 3117.65 1133.52 3116.26 1135.28 3115.11 1136.57 3114.2 1137.41 3113.3 1138.25 3112.42 1138.84 3111.57 1139.17 3110.72 1139.51 3109.59 1139.68 3108.19 1139.68 3106.92 1139.68 3105.88 1139.52 3105.06 1139.2L3106.69 1131.86 3109.52 1131.86C3109.68 1132.99 3110.16 1133.56 3110.94 1133.56 3111.32 1133.56 3111.72 1133.46 3112.14 1133.26 3112.56 1133.06 3113.16 1132.57 3113.94 1131.8 3114.72 1131.03 3115.8 1129.82 3117.18 1128.17 3118.56 1126.52 3120.56 1124.05 3123.18 1120.76 3122.77 1118.62 3122.36 1116.57 3121.92 1114.6 3121.49 1112.62 3121.05 1110.79 3120.59 1109.08 3120.13 1107.38 3119.75 1106.27 3119.45 1105.74 3119.15 1105.21 3118.84 1104.85 3118.5 1104.65 3118.16 1104.44 3117.74 1104.34 3117.22 1104.34 3116.66 1104.34 3116.14 1104.47 3115.68 1104.73 3115.22 1104.98 3114.72 1105.43 3114.18 1106.06 3113.64 1106.7 3112.93 1107.69 3112.04 1109.04L3109.4 1107.3C3111.1 1104.73 3112.74 1102.82 3114.3 1101.55 3115.87 1100.28 3117.72 1099.64 3119.86 1099.64Z" fill="#00305D" fill-rule="evenodd"/><text fill="#000000" fill-opacity="0" font-family="Arial,Arial_MSFontService,sans-serif" font-size="40.0815" x="3105.06" y="1134.71">ЁЭСе</text><path d="M3165.36 1117.55 3167.18 1117.55C3167.14 1118.65 3167.11 1119.62 3167.09 1120.49 3167.07 1121.35 3167.06 1122.19 3167.05 1123 3167.04 1123.82 3167.03 1124.62 3167.03 1125.42L3167.03 1148.05C3167.03 1148.67 3167.05 1149.2 3167.09 1149.65 3167.13 1150.09 3167.2 1150.47 3167.29 1150.78 3167.37 1151.09 3167.49 1151.35 3167.64 1151.57 3167.79 1151.79 3167.97 1151.98 3168.16 1152.13 3168.4 1152.37 3168.72 1152.56 3169.12 1152.69 3169.51 1152.81 3170.02 1152.92 3170.64 1153.01 3171.25 1153.1 3171.99 1153.17 3172.85 1153.22 3173.72 1153.27 3174.76 1153.31 3175.97 1153.33L3175.97 1155.92 3152.35 1155.92 3152.35 1153.33C3153.52 1153.29 3154.51 1153.24 3155.33 1153.19 3156.14 1153.14 3156.84 1153.07 3157.41 1152.98 3157.99 1152.89 3158.45 1152.79 3158.8 1152.69 3159.14 1152.58 3159.45 1152.44 3159.7 1152.28 3159.98 1152.1 3160.22 1151.91 3160.42 1151.7 3160.62 1151.49 3160.78 1151.23 3160.9 1150.91 3161.02 1150.6 3161.11 1150.21 3161.18 1149.75 3161.25 1149.3 3161.28 1148.73 3161.28 1148.05L3161.28 1126.7C3161.28 1125.92 3161.13 1125.38 3160.84 1125.06 3160.54 1124.74 3160.11 1124.58 3159.56 1124.58 3158.94 1124.58 3158.03 1124.9 3156.82 1125.54 3155.6 1126.17 3154.04 1127.12 3152.11 1128.37 3151.85 1127.91 3151.61 1127.45 3151.39 1127 3151.18 1126.54 3150.95 1126.07 3150.71 1125.6 3153.17 1124.25 3155.61 1122.9 3158.02 1121.56 3160.43 1120.22 3162.88 1118.88 3165.36 1117.55Z" fill="#00305D" fill-rule="evenodd"/><text fill="#000000" fill-opacity="0" font-family="Arial,Arial_MSFontService,sans-serif" font-size="38.3633" x="3150.71" y="1151.12">1</text><path d="M3604.08 1097.41C3604.91 1097.41 3605.65 1097.51 3606.28 1097.7 3606.92 1097.89 3607.48 1098.18 3607.97 1098.57 3608.45 1098.96 3608.89 1099.47 3609.26 1100.09 3609.64 1100.71 3610.01 1101.55 3610.36 1102.62 3610.71 1103.69 3611.04 1105.01 3611.35 1106.59 3611.66 1108.17 3611.94 1109.82 3612.18 1111.52L3612.59 1111.52C3615.18 1107.87 3617.15 1105.2 3618.48 1103.51 3619.82 1101.83 3620.95 1100.57 3621.87 1099.74 3622.79 1098.92 3623.67 1098.34 3624.52 1098 3625.37 1097.66 3626.5 1097.5 3627.91 1097.5 3629.18 1097.5 3630.22 1097.66 3631.03 1097.98L3629.41 1105.32 3626.57 1105.32C3626.41 1104.18 3625.93 1103.62 3625.15 1103.62 3624.91 1103.62 3624.65 1103.66 3624.38 1103.74 3624.11 1103.82 3623.78 1103.99 3623.39 1104.26 3623 1104.53 3622.42 1105.06 3621.66 1105.84 3620.91 1106.63 3620.06 1107.59 3619.11 1108.72 3618.17 1109.86 3617.19 1111.05 3616.19 1112.29L3613.44 1115.73C3613.92 1118.33 3614.38 1120.57 3614.82 1122.46 3615.25 1124.35 3615.63 1125.93 3615.97 1127.18 3616.31 1128.44 3616.61 1129.43 3616.86 1130.16 3617.12 1130.89 3617.4 1131.44 3617.69 1131.8 3617.99 1132.17 3618.29 1132.42 3618.6 1132.57 3618.92 1132.72 3619.27 1132.79 3619.68 1132.79 3620.41 1132.79 3621.12 1132.51 3621.81 1131.94 3622.5 1131.38 3623.49 1130.09 3624.79 1128.09L3627.42 1129.84C3625.53 1132.65 3623.82 1134.63 3622.29 1135.77 3620.77 1136.92 3618.95 1137.5 3616.84 1137.5 3615.68 1137.5 3614.69 1137.29 3613.88 1136.87 3613.07 1136.45 3612.37 1135.78 3611.78 1134.86 3611.18 1133.94 3610.65 1132.51 3610.2 1130.57 3609.36 1127.11 3608.84 1124.46 3608.66 1122.62L3608.25 1122.62C3605.39 1126.65 3603.26 1129.54 3601.87 1131.3 3600.48 1133.05 3599.33 1134.35 3598.42 1135.19 3597.52 1136.02 3596.64 1136.61 3595.79 1136.95 3594.94 1137.29 3593.81 1137.46 3592.4 1137.46 3591.13 1137.46 3590.09 1137.29 3589.28 1136.97L3590.9 1129.63 3593.74 1129.63C3593.9 1130.77 3594.38 1131.34 3595.16 1131.34 3595.54 1131.34 3595.94 1131.23 3596.36 1131.03 3596.77 1130.83 3597.38 1130.34 3598.16 1129.57 3598.94 1128.8 3600.02 1127.59 3601.4 1125.95 3602.78 1124.3 3604.78 1121.83 3607.4 1118.53 3606.99 1116.39 3606.58 1114.34 3606.14 1112.37 3605.71 1110.4 3605.26 1108.56 3604.81 1106.86 3604.35 1105.16 3603.97 1104.04 3603.67 1103.51 3603.37 1102.99 3603.06 1102.62 3602.72 1102.42 3602.38 1102.22 3601.96 1102.12 3601.44 1102.12 3600.87 1102.12 3600.36 1102.24 3599.9 1102.5 3599.44 1102.76 3598.94 1103.2 3598.4 1103.84 3597.86 1104.47 3597.15 1105.47 3596.25 1106.82L3593.62 1105.07C3595.32 1102.51 3596.96 1100.59 3598.52 1099.32 3600.09 1098.05 3601.94 1097.41 3604.08 1097.41Z" fill="#00305D" fill-rule="evenodd"/><text fill="#000000" fill-opacity="0" font-family="Arial,Arial_MSFontService,sans-serif" font-size="40.0815" x="3589.28" y="1132.49">ЁЭСе</text><path d="M3649.16 1115.12C3651.23 1115.12 3652.99 1115.35 3654.45 1115.82 3655.91 1116.29 3657.09 1116.92 3658.01 1117.71 3658.92 1118.51 3659.58 1119.46 3659.99 1120.57 3660.4 1121.68 3660.6 1122.88 3660.6 1124.17 3660.6 1124.95 3660.54 1125.67 3660.44 1126.33 3660.33 1127 3660.14 1127.65 3659.87 1128.3 3659.6 1128.94 3659.25 1129.6 3658.81 1130.25 3658.38 1130.91 3657.83 1131.6 3657.17 1132.34 3656.68 1132.97 3656.03 1133.71 3655.24 1134.54 3654.44 1135.37 3653.57 1136.27 3652.63 1137.22 3651.69 1138.17 3650.7 1139.17 3649.67 1140.2 3648.64 1141.23 3647.63 1142.25 3646.66 1143.27 3645.69 1144.28 3644.79 1145.26 3643.98 1146.22 3643.17 1147.17 3642.5 1148.04 3641.98 1148.84L3653 1148.84C3653.94 1148.84 3654.68 1148.8 3655.24 1148.73 3655.79 1148.66 3656.26 1148.51 3656.62 1148.27 3656.99 1148.03 3657.3 1147.67 3657.56 1147.18 3657.82 1146.7 3658.12 1146.03 3658.45 1145.17L3661.22 1145.17C3661.13 1146.58 3661.03 1148 3660.94 1149.43 3660.85 1150.86 3660.76 1152.28 3660.66 1153.69L3635.43 1153.69 3635.43 1152.14C3635.91 1151.07 3636.46 1150.01 3637.1 1148.97 3637.73 1147.93 3638.45 1146.87 3639.24 1145.8 3640.04 1144.73 3640.94 1143.62 3641.95 1142.48 3642.97 1141.34 3644.09 1140.15 3645.32 1138.92 3647.19 1137.05 3648.71 1135.46 3649.88 1134.14 3651.05 1132.82 3651.97 1131.64 3652.65 1130.61 3653.32 1129.58 3653.78 1128.62 3654.03 1127.75 3654.28 1126.87 3654.4 1125.94 3654.4 1124.95 3654.4 1123.94 3654.26 1123 3653.97 1122.15 3653.68 1121.29 3653.27 1120.57 3652.74 1119.97 3652.2 1119.38 3651.52 1118.91 3650.7 1118.57 3649.87 1118.24 3648.92 1118.07 3647.85 1118.07 3646 1118.07 3644.46 1118.57 3643.2 1119.57 3641.95 1120.58 3640.98 1122.03 3640.29 1123.94L3636.38 1123.94 3636.38 1118.13C3638.93 1117.08 3641.26 1116.31 3643.4 1115.83 3645.53 1115.36 3647.45 1115.12 3649.16 1115.12Z" fill="#00305D" fill-rule="evenodd"/><text fill="#000000" fill-opacity="0" font-family="Arial,Arial_MSFontService,sans-serif" font-size="38.5718" x="3635.43" y="1148.87">2</text></g></svg>