<svg width="1360" height="1337" xmlns="http://www.w3.org/2000/svg" xmlns:xlink="http://www.w3.org/1999/xlink" overflow="hidden"><defs><clipPath id="clip0"><rect x="2030" y="677" width="1360" height="1337"/></clipPath></defs><g clip-path="url(#clip0)" transform="translate(-2030 -677)"><path d="M2676.24 1915.58 2678.59 1915.58 2671.62 1943.66 2672.11 1943.82C2674.67 1940.42 2677.1 1937.95 2679.38 1936.43 2681.66 1934.9 2683.97 1934.14 2686.29 1934.14 2688.8 1934.14 2690.74 1934.86 2692.09 1936.31 2693.44 1937.75 2694.11 1939.76 2694.11 1942.32 2694.11 1944.03 2693.72 1946.44 2692.94 1949.58L2690.3 1960.2C2689.57 1963.14 2689.21 1965.22 2689.21 1966.44 2689.21 1967.52 2689.38 1968.3 2689.74 1968.79 2690.09 1969.27 2690.64 1969.52 2691.4 1969.52 2692.21 1969.52 2693.07 1969.19 2693.99 1968.52 2694.91 1967.86 2696.21 1966.6 2697.88 1964.74L2700.19 1967.01C2697.6 1969.73 2695.47 1971.61 2693.81 1972.64 2692.15 1973.67 2690.28 1974.18 2688.2 1974.18 2686.44 1974.18 2685.04 1973.56 2684 1972.31 2682.96 1971.07 2682.44 1969.46 2682.44 1967.49 2682.44 1965.74 2682.89 1963.16 2683.78 1959.75L2685.52 1952.74C2686.14 1950.23 2686.56 1948.34 2686.78 1947.09 2686.99 1945.83 2687.1 1944.85 2687.1 1944.15 2687.1 1942.23 2686.79 1940.87 2686.17 1940.07 2685.55 1939.28 2684.53 1938.88 2683.13 1938.88 2682.02 1938.88 2680.79 1939.34 2679.44 1940.26 2678.09 1941.18 2676.67 1942.57 2675.19 1944.45 2673.7 1946.33 2672.52 1948.13 2671.64 1949.84 2670.76 1951.56 2670.07 1953.6 2669.55 1955.98L2665.86 1973.53 2658.85 1973.53 2669.27 1927.21C2669.92 1924.32 2670.24 1922.32 2670.24 1921.21 2670.24 1920.07 2669.9 1919.28 2669.21 1918.82 2668.52 1918.36 2667.28 1918.1 2665.5 1918.05L2665.99 1915.94Z" fill="#00305D" fill-rule="evenodd"/><text fill="#000000" fill-opacity="0" font-family="Arial,Arial_MSFontService,sans-serif" font-size="58.6025" x="2658.85" y="1966.85">тДО</text><rect x="2254" y="893" width="895" height="749" stroke="#002042" stroke-width="10.3125" stroke-miterlimit="8" fill="none"/><path d="M2188.5 1655C2188.5 1618.27 2218.05 1588.5 2254.5 1588.5 2290.95 1588.5 2320.5 1618.27 2320.5 1655 2320.5 1691.73 2290.95 1721.5 2254.5 1721.5 2218.05 1721.5 2188.5 1691.73 2188.5 1655Z" stroke="#6B8F3D" stroke-width="4.58333" stroke-miterlimit="8" fill="#94C356" fill-rule="evenodd"/><path d="M3083.5 1655C3083.5 1618.27 3113.05 1588.5 3149.5 1588.5 3185.95 1588.5 3215.5 1618.27 3215.5 1655 3215.5 1691.73 3185.95 1721.5 3149.5 1721.5 3113.05 1721.5 3083.5 1691.73 3083.5 1655Z" stroke="#6B8F3D" stroke-width="4.58333" stroke-miterlimit="8" fill="#94C356" fill-rule="evenodd"/><path d="M2188.5 894C2188.5 857.273 2218.05 827.5 2254.5 827.5 2290.95 827.5 2320.5 857.273 2320.5 894 2320.5 930.727 2290.95 960.5 2254.5 960.5 2218.05 960.5 2188.5 930.727 2188.5 894Z" stroke="#6B8F3D" stroke-width="4.58333" stroke-miterlimit="8" fill="#94C356" fill-rule="evenodd"/><path d="M3083.5 894C3083.5 857.273 3113.05 827.5 3149.5 827.5 3185.95 827.5 3215.5 857.273 3215.5 894 3215.5 930.727 3185.95 960.5 3149.5 960.5 3113.05 960.5 3083.5 930.727 3083.5 894Z" stroke="#6B8F3D" stroke-width="4.58333" stroke-miterlimit="8" fill="#94C356" fill-rule="evenodd"/><path d="M2635.5 1655C2635.5 1618.27 2665.05 1588.5 2701.5 1588.5 2737.95 1588.5 2767.5 1618.27 2767.5 1655 2767.5 1691.73 2737.95 1721.5 2701.5 1721.5 2665.05 1721.5 2635.5 1691.73 2635.5 1655Z" stroke="#FFFFFF" stroke-width="4.58333" stroke-miterlimit="8" fill="#00305D" fill-rule="evenodd"/><path d="M3083.5 1274.5C3083.5 1238.05 3113.05 1208.5 3149.5 1208.5 3185.95 1208.5 3215.5 1238.05 3215.5 1274.5 3215.5 1310.95 3185.95 1340.5 3149.5 1340.5 3113.05 1340.5 3083.5 1310.95 3083.5 1274.5Z" stroke="#FFFFFF" stroke-width="4.58333" stroke-miterlimit="8" fill="#00305D" fill-rule="evenodd"/><path d="M2635.5 894C2635.5 857.273 2665.05 827.5 2701.5 827.5 2737.95 827.5 2767.5 857.273 2767.5 894 2767.5 930.727 2737.95 960.5 2701.5 960.5 2665.05 960.5 2635.5 930.727 2635.5 894Z" stroke="#FFFFFF" stroke-width="4.58333" stroke-miterlimit="8" fill="#00305D" fill-rule="evenodd"/><path d="M2188.5 1274.5C2188.5 1238.05 2218.05 1208.5 2254.5 1208.5 2290.95 1208.5 2320.5 1238.05 2320.5 1274.5 2320.5 1310.95 2290.95 1340.5 2254.5 1340.5 2218.05 1340.5 2188.5 1310.95 2188.5 1274.5Z" stroke="#FFFFFF" stroke-width="4.58333" stroke-miterlimit="8" fill="#00305D" fill-rule="evenodd"/><path d="M2228.61 1765.75C2229.44 1765.75 2230.18 1765.85 2230.82 1766.03 2231.45 1766.22 2232.01 1766.51 2232.5 1766.91 2232.98 1767.3 2233.42 1767.8 2233.79 1768.43 2234.17 1769.05 2234.54 1769.89 2234.89 1770.96 2235.24 1772.03 2235.57 1773.35 2235.88 1774.93 2236.19 1776.51 2236.47 1778.15 2236.71 1779.85L2237.12 1779.85C2239.71 1776.21 2241.68 1773.54 2243.01 1771.85 2244.35 1770.16 2245.48 1768.91 2246.4 1768.08 2247.32 1767.26 2248.2 1766.68 2249.05 1766.34 2249.9 1766 2251.03 1765.83 2252.44 1765.83 2253.71 1765.83 2254.75 1765.99 2255.56 1766.32L2253.94 1773.65 2251.1 1773.65C2250.94 1772.52 2250.46 1771.95 2249.68 1771.95 2249.44 1771.95 2249.18 1771.99 2248.91 1772.07 2248.64 1772.15 2248.31 1772.33 2247.92 1772.6 2247.53 1772.87 2246.95 1773.4 2246.2 1774.18 2245.44 1774.96 2244.59 1775.92 2243.64 1777.06 2242.7 1778.19 2241.72 1779.38 2240.72 1780.62L2237.97 1784.07C2238.46 1786.66 2238.91 1788.91 2239.35 1790.8 2239.78 1792.69 2240.16 1794.26 2240.5 1795.52 2240.84 1796.77 2241.14 1797.77 2241.39 1798.5 2241.65 1799.23 2241.93 1799.77 2242.22 1800.14 2242.52 1800.5 2242.83 1800.76 2243.14 1800.91 2243.45 1801.06 2243.8 1801.13 2244.21 1801.13 2244.94 1801.13 2245.65 1800.85 2246.34 1800.28 2247.03 1799.71 2248.02 1798.43 2249.32 1796.43L2251.95 1798.17C2250.06 1800.98 2248.35 1802.96 2246.82 1804.11 2245.3 1805.26 2243.48 1805.83 2241.37 1805.83 2240.21 1805.83 2239.23 1805.62 2238.41 1805.2 2237.6 1804.79 2236.9 1804.12 2236.31 1803.2 2235.71 1802.28 2235.19 1800.85 2234.73 1798.9 2233.89 1795.44 2233.38 1792.8 2233.19 1790.96L2232.78 1790.96C2229.92 1794.98 2227.79 1797.88 2226.4 1799.63 2225.01 1801.39 2223.86 1802.69 2222.95 1803.52 2222.05 1804.36 2221.17 1804.95 2220.32 1805.29 2219.47 1805.62 2218.34 1805.79 2216.94 1805.79 2215.67 1805.79 2214.63 1805.63 2213.81 1805.31L2215.44 1797.97 2218.27 1797.97C2218.43 1799.11 2218.91 1799.67 2219.69 1799.67 2220.07 1799.67 2220.47 1799.57 2220.89 1799.37 2221.31 1799.17 2221.91 1798.68 2222.69 1797.91 2223.47 1797.14 2224.55 1795.93 2225.93 1794.28 2227.31 1792.63 2229.31 1790.16 2231.93 1786.87 2231.53 1784.73 2231.11 1782.68 2230.67 1780.71 2230.24 1778.73 2229.8 1776.9 2229.34 1775.19 2228.88 1773.49 2228.5 1772.38 2228.2 1771.85 2227.9 1771.32 2227.59 1770.96 2227.25 1770.76 2226.91 1770.55 2226.49 1770.45 2225.97 1770.45 2225.41 1770.45 2224.89 1770.58 2224.43 1770.84 2223.97 1771.09 2223.47 1771.54 2222.93 1772.17 2222.39 1772.81 2221.68 1773.8 2220.79 1775.15L2218.15 1773.41C2219.85 1770.84 2221.49 1768.93 2223.05 1767.66 2224.62 1766.39 2226.47 1765.75 2228.61 1765.75Z" fill="#94C356" fill-rule="evenodd"/><text fill="#000000" fill-opacity="0" font-family="Arial,Arial_MSFontService,sans-serif" font-size="40.0815" x="2213.81" y="1800.82">ЁЭСе</text><path d="M2273.57 1786.35C2272.18 1786.35 2271.02 1786.71 2270.09 1787.43 2269.16 1788.16 2268.42 1789.22 2267.87 1790.62 2267.32 1792.02 2266.94 1793.73 2266.71 1795.74 2266.48 1797.76 2266.37 1800.05 2266.37 1802.61 2266.37 1805.57 2266.51 1808.12 2266.8 1810.28 2267.09 1812.43 2267.53 1814.2 2268.14 1815.59 2268.74 1816.98 2269.5 1818.01 2270.42 1818.66 2271.33 1819.32 2272.42 1819.65 2273.69 1819.65 2274.88 1819.65 2275.93 1819.34 2276.82 1818.72 2277.71 1818.11 2278.45 1817.15 2279.04 1815.85 2279.63 1814.55 2280.07 1812.9 2280.36 1810.9 2280.66 1808.91 2280.81 1806.55 2280.81 1803.83 2280.81 1800.77 2280.65 1798.14 2280.32 1795.94 2279.99 1793.73 2279.53 1791.92 2278.94 1790.5 2278.34 1789.08 2277.59 1788.03 2276.69 1787.36 2275.78 1786.68 2274.75 1786.35 2273.57 1786.35ZM2273.69 1783.46C2276.06 1783.46 2278.08 1783.9 2279.75 1784.78 2281.43 1785.67 2282.8 1786.93 2283.86 1788.56 2284.93 1790.2 2285.71 1792.2 2286.2 1794.57 2286.7 1796.93 2286.95 1799.6 2286.95 1802.58 2286.95 1809.19 2285.78 1814.19 2283.43 1817.58 2281.09 1820.96 2277.69 1822.65 2273.25 1822.65 2268.84 1822.65 2265.56 1821.05 2263.42 1817.86 2261.27 1814.66 2260.2 1809.82 2260.2 1803.32 2260.2 1799.93 2260.53 1796.99 2261.2 1794.51 2261.86 1792.02 2262.8 1789.96 2264 1788.33 2265.2 1786.69 2266.62 1785.47 2268.27 1784.66 2269.92 1783.86 2271.73 1783.46 2273.69 1783.46Z" fill="#94C356" fill-rule="evenodd"/><text fill="#000000" fill-opacity="0" font-family="Arial,Arial_MSFontService,sans-serif" font-size="39.1973" x="2260.2" y="1817.75">0</text><path d="M3124 1771.7C3124.84 1771.7 3125.58 1771.79 3126.21 1771.98 3126.85 1772.17 3127.41 1772.46 3127.89 1772.86 3128.38 1773.25 3128.81 1773.75 3129.19 1774.38 3129.57 1775 3129.93 1775.84 3130.28 1776.91 3130.64 1777.98 3130.97 1779.3 3131.28 1780.88 3131.59 1782.46 3131.86 1784.1 3132.11 1785.8L3132.51 1785.8C3135.11 1782.16 3137.07 1779.49 3138.41 1777.8 3139.75 1776.11 3140.88 1774.85 3141.79 1774.03 3142.71 1773.21 3143.6 1772.63 3144.45 1772.29 3145.3 1771.95 3146.43 1771.78 3147.83 1771.78 3149.1 1771.78 3150.14 1771.94 3150.95 1772.27L3149.33 1779.6 3146.5 1779.6C3146.33 1778.47 3145.86 1777.9 3145.08 1777.9 3144.83 1777.9 3144.58 1777.94 3144.31 1778.02 3144.04 1778.1 3143.71 1778.28 3143.31 1778.55 3142.92 1778.82 3142.35 1779.35 3141.59 1780.13 3140.83 1780.91 3139.98 1781.87 3139.04 1783.01 3138.09 1784.14 3137.12 1785.33 3136.12 1786.57L3133.36 1790.02C3133.85 1792.61 3134.31 1794.85 3134.74 1796.75 3135.17 1798.64 3135.56 1800.21 3135.9 1801.47 3136.23 1802.72 3136.53 1803.72 3136.79 1804.45 3137.05 1805.18 3137.32 1805.72 3137.62 1806.09 3137.92 1806.45 3138.22 1806.71 3138.53 1806.86 3138.84 1807.01 3139.2 1807.08 3139.61 1807.08 3140.33 1807.08 3141.04 1806.8 3141.73 1806.23 3142.42 1805.66 3143.42 1804.38 3144.71 1802.38L3147.35 1804.12C3145.45 1806.93 3143.75 1808.91 3142.22 1810.06 3140.69 1811.21 3138.88 1811.78 3136.77 1811.78 3135.61 1811.78 3134.62 1811.57 3133.81 1811.15 3133 1810.73 3132.3 1810.07 3131.7 1809.15 3131.11 1808.23 3130.58 1806.8 3130.12 1804.85 3129.28 1801.39 3128.77 1798.75 3128.58 1796.91L3128.18 1796.91C3125.31 1800.93 3123.19 1803.82 3121.79 1805.58 3120.4 1807.34 3119.25 1808.63 3118.35 1809.47 3117.44 1810.31 3116.57 1810.9 3115.71 1811.23 3114.86 1811.57 3113.74 1811.74 3112.33 1811.74 3111.06 1811.74 3110.02 1811.58 3109.21 1811.26L3110.83 1803.92 3113.67 1803.92C3113.83 1805.05 3114.3 1805.62 3115.09 1805.62 3115.46 1805.62 3115.86 1805.52 3116.28 1805.32 3116.7 1805.12 3117.3 1804.63 3118.09 1803.86 3118.87 1803.09 3119.95 1801.88 3121.33 1800.23 3122.71 1798.58 3124.7 1796.11 3127.33 1792.82 3126.92 1790.68 3126.5 1788.63 3126.07 1786.65 3125.64 1784.68 3125.19 1782.85 3124.73 1781.14 3124.27 1779.44 3123.89 1778.33 3123.6 1777.8 3123.3 1777.27 3122.98 1776.91 3122.64 1776.71 3122.31 1776.5 3121.88 1776.4 3121.37 1776.4 3120.8 1776.4 3120.29 1776.53 3119.83 1776.79 3119.37 1777.04 3118.87 1777.49 3118.33 1778.12 3117.79 1778.76 3117.07 1779.75 3116.18 1781.1L3113.55 1779.36C3115.25 1776.79 3116.88 1774.88 3118.45 1773.61 3120.02 1772.34 3121.87 1771.7 3124 1771.7Z" fill="#94C356" fill-rule="evenodd"/><text fill="#000000" fill-opacity="0" font-family="Arial,Arial_MSFontService,sans-serif" font-size="40.0815" x="3109.21" y="1806.77">ЁЭСе</text><path d="M3169.51 1789.61 3171.33 1789.61C3171.29 1790.71 3171.26 1791.68 3171.24 1792.55 3171.22 1793.41 3171.2 1794.25 3171.19 1795.06 3171.18 1795.88 3171.18 1796.68 3171.18 1797.48L3171.18 1820.11C3171.18 1820.73 3171.2 1821.26 3171.24 1821.71 3171.28 1822.15 3171.34 1822.53 3171.43 1822.84 3171.52 1823.15 3171.64 1823.41 3171.79 1823.63 3171.94 1823.85 3172.11 1824.04 3172.31 1824.19 3172.55 1824.43 3172.87 1824.62 3173.26 1824.75 3173.66 1824.87 3174.17 1824.98 3174.78 1825.07 3175.4 1825.16 3176.14 1825.23 3177 1825.28 3177.86 1825.33 3178.9 1825.37 3180.11 1825.39L3180.11 1827.98 3156.49 1827.98 3156.49 1825.39C3157.67 1825.35 3158.66 1825.3 3159.47 1825.25 3160.29 1825.2 3160.98 1825.13 3161.56 1825.04 3162.13 1824.95 3162.59 1824.85 3162.94 1824.75 3163.29 1824.64 3163.59 1824.5 3163.85 1824.34 3164.13 1824.16 3164.37 1823.97 3164.57 1823.76 3164.76 1823.55 3164.92 1823.29 3165.04 1822.97 3165.16 1822.66 3165.26 1822.27 3165.32 1821.81 3165.39 1821.35 3165.43 1820.79 3165.43 1820.11L3165.43 1798.76C3165.43 1797.98 3165.28 1797.44 3164.98 1797.12 3164.68 1796.8 3164.26 1796.64 3163.7 1796.64 3163.09 1796.64 3162.17 1796.96 3160.96 1797.6 3159.75 1798.23 3158.18 1799.17 3156.26 1800.43 3156 1799.97 3155.76 1799.51 3155.54 1799.06 3155.32 1798.6 3155.09 1798.13 3154.86 1797.66 3157.32 1796.31 3159.76 1794.96 3162.17 1793.62 3164.58 1792.28 3167.03 1790.94 3169.51 1789.61Z" fill="#94C356" fill-rule="evenodd"/><text fill="#000000" fill-opacity="0" font-family="Arial,Arial_MSFontService,sans-serif" font-size="38.3633" x="3154.86" y="1823.18">1</text><path d="M2676.26 1777.65C2677.1 1777.65 2677.83 1777.74 2678.47 1777.93 2679.1 1778.12 2679.66 1778.41 2680.15 1778.8 2680.64 1779.2 2681.07 1779.7 2681.45 1780.32 2681.82 1780.95 2682.19 1781.79 2682.54 1782.86 2682.89 1783.92 2683.22 1785.25 2683.53 1786.83 2683.84 1788.41 2684.12 1790.05 2684.36 1791.75L2684.77 1791.75C2687.36 1788.11 2689.33 1785.44 2690.67 1783.75 2692 1782.06 2693.13 1780.8 2694.05 1779.98 2694.97 1779.16 2695.85 1778.58 2696.7 1778.24 2697.56 1777.9 2698.68 1777.73 2700.09 1777.73 2701.36 1777.73 2702.4 1777.89 2703.21 1778.22L2701.59 1785.55 2698.75 1785.55C2698.59 1784.42 2698.12 1783.85 2697.33 1783.85 2697.09 1783.85 2696.83 1783.89 2696.56 1783.97 2696.29 1784.05 2695.96 1784.23 2695.57 1784.5 2695.18 1784.77 2694.6 1785.3 2693.85 1786.08 2693.09 1786.86 2692.24 1787.82 2691.29 1788.96 2690.35 1790.09 2689.38 1791.28 2688.38 1792.52L2685.62 1795.97C2686.11 1798.56 2686.57 1800.8 2687 1802.7 2687.43 1804.59 2687.82 1806.16 2688.15 1807.42 2688.49 1808.67 2688.79 1809.67 2689.04 1810.4 2689.3 1811.13 2689.58 1811.67 2689.88 1812.04 2690.17 1812.4 2690.48 1812.66 2690.79 1812.81 2691.1 1812.96 2691.46 1813.03 2691.86 1813.03 2692.59 1813.03 2693.3 1812.75 2693.99 1812.18 2694.68 1811.61 2695.67 1810.33 2696.97 1808.33L2699.6 1810.07C2697.71 1812.88 2696 1814.86 2694.48 1816.01 2692.95 1817.16 2691.13 1817.73 2689.02 1817.73 2687.86 1817.73 2686.88 1817.52 2686.07 1817.1 2685.26 1816.68 2684.55 1816.02 2683.96 1815.1 2683.36 1814.18 2682.84 1812.75 2682.38 1810.8 2681.54 1807.34 2681.03 1804.69 2680.84 1802.86L2680.43 1802.86C2677.57 1806.88 2675.44 1809.77 2674.05 1811.53 2672.66 1813.29 2671.51 1814.58 2670.6 1815.42 2669.7 1816.26 2668.82 1816.85 2667.97 1817.18 2667.12 1817.52 2665.99 1817.69 2664.59 1817.69 2663.32 1817.69 2662.28 1817.53 2661.47 1817.2L2663.09 1809.87 2665.92 1809.87C2666.09 1811 2666.56 1811.57 2667.34 1811.57 2667.72 1811.57 2668.12 1811.47 2668.54 1811.27 2668.96 1811.06 2669.56 1810.58 2670.34 1809.81 2671.12 1809.04 2672.21 1807.83 2673.58 1806.18 2674.96 1804.53 2676.96 1802.06 2679.58 1798.76 2679.18 1796.63 2678.76 1794.58 2678.33 1792.6 2677.89 1790.63 2677.45 1788.79 2676.99 1787.09 2676.53 1785.39 2676.15 1784.28 2675.85 1783.75 2675.56 1783.22 2675.24 1782.86 2674.9 1782.65 2674.56 1782.45 2674.14 1782.35 2673.62 1782.35 2673.06 1782.35 2672.54 1782.48 2672.08 1782.74 2671.62 1782.99 2671.12 1783.44 2670.58 1784.07 2670.04 1784.71 2669.33 1785.7 2668.44 1787.05L2665.8 1785.31C2667.5 1782.74 2669.14 1780.82 2670.71 1779.55 2672.27 1778.28 2674.12 1777.65 2676.26 1777.65Z" fill="#00305D" fill-rule="evenodd"/><text fill="#000000" fill-opacity="0" font-family="Arial,Arial_MSFontService,sans-serif" font-size="40.0815" x="2661.47" y="1812.72">ЁЭСе</text><path d="M2722.74 1802.74C2720.84 1805.5 2718.94 1808.24 2717.04 1810.96 2715.14 1813.68 2713.23 1816.41 2711.31 1819.15L2711.31 1819.51 2722.74 1819.51 2722.74 1813.52C2722.74 1812.85 2722.75 1812.01 2722.77 1811.02 2722.79 1810.03 2722.82 1809.02 2722.85 1808 2722.88 1806.98 2722.91 1806 2722.95 1805.08 2722.99 1804.16 2723.03 1803.38 2723.07 1802.74ZM2723.61 1795.77 2728.34 1795.77 2728.34 1819.51 2728.88 1819.51C2729.69 1819.51 2730.35 1819.47 2730.86 1819.39 2731.37 1819.31 2731.77 1819.15 2732.08 1818.9 2732.39 1818.65 2732.65 1818.3 2732.86 1817.86 2733.06 1817.41 2733.29 1816.83 2733.53 1816.11L2736.06 1816.11C2736 1817.21 2735.93 1818.29 2735.86 1819.36 2735.8 1820.43 2735.73 1821.53 2735.67 1822.64L2728.34 1822.64 2728.34 1826.54C2728.34 1827.69 2728.37 1828.59 2728.42 1829.22 2728.47 1829.86 2728.62 1830.35 2728.87 1830.71 2729.11 1831.07 2729.48 1831.34 2729.97 1831.51 2730.45 1831.69 2731.13 1831.9 2732.01 1832.14L2732.01 1833.93 2719.14 1833.93 2719.14 1832.14C2719.74 1831.98 2720.24 1831.84 2720.66 1831.71 2721.08 1831.58 2721.42 1831.43 2721.7 1831.26 2721.98 1831.09 2722.18 1830.89 2722.31 1830.67 2722.44 1830.44 2722.54 1830.15 2722.61 1829.8 2722.68 1829.45 2722.72 1829.02 2722.73 1828.49 2722.74 1827.96 2722.74 1827.31 2722.74 1826.54L2722.74 1822.64 2705.98 1822.64 2705.98 1820.28C2708.93 1816.17 2711.87 1812.09 2714.79 1808.03 2717.71 1803.97 2720.65 1799.88 2723.61 1795.77Z" fill="#00305D" fill-rule="evenodd"/><text fill="#000000" fill-opacity="0" font-family="Arial,Arial_MSFontService,sans-serif" font-size="38.1548" x="2705.98" y="1829.16">4</text><path d="M3284.32 1263.32C3285.16 1263.32 3285.89 1263.41 3286.53 1263.6 3287.16 1263.79 3287.73 1264.08 3288.21 1264.47 3288.7 1264.86 3289.13 1265.37 3289.51 1265.99 3289.89 1266.61 3290.25 1267.46 3290.6 1268.52 3290.95 1269.59 3291.28 1270.92 3291.6 1272.5 3291.91 1274.08 3292.18 1275.72 3292.43 1277.42L3292.83 1277.42C3295.43 1273.77 3297.39 1271.1 3298.73 1269.42 3300.07 1267.73 3301.19 1266.47 3302.11 1265.65 3303.03 1264.82 3303.92 1264.24 3304.77 1263.9 3305.62 1263.57 3306.75 1263.4 3308.15 1263.4 3309.42 1263.4 3310.46 1263.56 3311.27 1263.88L3309.65 1271.22 3306.81 1271.22C3306.65 1270.09 3306.18 1269.52 3305.4 1269.52 3305.15 1269.52 3304.9 1269.56 3304.62 1269.64 3304.35 1269.72 3304.02 1269.9 3303.63 1270.17 3303.24 1270.44 3302.67 1270.96 3301.91 1271.75 3301.15 1272.53 3300.3 1273.49 3299.36 1274.62 3298.41 1275.76 3297.44 1276.95 3296.44 1278.19L3293.68 1281.64C3294.17 1284.23 3294.63 1286.47 3295.06 1288.36 3295.49 1290.25 3295.88 1291.83 3296.22 1293.08 3296.55 1294.34 3296.85 1295.33 3297.11 1296.06 3297.36 1296.79 3297.64 1297.34 3297.94 1297.7 3298.24 1298.07 3298.54 1298.33 3298.85 1298.47 3299.16 1298.62 3299.52 1298.7 3299.92 1298.7 3300.65 1298.7 3301.36 1298.41 3302.05 1297.85 3302.74 1297.28 3303.73 1296 3305.03 1294L3307.66 1295.74C3305.77 1298.55 3304.06 1300.53 3302.54 1301.68 3301.01 1302.82 3299.19 1303.4 3297.09 1303.4 3295.93 1303.4 3294.94 1303.19 3294.13 1302.77 3293.32 1302.35 3292.62 1301.68 3292.02 1300.76 3291.43 1299.85 3290.9 1298.41 3290.44 1296.47 3289.6 1293.01 3289.09 1290.36 3288.9 1288.53L3288.5 1288.53C3285.63 1292.55 3283.5 1295.44 3282.11 1297.2 3280.72 1298.95 3279.57 1300.25 3278.67 1301.09 3277.76 1301.93 3276.88 1302.51 3276.03 1302.85 3275.18 1303.19 3274.05 1303.36 3272.65 1303.36 3271.38 1303.36 3270.34 1303.2 3269.53 1302.87L3271.15 1295.54 3273.99 1295.54C3274.15 1296.67 3274.62 1297.24 3275.4 1297.24 3275.78 1297.24 3276.18 1297.14 3276.6 1296.93 3277.02 1296.73 3277.62 1296.25 3278.4 1295.48 3279.19 1294.71 3280.27 1293.5 3281.65 1291.85 3283.02 1290.2 3285.02 1287.73 3287.64 1284.43 3287.24 1282.3 3286.82 1280.24 3286.39 1278.27 3285.96 1276.3 3285.51 1274.46 3285.05 1272.76 3284.59 1271.06 3284.21 1269.94 3283.92 1269.42 3283.62 1268.89 3283.3 1268.52 3282.96 1268.32 3282.63 1268.12 3282.2 1268.02 3281.69 1268.02 3281.12 1268.02 3280.61 1268.15 3280.15 1268.4 3279.69 1268.66 3279.19 1269.11 3278.65 1269.74 3278.11 1270.38 3277.39 1271.37 3276.5 1272.72L3273.86 1270.98C3275.57 1268.41 3277.2 1266.49 3278.77 1265.22 3280.34 1263.95 3282.19 1263.32 3284.32 1263.32Z" fill="#00305D" fill-rule="evenodd"/><text fill="#000000" fill-opacity="0" font-family="Arial,Arial_MSFontService,sans-serif" font-size="40.0815" x="3269.53" y="1298.39">ЁЭСе</text><path d="M3337.93 1279.59 3340.61 1279.59 3340.19 1286.8 3322.73 1286.8 3322.73 1298.45C3323.79 1298.09 3324.94 1297.8 3326.19 1297.58 3327.44 1297.36 3328.7 1297.26 3329.97 1297.26 3331.8 1297.26 3333.45 1297.51 3334.93 1298.01 3336.41 1298.52 3337.68 1299.25 3338.74 1300.19 3339.81 1301.13 3340.63 1302.27 3341.22 1303.61 3341.8 1304.95 3342.1 1306.46 3342.1 1308.13 3342.1 1310.03 3341.77 1311.73 3341.11 1313.22 3340.46 1314.71 3339.52 1315.97 3338.3 1317.02 3337.08 1318.06 3335.59 1318.85 3333.83 1319.4 3332.07 1319.95 3330.09 1320.22 3327.89 1320.22 3326.14 1320.22 3324.35 1320.05 3322.53 1319.71 3320.7 1319.38 3318.8 1318.88 3316.84 1318.22L3316.84 1311.61 3320.65 1311.61C3321.25 1313.62 3322.14 1315.05 3323.33 1315.92 3324.52 1316.78 3326.09 1317.21 3328.04 1317.21 3330.64 1317.21 3332.6 1316.54 3333.93 1315.19 3335.26 1313.84 3335.93 1311.72 3335.93 1308.84 3335.93 1306.08 3335.22 1304.03 3333.81 1302.69 3332.41 1301.35 3330.43 1300.68 3327.89 1300.68 3327.21 1300.68 3326.6 1300.69 3326.06 1300.71 3325.51 1300.73 3324.97 1300.78 3324.43 1300.86 3323.9 1300.94 3323.37 1301.05 3322.84 1301.19 3322.31 1301.33 3321.72 1301.48 3321.07 1301.66L3318.62 1300.32 3318.62 1281.59 3335.13 1281.59C3335.6 1281.57 3335.98 1281.54 3336.27 1281.5 3336.56 1281.46 3336.79 1281.37 3336.97 1281.23 3337.15 1281.09 3337.31 1280.9 3337.45 1280.65 3337.59 1280.4 3337.75 1280.05 3337.93 1279.59Z" fill="#00305D" fill-rule="evenodd"/><text fill="#000000" fill-opacity="0" font-family="Arial,Arial_MSFontService,sans-serif" font-size="40.627" x="3316.84" y="1315.14">5</text><path d="M2690.36 734.357C2691.2 734.357 2691.93 734.451 2692.57 734.64 2693.2 734.83 2693.77 735.12 2694.25 735.512 2694.74 735.904 2695.17 736.41 2695.55 737.032 2695.93 737.653 2696.29 738.497 2696.64 739.565 2696.99 740.632 2697.32 741.956 2697.64 743.536 2697.95 745.117 2698.22 746.758 2698.47 748.46L2698.87 748.46C2701.47 744.813 2703.43 742.145 2704.77 740.456 2706.11 738.767 2707.23 737.511 2708.15 736.687 2709.07 735.863 2709.96 735.282 2710.81 734.944 2711.66 734.607 2712.79 734.438 2714.19 734.438 2715.46 734.438 2716.5 734.6 2717.31 734.924L2715.69 742.26 2712.85 742.26C2712.69 741.125 2712.22 740.557 2711.44 740.557 2711.19 740.557 2710.94 740.598 2710.67 740.679 2710.4 740.76 2710.06 740.936 2709.67 741.206 2709.28 741.476 2708.71 742.003 2707.95 742.786 2707.19 743.57 2706.34 744.529 2705.4 745.664 2704.45 746.799 2703.48 747.987 2702.48 749.23L2699.72 752.675C2700.21 755.269 2700.67 757.511 2701.1 759.403 2701.53 761.294 2701.92 762.868 2702.26 764.124 2702.59 765.38 2702.89 766.373 2703.15 767.103 2703.4 767.832 2703.68 768.379 2703.98 768.744 2704.28 769.109 2704.58 769.366 2704.89 769.514 2705.2 769.663 2705.56 769.737 2705.96 769.737 2706.69 769.737 2707.4 769.453 2708.09 768.886 2708.78 768.319 2709.77 767.035 2711.07 765.036L2713.7 766.779C2711.81 769.589 2710.1 771.568 2708.58 772.716 2707.05 773.864 2705.23 774.438 2703.13 774.438 2701.97 774.438 2700.98 774.229 2700.17 773.81 2699.36 773.391 2698.66 772.723 2698.06 771.804 2697.47 770.885 2696.94 769.453 2696.48 767.508 2695.64 764.05 2695.13 761.402 2694.94 759.565L2694.54 759.565C2691.67 763.59 2689.54 766.481 2688.15 768.238 2686.76 769.994 2685.61 771.291 2684.71 772.128 2683.8 772.966 2682.92 773.553 2682.07 773.891 2681.22 774.229 2680.09 774.398 2678.69 774.398 2677.42 774.398 2676.38 774.236 2675.57 773.911L2677.19 766.576 2680.03 766.576C2680.19 767.711 2680.66 768.278 2681.45 768.278 2681.82 768.278 2682.22 768.177 2682.64 767.974 2683.06 767.772 2683.66 767.285 2684.44 766.515 2685.23 765.745 2686.31 764.536 2687.69 762.888 2689.06 761.24 2691.06 758.768 2693.68 755.471 2693.28 753.337 2692.86 751.284 2692.43 749.311 2692 747.339 2691.55 745.502 2691.09 743.8 2690.63 742.097 2690.25 740.983 2689.96 740.456 2689.66 739.929 2689.34 739.565 2689 739.362 2688.67 739.159 2688.24 739.058 2687.73 739.058 2687.16 739.058 2686.65 739.186 2686.19 739.443 2685.73 739.7 2685.23 740.145 2684.69 740.78 2684.15 741.415 2683.43 742.408 2682.54 743.759L2679.91 742.016C2681.61 739.45 2683.24 737.531 2684.81 736.262 2686.38 734.992 2688.23 734.357 2690.36 734.357Z" fill="#00305D" fill-rule="evenodd"/><text fill="#000000" fill-opacity="0" font-family="Arial,Arial_MSFontService,sans-serif" font-size="40.0815" x="2675.57" y="769.428">ЁЭСе</text><path d="M2736.61 770.886C2735.28 770.886 2734.05 771.065 2732.93 771.422 2731.81 771.78 2730.74 772.266 2729.73 772.882 2729.31 773.16 2728.99 773.418 2728.76 773.656 2728.53 773.894 2728.36 774.177 2728.25 774.505 2728.14 774.833 2728.07 775.24 2728.03 775.726 2727.99 776.213 2727.97 776.873 2727.97 777.707 2727.97 784.736 2730.52 788.251 2735.63 788.251 2737.02 788.251 2738.21 788.047 2739.21 787.64 2740.22 787.233 2741.04 786.647 2741.67 785.883 2742.31 785.118 2742.77 784.175 2743.07 783.053 2743.37 781.931 2743.52 780.656 2743.52 779.226 2743.52 776.565 2742.92 774.51 2741.73 773.06 2740.54 771.611 2738.83 770.886 2736.61 770.886ZM2744.5 752.062C2744.74 752.34 2744.96 752.608 2745.16 752.866 2745.36 753.124 2745.57 753.382 2745.81 753.64L2745.81 755.398C2743.41 755.358 2741.25 755.676 2739.32 756.351 2737.39 757.026 2735.7 758.014 2734.23 759.315 2732.76 760.615 2731.53 762.214 2730.53 764.11 2729.54 766.006 2728.77 768.146 2728.21 770.529L2728.54 770.678C2729.35 770.122 2730.16 769.64 2730.95 769.233 2731.74 768.826 2732.55 768.488 2733.36 768.22 2734.18 767.952 2735.02 767.759 2735.89 767.639 2736.77 767.52 2737.7 767.461 2738.69 767.461 2740.44 767.461 2741.98 767.719 2743.33 768.235 2744.67 768.751 2745.8 769.506 2746.74 770.499 2747.67 771.492 2748.37 772.683 2748.85 774.073 2749.33 775.463 2749.57 777.012 2749.57 778.72 2749.57 780.526 2749.27 782.204 2748.67 783.753 2748.08 785.302 2747.18 786.632 2745.99 787.744 2744.8 788.856 2743.33 789.72 2741.57 790.336 2739.81 790.951 2737.75 791.259 2735.39 791.259 2730.92 791.259 2727.55 789.983 2725.28 787.432 2723 784.88 2721.86 781.122 2721.86 776.158 2721.86 773.934 2722.11 771.804 2722.61 769.769 2723.11 767.734 2723.84 765.837 2724.8 764.08 2725.76 762.323 2726.93 760.734 2728.3 759.315 2729.67 757.895 2731.2 756.664 2732.89 755.621 2734.57 754.579 2736.4 753.755 2738.37 753.149 2740.33 752.543 2742.38 752.181 2744.5 752.062Z" fill="#00305D" fill-rule="evenodd"/><text fill="#000000" fill-opacity="0" font-family="Arial,Arial_MSFontService,sans-serif" font-size="39.1973" x="2721.86" y="786.359">6</text><path d="M3138.01 737.301C3138.85 737.301 3139.59 737.395 3140.22 737.584 3140.86 737.773 3141.42 738.064 3141.9 738.456 3142.39 738.847 3142.82 739.354 3143.2 739.975 3143.58 740.597 3143.94 741.441 3144.29 742.508 3144.65 743.576 3144.98 744.899 3145.29 746.48 3145.6 748.061 3145.88 749.702 3146.12 751.404L3146.52 751.404C3149.12 747.757 3151.08 745.089 3152.42 743.4 3153.76 741.711 3154.89 740.455 3155.8 739.631 3156.72 738.807 3157.61 738.226 3158.46 737.888 3159.31 737.55 3160.44 737.382 3161.84 737.382 3163.11 737.382 3164.15 737.544 3164.96 737.868L3163.34 745.203 3160.51 745.203C3160.34 744.069 3159.87 743.501 3159.09 743.501 3158.84 743.501 3158.59 743.542 3158.32 743.623 3158.05 743.704 3157.72 743.879 3157.32 744.15 3156.93 744.42 3156.36 744.947 3155.6 745.73 3154.85 746.514 3153.99 747.473 3153.05 748.608 3152.1 749.742 3151.13 750.931 3150.13 752.174L3147.38 755.619C3147.86 758.213 3148.32 760.455 3148.75 762.346 3149.19 764.238 3149.57 765.812 3149.91 767.068 3150.25 768.324 3150.54 769.317 3150.8 770.047 3151.06 770.776 3151.33 771.323 3151.63 771.688 3151.93 772.053 3152.23 772.309 3152.54 772.458 3152.85 772.607 3153.21 772.681 3153.62 772.681 3154.35 772.681 3155.05 772.397 3155.74 771.83 3156.43 771.262 3157.43 769.979 3158.72 767.98L3161.36 769.722C3159.47 772.532 3157.76 774.511 3156.23 775.66 3154.7 776.808 3152.89 777.382 3150.78 777.382 3149.62 777.382 3148.63 777.173 3147.82 776.754 3147.01 776.335 3146.31 775.666 3145.71 774.748 3145.12 773.829 3144.59 772.397 3144.13 770.452 3143.3 766.994 3142.78 764.346 3142.59 762.509L3142.19 762.509C3139.32 766.534 3137.2 769.425 3135.8 771.181 3134.41 772.938 3133.26 774.234 3132.36 775.072 3131.45 775.91 3130.58 776.497 3129.73 776.835 3128.87 777.173 3127.75 777.342 3126.34 777.342 3125.07 777.342 3124.03 777.179 3123.22 776.855L3124.84 769.52 3127.68 769.52C3127.84 770.655 3128.31 771.222 3129.1 771.222 3129.48 771.222 3129.87 771.121 3130.29 770.918 3130.71 770.715 3131.31 770.229 3132.1 769.459 3132.88 768.689 3133.96 767.48 3135.34 765.832 3136.72 764.184 3138.72 761.711 3141.34 758.415 3140.93 756.281 3140.51 754.227 3140.08 752.255 3139.65 750.283 3139.2 748.446 3138.74 746.743 3138.28 745.041 3137.91 743.927 3137.61 743.4 3137.31 742.873 3136.99 742.508 3136.66 742.306 3136.32 742.103 3135.89 742.002 3135.38 742.002 3134.81 742.002 3134.3 742.13 3133.84 742.387 3133.38 742.643 3132.88 743.089 3132.34 743.724 3131.8 744.359 3131.08 745.352 3130.19 746.703L3127.56 744.96C3129.26 742.393 3130.89 740.475 3132.46 739.205 3134.03 737.935 3135.88 737.301 3138.01 737.301Z" fill="#94C356" fill-rule="evenodd"/><text fill="#000000" fill-opacity="0" font-family="Arial,Arial_MSFontService,sans-serif" font-size="40.0815" x="3123.22" y="772.372">ЁЭСе</text><path d="M3183.1 755.006C3185.16 755.006 3186.93 755.239 3188.39 755.706 3189.85 756.172 3191.03 756.803 3191.95 757.597 3192.86 758.391 3193.52 759.344 3193.93 760.456 3194.33 761.568 3194.54 762.77 3194.54 764.06 3194.54 764.835 3194.48 765.555 3194.37 766.22 3194.26 766.885 3194.07 767.54 3193.81 768.186 3193.54 768.831 3193.19 769.481 3192.75 770.136 3192.31 770.792 3191.77 771.487 3191.11 772.221 3190.61 772.857 3189.97 773.592 3189.18 774.426 3188.38 775.26 3187.51 776.153 3186.57 777.106 3185.63 778.059 3184.64 779.052 3183.61 780.085 3182.57 781.117 3181.57 782.14 3180.6 783.153 3179.62 784.165 3178.73 785.148 3177.92 786.101 3177.1 787.054 3176.44 787.928 3175.92 788.722L3186.94 788.722C3187.87 788.722 3188.62 788.688 3189.18 788.618 3189.73 788.549 3190.19 788.395 3190.56 788.156 3190.93 787.918 3191.24 787.556 3191.5 787.069 3191.76 786.583 3192.05 785.913 3192.39 785.059L3195.16 785.059C3195.06 786.469 3194.97 787.888 3194.88 789.318 3194.79 790.748 3194.7 792.168 3194.6 793.577L3169.37 793.577 3169.37 792.029C3169.84 790.956 3170.4 789.899 3171.04 788.856 3171.67 787.814 3172.39 786.757 3173.18 785.684 3173.97 784.612 3174.88 783.505 3175.89 782.363 3176.9 781.221 3178.03 780.035 3179.26 778.804 3181.12 776.937 3182.64 775.344 3183.81 774.023 3184.99 772.703 3185.91 771.526 3186.58 770.494 3187.26 769.461 3187.72 768.508 3187.97 767.635 3188.22 766.761 3188.34 765.828 3188.34 764.835 3188.34 763.822 3188.2 762.889 3187.91 762.035 3187.62 761.181 3187.21 760.456 3186.67 759.861 3186.14 759.265 3185.46 758.798 3184.63 758.461 3183.81 758.123 3182.86 757.954 3181.79 757.954 3179.94 757.954 3178.39 758.456 3177.14 759.458 3175.89 760.461 3174.92 761.916 3174.22 763.822L3170.32 763.822 3170.32 758.014C3172.86 756.961 3175.2 756.197 3177.34 755.72 3179.47 755.244 3181.39 755.006 3183.1 755.006Z" fill="#94C356" fill-rule="evenodd"/><text fill="#000000" fill-opacity="0" font-family="Arial,Arial_MSFontService,sans-serif" font-size="38.5718" x="3169.37" y="788.756">2</text><path d="M2234.31 738.401C2235.14 738.401 2235.88 738.496 2236.51 738.685 2237.15 738.874 2237.71 739.165 2238.2 739.556 2238.68 739.948 2239.11 740.455 2239.49 741.076 2239.87 741.698 2240.24 742.542 2240.59 743.609 2240.94 744.676 2241.27 746 2241.58 747.581 2241.89 749.161 2242.17 750.803 2242.41 752.505L2242.82 752.505C2245.41 748.857 2247.38 746.189 2248.71 744.501 2250.05 742.812 2251.18 741.556 2252.1 740.732 2253.02 739.908 2253.9 739.327 2254.75 738.989 2255.6 738.651 2256.73 738.482 2258.14 738.482 2259.41 738.482 2260.45 738.644 2261.26 738.969L2259.64 746.304 2256.8 746.304C2256.64 745.169 2256.16 744.602 2255.38 744.602 2255.14 744.602 2254.88 744.643 2254.61 744.724 2254.34 744.805 2254.01 744.98 2253.62 745.25 2253.22 745.521 2252.65 746.047 2251.89 746.831 2251.14 747.615 2250.29 748.574 2249.34 749.708 2248.4 750.843 2247.42 752.032 2246.42 753.275L2243.67 756.72C2244.15 759.313 2244.61 761.556 2245.05 763.447 2245.48 765.339 2245.86 766.912 2246.2 768.169 2246.54 769.425 2246.84 770.418 2247.09 771.147 2247.35 771.877 2247.63 772.424 2247.92 772.789 2248.22 773.154 2248.52 773.41 2248.83 773.559 2249.15 773.707 2249.5 773.782 2249.91 773.782 2250.64 773.782 2251.35 773.498 2252.04 772.931 2252.73 772.363 2253.72 771.08 2255.01 769.081L2257.65 770.823C2255.76 773.633 2254.05 775.612 2252.52 776.76 2251 777.909 2249.18 778.483 2247.07 778.483 2245.91 778.483 2244.92 778.273 2244.11 777.855 2243.3 777.436 2242.6 776.767 2242.01 775.849 2241.41 774.93 2240.88 773.498 2240.43 771.553 2239.59 768.094 2239.07 765.447 2238.89 763.609L2238.48 763.609C2235.62 767.635 2233.49 770.526 2232.1 772.282 2230.71 774.038 2229.56 775.335 2228.65 776.173 2227.75 777.01 2226.87 777.598 2226.02 777.936 2225.17 778.273 2224.04 778.442 2222.63 778.442 2221.36 778.442 2220.32 778.28 2219.51 777.956L2221.13 770.621 2223.97 770.621C2224.13 771.755 2224.61 772.323 2225.39 772.323 2225.77 772.323 2226.17 772.221 2226.58 772.019 2227 771.816 2227.6 771.33 2228.39 770.56 2229.17 769.79 2230.25 768.581 2231.63 766.933 2233.01 765.284 2235.01 762.812 2237.63 759.516 2237.22 757.382 2236.8 755.328 2236.37 753.356 2235.94 751.384 2235.49 749.546 2235.03 747.844 2234.58 746.142 2234.2 745.028 2233.9 744.501 2233.6 743.974 2233.29 743.609 2232.95 743.406 2232.61 743.204 2232.18 743.102 2231.67 743.102 2231.1 743.102 2230.59 743.231 2230.13 743.487 2229.67 743.744 2229.17 744.19 2228.63 744.825 2228.09 745.46 2227.38 746.453 2226.48 747.804L2223.85 746.061C2225.55 743.494 2227.19 741.576 2228.75 740.306 2230.32 739.036 2232.17 738.401 2234.31 738.401Z" fill="#94C356" fill-rule="evenodd"/><text fill="#000000" fill-opacity="0" font-family="Arial,Arial_MSFontService,sans-serif" font-size="40.0815" x="2219.51" y="773.473">ЁЭСе</text><path d="M2279.33 756.106C2280.92 756.106 2282.4 756.275 2283.78 756.613 2285.16 756.95 2286.36 757.462 2287.37 758.147 2288.39 758.832 2289.18 759.686 2289.74 760.708 2290.31 761.731 2290.59 762.917 2290.59 764.268 2290.59 765.538 2290.41 766.66 2290.05 767.633 2289.7 768.606 2289.15 769.49 2288.4 770.284 2287.66 771.078 2286.74 771.798 2285.66 772.444 2284.58 773.089 2283.33 773.709 2281.92 774.305L2281.92 774.663C2283.25 774.901 2284.49 775.283 2285.65 775.809 2286.8 776.335 2287.81 777.001 2288.67 777.805 2289.53 778.609 2290.21 779.537 2290.71 780.59 2291.21 781.642 2291.45 782.804 2291.45 784.075 2291.45 785.663 2291.16 787.138 2290.56 788.498 2289.97 789.858 2289.07 791.034 2287.88 792.027 2286.69 793.02 2285.22 793.795 2283.47 794.351 2281.72 794.906 2279.68 795.185 2277.34 795.185 2275.49 795.185 2273.61 795.001 2271.71 794.633 2269.8 794.266 2267.99 793.785 2266.29 793.189L2266.29 786.755 2270.13 786.755C2270.45 787.748 2270.82 788.597 2271.26 789.302 2271.7 790.007 2272.21 790.583 2272.79 791.029 2273.38 791.476 2274.05 791.799 2274.82 791.997 2275.58 792.196 2276.45 792.295 2277.43 792.295 2279.99 792.295 2281.93 791.685 2283.25 790.464 2284.57 789.242 2285.23 787.391 2285.23 784.909 2285.23 782.268 2284.36 780.267 2282.62 778.907 2280.89 777.547 2278.31 776.867 2274.89 776.867L2272.27 776.867 2272.27 774.007C2274.36 773.908 2276.16 773.615 2277.68 773.129 2279.2 772.642 2280.46 772.012 2281.48 771.237 2282.49 770.463 2283.24 769.559 2283.74 768.527 2284.24 767.494 2284.48 766.392 2284.48 765.221 2284.48 763.314 2283.92 761.81 2282.79 760.708 2281.66 759.606 2280.02 759.055 2277.87 759.055 2276.07 759.055 2274.55 759.552 2273.33 760.544 2272.11 761.537 2271.17 763.017 2270.52 764.982L2266.73 764.982 2266.73 759.115C2269.08 758.122 2271.28 757.372 2273.36 756.866 2275.43 756.36 2277.43 756.106 2279.33 756.106Z" fill="#94C356" fill-rule="evenodd"/><text fill="#000000" fill-opacity="0" font-family="Arial,Arial_MSFontService,sans-serif" font-size="39.0781" x="2266.29" y="790.3">3</text><path d="M2084.78 1262.04C2085.62 1262.04 2086.35 1262.13 2086.99 1262.32 2087.62 1262.51 2088.18 1262.8 2088.67 1263.19 2089.16 1263.58 2089.59 1264.09 2089.97 1264.71 2090.35 1265.33 2090.71 1266.18 2091.06 1267.24 2091.41 1268.31 2091.74 1269.64 2092.05 1271.22 2092.37 1272.8 2092.64 1274.44 2092.89 1276.14L2093.29 1276.14C2095.88 1272.49 2097.85 1269.82 2099.19 1268.14 2100.52 1266.45 2101.65 1265.19 2102.57 1264.37 2103.49 1263.54 2104.37 1262.96 2105.23 1262.62 2106.08 1262.29 2107.2 1262.12 2108.61 1262.12 2109.88 1262.12 2110.92 1262.28 2111.73 1262.6L2110.11 1269.94 2107.27 1269.94C2107.11 1268.81 2106.64 1268.24 2105.85 1268.24 2105.61 1268.24 2105.35 1268.28 2105.08 1268.36 2104.81 1268.44 2104.48 1268.62 2104.09 1268.89 2103.7 1269.16 2103.13 1269.68 2102.37 1270.47 2101.61 1271.25 2100.76 1272.21 2099.82 1273.34 2098.87 1274.48 2097.9 1275.67 2096.9 1276.91L2094.14 1280.36C2094.63 1282.95 2095.09 1285.19 2095.52 1287.08 2095.95 1288.97 2096.34 1290.55 2096.67 1291.8 2097.01 1293.06 2097.31 1294.05 2097.57 1294.78 2097.82 1295.51 2098.1 1296.06 2098.4 1296.42 2098.69 1296.79 2099 1297.05 2099.31 1297.19 2099.62 1297.34 2099.98 1297.42 2100.38 1297.42 2101.11 1297.42 2101.82 1297.13 2102.51 1296.57 2103.2 1296 2104.19 1294.72 2105.49 1292.72L2108.12 1294.46C2106.23 1297.27 2104.52 1299.25 2103 1300.4 2101.47 1301.54 2099.65 1302.12 2097.55 1302.12 2096.38 1302.12 2095.4 1301.91 2094.59 1301.49 2093.78 1301.07 2093.07 1300.4 2092.48 1299.48 2091.89 1298.57 2091.36 1297.13 2090.9 1295.19 2090.06 1291.73 2089.55 1289.08 2089.36 1287.24L2088.95 1287.24C2086.09 1291.27 2083.96 1294.16 2082.57 1295.92 2081.18 1297.67 2080.03 1298.97 2079.13 1299.81 2078.22 1300.65 2077.34 1301.23 2076.49 1301.57 2075.64 1301.91 2074.51 1302.08 2073.11 1302.08 2071.84 1302.08 2070.8 1301.92 2069.99 1301.59L2071.61 1294.26 2074.45 1294.26C2074.61 1295.39 2075.08 1295.96 2075.86 1295.96 2076.24 1295.96 2076.64 1295.86 2077.06 1295.65 2077.48 1295.45 2078.08 1294.97 2078.86 1294.2 2079.65 1293.43 2080.73 1292.22 2082.1 1290.57 2083.48 1288.92 2085.48 1286.45 2088.1 1283.15 2087.7 1281.02 2087.28 1278.96 2086.85 1276.99 2086.41 1275.02 2085.97 1273.18 2085.51 1271.48 2085.05 1269.78 2084.67 1268.66 2084.37 1268.14 2084.08 1267.61 2083.76 1267.24 2083.42 1267.04 2083.08 1266.84 2082.66 1266.74 2082.15 1266.74 2081.58 1266.74 2081.06 1266.87 2080.61 1267.12 2080.15 1267.38 2079.65 1267.83 2079.11 1268.46 2078.57 1269.1 2077.85 1270.09 2076.96 1271.44L2074.32 1269.7C2076.03 1267.13 2077.66 1265.21 2079.23 1263.94 2080.79 1262.67 2082.65 1262.04 2084.78 1262.04Z" fill="#00305D" fill-rule="evenodd"/><text fill="#000000" fill-opacity="0" font-family="Arial,Arial_MSFontService,sans-serif" font-size="40.0815" x="2069.99" y="1297.11">ЁЭСе</text><path d="M2117.68 1280.31 2143.6 1280.31 2143.6 1281.74 2126.11 1318.46 2121.56 1318.46 2121.56 1317.12 2137.58 1285.97 2137.58 1285.52 2124.95 1285.52C2124.08 1285.52 2123.4 1285.59 2122.91 1285.73 2122.42 1285.87 2121.99 1286.07 2121.62 1286.32 2121.46 1286.46 2121.32 1286.61 2121.2 1286.76 2121.08 1286.91 2120.96 1287.1 2120.84 1287.35 2120.72 1287.6 2120.6 1287.93 2120.47 1288.34 2120.34 1288.74 2120.19 1289.26 2120.01 1289.9L2117.03 1289.9Z" fill="#00305D" fill-rule="evenodd"/><text fill="#000000" fill-opacity="0" font-family="Arial,Arial_MSFontService,sans-serif" font-size="38.1548" x="2117.03" y="1313.69">7</text><path d="M2277.42 1982.06 3126.02 1982.06 3126.02 1988.94 2277.42 1988.94ZM2282 1999.25 2254.5 1985.5 2282 1971.75ZM3121.44 1971.75 3148.94 1985.5 3121.44 1999.25Z" fill="#00305D"/><path d="M2254.5 1721.5 2254.5 1985.62" stroke="#00305D" stroke-width="6.875" stroke-miterlimit="8" stroke-dasharray="27.5 20.625" fill="none" fill-rule="evenodd"/><path d="M3149.5 1721.5 3149.5 1985.62" stroke="#00305D" stroke-width="6.875" stroke-miterlimit="8" stroke-dasharray="27.5 20.625" fill="none" fill-rule="evenodd"/></g></svg>