<svg width="1353" height="631" xmlns="http://www.w3.org/2000/svg" xmlns:xlink="http://www.w3.org/1999/xlink" overflow="hidden"><defs><clipPath id="clip0"><rect x="314" y="517" width="1353" height="631"/></clipPath></defs><g clip-path="url(#clip0)" transform="translate(-314 -517)"><rect x="362" y="565" width="628" height="525" stroke="#002042" stroke-width="10.3125" stroke-miterlimit="8" fill="#00305D"/><path d="M316.5 1099C316.5 1073.32 337.095 1052.5 362.5 1052.5 387.905 1052.5 408.5 1073.32 408.5 1099 408.5 1124.68 387.905 1145.5 362.5 1145.5 337.095 1145.5 316.5 1124.68 316.5 1099Z" stroke="#6B8F3D" stroke-width="4.58333" stroke-miterlimit="8" fill="#94C356" fill-rule="evenodd"/><path d="M943.5 1099C943.5 1073.32 964.319 1052.5 990 1052.5 1015.68 1052.5 1036.5 1073.32 1036.5 1099 1036.5 1124.68 1015.68 1145.5 990 1145.5 964.319 1145.5 943.5 1124.68 943.5 1099Z" stroke="#6B8F3D" stroke-width="4.58333" stroke-miterlimit="8" fill="#94C356" fill-rule="evenodd"/><path d="M316.5 566C316.5 540.319 337.095 519.5 362.5 519.5 387.905 519.5 408.5 540.319 408.5 566 408.5 591.681 387.905 612.5 362.5 612.5 337.095 612.5 316.5 591.681 316.5 566Z" stroke="#6B8F3D" stroke-width="4.58333" stroke-miterlimit="8" fill="#94C356" fill-rule="evenodd"/><path d="M943.5 566C943.5 540.319 964.319 519.5 990 519.5 1015.68 519.5 1036.5 540.319 1036.5 566 1036.5 591.681 1015.68 612.5 990 612.5 964.319 612.5 943.5 591.681 943.5 566Z" stroke="#6B8F3D" stroke-width="4.58333" stroke-miterlimit="8" fill="#94C356" fill-rule="evenodd"/><path d="M630.5 1099C630.5 1073.32 651.095 1052.5 676.5 1052.5 701.905 1052.5 722.5 1073.32 722.5 1099 722.5 1124.68 701.905 1145.5 676.5 1145.5 651.095 1145.5 630.5 1124.68 630.5 1099Z" stroke="#FFFFFF" stroke-width="4.58333" stroke-miterlimit="8" fill="#00305D" fill-rule="evenodd"/><path d="M943.5 832C943.5 806.319 964.319 785.5 990 785.5 1015.68 785.5 1036.5 806.319 1036.5 832 1036.5 857.681 1015.68 878.5 990 878.5 964.319 878.5 943.5 857.681 943.5 832Z" stroke="#FFFFFF" stroke-width="4.58333" stroke-miterlimit="8" fill="#00305D" fill-rule="evenodd"/><path d="M630.5 566C630.5 540.319 651.095 519.5 676.5 519.5 701.905 519.5 722.5 540.319 722.5 566 722.5 591.681 701.905 612.5 676.5 612.5 651.095 612.5 630.5 591.681 630.5 566Z" stroke="#FFFFFF" stroke-width="4.58333" stroke-miterlimit="8" fill="#00305D" fill-rule="evenodd"/><path d="M316.5 832C316.5 806.319 337.095 785.5 362.5 785.5 387.905 785.5 408.5 806.319 408.5 832 408.5 857.681 387.905 878.5 362.5 878.5 337.095 878.5 316.5 857.681 316.5 832Z" stroke="#FFFFFF" stroke-width="4.58333" stroke-miterlimit="8" fill="#00305D" fill-rule="evenodd"/><rect x="990" y="565" width="628" height="525" stroke="#002042" stroke-width="10.3125" stroke-miterlimit="8" fill="#65B32E"/><path d="M943.5 1099C943.5 1073.32 964.319 1052.5 990 1052.5 1015.68 1052.5 1036.5 1073.32 1036.5 1099 1036.5 1124.68 1015.68 1145.5 990 1145.5 964.319 1145.5 943.5 1124.68 943.5 1099Z" stroke="#6B8F3D" stroke-width="4.58333" stroke-miterlimit="8" fill="#94C356" fill-rule="evenodd"/><path d="M1571.5 1099C1571.5 1073.32 1592.32 1052.5 1618 1052.5 1643.68 1052.5 1664.5 1073.32 1664.5 1099 1664.5 1124.68 1643.68 1145.5 1618 1145.5 1592.32 1145.5 1571.5 1124.68 1571.5 1099Z" stroke="#6B8F3D" stroke-width="4.58333" stroke-miterlimit="8" fill="#94C356" fill-rule="evenodd"/><path d="M943.5 566C943.5 540.319 964.319 519.5 990 519.5 1015.68 519.5 1036.5 540.319 1036.5 566 1036.5 591.681 1015.68 612.5 990 612.5 964.319 612.5 943.5 591.681 943.5 566Z" stroke="#6B8F3D" stroke-width="4.58333" stroke-miterlimit="8" fill="#94C356" fill-rule="evenodd"/><path d="M1571.5 566C1571.5 540.319 1592.32 519.5 1618 519.5 1643.68 519.5 1664.5 540.319 1664.5 566 1664.5 591.681 1643.68 612.5 1618 612.5 1592.32 612.5 1571.5 591.681 1571.5 566Z" stroke="#6B8F3D" stroke-width="4.58333" stroke-miterlimit="8" fill="#94C356" fill-rule="evenodd"/><path d="M1257.5 1099C1257.5 1073.32 1278.32 1052.5 1304 1052.5 1329.68 1052.5 1350.5 1073.32 1350.5 1099 1350.5 1124.68 1329.68 1145.5 1304 1145.5 1278.32 1145.5 1257.5 1124.68 1257.5 1099Z" stroke="#FFFFFF" stroke-width="4.58333" stroke-miterlimit="8" fill="#00305D" fill-rule="evenodd"/><path d="M1571.5 832C1571.5 806.319 1592.32 785.5 1618 785.5 1643.68 785.5 1664.5 806.319 1664.5 832 1664.5 857.681 1643.68 878.5 1618 878.5 1592.32 878.5 1571.5 857.681 1571.5 832Z" stroke="#FFFFFF" stroke-width="4.58333" stroke-miterlimit="8" fill="#00305D" fill-rule="evenodd"/><path d="M1257.5 566C1257.5 540.319 1278.32 519.5 1304 519.5 1329.68 519.5 1350.5 540.319 1350.5 566 1350.5 591.681 1329.68 612.5 1304 612.5 1278.32 612.5 1257.5 591.681 1257.5 566Z" stroke="#FFFFFF" stroke-width="4.58333" stroke-miterlimit="8" fill="#00305D" fill-rule="evenodd"/><path d="M943.5 832C943.5 806.319 964.319 785.5 990 785.5 1015.68 785.5 1036.5 806.319 1036.5 832 1036.5 857.681 1015.68 878.5 990 878.5 964.319 878.5 943.5 857.681 943.5 832Z" stroke="#FFFFFF" stroke-width="4.58333" stroke-miterlimit="8" fill="#00305D" fill-rule="evenodd"/><text fill="#FFFFFF" font-family="Open Sans,Open Sans_MSFontService,sans-serif" font-weight="400" font-size="74" transform="matrix(1 0 0 1 560.876 871)">Elem<tspan font-size="74" x="190.781" y="0">0</tspan><tspan font-size="74" x="650.518" y="0">Elem</tspan><tspan font-size="74" x="841.299" y="0">1</tspan></text></g></svg>