<svg width="1353" height="1165" xmlns="http://www.w3.org/2000/svg" xmlns:xlink="http://www.w3.org/1999/xlink" overflow="hidden"><defs><clipPath id="clip0"><rect x="2420" y="656" width="1353" height="1165"/></clipPath></defs><g clip-path="url(#clip0)" transform="translate(-2420 -656)"><rect x="2468" y="705" width="628" height="525" stroke="#002042" stroke-width="10.3125" stroke-miterlimit="8" fill="#00305D"/><path d="M2422.5 1239C2422.5 1213.32 2443.32 1192.5 2469 1192.5 2494.68 1192.5 2515.5 1213.32 2515.5 1239 2515.5 1264.68 2494.68 1285.5 2469 1285.5 2443.32 1285.5 2422.5 1264.68 2422.5 1239Z" stroke="#6B8F3D" stroke-width="4.58333" stroke-miterlimit="8" fill="#94C356" fill-rule="evenodd"/><path d="M3050.5 1239C3050.5 1213.32 3071.32 1192.5 3097 1192.5 3122.68 1192.5 3143.5 1213.32 3143.5 1239 3143.5 1264.68 3122.68 1285.5 3097 1285.5 3071.32 1285.5 3050.5 1264.68 3050.5 1239Z" stroke="#6B8F3D" stroke-width="4.58333" stroke-miterlimit="8" fill="#94C356" fill-rule="evenodd"/><path d="M2422.5 705C2422.5 679.319 2443.32 658.5 2469 658.5 2494.68 658.5 2515.5 679.319 2515.5 705 2515.5 730.681 2494.68 751.5 2469 751.5 2443.32 751.5 2422.5 730.681 2422.5 705Z" stroke="#6B8F3D" stroke-width="4.58333" stroke-miterlimit="8" fill="#94C356" fill-rule="evenodd"/><path d="M3050.5 705C3050.5 679.319 3071.32 658.5 3097 658.5 3122.68 658.5 3143.5 679.319 3143.5 705 3143.5 730.681 3122.68 751.5 3097 751.5 3071.32 751.5 3050.5 730.681 3050.5 705Z" stroke="#6B8F3D" stroke-width="4.58333" stroke-miterlimit="8" fill="#94C356" fill-rule="evenodd"/><path d="M2736.5 1239C2736.5 1213.32 2757.32 1192.5 2783 1192.5 2808.68 1192.5 2829.5 1213.32 2829.5 1239 2829.5 1264.68 2808.68 1285.5 2783 1285.5 2757.32 1285.5 2736.5 1264.68 2736.5 1239Z" stroke="#FFFFFF" stroke-width="4.58333" stroke-miterlimit="8" fill="#00305D" fill-rule="evenodd"/><path d="M3050.5 972C3050.5 946.319 3071.32 925.5 3097 925.5 3122.68 925.5 3143.5 946.319 3143.5 972 3143.5 997.681 3122.68 1018.5 3097 1018.5 3071.32 1018.5 3050.5 997.681 3050.5 972Z" stroke="#FFFFFF" stroke-width="4.58333" stroke-miterlimit="8" fill="#00305D" fill-rule="evenodd"/><path d="M2736.5 705C2736.5 679.319 2757.32 658.5 2783 658.5 2808.68 658.5 2829.5 679.319 2829.5 705 2829.5 730.681 2808.68 751.5 2783 751.5 2757.32 751.5 2736.5 730.681 2736.5 705Z" stroke="#FFFFFF" stroke-width="4.58333" stroke-miterlimit="8" fill="#00305D" fill-rule="evenodd"/><path d="M2422.5 972C2422.5 946.319 2443.32 925.5 2469 925.5 2494.68 925.5 2515.5 946.319 2515.5 972 2515.5 997.681 2494.68 1018.5 2469 1018.5 2443.32 1018.5 2422.5 997.681 2422.5 972Z" stroke="#FFFFFF" stroke-width="4.58333" stroke-miterlimit="8" fill="#00305D" fill-rule="evenodd"/><rect x="3096" y="705" width="628" height="525" stroke="#002042" stroke-width="10.3125" stroke-miterlimit="8" fill="#65B32E"/><path d="M3050.5 1239C3050.5 1213.32 3071.32 1192.5 3097 1192.5 3122.68 1192.5 3143.5 1213.32 3143.5 1239 3143.5 1264.68 3122.68 1285.5 3097 1285.5 3071.32 1285.5 3050.5 1264.68 3050.5 1239Z" stroke="#6B8F3D" stroke-width="4.58333" stroke-miterlimit="8" fill="#94C356" fill-rule="evenodd"/><path d="M3678.5 1239C3678.5 1213.32 3699.09 1192.5 3724.5 1192.5 3749.91 1192.5 3770.5 1213.32 3770.5 1239 3770.5 1264.68 3749.91 1285.5 3724.5 1285.5 3699.09 1285.5 3678.5 1264.68 3678.5 1239Z" stroke="#6B8F3D" stroke-width="4.58333" stroke-miterlimit="8" fill="#94C356" fill-rule="evenodd"/><path d="M3050.5 705C3050.5 679.319 3071.32 658.5 3097 658.5 3122.68 658.5 3143.5 679.319 3143.5 705 3143.5 730.681 3122.68 751.5 3097 751.5 3071.32 751.5 3050.5 730.681 3050.5 705Z" stroke="#6B8F3D" stroke-width="4.58333" stroke-miterlimit="8" fill="#94C356" fill-rule="evenodd"/><path d="M3678.5 705C3678.5 679.319 3699.09 658.5 3724.5 658.5 3749.91 658.5 3770.5 679.319 3770.5 705 3770.5 730.681 3749.91 751.5 3724.5 751.5 3699.09 751.5 3678.5 730.681 3678.5 705Z" stroke="#6B8F3D" stroke-width="4.58333" stroke-miterlimit="8" fill="#94C356" fill-rule="evenodd"/><path d="M3364.5 1239C3364.5 1213.32 3385.32 1192.5 3411 1192.5 3436.68 1192.5 3457.5 1213.32 3457.5 1239 3457.5 1264.68 3436.68 1285.5 3411 1285.5 3385.32 1285.5 3364.5 1264.68 3364.5 1239Z" stroke="#FFFFFF" stroke-width="4.58333" stroke-miterlimit="8" fill="#00305D" fill-rule="evenodd"/><path d="M3678.5 972C3678.5 946.319 3699.09 925.5 3724.5 925.5 3749.91 925.5 3770.5 946.319 3770.5 972 3770.5 997.681 3749.91 1018.5 3724.5 1018.5 3699.09 1018.5 3678.5 997.681 3678.5 972Z" stroke="#FFFFFF" stroke-width="4.58333" stroke-miterlimit="8" fill="#00305D" fill-rule="evenodd"/><path d="M3364.5 705C3364.5 679.319 3385.32 658.5 3411 658.5 3436.68 658.5 3457.5 679.319 3457.5 705 3457.5 730.681 3436.68 751.5 3411 751.5 3385.32 751.5 3364.5 730.681 3364.5 705Z" stroke="#FFFFFF" stroke-width="4.58333" stroke-miterlimit="8" fill="#00305D" fill-rule="evenodd"/><path d="M3050.5 972C3050.5 946.319 3071.32 925.5 3097 925.5 3122.68 925.5 3143.5 946.319 3143.5 972 3143.5 997.681 3122.68 1018.5 3097 1018.5 3071.32 1018.5 3050.5 997.681 3050.5 972Z" stroke="#FFFFFF" stroke-width="4.58333" stroke-miterlimit="8" fill="#00305D" fill-rule="evenodd"/><text fill="#FFFFFF" font-family="Open Sans,Open Sans_MSFontService,sans-serif" font-weight="400" font-size="74" transform="matrix(1 0 0 1 2667.35 1011)">Elem<tspan font-size="74" x="190.781" y="0">0</tspan><tspan font-size="74" x="650.518" y="0">Elem</tspan><tspan font-size="74" x="841.299" y="0">4</tspan></text><rect x="2468" y="1238" width="628" height="526" stroke="#002042" stroke-width="10.3125" stroke-miterlimit="8" fill="#65B32E"/><path d="M2422.5 1772C2422.5 1746.32 2443.32 1725.5 2469 1725.5 2494.68 1725.5 2515.5 1746.32 2515.5 1772 2515.5 1797.68 2494.68 1818.5 2469 1818.5 2443.32 1818.5 2422.5 1797.68 2422.5 1772Z" stroke="#6B8F3D" stroke-width="4.58333" stroke-miterlimit="8" fill="#94C356" fill-rule="evenodd"/><path d="M3050.5 1772C3050.5 1746.32 3071.32 1725.5 3097 1725.5 3122.68 1725.5 3143.5 1746.32 3143.5 1772 3143.5 1797.68 3122.68 1818.5 3097 1818.5 3071.32 1818.5 3050.5 1797.68 3050.5 1772Z" stroke="#6B8F3D" stroke-width="4.58333" stroke-miterlimit="8" fill="#94C356" fill-rule="evenodd"/><path d="M2422.5 1239C2422.5 1213.32 2443.32 1192.5 2469 1192.5 2494.68 1192.5 2515.5 1213.32 2515.5 1239 2515.5 1264.68 2494.68 1285.5 2469 1285.5 2443.32 1285.5 2422.5 1264.68 2422.5 1239Z" stroke="#6B8F3D" stroke-width="4.58333" stroke-miterlimit="8" fill="#94C356" fill-rule="evenodd"/><path d="M3050.5 1239C3050.5 1213.32 3071.32 1192.5 3097 1192.5 3122.68 1192.5 3143.5 1213.32 3143.5 1239 3143.5 1264.68 3122.68 1285.5 3097 1285.5 3071.32 1285.5 3050.5 1264.68 3050.5 1239Z" stroke="#6B8F3D" stroke-width="4.58333" stroke-miterlimit="8" fill="#94C356" fill-rule="evenodd"/><path d="M2736.5 1772C2736.5 1746.32 2757.32 1725.5 2783 1725.5 2808.68 1725.5 2829.5 1746.32 2829.5 1772 2829.5 1797.68 2808.68 1818.5 2783 1818.5 2757.32 1818.5 2736.5 1797.68 2736.5 1772Z" stroke="#FFFFFF" stroke-width="4.58333" stroke-miterlimit="8" fill="#00305D" fill-rule="evenodd"/><path d="M3050.5 1506C3050.5 1480.32 3071.32 1459.5 3097 1459.5 3122.68 1459.5 3143.5 1480.32 3143.5 1506 3143.5 1531.68 3122.68 1552.5 3097 1552.5 3071.32 1552.5 3050.5 1531.68 3050.5 1506Z" stroke="#FFFFFF" stroke-width="4.58333" stroke-miterlimit="8" fill="#00305D" fill-rule="evenodd"/><path d="M2736.5 1239C2736.5 1213.32 2757.32 1192.5 2783 1192.5 2808.68 1192.5 2829.5 1213.32 2829.5 1239 2829.5 1264.68 2808.68 1285.5 2783 1285.5 2757.32 1285.5 2736.5 1264.68 2736.5 1239Z" stroke="#FFFFFF" stroke-width="4.58333" stroke-miterlimit="8" fill="#00305D" fill-rule="evenodd"/><path d="M2422.5 1506C2422.5 1480.32 2443.32 1459.5 2469 1459.5 2494.68 1459.5 2515.5 1480.32 2515.5 1506 2515.5 1531.68 2494.68 1552.5 2469 1552.5 2443.32 1552.5 2422.5 1531.68 2422.5 1506Z" stroke="#FFFFFF" stroke-width="4.58333" stroke-miterlimit="8" fill="#00305D" fill-rule="evenodd"/><rect x="3096" y="1238" width="628" height="526" stroke="#002042" stroke-width="10.3125" stroke-miterlimit="8" fill="#00305D"/><path d="M3050.5 1772C3050.5 1746.32 3071.32 1725.5 3097 1725.5 3122.68 1725.5 3143.5 1746.32 3143.5 1772 3143.5 1797.68 3122.68 1818.5 3097 1818.5 3071.32 1818.5 3050.5 1797.68 3050.5 1772Z" stroke="#6B8F3D" stroke-width="4.58333" stroke-miterlimit="8" fill="#94C356" fill-rule="evenodd"/><path d="M3678.5 1772C3678.5 1746.32 3699.09 1725.5 3724.5 1725.5 3749.91 1725.5 3770.5 1746.32 3770.5 1772 3770.5 1797.68 3749.91 1818.5 3724.5 1818.5 3699.09 1818.5 3678.5 1797.68 3678.5 1772Z" stroke="#6B8F3D" stroke-width="4.58333" stroke-miterlimit="8" fill="#94C356" fill-rule="evenodd"/><path d="M3050.5 1239C3050.5 1213.32 3071.32 1192.5 3097 1192.5 3122.68 1192.5 3143.5 1213.32 3143.5 1239 3143.5 1264.68 3122.68 1285.5 3097 1285.5 3071.32 1285.5 3050.5 1264.68 3050.5 1239Z" stroke="#6B8F3D" stroke-width="4.58333" stroke-miterlimit="8" fill="#94C356" fill-rule="evenodd"/><path d="M3678.5 1239C3678.5 1213.32 3699.09 1192.5 3724.5 1192.5 3749.91 1192.5 3770.5 1213.32 3770.5 1239 3770.5 1264.68 3749.91 1285.5 3724.5 1285.5 3699.09 1285.5 3678.5 1264.68 3678.5 1239Z" stroke="#6B8F3D" stroke-width="4.58333" stroke-miterlimit="8" fill="#94C356" fill-rule="evenodd"/><path d="M3364.5 1772C3364.5 1746.32 3385.32 1725.5 3411 1725.5 3436.68 1725.5 3457.5 1746.32 3457.5 1772 3457.5 1797.68 3436.68 1818.5 3411 1818.5 3385.32 1818.5 3364.5 1797.68 3364.5 1772Z" stroke="#FFFFFF" stroke-width="4.58333" stroke-miterlimit="8" fill="#00305D" fill-rule="evenodd"/><path d="M3678.5 1506C3678.5 1480.32 3699.09 1459.5 3724.5 1459.5 3749.91 1459.5 3770.5 1480.32 3770.5 1506 3770.5 1531.68 3749.91 1552.5 3724.5 1552.5 3699.09 1552.5 3678.5 1531.68 3678.5 1506Z" stroke="#FFFFFF" stroke-width="4.58333" stroke-miterlimit="8" fill="#00305D" fill-rule="evenodd"/><path d="M3364.5 1239C3364.5 1213.32 3385.32 1192.5 3411 1192.5 3436.68 1192.5 3457.5 1213.32 3457.5 1239 3457.5 1264.68 3436.68 1285.5 3411 1285.5 3385.32 1285.5 3364.5 1264.68 3364.5 1239Z" stroke="#FFFFFF" stroke-width="4.58333" stroke-miterlimit="8" fill="#00305D" fill-rule="evenodd"/><path d="M3050.5 1506C3050.5 1480.32 3071.32 1459.5 3097 1459.5 3122.68 1459.5 3143.5 1480.32 3143.5 1506 3143.5 1531.68 3122.68 1552.5 3097 1552.5 3071.32 1552.5 3050.5 1531.68 3050.5 1506Z" stroke="#FFFFFF" stroke-width="4.58333" stroke-miterlimit="8" fill="#00305D" fill-rule="evenodd"/><text fill="#FFFFFF" font-family="Open Sans,Open Sans_MSFontService,sans-serif" font-weight="400" font-size="74" transform="matrix(1 0 0 1 2667.35 1544)">Elem<tspan font-size="74" x="190.781" y="0">3</tspan><tspan font-size="74" x="650.518" y="0">Elem</tspan><tspan font-size="74" x="841.299" y="0">99</tspan></text></g></svg>