<svg width="2485" height="1624" xmlns="http://www.w3.org/2000/svg" xmlns:xlink="http://www.w3.org/1999/xlink" overflow="hidden"><defs><clipPath id="clip0"><rect x="1414" y="444" width="2485" height="1624"/></clipPath></defs><g clip-path="url(#clip0)" transform="translate(-1414 -444)"><path d="M1416.46 464.869 1662.09 464.869 1662.09 662.869 1416.46 662.869Z" fill="#00305D" fill-rule="evenodd"/><path d="M1662.09 464.869 1907.73 464.869 1907.73 662.869 1662.09 662.869Z" fill="#00305D" fill-rule="evenodd"/><path d="M1907.73 464.869 2153.36 464.869 2153.36 662.869 1907.73 662.869Z" fill="#00305D" fill-rule="evenodd"/><path d="M2153.36 464.869 2399 464.869 2399 662.869 2153.36 662.869Z" fill="#00305D" fill-rule="evenodd"/><path d="M2399 464.869 2644.63 464.869 2644.63 662.869 2399 662.869Z" fill="#00305D" fill-rule="evenodd"/><path d="M2644.63 464.869 2890.26 464.869 2890.26 662.869 2644.63 662.869Z" fill="#00305D" fill-rule="evenodd"/><path d="M2890.26 464.869 3135.9 464.869 3135.9 662.869 2890.26 662.869Z" fill="#00305D" fill-rule="evenodd"/><path d="M3135.9 464.869 3381.53 464.869 3381.53 662.869 3135.9 662.869Z" fill="#00305D" fill-rule="evenodd"/><path d="M3381.53 464.869 3627.17 464.869 3627.17 662.869 3381.53 662.869Z" fill="#00305D" fill-rule="evenodd"/><path d="M3627.17 464.869 3872.8 464.869 3872.8 662.869 3627.17 662.869Z" fill="#00305D" fill-rule="evenodd"/><path d="M1416.46 662.869 1662.09 662.869 1662.09 860.869 1416.46 860.869Z" fill="#00305D" fill-rule="evenodd"/><path d="M1662.09 662.869 1907.73 662.869 1907.73 860.869 1662.09 860.869Z" fill="#00305D" fill-rule="evenodd"/><path d="M1907.73 662.869 2153.36 662.869 2153.36 860.869 1907.73 860.869Z" fill="#00305D" fill-rule="evenodd"/><path d="M2153.36 662.869 2399 662.869 2399 860.869 2153.36 860.869Z" fill="#00305D" fill-rule="evenodd"/><path d="M2399 662.869 2644.63 662.869 2644.63 860.869 2399 860.869Z" fill="#00305D" fill-rule="evenodd"/><path d="M2644.63 662.869 2890.26 662.869 2890.26 860.869 2644.63 860.869Z" fill="#00305D" fill-rule="evenodd"/><path d="M2890.26 662.869 3135.9 662.869 3135.9 860.869 2890.26 860.869Z" fill="#00305D" fill-rule="evenodd"/><path d="M3135.9 662.869 3381.53 662.869 3381.53 860.869 3135.9 860.869Z" fill="#00305D" fill-rule="evenodd"/><path d="M3381.53 662.869 3627.17 662.869 3627.17 860.869 3381.53 860.869Z" fill="#00305D" fill-rule="evenodd"/><path d="M3627.17 662.869 3872.8 662.869 3872.8 860.869 3627.17 860.869Z" fill="#00305D" fill-rule="evenodd"/><path d="M1416.46 860.869 1662.09 860.869 1662.09 1058.87 1416.46 1058.87Z" fill="#00305D" fill-rule="evenodd"/><path d="M1662.09 860.869 1907.73 860.869 1907.73 1058.87 1662.09 1058.87Z" fill="#00305D" fill-rule="evenodd"/><path d="M1907.73 860.869 2153.36 860.869 2153.36 1058.87 1907.73 1058.87Z" fill="#00305D" fill-rule="evenodd"/><path d="M2153.36 860.869 2399 860.869 2399 1058.87 2153.36 1058.87Z" fill="#00305D" fill-rule="evenodd"/><path d="M2399 860.869 2644.63 860.869 2644.63 1058.87 2399 1058.87Z" fill="#00305D" fill-rule="evenodd"/><path d="M2644.63 860.869 2890.26 860.869 2890.26 1058.87 2644.63 1058.87Z" fill="#00305D" fill-rule="evenodd"/><path d="M2890.26 860.869 3135.9 860.869 3135.9 1058.87 2890.26 1058.87Z" fill="#00305D" fill-rule="evenodd"/><path d="M3135.9 860.869 3381.53 860.869 3381.53 1058.87 3135.9 1058.87Z" fill="#00305D" fill-rule="evenodd"/><path d="M3381.53 860.869 3627.17 860.869 3627.17 1058.87 3381.53 1058.87Z" fill="#00305D" fill-rule="evenodd"/><path d="M3627.17 860.869 3872.8 860.869 3872.8 1058.87 3627.17 1058.87Z" fill="#00305D" fill-rule="evenodd"/><path d="M1416.46 1058.87 1662.09 1058.87 1662.09 1256.87 1416.46 1256.87Z" fill="#00305D" fill-rule="evenodd"/><path d="M1662.09 1058.87 1907.73 1058.87 1907.73 1256.87 1662.09 1256.87Z" fill="#00305D" fill-rule="evenodd"/><path d="M1907.73 1058.87 2153.36 1058.87 2153.36 1256.87 1907.73 1256.87Z" fill="#00305D" fill-rule="evenodd"/><path d="M2153.36 1058.87 2399 1058.87 2399 1256.87 2153.36 1256.87Z" fill="#00305D" fill-rule="evenodd"/><path d="M2399 1058.87 2644.63 1058.87 2644.63 1256.87 2399 1256.87Z" fill="#00305D" fill-rule="evenodd"/><path d="M2644.63 1058.87 2890.26 1058.87 2890.26 1256.87 2644.63 1256.87Z" fill="#00305D" fill-rule="evenodd"/><path d="M2890.26 1058.87 3135.9 1058.87 3135.9 1256.87 2890.26 1256.87Z" fill="#00305D" fill-rule="evenodd"/><path d="M3135.9 1058.87 3381.53 1058.87 3381.53 1256.87 3135.9 1256.87Z" fill="#00305D" fill-rule="evenodd"/><path d="M3381.53 1058.87 3627.17 1058.87 3627.17 1256.87 3381.53 1256.87Z" fill="#00305D" fill-rule="evenodd"/><path d="M3627.17 1058.87 3872.8 1058.87 3872.8 1256.87 3627.17 1256.87Z" fill="#00305D" fill-rule="evenodd"/><path d="M1416.46 1256.87 1662.09 1256.87 1662.09 1454.87 1416.46 1454.87Z" fill="#00305D" fill-rule="evenodd"/><path d="M1662.09 1256.87 1907.73 1256.87 1907.73 1454.87 1662.09 1454.87Z" fill="#00305D" fill-rule="evenodd"/><path d="M1907.73 1256.87 2153.36 1256.87 2153.36 1454.87 1907.73 1454.87Z" fill="#00305D" fill-rule="evenodd"/><path d="M2153.36 1256.87 2399 1256.87 2399 1454.87 2153.36 1454.87Z" fill="#00305D" fill-rule="evenodd"/><path d="M2399 1256.87 2644.63 1256.87 2644.63 1454.87 2399 1454.87Z" fill="#00305D" fill-rule="evenodd"/><path d="M2644.63 1256.87 2890.26 1256.87 2890.26 1454.87 2644.63 1454.87Z" fill="#00305D" fill-rule="evenodd"/><path d="M2890.26 1256.87 3135.9 1256.87 3135.9 1454.87 2890.26 1454.87Z" fill="#00305D" fill-rule="evenodd"/><path d="M3135.9 1256.87 3381.53 1256.87 3381.53 1454.87 3135.9 1454.87Z" fill="#00305D" fill-rule="evenodd"/><path d="M3381.53 1256.87 3627.17 1256.87 3627.17 1454.87 3381.53 1454.87Z" fill="#00305D" fill-rule="evenodd"/><path d="M3627.17 1256.87 3872.8 1256.87 3872.8 1454.87 3627.17 1454.87Z" fill="#00305D" fill-rule="evenodd"/><path d="M1416.46 1454.87 1662.09 1454.87 1662.09 1652.87 1416.46 1652.87Z" fill="#00305D" fill-rule="evenodd"/><path d="M1662.09 1454.87 1907.73 1454.87 1907.73 1652.87 1662.09 1652.87Z" fill="#00305D" fill-rule="evenodd"/><path d="M1907.73 1454.87 2153.36 1454.87 2153.36 1652.87 1907.73 1652.87Z" fill="#00305D" fill-rule="evenodd"/><path d="M2153.36 1454.87 2399 1454.87 2399 1652.87 2153.36 1652.87Z" fill="#00305D" fill-rule="evenodd"/><path d="M2399 1454.87 2644.63 1454.87 2644.63 1652.87 2399 1652.87Z" fill="#00305D" fill-rule="evenodd"/><path d="M2644.63 1454.87 2890.26 1454.87 2890.26 1652.87 2644.63 1652.87Z" fill="#00305D" fill-rule="evenodd"/><path d="M2890.26 1454.87 3135.9 1454.87 3135.9 1652.87 2890.26 1652.87Z" fill="#00305D" fill-rule="evenodd"/><path d="M3135.9 1454.87 3381.53 1454.87 3381.53 1652.87 3135.9 1652.87Z" fill="#00305D" fill-rule="evenodd"/><path d="M3381.53 1454.87 3627.17 1454.87 3627.17 1652.87 3381.53 1652.87Z" fill="#00305D" fill-rule="evenodd"/><path d="M3627.17 1454.87 3872.8 1454.87 3872.8 1652.87 3627.17 1652.87Z" fill="#00305D" fill-rule="evenodd"/><path d="M1416.46 1652.87 1662.09 1652.87 1662.09 1850.87 1416.46 1850.87Z" fill="#00305D" fill-rule="evenodd"/><path d="M1662.09 1652.87 1907.73 1652.87 1907.73 1850.87 1662.09 1850.87Z" fill="#00305D" fill-rule="evenodd"/><path d="M1907.73 1652.87 2153.36 1652.87 2153.36 1850.87 1907.73 1850.87Z" fill="#00305D" fill-rule="evenodd"/><path d="M2153.36 1652.87 2399 1652.87 2399 1850.87 2153.36 1850.87Z" fill="#00305D" fill-rule="evenodd"/><path d="M2399 1652.87 2644.63 1652.87 2644.63 1850.87 2399 1850.87Z" fill="#00305D" fill-rule="evenodd"/><path d="M2644.63 1652.87 2890.26 1652.87 2890.26 1850.87 2644.63 1850.87Z" fill="#00305D" fill-rule="evenodd"/><path d="M2890.26 1652.87 3135.9 1652.87 3135.9 1850.87 2890.26 1850.87Z" fill="#00305D" fill-rule="evenodd"/><path d="M3135.9 1652.87 3381.53 1652.87 3381.53 1850.87 3135.9 1850.87Z" fill="#00305D" fill-rule="evenodd"/><path d="M3381.53 1652.87 3627.17 1652.87 3627.17 1850.87 3381.53 1850.87Z" fill="#00305D" fill-rule="evenodd"/><path d="M3627.17 1652.87 3872.8 1652.87 3872.8 1850.87 3627.17 1850.87Z" fill="#00305D" fill-rule="evenodd"/><path d="M1416.46 1850.87 1662.09 1850.87 1662.09 2048.87 1416.46 2048.87Z" fill="#00305D" fill-rule="evenodd"/><path d="M1662.09 1850.87 1907.73 1850.87 1907.73 2048.87 1662.09 2048.87Z" fill="#00305D" fill-rule="evenodd"/><path d="M1907.73 1850.87 2153.36 1850.87 2153.36 2048.87 1907.73 2048.87Z" fill="#00305D" fill-rule="evenodd"/><path d="M2153.36 1850.87 2399 1850.87 2399 2048.87 2153.36 2048.87Z" fill="#00305D" fill-rule="evenodd"/><path d="M2399 1850.87 2644.63 1850.87 2644.63 2048.87 2399 2048.87Z" fill="#00305D" fill-rule="evenodd"/><path d="M2644.63 1850.87 2890.26 1850.87 2890.26 2048.87 2644.63 2048.87Z" fill="#00305D" fill-rule="evenodd"/><path d="M2890.26 1850.87 3135.9 1850.87 3135.9 2048.87 2890.26 2048.87Z" fill="#00305D" fill-rule="evenodd"/><path d="M3135.9 1850.87 3381.53 1850.87 3381.53 2048.87 3135.9 2048.87Z" fill="#00305D" fill-rule="evenodd"/><path d="M3381.53 1850.87 3627.17 1850.87 3627.17 2048.87 3381.53 2048.87Z" fill="#00305D" fill-rule="evenodd"/><path d="M3627.17 1850.87 3872.8 1850.87 3872.8 2048.87 3627.17 2048.87Z" fill="#00305D" fill-rule="evenodd"/><path d="M1662.09 462.578 1662.09 2051.16" stroke="#FFFFFF" stroke-width="4.58333" stroke-linejoin="round" stroke-miterlimit="10" fill="none" fill-rule="evenodd"/><path d="M1907.73 462.578 1907.73 2051.16" stroke="#FFFFFF" stroke-width="4.58333" stroke-linejoin="round" stroke-miterlimit="10" fill="none" fill-rule="evenodd"/><path d="M2153.36 462.578 2153.36 2051.16" stroke="#FFFFFF" stroke-width="4.58333" stroke-linejoin="round" stroke-miterlimit="10" fill="none" fill-rule="evenodd"/><path d="M2399 462.578 2399 2051.16" stroke="#FFFFFF" stroke-width="4.58333" stroke-linejoin="round" stroke-miterlimit="10" fill="none" fill-rule="evenodd"/><path d="M2644.63 462.578 2644.63 2051.16" stroke="#FFFFFF" stroke-width="4.58333" stroke-linejoin="round" stroke-miterlimit="10" fill="none" fill-rule="evenodd"/><path d="M2890.26 462.578 2890.26 2051.16" stroke="#FFFFFF" stroke-width="4.58333" stroke-linejoin="round" stroke-miterlimit="10" fill="none" fill-rule="evenodd"/><path d="M3135.9 462.578 3135.9 2051.16" stroke="#FFFFFF" stroke-width="4.58333" stroke-linejoin="round" stroke-miterlimit="10" fill="none" fill-rule="evenodd"/><path d="M3381.53 462.578 3381.53 2051.16" stroke="#FFFFFF" stroke-width="4.58333" stroke-linejoin="round" stroke-miterlimit="10" fill="none" fill-rule="evenodd"/><path d="M3627.17 462.578 3627.17 2051.16" stroke="#FFFFFF" stroke-width="4.58333" stroke-linejoin="round" stroke-miterlimit="10" fill="none" fill-rule="evenodd"/><path d="M1414.17 662.869 3875.09 662.869" stroke="#FFFFFF" stroke-width="4.58333" stroke-linejoin="round" stroke-miterlimit="10" fill="none" fill-rule="evenodd"/><path d="M1414.17 860.869 3875.09 860.869" stroke="#FFFFFF" stroke-width="4.58333" stroke-linejoin="round" stroke-miterlimit="10" fill="none" fill-rule="evenodd"/><path d="M1414.17 1058.87 3875.09 1058.87" stroke="#FFFFFF" stroke-width="4.58333" stroke-linejoin="round" stroke-miterlimit="10" fill="none" fill-rule="evenodd"/><path d="M1414.17 1256.87 3875.09 1256.87" stroke="#FFFFFF" stroke-width="4.58333" stroke-linejoin="round" stroke-miterlimit="10" fill="none" fill-rule="evenodd"/><path d="M1414.17 1454.87 3875.09 1454.87" stroke="#FFFFFF" stroke-width="4.58333" stroke-linejoin="round" stroke-miterlimit="10" fill="none" fill-rule="evenodd"/><path d="M1414.17 1652.87 3875.09 1652.87" stroke="#FFFFFF" stroke-width="4.58333" stroke-linejoin="round" stroke-miterlimit="10" fill="none" fill-rule="evenodd"/><path d="M1414.17 1850.87 3875.09 1850.87" stroke="#FFFFFF" stroke-width="4.58333" stroke-linejoin="round" stroke-miterlimit="10" fill="none" fill-rule="evenodd"/><path d="M1416.46 462.578 1416.46 2051.16" stroke="#FFFFFF" stroke-width="4.58333" stroke-linejoin="round" stroke-miterlimit="10" fill="none" fill-rule="evenodd"/><path d="M3872.8 462.578 3872.8 2051.16" stroke="#FFFFFF" stroke-width="4.58333" stroke-linejoin="round" stroke-miterlimit="10" fill="none" fill-rule="evenodd"/><path d="M1414.17 464.869 3875.09 464.869" stroke="#FFFFFF" stroke-width="4.58333" stroke-linejoin="round" stroke-miterlimit="10" fill="none" fill-rule="evenodd"/><path d="M1414.17 2048.87 3875.09 2048.87" stroke="#FFFFFF" stroke-width="4.58333" stroke-linejoin="round" stroke-miterlimit="10" fill="none" fill-rule="evenodd"/><path d="M3850.5 1948.5C3850.5 1935.8 3860.8 1925.5 3873.5 1925.5 3886.2 1925.5 3896.5 1935.8 3896.5 1948.5 3896.5 1961.2 3886.2 1971.5 3873.5 1971.5 3860.8 1971.5 3850.5 1961.2 3850.5 1948.5Z" stroke="#002042" stroke-width="4.58333" stroke-miterlimit="8" fill="#FF0000" fill-rule="evenodd"/><path d="M3850.5 1556.5C3850.5 1543.8 3860.8 1533.5 3873.5 1533.5 3886.2 1533.5 3896.5 1543.8 3896.5 1556.5 3896.5 1569.2 3886.2 1579.5 3873.5 1579.5 3860.8 1579.5 3850.5 1569.2 3850.5 1556.5Z" stroke="#002042" stroke-width="4.58333" stroke-miterlimit="8" fill="#FF0000" fill-rule="evenodd"/><path d="M3850.5 1359.5C3850.5 1346.8 3860.8 1336.5 3873.5 1336.5 3886.2 1336.5 3896.5 1346.8 3896.5 1359.5 3896.5 1372.2 3886.2 1382.5 3873.5 1382.5 3860.8 1382.5 3850.5 1372.2 3850.5 1359.5Z" stroke="#002042" stroke-width="4.58333" stroke-miterlimit="8" fill="#FF0000" fill-rule="evenodd"/><path d="M3850.5 1163.5C3850.5 1150.8 3860.8 1140.5 3873.5 1140.5 3886.2 1140.5 3896.5 1150.8 3896.5 1163.5 3896.5 1176.2 3886.2 1186.5 3873.5 1186.5 3860.8 1186.5 3850.5 1176.2 3850.5 1163.5Z" stroke="#002042" stroke-width="4.58333" stroke-miterlimit="8" fill="#FF0000" fill-rule="evenodd"/><path d="M3850.5 967.5C3850.5 954.797 3860.8 944.5 3873.5 944.5 3886.2 944.5 3896.5 954.797 3896.5 967.5 3896.5 980.202 3886.2 990.5 3873.5 990.5 3860.8 990.5 3850.5 980.202 3850.5 967.5Z" stroke="#002042" stroke-width="4.58333" stroke-miterlimit="8" fill="#FF0000" fill-rule="evenodd"/><path d="M3850.5 770.5C3850.5 757.798 3860.8 747.5 3873.5 747.5 3886.2 747.5 3896.5 757.798 3896.5 770.5 3896.5 783.203 3886.2 793.5 3873.5 793.5 3860.8 793.5 3850.5 783.203 3850.5 770.5Z" stroke="#002042" stroke-width="4.58333" stroke-miterlimit="8" fill="#FF0000" fill-rule="evenodd"/><path d="M3850.5 574.5C3850.5 561.797 3860.8 551.5 3873.5 551.5 3886.2 551.5 3896.5 561.797 3896.5 574.5 3896.5 587.202 3886.2 597.5 3873.5 597.5 3860.8 597.5 3850.5 587.202 3850.5 574.5Z" stroke="#002042" stroke-width="4.58333" stroke-miterlimit="8" fill="#FF0000" fill-rule="evenodd"/><path d="M3850.5 1752.5C3850.5 1739.8 3860.8 1729.5 3873.5 1729.5 3886.2 1729.5 3896.5 1739.8 3896.5 1752.5 3896.5 1765.2 3886.2 1775.5 3873.5 1775.5 3860.8 1775.5 3850.5 1765.2 3850.5 1752.5Z" stroke="#002042" stroke-width="4.58333" stroke-miterlimit="8" fill="#FF0000" fill-rule="evenodd"/><path d="M3850.5 1844.5C3850.5 1831.8 3860.8 1821.5 3873.5 1821.5 3886.2 1821.5 3896.5 1831.8 3896.5 1844.5 3896.5 1857.2 3886.2 1867.5 3873.5 1867.5 3860.8 1867.5 3850.5 1857.2 3850.5 1844.5Z" stroke="#002042" stroke-width="4.58333" stroke-miterlimit="8" fill="#FF0000" fill-rule="evenodd"/><path d="M3850.5 1451.5C3850.5 1438.8 3860.8 1428.5 3873.5 1428.5 3886.2 1428.5 3896.5 1438.8 3896.5 1451.5 3896.5 1464.2 3886.2 1474.5 3873.5 1474.5 3860.8 1474.5 3850.5 1464.2 3850.5 1451.5Z" stroke="#002042" stroke-width="4.58333" stroke-miterlimit="8" fill="#FF0000" fill-rule="evenodd"/><path d="M3850.5 1255.5C3850.5 1242.8 3860.8 1232.5 3873.5 1232.5 3886.2 1232.5 3896.5 1242.8 3896.5 1255.5 3896.5 1268.2 3886.2 1278.5 3873.5 1278.5 3860.8 1278.5 3850.5 1268.2 3850.5 1255.5Z" stroke="#002042" stroke-width="4.58333" stroke-miterlimit="8" fill="#FF0000" fill-rule="evenodd"/><path d="M3850.5 1058.5C3850.5 1045.8 3860.8 1035.5 3873.5 1035.5 3886.2 1035.5 3896.5 1045.8 3896.5 1058.5 3896.5 1071.2 3886.2 1081.5 3873.5 1081.5 3860.8 1081.5 3850.5 1071.2 3850.5 1058.5Z" stroke="#002042" stroke-width="4.58333" stroke-miterlimit="8" fill="#FF0000" fill-rule="evenodd"/><path d="M3850.5 862.5C3850.5 849.797 3860.8 839.5 3873.5 839.5 3886.2 839.5 3896.5 849.797 3896.5 862.5 3896.5 875.203 3886.2 885.5 3873.5 885.5 3860.8 885.5 3850.5 875.203 3850.5 862.5Z" stroke="#002042" stroke-width="4.58333" stroke-miterlimit="8" fill="#FF0000" fill-rule="evenodd"/><path d="M3850.5 666C3850.5 653.574 3860.8 643.5 3873.5 643.5 3886.2 643.5 3896.5 653.574 3896.5 666 3896.5 678.426 3886.2 688.5 3873.5 688.5 3860.8 688.5 3850.5 678.426 3850.5 666Z" stroke="#002042" stroke-width="4.58333" stroke-miterlimit="8" fill="#FF0000" fill-rule="evenodd"/><path d="M3850.5 469.5C3850.5 456.797 3860.8 446.5 3873.5 446.5 3886.2 446.5 3896.5 456.797 3896.5 469.5 3896.5 482.203 3886.2 492.5 3873.5 492.5 3860.8 492.5 3850.5 482.203 3850.5 469.5Z" stroke="#002042" stroke-width="4.58333" stroke-miterlimit="8" fill="#FF0000" fill-rule="evenodd"/><path d="M3850.5 1647.5C3850.5 1634.8 3860.8 1624.5 3873.5 1624.5 3886.2 1624.5 3896.5 1634.8 3896.5 1647.5 3896.5 1660.2 3886.2 1670.5 3873.5 1670.5 3860.8 1670.5 3850.5 1660.2 3850.5 1647.5Z" stroke="#002042" stroke-width="4.58333" stroke-miterlimit="8" fill="#FF0000" fill-rule="evenodd"/><path d="M3850.5 2042.5C3850.5 2029.8 3860.8 2019.5 3873.5 2019.5 3886.2 2019.5 3896.5 2029.8 3896.5 2042.5 3896.5 2055.2 3886.2 2065.5 3873.5 2065.5 3860.8 2065.5 3850.5 2055.2 3850.5 2042.5Z" stroke="#002042" stroke-width="4.58333" stroke-miterlimit="8" fill="#FF0000" fill-rule="evenodd"/></g></svg>