<svg class="main-svg" xmlns="http://www.w3.org/2000/svg" xmlns:xlink="http://www.w3.org/1999/xlink" width="700" height="750" style="" viewBox="0 0 700 750"><rect x="0" y="0" width="700" height="750" style="fill: rgb(0, 0, 0); fill-opacity: 0;"/><defs id="defs-6d6290"><g class="clips"><clipPath id="clip6d6290xyplot" class="plotclip"><rect width="640" height="204.90000000000003"/></clipPath><clipPath id="clip6d6290x2y2plot" class="plotclip"><rect width="640" height="204.89999999999995"/></clipPath><clipPath id="clip6d6290x3y3plot" class="plotclip"><rect width="640" height="204.9"/></clipPath><clipPath class="axesclip" id="clip6d6290x"><rect x="60" y="0" width="640" height="750"/></clipPath><clipPath class="axesclip" id="clip6d6290y"><rect x="0" y="20" width="700" height="204.90000000000003"/></clipPath><clipPath class="axesclip" id="clip6d6290xy"><rect x="60" y="20" width="640" height="204.90000000000003"/></clipPath><clipPath class="axesclip" id="clip6d6290y2"><rect x="0" y="259.05000000000007" width="700" height="204.89999999999995"/></clipPath><clipPath class="axesclip" id="clip6d6290xy2"><rect x="60" y="259.05000000000007" width="640" height="204.89999999999995"/></clipPath><clipPath class="axesclip" id="clip6d6290y3"><rect x="0" y="498.09999999999997" width="700" height="204.9"/></clipPath><clipPath class="axesclip" id="clip6d6290xy3"><rect x="60" y="498.09999999999997" width="640" height="204.9"/></clipPath><clipPath class="axesclip" id="clip6d6290x2"><rect x="60" y="0" width="640" height="750"/></clipPath><clipPath class="axesclip" id="clip6d6290x2y"><rect x="60" y="20" width="640" height="204.90000000000003"/></clipPath><clipPath class="axesclip" id="clip6d6290x2y2"><rect x="60" y="259.05000000000007" width="640" height="204.89999999999995"/></clipPath><clipPath class="axesclip" id="clip6d6290x2y3"><rect x="60" y="498.09999999999997" width="640" height="204.9"/></clipPath><clipPath class="axesclip" id="clip6d6290x3"><rect x="60" y="0" width="640" height="750"/></clipPath><clipPath class="axesclip" id="clip6d6290x3y"><rect x="60" y="20" width="640" height="204.90000000000003"/></clipPath><clipPath class="axesclip" id="clip6d6290x3y2"><rect x="60" y="259.05000000000007" width="640" height="204.89999999999995"/></clipPath><clipPath class="axesclip" id="clip6d6290x3y3"><rect x="60" y="498.09999999999997" width="640" height="204.9"/></clipPath></g><g class="gradients"/><g class="patterns"/></defs><g class="bglayer"><rect class="bg" x="60" y="20" width="640" height="204.90000000000003" style="fill: rgb(229, 236, 246); fill-opacity: 1; stroke-width: 0;"/><rect class="bg" x="60" y="259.05000000000007" width="640" height="204.89999999999995" style="fill: rgb(229, 236, 246); fill-opacity: 1; stroke-width: 0;"/><rect class="bg" x="60" y="498.09999999999997" width="640" height="204.9" style="fill: rgb(229, 236, 246); fill-opacity: 1; stroke-width: 0;"/></g><g class="layer-below"><g class="imagelayer"/><g class="shapelayer"/></g><g class="cartesianlayer"><g class="subplot xy"><g class="layer-subplot"><g class="shapelayer"/><g class="imagelayer"/></g><g class="minor-gridlayer"><g class="x"/><g class="y"/></g><g class="gridlayer"><g class="x"><path class="xgrid crisp" transform="translate(145.32999999999998,0)" d="M0,20v204.90000000000003" style="stroke: rgb(255, 255, 255); stroke-opacity: 1; stroke-width: 1px;"/><path class="xgrid crisp" transform="translate(230.67,0)" d="M0,20v204.90000000000003" style="stroke: rgb(255, 255, 255); stroke-opacity: 1; stroke-width: 1px;"/><path class="xgrid crisp" transform="translate(316,0)" d="M0,20v204.90000000000003" style="stroke: rgb(255, 255, 255); stroke-opacity: 1; stroke-width: 1px;"/><path class="xgrid crisp" transform="translate(401.33,0)" d="M0,20v204.90000000000003" style="stroke: rgb(255, 255, 255); stroke-opacity: 1; stroke-width: 1px;"/><path class="xgrid crisp" transform="translate(486.67,0)" d="M0,20v204.90000000000003" style="stroke: rgb(255, 255, 255); stroke-opacity: 1; stroke-width: 1px;"/><path class="xgrid crisp" transform="translate(572,0)" d="M0,20v204.90000000000003" style="stroke: rgb(255, 255, 255); stroke-opacity: 1; stroke-width: 1px;"/><path class="xgrid crisp" transform="translate(657.33,0)" d="M0,20v204.90000000000003" style="stroke: rgb(255, 255, 255); stroke-opacity: 1; stroke-width: 1px;"/></g><g class="y"><path class="ygrid crisp" transform="translate(0,173.68)" d="M60,0h640" style="stroke: rgb(255, 255, 255); stroke-opacity: 1; stroke-width: 1px;"/><path class="ygrid crisp" transform="translate(0,71.22999999999999)" d="M60,0h640" style="stroke: rgb(255, 255, 255); stroke-opacity: 1; stroke-width: 1px;"/></g></g><g class="zerolinelayer"><path class="xzl zl crisp" transform="translate(60,0)" d="M0,20v204.90000000000003" style="stroke: rgb(255, 255, 255); stroke-opacity: 1; stroke-width: 2px;"/><path class="yzl zl crisp" transform="translate(0,122.45)" d="M60,0h640" style="stroke: rgb(255, 255, 255); stroke-opacity: 1; stroke-width: 2px;"/></g><path class="xlines-below"/><path class="ylines-below"/><g class="overlines-below"/><g class="xaxislayer-below"/><g class="yaxislayer-below"/><g class="overaxes-below"/><g class="plot" transform="translate(60,20)" clip-path="url(#clip6d6290xyplot)"><g class="scatterlayer mlayer"><g class="trace scatter tracef8848c" style="stroke-miterlimit: 2;"><g class="fills"><g><path class="js-fill" d="M640,102.45L0,102.45L0,102.45L640,102.45L640,102.45" style="fill: rgb(255, 0, 0); fill-opacity: 0.5; stroke-width: 0;"/></g></g><g class="errorbars"/><g class="lines"><path class="js-line" d="M0,102.45L640,102.45L640,102.45" style="vector-effect: none; fill: none; stroke: rgb(255, 0, 0); stroke-opacity: 1; stroke-width: 1px; opacity: 1;"/></g><g class="points"/><g class="text"/></g></g></g><g class="overplot"/><path class="xlines-above crisp" d="M0,0" style="fill: none;"/><path class="ylines-above crisp" d="M0,0" style="fill: none;"/><g class="overlines-above"/><g class="xaxislayer-above"/><g class="yaxislayer-above"><g class="ytick"><text text-anchor="end" x="59" y="5.25" transform="translate(0,224.9)" style="font-family: 'New Computer Modern'; font-size: 15px; fill: rgb(42, 63, 95); fill-opacity: 1; white-space: pre; opacity: 1;">−1</text></g><g class="ytick"><text text-anchor="end" x="59" y="5.25" style="font-family: 'New Computer Modern'; font-size: 15px; fill: rgb(42, 63, 95); fill-opacity: 1; white-space: pre; opacity: 1;" transform="translate(0,173.68)">−0.5</text></g><g class="ytick"><text text-anchor="end" x="59" y="5.25" style="font-family: 'New Computer Modern'; font-size: 15px; fill: rgb(42, 63, 95); fill-opacity: 1; white-space: pre; opacity: 1;" transform="translate(0,122.45)">0</text></g><g class="ytick"><text text-anchor="end" x="59" y="5.25" style="font-family: 'New Computer Modern'; font-size: 15px; fill: rgb(42, 63, 95); fill-opacity: 1; white-space: pre; opacity: 1;" transform="translate(0,71.22999999999999)">0.5</text></g><g class="ytick"><text text-anchor="end" x="59" y="5.25" style="font-family: 'New Computer Modern'; font-size: 15px; fill: rgb(42, 63, 95); fill-opacity: 1; white-space: pre; opacity: 1;" transform="translate(0,20)">1</text></g></g><g class="overaxes-above"/></g><g class="subplot x2y2"><g class="layer-subplot"><g class="shapelayer"/><g class="imagelayer"/></g><g class="minor-gridlayer"><g class="x2"/><g class="y2"/></g><g class="gridlayer"><g class="x2"><path class="x2grid crisp" transform="translate(145.32999999999998,0)" d="M0,259.05000000000007v204.89999999999995" style="stroke: rgb(255, 255, 255); stroke-opacity: 1; stroke-width: 1px;"/><path class="x2grid crisp" transform="translate(230.67,0)" d="M0,259.05000000000007v204.89999999999995" style="stroke: rgb(255, 255, 255); stroke-opacity: 1; stroke-width: 1px;"/><path class="x2grid crisp" transform="translate(316,0)" d="M0,259.05000000000007v204.89999999999995" style="stroke: rgb(255, 255, 255); stroke-opacity: 1; stroke-width: 1px;"/><path class="x2grid crisp" transform="translate(401.33,0)" d="M0,259.05000000000007v204.89999999999995" style="stroke: rgb(255, 255, 255); stroke-opacity: 1; stroke-width: 1px;"/><path class="x2grid crisp" transform="translate(486.67,0)" d="M0,259.05000000000007v204.89999999999995" style="stroke: rgb(255, 255, 255); stroke-opacity: 1; stroke-width: 1px;"/><path class="x2grid crisp" transform="translate(572,0)" d="M0,259.05000000000007v204.89999999999995" style="stroke: rgb(255, 255, 255); stroke-opacity: 1; stroke-width: 1px;"/><path class="x2grid crisp" transform="translate(657.33,0)" d="M0,259.05000000000007v204.89999999999995" style="stroke: rgb(255, 255, 255); stroke-opacity: 1; stroke-width: 1px;"/></g><g class="y2"><path class="y2grid crisp" transform="translate(0,427.58000000000004)" d="M60,0h640" style="stroke: rgb(255, 255, 255); stroke-opacity: 1; stroke-width: 1px;"/><path class="y2grid crisp" transform="translate(0,390.70000000000005)" d="M60,0h640" style="stroke: rgb(255, 255, 255); stroke-opacity: 1; stroke-width: 1px;"/><path class="y2grid crisp" transform="translate(0,316.93000000000006)" d="M60,0h640" style="stroke: rgb(255, 255, 255); stroke-opacity: 1; stroke-width: 1px;"/><path class="y2grid crisp" transform="translate(0,280.05000000000007)" d="M60,0h640" style="stroke: rgb(255, 255, 255); stroke-opacity: 1; stroke-width: 1px;"/></g></g><g class="zerolinelayer"><path class="x2zl zl crisp" transform="translate(60,0)" d="M0,259.05000000000007v204.89999999999995" style="stroke: rgb(255, 255, 255); stroke-opacity: 1; stroke-width: 2px;"/><path class="y2zl zl crisp" transform="translate(0,353.82000000000005)" d="M60,0h640" style="stroke: rgb(255, 255, 255); stroke-opacity: 1; stroke-width: 2px;"/></g><path class="xlines-below"/><path class="ylines-below"/><g class="overlines-below"/><g class="xaxislayer-below"/><g class="yaxislayer-below"/><g class="overaxes-below"/><g class="plot" transform="translate(60,259.05000000000007)" clip-path="url(#clip6d6290x2y2plot)"><g class="scatterlayer mlayer"><g class="trace scatter trace1c2063" style="stroke-miterlimit: 2;"><g class="fills"><g><path class="js-fill" d="M640,94.77L0,94.77L0,94.77L0,10.25L3.22,11.64L426.67,194.65L426.67,48.66L450.25,58.29L453.47,59.52L482.41,69.61L485.63,70.63L514.57,78.83L517.79,79.64L546.73,85.95L549.95,86.55L575.68,90.58L578.89,90.98L604.62,93.5L607.84,93.72L633.57,94.72L636.78,94.76L640,94.77L640,94.77" style="fill: rgb(0, 255, 255); fill-opacity: 0.5; stroke-width: 0;"/></g></g><g class="errorbars"/><g class="lines"><path class="js-line" d="M0,94.77L0,10.25L3.22,11.64L426.67,194.65L426.67,48.66L450.25,58.29L453.47,59.52L482.41,69.61L485.63,70.63L514.57,78.83L517.79,79.64L546.73,85.95L549.95,86.55L575.68,90.58L578.89,90.98L604.62,93.5L607.84,93.72L633.57,94.72L636.78,94.76L640,94.77L640,94.77" style="vector-effect: none; fill: none; stroke: rgb(0, 255, 255); stroke-opacity: 1; stroke-width: 1px; opacity: 1;"/></g><g class="points"/><g class="text"/></g></g></g><g class="overplot"/><path class="xlines-above crisp" d="M0,0" style="fill: none;"/><path class="ylines-above crisp" d="M0,0" style="fill: none;"/><g class="overlines-above"/><g class="xaxislayer-above"/><g class="yaxislayer-above"><g class="y2tick"><text text-anchor="end" x="59" y="5.25" transform="translate(0,427.58000000000004)" style="font-family: 'New Computer Modern'; font-size: 15px; fill: rgb(42, 63, 95); fill-opacity: 1; white-space: pre; opacity: 1;">−400</text></g><g class="y2tick"><text text-anchor="end" x="59" y="5.25" style="font-family: 'New Computer Modern'; font-size: 15px; fill: rgb(42, 63, 95); fill-opacity: 1; white-space: pre; opacity: 1;" transform="translate(0,390.70000000000005)">−200</text></g><g class="y2tick"><text text-anchor="end" x="59" y="5.25" style="font-family: 'New Computer Modern'; font-size: 15px; fill: rgb(42, 63, 95); fill-opacity: 1; white-space: pre; opacity: 1;" transform="translate(0,353.82000000000005)">0</text></g><g class="y2tick"><text text-anchor="end" x="59" y="5.25" style="font-family: 'New Computer Modern'; font-size: 15px; fill: rgb(42, 63, 95); fill-opacity: 1; white-space: pre; opacity: 1;" transform="translate(0,316.93000000000006)">200</text></g><g class="y2tick"><text text-anchor="end" x="59" y="5.25" style="font-family: 'New Computer Modern'; font-size: 15px; fill: rgb(42, 63, 95); fill-opacity: 1; white-space: pre; opacity: 1;" transform="translate(0,280.05000000000007)">400</text></g></g><g class="overaxes-above"/></g><g class="subplot x3y3"><g class="layer-subplot"><g class="shapelayer"/><g class="imagelayer"/></g><g class="minor-gridlayer"><g class="x3"/><g class="y3"/></g><g class="gridlayer"><g class="x3"><path class="x3grid crisp" transform="translate(145.32999999999998,0)" d="M0,498.09999999999997v204.9" style="stroke: rgb(255, 255, 255); stroke-opacity: 1; stroke-width: 1px;"/><path class="x3grid crisp" transform="translate(230.67,0)" d="M0,498.09999999999997v204.9" style="stroke: rgb(255, 255, 255); stroke-opacity: 1; stroke-width: 1px;"/><path class="x3grid crisp" transform="translate(316,0)" d="M0,498.09999999999997v204.9" style="stroke: rgb(255, 255, 255); stroke-opacity: 1; stroke-width: 1px;"/><path class="x3grid crisp" transform="translate(401.33,0)" d="M0,498.09999999999997v204.9" style="stroke: rgb(255, 255, 255); stroke-opacity: 1; stroke-width: 1px;"/><path class="x3grid crisp" transform="translate(486.67,0)" d="M0,498.09999999999997v204.9" style="stroke: rgb(255, 255, 255); stroke-opacity: 1; stroke-width: 1px;"/><path class="x3grid crisp" transform="translate(572,0)" d="M0,498.09999999999997v204.9" style="stroke: rgb(255, 255, 255); stroke-opacity: 1; stroke-width: 1px;"/><path class="x3grid crisp" transform="translate(657.33,0)" d="M0,498.09999999999997v204.9" style="stroke: rgb(255, 255, 255); stroke-opacity: 1; stroke-width: 1px;"/></g><g class="y3"><path class="y3grid crisp" transform="translate(0,577.53)" d="M60,0h640" style="stroke: rgb(255, 255, 255); stroke-opacity: 1; stroke-width: 1px;"/><path class="y3grid crisp" transform="translate(0,514.67)" d="M60,0h640" style="stroke: rgb(255, 255, 255); stroke-opacity: 1; stroke-width: 1px;"/></g></g><g class="zerolinelayer"><path class="x3zl zl crisp" transform="translate(60,0)" d="M0,498.09999999999997v204.9" style="stroke: rgb(255, 255, 255); stroke-opacity: 1; stroke-width: 2px;"/><path class="y3zl zl crisp" transform="translate(0,640.38)" d="M60,0h640" style="stroke: rgb(255, 255, 255); stroke-opacity: 1; stroke-width: 2px;"/></g><path class="xlines-below"/><path class="ylines-below"/><g class="overlines-below"/><g class="xaxislayer-below"/><g class="yaxislayer-below"/><g class="overaxes-below"/><g class="plot" transform="translate(60,498.09999999999997)" clip-path="url(#clip6d6290x3y3plot)"><g class="scatterlayer mlayer"><g class="trace scatter traceced41d" style="stroke-miterlimit: 2;"><g class="fills"><g><path class="js-fill" d="M640,142.28L0,142.28L0,142.28L19.3,117.51L22.51,113.63L41.81,91.86L45.03,88.48L61.11,72.66L64.32,69.71L80.4,56.03L83.62,53.5L99.7,41.97L102.91,39.88L118.99,30.48L122.21,28.82L138.29,21.57L141.51,20.33L157.59,15.22L160.8,14.41L176.88,11.45L180.1,11.07L196.18,10.25L199.4,10.29L215.48,11.61L218.69,12.09L234.77,15.55L237.99,16.46L254.07,22.07L257.29,23.4L273.37,31.15L276.58,32.91L292.66,42.8L295.88,44.99L311.96,57.03L315.18,59.65L331.26,73.82L334.47,76.87L350.55,93.19L353.77,96.67L373.07,119.03L376.28,123.01L395.58,148.38L398.79,152.86L418.09,181.22L421.31,186.2L426.67,194.66L427.74,193.87L443.82,183.01L447.04,181.04L463.12,172.13L466.33,170.53L485.63,162.12L488.84,160.91L508.14,154.65L511.36,153.76L530.65,149.33L533.87,148.73L556.38,145.43L559.6,145.08L585.33,143.16L588.54,143.01L623.92,142.3L627.14,142.29L640,142.28L640,142.28" style="fill: rgb(144, 238, 144); fill-opacity: 0.5; stroke-width: 0;"/></g></g><g class="errorbars"/><g class="lines"><path class="js-line" d="M0,142.28L19.3,117.51L22.51,113.63L41.81,91.86L45.03,88.48L61.11,72.66L64.32,69.71L80.4,56.03L83.62,53.5L99.7,41.97L102.91,39.88L118.99,30.48L122.21,28.82L138.29,21.57L141.51,20.33L157.59,15.22L160.8,14.41L176.88,11.45L180.1,11.07L196.18,10.25L199.4,10.29L215.48,11.61L218.69,12.09L234.77,15.55L237.99,16.46L254.07,22.07L257.29,23.4L273.37,31.15L276.58,32.91L292.66,42.8L295.88,44.99L311.96,57.03L315.18,59.65L331.26,73.82L334.47,76.87L350.55,93.19L353.77,96.67L373.07,119.03L376.28,123.01L395.58,148.38L398.79,152.86L418.09,181.22L421.31,186.2L426.67,194.66L427.74,193.87L443.82,183.01L447.04,181.04L463.12,172.13L466.33,170.53L485.63,162.12L488.84,160.91L508.14,154.65L511.36,153.76L530.65,149.33L533.87,148.73L556.38,145.43L559.6,145.08L585.33,143.16L588.54,143.01L623.92,142.3L627.14,142.29L640,142.28L640,142.28" style="vector-effect: none; fill: none; stroke: rgb(144, 238, 144); stroke-opacity: 1; stroke-width: 1px; opacity: 1;"/></g><g class="points"/><g class="text"/></g></g></g><g class="overplot"/><path class="xlines-above crisp" d="M0,0" style="fill: none;"/><path class="ylines-above crisp" d="M0,0" style="fill: none;"/><g class="overlines-above"/><g class="xaxislayer-above"><g class="x3tick"><text text-anchor="middle" x="0" y="719" transform="translate(60,0)" style="font-family: 'New Computer Modern'; font-size: 15px; fill: rgb(42, 63, 95); fill-opacity: 1; white-space: pre; opacity: 1;">0</text></g><g class="x3tick"><text text-anchor="middle" x="0" y="719" style="font-family: 'New Computer Modern'; font-size: 15px; fill: rgb(42, 63, 95); fill-opacity: 1; white-space: pre; opacity: 1;" transform="translate(145.32999999999998,0)">0.2</text></g><g class="x3tick"><text text-anchor="middle" x="0" y="719" style="font-family: 'New Computer Modern'; font-size: 15px; fill: rgb(42, 63, 95); fill-opacity: 1; white-space: pre; opacity: 1;" transform="translate(230.67,0)">0.4</text></g><g class="x3tick"><text text-anchor="middle" x="0" y="719" style="font-family: 'New Computer Modern'; font-size: 15px; fill: rgb(42, 63, 95); fill-opacity: 1; white-space: pre; opacity: 1;" transform="translate(316,0)">0.6</text></g><g class="x3tick"><text text-anchor="middle" x="0" y="719" style="font-family: 'New Computer Modern'; font-size: 15px; fill: rgb(42, 63, 95); fill-opacity: 1; white-space: pre; opacity: 1;" transform="translate(401.33,0)">0.8</text></g><g class="x3tick"><text text-anchor="middle" x="0" y="719" style="font-family: 'New Computer Modern'; font-size: 15px; fill: rgb(42, 63, 95); fill-opacity: 1; white-space: pre; opacity: 1;" transform="translate(486.67,0)">1</text></g><g class="x3tick"><text text-anchor="middle" x="0" y="719" style="font-family: 'New Computer Modern'; font-size: 15px; fill: rgb(42, 63, 95); fill-opacity: 1; white-space: pre; opacity: 1;" transform="translate(572,0)">1.2</text></g><g class="x3tick"><text text-anchor="middle" x="0" y="719" style="font-family: 'New Computer Modern'; font-size: 15px; fill: rgb(42, 63, 95); fill-opacity: 1; white-space: pre; opacity: 1;" transform="translate(657.33,0)">1.4</text></g></g><g class="yaxislayer-above"><g class="y3tick"><text text-anchor="end" x="59" y="5.25" transform="translate(0,640.38)" style="font-family: 'New Computer Modern'; font-size: 15px; fill: rgb(42, 63, 95); fill-opacity: 1; white-space: pre; opacity: 1;">0</text></g><g class="y3tick"><text text-anchor="end" x="59" y="5.25" style="font-family: 'New Computer Modern'; font-size: 15px; fill: rgb(42, 63, 95); fill-opacity: 1; white-space: pre; opacity: 1;" transform="translate(0,577.53)">50</text></g><g class="y3tick"><text text-anchor="end" x="59" y="5.25" style="font-family: 'New Computer Modern'; font-size: 15px; fill: rgb(42, 63, 95); fill-opacity: 1; white-space: pre; opacity: 1;" transform="translate(0,514.67)">100</text></g></g><g class="overaxes-above"/></g></g><g class="polarlayer"/><g class="smithlayer"/><g class="ternarylayer"/><g class="geolayer"/><g class="funnelarealayer"/><g class="pielayer"/><g class="iciclelayer"/><g class="treemaplayer"/><g class="sunburstlayer"/><g class="glimages"/><defs id="topdefs-6d6290"><g class="clips"/></defs><g class="layer-above"><g class="imagelayer"/><g class="shapelayer"/></g><g class="infolayer"><g class="g-gtitle"/><g class="g-xtitle"/><g class="g-x2title"/><g class="g-x3title" transform="translate(0,-3.1000000000000227)"><text class="x3title" x="380" y="749.1" text-anchor="middle" style="font-family: 'New Computer Modern'; font-size: 18px; fill: rgb(42, 63, 95); opacity: 1; font-weight: normal; white-space: pre;">Beam length [m]</text></g><g class="g-ytitle" transform="translate(11.3310546875,0)"><text class="ytitle" transform="rotate(-90,4.681249999999999,122.45000000000002)" x="4.681249999999999" y="122.45000000000002" text-anchor="middle" style="font-family: 'New Computer Modern'; font-size: 18px; fill: rgb(42, 63, 95); opacity: 1; font-weight: normal; white-space: pre;">Normal force [N]</text></g><g class="g-y2title" transform="translate(15.068359375,0)"><text class="y2title" transform="rotate(-90,0.9312499999999986,361.50000000000006)" x="0.9312499999999986" y="361.50000000000006" text-anchor="middle" style="font-family: 'New Computer Modern'; font-size: 18px; fill: rgb(42, 63, 95); opacity: 1; font-weight: normal; white-space: pre;">Shear force [N]</text></g><g class="g-y3title" transform="translate(6.603515625,0)"><text class="y3title" transform="rotate(-90,9.399999999999999,600.55)" x="9.399999999999999" y="600.55" text-anchor="middle" style="font-family: 'New Computer Modern'; font-size: 18px; fill: rgb(42, 63, 95); opacity: 1; font-weight: normal; white-space: pre;">Bending moment [N⋅m]</text></g><g class="annotation" data-index="0" style="opacity: 1;"><g class="annotation-text-g" transform="rotate(0,380,9.999999999999996)"><g class="cursor-pointer" transform="translate(308,0)"><rect class="bg" x="0.5" y="0.5" width="143" height="19" style="stroke-width: 1px; stroke: rgb(0, 0, 0); stroke-opacity: 0; fill: rgb(0, 0, 0); fill-opacity: 0;"/><text class="annotation-text" text-anchor="middle" x="71.984375" y="15" style="font-family: 'New Computer Modern'; font-size: 15px; fill: rgb(42, 63, 95); fill-opacity: 1; white-space: pre;">Normal Force Diagram</text></g></g></g><g class="annotation" data-index="1" style="opacity: 1;"><g class="annotation-text-g" transform="rotate(0,380,249.05000000000007)"><g class="cursor-pointer" transform="translate(314,239)"><rect class="bg" x="0.5" y="0.5" width="132" height="19" style="stroke-width: 1px; stroke: rgb(0, 0, 0); stroke-opacity: 0; fill: rgb(0, 0, 0); fill-opacity: 0;"/><text class="annotation-text" text-anchor="middle" x="66.15625" y="15" style="font-family: 'New Computer Modern'; font-size: 15px; fill: rgb(42, 63, 95); fill-opacity: 1; white-space: pre;">Shear Force Diagram</text></g></g></g><g class="annotation" data-index="2" style="opacity: 1;"><g class="annotation-text-g" transform="rotate(0,380,488.09999999999997)"><g class="cursor-pointer" transform="translate(297,478)"><rect class="bg" x="0.5" y="0.5" width="165" height="19" style="stroke-width: 1px; stroke: rgb(0, 0, 0); stroke-opacity: 0; fill: rgb(0, 0, 0); fill-opacity: 0;"/><text class="annotation-text" text-anchor="middle" x="82.828125" y="15" style="font-family: 'New Computer Modern'; font-size: 15px; fill: rgb(42, 63, 95); fill-opacity: 1; white-space: pre;">Bending Moment Diagram</text></g></g></g></g></svg>