<svg width="1058" height="1058" xmlns="http://www.w3.org/2000/svg" xmlns:xlink="http://www.w3.org/1999/xlink" xml:space="preserve" overflow="hidden"><g transform="translate(-1987 -675)"><path d="M1994 1204C1994 915.707 2227.71 682 2516 682 2804.29 682 3038 915.707 3038 1204 3038 1492.29 2804.29 1726 2516 1726 2227.71 1726 1994 1492.29 1994 1204Z" stroke="#7BC8FF" stroke-width="13.75" stroke-miterlimit="8" fill="none" fill-rule="evenodd"/><path d="M2244 1108.67C2244 1100.57 2250.57 1094 2258.67 1094L2860.33 1094C2868.43 1094 2875 1100.57 2875 1108.67L2875 1167.33C2875 1175.43 2868.43 1182 2860.33 1182L2258.67 1182C2250.57 1182 2244 1175.43 2244 1167.33Z" stroke="#8EDDFF" stroke-width="13.75" stroke-miterlimit="8" fill="none" fill-rule="evenodd"/><text fill="#67FFB7" font-family="Open Sans,Open Sans_MSFontService,sans-serif" font-weight="400" font-size="55" transform="matrix(1 0 0 1 2528.39 1157)">H</text><text fill="#67FFB7" font-family="Open Sans,Open Sans_MSFontService,sans-serif" font-weight="400" font-size="37" transform="matrix(1 0 0 1 2569.07 1170)">2</text><path d="M2196.5 912.5 2932.5 1067.83 2932.5 1340.17 2196.5 1495.5Z" stroke="#67FFB7" stroke-width="20.625" stroke-miterlimit="8" fill="none" fill-rule="evenodd"/><path d="M2244 1240.5C2244 1232.49 2250.49 1226 2258.5 1226L2860.5 1226C2868.51 1226 2875 1232.49 2875 1240.5L2875 1298.5C2875 1306.51 2868.51 1313 2860.5 1313L2258.5 1313C2250.49 1313 2244 1306.51 2244 1298.5Z" stroke="#7BC8FF" stroke-width="13.75" stroke-miterlimit="8" fill="none" fill-rule="evenodd"/><text fill="#67FFB7" font-family="Open Sans,Open Sans_MSFontService,sans-serif" font-weight="400" font-size="55" transform="matrix(1 0 0 1 2528.39 1289)">H</text><text fill="#67FFB7" font-family="Open Sans,Open Sans_MSFontService,sans-serif" font-weight="400" font-size="37" transform="matrix(1 0 0 1 2569.07 1302)">2</text></g></svg>