<svg width="758" height="610" xmlns="http://www.w3.org/2000/svg" xmlns:xlink="http://www.w3.org/1999/xlink" xml:space="preserve" overflow="hidden"><g transform="translate(-2919 -811)"><path d="M2978 1020.67C2978 1012.57 2984.57 1006 2992.67 1006L3594.33 1006C3602.43 1006 3609 1012.57 3609 1020.67L3609 1079.33C3609 1087.43 3602.43 1094 3594.33 1094L2992.67 1094C2984.57 1094 2978 1087.43 2978 1079.33Z" stroke="#8EDDFF" stroke-width="13.75" stroke-miterlimit="8" fill="none" fill-rule="evenodd"/><text fill="#67FFB7" font-family="Open Sans,Open Sans_MSFontService,sans-serif" font-weight="400" font-size="55" transform="matrix(1 0 0 1 3262.25 1069)">H</text><text fill="#67FFB7" font-family="Open Sans,Open Sans_MSFontService,sans-serif" font-weight="400" font-size="37" transform="matrix(1 0 0 1 3302.92 1082)">2</text><path d="M2929.5 824.5 3666.5 979.829 3666.5 1252.17 2929.5 1407.5Z" stroke="#67FFB7" stroke-width="20.625" stroke-miterlimit="8" fill="none" fill-rule="evenodd"/><path d="M2978 1152.5C2978 1144.49 2984.49 1138 2992.5 1138L3594.5 1138C3602.51 1138 3609 1144.49 3609 1152.5L3609 1210.5C3609 1218.51 3602.51 1225 3594.5 1225L2992.5 1225C2984.49 1225 2978 1218.51 2978 1210.5Z" stroke="#7BC8FF" stroke-width="13.75" stroke-miterlimit="8" fill="none" fill-rule="evenodd"/><text fill="#67FFB7" font-family="Open Sans,Open Sans_MSFontService,sans-serif" font-weight="400" font-size="55" transform="matrix(1 0 0 1 3262.25 1201)">H</text><text fill="#67FFB7" font-family="Open Sans,Open Sans_MSFontService,sans-serif" font-weight="400" font-size="37" transform="matrix(1 0 0 1 3302.92 1214)">2</text></g></svg>