<svg xmlns="http://www.w3.org/2000/svg" xml:space="preserve" width="631" height="281.9" viewBox="0 0 631 281.9"><path fill="#756761" d="M281 75.4A38.64 38.64 0 0 0 248 57h-9.5c-3.8 0-7.6 1-11.6 3.1a28.7 28.7 0 0 0-9.7 8.2v-9.8h-22.9V195H219v-50.2c2.5 2.7 5.6 4.8 9.2 6.4 3.6 1.6 7.1 2.4 10.5 2.4h9.3c14 0 26.2-7.4 33-18.5 3.6-5.9 5.7-15.7 5.7-23.1V95.7a39 39 0 0 0-5.7-20.3zm-15.1 35.8c0 11.5-9.4 20.9-20.9 20.9H238.3a21.1 21.1 0 0 1-21.1-21.1V99.4c0-11.7 9.5-21.1 21.1-21.1h6.6c11.7 0 21.1 9.5 21.1 21.1v11.8h-.1z"></path><path fill="#EC691C" d="M587 0c-34.7 0-44.8 9.8-44.8 43.5 0 33.5 10.4 43.8 44.5 43.8 34.3 0 44.3-9.8 44.3-43.8C631 9.4 621.5 0 587 0zm-.4 13.7c24.4 0 31 3.7 31 29.8 0 24.7-5.4 30-30.5 30-24 0-31.5-4.1-31.5-30s7-29.8 31-29.8z"></path><path fill="#756761" d="M306.7 146.8c-5-4.5-7.6-11.6-7.6-21.2V26.3h24.8v97.9c0 2.9.7 5 2 6.4 1.3 1.3 3.5 2 6.4 2h9.8v21.1h-11.6c-10.9 0-18.8-2.3-23.8-6.9zM358.8 145.4c-5.8-6.5-8.7-15-8.7-25.6V57h24.7v63.2c.4 4.2.8 10 8 13 5.4 2.3 11.6 2.2 17.2.6 2.9-.8 5.8-2.9 7.2-4.3 5.5-5.5 6.5-13.8 6.9-18.8V57h24.8v96.7H416V142c-2.8 3.9-6.2 7-10.3 9.5-1.2.7-3.1 1.3-5.2 1.9-7.6 1.9-15.6 2-23.3.4-7.4-1.6-14.8-4.4-18.4-8.4zM472.4 121.7h-22.9s-.6 23 19.1 29.7c16.9 5.7 40.8 2.9 47.6 1.4 6.8-1.5 12.3-5 16-11.1 1.6-2.7 3-6.2 3.7-10.4 2.7-17-7.8-26.6-7.8-26.6s-4.8-5.8-18-7.9l-28.5-5.1c-1.3-.2-2.5-.7-3.6-1.5-1.7-1.2-3.5-3.6-3.1-7.7.6-5.5 4-6.3 9.1-7.1 2.5-.4 13.4-.6 17.8-.2 7.5.7 10.4 4.7 11.4 10.3l.3 1.8h22.9s.6-23-19.1-29.7c-16.9-5.7-40.8-2.9-47.6-1.4-6.8 1.5-12.3 5-16 11.1-1.6 2.7-3 6.2-3.7 10.4-2.7 17 7.8 26.6 7.8 26.6s4.8 5.8 18 7.9l28.5 5.1c1.3.2 2.5.7 3.6 1.5 1.7 1.2 3.6 3.6 3.1 7.7-.7 6-6.7 6.6-9.2 7-5.4.8-13.4.6-18.1.1-7.3-.8-10.1-4.4-11.1-10 0-.6-.1-1.2-.2-1.9z"></path><path fill="#EC691C" d="M609.1 37.4h-16.3V21.9h-12.4v15.5h-16.3v12.4h16.3v15.5h12.4V49.8h16.3V37.4zM85.6 124l10.7 29.7h26.2L76.2 35.9l-3.6-9.7H49.8L0 153.7h26.2L61.3 57h.2L78 102.9H57L49.3 124h36.3z"></path><path fill="#756761" d="M178.9 132.2h-3.3a21.1 21.1 0 0 1-21.1-21.1V99.4c0-11.7 9.5-21.1 21.1-21.1H181.8V57h-6c-3.8 0-7.6 1-11.6 3.1a28.7 28.7 0 0 0-9.7 8.2v-9.8h-22.9V195h24.8v-50.2c2.5 2.7 5.6 4.8 9.2 6.4 3.6 1.6 7.1 2.4 10.5 2.4h5.8v-21.3h-3v-.1zM296.6 195.5h49.1v86.4h-49.1v-86.4zM558.9 211.8l-12.3 39.4h23.1l-10.8-39.4zm20 70.1-4.7-15.2h-32.7l-5.3 15.2h-16.4l27.6-86.4h55.9l26.3 86.4h-50.7zM510.2 281.7v-86.3h-49.1l-23.5 58.2-23.6-58.2h-49.1v86.4H414v-45.2l15.2 37.7v.1l.1.1h16.5l.1-.1v-.1l15.3-37.8v45.2h49z"></path></svg>