<svg class="main-svg" xmlns="http://www.w3.org/2000/svg" xmlns:xlink="http://www.w3.org/1999/xlink" width="900" height="500" style="" viewBox="0 0 900 500"><rect x="0" y="0" width="900" height="500" style="fill: rgb(0, 0, 0); fill-opacity: 0;"/><defs id="defs-a6e459"><g class="clips"><clipPath id="clipa6e459xyplot" class="plotclip"><rect width="385.2" height="453"/></clipPath><clipPath id="clipa6e459x2y2plot" class="plotclip"><rect width="385.2" height="453"/></clipPath><clipPath class="axesclip" id="clipa6e459x"><rect x="44" y="0" width="385.2" height="500"/></clipPath><clipPath class="axesclip" id="clipa6e459y"><rect x="0" y="0" width="900" height="453"/></clipPath><clipPath class="axesclip" id="clipa6e459xy"><rect x="44" y="0" width="385.2" height="453"/></clipPath><clipPath class="axesclip" id="clipa6e459y2"><rect x="0" y="0" width="900" height="453"/></clipPath><clipPath class="axesclip" id="clipa6e459xy2"><rect x="44" y="0" width="385.2" height="453"/></clipPath><clipPath class="axesclip" id="clipa6e459x2"><rect x="514.8" y="0" width="385.2" height="500"/></clipPath><clipPath class="axesclip" id="clipa6e459x2y"><rect x="514.8" y="0" width="385.2" height="453"/></clipPath><clipPath class="axesclip" id="clipa6e459x2y2"><rect x="514.8" y="0" width="385.2" height="453"/></clipPath></g><g class="gradients"/><g class="patterns"/></defs><g class="bglayer"><rect class="bg" x="44" y="0" width="385.2" height="453" style="fill: rgb(255, 255, 255); fill-opacity: 1; stroke-width: 0;"/><rect class="bg" x="514.8" y="0" width="385.2" height="453" style="fill: rgb(255, 255, 255); fill-opacity: 1; stroke-width: 0;"/></g><g class="layer-below"><g class="imagelayer"/><g class="shapelayer"/></g><g class="cartesianlayer"><g class="subplot xy"><g class="layer-subplot"><g class="shapelayer"/><g class="imagelayer"/></g><g class="minor-gridlayer"><g class="x"/><g class="y"/></g><g class="gridlayer"><g class="x"><path class="xgrid crisp" transform="translate(92.15,0)" d="M0,0v453" style="stroke: rgb(235, 240, 248); stroke-opacity: 1; stroke-width: 1px;"/><path class="xgrid crisp" transform="translate(188.45,0)" d="M0,0v453" style="stroke: rgb(235, 240, 248); stroke-opacity: 1; stroke-width: 1px;"/><path class="xgrid crisp" transform="translate(284.75,0)" d="M0,0v453" style="stroke: rgb(235, 240, 248); stroke-opacity: 1; stroke-width: 1px;"/><path class="xgrid crisp" transform="translate(381.05,0)" d="M0,0v453" style="stroke: rgb(235, 240, 248); stroke-opacity: 1; stroke-width: 1px;"/></g><g class="y"><path class="ygrid crisp" transform="translate(0,421.1)" d="M44,0h385.2" style="stroke: rgb(235, 240, 248); stroke-opacity: 1; stroke-width: 1px;"/><path class="ygrid crisp" transform="translate(0,355.99)" d="M44,0h385.2" style="stroke: rgb(235, 240, 248); stroke-opacity: 1; stroke-width: 1px;"/><path class="ygrid crisp" transform="translate(0,290.88)" d="M44,0h385.2" style="stroke: rgb(235, 240, 248); stroke-opacity: 1; stroke-width: 1px;"/><path class="ygrid crisp" transform="translate(0,225.76)" d="M44,0h385.2" style="stroke: rgb(235, 240, 248); stroke-opacity: 1; stroke-width: 1px;"/><path class="ygrid crisp" transform="translate(0,160.65)" d="M44,0h385.2" style="stroke: rgb(235, 240, 248); stroke-opacity: 1; stroke-width: 1px;"/><path class="ygrid crisp" transform="translate(0,95.54)" d="M44,0h385.2" style="stroke: rgb(235, 240, 248); stroke-opacity: 1; stroke-width: 1px;"/><path class="ygrid crisp" transform="translate(0,30.42)" d="M44,0h385.2" style="stroke: rgb(235, 240, 248); stroke-opacity: 1; stroke-width: 1px;"/></g></g><g class="zerolinelayer"/><path class="xlines-below"/><path class="ylines-below"/><g class="overlines-below"/><g class="xaxislayer-below"/><g class="yaxislayer-below"/><g class="overaxes-below"/><g class="plot" transform="translate(44,0)" clip-path="url(#clipa6e459xyplot)"><g class="scatterlayer mlayer"><g class="trace scatter trace080771" style="stroke-miterlimit: 2; opacity: 1;"><g class="fills"/><g class="errorbars"/><g class="lines"/><g class="points"><path class="point" transform="translate(48.15,421.32)" d="M4,0A4,4 0 1,1 0,-4A4,4 0 0,1 4,0Z" style="opacity: 1; stroke-width: 0px; fill: rgb(74, 144, 226); fill-opacity: 1;"/><path class="point" transform="translate(80.25,419.25)" d="M4,0A4,4 0 1,1 0,-4A4,4 0 0,1 4,0Z" style="opacity: 1; stroke-width: 0px; fill: rgb(74, 144, 226); fill-opacity: 1;"/><path class="point" transform="translate(112.35,324.67)" d="M4,0A4,4 0 1,1 0,-4A4,4 0 0,1 4,0Z" style="opacity: 1; stroke-width: 0px; fill: rgb(74, 144, 226); fill-opacity: 1;"/><path class="point" transform="translate(144.45,224.26)" d="M4,0A4,4 0 1,1 0,-4A4,4 0 0,1 4,0Z" style="opacity: 1; stroke-width: 0px; fill: rgb(74, 144, 226); fill-opacity: 1;"/><path class="point" transform="translate(176.55,295.27)" d="M4,0A4,4 0 1,1 0,-4A4,4 0 0,1 4,0Z" style="opacity: 1; stroke-width: 0px; fill: rgb(74, 144, 226); fill-opacity: 1;"/><path class="point" transform="translate(208.65,251.86)" d="M4,0A4,4 0 1,1 0,-4A4,4 0 0,1 4,0Z" style="opacity: 1; stroke-width: 0px; fill: rgb(74, 144, 226); fill-opacity: 1;"/><path class="point" transform="translate(240.75,90.38)" d="M4,0A4,4 0 1,1 0,-4A4,4 0 0,1 4,0Z" style="opacity: 1; stroke-width: 0px; fill: rgb(74, 144, 226); fill-opacity: 1;"/><path class="point" transform="translate(272.85,99.83)" d="M4,0A4,4 0 1,1 0,-4A4,4 0 0,1 4,0Z" style="opacity: 1; stroke-width: 0px; fill: rgb(74, 144, 226); fill-opacity: 1;"/><path class="point" transform="translate(304.95,136.96)" d="M4,0A4,4 0 1,1 0,-4A4,4 0 0,1 4,0Z" style="opacity: 1; stroke-width: 0px; fill: rgb(74, 144, 226); fill-opacity: 1;"/><path class="point" transform="translate(337.05,27.65)" d="M4,0A4,4 0 1,1 0,-4A4,4 0 0,1 4,0Z" style="opacity: 1; stroke-width: 0px; fill: rgb(74, 144, 226); fill-opacity: 1;"/></g><g class="text"/></g><g class="trace scatter trace486847" style="stroke-miterlimit: 2; opacity: 1;"><g class="fills"/><g class="errorbars"/><g class="lines"><path class="js-line" d="M48.15,422.46L337.05,35.83" style="vector-effect: none; fill: none; stroke: rgb(255, 68, 68); stroke-opacity: 1; stroke-width: 2px; opacity: 1;"/></g><g class="points"/><g class="text"/></g><g class="trace scatter tracea101d1" style="stroke-miterlimit: 2; opacity: 1;"><g class="fills"/><g class="errorbars"/><g class="lines"><path class="js-line" d="M48.15,430.35L80.25,387.67L112.35,337.93L144.45,287.16L176.55,239.37L208.65,196.52L240.75,158.58L272.85,123.47L304.95,87.09L337.05,43.31" style="vector-effect: none; fill: none; stroke: rgb(68, 170, 68); stroke-opacity: 1; stroke-width: 2px; opacity: 1;"/></g><g class="points"/><g class="text"/></g></g></g><g class="overplot"/><path class="xlines-above crisp" d="M0,0" style="fill: none;"/><path class="ylines-above crisp" d="M0,0" style="fill: none;"/><g class="overlines-above"/><g class="xaxislayer-above"><g class="xtick"><text text-anchor="middle" x="0" y="469" transform="translate(92.15,0)" style="font-family: 'New Computer Modern'; font-size: 15px; fill: rgb(42, 63, 95); fill-opacity: 1; white-space: pre; opacity: 1;">2</text></g><g class="xtick"><text text-anchor="middle" x="0" y="469" style="font-family: 'New Computer Modern'; font-size: 15px; fill: rgb(42, 63, 95); fill-opacity: 1; white-space: pre; opacity: 1;" transform="translate(188.45,0)">4</text></g><g class="xtick"><text text-anchor="middle" x="0" y="469" style="font-family: 'New Computer Modern'; font-size: 15px; fill: rgb(42, 63, 95); fill-opacity: 1; white-space: pre; opacity: 1;" transform="translate(284.75,0)">6</text></g><g class="xtick"><text text-anchor="middle" x="0" y="469" style="font-family: 'New Computer Modern'; font-size: 15px; fill: rgb(42, 63, 95); fill-opacity: 1; white-space: pre; opacity: 1;" transform="translate(381.05,0)">8</text></g></g><g class="yaxislayer-above"><g class="ytick"><text text-anchor="end" x="43" y="5.25" transform="translate(0,421.1)" style="font-family: 'New Computer Modern'; font-size: 15px; fill: rgb(42, 63, 95); fill-opacity: 1; white-space: pre; opacity: 1;">6</text></g><g class="ytick"><text text-anchor="end" x="43" y="5.25" style="font-family: 'New Computer Modern'; font-size: 15px; fill: rgb(42, 63, 95); fill-opacity: 1; white-space: pre; opacity: 1;" transform="translate(0,355.99)">8</text></g><g class="ytick"><text text-anchor="end" x="43" y="5.25" style="font-family: 'New Computer Modern'; font-size: 15px; fill: rgb(42, 63, 95); fill-opacity: 1; white-space: pre; opacity: 1;" transform="translate(0,290.88)">10</text></g><g class="ytick"><text text-anchor="end" x="43" y="5.25" style="font-family: 'New Computer Modern'; font-size: 15px; fill: rgb(42, 63, 95); fill-opacity: 1; white-space: pre; opacity: 1;" transform="translate(0,225.76)">12</text></g><g class="ytick"><text text-anchor="end" x="43" y="5.25" style="font-family: 'New Computer Modern'; font-size: 15px; fill: rgb(42, 63, 95); fill-opacity: 1; white-space: pre; opacity: 1;" transform="translate(0,160.65)">14</text></g><g class="ytick"><text text-anchor="end" x="43" y="5.25" style="font-family: 'New Computer Modern'; font-size: 15px; fill: rgb(42, 63, 95); fill-opacity: 1; white-space: pre; opacity: 1;" transform="translate(0,95.54)">16</text></g><g class="ytick"><text text-anchor="end" x="43" y="5.25" style="font-family: 'New Computer Modern'; font-size: 15px; fill: rgb(42, 63, 95); fill-opacity: 1; white-space: pre; opacity: 1;" transform="translate(0,30.42)">18</text></g></g><g class="overaxes-above"/></g><g class="subplot x2y2"><g class="layer-subplot"><g class="shapelayer"/><g class="imagelayer"/></g><g class="minor-gridlayer"><g class="x2"/><g class="y2"/></g><g class="gridlayer"><g class="x2"><path class="x2grid crisp" transform="translate(707.4,0)" d="M0,0v453" style="stroke: rgb(235, 240, 248); stroke-opacity: 1; stroke-width: 1px;"/><path class="x2grid crisp" transform="translate(844.97,0)" d="M0,0v453" style="stroke: rgb(235, 240, 248); stroke-opacity: 1; stroke-width: 1px;"/></g><g class="y2"><path class="y2grid crisp" transform="translate(0,334.33)" d="M514.8,0h385.2" style="stroke: rgb(235, 240, 248); stroke-opacity: 1; stroke-width: 1px;"/><path class="y2grid crisp" transform="translate(0,254.03)" d="M514.8,0h385.2" style="stroke: rgb(235, 240, 248); stroke-opacity: 1; stroke-width: 1px;"/><path class="y2grid crisp" transform="translate(0,173.74)" d="M514.8,0h385.2" style="stroke: rgb(235, 240, 248); stroke-opacity: 1; stroke-width: 1px;"/><path class="y2grid crisp" transform="translate(0,93.44)" d="M514.8,0h385.2" style="stroke: rgb(235, 240, 248); stroke-opacity: 1; stroke-width: 1px;"/><path class="y2grid crisp" transform="translate(0,13.15)" d="M514.8,0h385.2" style="stroke: rgb(235, 240, 248); stroke-opacity: 1; stroke-width: 1px;"/></g></g><g class="zerolinelayer"><path class="x2zl zl crisp" transform="translate(569.8299999999999,0)" d="M0,0v453" style="stroke: rgb(235, 240, 248); stroke-opacity: 1; stroke-width: 2px;"/><path class="y2zl zl crisp" transform="translate(0,414.62)" d="M514.8,0h385.2" style="stroke: rgb(235, 240, 248); stroke-opacity: 1; stroke-width: 2px;"/></g><path class="xlines-below"/><path class="ylines-below"/><g class="overlines-below"/><g class="xaxislayer-below"/><g class="yaxislayer-below"/><g class="overaxes-below"/><g class="plot" transform="translate(514.8,0)" clip-path="url(#clipa6e459x2y2plot)"><g class="scatterlayer mlayer"><g class="trace scatter trace140295" style="stroke-miterlimit: 2; opacity: 1;"><g class="fills"/><g class="errorbars"/><g class="lines"/><g class="points"><path class="point" transform="translate(110.06,366.5)" d="M4,0A4,4 0 1,1 0,-4A4,4 0 0,1 4,0Z" style="opacity: 1; stroke-width: 0px; fill: rgb(74, 144, 226); fill-opacity: 1;"/><path class="point" transform="translate(128.4,365.99)" d="M4,0A4,4 0 1,1 0,-4A4,4 0 0,1 4,0Z" style="opacity: 1; stroke-width: 0px; fill: rgb(74, 144, 226); fill-opacity: 1;"/><path class="point" transform="translate(146.74,342.66)" d="M4,0A4,4 0 1,1 0,-4A4,4 0 0,1 4,0Z" style="opacity: 1; stroke-width: 0px; fill: rgb(74, 144, 226); fill-opacity: 1;"/><path class="point" transform="translate(165.09,317.9)" d="M4,0A4,4 0 1,1 0,-4A4,4 0 0,1 4,0Z" style="opacity: 1; stroke-width: 0px; fill: rgb(74, 144, 226); fill-opacity: 1;"/><path class="point" transform="translate(183.43,335.41)" d="M4,0A4,4 0 1,1 0,-4A4,4 0 0,1 4,0Z" style="opacity: 1; stroke-width: 0px; fill: rgb(74, 144, 226); fill-opacity: 1;"/><path class="point" transform="translate(201.77,324.7)" d="M4,0A4,4 0 1,1 0,-4A4,4 0 0,1 4,0Z" style="opacity: 1; stroke-width: 0px; fill: rgb(74, 144, 226); fill-opacity: 1;"/><path class="point" transform="translate(220.11,284.88)" d="M4,0A4,4 0 1,1 0,-4A4,4 0 0,1 4,0Z" style="opacity: 1; stroke-width: 0px; fill: rgb(74, 144, 226); fill-opacity: 1;"/><path class="point" transform="translate(238.46,287.21)" d="M4,0A4,4 0 1,1 0,-4A4,4 0 0,1 4,0Z" style="opacity: 1; stroke-width: 0px; fill: rgb(74, 144, 226); fill-opacity: 1;"/><path class="point" transform="translate(256.8,296.36)" d="M4,0A4,4 0 1,1 0,-4A4,4 0 0,1 4,0Z" style="opacity: 1; stroke-width: 0px; fill: rgb(74, 144, 226); fill-opacity: 1;"/><path class="point" transform="translate(275.14,269.41)" d="M4,0A4,4 0 1,1 0,-4A4,4 0 0,1 4,0Z" style="opacity: 1; stroke-width: 0px; fill: rgb(74, 144, 226); fill-opacity: 1;"/></g><g class="text"/></g><g class="trace scatter trace677d0c" style="stroke-miterlimit: 2; opacity: 1;"><g class="fills"/><g class="errorbars"/><g class="lines"><path class="js-line" d="M0,430.35L385.2,207.85" style="vector-effect: none; fill: none; stroke: rgb(255, 68, 68); stroke-opacity: 1; stroke-width: 2px; opacity: 1;"/></g><g class="points"/><g class="text"/></g><g class="trace scatter trace9477e9" style="stroke-miterlimit: 2; opacity: 1;"><g class="fills"/><g class="errorbars"/><g class="lines"><path class="js-line" d="M0,249.09L9.68,283.22L11.61,289.24L19.36,310.82L21.29,315.63L29.04,332.62L30.97,336.35L38.71,349.29L40.65,352.06L48.39,361.45L50.33,363.39L58.07,369.7L60.01,370.93L67.75,374.59L69.68,375.22L77.43,376.66L79.36,376.77L87.11,376.36L89.04,376.06L98.72,373.51L100.66,372.82L112.27,367.61L114.21,366.59L129.69,357.37L131.63,356.12L191.63,316.73L193.57,315.62L214.86,304.27L216.8,303.32L267.12,278.33L269.06,277.16L280.67,269.37L282.61,267.91L294.22,257.94L296.16,256.04L305.84,245.39L307.77,242.99L317.45,229.51L319.39,226.49L329.07,209.49L331,205.69L340.68,184.42L342.62,179.68L352.29,153.29L354.23,147.45L363.91,115.07L365.84,107.92L375.52,68.58L377.46,59.94L385.2,22.65" style="vector-effect: none; fill: none; stroke: rgb(68, 170, 68); stroke-opacity: 1; stroke-width: 2px; opacity: 1;"/></g><g class="points"/><g class="text"/></g></g></g><g class="overplot"/><path class="xlines-above crisp" d="M0,0" style="fill: none;"/><path class="ylines-above crisp" d="M0,0" style="fill: none;"/><g class="overlines-above"/><g class="xaxislayer-above"><g class="x2tick"><text text-anchor="middle" x="0" y="469" transform="translate(569.8299999999999,0)" style="font-family: 'New Computer Modern'; font-size: 15px; fill: rgb(42, 63, 95); fill-opacity: 1; white-space: pre; opacity: 1;">0</text></g><g class="x2tick"><text text-anchor="middle" x="0" y="469" style="font-family: 'New Computer Modern'; font-size: 15px; fill: rgb(42, 63, 95); fill-opacity: 1; white-space: pre; opacity: 1;" transform="translate(707.4,0)">5</text></g><g class="x2tick"><text text-anchor="middle" x="0" y="469" style="font-family: 'New Computer Modern'; font-size: 15px; fill: rgb(42, 63, 95); fill-opacity: 1; white-space: pre; opacity: 1;" transform="translate(844.97,0)">10</text></g></g><g class="yaxislayer-above"><g class="y2tick"><text text-anchor="end" x="513.8" y="5.25" transform="translate(0,414.62)" style="font-family: 'New Computer Modern'; font-size: 15px; fill: rgb(42, 63, 95); fill-opacity: 1; white-space: pre; opacity: 1;">0</text></g><g class="y2tick"><text text-anchor="end" x="513.8" y="5.25" style="font-family: 'New Computer Modern'; font-size: 15px; fill: rgb(42, 63, 95); fill-opacity: 1; white-space: pre; opacity: 1;" transform="translate(0,334.33)">10</text></g><g class="y2tick"><text text-anchor="end" x="513.8" y="5.25" style="font-family: 'New Computer Modern'; font-size: 15px; fill: rgb(42, 63, 95); fill-opacity: 1; white-space: pre; opacity: 1;" transform="translate(0,254.03)">20</text></g><g class="y2tick"><text text-anchor="end" x="513.8" y="5.25" style="font-family: 'New Computer Modern'; font-size: 15px; fill: rgb(42, 63, 95); fill-opacity: 1; white-space: pre; opacity: 1;" transform="translate(0,173.74)">30</text></g><g class="y2tick"><text text-anchor="end" x="513.8" y="5.25" style="font-family: 'New Computer Modern'; font-size: 15px; fill: rgb(42, 63, 95); fill-opacity: 1; white-space: pre; opacity: 1;" transform="translate(0,93.44)">40</text></g><g class="y2tick"><text text-anchor="end" x="513.8" y="5.25" style="font-family: 'New Computer Modern'; font-size: 15px; fill: rgb(42, 63, 95); fill-opacity: 1; white-space: pre; opacity: 1;" transform="translate(0,13.15)">50</text></g></g><g class="overaxes-above"/></g></g><g class="polarlayer"/><g class="smithlayer"/><g class="ternarylayer"/><g class="geolayer"/><g class="funnelarealayer"/><g class="pielayer"/><g class="iciclelayer"/><g class="treemaplayer"/><g class="sunburstlayer"/><g class="glimages"/><defs id="topdefs-a6e459"><g class="clips"/><clipPath id="legenda6e459"><rect width="185" height="78" x="0" y="0"/></clipPath></defs><g class="layer-above"><g class="imagelayer"/><g class="shapelayer"><g class="shape-group" data-index="0" clip-path="url(#clipa6e459x2)"><path data-index="0" fill-rule="evenodd" d="M514.8,453H624.8599999999999V0H514.8Z" style="opacity: 0.1; stroke: rgb(0, 0, 0); stroke-opacity: 0; fill: rgb(255, 149, 0); fill-opacity: 1; stroke-width: 0px;"/></g><g class="shape-group" data-index="1" clip-path="url(#clipa6e459x2)"><path data-index="1" fill-rule="evenodd" d="M789.9399999999999,453H900V0H789.9399999999999Z" style="opacity: 0.1; stroke: rgb(0, 0, 0); stroke-opacity: 0; fill: rgb(255, 149, 0); fill-opacity: 1; stroke-width: 0px;"/></g></g></g><g class="infolayer"><g class="legend" pointer-events="all" transform="translate(543.8000000000001,9.060000000000008)"><rect class="bg" shape-rendering="crispEdges" style="stroke: rgb(68, 68, 68); stroke-opacity: 1; fill: rgb(0, 0, 0); fill-opacity: 0; stroke-width: 0px;" width="185" height="78" x="0" y="0"/><g class="scrollbox" transform="" clip-path="url(#legenda6e459)"><g class="groups"><g class="traces" transform="translate(0,16.25)" style="opacity: 1;"><text class="legendtext" text-anchor="start" x="40" y="5.85" style="font-family: 'New Computer Modern'; font-size: 15px; fill: rgb(42, 63, 95); fill-opacity: 1; white-space: pre;">Training Data</text><g class="layers" style="opacity: 1;"><g class="legendfill"/><g class="legendlines"/><g class="legendsymbols"><g class="legendpoints"><path class="scatterpts" transform="translate(20,0)" d="M4,0A4,4 0 1,1 0,-4A4,4 0 0,1 4,0Z" style="opacity: 1; stroke-width: 0px; fill: rgb(74, 144, 226); fill-opacity: 1;"/></g></g></g><rect class="legendtoggle" x="0" y="-11.25" width="179.140625" height="22.5" style="fill: rgb(0, 0, 0); fill-opacity: 0;"/></g><g class="traces" transform="translate(0,38.75)" style="opacity: 1;"><text class="legendtext" text-anchor="start" x="40" y="5.85" style="font-family: 'New Computer Modern'; font-size: 15px; fill: rgb(42, 63, 95); fill-opacity: 1; white-space: pre;">Linear Model</text><g class="layers" style="opacity: 1;"><g class="legendfill"/><g class="legendlines"><path class="js-line" d="M5,0h30" style="fill: none; stroke: rgb(255, 68, 68); stroke-opacity: 1; stroke-width: 2px;"/></g><g class="legendsymbols"><g class="legendpoints"/></g></g><rect class="legendtoggle" x="0" y="-11.25" width="179.140625" height="22.5" style="fill: rgb(0, 0, 0); fill-opacity: 0;"/></g><g class="traces" transform="translate(0,61.25)" style="opacity: 1;"><text class="legendtext" text-anchor="start" x="40" y="5.85" style="font-family: 'New Computer Modern'; font-size: 15px; fill: rgb(42, 63, 95); fill-opacity: 1; white-space: pre;">4th Degree Polynomial</text><g class="layers" style="opacity: 1;"><g class="legendfill"/><g class="legendlines"><path class="js-line" d="M5,0h30" style="fill: none; stroke: rgb(68, 170, 68); stroke-opacity: 1; stroke-width: 2px;"/></g><g class="legendsymbols"><g class="legendpoints"/></g></g><rect class="legendtoggle" x="0" y="-11.25" width="179.140625" height="22.5" style="fill: rgb(0, 0, 0); fill-opacity: 0;"/></g></g></g><rect class="scrollbar" rx="20" ry="3" width="0" height="0" style="fill: rgb(128, 139, 164); fill-opacity: 1;" x="0" y="0"/></g><g class="g-gtitle"/><g class="g-xtitle" transform="translate(0,-3.1000000000000227)"><text class="xtitle" x="236.6" y="499.1" text-anchor="middle" style="font-family: 'New Computer Modern'; font-size: 18px; fill: rgb(42, 63, 95); opacity: 1; font-weight: normal; white-space: pre;">Input Variable</text></g><g class="g-x2title" transform="translate(0,-3.1000000000000227)"><text class="x2title" x="707.4" y="499.1" text-anchor="middle" style="font-family: 'New Computer Modern'; font-size: 18px; fill: rgb(42, 63, 95); opacity: 1; font-weight: normal; white-space: pre;">Input Variable</text></g><g class="g-ytitle" transform="translate(15.099609375,0)"><text class="ytitle" transform="rotate(-90,0.8999999999999986,226.5)" x="0.8999999999999986" y="226.5" text-anchor="middle" style="font-family: 'New Computer Modern'; font-size: 18px; fill: rgb(42, 63, 95); opacity: 1; font-weight: normal; white-space: pre;">Output Variable</text></g><g class="g-y2title"><text class="y2title" transform="rotate(-90,471.696875,226.5)" x="471.696875" y="226.5" text-anchor="middle" style="font-family: 'New Computer Modern'; font-size: 18px; fill: rgb(42, 63, 95); opacity: 1; font-weight: normal; white-space: pre;">Output Variable</text></g><g class="annotation" data-index="0" style="opacity: 1;"><g class="annotation-text-g" transform="rotate(0,236.6,-10.000000000000004)"><g class="cursor-pointer" transform="translate(190,-20)"><rect class="bg" x="0.5" y="0.5" width="93" height="19" style="stroke-width: 1px; stroke: rgb(0, 0, 0); stroke-opacity: 0; fill: rgb(0, 0, 0); fill-opacity: 0;"/><text class="annotation-text" text-anchor="middle" x="46.9375" y="15" style="font-family: 'New Computer Modern'; font-size: 15px; fill: rgb(42, 63, 95); fill-opacity: 1; white-space: pre;">Training Phase</text></g></g></g><g class="annotation" data-index="1" style="opacity: 1;"><g class="annotation-text-g" transform="rotate(0,707.4,-10.500000000000007)"><g class="cursor-pointer" transform="translate(601,-21)"><rect class="bg" x="0.5" y="0.5" width="212" height="20" style="stroke-width: 1px; stroke: rgb(0, 0, 0); stroke-opacity: 0; fill: rgb(0, 0, 0); fill-opacity: 0;"/><text class="annotation-text" text-anchor="middle" x="106.25" y="15" style="font-family: 'New Computer Modern'; font-size: 15px; fill: rgb(42, 63, 95); fill-opacity: 1; white-space: pre;">Testing Phase (with Extrapolation)</text></g></g></g></g></svg>