<svg width="1877" height="1411" xmlns="http://www.w3.org/2000/svg" xmlns:xlink="http://www.w3.org/1999/xlink" overflow="hidden"><defs><clipPath id="clip0"><rect x="348" y="791" width="1877" height="1411"/></clipPath></defs><g clip-path="url(#clip0)" transform="translate(-348 -791)"><rect x="1521.5" y="1194.76" width="537.741" height="219.741" fill="#00305D"/><path d="M2059.24 1194.76 2188.5 1065.5 2188.5 1285.24 2059.24 1414.5Z" fill="#00274B" fill-rule="evenodd"/><path d="M1521.5 1194.76 1650.76 1065.5 2188.5 1065.5 2059.24 1194.76Z" fill="#32597D" fill-rule="evenodd"/><path d="M1521.5 1194.76 1650.76 1065.5 2188.5 1065.5 2188.5 1285.24 2059.24 1414.5 1521.5 1414.5ZM1521.5 1194.76 2059.24 1194.76 2188.5 1065.5M2059.24 1194.76 2059.24 1414.5" stroke="#002042" stroke-width="4.58333" stroke-miterlimit="8" fill="none" fill-rule="evenodd"/><path d="M1864.81 791.5 1864.81 1121.41 1844.19 1121.41 1844.19 791.5ZM1885.44 1111.09 1854.5 1172.97 1823.56 1111.09Z" fill="#65B32E"/><path d="M1925.94 909.738 1962.5 909.738 1959.7 922.18 1955.81 922.18C1955.7 920.099 1955.53 918.458 1955.3 917.256 1955.07 916.053 1954.75 915.189 1954.33 914.662 1953.91 914.135 1953.41 913.777 1952.81 913.588 1952.22 913.399 1951.33 913.304 1950.14 913.304L1937.65 913.304 1932.83 935.351 1940.41 935.351C1941.6 935.351 1942.58 935.189 1943.37 934.865 1944.15 934.541 1944.88 933.953 1945.56 933.102 1946.23 932.251 1947.07 930.799 1948.07 928.745L1951.76 928.745 1947.83 945.848 1944.26 945.848C1944.26 943.119 1944.17 941.41 1944 940.721 1943.82 940.032 1943.48 939.559 1942.98 939.303 1942.48 939.046 1941.49 938.918 1940 938.918L1932.06 938.918 1928.86 953.264C1928.29 955.804 1928.01 957.911 1928.01 959.587 1928.01 960.424 1928.14 961.079 1928.41 961.552 1928.68 962.025 1929.09 962.37 1929.63 962.586 1930.17 962.802 1931.1 962.964 1932.43 963.072L1931.98 965.058 1915.32 965.058 1915.77 963.072C1916.8 962.91 1917.57 962.646 1918.08 962.282 1918.59 961.917 1919.03 961.41 1919.38 960.762 1919.73 960.113 1920.05 959.323 1920.35 958.391 1920.65 957.459 1921.09 955.655 1921.69 952.981L1928.58 921.775C1929.17 919.073 1929.47 916.938 1929.47 915.371 1929.47 914.047 1929.16 913.129 1928.54 912.615 1927.91 912.102 1926.9 911.805 1925.5 911.724Z" fill="#65B32E" fill-rule="evenodd"/><text fill="#000000" fill-opacity="0" font-family="Arial,Arial_MSFontService,sans-serif" font-size="55.3198" x="1915.32" y="958.143">𝐹</text><path d="M1975.4 954.44C1974.23 954.44 1973.14 954.698 1972.12 955.214 1971.11 955.73 1970.19 956.435 1969.35 957.329 1968.52 958.222 1967.78 959.255 1967.13 960.426 1966.49 961.598 1965.94 962.839 1965.5 964.15 1965.05 965.46 1964.71 966.805 1964.48 968.185 1964.26 969.566 1964.14 970.891 1964.14 972.162 1964.14 974.306 1964.44 975.9 1965.05 976.942 1965.65 977.985 1966.63 978.506 1967.98 978.506 1968.66 978.506 1969.31 978.387 1969.93 978.149 1970.56 977.91 1971.22 977.533 1971.91 977.017 1973.66 975.647 1975.15 973.979 1976.38 972.013 1977.61 970.047 1978.54 967.724 1979.15 965.043 1979.43 963.812 1979.65 962.7 1979.81 961.707 1979.97 960.714 1980.05 959.771 1980.05 958.878 1980.05 957.289 1979.67 956.152 1978.93 955.467 1978.18 954.782 1977.01 954.44 1975.4 954.44ZM1974.86 951.491C1976.43 951.491 1977.82 951.675 1979.02 952.042 1980.22 952.409 1981.32 952.911 1982.31 953.546L1985.2 951.491 1987.61 952.116 1983.11 971.626C1982.86 972.738 1982.68 973.656 1982.58 974.381 1982.48 975.106 1982.43 975.746 1982.43 976.302 1982.43 977.057 1982.58 977.603 1982.89 977.94 1983.2 978.278 1983.64 978.446 1984.22 978.446 1984.57 978.446 1984.93 978.377 1985.27 978.238 1985.62 978.099 1986 977.881 1986.41 977.583 1986.81 977.285 1987.26 976.903 1987.75 976.436 1988.23 975.969 1988.78 975.408 1989.4 974.753 1989.72 975.091 1990.04 975.423 1990.38 975.751 1990.72 976.079 1991.05 976.401 1991.36 976.719 1990.37 977.732 1989.47 978.6 1988.65 979.325 1987.84 980.05 1987.05 980.646 1986.29 981.112 1985.52 981.579 1984.77 981.916 1984.04 982.125 1983.3 982.333 1982.54 982.438 1981.74 982.438 1980.31 982.438 1979.2 981.976 1978.41 981.053 1977.61 980.129 1977.22 978.863 1977.22 977.255 1977.22 976.362 1977.36 975.508 1977.63 974.694L1977.22 974.515C1976.2 975.925 1975.22 977.126 1974.27 978.119 1973.31 979.112 1972.37 979.931 1971.44 980.576 1970.51 981.221 1969.56 981.693 1968.61 981.991 1967.66 982.289 1966.66 982.438 1965.63 982.438 1963.27 982.438 1961.44 981.589 1960.15 979.891 1958.86 978.193 1958.21 975.726 1958.21 972.489 1958.21 970.563 1958.42 968.712 1958.82 966.935 1959.23 965.157 1959.81 963.489 1960.55 961.931 1961.3 960.372 1962.18 958.952 1963.22 957.671 1964.25 956.391 1965.38 955.293 1966.61 954.38 1967.84 953.467 1969.15 952.757 1970.54 952.25 1971.93 951.744 1973.37 951.491 1974.86 951.491Z" fill="#65B32E" fill-rule="evenodd"/><text fill="#000000" fill-opacity="0" font-family="Arial,Arial_MSFontService,sans-serif" font-size="30.9468" x="1958.21" y="978.569">𝑎</text><path d="M1997.67 974.991 2002.88 974.991C2003.16 976.381 2003.3 977.751 2003.3 979.102 2003.3 980.492 2003.06 981.763 2002.59 982.914 2002.11 984.066 2001.35 985.213 2000.31 986.354 1999.27 987.496 1997.83 988.752 1996 990.122L1994.4 988.305C1995.41 987.352 1996.14 986.493 1996.6 985.729 1997.06 984.964 1997.38 984.096 1997.58 983.123 1997.78 982.15 1997.88 980.929 1997.88 979.459 1997.88 977.95 1997.81 976.461 1997.67 974.991Z" fill="#65B32E" fill-rule="evenodd"/><text fill="#000000" fill-opacity="0" font-family="Arial,Arial_MSFontService,sans-serif" font-size="15.1309" x="1994.4" y="988.231">,</text><path d="M2020.58 951.789 2022.04 951.789 2017.63 971.626C2017.35 972.797 2017.16 973.73 2017.05 974.425 2016.94 975.12 2016.89 975.746 2016.89 976.302 2016.89 977.057 2017.04 977.603 2017.35 977.94 2017.66 978.278 2018.12 978.446 2018.73 978.446 2019.09 978.446 2019.45 978.377 2019.81 978.238 2020.16 978.099 2020.55 977.881 2020.95 977.583 2021.36 977.285 2021.81 976.903 2022.29 976.436 2022.78 975.969 2023.32 975.408 2023.92 974.753L2025.94 976.719C2024.91 977.771 2023.97 978.66 2023.13 979.385 2022.28 980.109 2021.48 980.7 2020.73 981.157 2019.98 981.614 2019.24 981.941 2018.51 982.14 2017.79 982.338 2017.02 982.438 2016.2 982.438 2015.45 982.438 2014.77 982.299 2014.16 982.021 2013.56 981.743 2013.04 981.36 2012.6 980.874 2012.16 980.387 2011.82 979.807 2011.59 979.132 2011.35 978.456 2011.23 977.712 2011.23 976.898 2011.23 976.242 2011.31 975.428 2011.47 974.455 2011.63 973.482 2011.83 972.425 2012.08 971.283 2012.33 970.141 2012.6 968.945 2012.9 967.694 2013.19 966.443 2013.49 965.202 2013.78 963.971 2014.06 962.74 2014.32 961.553 2014.55 960.412 2014.78 959.27 2014.94 958.232 2015.04 957.299 2015.08 957.14 2015.1 956.986 2015.1 956.837 2015.1 956.688 2015.1 956.554 2015.1 956.435 2015.06 955.661 2014.79 955.095 2014.28 954.737 2013.78 954.38 2012.88 954.182 2011.59 954.142L2011.94 952.116ZM2018.85 939.785 2024.81 939.785 2023.35 946.189 2017.45 946.189Z" fill="#65B32E" fill-rule="evenodd"/><text fill="#000000" fill-opacity="0" font-family="Arial,Arial_MSFontService,sans-serif" font-size="42.6523" x="2011.23" y="977.106">𝑖</text><path d="M2060.53 906.334 2078.61 906.334 2078.61 909.454 2067.26 909.454 2067.26 980.499 2078.61 980.499 2078.61 983.619 2060.53 983.619Z" fill="#65B32E" fill-rule="evenodd"/><text fill="#000000" fill-opacity="0" font-family="Arial,Arial_MSFontService,sans-serif" font-size="77.2856" x="2060.53" y="973.959">[</text><path d="M2092.79 909.738 2105.71 909.738 2116.41 941.309C2117.95 945.848 2119.14 949.684 2119.98 952.819L2120.43 952.819C2120.64 951.17 2121.13 948.428 2121.9 944.591 2122.67 940.755 2123.38 937.405 2124.03 934.541L2126.87 921.775C2127.46 919.1 2127.76 916.925 2127.76 915.25 2127.76 913.98 2127.44 913.095 2126.81 912.595 2126.17 912.095 2125.17 911.805 2123.79 911.724L2124.23 909.738 2138.42 909.738 2137.97 911.724C2136.95 911.94 2136.21 912.183 2135.76 912.453 2135.32 912.724 2134.92 913.129 2134.57 913.669 2134.22 914.209 2133.85 915.054 2133.48 916.202 2133.1 917.35 2132.62 919.221 2132.06 921.815L2122.53 965.058 2117.02 965.058 2105.19 930.285C2103.76 926.125 2102.5 921.977 2101.42 917.843L2100.89 917.843C2100.73 919.221 2100.28 921.849 2099.55 925.726 2098.82 929.603 2098.05 933.392 2097.24 937.094L2093.68 953.264C2093.11 955.831 2092.83 957.938 2092.83 959.587 2092.83 960.802 2093.13 961.66 2093.74 962.16 2094.35 962.66 2095.37 962.964 2096.8 963.072L2096.35 965.058 2082.17 965.058 2082.61 963.072C2083.64 962.91 2084.41 962.646 2084.92 962.282 2085.44 961.917 2085.87 961.41 2086.22 960.762 2086.57 960.113 2086.9 959.323 2087.19 958.391 2087.49 957.459 2087.94 955.655 2088.53 952.981L2095.42 921.775C2095.69 920.613 2095.91 919.505 2096.07 918.451 2096.23 917.398 2096.31 916.33 2096.31 915.25 2096.31 913.98 2095.99 913.095 2095.36 912.595 2094.72 912.095 2093.72 911.805 2092.34 911.724Z" fill="#65B32E" fill-rule="evenodd"/><text fill="#000000" fill-opacity="0" font-family="Arial,Arial_MSFontService,sans-serif" font-size="55.3198" x="2082.17" y="958.143">𝑁</text><path d="M2143.85 906.334 2161.93 906.334 2161.93 983.619 2143.85 983.619 2143.85 980.499 2155.2 980.499 2155.2 909.454 2143.85 909.454Z" fill="#65B32E" fill-rule="evenodd"/><text fill="#000000" fill-opacity="0" font-family="Arial,Arial_MSFontService,sans-serif" font-size="77.2856" x="2143.85" y="973.959">]</text><rect x="360.5" y="1185.76" width="537.741" height="219.74" fill="#00305D"/><path d="M898.241 1185.76 1027.5 1056.5 1027.5 1276.24 898.241 1405.5Z" fill="#00274B" fill-rule="evenodd"/><path d="M360.5 1185.76 489.759 1056.5 1027.5 1056.5 898.241 1185.76Z" fill="#32597D" fill-rule="evenodd"/><path d="M360.5 1185.76 489.759 1056.5 1027.5 1056.5 1027.5 1276.24 898.241 1405.5 360.5 1405.5ZM360.5 1185.76 898.241 1185.76 1027.5 1056.5M898.241 1185.76 898.241 1405.5" stroke="#002042" stroke-width="4.58333" stroke-miterlimit="8" fill="none" fill-rule="evenodd"/><path d="M488.812 969.5 488.813 1092.27 468.188 1092.27 468.188 969.5ZM509.438 1081.96 478.5 1143.83 447.563 1081.96Z" fill="#009FE3"/><path d="M596.812 969.5 596.813 1092.27 576.188 1092.27 576.187 969.5ZM617.438 1081.96 586.5 1143.83 555.563 1081.96Z" fill="#009FE3"/><path d="M810.813 969.5 810.813 1092.27 790.188 1092.27 790.188 969.5ZM831.438 1081.96 800.5 1143.83 769.563 1081.96Z" fill="#009FE3"/><path d="M917.812 969.5 917.813 1092.27 897.188 1092.27 897.188 969.5ZM938.438 1081.96 907.5 1143.83 876.563 1081.96Z" fill="#009FE3"/><path d="M703.812 969.5 703.813 1092.27 683.188 1092.27 683.187 969.5ZM724.438 1081.96 693.5 1143.83 662.563 1081.96Z" fill="#009FE3"/><path d="M0 0 450.421 1.38763" stroke="#009FE3" stroke-width="13.75" stroke-miterlimit="8" fill="none" fill-rule="evenodd" transform="matrix(1 0 0 -1 468 970.388)"/><path d="M633.05 881.07C630.294 881.07 627.822 882.184 625.634 884.413 623.445 886.642 621.723 889.648 620.467 893.431 619.21 897.213 618.582 900.982 618.582 904.738 618.582 907.548 618.967 909.648 619.737 911.04 620.507 912.431 621.797 913.127 623.607 913.127 624.445 913.127 625.296 912.945 626.161 912.58 627.025 912.215 627.924 911.627 628.856 910.817 629.788 910.006 630.707 909.02 631.612 907.858 632.517 906.697 633.348 905.528 634.104 904.353 634.861 903.177 635.563 901.786 636.211 900.178 636.86 898.571 637.414 896.632 637.873 894.363L638.238 892.62C638.643 890.675 638.846 888.838 638.846 887.108 638.846 885.001 638.4 883.468 637.508 882.509 636.617 881.549 635.131 881.07 633.05 881.07ZM632.321 877.868C633.996 877.868 635.59 878.064 637.103 878.456 638.616 878.848 640.183 879.543 641.804 880.543L645.533 877.868 648.127 878.517 637.752 924.596C637.292 926.65 637.063 928.19 637.063 929.216 637.063 930.405 637.367 931.249 637.974 931.749 638.582 932.249 639.778 932.58 641.561 932.742L641.196 934.728 628.552 934.728 635.523 908.142 634.955 907.899C632.632 911.168 630.261 913.654 627.843 915.356 625.424 917.058 623.067 917.909 620.771 917.909 617.799 917.909 615.495 916.788 613.861 914.545 612.226 912.303 611.409 909.155 611.409 905.103 611.409 900.455 612.321 895.991 614.144 891.708 615.968 887.426 618.474 884.049 621.662 881.576 624.85 879.104 628.403 877.868 632.321 877.868Z" fill="#009FE3" fill-rule="evenodd"/><text fill="#000000" fill-opacity="0" font-family="Arial,Arial_MSFontService,sans-serif" font-size="56.8599" x="611.409" y="927.621">𝑞</text><path d="M671.235 906.683C670.064 906.683 668.972 906.941 667.959 907.458 666.946 907.974 666.023 908.679 665.189 909.572 664.355 910.466 663.615 911.498 662.97 912.67 662.325 913.841 661.779 915.083 661.332 916.393 660.885 917.704 660.547 919.049 660.319 920.429 660.091 921.809 659.977 923.134 659.977 924.405 659.977 926.55 660.279 928.143 660.885 929.186 661.491 930.228 662.469 930.75 663.819 930.75 664.494 930.75 665.144 930.63 665.77 930.392 666.395 930.154 667.055 929.777 667.75 929.26 669.498 927.89 670.987 926.222 672.218 924.256 673.449 922.291 674.373 919.967 674.988 917.287 675.266 916.055 675.485 914.944 675.643 913.951 675.802 912.958 675.882 912.015 675.882 911.121 675.882 909.533 675.509 908.396 674.765 907.711 674.02 907.026 672.844 906.683 671.235 906.683ZM670.699 903.734C672.268 903.734 673.653 903.918 674.854 904.285 676.056 904.653 677.153 905.154 678.145 905.79L681.035 903.734 683.447 904.36 678.95 923.869C678.692 924.981 678.513 925.899 678.414 926.624 678.314 927.349 678.265 927.989 678.265 928.545 678.265 929.3 678.418 929.846 678.726 930.184 679.034 930.521 679.476 930.69 680.052 930.69 680.409 930.69 680.762 930.62 681.109 930.481 681.457 930.342 681.834 930.124 682.241 929.826 682.648 929.528 683.095 929.146 683.581 928.679 684.068 928.213 684.619 927.652 685.234 926.997 685.552 927.334 685.88 927.667 686.217 927.994 686.555 928.322 686.882 928.645 687.2 928.962 686.207 929.975 685.304 930.844 684.49 931.569 683.676 932.293 682.886 932.889 682.122 933.356 681.357 933.822 680.608 934.16 679.873 934.368 679.138 934.577 678.374 934.681 677.58 934.681 676.15 934.681 675.038 934.219 674.244 933.296 673.449 932.373 673.052 931.107 673.052 929.499 673.052 928.605 673.191 927.751 673.469 926.937L673.052 926.758C672.039 928.168 671.057 929.369 670.103 930.362 669.15 931.355 668.207 932.174 667.274 932.82 666.341 933.465 665.397 933.937 664.444 934.234 663.491 934.532 662.498 934.681 661.466 934.681 659.103 934.681 657.276 933.832 655.985 932.135 654.695 930.437 654.049 927.97 654.049 924.733 654.049 922.807 654.253 920.955 654.66 919.178 655.067 917.401 655.643 915.733 656.387 914.174 657.132 912.615 658.021 911.196 659.053 909.915 660.086 908.634 661.218 907.537 662.449 906.624 663.68 905.71 664.99 905 666.38 904.494 667.77 903.988 669.21 903.734 670.699 903.734Z" fill="#009FE3" fill-rule="evenodd"/><text fill="#000000" fill-opacity="0" font-family="Arial,Arial_MSFontService,sans-serif" font-size="30.9468" x="654.049" y="930.813">𝑎</text><path d="M693.507 927.235 698.72 927.235C698.998 928.625 699.137 929.995 699.137 931.345 699.137 932.735 698.898 934.006 698.422 935.158 697.945 936.309 697.186 937.456 696.143 938.598 695.101 939.74 693.666 940.996 691.839 942.366L690.231 940.549C691.243 939.596 691.978 938.737 692.435 937.972 692.892 937.208 693.219 936.339 693.418 935.366 693.616 934.393 693.716 933.172 693.716 931.703 693.716 930.194 693.646 928.704 693.507 927.235Z" fill="#009FE3" fill-rule="evenodd"/><text fill="#000000" fill-opacity="0" font-family="Arial,Arial_MSFontService,sans-serif" font-size="15.1309" x="690.231" y="940.474">,</text><path d="M716.417 904.032 717.876 904.032 713.468 923.869C713.19 925.041 712.997 925.974 712.887 926.669 712.778 927.364 712.724 927.989 712.724 928.545 712.724 929.3 712.877 929.846 713.185 930.184 713.493 930.521 713.955 930.69 714.57 930.69 714.928 930.69 715.285 930.62 715.643 930.481 716 930.342 716.382 930.124 716.789 929.826 717.196 929.528 717.643 929.146 718.13 928.679 718.616 928.213 719.157 927.652 719.753 926.997L721.778 928.962C720.746 930.015 719.807 930.903 718.964 931.628 718.12 932.353 717.32 932.944 716.566 933.4 715.811 933.857 715.072 934.185 714.347 934.383 713.622 934.582 712.853 934.681 712.039 934.681 711.284 934.681 710.604 934.542 709.998 934.264 709.393 933.986 708.871 933.604 708.435 933.117 707.998 932.631 707.66 932.05 707.422 931.375 707.184 930.7 707.064 929.955 707.064 929.141 707.064 928.486 707.144 927.672 707.303 926.699 707.462 925.726 707.665 924.668 707.913 923.527 708.161 922.385 708.435 921.188 708.732 919.938 709.03 918.687 709.323 917.445 709.611 916.214 709.899 914.983 710.157 913.797 710.385 912.655 710.614 911.513 710.778 910.476 710.877 909.542 710.917 909.384 710.936 909.23 710.936 909.081 710.936 908.932 710.936 908.798 710.936 908.679 710.897 907.904 710.624 907.338 710.117 906.981 709.611 906.624 708.713 906.425 707.422 906.385L707.779 904.36ZM714.689 892.029 720.646 892.029 719.187 898.433 713.289 898.433Z" fill="#009FE3" fill-rule="evenodd"/><text fill="#000000" fill-opacity="0" font-family="Arial,Arial_MSFontService,sans-serif" font-size="42.6523" x="707.064" y="929.35">𝑖</text><path d="M756.369 858.577 774.444 858.577 774.444 861.698 763.096 861.698 763.096 932.742 774.444 932.742 774.444 935.863 756.369 935.863Z" fill="#009FE3" fill-rule="evenodd"/><text fill="#000000" fill-opacity="0" font-family="Arial,Arial_MSFontService,sans-serif" font-size="77.2856" x="756.369" y="926.202">[</text><path d="M788.621 861.981 801.55 861.981 812.249 893.552C813.789 898.091 814.978 901.928 815.815 905.062L816.261 905.062C816.477 903.414 816.97 900.672 817.74 896.835 818.51 892.998 819.22 889.648 819.868 886.784L822.705 874.018C823.299 871.343 823.596 869.168 823.596 867.493 823.596 866.223 823.279 865.338 822.644 864.839 822.009 864.339 821.003 864.048 819.625 863.967L820.071 861.981 834.255 861.981 833.809 863.967C832.783 864.183 832.046 864.427 831.601 864.697 831.155 864.967 830.756 865.372 830.405 865.913 830.054 866.453 829.689 867.297 829.311 868.446 828.933 869.594 828.46 871.465 827.892 874.059L818.368 917.301 812.857 917.301 801.023 882.529C799.591 878.368 798.334 874.221 797.254 870.087L796.727 870.087C796.565 871.465 796.119 874.092 795.389 877.969 794.66 881.847 793.89 885.636 793.079 889.337L789.513 905.508C788.946 908.075 788.662 910.182 788.662 911.83 788.662 913.046 788.966 913.904 789.574 914.404 790.182 914.903 791.202 915.207 792.634 915.315L792.188 917.301 778.003 917.301 778.449 915.315C779.476 915.153 780.246 914.89 780.759 914.525 781.272 914.16 781.705 913.654 782.056 913.005 782.407 912.357 782.731 911.567 783.029 910.635 783.326 909.702 783.772 907.899 784.366 905.224L791.256 874.018C791.526 872.856 791.742 871.749 791.904 870.695 792.066 869.641 792.147 868.574 792.147 867.493 792.147 866.223 791.83 865.338 791.195 864.839 790.56 864.339 789.554 864.048 788.176 863.967Z" fill="#009FE3" fill-rule="evenodd"/><text fill="#000000" fill-opacity="0" font-family="Arial,Arial_MSFontService,sans-serif" font-size="55.3198" x="778.003" y="910.386">𝑁</text><path d="M869.802 859.307 876.083 859.307 846.823 934.728 840.46 934.728Z" fill="#009FE3" fill-rule="evenodd"/><text fill="#000000" fill-opacity="0" font-family="Arial,Arial_MSFontService,sans-serif" font-size="75.4214" x="840.46" y="925.3">/</text><path d="M960.39 877.868C962.092 877.868 963.437 878.429 964.423 879.55 965.409 880.671 965.902 882.137 965.902 883.947 965.902 885.433 965.591 887.014 964.97 888.689L965.456 888.851C967.942 885.15 970.414 882.4 972.873 880.604 975.331 878.807 977.817 877.909 980.33 877.909 982.924 877.909 984.896 878.645 986.247 880.117 987.598 881.59 988.273 883.718 988.273 886.5L988.273 887.068C988.273 887.257 988.26 887.46 988.233 887.676 990.556 884.38 992.873 881.928 995.183 880.32 997.493 878.712 999.891 877.909 1002.38 877.909 1004.86 877.909 1006.78 878.625 1008.13 880.057 1009.48 881.489 1010.16 883.501 1010.16 886.095 1010.16 887.797 1009.77 890.216 1008.98 893.35L1006.35 903.968C1005.62 906.913 1005.25 908.993 1005.25 910.209 1005.25 911.29 1005.43 912.073 1005.78 912.56 1006.13 913.046 1006.69 913.289 1007.44 913.289 1008.25 913.289 1009.12 912.958 1010.04 912.296 1010.95 911.634 1012.25 910.371 1013.93 908.507L1016.24 910.776C1013.91 913.235 1011.89 915.045 1010.16 916.207 1008.43 917.369 1006.46 917.95 1004.24 917.95 1002.48 917.95 1001.08 917.322 1000.03 916.065 998.972 914.809 998.445 913.208 998.445 911.263 998.445 909.507 998.891 906.926 999.783 903.522L1001.57 896.511C1002.21 893.971 1002.64 892.093 1002.84 890.877 1003.05 889.662 1003.15 888.675 1003.15 887.919 1003.15 886.055 1002.84 884.711 1002.21 883.886 1001.59 883.062 1000.58 882.65 999.175 882.65 998.04 882.65 996.824 883.076 995.528 883.927 994.231 884.778 992.866 886.102 991.434 887.899 990.002 889.695 988.834 891.465 987.929 893.208 987.024 894.95 986.301 897.078 985.76 899.591L982.072 917.301 975.061 917.301 979.722 896.713C980.289 894.201 980.674 892.343 980.877 891.141 981.08 889.939 981.181 888.905 981.181 888.041 981.181 886.095 980.836 884.711 980.147 883.886 979.458 883.062 978.384 882.65 976.925 882.65 975.899 882.65 974.73 883.076 973.42 883.927 972.109 884.778 970.711 886.143 969.225 888.02 967.739 889.898 966.578 891.701 965.74 893.431 964.902 895.16 964.2 897.267 963.633 899.753L959.782 917.301 952.771 917.301 958.688 891.607C959.283 889.013 959.58 887.014 959.58 885.609 959.58 884.528 959.404 883.745 959.053 883.258 958.702 882.772 958.148 882.529 957.391 882.529 956.554 882.529 955.669 882.873 954.737 883.562 953.805 884.251 952.528 885.501 950.907 887.311L948.597 885.042C950.974 882.556 953.021 880.739 954.737 879.591 956.452 878.442 958.337 877.868 960.39 877.868ZM891.39 877.868C893.092 877.868 894.437 878.429 895.423 879.55 896.409 880.671 896.902 882.137 896.902 883.947 896.902 885.433 896.591 887.014 895.97 888.689L896.456 888.851C898.942 885.15 901.414 882.4 903.873 880.604 906.331 878.807 908.817 877.909 911.33 877.909 913.924 877.909 915.896 878.645 917.247 880.117 918.598 881.59 919.273 883.718 919.273 886.5L919.273 887.068C919.273 887.257 919.26 887.46 919.233 887.676 921.556 884.38 923.873 881.928 926.183 880.32 928.493 878.712 930.891 877.909 933.377 877.909 935.862 877.909 937.781 878.625 939.132 880.057 940.482 881.489 941.158 883.501 941.158 886.095 941.158 887.797 940.766 890.216 939.983 893.35L937.348 903.968C936.619 906.913 936.254 908.993 936.254 910.209 936.254 911.29 936.43 912.073 936.781 912.56 937.132 913.046 937.686 913.289 938.443 913.289 939.253 913.289 940.118 912.958 941.036 912.296 941.955 911.634 943.252 910.371 944.927 908.507L947.237 910.776C944.913 913.235 942.887 915.045 941.158 916.207 939.429 917.369 937.456 917.95 935.241 917.95 933.485 917.95 932.08 917.322 931.026 916.065 929.972 914.809 929.445 913.208 929.445 911.263 929.445 909.507 929.891 906.926 930.783 903.522L932.566 896.511C933.215 893.971 933.64 892.093 933.843 890.877 934.045 889.662 934.147 888.675 934.147 887.919 934.147 886.055 933.836 884.711 933.215 883.886 932.593 883.062 931.58 882.65 930.175 882.65 929.04 882.65 927.824 883.076 926.528 883.927 925.231 884.778 923.866 886.102 922.434 887.899 921.002 889.695 919.834 891.465 918.929 893.208 918.024 894.95 917.301 897.078 916.76 899.591L913.072 917.301 906.061 917.301 910.722 896.713C911.289 894.201 911.674 892.343 911.877 891.141 912.08 889.939 912.181 888.905 912.181 888.041 912.181 886.095 911.836 884.711 911.147 883.886 910.458 883.062 909.384 882.65 907.925 882.65 906.899 882.65 905.73 883.076 904.42 883.927 903.109 884.778 901.711 886.143 900.225 888.02 898.739 889.898 897.578 891.701 896.74 893.431 895.902 895.16 895.2 897.267 894.633 899.753L890.782 917.301 883.771 917.301 889.688 891.607C890.283 889.013 890.58 887.014 890.58 885.609 890.58 884.528 890.404 883.745 890.053 883.258 889.702 882.772 889.148 882.529 888.391 882.529 887.554 882.529 886.669 882.873 885.737 883.562 884.805 884.251 883.528 885.501 881.907 887.311L879.597 885.042C881.974 882.556 884.021 880.739 885.737 879.591 887.452 878.442 889.337 877.868 891.39 877.868Z" fill="#009FE3" fill-rule="evenodd"/><text fill="#000000" fill-opacity="0" font-family="Arial,Arial_MSFontService,sans-serif" font-size="40.0815" x="879.597" y="912.94">𝑚𝑚</text><path d="M1020.43 858.577 1038.51 858.577 1038.51 935.863 1020.43 935.863 1020.43 932.742 1031.78 932.742 1031.78 861.698 1020.43 861.698Z" fill="#009FE3" fill-rule="evenodd"/><text fill="#000000" fill-opacity="0" font-family="Arial,Arial_MSFontService,sans-serif" font-size="77.2856" x="1020.43" y="926.202">]</text><path d="M1128.5 1207.75 1319.2 1207.75 1319.2 1186.5 1397.5 1229 1319.2 1271.5 1319.2 1250.25 1128.5 1250.25Z" stroke="#002042" stroke-width="4.58333" stroke-miterlimit="8" fill="none" fill-rule="evenodd"/><rect x="350.5" y="1933.2" width="197.296" height="108.296" fill="#00305D"/><path d="M547.797 1933.2 611.5 1869.5 611.5 1977.8 547.797 2041.5Z" fill="#00274B" fill-rule="evenodd"/><path d="M350.5 1933.2 414.204 1869.5 611.5 1869.5 547.797 1933.2Z" fill="#32597D" fill-rule="evenodd"/><path d="M350.5 1933.2 414.204 1869.5 611.5 1869.5 611.5 1977.8 547.797 2041.5 350.5 2041.5ZM350.5 1933.2 547.797 1933.2 611.5 1869.5M547.797 1933.2 547.797 2041.5" stroke="#002042" stroke-width="4.58333" stroke-miterlimit="8" fill="none" fill-rule="evenodd"/><rect x="538.5" y="1933.2" width="198.296" height="108.296" fill="#94C356"/><path d="M736.797 1933.2 800.5 1869.5 800.5 1977.8 736.797 2041.5Z" fill="#779D45" fill-rule="evenodd"/><path d="M538.5 1933.2 602.204 1869.5 800.5 1869.5 736.797 1933.2Z" fill="#A9CF77" fill-rule="evenodd"/><path d="M538.5 1933.2 602.204 1869.5 800.5 1869.5 800.5 1977.8 736.797 2041.5 538.5 2041.5ZM538.5 1933.2 736.797 1933.2 800.5 1869.5M736.797 1933.2 736.797 2041.5" stroke="#002042" stroke-width="4.58333" stroke-miterlimit="8" fill="none" fill-rule="evenodd"/><rect x="733.5" y="1933.2" width="197.296" height="108.296" fill="#009FE3"/><path d="M930.796 1933.2 994.5 1869.5 994.5 1977.8 930.796 2041.5Z" fill="#0080B6" fill-rule="evenodd"/><path d="M733.5 1933.2 797.204 1869.5 994.5 1869.5 930.796 1933.2Z" fill="#32B2E8" fill-rule="evenodd"/><path d="M733.5 1933.2 797.204 1869.5 994.5 1869.5 994.5 1977.8 930.796 2041.5 733.5 2041.5ZM733.5 1933.2 930.796 1933.2 994.5 1869.5M930.796 1933.2 930.796 2041.5" stroke="#002042" stroke-width="4.58333" stroke-miterlimit="8" fill="none" fill-rule="evenodd"/><path d="M474.812 1742.5 474.813 1866.2 454.188 1866.2 454.187 1742.5ZM495.438 1855.89 464.5 1917.76 433.563 1855.89Z" fill="#00305D"/><path d="M417.209 1657.95 453.764 1657.95 450.968 1670.4 447.077 1670.4C446.969 1668.32 446.8 1666.67 446.571 1665.47 446.341 1664.27 446.017 1663.41 445.598 1662.88 445.179 1662.35 444.673 1661.99 444.078 1661.8 443.484 1661.62 442.592 1661.52 441.403 1661.52L428.921 1661.52 424.098 1683.57 431.677 1683.57C432.866 1683.57 433.852 1683.41 434.635 1683.08 435.419 1682.76 436.148 1682.17 436.824 1681.32 437.499 1680.47 438.337 1679.02 439.336 1676.96L443.024 1676.96 439.093 1694.06 435.527 1694.06C435.527 1691.34 435.439 1689.63 435.263 1688.94 435.088 1688.25 434.75 1687.78 434.25 1687.52 433.75 1687.26 432.758 1687.13 431.272 1687.13L423.328 1687.13 420.126 1701.48C419.559 1704.02 419.275 1706.13 419.275 1707.8 419.275 1708.64 419.411 1709.3 419.681 1709.77 419.951 1710.24 420.356 1710.59 420.897 1710.8 421.437 1711.02 422.369 1711.18 423.693 1711.29L423.247 1713.27 406.59 1713.27 407.036 1711.29C408.063 1711.13 408.833 1710.86 409.346 1710.5 409.86 1710.13 410.292 1709.63 410.643 1708.98 410.994 1708.33 411.319 1707.54 411.616 1706.61 411.913 1705.68 412.359 1703.87 412.953 1701.2L419.843 1669.99C420.437 1667.29 420.734 1665.15 420.734 1663.59 420.734 1662.26 420.424 1661.35 419.802 1660.83 419.181 1660.32 418.168 1660.02 416.763 1659.94Z" fill="#00305D" fill-rule="evenodd"/><text fill="#000000" fill-opacity="0" font-family="Arial,Arial_MSFontService,sans-serif" font-size="55.3198" x="406.59" y="1706.36">𝐹</text><path d="M466.666 1702.66C465.495 1702.66 464.403 1702.91 463.39 1703.43 462.377 1703.95 461.454 1704.65 460.62 1705.55 459.786 1706.44 459.046 1707.47 458.401 1708.64 457.756 1709.81 457.21 1711.06 456.763 1712.37 456.316 1713.68 455.978 1715.02 455.75 1716.4 455.522 1717.78 455.408 1719.11 455.408 1720.38 455.408 1722.52 455.71 1724.12 456.316 1725.16 456.922 1726.2 457.9 1726.72 459.25 1726.72 459.925 1726.72 460.575 1726.6 461.201 1726.37 461.826 1726.13 462.486 1725.75 463.181 1725.23 464.929 1723.86 466.418 1722.2 467.649 1720.23 468.88 1718.26 469.804 1715.94 470.419 1713.26 470.697 1712.03 470.916 1710.92 471.075 1709.92 471.233 1708.93 471.313 1707.99 471.313 1707.09 471.313 1705.51 470.94 1704.37 470.196 1703.68 469.451 1703 468.275 1702.66 466.666 1702.66ZM466.13 1699.71C467.699 1699.71 469.084 1699.89 470.285 1700.26 471.487 1700.63 472.584 1701.13 473.576 1701.76L476.466 1699.71 478.878 1700.33 474.381 1719.84C474.123 1720.95 473.944 1721.87 473.845 1722.6 473.745 1723.32 473.696 1723.96 473.696 1724.52 473.696 1725.27 473.85 1725.82 474.157 1726.16 474.465 1726.49 474.907 1726.66 475.483 1726.66 475.84 1726.66 476.193 1726.59 476.54 1726.45 476.888 1726.32 477.265 1726.1 477.672 1725.8 478.079 1725.5 478.526 1725.12 479.012 1724.65 479.499 1724.19 480.05 1723.62 480.665 1722.97 480.983 1723.31 481.311 1723.64 481.648 1723.97 481.986 1724.3 482.313 1724.62 482.631 1724.94 481.638 1725.95 480.735 1726.82 479.921 1727.54 479.107 1728.27 478.317 1728.86 477.553 1729.33 476.788 1729.8 476.039 1730.13 475.304 1730.34 474.569 1730.55 473.805 1730.65 473.011 1730.65 471.581 1730.65 470.469 1730.19 469.675 1729.27 468.88 1728.35 468.483 1727.08 468.483 1725.47 468.483 1724.58 468.622 1723.72 468.9 1722.91L468.483 1722.73C467.471 1724.14 466.488 1725.34 465.534 1726.34 464.581 1727.33 463.638 1728.15 462.705 1728.79 461.772 1729.44 460.828 1729.91 459.875 1730.21 458.922 1730.51 457.929 1730.65 456.897 1730.65 454.534 1730.65 452.707 1729.81 451.416 1728.11 450.126 1726.41 449.48 1723.94 449.48 1720.71 449.48 1718.78 449.684 1716.93 450.091 1715.15 450.498 1713.37 451.074 1711.71 451.818 1710.15 452.563 1708.59 453.452 1707.17 454.484 1705.89 455.517 1704.61 456.649 1703.51 457.88 1702.6 459.111 1701.68 460.421 1700.97 461.811 1700.47 463.201 1699.96 464.641 1699.71 466.13 1699.71Z" fill="#00305D" fill-rule="evenodd"/><text fill="#000000" fill-opacity="0" font-family="Arial,Arial_MSFontService,sans-serif" font-size="30.9468" x="449.48" y="1726.79">𝑎</text><path d="M488.938 1723.21 494.151 1723.21C494.429 1724.6 494.568 1725.97 494.568 1727.32 494.568 1728.71 494.329 1729.98 493.853 1731.13 493.376 1732.28 492.617 1733.43 491.574 1734.57 490.532 1735.71 489.097 1736.97 487.27 1738.34L485.662 1736.52C486.674 1735.57 487.409 1734.71 487.866 1733.95 488.323 1733.18 488.65 1732.31 488.849 1731.34 489.047 1730.37 489.147 1729.15 489.147 1727.68 489.147 1726.17 489.077 1724.68 488.938 1723.21Z" fill="#00305D" fill-rule="evenodd"/><text fill="#000000" fill-opacity="0" font-family="Arial,Arial_MSFontService,sans-serif" font-size="15.1309" x="485.662" y="1736.45">,</text><path d="M515.214 1694.44C513.824 1694.44 512.662 1694.8 511.729 1695.52 510.796 1696.25 510.056 1697.31 509.51 1698.71 508.964 1700.11 508.577 1701.82 508.348 1703.83 508.12 1705.85 508.006 1708.14 508.006 1710.7 508.006 1713.66 508.15 1716.21 508.438 1718.37 508.726 1720.52 509.172 1722.29 509.778 1723.68 510.384 1725.07 511.143 1726.1 512.056 1726.75 512.97 1727.41 514.062 1727.74 515.333 1727.74 516.524 1727.74 517.567 1727.43 518.46 1726.81 519.354 1726.2 520.094 1725.24 520.679 1723.94 521.265 1722.64 521.707 1720.99 522.005 1718.99 522.303 1717 522.451 1714.64 522.451 1711.92 522.451 1708.86 522.288 1706.23 521.96 1704.03 521.632 1701.82 521.171 1700.01 520.575 1698.59 519.979 1697.17 519.23 1696.12 518.326 1695.45 517.423 1694.77 516.385 1694.44 515.214 1694.44ZM515.333 1691.55C517.696 1691.55 519.716 1691.99 521.394 1692.87 523.072 1693.76 524.442 1695.02 525.504 1696.65 526.567 1698.29 527.346 1700.29 527.843 1702.66 528.339 1705.02 528.587 1707.69 528.587 1710.67 528.587 1717.28 527.416 1722.28 525.073 1725.67 522.729 1729.05 519.334 1730.74 514.886 1730.74 510.478 1730.74 507.202 1729.15 505.057 1725.95 502.912 1722.75 501.84 1717.91 501.84 1711.41 501.84 1708.02 502.173 1705.08 502.838 1702.6 503.503 1700.11 504.436 1698.05 505.638 1696.42 506.839 1694.78 508.264 1693.56 509.912 1692.75 511.56 1691.95 513.367 1691.55 515.333 1691.55Z" fill="#00305D" fill-rule="evenodd"/><text fill="#000000" fill-opacity="0" font-family="Arial,Arial_MSFontService,sans-serif" font-size="39.1973" x="501.84" y="1725.84">0</text><path d="M679.813 1742.5 679.813 1866.2 659.188 1866.2 659.188 1742.5ZM700.438 1855.89 669.5 1917.76 638.563 1855.89Z" fill="#94C356"/><path d="M874.813 1742.5 874.813 1866.2 854.188 1866.2 854.188 1742.5ZM895.438 1855.89 864.5 1917.76 833.563 1855.89Z" fill="#009FE3"/><path d="M610.824 1657.95 647.379 1657.95 644.583 1670.4 640.692 1670.4C640.584 1668.32 640.415 1666.67 640.186 1665.47 639.956 1664.27 639.632 1663.41 639.213 1662.88 638.794 1662.35 638.288 1661.99 637.693 1661.8 637.099 1661.62 636.207 1661.52 635.018 1661.52L622.536 1661.52 617.713 1683.57 625.292 1683.57C626.481 1683.57 627.467 1683.41 628.25 1683.08 629.034 1682.76 629.763 1682.17 630.439 1681.32 631.114 1680.47 631.952 1679.02 632.952 1676.96L636.64 1676.96 632.708 1694.06 629.142 1694.06C629.142 1691.34 629.054 1689.63 628.879 1688.94 628.703 1688.25 628.365 1687.78 627.865 1687.52 627.366 1687.26 626.373 1687.13 624.887 1687.13L616.943 1687.13 613.742 1701.48C613.174 1704.02 612.891 1706.13 612.891 1707.8 612.891 1708.64 613.026 1709.3 613.296 1709.77 613.566 1710.24 613.971 1710.59 614.512 1710.8 615.052 1711.02 615.984 1711.18 617.308 1711.29L616.862 1713.27 600.206 1713.27 600.651 1711.29C601.678 1711.13 602.448 1710.86 602.961 1710.5 603.475 1710.13 603.907 1709.63 604.258 1708.98 604.609 1708.33 604.934 1707.54 605.231 1706.61 605.528 1705.68 605.974 1703.87 606.568 1701.2L613.458 1669.99C614.052 1667.29 614.35 1665.15 614.35 1663.59 614.35 1662.26 614.039 1661.35 613.417 1660.83 612.796 1660.32 611.783 1660.02 610.378 1659.94Z" fill="#94C356" fill-rule="evenodd"/><text fill="#000000" fill-opacity="0" font-family="Arial,Arial_MSFontService,sans-serif" font-size="55.3198" x="600.206" y="1706.36">𝐹</text><path d="M660.281 1702.66C659.11 1702.66 658.018 1702.91 657.005 1703.43 655.992 1703.95 655.069 1704.65 654.235 1705.55 653.401 1706.44 652.661 1707.47 652.016 1708.64 651.371 1709.81 650.825 1711.06 650.378 1712.37 649.931 1713.68 649.594 1715.02 649.365 1716.4 649.137 1717.78 649.023 1719.11 649.023 1720.38 649.023 1722.52 649.326 1724.12 649.931 1725.16 650.537 1726.2 651.515 1726.72 652.865 1726.72 653.54 1726.72 654.19 1726.6 654.816 1726.37 655.441 1726.13 656.102 1725.75 656.797 1725.23 658.544 1723.86 660.033 1722.2 661.264 1720.23 662.496 1718.26 663.419 1715.94 664.034 1713.26 664.312 1712.03 664.531 1710.92 664.69 1709.92 664.849 1708.93 664.928 1707.99 664.928 1707.09 664.928 1705.51 664.556 1704.37 663.811 1703.68 663.066 1703 661.89 1702.66 660.281 1702.66ZM659.745 1699.71C661.314 1699.71 662.699 1699.89 663.9 1700.26 665.102 1700.63 666.199 1701.13 667.192 1701.76L670.081 1699.71 672.493 1700.33 667.996 1719.84C667.738 1720.95 667.559 1721.87 667.46 1722.6 667.36 1723.32 667.311 1723.96 667.311 1724.52 667.311 1725.27 667.465 1725.82 667.772 1726.16 668.08 1726.49 668.522 1726.66 669.098 1726.66 669.455 1726.66 669.808 1726.59 670.155 1726.45 670.503 1726.32 670.88 1726.1 671.287 1725.8 671.694 1725.5 672.141 1725.12 672.627 1724.65 673.114 1724.19 673.665 1723.62 674.281 1722.97 674.598 1723.31 674.926 1723.64 675.263 1723.97 675.601 1724.3 675.929 1724.62 676.246 1724.94 675.253 1725.95 674.35 1726.82 673.536 1727.54 672.722 1728.27 671.932 1728.86 671.168 1729.33 670.404 1729.8 669.654 1730.13 668.919 1730.34 668.185 1730.55 667.42 1730.65 666.626 1730.65 665.196 1730.65 664.084 1730.19 663.29 1729.27 662.496 1728.35 662.098 1727.08 662.098 1725.47 662.098 1724.58 662.237 1723.72 662.515 1722.91L662.098 1722.73C661.086 1724.14 660.103 1725.34 659.15 1726.34 658.197 1727.33 657.253 1728.15 656.32 1728.79 655.387 1729.44 654.444 1729.91 653.49 1730.21 652.537 1730.51 651.544 1730.65 650.512 1730.65 648.149 1730.65 646.322 1729.81 645.031 1728.11 643.741 1726.41 643.095 1723.94 643.095 1720.71 643.095 1718.78 643.299 1716.93 643.706 1715.15 644.113 1713.37 644.689 1711.71 645.434 1710.15 646.178 1708.59 647.067 1707.17 648.099 1705.89 649.132 1704.61 650.264 1703.51 651.495 1702.6 652.726 1701.68 654.037 1700.97 655.427 1700.47 656.816 1699.96 658.256 1699.71 659.745 1699.71Z" fill="#94C356" fill-rule="evenodd"/><text fill="#000000" fill-opacity="0" font-family="Arial,Arial_MSFontService,sans-serif" font-size="30.9468" x="643.095" y="1726.79">𝑎</text><path d="M682.553 1723.21 687.766 1723.21C688.044 1724.6 688.183 1725.97 688.183 1727.32 688.183 1728.71 687.944 1729.98 687.468 1731.13 686.991 1732.28 686.232 1733.43 685.189 1734.57 684.147 1735.71 682.712 1736.97 680.885 1738.34L679.277 1736.52C680.29 1735.57 681.024 1734.71 681.481 1733.95 681.938 1733.18 682.265 1732.31 682.464 1731.34 682.662 1730.37 682.762 1729.15 682.762 1727.68 682.762 1726.17 682.692 1724.68 682.553 1723.21Z" fill="#94C356" fill-rule="evenodd"/><text fill="#000000" fill-opacity="0" font-family="Arial,Arial_MSFontService,sans-serif" font-size="15.1309" x="679.277" y="1736.45">,</text><path d="M711.271 1691.75 713.088 1691.75C713.048 1692.85 713.019 1693.82 712.999 1694.69 712.979 1695.55 712.964 1696.39 712.954 1697.21 712.944 1698.02 712.939 1698.82 712.939 1699.62L712.939 1722.25C712.939 1722.87 712.959 1723.4 712.999 1723.85 713.039 1724.3 713.103 1724.67 713.192 1724.98 713.282 1725.29 713.401 1725.55 713.55 1725.77 713.699 1725.99 713.872 1726.18 714.071 1726.34 714.309 1726.57 714.627 1726.76 715.024 1726.89 715.421 1727.02 715.928 1727.12 716.543 1727.21 717.159 1727.3 717.898 1727.37 718.762 1727.42 719.626 1727.47 720.664 1727.51 721.875 1727.53L721.875 1730.12 698.255 1730.12 698.255 1727.53C699.427 1727.49 700.419 1727.44 701.234 1727.39 702.048 1727.34 702.743 1727.27 703.319 1727.18 703.894 1727.09 704.356 1727 704.704 1726.89 705.051 1726.78 705.354 1726.64 705.612 1726.48 705.89 1726.31 706.128 1726.11 706.327 1725.9 706.525 1725.69 706.684 1725.43 706.803 1725.11 706.923 1724.8 707.017 1724.41 707.086 1723.95 707.156 1723.5 707.191 1722.93 707.191 1722.25L707.191 1700.9C707.191 1700.12 707.042 1699.58 706.744 1699.26 706.446 1698.94 706.019 1698.78 705.463 1698.78 704.848 1698.78 703.934 1699.1 702.723 1699.74 701.512 1700.37 699.943 1701.32 698.017 1702.57 697.759 1702.11 697.52 1701.65 697.302 1701.2 697.084 1700.74 696.855 1700.27 696.617 1699.8 699.079 1698.45 701.517 1697.1 703.929 1695.76 706.342 1694.42 708.789 1693.09 711.271 1691.75Z" fill="#94C356" fill-rule="evenodd"/><text fill="#000000" fill-opacity="0" font-family="Arial,Arial_MSFontService,sans-serif" font-size="38.3633" x="696.617" y="1725.32">1</text><path d="M825.817 1657.95 862.372 1657.95 859.576 1670.4 855.685 1670.4C855.577 1668.32 855.408 1666.67 855.179 1665.47 854.949 1664.27 854.625 1663.41 854.206 1662.88 853.787 1662.35 853.281 1661.99 852.686 1661.8 852.092 1661.62 851.2 1661.52 850.011 1661.52L837.529 1661.52 832.706 1683.57 840.285 1683.57C841.474 1683.57 842.46 1683.41 843.243 1683.08 844.027 1682.76 844.756 1682.17 845.432 1681.32 846.107 1680.47 846.945 1679.02 847.945 1676.96L851.633 1676.96 847.701 1694.06 844.135 1694.06C844.135 1691.34 844.047 1689.63 843.872 1688.94 843.696 1688.25 843.358 1687.78 842.858 1687.52 842.359 1687.26 841.366 1687.13 839.88 1687.13L831.936 1687.13 828.735 1701.48C828.167 1704.02 827.884 1706.13 827.884 1707.8 827.884 1708.64 828.019 1709.3 828.289 1709.77 828.559 1710.24 828.964 1710.59 829.505 1710.8 830.045 1711.02 830.977 1711.18 832.301 1711.29L831.855 1713.27 815.198 1713.27 815.644 1711.29C816.671 1711.13 817.441 1710.86 817.954 1710.5 818.468 1710.13 818.9 1709.63 819.251 1708.98 819.602 1708.33 819.927 1707.54 820.224 1706.61 820.521 1705.68 820.967 1703.87 821.561 1701.2L828.451 1669.99C829.045 1667.29 829.343 1665.15 829.343 1663.59 829.343 1662.26 829.032 1661.35 828.41 1660.83 827.789 1660.32 826.776 1660.02 825.371 1659.94Z" fill="#009FE3" fill-rule="evenodd"/><text fill="#000000" fill-opacity="0" font-family="Arial,Arial_MSFontService,sans-serif" font-size="55.3198" x="815.198" y="1706.36">𝐹</text><path d="M875.274 1702.66C874.103 1702.66 873.011 1702.91 871.998 1703.43 870.985 1703.95 870.062 1704.65 869.228 1705.55 868.394 1706.44 867.654 1707.47 867.009 1708.64 866.364 1709.81 865.818 1711.06 865.371 1712.37 864.924 1713.68 864.586 1715.02 864.358 1716.4 864.13 1717.78 864.016 1719.11 864.016 1720.38 864.016 1722.52 864.318 1724.12 864.924 1725.16 865.53 1726.2 866.508 1726.72 867.858 1726.72 868.533 1726.72 869.183 1726.6 869.809 1726.37 870.434 1726.13 871.095 1725.75 871.79 1725.23 873.537 1723.86 875.026 1722.2 876.257 1720.23 877.488 1718.26 878.412 1715.94 879.027 1713.26 879.305 1712.03 879.524 1710.92 879.683 1709.92 879.841 1708.93 879.921 1707.99 879.921 1707.09 879.921 1705.51 879.549 1704.37 878.804 1703.68 878.059 1703 876.883 1702.66 875.274 1702.66ZM874.738 1699.71C876.307 1699.71 877.692 1699.89 878.893 1700.26 880.095 1700.63 881.192 1701.13 882.185 1701.76L885.074 1699.71 887.486 1700.33 882.989 1719.84C882.731 1720.95 882.552 1721.87 882.453 1722.6 882.353 1723.32 882.304 1723.96 882.304 1724.52 882.304 1725.27 882.458 1725.82 882.765 1726.16 883.073 1726.49 883.515 1726.66 884.091 1726.66 884.448 1726.66 884.801 1726.59 885.148 1726.45 885.496 1726.32 885.873 1726.1 886.28 1725.8 886.687 1725.5 887.134 1725.12 887.62 1724.65 888.107 1724.19 888.658 1723.62 889.273 1722.97 889.591 1723.31 889.919 1723.64 890.256 1723.97 890.594 1724.3 890.922 1724.62 891.239 1724.94 890.246 1725.95 889.343 1726.82 888.529 1727.54 887.715 1728.27 886.925 1728.86 886.161 1729.33 885.396 1729.8 884.647 1730.13 883.912 1730.34 883.177 1730.55 882.413 1730.65 881.619 1730.65 880.189 1730.65 879.077 1730.19 878.283 1729.27 877.488 1728.35 877.091 1727.08 877.091 1725.47 877.091 1724.58 877.23 1723.72 877.508 1722.91L877.091 1722.73C876.079 1724.14 875.096 1725.34 874.143 1726.34 873.189 1727.33 872.246 1728.15 871.313 1728.79 870.38 1729.44 869.437 1729.91 868.483 1730.21 867.53 1730.51 866.537 1730.65 865.505 1730.65 863.142 1730.65 861.315 1729.81 860.024 1728.11 858.734 1726.41 858.088 1723.94 858.088 1720.71 858.088 1718.78 858.292 1716.93 858.699 1715.15 859.106 1713.37 859.682 1711.71 860.427 1710.15 861.171 1708.59 862.06 1707.17 863.092 1705.89 864.125 1704.61 865.257 1703.51 866.488 1702.6 867.719 1701.68 869.029 1700.97 870.419 1700.47 871.809 1699.96 873.249 1699.71 874.738 1699.71Z" fill="#009FE3" fill-rule="evenodd"/><text fill="#000000" fill-opacity="0" font-family="Arial,Arial_MSFontService,sans-serif" font-size="30.9468" x="858.088" y="1726.79">𝑎</text><path d="M897.546 1723.21 902.759 1723.21C903.037 1724.6 903.176 1725.97 903.176 1727.32 903.176 1728.71 902.937 1729.98 902.461 1731.13 901.984 1732.28 901.225 1733.43 900.182 1734.57 899.14 1735.71 897.705 1736.97 895.878 1738.34L894.27 1736.52C895.283 1735.57 896.017 1734.71 896.474 1733.95 896.931 1733.18 897.258 1732.31 897.457 1731.34 897.655 1730.37 897.755 1729.15 897.755 1727.68 897.755 1726.17 897.685 1724.68 897.546 1723.21Z" fill="#009FE3" fill-rule="evenodd"/><text fill="#000000" fill-opacity="0" font-family="Arial,Arial_MSFontService,sans-serif" font-size="15.1309" x="894.27" y="1736.45">,</text><path d="M923.941 1691.55C926.006 1691.55 927.768 1691.78 929.228 1692.25 930.687 1692.71 931.874 1693.34 932.787 1694.14 933.701 1694.93 934.361 1695.89 934.768 1697 935.175 1698.11 935.378 1699.31 935.378 1700.6 935.378 1701.38 935.324 1702.1 935.215 1702.76 935.105 1703.43 934.917 1704.08 934.649 1704.73 934.381 1705.37 934.028 1706.02 933.591 1706.68 933.155 1707.33 932.608 1708.03 931.953 1708.76 931.457 1709.4 930.811 1710.13 930.017 1710.97 929.223 1711.8 928.354 1712.69 927.411 1713.65 926.468 1714.6 925.48 1715.59 924.447 1716.63 923.415 1717.66 922.412 1718.68 921.439 1719.69 920.466 1720.71 919.573 1721.69 918.758 1722.64 917.944 1723.6 917.279 1724.47 916.763 1725.26L927.783 1725.26C928.717 1725.26 929.461 1725.23 930.017 1725.16 930.573 1725.09 931.035 1724.94 931.402 1724.7 931.77 1724.46 932.082 1724.1 932.34 1723.61 932.599 1723.12 932.896 1722.45 933.234 1721.6L936.004 1721.6C935.905 1723.01 935.81 1724.43 935.721 1725.86 935.632 1727.29 935.537 1728.71 935.438 1730.12L910.21 1730.12 910.21 1728.57C910.687 1727.5 911.243 1726.44 911.878 1725.4 912.513 1724.35 913.228 1723.3 914.023 1722.22 914.817 1721.15 915.72 1720.05 916.733 1718.9 917.746 1717.76 918.868 1716.58 920.099 1715.34 921.965 1713.48 923.484 1711.88 924.656 1710.56 925.827 1709.24 926.751 1708.07 927.426 1707.03 928.101 1706 928.563 1705.05 928.811 1704.18 929.059 1703.3 929.183 1702.37 929.183 1701.38 929.183 1700.36 929.039 1699.43 928.751 1698.58 928.463 1697.72 928.051 1697 927.515 1696.4 926.979 1695.81 926.299 1695.34 925.475 1695 924.651 1694.66 923.703 1694.49 922.63 1694.49 920.784 1694.49 919.235 1695 917.984 1696 916.733 1697 915.76 1698.46 915.065 1700.36L911.163 1700.36 911.163 1694.55C913.705 1693.5 916.043 1692.74 918.178 1692.26 920.312 1691.78 922.233 1691.55 923.941 1691.55Z" fill="#009FE3" fill-rule="evenodd"/><text fill="#000000" fill-opacity="0" font-family="Arial,Arial_MSFontService,sans-serif" font-size="38.5718" x="910.21" y="1725.3">2</text><rect x="1475.5" y="1938.2" width="197.297" height="108.296" fill="#00305D"/><path d="M1672.8 1938.2 1736.5 1874.5 1736.5 1982.8 1672.8 2046.5Z" fill="#00274B" fill-rule="evenodd"/><path d="M1475.5 1938.2 1539.2 1874.5 1736.5 1874.5 1672.8 1938.2Z" fill="#32597D" fill-rule="evenodd"/><path d="M1475.5 1938.2 1539.2 1874.5 1736.5 1874.5 1736.5 1982.8 1672.8 2046.5 1475.5 2046.5ZM1475.5 1938.2 1672.8 1938.2 1736.5 1874.5M1672.8 1938.2 1672.8 2046.5" stroke="#002042" stroke-width="4.58333" stroke-miterlimit="8" fill="none" fill-rule="evenodd"/><rect x="1663.5" y="1938.2" width="198.297" height="108.296" fill="#94C356"/><path d="M1861.8 1938.2 1925.5 1874.5 1925.5 1982.8 1861.8 2046.5Z" fill="#779D45" fill-rule="evenodd"/><path d="M1663.5 1938.2 1727.2 1874.5 1925.5 1874.5 1861.8 1938.2Z" fill="#A9CF77" fill-rule="evenodd"/><path d="M1663.5 1938.2 1727.2 1874.5 1925.5 1874.5 1925.5 1982.8 1861.8 2046.5 1663.5 2046.5ZM1663.5 1938.2 1861.8 1938.2 1925.5 1874.5M1861.8 1938.2 1861.8 2046.5" stroke="#002042" stroke-width="4.58333" stroke-miterlimit="8" fill="none" fill-rule="evenodd"/><rect x="1858.5" y="1938.2" width="198.297" height="108.296" fill="#009FE3"/><path d="M2056.8 1938.2 2120.5 1874.5 2120.5 1982.8 2056.8 2046.5Z" fill="#0080B6" fill-rule="evenodd"/><path d="M1858.5 1938.2 1922.2 1874.5 2120.5 1874.5 2056.8 1938.2Z" fill="#32B2E8" fill-rule="evenodd"/><path d="M1858.5 1938.2 1922.2 1874.5 2120.5 1874.5 2120.5 1982.8 2056.8 2046.5 1858.5 2046.5ZM1858.5 1938.2 2056.8 1938.2 2120.5 1874.5M2056.8 1938.2 2056.8 2046.5" stroke="#002042" stroke-width="4.58333" stroke-miterlimit="8" fill="none" fill-rule="evenodd"/><path d="M1599.81 1795.5 1599.81 1860.87 1579.19 1860.87 1579.19 1795.5ZM1620.44 1850.55 1589.5 1912.43 1558.56 1850.55Z" fill="#00305D"/><path d="M1540.85 1660.57 1573.45 1660.57 1570.95 1671.66 1567.48 1671.66C1567.39 1669.81 1567.24 1668.35 1567.03 1667.27 1566.83 1666.2 1566.54 1665.43 1566.16 1664.96 1565.79 1664.49 1565.34 1664.17 1564.81 1664 1564.28 1663.83 1563.48 1663.75 1562.42 1663.75L1551.3 1663.75 1547 1683.41 1553.75 1683.41C1554.81 1683.41 1555.69 1683.26 1556.39 1682.97 1557.09 1682.68 1557.74 1682.16 1558.34 1681.4 1558.94 1680.64 1559.69 1679.35 1560.58 1677.52L1563.87 1677.52 1560.36 1692.76 1557.19 1692.76C1557.19 1690.33 1557.11 1688.81 1556.95 1688.19 1556.79 1687.58 1556.49 1687.16 1556.05 1686.93 1555.6 1686.7 1554.72 1686.59 1553.39 1686.59L1546.31 1686.59 1543.45 1699.38C1542.95 1701.64 1542.7 1703.52 1542.7 1705.01 1542.7 1705.76 1542.82 1706.34 1543.06 1706.77 1543.3 1707.19 1543.66 1707.49 1544.14 1707.69 1544.62 1707.88 1545.45 1708.03 1546.63 1708.12L1546.24 1709.89 1531.39 1709.89 1531.78 1708.12C1532.7 1707.98 1533.39 1707.74 1533.84 1707.42 1534.3 1707.09 1534.69 1706.64 1535 1706.06 1535.31 1705.48 1535.6 1704.78 1535.87 1703.95 1536.13 1703.12 1536.53 1701.51 1537.06 1699.12L1543.2 1671.3C1543.73 1668.89 1544 1666.99 1544 1665.59 1544 1664.41 1543.72 1663.59 1543.17 1663.14 1542.61 1662.68 1541.71 1662.41 1540.46 1662.34Z" fill="#00305D" fill-rule="evenodd"/><text fill="#000000" fill-opacity="0" font-family="Arial,Arial_MSFontService,sans-serif" font-size="49.3213" x="1531.39" y="1703.73">𝐹</text><path d="M1585.06 1700.73C1584.03 1700.73 1583.06 1700.96 1582.16 1701.41 1581.27 1701.87 1580.45 1702.5 1579.71 1703.29 1578.97 1704.08 1578.32 1704.99 1577.75 1706.03 1577.18 1707.07 1576.69 1708.16 1576.3 1709.32 1575.9 1710.48 1575.6 1711.68 1575.4 1712.9 1575.2 1714.12 1575.1 1715.29 1575.1 1716.42 1575.1 1718.32 1575.36 1719.73 1575.9 1720.65 1576.44 1721.57 1577.3 1722.03 1578.5 1722.03 1579.1 1722.03 1579.67 1721.93 1580.23 1721.72 1580.78 1721.51 1581.36 1721.17 1581.98 1720.72 1583.53 1719.5 1584.84 1718.03 1585.93 1716.29 1587.02 1714.55 1587.84 1712.49 1588.39 1710.12 1588.63 1709.03 1588.83 1708.04 1588.97 1707.16 1589.11 1706.28 1589.18 1705.45 1589.18 1704.66 1589.18 1703.25 1588.85 1702.25 1588.19 1701.64 1587.53 1701.03 1586.49 1700.73 1585.06 1700.73ZM1584.59 1698.12C1585.98 1698.12 1587.2 1698.28 1588.27 1698.61 1589.33 1698.93 1590.3 1699.38 1591.18 1699.94L1593.74 1698.12 1595.87 1698.67 1591.89 1715.94C1591.66 1716.93 1591.51 1717.74 1591.42 1718.38 1591.33 1719.02 1591.29 1719.59 1591.29 1720.08 1591.29 1720.75 1591.42 1721.23 1591.7 1721.53 1591.97 1721.83 1592.36 1721.98 1592.87 1721.98 1593.18 1721.98 1593.5 1721.92 1593.8 1721.8 1594.11 1721.67 1594.45 1721.48 1594.81 1721.22 1595.17 1720.95 1595.56 1720.61 1595.99 1720.2 1596.42 1719.79 1596.91 1719.29 1597.46 1718.71 1597.74 1719.01 1598.03 1719.3 1598.33 1719.59 1598.63 1719.88 1598.92 1720.17 1599.2 1720.45 1598.32 1721.35 1597.52 1722.12 1596.8 1722.76 1596.08 1723.4 1595.38 1723.93 1594.7 1724.34 1594.02 1724.75 1593.36 1725.05 1592.71 1725.24 1592.06 1725.42 1591.38 1725.51 1590.68 1725.51 1589.41 1725.51 1588.43 1725.11 1587.73 1724.29 1587.02 1723.47 1586.67 1722.35 1586.67 1720.93 1586.67 1720.14 1586.8 1719.38 1587.04 1718.66L1586.67 1718.5C1585.78 1719.75 1584.91 1720.81 1584.06 1721.69 1583.22 1722.57 1582.38 1723.3 1581.56 1723.87 1580.73 1724.44 1579.9 1724.86 1579.05 1725.12 1578.21 1725.38 1577.33 1725.51 1576.42 1725.51 1574.32 1725.51 1572.71 1724.76 1571.56 1723.26 1570.42 1721.76 1569.85 1719.57 1569.85 1716.71 1569.85 1715 1570.03 1713.36 1570.39 1711.79 1570.75 1710.22 1571.26 1708.74 1571.92 1707.36 1572.58 1705.98 1573.37 1704.72 1574.28 1703.59 1575.19 1702.46 1576.2 1701.48 1577.29 1700.68 1578.38 1699.87 1579.54 1699.24 1580.77 1698.79 1582 1698.34 1583.27 1698.12 1584.59 1698.12Z" fill="#00305D" fill-rule="evenodd"/><text fill="#000000" fill-opacity="0" font-family="Arial,Arial_MSFontService,sans-serif" font-size="27.3955" x="1569.85" y="1722.09">𝑎</text><path d="M1605.14 1718.92 1609.75 1718.92C1610 1720.15 1610.12 1721.37 1610.12 1722.56 1610.12 1723.79 1609.91 1724.92 1609.49 1725.94 1609.07 1726.96 1608.4 1727.97 1607.47 1728.98 1606.55 1729.99 1605.28 1731.1 1603.66 1732.32L1602.24 1730.71C1603.14 1729.86 1603.79 1729.1 1604.19 1728.43 1604.59 1727.75 1604.88 1726.98 1605.06 1726.12 1605.24 1725.26 1605.32 1724.18 1605.32 1722.88 1605.32 1721.54 1605.26 1720.22 1605.14 1718.92Z" fill="#00305D" fill-rule="evenodd"/><text fill="#000000" fill-opacity="0" font-family="Arial,Arial_MSFontService,sans-serif" font-size="13.3945" x="1602.24" y="1730.64">,</text><path d="M1628.13 1693.45C1626.9 1693.45 1625.87 1693.77 1625.04 1694.41 1624.22 1695.06 1623.56 1696 1623.08 1697.24 1622.59 1698.47 1622.25 1699.99 1622.05 1701.77 1621.85 1703.55 1621.75 1705.58 1621.75 1707.85 1621.75 1710.47 1621.87 1712.73 1622.13 1714.64 1622.38 1716.55 1622.78 1718.11 1623.32 1719.34 1623.85 1720.57 1624.52 1721.48 1625.33 1722.06 1626.14 1722.64 1627.11 1722.93 1628.23 1722.93 1629.29 1722.93 1630.21 1722.66 1631 1722.11 1631.79 1721.57 1632.45 1720.72 1632.97 1719.57 1633.48 1718.42 1633.88 1716.96 1634.14 1715.19 1634.4 1713.42 1634.53 1711.34 1634.53 1708.93 1634.53 1706.22 1634.39 1703.89 1634.1 1701.94 1633.81 1699.99 1633.4 1698.39 1632.87 1697.13 1632.35 1695.87 1631.68 1694.95 1630.88 1694.35 1630.08 1693.75 1629.16 1693.45 1628.13 1693.45ZM1628.23 1690.89C1630.32 1690.89 1632.11 1691.29 1633.6 1692.07 1635.08 1692.85 1636.3 1693.97 1637.24 1695.42 1638.18 1696.87 1638.87 1698.64 1639.31 1700.73 1639.75 1702.82 1639.97 1705.19 1639.97 1707.82 1639.97 1713.68 1638.93 1718.1 1636.85 1721.1 1634.78 1724.09 1631.77 1725.59 1627.84 1725.59 1623.93 1725.59 1621.03 1724.18 1619.14 1721.35 1617.24 1718.52 1616.29 1714.23 1616.29 1708.48 1616.29 1705.48 1616.58 1702.87 1617.17 1700.68 1617.76 1698.48 1618.59 1696.66 1619.65 1695.21 1620.71 1693.76 1621.97 1692.67 1623.43 1691.96 1624.89 1691.25 1626.49 1690.89 1628.23 1690.89Z" fill="#00305D" fill-rule="evenodd"/><text fill="#000000" fill-opacity="0" font-family="Arial,Arial_MSFontService,sans-serif" font-size="34.6992" x="1616.29" y="1721.26">0</text><path d="M1647.54 1718.92 1652.15 1718.92C1652.4 1720.15 1652.52 1721.37 1652.52 1722.56 1652.52 1723.79 1652.31 1724.92 1651.89 1725.94 1651.46 1726.96 1650.79 1727.97 1649.87 1728.98 1648.95 1729.99 1647.68 1731.1 1646.06 1732.32L1644.63 1730.71C1645.53 1729.86 1646.18 1729.1 1646.59 1728.43 1646.99 1727.75 1647.28 1726.98 1647.46 1726.12 1647.63 1725.26 1647.72 1724.18 1647.72 1722.88 1647.72 1721.54 1647.66 1720.22 1647.54 1718.92Z" fill="#00305D" fill-rule="evenodd"/><text fill="#000000" fill-opacity="0" font-family="Arial,Arial_MSFontService,sans-serif" font-size="13.3945" x="1644.63" y="1730.64">,</text><path d="M1674 1698.38 1675.82 1698.38 1670.34 1724.22C1669.9 1726.23 1669.33 1727.94 1668.64 1729.38 1667.94 1730.81 1667.1 1731.98 1666.09 1732.9 1665.09 1733.81 1663.92 1734.48 1662.59 1734.91 1661.25 1735.34 1659.72 1735.56 1658 1735.56 1657.54 1735.56 1657.1 1735.54 1656.68 1735.49 1656.26 1735.45 1655.88 1735.38 1655.55 1735.3L1656.21 1732.53C1656.42 1732.62 1656.7 1732.67 1657.05 1732.7 1657.4 1732.73 1657.81 1732.74 1658.26 1732.74 1659.12 1732.74 1659.89 1732.62 1660.57 1732.4 1661.25 1732.17 1661.85 1731.75 1662.39 1731.16 1662.92 1730.56 1663.41 1729.74 1663.84 1728.69 1664.27 1727.65 1664.67 1726.31 1665.04 1724.67 1665.65 1721.82 1666.24 1719.15 1666.81 1716.65 1667.37 1714.16 1667.83 1712.07 1668.19 1710.38 1668.55 1708.69 1668.84 1707.35 1669.05 1706.35 1669.26 1705.34 1669.41 1704.57 1669.51 1704.03 1669.6 1703.48 1669.66 1703.09 1669.68 1702.86 1669.7 1702.64 1669.71 1702.45 1669.71 1702.31 1669.71 1701.7 1669.47 1701.24 1669.01 1700.95 1668.54 1700.66 1667.72 1700.5 1666.54 1700.47L1666.94 1698.67ZM1673.03 1687.76 1678.33 1687.76 1677.04 1693.43 1671.74 1693.43Z" fill="#00305D" fill-rule="evenodd"/><text fill="#000000" fill-opacity="0" font-family="Arial,Arial_MSFontService,sans-serif" font-size="47.8037" x="1655.55" y="1729.58">𝑗</text><path d="M1762.81 1793.5 1762.81 1858.87 1742.19 1858.87 1742.19 1793.5ZM1783.44 1848.55 1752.5 1910.43 1721.56 1848.55Z" fill="#94C356"/><path d="M1969.81 1793.5 1969.81 1858.87 1949.19 1858.87 1949.19 1793.5ZM1990.44 1848.55 1959.5 1910.43 1928.56 1848.55Z" fill="#009FE3"/><path d="M1734.47 1660.57 1767.06 1660.57 1764.57 1671.66 1761.1 1671.66C1761 1669.81 1760.85 1668.35 1760.65 1667.27 1760.44 1666.2 1760.15 1665.43 1759.78 1664.96 1759.41 1664.49 1758.95 1664.17 1758.42 1664 1757.89 1663.83 1757.1 1663.75 1756.04 1663.75L1744.91 1663.75 1740.61 1683.41 1747.37 1683.41C1748.43 1683.41 1749.31 1683.26 1750.01 1682.97 1750.7 1682.68 1751.35 1682.16 1751.96 1681.4 1752.56 1680.64 1753.31 1679.35 1754.2 1677.52L1757.48 1677.52 1753.98 1692.76 1750.8 1692.76C1750.8 1690.33 1750.72 1688.81 1750.57 1688.19 1750.41 1687.58 1750.11 1687.16 1749.66 1686.93 1749.22 1686.7 1748.33 1686.59 1747.01 1686.59L1739.92 1686.59 1737.07 1699.38C1736.56 1701.64 1736.31 1703.52 1736.31 1705.01 1736.31 1705.76 1736.43 1706.34 1736.67 1706.77 1736.91 1707.19 1737.27 1707.49 1737.76 1707.69 1738.24 1707.88 1739.07 1708.03 1740.25 1708.12L1739.85 1709.89 1725 1709.89 1725.4 1708.12C1726.31 1707.98 1727 1707.74 1727.46 1707.42 1727.92 1707.09 1728.3 1706.64 1728.61 1706.06 1728.93 1705.48 1729.22 1704.78 1729.48 1703.95 1729.75 1703.12 1730.14 1701.51 1730.67 1699.12L1736.82 1671.3C1737.35 1668.89 1737.61 1666.99 1737.61 1665.59 1737.61 1664.41 1737.33 1663.59 1736.78 1663.14 1736.23 1662.68 1735.32 1662.41 1734.07 1662.34Z" fill="#94C356" fill-rule="evenodd"/><text fill="#000000" fill-opacity="0" font-family="Arial,Arial_MSFontService,sans-serif" font-size="49.3213" x="1725" y="1703.73">𝐹</text><path d="M1778.68 1700.73C1777.64 1700.73 1776.67 1700.96 1775.78 1701.41 1774.88 1701.87 1774.06 1702.5 1773.33 1703.29 1772.59 1704.08 1771.93 1704.99 1771.36 1706.03 1770.79 1707.07 1770.31 1708.16 1769.91 1709.32 1769.52 1710.48 1769.22 1711.68 1769.02 1712.9 1768.81 1714.12 1768.71 1715.29 1768.71 1716.42 1768.71 1718.32 1768.98 1719.73 1769.52 1720.65 1770.05 1721.57 1770.92 1722.03 1772.11 1722.03 1772.71 1722.03 1773.29 1721.93 1773.84 1721.72 1774.39 1721.51 1774.98 1721.17 1775.59 1720.72 1777.14 1719.5 1778.46 1718.03 1779.55 1716.29 1780.64 1714.55 1781.46 1712.49 1782 1710.12 1782.25 1709.03 1782.44 1708.04 1782.58 1707.16 1782.72 1706.28 1782.79 1705.45 1782.79 1704.66 1782.79 1703.25 1782.46 1702.25 1781.8 1701.64 1781.14 1701.03 1780.1 1700.73 1778.68 1700.73ZM1778.2 1698.12C1779.59 1698.12 1780.82 1698.28 1781.88 1698.61 1782.95 1698.93 1783.92 1699.38 1784.8 1699.94L1787.35 1698.12 1789.49 1698.67 1785.51 1715.94C1785.28 1716.93 1785.12 1717.74 1785.03 1718.38 1784.95 1719.02 1784.9 1719.59 1784.9 1720.08 1784.9 1720.75 1785.04 1721.23 1785.31 1721.53 1785.58 1721.83 1785.97 1721.98 1786.48 1721.98 1786.8 1721.98 1787.11 1721.92 1787.42 1721.8 1787.73 1721.67 1788.06 1721.48 1788.42 1721.22 1788.78 1720.95 1789.18 1720.61 1789.61 1720.2 1790.04 1719.79 1790.53 1719.29 1791.07 1718.71 1791.35 1719.01 1791.64 1719.3 1791.94 1719.59 1792.24 1719.88 1792.53 1720.17 1792.81 1720.45 1791.93 1721.35 1791.13 1722.12 1790.41 1722.76 1789.69 1723.4 1788.99 1723.93 1788.32 1724.34 1787.64 1724.75 1786.98 1725.05 1786.33 1725.24 1785.67 1725.42 1785 1725.51 1784.3 1725.51 1783.03 1725.51 1782.05 1725.11 1781.34 1724.29 1780.64 1723.47 1780.29 1722.35 1780.29 1720.93 1780.29 1720.14 1780.41 1719.38 1780.66 1718.66L1780.29 1718.5C1779.39 1719.75 1778.52 1720.81 1777.68 1721.69 1776.83 1722.57 1776 1723.3 1775.17 1723.87 1774.35 1724.44 1773.51 1724.86 1772.67 1725.12 1771.82 1725.38 1770.94 1725.51 1770.03 1725.51 1767.94 1725.51 1766.32 1724.76 1765.18 1723.26 1764.04 1721.76 1763.46 1719.57 1763.46 1716.71 1763.46 1715 1763.65 1713.36 1764.01 1711.79 1764.37 1710.22 1764.88 1708.74 1765.53 1707.36 1766.19 1705.98 1766.98 1704.72 1767.89 1703.59 1768.81 1702.46 1769.81 1701.48 1770.9 1700.68 1771.99 1699.87 1773.15 1699.24 1774.38 1698.79 1775.61 1698.34 1776.89 1698.12 1778.2 1698.12Z" fill="#94C356" fill-rule="evenodd"/><text fill="#000000" fill-opacity="0" font-family="Arial,Arial_MSFontService,sans-serif" font-size="27.3955" x="1763.46" y="1722.09">𝑎</text><path d="M1798.75 1718.92 1803.37 1718.92C1803.61 1720.15 1803.74 1721.37 1803.74 1722.56 1803.74 1723.79 1803.53 1724.92 1803.1 1725.94 1802.68 1726.96 1802.01 1727.97 1801.09 1728.98 1800.17 1729.99 1798.9 1731.1 1797.28 1732.32L1795.85 1730.71C1796.75 1729.86 1797.4 1729.1 1797.81 1728.43 1798.21 1727.75 1798.5 1726.98 1798.68 1726.12 1798.85 1725.26 1798.94 1724.18 1798.94 1722.88 1798.94 1721.54 1798.88 1720.22 1798.75 1718.92Z" fill="#94C356" fill-rule="evenodd"/><text fill="#000000" fill-opacity="0" font-family="Arial,Arial_MSFontService,sans-serif" font-size="13.3945" x="1795.85" y="1730.64">,</text><path d="M1823.9 1691.08 1825.51 1691.08C1825.48 1692.05 1825.45 1692.91 1825.43 1693.68 1825.42 1694.44 1825.4 1695.18 1825.39 1695.9 1825.39 1696.62 1825.38 1697.34 1825.38 1698.04L1825.38 1718.08C1825.38 1718.62 1825.4 1719.09 1825.43 1719.49 1825.47 1719.88 1825.53 1720.22 1825.61 1720.49 1825.68 1720.76 1825.79 1721 1825.92 1721.19 1826.05 1721.38 1826.21 1721.55 1826.38 1721.69 1826.59 1721.9 1826.88 1722.06 1827.23 1722.18 1827.58 1722.29 1828.03 1722.39 1828.57 1722.47 1829.12 1722.55 1829.77 1722.61 1830.54 1722.65 1831.3 1722.7 1832.22 1722.73 1833.29 1722.75L1833.29 1725.04 1812.38 1725.04 1812.38 1722.75C1813.42 1722.71 1814.3 1722.67 1815.02 1722.63 1815.74 1722.58 1816.35 1722.52 1816.86 1722.44 1817.37 1722.36 1817.78 1722.28 1818.09 1722.18 1818.4 1722.08 1818.67 1721.96 1818.89 1721.82 1819.14 1721.66 1819.35 1721.49 1819.53 1721.31 1819.7 1721.12 1819.84 1720.89 1819.95 1720.61 1820.05 1720.33 1820.14 1719.99 1820.2 1719.58 1820.26 1719.18 1820.29 1718.68 1820.29 1718.08L1820.29 1699.17C1820.29 1698.49 1820.16 1698 1819.9 1697.72 1819.63 1697.44 1819.26 1697.3 1818.76 1697.3 1818.22 1697.3 1817.41 1697.58 1816.34 1698.15 1815.26 1698.71 1813.88 1699.54 1812.17 1700.65 1811.94 1700.25 1811.73 1699.84 1811.54 1699.44 1811.34 1699.03 1811.14 1698.62 1810.93 1698.2 1813.11 1697 1815.27 1695.81 1817.4 1694.63 1819.54 1693.44 1821.71 1692.26 1823.9 1691.08Z" fill="#94C356" fill-rule="evenodd"/><text fill="#000000" fill-opacity="0" font-family="Arial,Arial_MSFontService,sans-serif" font-size="33.9609" x="1810.93" y="1720.79">1</text><path d="M1841.15 1718.92 1845.76 1718.92C1846.01 1720.15 1846.13 1721.37 1846.13 1722.56 1846.13 1723.79 1845.92 1724.92 1845.5 1725.94 1845.08 1726.96 1844.41 1727.97 1843.48 1728.98 1842.56 1729.99 1841.29 1731.1 1839.67 1732.32L1838.25 1730.71C1839.15 1729.86 1839.8 1729.1 1840.2 1728.43 1840.61 1727.75 1840.9 1726.98 1841.07 1726.12 1841.25 1725.26 1841.33 1724.18 1841.33 1722.88 1841.33 1721.54 1841.27 1720.22 1841.15 1718.92Z" fill="#94C356" fill-rule="evenodd"/><text fill="#000000" fill-opacity="0" font-family="Arial,Arial_MSFontService,sans-serif" font-size="13.3945" x="1838.25" y="1730.64">,</text><path d="M1867.62 1698.38 1869.44 1698.38 1863.95 1724.22C1863.51 1726.23 1862.95 1727.94 1862.25 1729.38 1861.56 1730.81 1860.71 1731.98 1859.71 1732.9 1858.71 1733.81 1857.54 1734.48 1856.2 1734.91 1854.87 1735.34 1853.34 1735.56 1851.61 1735.56 1851.16 1735.56 1850.72 1735.54 1850.3 1735.49 1849.87 1735.45 1849.5 1735.38 1849.16 1735.3L1849.82 1732.53C1850.03 1732.62 1850.31 1732.67 1850.66 1732.7 1851.02 1732.73 1851.42 1732.74 1851.88 1732.74 1852.74 1732.74 1853.51 1732.62 1854.18 1732.4 1854.86 1732.17 1855.47 1731.75 1856 1731.16 1856.54 1730.56 1857.02 1729.74 1857.45 1728.69 1857.88 1727.65 1858.28 1726.31 1858.65 1724.67 1859.27 1721.82 1859.86 1719.15 1860.42 1716.65 1860.98 1714.16 1861.44 1712.07 1861.8 1710.38 1862.17 1708.69 1862.45 1707.35 1862.66 1706.35 1862.87 1705.34 1863.03 1704.57 1863.12 1704.03 1863.22 1703.48 1863.28 1703.09 1863.29 1702.86 1863.31 1702.64 1863.32 1702.45 1863.32 1702.31 1863.32 1701.7 1863.09 1701.24 1862.62 1700.95 1862.16 1700.66 1861.33 1700.5 1860.16 1700.47L1860.55 1698.67ZM1866.64 1687.76 1871.94 1687.76 1870.65 1693.43 1865.35 1693.43Z" fill="#94C356" fill-rule="evenodd"/><text fill="#000000" fill-opacity="0" font-family="Arial,Arial_MSFontService,sans-serif" font-size="47.8037" x="1849.16" y="1729.58">𝑗</text><path d="M1949.46 1660.57 1982.05 1660.57 1979.56 1671.66 1976.09 1671.66C1975.99 1669.81 1975.84 1668.35 1975.64 1667.27 1975.43 1666.2 1975.15 1665.43 1974.77 1664.96 1974.4 1664.49 1973.95 1664.17 1973.42 1664 1972.89 1663.83 1972.09 1663.75 1971.03 1663.75L1959.9 1663.75 1955.6 1683.41 1962.36 1683.41C1963.42 1683.41 1964.3 1683.26 1965 1682.97 1965.7 1682.68 1966.35 1682.16 1966.95 1681.4 1967.55 1680.64 1968.3 1679.35 1969.19 1677.52L1972.48 1677.52 1968.97 1692.76 1965.79 1692.76C1965.79 1690.33 1965.72 1688.81 1965.56 1688.19 1965.4 1687.58 1965.1 1687.16 1964.66 1686.93 1964.21 1686.7 1963.32 1686.59 1962 1686.59L1954.92 1686.59 1952.06 1699.38C1951.56 1701.64 1951.3 1703.52 1951.3 1705.01 1951.3 1705.76 1951.42 1706.34 1951.67 1706.77 1951.91 1707.19 1952.27 1707.49 1952.75 1707.69 1953.23 1707.88 1954.06 1708.03 1955.24 1708.12L1954.85 1709.89 1939.99 1709.89 1940.39 1708.12C1941.31 1707.98 1941.99 1707.74 1942.45 1707.42 1942.91 1707.09 1943.29 1706.64 1943.61 1706.06 1943.92 1705.48 1944.21 1704.78 1944.47 1703.95 1944.74 1703.12 1945.14 1701.51 1945.67 1699.12L1951.81 1671.3C1952.34 1668.89 1952.6 1666.99 1952.6 1665.59 1952.6 1664.41 1952.33 1663.59 1951.77 1663.14 1951.22 1662.68 1950.32 1662.41 1949.06 1662.34Z" fill="#009FE3" fill-rule="evenodd"/><text fill="#000000" fill-opacity="0" font-family="Arial,Arial_MSFontService,sans-serif" font-size="49.3213" x="1939.99" y="1703.73">𝐹</text><path d="M1993.67 1700.73C1992.63 1700.73 1991.67 1700.96 1990.77 1701.41 1989.87 1701.87 1989.06 1702.5 1988.32 1703.29 1987.58 1704.08 1986.93 1704.99 1986.35 1706.03 1985.78 1707.07 1985.3 1708.16 1984.9 1709.32 1984.51 1710.48 1984.21 1711.68 1984.01 1712.9 1983.81 1714.12 1983.7 1715.29 1983.7 1716.42 1983.7 1718.32 1983.97 1719.73 1984.51 1720.65 1985.05 1721.57 1985.91 1722.03 1987.11 1722.03 1987.7 1722.03 1988.28 1721.93 1988.83 1721.72 1989.39 1721.51 1989.97 1721.17 1990.59 1720.72 1992.13 1719.5 1993.45 1718.03 1994.54 1716.29 1995.63 1714.55 1996.45 1712.49 1996.99 1710.12 1997.24 1709.03 1997.43 1708.04 1997.57 1707.16 1997.71 1706.28 1997.79 1705.45 1997.79 1704.66 1997.79 1703.25 1997.46 1702.25 1996.8 1701.64 1996.14 1701.03 1995.1 1700.73 1993.67 1700.73ZM1993.2 1698.12C1994.59 1698.12 1995.81 1698.28 1996.88 1698.61 1997.94 1698.93 1998.91 1699.38 1999.79 1699.94L2002.35 1698.12 2004.48 1698.67 2000.5 1715.94C2000.27 1716.93 2000.11 1717.74 2000.03 1718.38 1999.94 1719.02 1999.89 1719.59 1999.89 1720.08 1999.89 1720.75 2000.03 1721.23 2000.3 1721.53 2000.58 1721.83 2000.97 1721.98 2001.48 1721.98 2001.79 1721.98 2002.1 1721.92 2002.41 1721.8 2002.72 1721.67 2003.05 1721.48 2003.41 1721.22 2003.77 1720.95 2004.17 1720.61 2004.6 1720.2 2005.03 1719.79 2005.52 1719.29 2006.06 1718.71 2006.35 1719.01 2006.64 1719.3 2006.93 1719.59 2007.23 1719.88 2007.52 1720.17 2007.8 1720.45 2006.93 1721.35 2006.13 1722.12 2005.41 1722.76 2004.68 1723.4 2003.99 1723.93 2003.31 1724.34 2002.63 1724.75 2001.97 1725.05 2001.32 1725.24 2000.67 1725.42 1999.99 1725.51 1999.29 1725.51 1998.02 1725.51 1997.04 1725.11 1996.33 1724.29 1995.63 1723.47 1995.28 1722.35 1995.28 1720.93 1995.28 1720.14 1995.4 1719.38 1995.65 1718.66L1995.28 1718.5C1994.38 1719.75 1993.51 1720.81 1992.67 1721.69 1991.83 1722.57 1990.99 1723.3 1990.16 1723.87 1989.34 1724.44 1988.5 1724.86 1987.66 1725.12 1986.82 1725.38 1985.94 1725.51 1985.02 1725.51 1982.93 1725.51 1981.31 1724.76 1980.17 1723.26 1979.03 1721.76 1978.46 1719.57 1978.46 1716.71 1978.46 1715 1978.64 1713.36 1979 1711.79 1979.36 1710.22 1979.87 1708.74 1980.53 1707.36 1981.19 1705.98 1981.97 1704.72 1982.89 1703.59 1983.8 1702.46 1984.8 1701.48 1985.89 1700.68 1986.98 1699.87 1988.14 1699.24 1989.37 1698.79 1990.6 1698.34 1991.88 1698.12 1993.2 1698.12Z" fill="#009FE3" fill-rule="evenodd"/><text fill="#000000" fill-opacity="0" font-family="Arial,Arial_MSFontService,sans-serif" font-size="27.3955" x="1978.46" y="1722.09">𝑎</text><path d="M2013.75 1718.92 2018.36 1718.92C2018.61 1720.15 2018.73 1721.37 2018.73 1722.56 2018.73 1723.79 2018.52 1724.92 2018.1 1725.94 2017.68 1726.96 2017 1727.97 2016.08 1728.98 2015.16 1729.99 2013.89 1731.1 2012.27 1732.32L2010.85 1730.71C2011.74 1729.86 2012.39 1729.1 2012.8 1728.43 2013.2 1727.75 2013.49 1726.98 2013.67 1726.12 2013.84 1725.26 2013.93 1724.18 2013.93 1722.88 2013.93 1721.54 2013.87 1720.22 2013.75 1718.92Z" fill="#009FE3" fill-rule="evenodd"/><text fill="#000000" fill-opacity="0" font-family="Arial,Arial_MSFontService,sans-serif" font-size="13.3945" x="2010.85" y="1730.64">,</text><path d="M2036.84 1690.89C2038.67 1690.89 2040.23 1691.1 2041.52 1691.51 2042.81 1691.93 2043.86 1692.48 2044.67 1693.19 2045.48 1693.89 2046.06 1694.73 2046.43 1695.72 2046.79 1696.7 2046.97 1697.77 2046.97 1698.91 2046.97 1699.6 2046.92 1700.23 2046.82 1700.82 2046.72 1701.41 2046.56 1701.99 2046.32 1702.56 2046.08 1703.13 2045.77 1703.71 2045.38 1704.29 2045 1704.87 2044.51 1705.48 2043.93 1706.13 2043.49 1706.7 2042.92 1707.35 2042.22 1708.09 2041.52 1708.82 2040.75 1709.61 2039.91 1710.46 2039.08 1711.3 2038.2 1712.18 2037.29 1713.1 2036.38 1714.01 2035.49 1714.91 2034.63 1715.81 2033.76 1716.71 2032.97 1717.58 2032.25 1718.42 2031.53 1719.27 2030.94 1720.04 2030.49 1720.74L2040.24 1720.74C2041.07 1720.74 2041.73 1720.71 2042.22 1720.65 2042.71 1720.59 2043.12 1720.45 2043.45 1720.24 2043.77 1720.03 2044.05 1719.71 2044.28 1719.28 2044.5 1718.85 2044.77 1718.25 2045.07 1717.5L2047.52 1717.5C2047.43 1718.75 2047.35 1720 2047.27 1721.27 2047.19 1722.53 2047.11 1723.79 2047.02 1725.04L2024.69 1725.04 2024.69 1723.67C2025.11 1722.72 2025.6 1721.78 2026.16 1720.86 2026.72 1719.94 2027.36 1719 2028.06 1718.05 2028.76 1717.1 2029.56 1716.12 2030.46 1715.11 2031.36 1714.1 2032.35 1713.05 2033.44 1711.96 2035.09 1710.31 2036.44 1708.9 2037.47 1707.73 2038.51 1706.56 2039.33 1705.52 2039.93 1704.61 2040.52 1703.69 2040.93 1702.85 2041.15 1702.07 2041.37 1701.3 2041.48 1700.47 2041.48 1699.6 2041.48 1698.7 2041.35 1697.87 2041.1 1697.12 2040.84 1696.36 2040.48 1695.72 2040 1695.19 2039.53 1694.66 2038.93 1694.25 2038.2 1693.95 2037.47 1693.65 2036.63 1693.5 2035.68 1693.5 2034.05 1693.5 2032.67 1693.95 2031.57 1694.84 2030.46 1695.72 2029.6 1697.01 2028.98 1698.7L2025.53 1698.7 2025.53 1693.56C2027.78 1692.63 2029.85 1691.95 2031.74 1691.53 2033.63 1691.11 2035.33 1690.89 2036.84 1690.89Z" fill="#009FE3" fill-rule="evenodd"/><text fill="#000000" fill-opacity="0" font-family="Arial,Arial_MSFontService,sans-serif" font-size="34.1455" x="2024.69" y="1720.77">2</text><path d="M2056.14 1718.92 2060.76 1718.92C2061 1720.15 2061.13 1721.37 2061.13 1722.56 2061.13 1723.79 2060.92 1724.92 2060.49 1725.94 2060.07 1726.96 2059.4 1727.97 2058.48 1728.98 2057.55 1729.99 2056.28 1731.1 2054.67 1732.32L2053.24 1730.71C2054.14 1729.86 2054.79 1729.1 2055.19 1728.43 2055.6 1727.75 2055.89 1726.98 2056.06 1726.12 2056.24 1725.26 2056.33 1724.18 2056.33 1722.88 2056.33 1721.54 2056.27 1720.22 2056.14 1718.92Z" fill="#009FE3" fill-rule="evenodd"/><text fill="#000000" fill-opacity="0" font-family="Arial,Arial_MSFontService,sans-serif" font-size="13.3945" x="2053.24" y="1730.64">,</text><path d="M2082.61 1698.38 2084.43 1698.38 2078.95 1724.22C2078.51 1726.23 2077.94 1727.94 2077.25 1729.38 2076.55 1730.81 2075.7 1731.98 2074.7 1732.9 2073.7 1733.81 2072.53 1734.48 2071.19 1734.91 2069.86 1735.34 2068.33 1735.56 2066.61 1735.56 2066.15 1735.56 2065.71 1735.54 2065.29 1735.49 2064.87 1735.45 2064.49 1735.38 2064.15 1735.3L2064.81 1732.53C2065.02 1732.62 2065.31 1732.67 2065.66 1732.7 2066.01 1732.73 2066.41 1732.74 2066.87 1732.74 2067.73 1732.74 2068.5 1732.62 2069.18 1732.4 2069.85 1732.17 2070.46 1731.75 2071 1731.16 2071.53 1730.56 2072.02 1729.74 2072.45 1728.69 2072.88 1727.65 2073.28 1726.31 2073.65 1724.67 2074.26 1721.82 2074.85 1719.15 2075.41 1716.65 2075.98 1714.16 2076.44 1712.07 2076.8 1710.38 2077.16 1708.69 2077.44 1707.35 2077.65 1706.35 2077.87 1705.34 2078.02 1704.57 2078.12 1704.03 2078.21 1703.48 2078.27 1703.09 2078.29 1702.86 2078.3 1702.64 2078.31 1702.45 2078.31 1702.31 2078.31 1701.7 2078.08 1701.24 2077.61 1700.95 2077.15 1700.66 2076.33 1700.5 2075.15 1700.47L2075.55 1698.67ZM2081.64 1687.76 2086.94 1687.76 2085.64 1693.43 2080.34 1693.43Z" fill="#009FE3" fill-rule="evenodd"/><text fill="#000000" fill-opacity="0" font-family="Arial,Arial_MSFontService,sans-serif" font-size="47.8037" x="2064.15" y="1729.58">𝑗</text><path d="M1684.81 1795.5 1684.81 1860.87 1664.19 1860.87 1664.19 1795.5ZM1705.44 1850.55 1674.5 1912.43 1643.56 1850.55Z" fill="#00305D"/><path d="M1523.81 1795.5 1523.81 1860.87 1503.19 1860.87 1503.19 1795.5ZM1544.44 1850.55 1513.5 1912.43 1482.56 1850.55Z" fill="#00305D"/><path d="M1831.81 1793.5 1831.81 1858.87 1811.19 1858.87 1811.19 1793.5ZM1852.44 1848.55 1821.5 1910.43 1790.56 1848.55Z" fill="#94C356"/><path d="M2028.81 1793.5 2028.81 1858.87 2008.19 1858.87 2008.19 1793.5ZM2049.44 1848.55 2018.5 1910.43 1987.56 1848.55Z" fill="#009FE3"/><path d="M1909.81 1793.5 1909.81 1858.87 1889.19 1858.87 1889.19 1793.5ZM1930.44 1848.55 1899.5 1910.43 1868.56 1848.55Z" fill="#009FE3"/><path d="M2088.81 1793.5 2088.81 1858.87 2068.19 1858.87 2068.19 1793.5ZM2109.44 1848.55 2078.5 1910.43 2047.56 1848.55Z" fill="#009FE3"/><path d="M452.825 1696.84 658.813 1847.69 809.667 1641.7 886.846 1698.23 735.992 1904.21 941.98 2055.07 877.67 2142.88 671.682 1992.03 520.828 2198.02 443.649 2141.5 594.503 1935.51 388.515 1784.65Z" stroke="#002042" stroke-width="4.58333" stroke-miterlimit="8" stroke-dasharray="36.6667 13.75" fill="none" fill-rule="evenodd"/></g></svg>